<svg width="22" height="21" viewBox="0 0 22 21" fill="none" xmlns="http://www.w3.org/2000/svg">
<path d="M18.7426 1H7.59154C7.26485 1 7 1.24952 7 1.5573V19.4427C7 19.7505 7.26485 20 7.59154 20H18.7426C19.9873 20 21 19.0459 21 17.8733V3.12675C21 1.95407 19.9873 1 18.7426 1ZM18.7426 18.8854H8.18309V2.11461H18.7426C19.335 2.11461 19.8169 2.56866 19.8169 3.12675V9.73171H15.3721C14.338 9.73171 13.4967 10.525 13.4967 11.5C13.4967 12.475 14.338 13.2683 15.3721 13.2683H19.8169V17.8732C19.8169 18.4313 19.335 18.8854 18.7426 18.8854ZM19.8169 12.1536H15.3721C14.9904 12.1536 14.6798 11.8604 14.6798 11.5C14.6798 11.1396 14.9904 10.8463 15.3721 10.8463H19.8169V12.1536Z" fill="#CBD4F8" stroke="#CBD4F8" stroke-width="0.5"/>
<path d="M3 3C1.89718 3 1 3.95813 1 5.13586V16.0977C1 16.2141 1.03403 16.3277 1.09734 16.4224L2.47649 18.4869V19.4409C2.47649 19.7497 2.71089 20 3 20C3.28911 20 3.52351 19.7497 3.52351 19.4409V18.4869L4.90266 16.4224C4.96597 16.3277 5 16.2141 5 16.0977V5.13586C5 3.95813 4.10278 3 3 3ZM3 4.11814C3.52549 4.11814 3.95299 4.57467 3.95299 5.13586V6.08565H2.04701V5.13586C2.04701 4.57467 2.47451 4.11814 3 4.11814ZM3 17.3452L2.04701 15.9188V7.20378H3.95299V15.9187L3 17.3452Z" fill="#CBD4F8" stroke="#CBD4F8" stroke-width="0.5"/>
<path d="M18 7.40454V4.59546C18 4.26661 17.7093 4 17.3507 4H10.6493C10.2907 4 10 4.26661 10 4.59546V7.40454C10 7.73339 10.2907 8 10.6493 8H17.3507C17.7093 8 18 7.73339 18 7.40454ZM16.7014 6.80907H11.2986V5.19093H16.7014L16.7014 6.80907Z" fill="#CBD4F8" stroke="#CBD4F8" stroke-width="0.5"/>
</svg>
