<svg width="41" height="41" viewBox="0 0 41 41" fill="none" xmlns="http://www.w3.org/2000/svg">
<path d="M35.3019 26.5156C35.4054 26.1614 35.6196 25.8496 35.9131 25.6258C36.2066 25.4021 36.564 25.2782 36.933 25.2722H38.0978C38.3219 24.1378 38.4357 22.9844 38.4375 21.8281H33.0562C33.0562 25.1582 31.7334 28.352 29.3786 30.7067C27.0239 33.0615 23.8301 34.3844 20.5 34.3844C17.1699 34.3844 13.9761 33.0615 11.6214 30.7067C9.26664 28.352 7.94375 25.1582 7.94375 21.8281H2.5625C2.56431 22.9844 2.67808 24.1378 2.9022 25.2722H4.06705C4.43606 25.2781 4.79346 25.4021 5.08695 25.6258C5.38045 25.8496 5.5946 26.1614 5.69808 26.5156C5.9654 27.3538 6.30429 28.1675 6.71099 28.9476C6.88971 29.2708 6.95983 29.6428 6.91098 30.0089C6.86213 30.3749 6.69692 30.7156 6.43971 30.9806L5.61138 31.8067C6.91021 33.7297 8.56845 35.3836 10.4949 36.6774L11.3233 35.8512C11.5897 35.5945 11.9313 35.4298 12.298 35.3811C12.6647 35.3324 13.0374 35.4024 13.3616 35.5806C14.1441 35.9864 14.9599 36.3244 15.8001 36.5908C16.1545 36.6931 16.4668 36.9063 16.6912 37.199C16.9155 37.4918 17.0402 37.8488 17.0467 38.2176V39.3793C19.3267 39.8311 21.6732 39.8311 23.9532 39.3793V38.2176C23.9597 37.8488 24.0844 37.4919 24.3087 37.1991C24.5331 36.9063 24.8454 36.6931 25.1998 36.5909C26.04 36.3244 26.8558 35.9864 27.6383 35.5807C27.9625 35.4024 28.3352 35.3325 28.7019 35.3812C29.0686 35.4298 29.4102 35.5946 29.6766 35.8512L30.505 36.6774C32.4315 35.3836 34.0897 33.7297 35.3885 31.8067L34.5602 30.9806C34.303 30.7156 34.1378 30.375 34.0889 30.0089C34.0401 29.6428 34.1102 29.2708 34.2889 28.9476C34.6957 28.1675 35.0346 27.3538 35.3019 26.5156Z" fill="white"/>
<path d="M4.63602 14.0938H4.62961C3.21615 14.0938 2.07031 15.2396 2.07031 16.653V16.6595C2.07031 18.0729 3.21615 19.2188 4.62961 19.2188H4.63602C6.04948 19.2188 7.19531 18.0729 7.19531 16.6595V16.653C7.19531 15.2396 6.04948 14.0938 4.63602 14.0938Z" fill="white"/>
<path d="M36.3704 14.0938H36.364C34.9505 14.0938 33.8047 15.2396 33.8047 16.653V16.6595C33.8047 18.0729 34.9505 19.2188 36.364 19.2188H36.3704C37.7838 19.2188 38.9297 18.0729 38.9297 16.6595V16.653C38.9297 15.2396 37.7838 14.0938 36.3704 14.0938Z" fill="white"/>
<path d="M20.8434 1.28125H20.1566C18.931 1.28125 17.9375 2.27479 17.9375 3.50038V4.18712C17.9375 5.41271 18.931 6.40625 20.1566 6.40625H20.8434C22.069 6.40625 23.0625 5.41271 23.0625 4.18712V3.50038C23.0625 2.27479 22.069 1.28125 20.8434 1.28125Z" fill="white"/>
<path d="M5.24802 11.3304C5.06158 11.6514 4.88516 11.9783 4.71875 12.3114L5.86518 12.8832C6.0194 12.5744 6.183 12.2714 6.35598 11.9742C7.52979 9.96316 9.11713 8.22423 11.013 6.87236L11.8213 8.48463L14.8188 4.00025H9.57318L10.4337 5.71677C8.31779 7.18897 6.54816 9.10464 5.24802 11.3304ZM35.0998 11.5866L34.4693 6.4616L32.8018 7.5649C30.7713 5.58218 28.2923 4.11874 25.5753 3.29883L25.2075 4.52627C27.6374 5.25836 29.8635 6.54616 31.7095 8.28767L30.3351 9.19703L35.0998 11.5866ZM12.8126 21.14C12.8126 22.6604 13.2635 24.1467 14.1082 25.4109C14.9529 26.6751 16.1535 27.6605 17.5582 28.2423C18.9629 28.8242 20.5086 28.9764 21.9998 28.6798C23.4911 28.3831 24.8609 27.651 25.936 26.5759C27.0111 25.5008 27.7432 24.131 28.0399 22.6397C28.3365 21.1485 28.1843 19.6028 27.6024 18.1981C27.0206 16.7934 26.0352 15.5928 24.771 14.7481C23.5068 13.9033 22.0205 13.4525 20.5001 13.4525C18.4612 13.4525 16.5059 14.2624 15.0642 15.7041C13.6225 17.1458 12.8126 19.1011 12.8126 21.14ZM17.0351 21.9048L19.2952 23.562L24.4008 17.4351L25.3849 18.2553L19.8939 24.8448C19.7896 24.9701 19.6414 25.0509 19.4795 25.0707C19.3177 25.0904 19.1544 25.0477 19.023 24.9512L16.2775 22.9377L17.0351 21.9048Z" fill="white"/>
</svg>
