<svg width="1034" height="12" viewBox="0 0 1034 12" fill="none" xmlns="http://www.w3.org/2000/svg">
<path d="M1034 6L1029 3.11325V8.88675L1034 6ZM0 6.5H3.00581V5.5H0V6.5ZM9.01744 6.5H15.0291V5.5H9.01744V6.5ZM21.0407 6.5H27.0523V5.5H21.0407V6.5ZM33.064 6.5H39.0756V5.5H33.064V6.5ZM45.0872 6.5H51.0988V5.5H45.0872V6.5ZM57.1105 6.5H63.1221V5.5H57.1105V6.5ZM69.1337 6.5H75.1453V5.5H69.1337V6.5ZM81.157 6.5H87.1686V5.5H81.157V6.5ZM93.1802 6.5H99.1919V5.5H93.1802V6.5ZM105.203 6.5H111.215V5.5H105.203V6.5ZM117.227 6.5H123.238V5.5H117.227V6.5ZM129.25 6.5H135.262V5.5H129.25V6.5ZM141.273 6.5H147.285V5.5H141.273V6.5ZM153.297 6.5H159.308V5.5H153.297V6.5ZM165.32 6.5H171.331V5.5H165.32V6.5ZM177.343 6.5H183.355V5.5H177.343V6.5ZM189.366 6.5H195.378V5.5H189.366V6.5ZM201.39 6.5H207.401V5.5H201.39V6.5ZM213.413 6.5H219.424V5.5H213.413V6.5ZM225.436 6.5H231.448V5.5H225.436V6.5ZM237.459 6.5H243.471V5.5H237.459V6.5ZM249.483 6.5H255.494V5.5H249.483V6.5ZM261.506 6.5H267.517V5.5H261.506V6.5ZM273.529 6.5H279.541V5.5H273.529V6.5ZM285.552 6.5H291.564V5.5H285.552V6.5ZM297.576 6.5H303.587V5.5H297.576V6.5ZM309.599 6.5H315.61V5.5H309.599V6.5ZM321.622 6.5H327.634V5.5H321.622V6.5ZM333.645 6.5H339.657V5.5H333.645V6.5ZM345.669 6.5H351.68V5.5H345.669V6.5ZM357.692 6.5H363.703V5.5H357.692V6.5ZM369.715 6.5H375.727V5.5H369.715V6.5ZM381.738 6.5H387.75V5.5H381.738V6.5ZM393.762 6.5H399.773V5.5H393.762V6.5ZM405.785 6.5H411.796V5.5H405.785V6.5ZM417.808 6.5H423.82V5.5H417.808V6.5ZM429.831 6.5H435.843V5.5H429.831V6.5ZM441.855 6.5H447.866V5.5H441.855V6.5ZM453.878 6.5H459.889V5.5H453.878V6.5ZM465.901 6.5H471.913V5.5H465.901V6.5ZM477.924 6.5H483.936V5.5H477.924V6.5ZM489.948 6.5H495.959V5.5H489.948V6.5ZM501.971 6.5H507.983V5.5H501.971V6.5ZM513.994 6.5H520.006V5.5H513.994V6.5ZM526.017 6.5H532.029V5.5H526.017V6.5ZM538.041 6.5H544.052V5.5H538.041V6.5ZM550.064 6.5H556.076V5.5H550.064V6.5ZM562.087 6.5H568.099V5.5H562.087V6.5ZM574.111 6.5H580.122V5.5H574.111V6.5ZM586.134 6.5H592.146V5.5H586.134V6.5ZM598.157 6.5H604.169V5.5H598.157V6.5ZM610.181 6.5H616.192V5.5H610.181V6.5ZM622.204 6.5H628.216V5.5H622.204V6.5ZM634.227 6.5H640.239V5.5H634.227V6.5ZM646.251 6.5H652.262V5.5H646.251V6.5ZM658.274 6.5H664.286V5.5H658.274V6.5ZM670.297 6.5H676.309V5.5H670.297V6.5ZM682.321 6.5H688.332V5.5H682.321V6.5ZM694.344 6.5H700.356V5.5H694.344V6.5ZM706.367 6.5H712.379V5.5H706.367V6.5ZM718.391 6.5H724.402V5.5H718.391V6.5ZM730.414 6.5H736.425V5.5H730.414V6.5ZM742.437 6.5H748.449V5.5H742.437V6.5ZM754.46 6.5H760.472V5.5H754.46V6.5ZM766.484 6.5H772.495V5.5H766.484V6.5ZM778.507 6.5H784.519V5.5H778.507V6.5ZM790.53 6.5H796.542V5.5H790.53V6.5ZM802.554 6.5H808.565V5.5H802.554V6.5ZM814.577 6.5H820.589V5.5H814.577V6.5ZM826.6 6.5H832.612V5.5H826.6V6.5ZM838.624 6.5H844.635V5.5H838.624V6.5ZM850.647 6.5H856.659V5.5H850.647V6.5ZM862.67 6.5H868.682V5.5H862.67V6.5ZM874.694 6.5H880.705V5.5H874.694V6.5ZM886.717 6.5H892.729V5.5H886.717V6.5ZM898.74 6.5H904.752V5.5H898.74V6.5ZM910.764 6.5H916.775V5.5H910.764V6.5ZM922.787 6.5H928.799V5.5H922.787V6.5ZM934.81 6.5H940.822V5.5H934.81V6.5ZM946.833 6.5H952.845V5.5H946.833V6.5ZM958.857 6.5H964.868V5.5H958.857V6.5ZM970.88 6.5H976.892V5.5H970.88V6.5ZM982.903 6.5H988.915V5.5H982.903V6.5ZM994.927 6.5H1000.94V5.5H994.927V6.5ZM1006.95 6.5H1012.96V5.5H1006.95V6.5ZM1018.97 6.5H1024.98V5.5H1018.97V6.5ZM1034 6L1024 0.226497V11.7735L1034 6ZM0 7H3.00581V5H0V7ZM9.01744 7H15.0291V5H9.01744V7ZM21.0407 7H27.0523V5H21.0407V7ZM33.064 7H39.0756V5H33.064V7ZM45.0872 7H51.0988V5H45.0872V7ZM57.1105 7H63.1221V5H57.1105V7ZM69.1337 7H75.1453V5H69.1337V7ZM81.157 7H87.1686V5H81.157V7ZM93.1802 7H99.1919V5H93.1802V7ZM105.203 7H111.215V5H105.203V7ZM117.227 7H123.238V5H117.227V7ZM129.25 7H135.262V5H129.25V7ZM141.273 7H147.285V5H141.273V7ZM153.297 7H159.308V5H153.297V7ZM165.32 7H171.331V5H165.32V7ZM177.343 7H183.355V5H177.343V7ZM189.366 7H195.378V5H189.366V7ZM201.39 7H207.401V5H201.39V7ZM213.413 7H219.424V5H213.413V7ZM225.436 7H231.448V5H225.436V7ZM237.459 7H243.471V5H237.459V7ZM249.483 7H255.494V5H249.483V7ZM261.506 7H267.517V5H261.506V7ZM273.529 7H279.541V5H273.529V7ZM285.552 7H291.564V5H285.552V7ZM297.576 7H303.587V5H297.576V7ZM309.599 7H315.61V5H309.599V7ZM321.622 7H327.634V5H321.622V7ZM333.645 7H339.657V5H333.645V7ZM345.669 7H351.68V5H345.669V7ZM357.692 7H363.703V5H357.692V7ZM369.715 7H375.727V5H369.715V7ZM381.738 7H387.75V5H381.738V7ZM393.762 7H399.773V5H393.762V7ZM405.785 7H411.796V5H405.785V7ZM417.808 7H423.82V5H417.808V7ZM429.831 7H435.843V5H429.831V7ZM441.855 7H447.866V5H441.855V7ZM453.878 7H459.889V5H453.878V7ZM465.901 7H471.913V5H465.901V7ZM477.924 7H483.936V5H477.924V7ZM489.948 7H495.959V5H489.948V7ZM501.971 7H507.983V5H501.971V7ZM513.994 7H520.006V5H513.994V7ZM526.017 7H532.029V5H526.017V7ZM538.041 7H544.052V5H538.041V7ZM550.064 7H556.076V5H550.064V7ZM562.087 7H568.099V5H562.087V7ZM574.111 7H580.122V5H574.111V7ZM586.134 7H592.146V5H586.134V7ZM598.157 7H604.169V5H598.157V7ZM610.181 7H616.192V5H610.181V7ZM622.204 7H628.216V5H622.204V7ZM634.227 7H640.239V5H634.227V7ZM646.251 7H652.262V5H646.251V7ZM658.274 7H664.286V5H658.274V7ZM670.297 7H676.309V5H670.297V7ZM682.321 7H688.332V5H682.321V7ZM694.344 7H700.356V5H694.344V7ZM706.367 7H712.379V5H706.367V7ZM718.391 7H724.402V5H718.391V7ZM730.414 7H736.425V5H730.414V7ZM742.437 7H748.449V5H742.437V7ZM754.46 7H760.472V5H754.46V7ZM766.484 7H772.495V5H766.484V7ZM778.507 7H784.519V5H778.507V7ZM790.53 7H796.542V5H790.53V7ZM802.554 7H808.565V5H802.554V7ZM814.577 7H820.589V5H814.577V7ZM826.6 7H832.612V5H826.6V7ZM838.624 7H844.635V5H838.624V7ZM850.647 7H856.659V5H850.647V7ZM862.67 7H868.682V5H862.67V7ZM874.694 7H880.705V5H874.694V7ZM886.717 7H892.729V5H886.717V7ZM898.74 7H904.752V5H898.74V7ZM910.764 7H916.775V5H910.764V7ZM922.787 7H928.799V5H922.787V7ZM934.81 7H940.822V5H934.81V7ZM946.833 7H952.845V5H946.833V7ZM958.857 7H964.868V5H958.857V7ZM970.88 7H976.892V5H970.88V7ZM982.903 7H988.915V5H982.903V7ZM994.927 7H1000.94V5H994.927V7ZM1006.95 7H1012.96V5H1006.95V7ZM1018.97 7H1024.98V5H1018.97V7Z" fill="url(#paint0_linear_301_4341)"/>
<defs>
<linearGradient id="paint0_linear_301_4341" x1="1034" y1="7.01963" x2="0" y2="7.01963" gradientUnits="userSpaceOnUse">
<stop stop-color="#7EA5D7"/>
<stop offset="1" stop-color="#7EA5D7" stop-opacity="0.81"/>
</linearGradient>
</defs>
</svg>
