<svg width="19" height="19" viewBox="0 0 19 19" fill="none" xmlns="http://www.w3.org/2000/svg">
<path d="M7.48935 8.27094C8.34265 7.41777 9.49125 6.92518 10.6976 6.89507C11.9039 6.86496 13.0756 7.29962 13.9705 8.10916L14.1407 8.27094L16.8009 10.9318C17.6673 11.7997 18.1604 12.9716 18.1751 14.1977C18.1899 15.4239 17.7252 16.6073 16.8799 17.4957C16.0347 18.3842 14.8759 18.9074 13.6504 18.9539C12.425 19.0003 11.2299 18.5664 10.3198 17.7445L10.1505 17.5827L8.15439 15.5868C7.98569 15.4175 7.88774 15.1904 7.88045 14.9515C7.87315 14.7127 7.95706 14.48 8.11512 14.3007C8.27318 14.1215 8.49355 14.0091 8.73146 13.9865C8.96937 13.9638 9.20699 14.0325 9.39605 14.1787L9.48448 14.2568L11.4805 16.2527C11.998 16.7731 12.6978 17.0715 13.4316 17.0845C14.1653 17.0976 14.8753 16.8243 15.411 16.3226C15.9466 15.8209 16.2657 15.1304 16.3005 14.3974C16.3354 13.6643 16.0833 12.9466 15.5978 12.3963L15.4708 12.2618L12.8106 9.60092C12.5486 9.33885 12.2375 9.13095 11.8951 8.98912C11.5527 8.84728 11.1857 8.77428 10.815 8.77428C10.4444 8.77428 10.0774 8.84728 9.735 8.98912C9.39259 9.13095 9.08148 9.33885 8.81943 9.60092C8.64202 9.77225 8.40441 9.86706 8.15778 9.86492C7.91114 9.86277 7.67521 9.76385 7.50081 9.58946C7.3264 9.41507 7.22748 9.17916 7.22533 8.93254C7.22319 8.68593 7.318 8.44833 7.48935 8.27094ZM1.50303 2.28508C2.35633 1.43191 3.50493 0.939324 4.71125 0.909212C5.91758 0.8791 7.08933 1.31377 7.98413 2.1233L8.15439 2.28508L10.1495 4.28193C10.3182 4.4512 10.4162 4.67833 10.4235 4.91719C10.4308 5.15605 10.3469 5.38873 10.1888 5.56797C10.0307 5.74721 9.81036 5.85958 9.57245 5.88224C9.33454 5.9049 9.09692 5.83616 8.90785 5.68998L8.81943 5.61191L6.82431 3.61694C6.30598 3.10203 5.60813 2.80821 4.87756 2.7973C4.147 2.78638 3.44068 3.05923 2.9072 3.55843C2.37372 4.05763 2.05467 4.74427 2.01717 5.47389C1.97967 6.20352 2.22664 6.91925 2.70613 7.4705L2.83311 7.60595L5.49422 10.2668C6.02342 10.7958 6.74107 11.093 7.48935 11.093C8.23763 11.093 8.95528 10.7958 9.48448 10.2668C9.57181 10.1795 9.6755 10.1101 9.78963 10.0628C9.90377 10.0155 10.0261 9.99111 10.1497 9.99107C10.2732 9.99103 10.3956 10.0153 10.5097 10.0626C10.6239 10.1098 10.7276 10.1791 10.815 10.2664C10.9024 10.3537 10.9718 10.4574 11.0191 10.5715C11.0664 10.6856 11.0908 10.808 11.0908 10.9315C11.0909 11.0551 11.0666 11.1774 11.0193 11.2916C10.9721 11.4057 10.9028 11.5094 10.8155 11.5968C9.9622 12.45 8.8136 12.9426 7.60728 12.9727C6.40095 13.0028 5.2292 12.5681 4.3344 11.7586L4.1632 11.5968L1.50303 8.93593C0.621303 8.054 0.125977 6.85802 0.125977 5.61097C0.125977 4.36393 0.621303 3.167 1.50303 2.28508Z" fill="#696E7E"/>
</svg>
