<svg width="57" height="35" viewBox="0 0 57 35" fill="none" xmlns="http://www.w3.org/2000/svg">
<g clip-path="url(#clip0_113_537)">
<path d="M0.20752 11.8272C0.277717 11.5782 0.43566 11.4359 0.646251 11.3114C2.38363 10.2977 4.13855 9.28397 5.87593 8.27025C6.13917 8.11019 6.38486 8.11019 6.6481 8.27025C8.42057 9.30176 10.193 10.3155 11.9655 11.3648C12.2112 11.507 12.3341 11.7027 12.3341 11.9872C12.3341 14.7972 12.3341 17.5894 12.3341 20.3993C12.3341 20.7194 12.0708 20.8617 11.8076 20.7017C10.7722 20.097 9.71922 19.4923 8.68381 18.8876C8.43812 18.7454 8.31528 18.5319 8.31528 18.2296C8.31528 16.9491 8.31528 15.6686 8.31528 14.3881C8.31528 14.068 8.19243 13.8546 7.92919 13.7123C7.50801 13.4633 7.08683 13.2321 6.66565 12.9832C6.41996 12.8409 6.17427 12.8409 5.92858 12.9832C5.5074 13.2321 5.08621 13.4811 4.66503 13.7123C4.40179 13.8546 4.27895 14.0858 4.27895 14.3881C4.27895 15.6686 4.27895 16.9313 4.27895 18.2118C4.27895 18.5319 4.1561 18.7454 3.89286 18.8876C2.85746 19.4923 1.82205 20.0792 0.786645 20.6839C0.646251 20.7728 0.523406 20.7906 0.383012 20.6839C0.295266 20.6305 0.277717 20.5416 0.242618 20.4527C0.20752 17.5894 0.20752 14.7083 0.20752 11.8272Z" fill="#FBBE40"/>
<path d="M41.8848 10.5638C41.8848 13.1426 41.8848 15.7391 41.8848 18.3179C41.8848 18.6736 41.7444 18.9048 41.4461 19.0826C39.6912 20.0963 37.9538 21.1278 36.1989 22.1416C35.9356 22.3016 35.6899 22.3016 35.4267 22.1416C33.6718 21.1101 31.9344 20.0963 30.1795 19.0648C29.8811 18.887 29.7407 18.6558 29.7407 18.3179C29.7407 16.2727 29.7407 14.2452 29.7407 12.2C29.7407 11.8621 29.8636 11.6309 30.1619 11.4708C31.9168 10.4571 33.6542 9.42561 35.4091 8.41189C35.6899 8.25183 35.9532 8.23404 36.2339 8.41189C36.6376 8.66087 37.0412 8.87429 37.4273 9.12327C37.6554 9.26555 37.8485 9.14106 37.8485 8.89207C37.8485 6.17104 37.8485 3.43221 37.8485 0.711178C37.8485 0.675609 37.8485 0.622256 37.8485 0.586687C37.8485 0.302134 38.1117 0.142073 38.3574 0.284349C38.6207 0.426626 38.8839 0.586687 39.1647 0.728963C39.9368 1.17358 40.709 1.60041 41.4812 2.04502C41.762 2.20508 41.9024 2.43628 41.9024 2.77419C41.8848 5.37073 41.8848 7.96728 41.8848 10.5638ZM37.8309 15.2945C37.8309 14.9566 37.8309 14.6009 37.8309 14.263C37.8309 14.1563 37.7958 14.0852 37.6905 14.0318C37.1114 13.6939 36.5323 13.356 35.9356 13.0181C35.8303 12.9647 35.7601 12.9647 35.6548 13.0181C35.0757 13.356 34.4966 13.6939 33.935 14.0318C33.8297 14.0852 33.7946 14.1741 33.7946 14.2986C33.7946 14.9744 33.7946 15.6502 33.7946 16.326C33.7946 16.4505 33.8297 16.5216 33.935 16.575C34.5141 16.9129 35.0932 17.2508 35.6724 17.5887C35.7777 17.6421 35.8479 17.6421 35.9532 17.5887C36.5323 17.2508 37.1114 16.9129 37.6905 16.575C37.7958 16.5216 37.8309 16.4505 37.8309 16.326C37.8309 15.9703 37.8309 15.6324 37.8309 15.2945Z" fill="#F65535"/>
<path d="M27.0759 15.2054C27.0759 16.2191 27.0759 17.2328 27.0759 18.2287C27.0759 18.5844 26.953 18.8156 26.6547 18.9757C24.9173 19.9894 23.1799 21.0031 21.4426 22.0168C21.1618 22.1769 20.9161 22.1769 20.6353 22.0168C18.8804 20.9853 17.143 19.9716 15.3881 18.9401C15.1248 18.7801 15.0195 18.5666 15.0195 18.2643C15.0195 17.5707 15.0195 16.8949 15.0195 16.2013C15.0195 14.8497 15.0195 13.5158 15.0195 12.1642C15.0195 11.8263 15.1599 11.5773 15.4583 11.4172C17.1956 10.4035 18.933 9.38981 20.6704 8.37609C20.9336 8.21603 21.1793 8.21603 21.4426 8.37609C23.1799 9.40759 24.9349 10.4213 26.6898 11.435C26.9706 11.5951 27.0934 11.8263 27.0934 12.1464C27.0759 13.1601 27.0759 14.1739 27.0759 15.2054Z" fill="#545AE8"/>
<path d="M44.5745 15.188C44.5745 14.1742 44.5745 13.1605 44.5745 12.129C44.5745 11.7911 44.7149 11.5777 44.9956 11.3998C46.733 10.3861 48.488 9.37241 50.2253 8.3409C50.5237 8.16306 50.7869 8.16306 51.0852 8.3409C52.8051 9.35462 54.5249 10.3683 56.2447 11.3821C56.5431 11.5599 56.6835 11.7911 56.6835 12.1468C56.6659 12.5914 56.6835 13.036 56.6835 13.4806C56.6835 13.783 56.5606 13.9964 56.2974 14.1565C55.262 14.7611 54.209 15.3836 53.1736 15.9883C52.8753 16.1661 52.612 16.0238 52.612 15.6681C52.612 15.188 52.612 14.7078 52.612 14.2454C52.612 14.0675 52.5418 13.9608 52.4014 13.8719C51.875 13.5696 51.3309 13.2494 50.8045 12.9471C50.6641 12.8582 50.5237 12.8582 50.3833 12.9471C49.8568 13.2672 49.3128 13.5696 48.7863 13.8897C48.6459 13.9786 48.5757 14.0853 48.5757 14.2454C48.5757 14.8678 48.5757 15.4903 48.5757 16.1128C48.5757 16.2906 48.6459 16.3973 48.8038 16.4862C50.5588 17.4999 52.3137 18.5137 54.0686 19.5452C54.1213 19.5807 54.1739 19.5985 54.209 19.6341C54.402 19.7764 54.402 20.0609 54.209 20.1854C54.1213 20.2566 54.016 20.2921 53.9107 20.3633C52.9455 20.8968 51.9978 21.4303 51.0326 21.9817C50.7343 22.1417 50.471 22.1417 50.1902 21.9817C48.4528 20.9679 46.7155 19.972 44.9781 18.9761C44.7149 18.816 44.5745 18.6026 44.5745 18.2825C44.5745 17.251 44.5745 16.2195 44.5745 15.188Z" fill="#FBBE40"/>
<path d="M51.785 15.169C51.785 15.3468 51.785 15.5424 51.785 15.7203C51.785 15.8092 51.7499 15.8448 51.6797 15.8981C51.3638 16.0938 51.0304 16.2716 50.7145 16.4672C50.6443 16.5028 50.5917 16.5028 50.5215 16.4672C50.2056 16.2716 49.8721 16.0938 49.5563 15.8981C49.4861 15.8626 49.4685 15.8092 49.4685 15.7381C49.4685 15.3468 49.4685 14.9733 49.4685 14.5821C49.4685 14.5109 49.5036 14.4576 49.5563 14.422C49.8721 14.2442 50.2056 14.0485 50.5215 13.8529C50.5917 13.8173 50.6443 13.8173 50.7145 13.8529C51.0304 14.0485 51.3638 14.2264 51.6797 14.422C51.7499 14.4576 51.785 14.5287 51.785 14.5999C51.785 14.7955 51.785 14.9911 51.785 15.169Z" fill="#F65535"/>
<path d="M36.4636 24.7207C36.4987 24.614 36.4636 24.4717 36.3759 24.4006C36.3057 24.3472 36.2355 24.3295 36.1478 24.3295C36.0776 24.3295 36.0074 24.3295 35.9372 24.3117H35.8319H35.7792H35.7441C35.7266 24.3117 35.709 24.3117 35.6915 24.3117C35.6213 24.3295 35.5862 24.3828 35.5862 24.454V24.5607C35.5862 24.8452 35.5862 25.1298 35.5862 25.4143C35.5862 25.4321 35.5862 25.4677 35.6037 25.5032C35.6213 25.5388 35.6388 25.5566 35.6739 25.5744C35.709 25.5922 35.7441 25.5922 35.7617 25.5922H35.8319C35.9021 25.5922 35.9547 25.5388 35.9723 25.4677C35.9723 25.4321 35.9723 25.4143 35.9723 25.3965V25.3432V25.1298C35.9898 25.1298 36.0074 25.1298 36.0249 25.1298C36.0776 25.1298 36.1127 25.1653 36.1127 25.2009C36.1127 25.2009 36.1127 25.2187 36.1127 25.2365V25.2898L36.1302 25.3965C36.1302 25.4321 36.1302 25.5032 36.1829 25.5566C36.2004 25.5744 36.2355 25.5922 36.2706 25.6099C36.3057 25.6099 36.3233 25.6099 36.3408 25.6099C36.3583 25.6099 36.3934 25.6099 36.4285 25.5922C36.4636 25.5922 36.4812 25.5744 36.4987 25.5388C36.5163 25.521 36.5163 25.4855 36.5163 25.4499C36.5163 25.4321 36.5163 25.4143 36.4987 25.3965C36.4987 25.3788 36.4987 25.361 36.4812 25.361H36.4636H36.4461C36.5163 25.361 36.4636 25.361 36.4812 25.361V25.3432V25.3254V25.2898C36.4812 25.2543 36.4636 25.2365 36.4636 25.2009C36.4461 25.1476 36.4461 25.0764 36.411 25.0231C36.3759 24.9697 36.3408 24.9341 36.3057 24.9341C36.2706 24.9341 36.2531 24.9341 36.2531 24.9519C36.2531 24.9875 36.3057 25.0231 36.3057 25.0764C36.3057 25.112 36.3057 25.1476 36.3232 25.2187C36.3232 25.2543 36.3232 25.272 36.3232 25.3076V25.361V25.3787C36.3232 25.3965 36.3232 25.4143 36.3232 25.4143H36.3057C36.2882 25.4143 36.2706 25.4143 36.2882 25.4143C36.2882 25.4143 36.2882 25.4143 36.2882 25.3965L36.2706 25.272V25.2187C36.2706 25.2009 36.2706 25.1831 36.2531 25.1475C36.2355 25.0942 36.2004 25.0586 36.1478 25.0231C36.1127 24.9875 36.06 24.9697 36.0074 24.9697C35.9547 24.9697 35.9021 24.9697 35.8319 25.0231C35.8143 25.0408 35.7968 25.0764 35.7968 25.112V25.1831V25.3076V25.4321C35.7968 25.4321 35.7968 25.4499 35.7792 25.4499H35.7266C35.7266 25.4499 35.7266 25.4499 35.709 25.4499C35.709 25.4499 35.709 25.4499 35.709 25.4321V25.3787C35.709 25.2009 35.709 25.0408 35.709 24.8452C35.709 24.7563 35.709 24.6674 35.709 24.5607C35.709 24.5429 35.709 24.5073 35.709 24.4895V24.4717H35.7441H35.8319C35.9372 24.4717 36.06 24.4717 36.1653 24.4895C36.218 24.5073 36.2531 24.5251 36.2706 24.5429C36.2882 24.5784 36.3057 24.6318 36.3057 24.6674C36.3232 24.7741 36.1829 24.8986 36.2004 24.9341C36.2706 24.9519 36.4285 24.863 36.4636 24.7207Z" fill="#0A1854"/>
<path d="M25.8836 29.0241C25.8661 29.522 25.8485 30.0734 25.8485 30.6247C25.8485 30.8915 25.8485 31.176 25.831 31.4606V31.674C25.831 31.7273 25.831 31.7985 25.8134 31.8518C25.7959 31.9585 25.7432 32.083 25.6906 32.1719C25.5326 32.4209 25.2519 32.5454 24.9535 32.5454C24.7956 32.5454 24.6552 32.5099 24.4972 32.4565C24.3568 32.4031 24.1989 32.3142 24.041 32.2431C23.7426 32.083 23.4443 31.8696 23.1284 31.6918L22.9003 31.5495C22.8476 31.5139 22.795 31.4783 22.7599 31.425C22.6897 31.3361 22.6546 31.2294 22.6546 31.0871L22.6897 26.7654V25.6806C22.6721 25.2893 22.7072 25.1115 22.9178 24.9692C22.9354 24.9514 22.9705 24.9336 23.0056 24.9158L23.1108 24.8447L23.339 24.7024L23.8128 24.4357L24.7429 23.9021L26.6031 22.8173L27.5333 22.2837L27.7614 22.1415C27.8316 22.1059 27.8842 22.0703 27.9369 22.0525C28.0422 22.017 28.1299 22.017 28.2352 22.0525L31.903 24.1867L32.8331 24.7202L33.0613 24.8625L33.1666 24.9158C33.2017 24.9336 33.2192 24.9514 33.2368 24.9692C33.3245 25.0403 33.3772 25.1293 33.3947 25.236C33.4123 25.2893 33.4123 25.3605 33.4123 25.4316V25.6984V26.2497V27.3345V29.5043V30.5891C33.4123 30.767 33.4123 30.9804 33.4123 31.0871C33.3947 31.2116 33.3596 31.3005 33.2719 31.3716C33.2368 31.4072 33.1841 31.4428 33.1139 31.4783L32.8858 31.6206L32.4295 31.8874L31.4994 32.4387L29.6392 33.5236C29.3935 33.6658 29.1302 33.8259 28.8846 33.9682C28.7617 34.0393 28.6389 34.1282 28.4985 34.1994C28.3581 34.2883 28.2703 34.3417 28.1826 34.3594C28.0071 34.4128 27.8316 34.3772 27.621 34.235C27.3753 34.1105 27.1472 33.9682 26.9366 33.8615C26.0767 33.3991 25.4624 33.1145 25.4449 33.2212C25.4098 33.3279 25.8836 33.7192 26.6558 34.2527C26.8488 34.395 27.0594 34.5373 27.2876 34.6796L27.3753 34.7329C27.4104 34.7507 27.4455 34.7863 27.4806 34.8041C27.5508 34.8396 27.6386 34.893 27.7263 34.9108C27.9018 34.9819 28.1124 34.9997 28.3054 34.9463C28.4107 34.9285 28.4985 34.893 28.5862 34.8574C28.6213 34.8396 28.674 34.8218 28.7091 34.7863L28.8144 34.7329C28.9547 34.6618 29.0951 34.5729 29.2355 34.5017C29.5163 34.3417 29.7971 34.1816 30.0955 34.0038C30.9027 33.5414 31.7275 33.0612 32.5348 32.581L33.0262 32.2787L33.2719 32.1364C33.3596 32.083 33.4298 32.0475 33.5351 31.9763C33.6404 31.9052 33.7281 31.8163 33.8159 31.7095C33.9036 31.6028 33.9563 31.4606 33.9914 31.3361C34.0265 31.2116 34.044 31.0871 34.044 30.9626V30.6603C34.044 29.8777 34.0265 29.0774 34.0265 28.2771C34.0265 27.4768 34.0265 26.6587 34.0265 25.8584V25.5561C34.0265 25.4672 34.0265 25.3249 34.0089 25.2004C33.9914 25.0759 33.9563 24.9336 33.8861 24.8091C33.8159 24.6846 33.7281 24.5779 33.6229 24.489C33.5176 24.4001 33.4123 24.3467 33.3245 24.2934L33.0613 24.1333C32.8858 24.0266 32.7103 23.9199 32.5172 23.8132C31.7977 23.4042 31.0782 22.9773 30.3411 22.5505C29.9726 22.3371 29.6041 22.1237 29.2355 21.8925C29.0425 21.7858 28.867 21.6791 28.674 21.5546C28.5687 21.4834 28.4458 21.4301 28.2879 21.3945C28.1475 21.3589 27.9895 21.3589 27.8316 21.3945C27.6912 21.4301 27.5508 21.4834 27.4455 21.5546L27.1647 21.7146C26.9717 21.8213 26.7786 21.9458 26.5856 22.0525C26.1995 22.2837 25.8134 22.5149 25.4098 22.7461C24.6201 23.2085 23.8128 23.6887 22.988 24.1689C22.8827 24.2222 22.795 24.2756 22.6897 24.3467C22.5668 24.4179 22.444 24.5068 22.3387 24.6313C22.2334 24.7558 22.1632 24.9158 22.1281 25.0581C22.093 25.2004 22.093 25.3782 22.093 25.485C22.093 25.9829 22.093 26.4987 22.093 27.05C22.093 28.1171 22.093 29.2553 22.0754 30.4468C22.0754 30.5891 22.0754 30.7492 22.0754 30.8915V30.9982C22.0754 31.0515 22.0754 31.0871 22.0754 31.1404C22.0754 31.2294 22.1105 31.3361 22.1456 31.425C22.2158 31.6206 22.3562 31.8163 22.5317 31.923C22.5668 31.9585 22.6195 31.9763 22.6546 31.9941L22.7423 32.0475L22.9354 32.1542C23.181 32.2964 23.4443 32.4743 23.7251 32.6166C23.8655 32.6877 24.0059 32.7588 24.1638 32.83C24.3217 32.9011 24.4972 32.9545 24.6727 32.9722C24.8658 32.99 25.0588 32.99 25.2343 32.9545C25.4273 32.9189 25.6028 32.83 25.7783 32.7055C25.9363 32.581 26.0767 32.4031 26.1469 32.2253C26.2346 32.0475 26.2697 31.8518 26.2873 31.6562C26.2873 31.0159 26.2873 30.3935 26.2873 29.7532C26.2873 28.1704 26.2697 26.2675 26.0942 26.0541C25.9714 25.9296 25.9187 27.7436 25.8836 29.0241Z" fill="#0A1854"/>
<path d="M28.0053 30.4464C28.1457 30.5531 28.3212 30.642 28.4967 30.7131C28.6722 30.7843 28.8828 30.8199 29.0583 30.8376C29.5497 30.9088 30.041 30.9443 30.55 30.8376C30.8132 30.7843 31.0589 30.6954 31.3046 30.5531C31.4274 30.4819 31.5503 30.3752 31.6556 30.2685C31.7609 30.144 31.8311 30.0018 31.8837 29.8595C31.9364 29.7172 31.9539 29.5572 31.9715 29.4149C31.9715 29.2726 31.9715 29.1125 31.9188 28.9525C31.8662 28.7924 31.7784 28.6324 31.6731 28.5079C31.5503 28.3834 31.4274 28.2944 31.3046 28.2411C31.1642 28.17 31.0413 28.1344 30.9185 28.0988C30.7957 28.0632 30.6728 28.0277 30.55 28.0099C30.3043 27.9565 30.0586 27.921 29.8129 27.9032C29.3391 27.8498 28.8828 27.7965 28.4616 27.672C28.2686 27.6186 28.1282 27.5297 28.058 27.4052C28.0229 27.3519 27.9878 27.2807 27.9878 27.1918C27.9702 27.1029 27.9702 27.014 27.9878 26.9428C28.0404 26.6227 28.3388 26.3559 28.7248 26.2848C29.1636 26.1959 29.6023 26.1781 30.041 26.2492C30.1288 26.267 30.2165 26.2848 30.3043 26.3026C30.392 26.3204 30.4622 26.3381 30.55 26.3737C30.7079 26.4271 30.8308 26.4804 30.9361 26.5516C31.1466 26.6938 31.2519 26.8717 31.3572 26.8361C31.4099 26.8183 31.445 26.7472 31.4274 26.6405C31.4274 26.5338 31.3748 26.3737 31.2695 26.2137C31.1642 26.0536 30.9887 25.9113 30.7781 25.8046C30.6728 25.7513 30.55 25.7157 30.4447 25.6801C30.3394 25.6445 30.2165 25.6268 30.0937 25.609C29.7603 25.5556 29.4093 25.5556 29.0758 25.5912C28.9354 25.609 28.795 25.6268 28.6546 25.6623L28.5494 25.6801L28.4441 25.7157C28.3739 25.7335 28.3037 25.769 28.2335 25.8046C27.9527 25.9469 27.6894 26.1603 27.5315 26.4626C27.4437 26.6227 27.4087 26.7828 27.3911 26.9606C27.3736 27.1385 27.3911 27.2985 27.4437 27.4586C27.4964 27.6364 27.6017 27.7965 27.7245 27.921C27.8649 28.0455 28.0053 28.1344 28.1633 28.1877C28.3212 28.2411 28.4616 28.2767 28.602 28.3122C28.7424 28.3478 28.8828 28.3656 29.0407 28.4012C29.3391 28.4545 29.6199 28.4723 29.9006 28.5079C30.1814 28.5434 30.4622 28.579 30.743 28.6679C31.0238 28.7391 31.2519 28.8458 31.3572 29.0414C31.4099 29.1303 31.4274 29.237 31.4274 29.3793C31.4274 29.5216 31.4099 29.6639 31.3397 29.7706C31.287 29.8773 31.1993 29.984 31.0764 30.0729C30.9536 30.1618 30.7957 30.233 30.6377 30.2863C30.3043 30.393 29.9357 30.4108 29.5497 30.393C29.146 30.3752 28.7599 30.3397 28.4441 30.1796C28.2335 30.0907 28.0404 29.9484 27.9351 29.8239C27.8123 29.6994 27.7421 29.5749 27.6543 29.5572C27.5841 29.5572 27.549 29.6994 27.6192 29.8951C27.6543 30.0018 27.707 30.1085 27.7947 30.1974C27.8123 30.3041 27.9176 30.393 28.0053 30.4464Z" fill="#0A1854"/>
</g>
<defs>
<clipPath id="clip0_113_537">
<rect width="57" height="35" fill="white"/>
</clipPath>
</defs>
</svg>
