<svg width="57" height="57" viewBox="0 0 57 57" fill="none" xmlns="http://www.w3.org/2000/svg">
<g clip-path="url(#clip0_303_4383)">
<path d="M56.7007 29.1356C56.7007 29.7301 56.7007 30.3518 56.7007 30.9464C56.6735 31.1626 56.5919 31.3518 56.5919 31.568C56.4015 34.2437 55.5857 36.7301 54.4163 39.1085C53.3013 41.3788 51.5337 42.5139 48.8958 42.4869C42.8858 42.4058 36.8758 42.4599 30.8657 42.4599C30.621 42.4599 30.4034 42.4599 30.1587 42.4599C29.9955 42.4599 29.8052 42.5139 29.778 42.7031C29.6964 43.1356 29.6148 44.8383 29.8052 45.2437C29.9683 45.622 30.4034 45.4599 30.7298 45.4599C34.4826 45.4599 38.2083 45.4599 41.9612 45.4599C42.6954 45.4599 42.7226 45.4869 42.7226 46.2166C42.7226 47.3247 42.7226 47.2166 42.7226 48.3247C42.7226 49.0004 42.7226 49.6761 42.5594 50.3247C42.1243 52.0815 40.9278 53.2437 39.4049 54.1356C37.5012 55.2166 35.4073 55.7301 33.2589 56.0815C32.3071 56.2437 31.3552 56.3247 30.4034 56.4329C30.0227 56.4329 29.6148 56.4329 29.2341 56.4329C29.0165 56.3788 28.8261 56.3247 28.6086 56.3247C27.4664 56.2977 26.3242 56.1085 25.2093 55.8653C23.0881 55.4058 21.0213 54.7842 19.2536 53.4058C17.8123 52.2707 16.9693 50.8383 16.9693 48.9734C16.9965 44.9464 16.9421 40.8923 16.9693 36.8653C16.9965 33.1896 19.8247 30.4599 23.5232 30.4599C27.684 30.4599 31.8176 30.4599 35.9783 30.4599C36.4678 30.4599 36.9302 30.4328 37.4197 30.3518C41.0365 29.8383 44.1095 26.568 44.3815 22.9734C44.5175 21.1356 44.4087 19.2977 44.4359 17.4869C44.4359 16.7301 44.4903 16.7031 45.2245 16.6761C46.4483 16.6761 47.672 16.7031 48.8686 16.6761C51.5881 16.595 53.4373 17.8383 54.6067 20.2166C55.3953 21.8112 55.7489 23.541 56.1296 25.2707C56.4287 26.541 56.5103 27.8653 56.7007 29.1356ZM35.0265 50.5139C35.0265 51.5139 35.8424 52.3518 36.8214 52.3518C37.8004 52.3518 38.6162 51.541 38.6162 50.541C38.6162 49.5139 37.8548 48.7031 36.8214 48.7031C35.8152 48.7031 35.0265 49.4599 35.0265 50.5139Z" fill="#FFB501"/>
<path d="M12.7542 39.9191C12.6454 39.9731 12.6182 40.0272 12.5638 40.0272C10.6602 40.0542 8.75655 40.2434 6.88012 39.9191C4.89491 39.5677 3.53517 38.3245 2.55616 36.6218C1.68594 35.0812 1.33241 33.3785 0.978875 31.6488C0.108645 27.5407 0.434981 23.4867 1.76752 19.5407C2.9097 16.2164 5.76513 14.1894 9.27324 14.1623C15.0113 14.1083 20.7766 14.1353 26.5147 14.1353C26.7594 14.1353 27.1401 14.2704 27.2489 13.9731C27.4121 13.5677 27.3849 11.865 27.2489 11.4326C27.1945 11.2434 26.9498 11.2975 26.7594 11.2975C25.7804 11.2975 24.8014 11.2975 23.7952 11.2975C20.9126 11.2975 18.0299 11.2975 15.1473 11.2975C14.9025 11.2975 14.6306 11.3515 14.413 11.2164C14.3858 11.1894 14.3586 11.1623 14.3586 11.1353C14.3586 8.97314 14.1955 8.02719 14.4674 5.86503C14.7122 3.89206 15.8544 2.62179 17.6764 1.89206C19.3353 1.21638 21.0757 0.946111 22.8434 0.756922C26.5419 0.351517 30.2131 0.432598 33.8572 1.05422C35.8968 1.40557 37.6101 2.29746 38.9154 3.91908C39.8128 5.02719 40.248 6.29746 40.248 7.7299C40.248 11.7029 40.248 15.7029 40.248 19.6758C40.248 23.5137 37.4469 26.2975 33.5581 26.2975C29.3973 26.2975 25.2637 26.2975 21.1029 26.2975C17.5404 26.3245 15.0113 27.9731 13.434 31.1083C12.9445 32.0812 12.727 33.1623 12.727 34.2704C12.727 35.9461 12.727 37.6218 12.727 39.2975C12.7542 39.5137 12.7542 39.7029 12.7542 39.9191ZM21.946 6.37854C21.946 5.29746 21.1029 4.45962 20.0423 4.45962C18.9545 4.45962 18.0843 5.32449 18.1115 6.40557C18.1387 7.45962 18.9817 8.32449 20.0695 8.29746C21.1029 8.29746 21.946 7.45962 21.946 6.37854Z" fill="#4D64C2"/>
</g>
<defs>
<clipPath id="clip0_303_4383">
<rect width="57" height="57" fill="white"/>
</clipPath>
</defs>
</svg>
