<svg width="59" height="55" viewBox="0 0 59 55" fill="none" xmlns="http://www.w3.org/2000/svg">
<g clip-path="url(#clip0_303_4434)">
<path d="M58.7755 42.2456C58.8316 37.4557 58.8597 32.0253 58.8877 26.8456C58.9158 19.9949 58.9719 13.1443 59 6.26582V3.7038C59 3.50886 59 3.23038 58.9719 3.00759C58.9439 2.8962 58.9439 2.75696 58.8877 2.64557C58.8597 2.53418 58.8316 2.42278 58.7755 2.28354C58.607 1.83797 58.3264 1.39241 57.9895 1.05823C57.6246 0.724051 57.2036 0.44557 56.7545 0.278481C56.53 0.194937 56.2774 0.139241 56.0247 0.111392C55.9125 0.0835443 55.7721 0.0835443 55.6599 0.0835443C55.5195 0.0835443 55.4353 0.0835443 55.323 0.0835443H52.7407L42.3834 0.0556962C35.4225 0.0278481 28.5176 0.0278481 21.6128 0H11.2274H6.03473H4.74358H4.098H3.76118C3.64891 0 3.5647 0 3.42436 0C2.41389 0.0278481 1.40343 0.529114 0.785918 1.30886C0.477165 1.69873 0.224548 2.17215 0.112274 2.64557C0.056137 2.8962 0 3.14684 0 3.39747C0 3.6481 0 3.84304 0 4.06582V6.62785V11.7797V22.0835V42.6911V47.843V50.4051V51.0456C0 51.2684 0 51.4633 0 51.7139C0.0280685 52.2152 0.168411 52.7165 0.421028 53.162C0.898192 54.0532 1.79638 54.6937 2.77878 54.9165C2.89106 54.9443 3.0314 54.9443 3.14367 54.9721L3.50856 55H4.15414H5.44529H10.638H31.4087C36.9662 55 43.0852 54.9721 47.7445 54.9165C52.432 54.8608 55.6599 54.7494 55.5195 54.5544C55.3792 54.3873 52.46 54.2481 47.9129 54.1367C43.3939 54.0253 37.2469 53.9696 30.7631 53.9696C26.216 53.9696 21.6689 53.9696 17.1499 53.9696C13.3887 53.9696 9.6275 53.9975 5.83825 53.9975H4.40676C3.92959 53.9975 3.42436 54.0253 3.05947 53.9696C2.27355 53.8582 1.54377 53.3291 1.17888 52.6051C1.01047 52.243 0.898192 51.8532 0.898192 51.4354V50.0152C0.898192 49.0684 0.898192 48.1215 0.898192 47.1747C0.898192 39.5722 0.898192 31.8304 0.870124 23.8937C0.870124 19.9114 0.870124 15.9013 0.870124 11.8076C0.870124 9.77468 0.870124 7.68608 0.870124 5.62532C0.870124 5.0962 0.870124 4.59494 0.870124 4.06582C0.870124 3.50886 0.842055 3.09114 1.01047 2.67342C1.29115 1.81013 2.10514 1.16962 3.00333 1.03038L3.17174 1.00253H3.34015C3.45243 1.00253 3.59277 1.00253 3.73311 1.00253H4.5471C5.0804 1.00253 5.6137 1.00253 6.147 1.00253C7.21361 1.00253 8.30828 1.00253 9.40295 1.00253C11.5642 1.00253 13.7816 1.00253 15.971 1.00253C20.4058 1.00253 24.9248 1.00253 29.5281 0.974684C33.9348 0.974684 38.7626 0.974684 43.8711 1.00253C46.4253 1.00253 49.0638 1.00253 51.7864 1.00253C52.46 1.00253 53.1337 1.00253 53.8354 1.00253C54.1722 1.00253 54.509 1.00253 54.8739 1.00253H55.3792C55.4634 1.00253 55.5476 1.00253 55.6037 1.00253C55.6879 1.00253 55.7441 1.00253 55.8283 1.03038C56.4177 1.11392 56.951 1.39241 57.372 1.83797C57.765 2.28354 58.0176 2.84051 58.0176 3.45316C58.0176 14.6481 57.9895 26.6506 57.9895 38.6532C57.9895 42.4127 57.9895 46.562 58.0457 49.8759C58.0457 50.2937 58.0457 50.6835 58.0737 51.0734C58.0737 51.157 58.0737 51.2684 58.0737 51.3519V51.4911V51.6025C58.0737 51.7696 58.0457 51.9089 58.0176 52.0759C57.9053 52.6886 57.5685 53.162 57.2036 53.4962C56.8387 53.8304 56.4738 53.9975 56.1651 54.1089C56.0247 54.1646 55.8844 54.1924 55.7721 54.2203C55.6598 54.2481 55.5756 54.2481 55.5195 54.2759C55.4353 54.3038 55.4914 54.3316 55.6599 54.3595C55.8283 54.3873 56.137 54.3595 56.5019 54.2481C56.8668 54.1367 57.344 53.8861 57.7369 53.4684C58.1299 53.0506 58.4667 52.438 58.5228 51.7139C58.7193 48.9013 58.7193 45.2532 58.7755 42.2456Z" fill="#516FE9"/>
<path d="M54.2565 5.17969H4.85596V18.8253H54.2565V5.17969Z" fill="#516FE9"/>
<path d="M54.2565 20.6909H4.85596V34.3365H54.2565V20.6909Z" fill="#FFB501"/>
<path d="M54.2565 36.1748H4.85596V49.8204H54.2565V36.1748Z" fill="#FF4F54"/>
</g>
<defs>
<clipPath id="clip0_303_4434">
<rect width="59" height="55" fill="white"/>
</clipPath>
</defs>
</svg>
