<svg width="103" height="62" viewBox="0 0 103 62" fill="none" xmlns="http://www.w3.org/2000/svg">
<g clip-path="url(#clip0_303_4394)">
<path d="M0.380371 20.9505C0.507218 20.5094 0.792625 20.2574 1.17317 20.0369C4.31264 18.2411 7.48382 16.4454 10.6233 14.6497C11.099 14.3661 11.5429 14.3661 12.0186 14.6497C15.2215 16.4769 18.4244 18.2726 21.6273 20.1314C22.0713 20.3834 22.2932 20.7299 22.2932 21.234C22.2932 26.2117 22.2932 31.1578 22.2932 36.1354C22.2932 36.7025 21.8176 36.9545 21.3419 36.671C19.4709 35.5999 17.5682 34.5287 15.6972 33.4576C15.2532 33.2056 15.0312 32.8275 15.0312 32.2919C15.0312 30.0236 15.0312 27.7554 15.0312 25.4871C15.0312 24.92 14.8092 24.5419 14.3336 24.2899C13.5725 23.8488 12.8114 23.4393 12.0503 22.9982C11.6064 22.7462 11.1624 22.7462 10.7184 22.9982C9.95734 23.4393 9.19626 23.8804 8.43517 24.2899C7.9595 24.5419 7.73751 24.9515 7.73751 25.4871C7.73751 27.7554 7.73751 29.9921 7.73751 32.2604C7.73751 32.8275 7.51553 33.2056 7.03985 33.4576C5.16886 34.5287 3.29786 35.5684 1.42686 36.6395C1.17317 36.797 0.951184 36.8285 0.697489 36.6395C0.53893 36.545 0.507218 36.3875 0.443795 36.2299C0.380371 31.1578 0.380371 26.0541 0.380371 20.9505Z" fill="#FFB501"/>
<path d="M75.696 18.7135C75.696 23.2816 75.696 27.8812 75.696 32.4493C75.696 33.0794 75.4424 33.489 74.9033 33.804C71.7321 35.5997 68.5926 37.427 65.4214 39.2227C64.9457 39.5062 64.5018 39.5062 64.0261 39.2227C60.8549 37.3955 57.7154 35.5997 54.5443 33.7725C54.0052 33.4574 53.7515 33.0479 53.7515 32.4493C53.7515 28.8264 53.7515 25.2349 53.7515 21.6119C53.7515 21.0133 53.9734 20.6038 54.5125 20.3203C57.6837 18.5245 60.8232 16.6973 63.9944 14.9016C64.5018 14.618 64.9775 14.5865 65.4848 14.9016C66.2142 15.3426 66.9436 15.7207 67.6412 16.1617C68.0535 16.4137 68.4023 16.1932 68.4023 15.7522C68.4023 10.932 68.4023 6.08042 68.4023 1.2603C68.4023 1.19729 68.4023 1.10277 68.4023 1.03977C68.4023 0.535702 68.878 0.252165 69.322 0.504198C69.7977 0.75623 70.2733 1.03977 70.7807 1.2918C72.176 2.0794 73.5714 2.8355 74.9667 3.6231C75.4741 3.90664 75.7278 4.31619 75.7278 4.91477C75.696 9.51436 75.696 14.114 75.696 18.7135ZM68.3706 27.0936C68.3706 26.4951 68.3706 25.865 68.3706 25.2664C68.3706 25.0774 68.3072 24.9514 68.1169 24.8568C67.0704 24.2583 66.0239 23.6597 64.9457 23.0611C64.7555 22.9666 64.6286 22.9666 64.4383 23.0611C63.3919 23.6597 62.3454 24.2583 61.3306 24.8568C61.1403 24.9514 61.0769 25.1089 61.0769 25.3294C61.0769 26.5266 61.0769 27.7237 61.0769 28.9209C61.0769 29.1414 61.1403 29.2674 61.3306 29.3619C62.3771 29.9605 63.4236 30.5591 64.4701 31.1577C64.6603 31.2522 64.7872 31.2522 64.9774 31.1577C66.0239 30.5591 67.0704 29.9605 68.1169 29.3619C68.3072 29.2674 68.3706 29.1414 68.3706 28.9209C68.3706 28.2908 68.3706 27.6922 68.3706 27.0936Z" fill="#FF4F54"/>
<path d="M48.931 26.9362C48.931 28.7319 48.931 30.5277 48.931 32.2919C48.931 32.922 48.7091 33.3315 48.17 33.6151C45.0305 35.4108 41.891 37.2065 38.7515 39.0022C38.2442 39.2858 37.8002 39.2858 37.2928 39.0022C34.1216 37.175 30.9822 35.3793 27.811 33.552C27.3353 33.2685 27.145 32.8905 27.145 32.3549C27.145 31.1262 27.145 29.9291 27.145 28.7004C27.145 26.3061 27.145 23.9433 27.145 21.549C27.145 20.9504 27.3987 20.5094 27.9378 20.2258C31.0773 18.4301 34.2168 16.6344 37.3562 14.8386C37.8319 14.5551 38.2759 14.5551 38.7515 14.8386C41.891 16.6659 45.0622 18.4616 48.2334 20.2573C48.7408 20.5409 48.9628 20.9504 48.9628 21.5175C48.931 23.3132 48.931 25.109 48.931 26.9362Z" fill="#516FE9"/>
<path d="M80.5479 26.9049C80.5479 25.1092 80.5479 23.3134 80.5479 21.4862C80.5479 20.8876 80.8015 20.5096 81.3089 20.1945C84.4484 18.3988 87.6196 16.6031 90.7591 14.7758C91.2982 14.4608 91.7738 14.4608 92.3129 14.7758C95.4207 16.5716 98.5285 18.3673 101.636 20.163C102.175 20.4781 102.429 20.8876 102.429 21.5177C102.397 22.3053 102.429 23.0929 102.429 23.8805C102.429 24.4161 102.207 24.7941 101.731 25.0777C99.8603 26.1488 97.9576 27.2514 96.0866 28.3226C95.5475 28.6376 95.0719 28.3856 95.0719 27.7555C95.0719 26.9049 95.0719 26.0543 95.0719 25.2352C95.0719 24.9201 94.945 24.7311 94.6913 24.5736C93.74 24.038 92.7569 23.471 91.8055 22.9354C91.5519 22.7779 91.2982 22.7779 91.0445 22.9354C90.0931 23.5025 89.11 24.038 88.1587 24.6051C87.905 24.7626 87.7781 24.9516 87.7781 25.2352C87.7781 26.3378 87.7781 27.4405 87.7781 28.5431C87.7781 28.8581 87.905 29.0472 88.1904 29.2047C91.3616 31.0004 94.5328 32.7962 97.7039 34.6234C97.7991 34.6864 97.8942 34.7179 97.9576 34.7809C98.3065 35.0329 98.3065 35.537 97.9576 35.7575C97.7991 35.8836 97.6088 35.9466 97.4185 36.0726C95.6744 37.0177 93.9619 37.9628 92.2178 38.9394C91.6787 39.223 91.203 39.223 90.6956 38.9394C87.5562 37.1437 84.4167 35.3795 81.2772 33.6153C80.8015 33.3317 80.5479 32.9537 80.5479 32.3866C80.5479 30.5594 80.5479 28.7321 80.5479 26.9049Z" fill="#FFB501"/>
<path d="M93.5815 26.8732C93.5815 27.1882 93.5815 27.5348 93.5815 27.8498C93.5815 28.0073 93.518 28.0703 93.3912 28.1649C92.8204 28.5114 92.2179 28.8264 91.647 29.173C91.5202 29.236 91.4251 29.236 91.2982 29.173C90.7274 28.8264 90.1249 28.5114 89.5541 28.1649C89.4272 28.1018 89.3955 28.0073 89.3955 27.8813C89.3955 27.1882 89.3955 26.5266 89.3955 25.8336C89.3955 25.7075 89.4589 25.613 89.5541 25.55C90.1249 25.235 90.7274 24.8884 91.2982 24.5419C91.4251 24.4789 91.5202 24.4789 91.647 24.5419C92.2179 24.8884 92.8204 25.2035 93.3912 25.55C93.518 25.613 93.5815 25.739 93.5815 25.8651C93.5815 26.2116 93.5815 26.5581 93.5815 26.8732Z" fill="#FF4F54"/>
<path d="M65.8971 43.791C65.9605 43.602 65.8971 43.3499 65.7386 43.2239C65.6117 43.1294 65.4849 43.0979 65.3263 43.0979C65.1995 43.0979 65.0726 43.0979 64.9458 43.0664H64.7555H64.6604H64.5969C64.5652 43.0664 64.5335 43.0664 64.5018 43.0664C64.3749 43.0979 64.3115 43.1924 64.3115 43.3184V43.5075C64.3115 44.0115 64.3115 44.5156 64.3115 45.0197C64.3115 45.0512 64.3115 45.1142 64.3432 45.1772C64.3749 45.2402 64.4067 45.2717 64.4701 45.3032C64.5335 45.3347 64.5969 45.3347 64.6286 45.3347H64.7555C64.8823 45.3347 64.9775 45.2402 65.0092 45.1142C65.0092 45.0512 65.0092 45.0197 65.0092 44.9882V44.8936V44.5156C65.0409 44.5156 65.0726 44.5156 65.1043 44.5156C65.1995 44.5156 65.2629 44.5786 65.2629 44.6416C65.2629 44.6416 65.2629 44.6731 65.2629 44.7046V44.7991L65.2946 44.9882C65.2946 45.0512 65.2946 45.1772 65.3897 45.2717C65.4214 45.3032 65.4849 45.3347 65.5483 45.3662C65.6117 45.3662 65.6434 45.3662 65.6751 45.3662C65.7068 45.3662 65.7703 45.3662 65.8337 45.3347C65.8971 45.3347 65.9288 45.3032 65.9605 45.2402C65.9922 45.2087 65.9923 45.1457 65.9923 45.0827C65.9923 45.0512 65.9922 45.0197 65.9605 44.9882C65.9605 44.9567 65.9605 44.9251 65.9288 44.9251H65.8971H65.8654C65.9922 44.9251 65.8971 44.9251 65.9288 44.9251V44.8936V44.8621V44.7991C65.9288 44.7361 65.8971 44.7046 65.8971 44.6416C65.8654 44.5471 65.8654 44.4211 65.802 44.3266C65.7386 44.2321 65.6751 44.169 65.6117 44.169C65.5483 44.169 65.5166 44.1691 65.5166 44.2006C65.5166 44.2636 65.6117 44.3266 65.6117 44.4211C65.6117 44.4841 65.6117 44.5471 65.6434 44.6731C65.6434 44.7361 65.6434 44.7676 65.6434 44.8306V44.9251V44.9567C65.6434 44.9882 65.6434 45.0197 65.6434 45.0197H65.6117C65.58 45.0197 65.5483 45.0197 65.58 45.0197C65.58 45.0197 65.58 45.0197 65.58 44.9882L65.5483 44.7676V44.6731C65.5483 44.6416 65.5483 44.6101 65.5166 44.5471C65.4849 44.4526 65.4214 44.3896 65.3263 44.3266C65.2629 44.2636 65.1677 44.2321 65.0726 44.2321C64.9775 44.2321 64.8823 44.2321 64.7555 44.3266C64.7238 44.3581 64.6921 44.4211 64.6921 44.4841V44.6101V44.8306V45.0512C64.6921 45.0512 64.6921 45.0827 64.6604 45.0827H64.5652C64.5652 45.0827 64.5652 45.0827 64.5335 45.0827C64.5335 45.0827 64.5335 45.0827 64.5335 45.0512V44.9567C64.5335 44.6416 64.5335 44.3581 64.5335 44.0115C64.5335 43.854 64.5335 43.6965 64.5335 43.5075C64.5335 43.476 64.5335 43.413 64.5335 43.3814V43.3499H64.5969H64.7555C64.9458 43.3499 65.1677 43.3499 65.358 43.3814C65.4531 43.413 65.5166 43.4445 65.5483 43.476C65.58 43.539 65.6117 43.6335 65.6117 43.6965C65.6434 43.8855 65.3897 44.106 65.4214 44.169C65.5483 44.2006 65.8337 44.043 65.8971 43.791Z" fill="#39395B"/>
<path d="M46.775 51.415C46.7433 52.2972 46.7116 53.2738 46.7116 54.2504C46.7116 54.723 46.7116 55.227 46.6799 55.7311V56.1091C46.6799 56.2037 46.6799 56.3297 46.6482 56.4242C46.6165 56.6132 46.5213 56.8337 46.4262 56.9913C46.1408 57.4323 45.6334 57.6528 45.0943 57.6528C44.8089 57.6528 44.5552 57.5898 44.2698 57.4953C44.0161 57.4008 43.7307 57.2433 43.4453 57.1173C42.9062 56.8337 42.3671 56.4557 41.7963 56.1406L41.384 55.8886C41.2889 55.8256 41.1937 55.7626 41.1303 55.6681C41.0035 55.5106 40.94 55.3215 40.94 55.0695L41.0035 47.414V45.4923C40.9718 44.7992 41.0352 44.4841 41.4157 44.2321C41.4474 44.2006 41.5109 44.1691 41.5743 44.1376L41.7646 44.0116L42.1768 43.7595L43.033 43.287L44.7138 42.3419L48.0752 40.4201L49.7559 39.475L50.1682 39.223C50.295 39.16 50.3902 39.0969 50.4853 39.0654C50.6756 39.0024 50.8341 39.0024 51.0244 39.0654L57.6522 42.8459L59.3329 43.7911L59.7452 44.0431L59.9354 44.1376C59.9988 44.1691 60.0306 44.2006 60.0623 44.2321C60.2208 44.3581 60.316 44.5156 60.3477 44.7047C60.3794 44.7992 60.3794 44.9252 60.3794 45.0512V45.5238V46.5004V48.4222V52.2656V54.1874C60.3794 54.5024 60.3794 54.8805 60.3794 55.0695C60.3477 55.29 60.2843 55.4476 60.1257 55.5736C60.0623 55.6366 59.9671 55.6996 59.8403 55.7626L59.428 56.0146L58.6035 56.4872L56.9228 57.4638L53.5613 59.3856C53.1174 59.6376 52.6417 59.9211 52.1977 60.1732C51.9758 60.2992 51.7538 60.4567 51.5001 60.5827C51.2464 60.7402 51.0878 60.8348 50.9293 60.8663C50.6122 60.9608 50.295 60.8978 49.9145 60.6457C49.4705 60.4252 49.0583 60.1732 48.6777 59.9841C47.1238 59.165 46.0139 58.661 45.9822 58.85C45.9188 59.039 46.775 59.7321 48.1703 60.6772C48.5192 60.9293 48.8997 61.1813 49.312 61.4333L49.4705 61.5278C49.5339 61.5593 49.5974 61.6224 49.6608 61.6539C49.7876 61.7169 49.9462 61.8114 50.1048 61.8429C50.4219 61.9689 50.8024 62.0004 51.1513 61.9059C51.3415 61.8744 51.5001 61.8114 51.6586 61.7484C51.7221 61.7169 51.8172 61.6854 51.8806 61.6224L52.0709 61.5278C52.3246 61.4018 52.5783 61.2443 52.832 61.1183C53.3394 60.8348 53.8468 60.5512 54.3859 60.2362C55.8446 59.4171 57.3351 58.5665 58.7938 57.7159L59.6817 57.1803L60.1257 56.9282C60.2843 56.8337 60.4111 56.7707 60.6014 56.6447C60.7916 56.5187 60.9502 56.3612 61.1088 56.1722C61.2673 55.9831 61.3625 55.7311 61.4259 55.5106C61.4893 55.29 61.521 55.0695 61.521 54.849V54.3134C61.521 52.9272 61.4893 51.5096 61.4893 50.0919C61.4893 48.6742 61.4893 47.225 61.4893 45.8073V45.2717C61.4893 45.1142 61.4893 44.8622 61.4576 44.6417C61.4259 44.4211 61.3625 44.1691 61.2356 43.9486C61.1088 43.728 60.9502 43.539 60.7599 43.3815C60.5697 43.224 60.3794 43.1295 60.2208 43.035L59.7452 42.7514C59.428 42.5624 59.1109 42.3734 58.7621 42.1843C57.4619 41.4598 56.1617 40.7037 54.8298 39.9476C54.1639 39.5695 53.4979 39.1915 52.832 38.7819C52.4831 38.5929 52.166 38.4039 51.8172 38.1833C51.6269 38.0573 51.4049 37.9628 51.1195 37.8998C50.8658 37.8368 50.5804 37.8368 50.295 37.8998C50.0413 37.9628 49.7876 38.0573 49.5974 38.1833L49.09 38.4669C48.7412 38.6559 48.3923 38.8764 48.0435 39.0654C47.3458 39.475 46.6482 39.8846 45.9188 40.2941C44.4918 41.1132 43.033 41.9638 41.5426 42.8144C41.3523 42.9089 41.1937 43.0035 41.0035 43.1295C40.7815 43.2555 40.5595 43.413 40.3692 43.6335C40.179 43.8541 40.0521 44.1376 39.9887 44.3896C39.9253 44.6417 39.9253 44.9567 39.9253 45.1457C39.9253 46.0278 39.9253 46.9415 39.9253 47.9181C39.9253 49.8083 39.9253 51.8246 39.8936 53.9354C39.8936 54.1874 39.8936 54.4709 39.8936 54.723V54.912C39.8936 55.0065 39.8936 55.0695 39.8936 55.164C39.8936 55.3215 39.957 55.5106 40.0204 55.6681C40.1472 56.0146 40.4009 56.3612 40.7181 56.5502C40.7815 56.6132 40.8766 56.6447 40.94 56.6762L41.0986 56.7707L41.4474 56.9598C41.8914 57.2118 42.3671 57.5268 42.8745 57.7789C43.1282 57.9049 43.3819 58.0309 43.6673 58.1569C43.9527 58.2829 44.2698 58.3774 44.5869 58.4089C44.9357 58.4404 45.2846 58.4404 45.6017 58.3774C45.9505 58.3144 46.2676 58.1569 46.5847 57.9364C46.8702 57.7158 47.1238 57.4008 47.2507 57.0858C47.4093 56.7707 47.4727 56.4242 47.5044 56.0776C47.5044 54.9435 47.5044 53.8409 47.5044 52.7067C47.5044 49.9028 47.4727 46.5319 47.1556 46.1539C46.9336 45.9333 46.8384 49.1467 46.775 51.415Z" fill="#39395B"/>
<path d="M50.612 53.9355C50.8657 54.1246 51.1828 54.2821 51.5 54.4081C51.8171 54.5341 52.1976 54.5971 52.5148 54.6286C53.4027 54.7546 54.2906 54.8177 55.2103 54.6286C55.6859 54.5341 56.1299 54.3766 56.5739 54.1246C56.7958 53.9985 57.0178 53.8095 57.2081 53.6205C57.3984 53.4 57.5252 53.1479 57.6204 52.8959C57.7155 52.6439 57.7472 52.3603 57.7789 52.1083C57.7789 51.8563 57.7789 51.5727 57.6838 51.2892C57.5886 51.0057 57.4301 50.7221 57.2398 50.5016C57.0178 50.2811 56.7958 50.1235 56.5739 50.029C56.3202 49.903 56.0982 49.84 55.8762 49.777C55.6542 49.714 55.4322 49.651 55.2103 49.6195C54.7663 49.525 54.3223 49.462 53.8784 49.4305C53.0221 49.3359 52.1976 49.2414 51.4365 49.0209C51.0877 48.9264 50.834 48.7689 50.7072 48.5483C50.6437 48.4538 50.5803 48.3278 50.5803 48.1703C50.5486 48.0128 50.5486 47.8553 50.5803 47.7292C50.6755 47.1622 51.2146 46.6896 51.9122 46.5636C52.705 46.4061 53.4978 46.3746 54.2906 46.5006C54.4492 46.5321 54.6077 46.5636 54.7663 46.5951C54.9248 46.6266 55.0517 46.6581 55.2103 46.7211C55.4957 46.8156 55.7176 46.9101 55.9079 47.0361C56.2885 47.2882 56.4787 47.6032 56.669 47.5402C56.7641 47.5087 56.8276 47.3827 56.7958 47.1937C56.7958 47.0046 56.7007 46.7211 56.5104 46.4376C56.3202 46.154 56.003 45.902 55.6225 45.713C55.4322 45.6185 55.2103 45.5555 55.02 45.4924C54.8297 45.4294 54.6077 45.3979 54.3857 45.3664C53.7832 45.2719 53.149 45.2719 52.5465 45.3349C52.2928 45.3664 52.0391 45.3979 51.7854 45.4609L51.5951 45.4924L51.4048 45.5555C51.278 45.587 51.1511 45.65 51.0243 45.713C50.5169 45.965 50.0412 46.3431 49.7558 46.8786C49.5973 47.1622 49.5338 47.4457 49.5021 47.7607C49.4704 48.0758 49.5021 48.3593 49.5973 48.6429C49.6924 48.9579 49.8827 49.2414 50.1046 49.462C50.3583 49.6825 50.612 49.84 50.8974 49.9345C51.1829 50.029 51.4365 50.092 51.6902 50.1551C51.9439 50.2181 52.1976 50.2496 52.483 50.3126C53.0221 50.4071 53.5295 50.4386 54.0369 50.5016C54.5443 50.5646 55.0517 50.6276 55.5591 50.7851C56.0665 50.9111 56.4787 51.1002 56.669 51.4467C56.7641 51.6042 56.7958 51.7933 56.7958 52.0453C56.7958 52.2973 56.7641 52.5494 56.6373 52.7384C56.5422 52.9274 56.3836 53.1164 56.1616 53.274C55.9396 53.4315 55.6542 53.5575 55.3688 53.652C54.7663 53.841 54.1003 53.8725 53.4027 53.841C52.6733 53.8095 51.9756 53.7465 51.4048 53.463C51.0243 53.3055 50.6755 53.0534 50.4852 52.8329C50.2632 52.6124 50.1364 52.3918 49.9778 52.3603C49.851 52.3603 49.7875 52.6124 49.9144 52.9589C49.9778 53.1479 50.0729 53.337 50.2315 53.4945C50.2632 53.6835 50.4535 53.841 50.612 53.9355Z" fill="#39395B"/>
</g>
<defs>
<clipPath id="clip0_303_4394">
<rect width="103" height="62" fill="white"/>
</clipPath>
</defs>
</svg>
