<svg width="44" height="44" viewBox="0 0 44 44" fill="none" xmlns="http://www.w3.org/2000/svg">
<g clip-path="url(#clip0_113_497)">
<path d="M43.7745 22.4902C43.7745 22.9492 43.7745 23.429 43.7745 23.888C43.7535 24.0549 43.6906 24.201 43.6906 24.3679C43.5436 26.4333 42.9138 28.3527 42.0112 30.1887C41.1505 31.9411 39.786 32.8174 37.7497 32.7965C33.1104 32.7339 28.4711 32.7757 23.8318 32.7757C23.6429 32.7757 23.4749 32.7757 23.286 32.7757C23.16 32.7757 23.0131 32.8174 22.9921 32.9634C22.9291 33.2972 22.8661 34.6116 23.0131 34.9245C23.139 35.2166 23.4749 35.0914 23.7268 35.0914C26.6238 35.0914 29.4997 35.0914 32.3967 35.0914C32.9635 35.0914 32.9845 35.1123 32.9845 35.6756C32.9845 36.531 32.9845 36.4475 32.9845 37.3029C32.9845 37.8245 32.9845 38.3461 32.8585 38.8468C32.5226 40.2029 31.599 41.1 30.4234 41.7885C28.9539 42.623 27.3375 43.0194 25.6791 43.2906C24.9444 43.4158 24.2097 43.4784 23.4749 43.5618C23.181 43.5618 22.8661 43.5618 22.5722 43.5618C22.4043 43.5201 22.2574 43.4784 22.0894 43.4784C21.2077 43.4575 20.3261 43.3115 19.4654 43.1237C17.828 42.769 16.2326 42.2892 14.8681 41.2252C13.7555 40.3489 13.1047 39.2432 13.1047 37.8036C13.1257 34.6951 13.0837 31.5656 13.1047 28.457C13.1257 25.6197 15.3089 23.5125 18.1639 23.5125C21.3757 23.5125 24.5665 23.5125 27.7784 23.5125C28.1562 23.5125 28.5131 23.4916 28.891 23.429C31.6829 23.0327 34.0551 20.5082 34.265 17.7335C34.37 16.3148 34.286 14.8961 34.307 13.4983C34.307 12.9141 34.349 12.8932 34.9158 12.8724C35.8604 12.8724 36.8051 12.8932 37.7287 12.8724C39.828 12.8098 41.2555 13.7695 42.1581 15.6054C42.7669 16.8363 43.0398 18.1716 43.3337 19.5068C43.5646 20.4874 43.6276 21.5097 43.7745 22.4902ZM27.0436 38.9928C27.0436 39.7648 27.6734 40.4115 28.4291 40.4115C29.1848 40.4115 29.8146 39.7856 29.8146 39.0137C29.8146 38.2209 29.2268 37.595 28.4291 37.595C27.6524 37.595 27.0436 38.1792 27.0436 38.9928Z" fill="#FBBE40"/>
<path d="M9.84949 30.8151C9.76552 30.8568 9.74452 30.8986 9.70254 30.8986C8.23307 30.9194 6.76361 31.0655 5.31513 30.8151C3.78269 30.5439 2.73307 29.5842 1.97735 28.2698C1.30559 27.0806 1.03269 25.7663 0.75979 24.431C0.0880342 21.2599 0.339943 18.1304 1.36857 15.0844C2.25025 12.5183 4.45445 10.9536 7.16246 10.9327C11.5919 10.891 16.0422 10.9118 20.4716 10.9118C20.6606 10.9118 20.9544 11.0162 21.0384 10.7867C21.1644 10.4737 21.1434 9.15935 21.0384 8.82554C20.9964 8.6795 20.8075 8.72123 20.6606 8.72123C19.9048 8.72123 19.1491 8.72123 18.3724 8.72123C16.1472 8.72123 13.922 8.72123 11.6968 8.72123C11.5079 8.72123 11.298 8.76295 11.13 8.65864C11.109 8.63778 11.088 8.61691 11.088 8.59605C11.088 6.92701 10.9621 6.19681 11.172 4.52777C11.3609 3.00477 12.2426 2.02422 13.6491 1.46092C14.9296 0.939341 16.2732 0.730711 17.6377 0.58467C20.4926 0.271726 23.3266 0.334315 26.1396 0.814163C27.714 1.08538 29.0365 1.77386 30.0441 3.02564C30.7369 3.88102 31.0728 4.86158 31.0728 5.96732C31.0728 9.03417 31.0728 12.1219 31.0728 15.1887C31.0728 18.1513 28.9106 20.3002 25.9086 20.3002C22.6968 20.3002 19.506 20.3002 16.2941 20.3002C13.5441 20.321 11.5919 21.5937 10.3743 24.0138C9.99643 24.7649 9.82849 25.5994 9.82849 26.4548C9.82849 27.7483 9.82849 29.0418 9.82849 30.3353C9.84949 30.5022 9.84949 30.6482 9.84949 30.8151ZM16.9449 4.92417C16.9449 4.08965 16.2941 3.4429 15.4754 3.4429C14.6357 3.4429 13.964 4.11051 13.985 4.94503C14.006 5.75869 14.6567 6.4263 15.4964 6.40544C16.2941 6.40544 16.9449 5.75869 16.9449 4.92417Z" fill="#545AE8"/>
</g>
<defs>
<clipPath id="clip0_113_497">
<rect width="44" height="44" fill="white"/>
</clipPath>
</defs>
</svg>
