<svg width="64" height="64" viewBox="0 0 64 64" fill="none" xmlns="http://www.w3.org/2000/svg">
<path d="M32.2507 62.9143C49.4598 62.9143 63.4105 49.0275 63.4105 31.8973C63.4105 14.7671 49.4598 0.880371 32.2507 0.880371C15.0416 0.880371 1.09082 14.7671 1.09082 31.8973C1.09082 49.0275 15.0416 62.9143 32.2507 62.9143Z" fill="#16D594"/>
<path d="M25.5887 35.3014C25.6477 35.3894 25.6771 35.4481 25.6771 35.5068C25.6771 35.6535 25.6182 35.8002 25.5297 35.9763C25.4413 36.1523 25.3234 36.2404 25.2349 36.2404C25.0581 36.2404 24.9402 36.123 24.8517 35.8882C24.7633 35.6535 24.7338 35.36 24.7338 35.0373C24.7338 34.7732 24.7633 33.9222 24.7928 32.543V31.8681C24.7928 31.604 24.7338 31.3986 24.6159 31.2812C24.1737 32.1615 23.761 32.9245 23.3777 33.57C22.9945 34.2156 22.5228 34.8318 21.9332 35.4187C21.3437 36.0056 20.7246 36.2697 20.076 36.2697C19.7518 36.2697 19.5159 36.1523 19.339 35.9176C19.1622 35.6828 19.0737 35.3894 19.0737 35.0079C19.0737 34.5384 19.2506 33.9222 19.6044 33.1005C19.9581 32.2789 20.4003 31.4866 20.9604 30.6356C21.5205 29.814 22.0512 29.1097 22.6113 28.5815C22.965 28.2294 23.2598 27.9946 23.4662 27.8772C23.6725 27.7599 23.8789 27.7012 24.0263 27.7012C24.1737 27.7012 24.3506 27.7599 24.498 27.8772C24.6748 27.9946 24.7928 28.1707 24.9107 28.3761C25.0286 28.5815 25.0875 28.8163 25.0875 29.0804C25.0875 29.4325 24.9991 29.7846 24.8517 30.1074L25.0875 30.0194C25.2055 30.0194 25.2644 30.1661 25.2644 30.4889C25.2644 30.665 25.2939 31.0464 25.2939 31.6333C25.3234 32.1909 25.3234 32.6604 25.3234 33.0418C25.3234 33.4233 25.3529 33.8048 25.3529 34.1569C25.3529 34.5091 25.3823 34.8025 25.3823 35.0079C25.4708 35.1253 25.5297 35.2133 25.5887 35.3014ZM21.8153 34.6558C22.3165 34.1863 22.7292 33.6287 23.1419 32.9832C23.5546 32.3376 23.9673 31.5453 24.439 30.6063C24.5569 30.2541 24.6159 29.8727 24.6159 29.4618C24.6159 29.2271 24.5569 28.9923 24.439 28.8163C24.3211 28.6402 24.1442 28.5522 23.9378 28.5522C23.702 28.5522 23.3777 28.7576 22.9945 29.139C22.5523 29.5792 22.0806 30.1661 21.609 30.8997C21.1078 31.6333 20.7246 32.3669 20.4003 33.1005C20.076 33.8341 19.9286 34.3917 19.9286 34.8025C19.9286 35.1546 20.076 35.3307 20.3414 35.3307C20.813 35.36 21.3142 35.1253 21.8153 34.6558Z" fill="white" stroke="white" stroke-width="0.957029" stroke-miterlimit="10"/>
<path d="M36.4963 33.8928C35.5824 34.333 34.4327 34.6264 32.9882 34.7731C32.9587 35.5654 32.9587 36.211 32.9587 36.7098C32.9587 37.3848 32.9882 37.9717 33.0177 38.5292C33.0471 38.7346 33.0471 38.8813 33.0471 38.9694C33.0471 39.1454 33.0177 39.3215 32.9587 39.4389C32.8998 39.5856 32.7818 39.6443 32.6639 39.6443C32.487 39.6443 32.3986 39.5563 32.3691 39.4095C32.3691 39.2041 32.3396 38.9107 32.3396 38.4999C32.3102 38.089 32.3102 37.6782 32.3102 37.2674L32.3396 34.8318C32.2807 34.8318 32.1922 34.8318 32.0743 34.8612C31.9564 34.8612 31.809 34.8905 31.6911 34.8905C31.4553 34.8905 31.3373 34.6851 31.3373 34.3036C31.3373 34.0395 31.3963 33.8928 31.5142 33.8928C31.5437 33.8928 31.6616 33.9221 31.868 34.0102C32.0743 34.0689 32.2217 34.1275 32.3691 34.1275V29.1977C32.2807 29.1977 32.1333 29.1684 31.8974 29.139C31.6616 29.1097 31.4847 29.051 31.3668 28.9629C31.2489 28.8749 31.1899 28.7575 31.1899 28.6108C31.1899 28.3174 31.2489 28.1706 31.3373 28.1706C31.4553 28.1706 31.5732 28.2293 31.7206 28.3174C31.7501 28.3174 31.809 28.3467 31.8974 28.4054C31.9859 28.4641 32.1333 28.4934 32.3102 28.5228C32.3691 28.3467 32.4281 28.2 32.487 28.1413C32.546 28.0826 32.6344 28.0239 32.8113 28.0239C33.0177 28.0239 33.1061 28.0826 33.1061 28.1706C33.1061 28.2 33.0766 28.2587 33.0766 28.3467C33.0471 28.4347 33.0177 28.5228 33.0177 28.6108C33.6367 28.7282 34.3148 28.9336 35.0812 29.2564C35.8477 29.5792 36.5257 29.99 37.0858 30.4595C37.646 30.9584 37.9407 31.4866 37.9407 32.0734C37.8523 32.8071 37.4101 33.4526 36.4963 33.8928ZM36.5257 30.7236C36.0541 30.3421 35.4939 29.99 34.8454 29.7552C34.1968 29.4911 33.5483 29.3151 32.9587 29.1977C32.9882 29.8726 32.9882 30.7529 33.0177 31.868C33.0177 32.9831 33.0177 33.7167 33.0177 34.0689C33.6073 34.0689 34.2263 33.9808 34.9044 33.8048C35.5824 33.6287 36.1425 33.3939 36.5847 33.0712C37.0269 32.7777 37.2627 32.4256 37.2627 32.0441C37.2332 31.5746 36.9974 31.1344 36.5257 30.7236Z" fill="white" stroke="white" stroke-width="0.957029" stroke-miterlimit="10"/>
<path d="M43.6893 25.5297C43.5124 25.5297 43.365 25.4417 43.1882 25.295C43.0113 25.1483 42.9229 25.0015 42.9229 24.8842C42.9229 24.7668 42.9818 24.6201 43.0702 24.532C43.1587 24.4146 43.2766 24.356 43.3945 24.356C43.5419 24.4146 43.6598 24.5027 43.7483 24.6494C43.8367 24.7374 43.9252 24.8548 44.0136 25.0015C44.102 25.1483 44.161 25.2363 44.161 25.2656C44.1905 25.4417 44.0136 25.5297 43.6893 25.5297ZM44.4263 36.4752C44.3379 36.5339 44.2494 36.5632 44.1315 36.5632C43.9841 36.5632 43.8957 36.2991 43.8367 35.7709C43.7778 35.2721 43.7188 34.3037 43.6304 32.8658C43.6009 31.9268 43.5714 31.0171 43.5419 30.1074C43.5124 29.1978 43.483 28.5229 43.483 28.024C43.483 27.9066 43.5124 27.7892 43.5419 27.7306C43.5714 27.6719 43.6304 27.6425 43.7483 27.6425C43.9841 27.6425 44.102 27.7599 44.161 27.9653C44.2199 28.2001 44.2494 28.6109 44.2494 29.2271V31.2812C44.2494 32.455 44.2789 33.394 44.3379 34.0983C44.3379 34.1276 44.3673 34.5091 44.4558 35.2134C44.5147 35.7122 44.5442 36.035 44.5442 36.1817C44.5442 36.3284 44.5147 36.4165 44.4263 36.4752Z" fill="white" stroke="white" stroke-width="0.957029" stroke-miterlimit="10"/>
<path d="M14.5927 39.3217C14.2684 39.0576 13.9736 38.7054 13.8852 38.2946C13.7083 37.6197 13.8852 36.8274 13.9736 35.9764C14.062 35.1548 14.1505 34.3331 14.2094 33.5115L14.3274 32.279L14.3863 31.6628C14.4158 31.4574 14.4158 31.2226 14.3863 30.9585C14.3568 30.6944 14.3274 30.4303 14.18 30.1662C14.062 29.9021 13.8262 29.638 13.6493 29.4913C13.4724 29.3446 13.2956 29.2272 13.1777 29.1392C13.1482 29.1098 13.1777 29.1392 13.1482 29.1392C13.1777 29.1392 13.2071 29.1098 13.2661 29.0805C13.443 29.0218 13.6788 28.9338 13.9146 28.8457C14.0326 28.7871 14.18 28.7577 14.3274 28.6697C14.4748 28.5816 14.6222 28.4936 14.7695 28.3175C15.0349 28.0241 15.1233 27.5839 15.0643 27.2318C15.0349 27.0557 14.9759 26.8797 14.9169 26.7329C14.858 26.5862 14.7695 26.4395 14.6811 26.3221C14.5042 26.0874 14.3274 25.9113 14.1505 25.7352C13.9736 25.5592 13.8262 25.4125 13.7083 25.2657C13.5904 25.119 13.5314 24.9723 13.5019 24.8549C13.5019 24.7962 13.5019 24.7375 13.5019 24.7082C13.5019 24.6788 13.5019 24.6788 13.5314 24.6495C13.5314 24.6495 13.5314 24.6202 13.5609 24.6202C13.6198 24.5321 13.7967 24.4441 13.9146 24.4147C14.062 24.3561 14.1505 24.3561 14.2389 24.3267C14.3274 24.2974 14.4158 24.2974 14.4748 24.2387C14.5337 24.18 14.5632 24.0626 14.4453 23.9159C14.3274 23.7692 14.121 23.6518 13.8262 23.6224C13.5609 23.5931 13.2071 23.6224 12.8534 23.8865C12.8239 23.9159 12.7649 23.9746 12.7355 24.0039C12.706 24.0626 12.647 24.092 12.6175 24.1506C12.5586 24.2387 12.4996 24.3561 12.4701 24.4734C12.3817 24.7082 12.4112 24.9723 12.4407 25.1777C12.5881 25.7939 12.9713 26.1754 13.2956 26.4688C13.5609 26.7036 13.7967 26.9384 13.9146 27.1438C14.0326 27.3492 14.0326 27.5546 13.9736 27.672C13.9146 27.7893 13.6198 27.9067 13.2956 28.0241C13.1187 28.0828 12.9418 28.1415 12.706 28.2295C12.5881 28.2882 12.4112 28.4056 12.2933 28.523C12.1754 28.6403 12.1164 28.7871 12.0574 28.9631C11.9985 29.2859 12.1459 29.6087 12.3817 29.8728C12.5881 30.0489 12.7355 30.1662 12.8829 30.2836C12.9418 30.3423 13.0008 30.401 13.0597 30.4303C13.0892 30.489 13.1482 30.5184 13.1777 30.5771C13.2366 30.6651 13.2956 30.8118 13.2956 30.9585C13.3545 31.252 13.2956 31.6628 13.2661 32.0736C13.2366 32.4844 13.2071 32.8953 13.1777 33.3354C13.1187 34.1571 13.0303 35.1254 12.9123 36.1818C12.8829 36.71 12.7944 37.2676 12.8534 37.9131C12.8829 38.2359 12.9713 38.5587 13.1187 38.8815C13.2661 39.2043 13.5019 39.4977 13.7672 39.7031C14.0915 39.9966 14.5632 40.202 14.9464 40.2313C15.3297 40.2607 15.6245 40.1727 15.6539 40.0259C15.6834 39.9086 15.4771 39.8499 15.2412 39.7325C15.0938 39.6445 14.799 39.4977 14.5927 39.3217Z" fill="white"/>
<path d="M50.1448 39.6735C50.3806 39.5855 50.587 39.4094 50.7933 39.204C50.9997 38.9986 51.1471 38.7345 51.265 38.4998C51.4419 38.0596 51.5008 37.5901 51.5008 37.1793C51.5008 36.7391 51.5009 36.3283 51.4714 35.9175C51.4419 35.0958 51.4124 34.2742 51.3535 33.4525L51.2945 32.2201L51.265 31.6038C51.265 31.3984 51.2355 31.2224 51.265 31.0756C51.265 30.9289 51.2945 30.7822 51.3535 30.6648C51.4124 30.5474 51.4714 30.4888 51.5893 30.3714C51.7367 30.254 51.8841 30.1366 52.0904 29.9606C52.1494 29.9312 52.2378 29.8138 52.2968 29.7552C52.3558 29.6671 52.4147 29.5791 52.4442 29.4911C52.5326 29.315 52.5326 29.1096 52.5032 28.9042C52.4442 28.6988 52.3263 28.4933 52.1494 28.3466C52.061 28.2586 51.943 28.1999 51.8546 28.1412C51.7662 28.1119 51.7072 28.0825 51.6482 28.0532C51.3829 27.9358 51.1471 27.9065 50.9407 27.8184C50.7344 27.7597 50.6165 27.6717 50.5575 27.613C50.4985 27.5543 50.4985 27.4956 50.4985 27.3783C50.4985 27.3196 50.528 27.2609 50.5575 27.2022C50.587 27.1435 50.6165 27.0848 50.6754 26.9968C50.7933 26.8501 50.9407 26.7033 51.0881 26.5273C51.4124 26.2045 51.8546 25.7937 52.002 25.0894C52.0315 24.9133 52.0315 24.6786 51.9725 24.4438C51.943 24.3265 51.8841 24.2384 51.8251 24.1504C51.7662 24.0624 51.6777 23.945 51.5893 23.8863C51.2355 23.6222 50.9113 23.5342 50.587 23.5635C50.2922 23.5635 50.0269 23.6809 49.8795 23.8276C49.7321 23.9743 49.7321 24.121 49.8205 24.1797C49.909 24.2384 49.9974 24.2384 50.1153 24.2678C50.2332 24.2971 50.3511 24.3264 50.4985 24.3851C50.6459 24.4438 50.8228 24.5612 50.8818 24.6492C50.8818 24.6492 50.8818 24.6786 50.9113 24.6786C50.9113 24.6786 50.9113 24.6786 50.9113 24.7079C50.9113 24.7373 50.9113 24.7666 50.9113 24.7666C50.9113 24.8253 50.9113 24.8546 50.8818 24.9427C50.8228 25.1774 50.6165 25.4415 50.3217 25.735C50.0858 25.9991 49.8205 26.2632 49.5847 26.7033C49.4668 26.9088 49.4078 27.1729 49.4078 27.4369C49.4078 27.701 49.4668 27.9945 49.6436 28.2292C49.8205 28.464 50.0564 28.6401 50.2627 28.7281C50.4691 28.8161 50.6754 28.8748 50.8523 28.9335C51.0292 28.9922 51.2061 29.0509 51.324 29.1096C51.3829 29.1389 51.3829 29.1389 51.4124 29.1683C51.4124 29.1976 51.4124 29.227 51.3829 29.2563C51.2945 29.3443 51.1471 29.4617 50.9702 29.5791C50.8818 29.6378 50.7933 29.7258 50.7049 29.8138C50.6165 29.9019 50.528 30.0193 50.4691 30.1366C50.3217 30.3714 50.2627 30.6355 50.2038 30.8702C50.1448 31.3691 50.2037 31.7799 50.2332 32.1907C50.2627 32.6016 50.2922 33.0124 50.3511 33.4525C50.4101 34.2742 50.4396 35.2425 50.4985 36.2989C50.528 36.8271 50.587 37.3553 50.528 37.8248C50.4985 38.0596 50.4396 38.265 50.3217 38.4704C50.2332 38.6465 50.0858 38.8226 49.909 38.9399C49.7026 39.116 49.4078 39.2627 49.2014 39.3508C48.9656 39.4388 48.7887 39.4975 48.7298 39.6442C48.7003 39.7616 48.8477 39.8789 49.1425 39.9083C49.4962 39.9083 49.8795 39.8203 50.1448 39.6735Z" fill="white"/>
</svg>
