<svg width="44" height="44" viewBox="0 0 44 44" fill="none" xmlns="http://www.w3.org/2000/svg">
<g clip-path="url(#clip0_113_482)">
<path d="M22.1743 43.2526C34.0056 43.2526 43.5967 33.7054 43.5967 21.9284C43.5967 10.1514 34.0056 0.604248 22.1743 0.604248C10.3431 0.604248 0.751953 10.1514 0.751953 21.9284C0.751953 33.7054 10.3431 43.2526 22.1743 43.2526Z" fill="#139F7F"/>
<path d="M17.5953 24.2683C17.6358 24.3289 17.6561 24.3692 17.6561 24.4096C17.6561 24.5104 17.6155 24.6113 17.5547 24.7323C17.4939 24.8534 17.4128 24.9139 17.352 24.9139C17.2304 24.9139 17.1494 24.8332 17.0886 24.6718C17.0278 24.5104 17.0075 24.3087 17.0075 24.0868C17.0075 23.9052 17.0278 23.3202 17.048 22.372V21.908C17.048 21.7264 17.0075 21.5852 16.9264 21.5045C16.6224 22.1097 16.3387 22.6342 16.0752 23.0781C15.8117 23.5219 15.4875 23.9456 15.0821 24.349C14.6768 24.7525 14.2512 24.9341 13.8053 24.9341C13.5824 24.9341 13.4202 24.8534 13.2986 24.692C13.177 24.5306 13.1162 24.3289 13.1162 24.0666C13.1162 23.7438 13.2378 23.3202 13.481 22.7553C13.7242 22.1904 14.0282 21.6457 14.4133 21.0606C14.7984 20.4958 15.1632 20.0116 15.5483 19.6484C15.7915 19.4063 15.9941 19.245 16.136 19.1643C16.2779 19.0836 16.4198 19.0432 16.5211 19.0432C16.6224 19.0432 16.744 19.0836 16.8454 19.1643C16.967 19.245 17.048 19.366 17.1291 19.5072C17.2102 19.6484 17.2507 19.8098 17.2507 19.9914C17.2507 20.2335 17.1899 20.4756 17.0886 20.6975L17.2507 20.637C17.3318 20.637 17.3723 20.7378 17.3723 20.9598C17.3723 21.0808 17.3926 21.3431 17.3926 21.7466C17.4129 22.1299 17.4128 22.4527 17.4128 22.7149C17.4128 22.9772 17.4331 23.2395 17.4331 23.4815C17.4331 23.7236 17.4534 23.9254 17.4534 24.0666C17.5142 24.1473 17.5547 24.2078 17.5953 24.2683ZM15.0011 23.8245C15.3456 23.5017 15.6293 23.1184 15.9131 22.6746C16.1968 22.2307 16.4806 21.686 16.8048 21.0405C16.8859 20.7984 16.9264 20.5361 16.9264 20.2537C16.9264 20.0923 16.8859 19.9309 16.8048 19.8098C16.7238 19.6888 16.6022 19.6283 16.4603 19.6283C16.2982 19.6283 16.0752 19.7695 15.8117 20.0318C15.5077 20.3344 15.1835 20.7378 14.8592 21.2422C14.5146 21.7466 14.2512 22.2509 14.0282 22.7553C13.8053 23.2596 13.704 23.6429 13.704 23.9254C13.704 24.1675 13.8053 24.2885 13.9877 24.2885C14.312 24.3087 14.6565 24.1473 15.0011 23.8245Z" fill="white" stroke="white" stroke-width="0.957029" stroke-miterlimit="10"/>
<path d="M25.0949 23.301C24.4666 23.6036 23.6762 23.8053 22.6831 23.9062C22.6628 24.4509 22.6628 24.8947 22.6628 25.2377C22.6628 25.7017 22.6831 26.1052 22.7033 26.4885C22.7236 26.6297 22.7236 26.7306 22.7236 26.7911C22.7236 26.9121 22.7033 27.0332 22.6628 27.1139C22.6223 27.2148 22.5412 27.2551 22.4601 27.2551C22.3385 27.2551 22.2777 27.1946 22.2575 27.0937C22.2575 26.9525 22.2372 26.7508 22.2372 26.4683C22.2169 26.1859 22.2169 25.9034 22.2169 25.621L22.2372 23.9465C22.1967 23.9465 22.1359 23.9465 22.0548 23.9667C21.9737 23.9667 21.8724 23.9869 21.7913 23.9869C21.6292 23.9869 21.5481 23.8457 21.5481 23.5834C21.5481 23.4018 21.5886 23.301 21.6697 23.301C21.69 23.301 21.7711 23.3211 21.9129 23.3817C22.0548 23.422 22.1561 23.4624 22.2575 23.4624V20.0731C22.1967 20.0731 22.0953 20.0529 21.9332 20.0327C21.7711 20.0126 21.6494 19.9722 21.5684 19.9117C21.4873 19.8512 21.4468 19.7705 21.4468 19.6696C21.4468 19.4679 21.4873 19.367 21.5481 19.367C21.6292 19.367 21.7102 19.4073 21.8116 19.4679C21.8319 19.4679 21.8724 19.488 21.9332 19.5284C21.994 19.5687 22.0953 19.5889 22.2169 19.6091C22.2575 19.488 22.298 19.3872 22.3385 19.3468C22.3791 19.3065 22.4399 19.2661 22.5615 19.2661C22.7033 19.2661 22.7641 19.3065 22.7641 19.367C22.7641 19.3872 22.7439 19.4275 22.7439 19.488C22.7236 19.5486 22.7033 19.6091 22.7033 19.6696C23.129 19.7503 23.5951 19.8915 24.122 20.1134C24.649 20.3353 25.1151 20.6178 25.5002 20.9406C25.8853 21.2835 26.088 21.6467 26.088 22.0502C26.0272 22.5545 25.7231 22.9983 25.0949 23.301ZM25.1151 21.1221C24.7909 20.8599 24.4058 20.6178 23.9599 20.4564C23.514 20.2748 23.0681 20.1538 22.6628 20.0731C22.6831 20.5371 22.6831 21.1423 22.7033 21.9089C22.7033 22.6756 22.7033 23.1799 22.7033 23.422C23.1087 23.422 23.5343 23.3615 24.0004 23.2404C24.4666 23.1194 24.8517 22.958 25.1557 22.7361C25.4597 22.5343 25.6218 22.2922 25.6218 22.03C25.6015 21.7072 25.4394 21.4046 25.1151 21.1221Z" fill="white" stroke="white" stroke-width="0.957029" stroke-miterlimit="10"/>
<path d="M30.0357 17.5514C29.9141 17.5514 29.8128 17.4908 29.6912 17.39C29.5696 17.2891 29.5088 17.1882 29.5088 17.1075C29.5088 17.0268 29.5493 16.926 29.6101 16.8654C29.6709 16.7847 29.752 16.7444 29.8331 16.7444C29.9344 16.7847 30.0155 16.8453 30.0763 16.9461C30.1371 17.0066 30.1979 17.0873 30.2587 17.1882C30.3195 17.2891 30.36 17.3496 30.36 17.3698C30.3803 17.4908 30.2587 17.5514 30.0357 17.5514ZM30.5424 25.0763C30.4816 25.1167 30.4208 25.1369 30.3397 25.1369C30.2384 25.1369 30.1776 24.9553 30.1371 24.5922C30.0965 24.2492 30.056 23.5834 29.9952 22.5949C29.9749 21.9493 29.9547 21.3239 29.9344 20.6985C29.9141 20.0731 29.8939 19.6091 29.8939 19.2662C29.8939 19.1855 29.9141 19.1048 29.9344 19.0644C29.9547 19.0241 29.9952 19.0039 30.0763 19.0039C30.2384 19.0039 30.3195 19.0846 30.36 19.2258C30.4005 19.3872 30.4208 19.6696 30.4208 20.0933V21.5055C30.4208 22.3125 30.4411 22.958 30.4816 23.4422C30.4816 23.4624 30.5019 23.7247 30.5627 24.2088C30.6032 24.5518 30.6235 24.7737 30.6235 24.8746C30.6235 24.9755 30.6032 25.036 30.5424 25.0763Z" fill="white" stroke="white" stroke-width="0.957029" stroke-miterlimit="10"/>
<path d="M10.0341 27.0336C9.8112 26.8521 9.60853 26.61 9.54773 26.3275C9.42612 25.8635 9.54773 25.3188 9.60853 24.7338C9.66933 24.1689 9.73013 23.604 9.77067 23.0391L9.85174 22.1918L9.89227 21.7682C9.91254 21.627 9.91254 21.4656 9.89227 21.284C9.872 21.1024 9.85174 20.9209 9.7504 20.7393C9.66933 20.5577 9.50719 20.3762 9.38559 20.2753C9.26399 20.1744 9.14239 20.0937 9.06132 20.0332C9.04105 20.013 9.06132 20.0332 9.04105 20.0332C9.06132 20.0332 9.08158 20.013 9.12212 19.9928C9.24372 19.9525 9.40586 19.892 9.568 19.8314C9.64906 19.7911 9.7504 19.7709 9.85174 19.7104C9.95307 19.6499 10.0544 19.5894 10.1557 19.4683C10.3381 19.2666 10.3989 18.964 10.3584 18.7219C10.3381 18.6008 10.2976 18.4798 10.2571 18.3789C10.2165 18.278 10.1557 18.1772 10.0949 18.0965C9.97334 17.9351 9.85174 17.814 9.73013 17.693C9.60853 17.5719 9.50719 17.4711 9.42613 17.3702C9.34506 17.2693 9.30452 17.1684 9.28425 17.0878C9.28425 17.0474 9.28425 17.0071 9.28425 16.9869C9.28425 16.9667 9.28426 16.9667 9.30452 16.9465C9.30452 16.9465 9.30452 16.9264 9.32479 16.9264C9.36532 16.8658 9.48693 16.8053 9.568 16.7851C9.66933 16.7448 9.73013 16.7448 9.79093 16.7246C9.85174 16.7044 9.91254 16.7044 9.95307 16.6641C9.99361 16.6237 10.0139 16.543 9.9328 16.4422C9.85174 16.3413 9.70987 16.2606 9.50719 16.2404C9.32479 16.2203 9.08158 16.2404 8.83838 16.422C8.81811 16.4422 8.77758 16.4825 8.75731 16.5027C8.73704 16.543 8.69651 16.5632 8.67624 16.6036C8.63571 16.6641 8.59517 16.7448 8.5749 16.8255C8.5141 16.9869 8.53437 17.1684 8.55464 17.3097C8.65597 17.7333 8.91945 17.9956 9.14238 18.1973C9.32479 18.3587 9.48693 18.5201 9.568 18.6613C9.64906 18.8026 9.64906 18.9438 9.60853 19.0245C9.568 19.1052 9.36532 19.1859 9.14238 19.2666C9.02078 19.3069 8.89918 19.3473 8.73704 19.4078C8.65597 19.4481 8.53437 19.5288 8.4533 19.6095C8.37223 19.6902 8.3317 19.7911 8.29116 19.9121C8.25063 20.1341 8.35197 20.356 8.5141 20.5375C8.65597 20.6586 8.75731 20.7393 8.85864 20.82C8.89918 20.8603 8.93971 20.9007 8.98025 20.9209C9.00051 20.9612 9.04105 20.9814 9.06132 21.0217C9.10185 21.0822 9.14238 21.1831 9.14238 21.284C9.18292 21.4857 9.14238 21.7682 9.12212 22.0506C9.10185 22.3331 9.08158 22.6155 9.06132 22.9181C9.02078 23.483 8.95998 24.1487 8.87891 24.875C8.85864 25.2381 8.79784 25.6215 8.83838 26.0653C8.85864 26.2872 8.91945 26.5091 9.02078 26.731C9.12212 26.953 9.28426 27.1547 9.46666 27.2959C9.6896 27.4977 10.0139 27.6389 10.2773 27.659C10.5408 27.6792 10.7435 27.6187 10.7638 27.5178C10.784 27.4371 10.6422 27.3968 10.48 27.3161C10.3787 27.2556 10.176 27.1547 10.0341 27.0336Z" fill="white"/>
<path d="M34.4803 27.2759C34.6424 27.2154 34.7843 27.0943 34.9261 26.9531C35.068 26.8119 35.1693 26.6303 35.2504 26.4689C35.372 26.1663 35.4125 25.8435 35.4125 25.5611C35.4125 25.2585 35.4125 24.976 35.3923 24.6936C35.372 24.1287 35.3517 23.5638 35.3112 22.999L35.2707 22.1516L35.2504 21.728C35.2504 21.5868 35.2301 21.4657 35.2504 21.3648C35.2504 21.264 35.2707 21.1631 35.3112 21.0824C35.3517 21.0017 35.3923 20.9614 35.4733 20.8807C35.5747 20.8 35.676 20.7193 35.8179 20.5982C35.8584 20.578 35.9192 20.4974 35.9598 20.457C36.0003 20.3965 36.0408 20.336 36.0611 20.2754C36.1219 20.1544 36.1219 20.0132 36.1016 19.872C36.0611 19.7307 35.98 19.5895 35.8584 19.4886C35.7976 19.4281 35.7165 19.3878 35.6557 19.3474C35.5949 19.3272 35.5544 19.3071 35.5139 19.2869C35.3315 19.2062 35.1693 19.186 35.0275 19.1255C34.8856 19.0852 34.8045 19.0246 34.764 18.9843C34.7235 18.9439 34.7235 18.9036 34.7235 18.8229C34.7235 18.7825 34.7437 18.7422 34.764 18.7018C34.7843 18.6615 34.8045 18.6211 34.8451 18.5606C34.9261 18.4598 35.0275 18.3589 35.1288 18.2378C35.3517 18.0159 35.6557 17.7335 35.7571 17.2493C35.7773 17.1283 35.7773 16.9669 35.7368 16.8055C35.7165 16.7248 35.676 16.6642 35.6355 16.6037C35.5949 16.5432 35.5341 16.4625 35.4733 16.4222C35.2301 16.2406 35.0072 16.1801 34.7843 16.2002C34.5816 16.2002 34.3992 16.2809 34.2978 16.3818C34.1965 16.4827 34.1965 16.5836 34.2573 16.6239C34.3181 16.6642 34.3789 16.6642 34.46 16.6844C34.5411 16.7046 34.6221 16.7248 34.7235 16.7651C34.8248 16.8055 34.9464 16.8862 34.9869 16.9467C34.9869 16.9467 34.9869 16.9669 35.0072 16.9669C35.0072 16.9669 35.0072 16.9669 35.0072 16.987C35.0072 17.0072 35.0072 17.0274 35.0072 17.0274C35.0072 17.0677 35.0072 17.0879 34.9869 17.1484C34.9464 17.3098 34.8045 17.4914 34.6019 17.6931C34.4397 17.8747 34.2573 18.0563 34.0952 18.3589C34.0141 18.5001 33.9736 18.6817 33.9736 18.8632C33.9736 19.0448 34.0141 19.2465 34.1357 19.4079C34.2573 19.5693 34.4194 19.6904 34.5613 19.7509C34.7032 19.8114 34.8451 19.8518 34.9667 19.8921C35.0883 19.9325 35.2099 19.9728 35.2909 20.0132C35.3315 20.0333 35.3315 20.0333 35.3517 20.0535C35.3517 20.0737 35.3517 20.0939 35.3315 20.114C35.2707 20.1746 35.1693 20.2553 35.0477 20.336C34.9869 20.3763 34.9261 20.4368 34.8653 20.4974C34.8045 20.5579 34.7437 20.6386 34.7032 20.7193C34.6019 20.8807 34.5613 21.0622 34.5208 21.2236C34.4803 21.5666 34.5208 21.849 34.5411 22.1315C34.5613 22.4139 34.5816 22.6963 34.6221 22.999C34.6627 23.5638 34.6829 24.2296 34.7235 24.9559C34.7437 25.319 34.7843 25.6821 34.7437 26.0049C34.7235 26.1663 34.6829 26.3075 34.6019 26.4488C34.5411 26.5698 34.4397 26.6908 34.3181 26.7715C34.1762 26.8926 33.9736 26.9935 33.8317 27.054C33.6696 27.1145 33.548 27.1548 33.5074 27.2557C33.4872 27.3364 33.5885 27.4171 33.7912 27.4373C34.0344 27.4373 34.2978 27.3768 34.4803 27.2759Z" fill="white"/>
</g>
<defs>
<clipPath id="clip0_113_482">
<rect width="44" height="44" fill="white"/>
</clipPath>
</defs>
</svg>
