<svg width="52" height="58" viewBox="0 0 52 58" fill="none" xmlns="http://www.w3.org/2000/svg">
<g clip-path="url(#clip0_303_4426)">
<path d="M25.9713 22.8572C40.0265 22.8572 51.4205 17.8379 51.4205 11.6464C51.4205 5.4548 40.0265 0.435547 25.9713 0.435547C11.916 0.435547 0.521973 5.4548 0.521973 11.6464C0.521973 17.8379 11.916 22.8572 25.9713 22.8572Z" fill="#516FE9"/>
<path d="M0.608887 30.4665C0.608887 36.6528 11.9422 41.0384 26.0002 41.0384C40.0582 41.0384 51.3915 36.6528 51.3915 30.4665C51.4495 27.2427 51.4205 24.3383 51.4785 21.1145C51.4785 27.3008 40.0582 31.9768 26.0002 31.9768C11.9422 31.9768 0.666858 27.2717 0.666858 21.0854C0.637872 24.3093 0.637872 27.2427 0.608887 30.4665Z" fill="#516FE9"/>
<path d="M0.608887 46.9052C0.608887 53.0915 11.9422 57.4771 26.0002 57.4771C40.0582 57.4771 51.3915 53.0915 51.3915 46.9052C51.4495 43.6814 51.4205 40.7771 51.4785 37.5532C51.4785 43.7395 40.0582 48.4155 26.0002 48.4155C11.9422 48.4155 0.666858 43.7395 0.666858 37.5532C0.637872 40.7771 0.637872 43.6814 0.608887 46.9052Z" fill="#516FE9"/>
</g>
<defs>
<clipPath id="clip0_303_4426">
<rect width="52" height="58" fill="white"/>
</clipPath>
</defs>
</svg>
