<svg width="36" height="40" viewBox="0 0 36 40" fill="none" xmlns="http://www.w3.org/2000/svg">
<g clip-path="url(#clip0_113_511)">
<path d="M17.981 15.7649C27.7116 15.7649 35.5998 12.3034 35.5998 8.03332C35.5998 3.76328 27.7116 0.301727 17.981 0.301727C8.25048 0.301727 0.362305 3.76328 0.362305 8.03332C0.362305 12.3034 8.25048 15.7649 17.981 15.7649Z" fill="#545AE8"/>
<path d="M0.421875 21.0117C0.421875 25.2781 8.26803 28.3027 18.0005 28.3027C27.7329 28.3027 35.5791 25.2781 35.5791 21.0117C35.6192 18.7884 35.5991 16.7854 35.6393 14.5621C35.6393 18.8285 27.7329 22.0533 18.0005 22.0533C8.26803 22.0533 0.462009 18.8084 0.462009 14.542C0.441942 16.7654 0.441942 18.7884 0.421875 21.0117Z" fill="#545AE8"/>
<path d="M0.421875 32.3495C0.421875 36.6159 8.26803 39.6404 18.0005 39.6404C27.7329 39.6404 35.5791 36.6159 35.5791 32.3495C35.6192 30.1261 35.5991 28.1231 35.6393 25.8998C35.6393 30.1662 27.7329 33.391 18.0005 33.391C8.26803 33.391 0.462009 30.1662 0.462009 25.8998C0.441942 28.1231 0.441942 30.1261 0.421875 32.3495Z" fill="#545AE8"/>
</g>
<defs>
<clipPath id="clip0_113_511">
<rect width="36" height="40" fill="white"/>
</clipPath>
</defs>
</svg>
