<svg width="43" height="40" viewBox="0 0 43 40" fill="none" xmlns="http://www.w3.org/2000/svg">
<g clip-path="url(#clip0_113_520)">
<path d="M42.7458 30.7241C42.7866 27.2405 42.807 23.2911 42.8274 19.5241C42.8479 14.5418 42.8887 9.55949 42.9091 4.55696V2.69367C42.9091 2.5519 42.9091 2.34937 42.8887 2.18734C42.8683 2.10633 42.8683 2.00506 42.8274 1.92405C42.807 1.84304 42.7866 1.76203 42.7458 1.66076C42.6233 1.33671 42.4192 1.01266 42.1742 0.76962C41.9088 0.526582 41.6026 0.324051 41.276 0.202532C41.1127 0.141772 40.929 0.101266 40.7453 0.0810127C40.6636 0.0607595 40.5615 0.0607595 40.4799 0.0607595C40.3778 0.0607595 40.3166 0.0607595 40.2349 0.0607595H38.3569L30.8243 0.0405063C25.7618 0.0202532 20.7401 0.0202532 15.7184 0H8.16538H4.38889H3.44987H2.98037H2.7354C2.65375 0 2.59251 0 2.49044 0C1.75556 0.0202532 1.02067 0.38481 0.571577 0.951899C0.347029 1.23544 0.163308 1.57975 0.0816538 1.92405C0.0408269 2.10633 0 2.28861 0 2.47089C0 2.65316 0 2.79494 0 2.95696V4.82025V8.56709V16.0608V31.0481V34.7949V36.6582V37.1241C0 37.2861 0 37.4278 0 37.6101C0.0204135 37.9747 0.122481 38.3392 0.306202 38.6633C0.653231 39.3114 1.30646 39.7772 2.02093 39.9392C2.10259 39.9595 2.20465 39.9595 2.28631 39.9797L2.55168 40H3.02119H3.96021H7.7367H22.8427C26.8845 40 31.3347 39.9797 34.7233 39.9392C38.1323 39.8987 40.4799 39.8177 40.3778 39.6759C40.2758 39.5544 38.1528 39.4532 34.8458 39.3722C31.5592 39.2911 27.0887 39.2506 22.3732 39.2506C19.0662 39.2506 15.7592 39.2506 12.4726 39.2506C9.73722 39.2506 7.00182 39.2709 4.246 39.2709H3.20491C2.85788 39.2709 2.49044 39.2911 2.22507 39.2506C1.65349 39.1696 1.12274 38.7848 0.857365 38.2582C0.734885 37.9949 0.653231 37.7114 0.653231 37.4076V36.3747C0.653231 35.6861 0.653231 34.9975 0.653231 34.3089C0.653231 28.7797 0.653231 23.1494 0.632817 17.3772C0.632817 14.481 0.632817 11.5646 0.632817 8.58734C0.632817 7.10886 0.632817 5.58987 0.632817 4.09114C0.632817 3.70633 0.632817 3.34177 0.632817 2.95696C0.632817 2.5519 0.612404 2.2481 0.734885 1.9443C0.939019 1.31646 1.53101 0.850633 2.18424 0.749367L2.30672 0.729114H2.4292C2.51086 0.729114 2.61292 0.729114 2.71499 0.729114H3.30698C3.69484 0.729114 4.08269 0.729114 4.47055 0.729114C5.24626 0.729114 6.04238 0.729114 6.83851 0.729114C8.41035 0.729114 10.023 0.729114 11.6153 0.729114C14.8406 0.729114 18.1272 0.729114 21.475 0.708861C24.6799 0.708861 28.191 0.708861 31.9062 0.729114C33.7639 0.729114 35.6827 0.729114 37.6628 0.729114C38.1528 0.729114 38.6427 0.729114 39.153 0.729114C39.398 0.729114 39.6429 0.729114 39.9083 0.729114H40.2758C40.337 0.729114 40.3982 0.729114 40.4391 0.729114C40.5003 0.729114 40.5411 0.729114 40.6024 0.749367C41.0311 0.810127 41.4189 1.01266 41.7251 1.33671C42.0109 1.66076 42.1946 2.06582 42.1946 2.51139C42.1946 10.6532 42.1742 19.3823 42.1742 28.1114C42.1742 30.8456 42.1742 33.8633 42.215 36.2734C42.215 36.5772 42.215 36.8608 42.2354 37.1443C42.2354 37.2051 42.2354 37.2861 42.2354 37.3468V37.4481V37.5291C42.2354 37.6506 42.215 37.7519 42.1946 37.8734C42.113 38.319 41.868 38.6633 41.6026 38.9063C41.3373 39.1494 41.0719 39.2709 40.8473 39.3519C40.7453 39.3924 40.6432 39.4127 40.5615 39.4329C40.4799 39.4532 40.4187 39.4532 40.3778 39.4734C40.3166 39.4937 40.3574 39.5139 40.4799 39.5342C40.6024 39.5544 40.8269 39.5342 41.0923 39.4532C41.3577 39.3722 41.7047 39.1899 41.9905 38.8861C42.2763 38.5823 42.5212 38.1367 42.5621 37.6101C42.705 35.5646 42.705 32.9114 42.7458 30.7241Z" fill="#545AE8"/>
<path d="M39.4619 3.76706H3.53418V13.6911H39.4619V3.76706Z" fill="#545AE8"/>
<path d="M39.4619 15.0483H3.53418V24.9724H39.4619V15.0483Z" fill="#FBBE40"/>
<path d="M39.4619 26.3097H3.53418V36.2337H39.4619V26.3097Z" fill="#F65535"/>
</g>
<defs>
<clipPath id="clip0_113_520">
<rect width="42.9091" height="40" fill="white"/>
</clipPath>
</defs>
</svg>
