<svg width="16" height="17" viewBox="0 0 16 17" fill="none" xmlns="http://www.w3.org/2000/svg">
<path d="M15.3094 13.494C14.8178 13.0558 14.3874 12.5534 14.0298 12.0003C13.6394 11.2369 13.4054 10.4033 13.3416 9.54824V7.02989C13.345 5.68691 12.8578 4.38892 11.9716 3.3798C11.0855 2.37067 9.86134 1.71987 8.52918 1.54967V0.892046C8.52918 0.711548 8.45748 0.538444 8.32985 0.410813C8.20222 0.283182 8.02911 0.211479 7.84862 0.211479C7.66812 0.211479 7.49502 0.283182 7.36738 0.410813C7.23975 0.538444 7.16805 0.711548 7.16805 0.892046V1.55987C5.84783 1.74233 4.63847 2.39707 3.76396 3.4028C2.88945 4.40854 2.40905 5.69712 2.41173 7.02989V9.54824C2.34788 10.4033 2.1139 11.2369 1.72352 12.0003C1.37222 12.5521 0.948741 13.0544 0.464343 13.494C0.409965 13.5418 0.366383 13.6006 0.336498 13.6665C0.306612 13.7324 0.291107 13.804 0.291016 13.8763V14.5696C0.291016 14.7049 0.344725 14.8345 0.440329 14.9301C0.535933 15.0257 0.665599 15.0794 0.800803 15.0794H14.9729C15.1081 15.0794 15.2378 15.0257 15.3334 14.9301C15.429 14.8345 15.4827 14.7049 15.4827 14.5696V13.8763C15.4826 13.804 15.4671 13.7324 15.4372 13.6665C15.4073 13.6006 15.3637 13.5418 15.3094 13.494ZM1.35137 14.0599C1.82568 13.6017 2.2433 13.0882 2.59526 12.5305C3.087 11.6085 3.37392 10.5913 3.43641 9.54824V7.02989C3.41619 6.43244 3.5164 5.83702 3.73109 5.27911C3.94577 4.72119 4.27053 4.21218 4.68602 3.78239C5.10152 3.3526 5.59925 3.01081 6.14959 2.77738C6.69992 2.54395 7.29161 2.42366 7.8894 2.42366C8.48719 2.42366 9.07888 2.54395 9.62921 2.77738C10.1795 3.01081 10.6773 3.3526 11.0928 3.78239C11.5083 4.21218 11.833 4.72119 12.0477 5.27911C12.2624 5.83702 12.3626 6.43244 12.3424 7.02989V9.54824C12.4049 10.5913 12.6918 11.6085 13.1835 12.5305C13.5355 13.0882 13.9531 13.6017 14.4274 14.0599H1.35137Z" fill="#FF0000"/>
<path d="M7.91245 16.7821C8.23358 16.7747 8.54175 16.654 8.78245 16.4413C9.02315 16.2286 9.18087 15.9376 9.2277 15.6198H6.54622C6.59438 15.9462 6.75947 16.2441 7.01079 16.4579C7.2621 16.6717 7.58253 16.7869 7.91245 16.7821Z" fill="#FF0000"/>
</svg>
