<svg width="23" height="25" viewBox="0 0 23 25" fill="none" xmlns="http://www.w3.org/2000/svg">
<path d="M22.3753 19.6678C21.65 19.0213 21.0151 18.2802 20.4876 17.4643C19.9117 16.3381 19.5665 15.1083 19.4723 13.8469V10.1317C19.4773 8.15046 18.7586 6.23561 17.4513 4.7469C16.144 3.25819 14.3381 2.29809 12.3728 2.04701V1.07685C12.3728 0.810571 12.267 0.555199 12.0788 0.366912C11.8905 0.178624 11.6351 0.0728455 11.3688 0.0728455C11.1025 0.0728455 10.8472 0.178624 10.6589 0.366912C10.4706 0.555199 10.3648 0.810571 10.3648 1.07685V2.06205C8.41716 2.33124 6.63305 3.29713 5.34293 4.78084C4.05281 6.26455 3.3441 8.16553 3.34806 10.1317V13.8469C3.25387 15.1083 2.90869 16.3381 2.33278 17.4643C1.81452 18.2783 1.18979 19.0194 0.475184 19.6678C0.394962 19.7383 0.330668 19.8251 0.28658 19.9223C0.242491 20.0196 0.219618 20.1251 0.219482 20.2319V21.2547C0.219482 21.4542 0.298717 21.6454 0.439757 21.7865C0.580796 21.9275 0.772086 22.0068 0.971546 22.0068H21.8789C22.0784 22.0068 22.2696 21.9275 22.4107 21.7865C22.5517 21.6454 22.631 21.4542 22.631 21.2547V20.2319C22.6308 20.1251 22.608 20.0196 22.5639 19.9223C22.5198 19.8251 22.4555 19.7383 22.3753 19.6678ZM1.78377 20.5026C2.4835 19.8267 3.09958 19.0692 3.61881 18.2464C4.34426 16.8863 4.76753 15.3856 4.85971 13.8469V10.1317C4.82988 9.2503 4.97773 8.37192 5.29444 7.54885C5.61115 6.72579 6.09024 5.97487 6.7032 5.34082C7.31616 4.70677 8.05044 4.20255 8.86233 3.85818C9.67421 3.51382 10.5471 3.33635 11.429 3.33635C12.3109 3.33635 13.1838 3.51382 13.9956 3.85818C14.8075 4.20255 15.5418 4.70677 16.1548 5.34082C16.7677 5.97487 17.2468 6.72579 17.5635 7.54885C17.8802 8.37192 18.0281 9.2503 17.9983 10.1317V13.8469C18.0904 15.3856 18.5137 16.8863 19.2392 18.2464C19.7584 19.0692 20.3745 19.8267 21.0742 20.5026H1.78377Z" fill="#696E7E"/>
<path d="M11.4627 24.5187C11.9364 24.5077 12.3911 24.3296 12.7462 24.0158C13.1013 23.702 13.3339 23.2728 13.403 22.8039H9.44716C9.51821 23.2855 9.76177 23.7249 10.1325 24.0403C10.5033 24.3557 10.976 24.5257 11.4627 24.5187Z" fill="#696E7E"/>
</svg>
