<svg width="142" height="142" viewBox="0 0 142 142" fill="none" xmlns="http://www.w3.org/2000/svg">
<circle opacity="0.1" cx="71" cy="71" r="71" fill="#F65535"/>
<path fill-rule="evenodd" clip-rule="evenodd" d="M103.71 72.0783C103.71 80.2282 100.729 87.6812 95.7986 93.4083C92.8298 92.0832 89.379 90.993 85.5828 90.2016C87.4039 84.991 88.4676 78.7426 88.4676 72.0783H103.71ZM92.2851 51.3365C92.2851 53.3311 93.902 54.948 95.8967 54.948C97.8913 54.948 99.5082 53.3313 99.5082 51.3365C99.5082 49.3425 97.8914 47.7255 95.8967 47.7255C93.9019 47.7255 92.2851 49.3425 92.2851 51.3365ZM64.5002 50.6453C64.5002 53.9308 52.6023 53.9308 52.6023 50.6453C52.6023 47.3601 55.266 44.6966 58.5514 44.6966C61.8369 44.6966 64.5002 47.3599 64.5002 50.6453ZM55.8021 40.0381C55.8021 41.5567 57.033 42.7876 58.5516 42.7876C60.07 42.7876 61.3011 41.5567 61.3011 40.0381C61.3011 38.5201 60.0702 37.2891 58.5516 37.2891C57.033 37.2891 55.8021 38.5201 55.8021 40.0381ZM89.397 50.6453C89.397 53.9308 77.4991 53.9308 77.4991 50.6453C77.4991 47.3601 80.1628 44.6966 83.4482 44.6966C86.7337 44.6966 89.397 47.3599 89.397 50.6453ZM80.6987 40.0381C80.6987 41.5567 81.9296 42.7876 83.4482 42.7876C84.9669 42.7876 86.1977 41.5567 86.1977 40.0381C86.1977 38.5201 84.9669 37.2891 83.4482 37.2891C81.9296 37.2891 80.6987 38.5201 80.6987 40.0381ZM78.8137 65.2692C78.8137 69.5846 63.1857 69.5846 63.1857 65.2692C63.1857 60.9539 66.6846 57.4555 71 57.4555C75.3153 57.4555 78.8137 60.9539 78.8137 65.2692ZM42.4916 51.3365C42.4916 53.3311 44.1085 54.948 46.1032 54.948C48.0978 54.948 49.7147 53.3313 49.7147 51.3365C49.7147 49.3425 48.0979 47.7255 46.1032 47.7255C44.1085 47.7255 42.4916 49.3425 42.4916 51.3365ZM67.3885 51.3365C67.3885 53.3311 69.0054 54.948 71 54.948C72.9946 54.948 74.6115 53.3313 74.6115 51.3365C74.6115 49.3425 72.9947 47.7255 71 47.7255C69.0054 47.7255 67.3885 49.3425 67.3885 51.3365ZM53.917 65.2692C53.917 69.5846 38.2891 69.5846 38.2891 65.2692C38.2891 60.9539 41.7878 57.4555 46.1033 57.4555C50.4187 57.4555 53.917 60.9539 53.917 65.2692ZM103.71 65.2692C103.71 69.5846 88.0824 69.5846 88.0824 65.2692C88.0824 60.9539 91.5812 57.4555 95.8967 57.4555C100.212 57.4555 103.71 60.9539 103.71 65.2692ZM83.6327 89.827C85.4396 84.7725 86.4987 78.6455 86.4987 72.0783H71.9841V88.7598C76.0678 88.8117 79.988 89.1847 83.6327 89.827ZM70.0153 88.7598C65.9324 88.8115 62.0122 89.1846 58.3668 89.8271C56.5598 84.7725 55.5007 78.6455 55.5007 72.0783H70.0153V88.7598ZM56.4166 90.2017C54.5955 84.991 53.5318 78.7426 53.5318 72.0783H38.2891C38.2891 80.2289 41.2709 87.6824 46.202 93.4097C49.175 92.0829 52.6255 90.9923 56.4166 90.2017ZM94.3922 94.9394C91.6034 93.7529 88.3953 92.7762 84.8823 92.0625C82.7981 97.2154 78.9634 103.344 73.2496 104.712C81.5186 104.15 88.9432 100.514 94.3922 94.9394ZM68.7498 104.712C60.4804 104.15 53.0554 100.514 47.6062 94.9383C50.3912 93.7535 53.5996 92.7772 57.1171 92.0625C59.2013 97.2154 63.0358 103.344 68.7498 104.712ZM59.0889 91.6952C61.0038 96.285 64.6913 102.252 70.0153 102.946V90.7287C66.1789 90.778 62.5051 91.1152 59.0889 91.6952ZM71.9841 90.7287C75.8198 90.778 79.4936 91.1152 82.9105 91.6952C80.9955 96.285 77.3084 102.252 71.9841 102.946V90.7287Z" fill="#F65535"/>
</svg>
