<svg width="142" height="142" viewBox="0 0 142 142" fill="none" xmlns="http://www.w3.org/2000/svg">
<circle opacity="0.1" cx="71" cy="71" r="71" fill="#FBBE40"/>
<g clip-path="url(#clip0_30_101)">
<path d="M69.6875 29.6562H64.4375C63.5675 29.6572 62.7335 30.0032 62.1183 30.6183C61.5032 31.2335 61.1572 32.0675 61.1562 32.9375V69.0312H57.2188V40.8125C57.2178 39.9425 56.8718 39.1085 56.2567 38.4933C55.6415 37.8782 54.8075 37.5322 53.9375 37.5312H48.6875C47.8175 37.5322 46.9835 37.8782 46.3683 38.4933C45.7532 39.1085 45.4072 39.9425 45.4062 40.8125V69.0312H41.4688V48.6875C41.4678 47.8175 41.1218 46.9835 40.5067 46.3683C39.8915 45.7532 39.0575 45.4072 38.1875 45.4062H32.9375C32.0675 45.4072 31.2335 45.7532 30.6183 46.3683C30.0032 46.9835 29.6572 47.8175 29.6562 48.6875V71C29.6563 71.5221 29.8637 72.0229 30.2329 72.3921C30.6021 72.7613 31.1029 72.9687 31.625 72.9688H71C71.5221 72.9687 72.0229 72.7613 72.3921 72.3921C72.7613 72.0229 72.9687 71.5221 72.9688 71V32.9375C72.9678 32.0675 72.6218 31.2335 72.0067 30.6183C71.3915 30.0032 70.5575 29.6572 69.6875 29.6562Z" fill="#FBBE40"/>
<path d="M82.8104 112.344H53.6072C53.3215 112.344 53.0391 112.281 52.7798 112.161C52.5205 112.041 52.2905 111.866 52.1057 111.648C51.9208 111.43 51.7857 111.175 51.7095 110.899C51.6334 110.624 51.6181 110.335 51.6647 110.053C52.3085 106.313 52.0427 102.472 50.8898 98.8554C49.7369 95.2389 47.7308 91.953 45.0407 89.2751C42.2187 86.5114 39.8866 83.2886 38.1437 79.7441C38.0288 79.5121 37.9609 79.2597 37.9438 79.0014C37.9266 78.743 37.9606 78.4839 38.0438 78.2387C38.1269 77.9936 38.2576 77.7672 38.4284 77.5726C38.5991 77.378 38.8066 77.2191 39.0389 77.1048C39.2712 76.9905 39.5237 76.9231 39.7821 76.9066C40.0404 76.89 40.2995 76.9246 40.5445 77.0083C40.7894 77.092 41.0155 77.2233 41.2097 77.3945C41.4039 77.5657 41.5624 77.7735 41.6761 78.006C43.2232 81.1511 45.2929 84.0107 47.7971 86.463C50.665 89.3065 52.8718 92.7466 54.2607 96.539C55.6496 100.331 56.1866 104.383 55.8336 108.406H81.0287L81.9272 99.4174C82.0377 98.2827 82.5675 97.23 83.4128 96.4651C84.2582 95.7002 85.3585 95.2781 86.4986 95.2812H96.9197C97.7897 95.2803 98.6238 94.9343 99.2389 94.3192C99.8541 93.704 100.2 92.87 100.201 92V80.8438C100.201 80.3216 100.408 79.8209 100.778 79.4517C101.147 79.0825 101.648 78.875 102.17 78.875H107.187L100.409 65.3181C100.272 65.0446 100.201 64.7431 100.201 64.4375C100.231 57.8113 98.1135 51.3537 94.1657 46.0318C90.218 40.7099 84.6524 36.8102 78.3025 34.9165C78.0546 34.842 77.8239 34.7193 77.6234 34.5555C77.423 34.3917 77.2569 34.19 77.1345 33.9619C77.0122 33.7338 76.936 33.4838 76.9103 33.2263C76.8847 32.9687 76.9101 32.7086 76.9851 32.4609C77.0601 32.2132 77.1832 31.9827 77.3474 31.7826C77.5116 31.5825 77.7136 31.4167 77.9419 31.2948C78.1702 31.1728 78.4204 31.0971 78.678 31.072C78.9356 31.0468 79.1956 31.0727 79.4432 31.1482C86.5268 33.2601 92.7471 37.5868 97.1911 43.4935C101.635 49.4001 104.069 56.5757 104.135 63.9671L112.134 79.9632C112.284 80.2634 112.354 80.5969 112.339 80.932C112.324 81.2672 112.223 81.5929 112.047 81.8783C111.871 82.1637 111.624 82.3993 111.331 82.5628C111.038 82.7263 110.708 82.8122 110.373 82.8125H104.138V92C104.136 93.9138 103.375 95.7486 102.022 97.1019C100.668 98.4552 98.8336 99.2165 96.9197 99.2188H86.4986C86.3357 99.2182 86.1784 99.2785 86.0576 99.3878C85.9369 99.4971 85.8612 99.6475 85.8455 99.8096L84.7695 110.571C84.7208 111.057 84.4934 111.507 84.1314 111.835C83.7694 112.162 83.2986 112.344 82.8104 112.344Z" fill="#FBBE40"/>
</g>
<defs>
<clipPath id="clip0_30_101">
<rect width="84" height="84" fill="white" transform="translate(29 29)"/>
</clipPath>
</defs>
</svg>
