<svg width="142" height="142" viewBox="0 0 142 142" fill="none" xmlns="http://www.w3.org/2000/svg">
<circle opacity="0.1" cx="71" cy="71" r="71" fill="#545AE8"/>
<g clip-path="url(#clip0_30_103)">
<path d="M72.2329 88.0624C74.3178 87.4337 76.1799 85.2627 77.5228 82.1552C75.8366 81.4651 74.051 81.0489 72.2329 80.9219V88.0624Z" fill="#545AE8"/>
<path d="M72.2329 78.4595C74.3377 78.5842 76.4081 79.0473 78.3653 79.8308C79.1012 77.3623 79.5155 74.8095 79.5986 72.2344H72.2329V78.4595Z" fill="#545AE8"/>
<path d="M82.0653 72.2344C81.9888 75.1865 81.5046 78.1138 80.626 80.9334C81.6323 81.4989 82.5868 82.1529 83.4775 82.887C86.2423 79.9934 87.9134 76.2265 88.2025 72.2344H82.0653Z" fill="#545AE8"/>
<path d="M81.6513 84.5676C81.046 84.0913 80.4089 83.6559 79.7446 83.2656C79.1786 84.5755 78.4571 85.8124 77.5947 86.9494C79.0503 86.3466 80.4155 85.545 81.6513 84.5676Z" fill="#545AE8"/>
<path d="M72.2329 69.7677H79.6011C79.518 67.1932 79.1036 64.6404 78.3677 62.1719C76.4099 62.9554 74.3383 63.4185 72.2329 63.5431V69.7677Z" fill="#545AE8"/>
<path d="M72.2329 53.9375V61.0738C74.051 60.9467 75.8366 60.53 77.5228 59.8404C76.1799 56.7372 74.3178 54.5668 72.2329 53.9375Z" fill="#545AE8"/>
<path d="M77.5957 55.0547C78.4575 56.1911 79.1789 57.428 79.7444 58.7373C80.4081 58.347 81.0452 57.9116 81.6498 57.4347C80.4147 56.4585 79.0507 55.6569 77.5957 55.0547Z" fill="#545AE8"/>
<path d="M83.4775 59.1172C82.5868 59.8513 81.6323 60.5053 80.626 61.0708C81.5046 63.8904 81.9888 66.8172 82.0653 69.7692H88.2025C87.914 65.7771 86.2429 62.0108 83.4775 59.1172Z" fill="#545AE8"/>
<path d="M69.7663 88.0615V80.9258C67.9488 81.0528 66.1633 81.4696 64.4771 82.1591C65.82 85.2618 67.6821 87.4328 69.7663 88.0615Z" fill="#545AE8"/>
<path d="M69.7665 72.2344H62.3989C62.482 74.8095 62.8964 77.3623 63.6323 79.8308C65.5901 79.0473 67.6617 78.5842 69.7665 78.4595V72.2344Z" fill="#545AE8"/>
<path d="M62.2555 83.2656C61.5913 83.6559 60.9547 84.0907 60.3501 84.5676C61.5852 85.5444 62.9493 86.3454 64.4042 86.9482C63.5425 85.8118 62.821 84.5748 62.2555 83.2656Z" fill="#545AE8"/>
<path d="M69.7663 53.9375C67.6821 54.5668 65.82 56.7372 64.4771 59.8453C66.1633 60.5354 67.9488 60.9515 69.7663 61.0786V53.9375Z" fill="#545AE8"/>
<path d="M69.7665 63.5431C67.6624 63.4185 65.5919 62.9554 63.6347 62.1719C62.8988 64.6404 62.4845 67.1932 62.4014 69.7677H69.7665V63.5431Z" fill="#545AE8"/>
<path d="M53.7974 69.7692H59.9346C60.0129 66.8172 60.4995 63.8898 61.3799 61.0708C60.3736 60.5053 59.4191 59.8513 58.5284 59.1172C55.7612 62.0102 54.0882 65.7765 53.7974 69.7692Z" fill="#545AE8"/>
<path d="M64.4052 55.0547C62.9496 55.6575 61.5844 56.4591 60.3486 57.4359C60.9539 57.9128 61.591 58.3482 62.2553 58.7385C62.8213 57.4286 63.5428 56.1917 64.4052 55.0547Z" fill="#545AE8"/>
<path d="M58.5224 82.887C59.4149 82.1523 60.3712 81.4983 61.3799 80.9334C60.4995 78.1144 60.0129 75.1871 59.9346 72.2344H53.7974C54.0858 76.2271 55.757 79.9934 58.5224 82.887Z" fill="#545AE8"/>
<path d="M103.93 66.1543C103.139 60.7132 100.999 55.557 97.7057 51.1542C99.0914 49.1988 98.8626 46.528 97.1643 44.8369C95.4456 43.2025 92.8229 42.9797 90.8531 44.3004C86.449 41.0038 81.2898 38.8617 75.8458 38.0698C75.4333 35.7163 73.3893 34 70.9997 34C68.6107 34 66.5668 35.7163 66.1543 38.0698C60.709 38.8611 55.5486 41.0032 51.1434 44.3004C49.1735 42.9797 46.5508 43.2025 44.8321 44.8369C43.1333 46.528 42.9044 49.1988 44.2907 51.1542C40.9984 55.557 38.8599 60.7138 38.0698 66.1543C35.7163 66.5668 34 68.6107 34 70.9997C34 73.3893 35.7163 75.4333 38.0698 75.8458C38.8611 81.2868 41.0008 86.443 44.2943 90.8458C42.908 92.8024 43.1339 95.4733 44.8297 97.1691C46.5255 98.8644 49.1964 99.0908 51.153 97.7045C55.5558 100.999 60.7126 103.139 66.1543 103.93C66.5668 106.284 68.6107 108 70.9997 108C73.3893 108 75.4333 106.284 75.8458 103.93C81.2868 103.139 86.443 100.999 90.8458 97.7057C92.8024 99.092 95.4733 98.8656 97.1691 97.1703C98.8644 95.4745 99.0908 92.8037 97.7045 90.847C100.999 86.4442 103.139 81.2874 103.93 75.8458C106.284 75.4333 108 73.3893 108 70.9997C108 68.6107 106.284 66.5668 103.93 66.1543ZM95.8039 89.268C93.9208 88.3918 91.6932 88.7561 90.187 90.187C88.6935 91.6655 88.3153 93.9346 89.25 95.8172C85.244 98.7825 80.5732 100.722 75.6446 101.464C74.972 99.4714 73.1033 98.1297 70.9997 98.1297C68.8968 98.1297 67.0281 99.4714 66.3554 101.464C61.4256 100.722 56.753 98.7831 52.7465 95.8172C53.6811 93.9346 53.3029 91.6655 51.8094 90.187C50.3033 88.7561 48.0757 88.3918 46.1925 89.268C43.2212 85.2585 41.279 80.5804 40.5365 75.6446C42.5286 74.972 43.8704 73.1033 43.8704 70.9997C43.8704 68.8968 42.5286 67.0281 40.5365 66.3554C41.2778 61.4256 43.217 56.753 46.1829 52.7465C48.066 53.6739 50.3304 53.2993 51.8148 51.8148C53.2993 50.3304 53.6739 48.066 52.7465 46.1829C56.753 43.217 61.4256 41.2778 66.3554 40.5365C67.0281 42.5286 68.8968 43.8704 70.9997 43.8704C73.1033 43.8704 74.972 42.5286 75.6446 40.5365C80.5744 41.2778 85.247 43.217 89.2536 46.1829C88.3262 48.066 88.7007 50.3304 90.1852 51.8148C91.6697 53.2993 93.934 53.6739 95.8172 52.7465C98.7831 56.753 100.722 61.4256 101.464 66.3554C99.4714 67.0281 98.1297 68.8968 98.1297 70.9997C98.1297 73.1033 99.4714 74.972 101.464 75.6446C100.72 80.5804 98.7765 85.2585 95.8039 89.268Z" fill="#545AE8"/>
</g>
<defs>
<clipPath id="clip0_30_103">
<rect width="74" height="74" fill="white" transform="translate(34 34)"/>
</clipPath>
</defs>
</svg>
