<svg width="180" height="102" viewBox="0 0 180 102" fill="none" xmlns="http://www.w3.org/2000/svg">
<path d="M12.6792 8.87503C12.9454 8.76097 13.1736 8.55186 13.4399 8.38076C16.083 6.55574 18.1177 4.14138 20.3805 1.93615C20.8369 1.4989 21.2552 0.852536 20.8178 0.434301C20.3995 0.0350771 19.6579 0.225187 19.1064 0.719464C18.9163 0.89056 18.7262 1.08066 18.555 1.27077C17.5092 2.63954 16.1591 3.76117 14.7519 5.33906C14.0103 6.02344 12.9835 6.95496 11.9947 7.90549C11.6714 8.20966 11.3481 8.60889 11.6334 8.97009C11.8996 9.27426 12.3369 9.02712 12.6792 8.87503Z" fill="#7DB5CD"/>
<path d="M1.15576 20.3907C1.42198 20.2766 1.65021 20.0675 1.91643 19.8964C4.55958 18.0714 6.59422 15.657 8.85705 13.4518C9.31343 13.0145 9.73173 12.3682 9.29437 11.9499C8.87603 11.5507 8.13444 11.7408 7.58299 12.2351C7.39284 12.4062 7.20267 12.5963 7.03153 12.7864C5.98568 14.1552 4.63558 15.2768 3.22844 16.8547C2.48684 17.5391 1.46004 18.4706 0.471236 19.4211C0.147973 19.7253 -0.175294 20.1245 0.109938 20.4857C0.376154 20.7899 0.813486 20.5427 1.15576 20.3907Z" fill="#7DB5CD"/>
<path d="M12.2044 12.6789C12.3185 12.9451 12.5277 13.1732 12.6989 13.4394C14.5243 16.0818 16.9393 18.116 19.1451 20.3783C19.5825 20.8345 20.229 21.2527 20.6473 20.8155C21.0466 20.3973 20.8565 19.6558 20.3621 19.1045C20.1909 18.9144 20.0008 18.7243 19.8106 18.5532C18.4415 17.5076 17.3196 16.1579 15.7413 14.7511C15.0568 14.0097 14.125 12.9831 13.1742 11.9946C12.87 11.6714 12.4707 11.3482 12.1094 11.6333C11.8051 11.8805 12.0523 12.3367 12.2044 12.6789Z" fill="#7DB5CD"/>
<path d="M0.680027 1.1555C0.79412 1.42165 1.00331 1.64977 1.17445 1.91592C2.99993 4.5584 5.41492 6.59254 7.62071 8.85481C8.05807 9.31107 8.70455 9.7293 9.12289 9.29206C9.52221 8.87382 9.33207 8.1324 8.83767 7.5811C8.66653 7.39099 8.47636 7.20089 8.28621 7.02979C6.91709 5.98421 5.79521 4.63445 4.21693 3.22766C3.53237 2.48624 2.60061 1.45967 1.64983 0.471111C1.34559 0.14793 0.946267 -0.175248 0.584973 0.109911C0.280726 0.35705 0.527904 0.813305 0.680027 1.1555Z" fill="#7DB5CD"/>
<g opacity="0.5">
<path opacity="0.4" d="M179.311 39.0859H68.3584V41.2196H179.311V39.0859Z" fill="#FBBE40"/>
<path d="M84.7526 48.4375H163.214C163.724 48.4375 164.137 48.8505 164.137 49.36V55.9548C164.137 56.4642 163.724 56.8772 163.214 56.8772H84.7526C84.2431 56.8772 83.8301 56.4642 83.8301 55.9548V49.36C83.8301 48.8505 84.2431 48.4375 84.7526 48.4375Z" stroke="#FBBE40"/>
<path d="M84.7526 61.5391H163.214C163.724 61.5391 164.137 61.9521 164.137 62.4615V69.0563C164.137 69.5658 163.724 69.9788 163.214 69.9788H84.7526C84.2431 69.9788 83.8301 69.5658 83.8301 69.0563V62.4615C83.8301 61.9521 84.2431 61.5391 84.7526 61.5391Z" stroke="#FBBE40"/>
<path d="M164.636 76.8984H83.3301V79.0321H164.636V76.8984Z" fill="white"/>
<path d="M164.636 82.8203H83.3301V84.954H164.636V82.8203Z" fill="white"/>
<path d="M164.636 88.7422H83.3301V90.8759H164.636V88.7422Z" fill="white"/>
<path d="M72.2703 21.4453H175.695C177.776 21.4453 179.463 23.132 179.463 25.2127V97.7324C179.463 99.813 177.776 101.5 175.695 101.5H72.2703C70.1897 101.5 68.5029 99.813 68.5029 97.7324V25.2127C68.5029 23.132 70.1897 21.4453 72.2703 21.4453Z" stroke="white" stroke-opacity="0.4"/>
</g>
</svg>
