<svg width="175" height="95" viewBox="0 0 175 95" fill="none" xmlns="http://www.w3.org/2000/svg">
<path d="M18.8821 52.7407C19.3253 43.384 24.6429 37.253 32.9639 32.8455C30.6498 30.2601 27.7694 28.635 25.086 26.7637C21.4425 24.2275 18.3405 21.3221 17.5774 16.693C17.3066 15.0925 17.2573 13.4428 18.6606 12.3594C19.7438 12.6548 19.7192 13.3936 19.7192 13.886C19.7192 18.9583 22.4764 22.2577 26.4154 24.9416C29.3204 26.936 32.25 28.9551 34.441 31.8852C35.9427 31.7129 37.4444 30.8511 39.02 31.5898C39.4385 33.0179 38.1584 33.2641 37.3952 33.5349C28.4341 36.7851 22.5011 42.7438 20.3346 52.1743C20.2608 52.5191 19.9654 52.8146 19.7438 53.1347C19.4484 53.0115 19.1776 52.8884 18.8821 52.7407Z" fill="#7EA5D7"/>
<path d="M18.0207 45.4484C13.8109 41.558 8.8134 38.7018 5.29297 33.8511C3.98819 33.8511 2.2649 34.9591 0 33.2602C3.91433 32.029 7.23782 30.8471 9.97047 28.2125C12.4077 25.8733 13.5401 21.8845 17.873 21.6875C15.0911 26.1442 11.8907 30.1823 7.28706 33.1371C11.0783 37.1752 16.1497 39.9822 18.0207 45.4484Z" fill="#7EA5D7"/>
<path fill-rule="evenodd" clip-rule="evenodd" d="M104.227 42.1016V85.2118C104.227 85.964 105.61 85.964 105.61 85.2118V42.1016C105.61 41.3099 104.227 41.3099 104.227 42.1016ZM153.854 43.1309V84.4201C153.854 85.1722 155.238 85.1722 155.238 84.4201V43.1309C155.238 42.3787 153.854 42.3787 153.854 43.1309Z" fill="#E59A9E"/>
<path fill-rule="evenodd" clip-rule="evenodd" d="M104.596 85.4843C118.617 96.9249 140.755 96.8457 154.638 85.2863C155.284 84.7717 154.315 83.9008 153.67 84.455C140.34 95.579 119.078 95.6581 105.61 84.653C104.919 84.0987 103.95 84.9301 104.596 85.4843ZM105.334 42.4928C104.965 40.0384 108.977 39.2467 110.961 38.6925C113.174 38.0987 115.434 37.6236 117.694 37.2277C122.722 36.3172 127.841 35.8818 133.007 35.8422C140.617 35.8026 150.257 36.5152 154.5 42.7699C154.961 43.4429 156.16 42.8491 155.699 42.1761C150.856 35.09 139.787 34.4962 131.254 34.6942C125.258 34.8525 119.309 35.5651 113.497 36.8714C110.407 37.5444 103.35 38.6133 103.904 42.4928C104.088 43.245 105.472 43.245 105.334 42.4928Z" fill="#E59A9E"/>
<path fill-rule="evenodd" clip-rule="evenodd" d="M114.328 39.9207C112.437 39.8812 110.131 40.0791 109.116 41.6626C108.24 42.9689 108.886 44.2357 110.177 45.1067C112.068 46.3734 114.743 46.8089 117.049 47.0068C120.37 47.3235 123.737 47.3631 127.058 47.3631C133.423 47.4027 139.88 47.0464 146.06 45.7796C147.582 45.4629 149.888 44.9879 149.981 43.2856C150.073 41.2667 147.075 40.8708 145.645 40.0395C144.907 39.604 144.215 40.6333 144.953 41.0688C145.461 41.3459 146.152 41.5042 146.614 41.7813C147.674 42.0584 147.859 42.8898 147.121 44.2753C146.66 44.3941 146.199 44.5128 145.691 44.592C144.031 44.9087 142.324 45.1858 140.618 45.3837C136.697 45.8588 132.731 46.0963 128.764 46.0963C125.121 46.1359 121.431 46.0963 117.787 45.8192C115.896 45.6609 113.867 45.3837 112.114 44.6712C110.961 44.1565 109.947 43.4836 110.223 42.2168C110.5 40.95 113.175 41.0688 114.236 41.0688C115.251 41.1084 115.251 39.9207 114.328 39.9207ZM120.232 1.60054C117.649 2.62981 112.76 6.27181 115.666 8.92414C116.911 10.0722 123.137 11.4973 120.278 13.9913C119.079 15.0205 117.095 15.0205 115.942 16.2082C115.158 17.0395 114.928 18.1875 115.989 18.9001C116.68 19.3751 117.787 19.4939 118.571 19.8501C119.125 20.0877 119.909 20.4439 120.232 20.919C121.2 22.3045 120.601 22.265 119.586 22.5816C118.571 22.8983 117.234 23.215 117.003 24.3235C116.911 24.7985 117.095 25.2736 117.372 25.6694C117.557 25.9069 117.787 26.0653 118.018 26.2237C118.156 26.3424 120.508 27.9259 119.586 27.8863C118.71 27.8467 118.71 29.0343 119.586 29.0739C120.739 29.1135 121.523 28.2426 121.293 27.2529C121.154 26.6987 120.693 26.3424 120.186 25.9861C119.586 25.5902 117.926 25.1944 118.94 24.0464C119.125 23.8484 119.863 23.7297 120.14 23.6505C123.875 22.4233 121.708 19.8501 118.94 18.6625C117.741 18.1479 115.712 17.5541 117.741 16.4061C118.525 15.9706 119.448 15.7331 120.232 15.3768C121.431 14.8226 122.446 13.9517 122.261 12.6849C122.077 11.1806 120.462 9.91382 119.033 9.20125C118.525 8.96373 117.833 8.84496 117.372 8.52827C115.712 7.49901 116.265 6.27181 117.049 5.24255C117.972 4.01536 119.402 3.2236 120.877 2.6298C121.754 2.27351 121.062 1.28385 120.232 1.60054ZM131.117 13.16C129.456 13.4766 128.119 14.4267 127.842 15.931C127.519 17.6333 128.672 18.4646 129.917 19.573C132.5 21.8295 129.502 21.8691 128.58 23.5713C128.395 23.9276 128.303 24.2839 128.395 24.6798C128.488 25.234 128.764 25.1548 128.949 25.6694C129.318 26.5799 129.364 27.3717 128.672 28.2426C128.165 28.876 129.364 29.4698 129.871 28.8364C130.886 27.53 130.978 26.857 130.471 25.4715C130.056 24.2839 129.964 23.9276 131.117 23.0963C131.532 22.8192 131.947 22.5421 132.27 22.1462C132.823 21.4336 132.777 20.6023 132.224 19.8897C131.808 19.3355 131.209 19.0188 130.655 18.6229C129.687 17.9104 129.502 17.7124 129.502 16.4852C129.502 15.2976 130.056 14.6247 131.486 14.3476C132.362 14.1496 131.993 13.0016 131.117 13.16ZM142.37 1.64012C142.555 1.4026 142.693 1.12551 142.878 0.887984C143.247 0.373353 142.555 -0.180879 141.909 0.0566428C140.203 0.848383 139.05 2.3131 139.003 4.01534C139.003 4.88626 139.28 5.63841 139.788 6.39056C140.756 7.73652 141.31 7.65736 140.295 9.79506C140.11 10.1909 139.741 10.4285 139.557 10.8639C138.819 12.962 141.863 14.1496 141.54 16.2082C141.217 18.2271 139.372 19.6126 140.11 21.7503C140.341 22.5025 141.679 22.1858 141.448 21.4336C140.802 19.4543 142.924 17.8312 143.016 15.8914C143.108 14.1496 140.756 12.9224 140.987 11.4181C141.217 9.87422 143.154 9.32002 142.278 7.49901C141.817 6.54893 140.802 5.83634 140.479 4.80708C140.064 3.26319 141.079 1.7589 142.601 1.08592L141.632 0.254578C141.448 0.4921 141.31 0.769218 141.125 1.00674C140.756 1.71931 141.955 2.3131 142.37 1.64012ZM155.192 53.3803C160.22 49.9362 167.876 53.3011 166.954 58.9225C166.585 61.1394 164.786 63.2375 162.895 64.7418C161.788 65.6127 160.45 66.3649 159.02 66.8003C158.513 66.9587 155.192 67.3941 155.192 67.117C155.238 66.3649 153.855 66.3649 153.809 67.117C153.716 69.6902 159.897 67.8692 161.142 67.2754C164.509 65.7315 167.784 62.5249 168.337 59.1996C169.536 52.3115 160.174 48.4715 154.224 52.5886C153.532 53.024 154.547 53.8554 155.192 53.3803Z" fill="#E59A9E"/>
<path fill-rule="evenodd" clip-rule="evenodd" d="M155.145 48.3156C159.066 46.8113 163.632 47.0092 167.368 48.8303C171.749 50.9679 173.271 54.6496 172.626 58.7666C171.427 66.5256 163.54 71.9887 154.546 71.8303C153.67 71.8303 153.67 73.0179 154.546 73.0179C164.923 73.2158 173.825 66.2881 174.194 57.2623C174.378 52.9473 172.026 49.4637 167.506 47.4843C163.401 45.7029 158.651 45.6633 154.454 47.2468C153.623 47.5635 154.361 48.5927 155.145 48.3156Z" fill="#E59A9E"/>
<path fill-rule="evenodd" clip-rule="evenodd" d="M109.485 42.1748C110.361 43.6791 111.653 44.7876 113.498 45.4209C114.282 45.6981 115.02 44.748 114.19 44.3917C113.036 43.877 112.16 43.2436 111.33 42.4123C110.823 41.8977 109.854 42.5707 110.223 43.1249C112.944 46.9648 118.248 47.0836 122.953 46.8857C123.829 46.8461 123.829 45.6585 122.953 45.6981C118.802 45.8564 113.867 45.9356 111.422 42.4915L110.315 43.2041C111.192 44.1541 112.206 44.8271 113.452 45.3813C113.682 45.0251 113.913 44.7084 114.143 44.3521C112.529 43.7583 111.422 42.8874 110.638 41.5018C110.315 40.908 109.116 41.5018 109.485 42.1748ZM103.997 85.1267C102.659 86.1955 104.319 87.977 105.288 88.8083C107.456 90.6689 110.592 91.896 113.405 92.9253C119.355 95.1026 125.997 95.8152 132.177 93.8358C133.007 93.5587 132.638 92.4107 131.808 92.6878C127.011 94.2317 121.892 94.1129 117.003 92.8066C114.743 92.2128 112.529 91.3419 110.454 90.3918C109.808 90.0751 103.72 87.0268 105.011 85.9976C105.611 85.4434 104.642 84.6121 103.997 85.1267Z" fill="#E59A9E"/>
</svg>
