<svg width="133" height="97" viewBox="0 0 133 97" fill="none" xmlns="http://www.w3.org/2000/svg">
<g opacity="0.2">
<path opacity="0.4" d="M132.19 22.3624H0.569336V24.8936H132.19V22.3624Z" fill="white"/>
<path d="M20.0165 33.3684H113.093C113.749 33.3684 114.281 33.9 114.281 34.5559V42.3791C114.281 43.0349 113.749 43.5665 113.093 43.5665H20.0165C19.3607 43.5665 18.8291 43.0349 18.8291 42.3791V34.5559C18.8291 33.9 19.3607 33.3684 20.0165 33.3684Z" stroke="white"/>
<path d="M20.0165 48.9069H113.093C113.749 48.9069 114.281 49.4385 114.281 50.0943V57.9176C114.281 58.5734 113.749 59.105 113.093 59.105H20.0165C19.3607 59.105 18.8291 58.5734 18.8291 57.9176V50.0943C18.8291 49.4385 19.3607 48.9069 20.0165 48.9069Z" stroke="white"/>
<path d="M114.781 67.2198H18.3291V69.751H114.781V67.2198Z" fill="white"/>
<path d="M114.781 74.2456H18.3291V76.7768H114.781V74.2456Z" fill="white"/>
<path d="M114.781 81.2723H18.3291V83.8035H114.781V81.2723Z" fill="white"/>
<path d="M5.20979 1.34717H127.9C130.42 1.34717 132.462 3.38979 132.462 5.9095V91.9377C132.462 94.4574 130.42 96.5 127.9 96.5H5.20979C2.69009 96.5 0.647461 94.4574 0.647461 91.9377V5.9095C0.647461 3.38979 2.69009 1.34717 5.20979 1.34717Z" stroke="white"/>
</g>
</svg>
