<svg width="31" height="30" viewBox="0 0 31 30" fill="none" xmlns="http://www.w3.org/2000/svg">
<g opacity="0.1">
<path d="M18.114 12.6776C18.4944 12.5147 18.8204 12.2159 19.2008 11.9715C22.9768 9.36423 25.8836 5.91502 29.1163 2.76456C29.7683 2.13989 30.3659 1.21648 29.7411 0.618978C29.1434 0.0486348 28.084 0.320231 27.2962 1.02637C27.0245 1.2708 26.7529 1.54239 26.5084 1.81398C25.0143 3.76944 23.0855 5.37184 21.0752 7.62605C20.0157 8.60378 18.5487 9.93458 17.1361 11.2925C16.6743 11.7271 16.2125 12.2974 16.62 12.8135C17.0003 13.248 17.6251 12.8949 18.114 12.6776Z" fill="white"/>
<path d="M1.65116 29.1361C2.03148 28.9732 2.35754 28.6744 2.73786 28.43C6.51394 25.8227 9.42069 22.3735 12.6534 19.223C13.3054 18.5984 13.903 17.675 13.2782 17.0775C12.6806 16.5071 11.6211 16.7787 10.8333 17.4849C10.5616 17.7293 10.2899 18.0009 10.0454 18.2725C8.55131 20.2279 6.62253 21.8303 4.61224 24.0845C3.55277 25.0623 2.08585 26.3931 0.673221 27.751C0.211399 28.1856 -0.25043 28.7559 0.15706 29.2719C0.537385 29.7065 1.16217 29.3534 1.65116 29.1361Z" fill="white"/>
<path d="M17.4351 18.1093C17.5981 18.4895 17.8969 18.8154 18.1414 19.1956C20.7493 22.9708 24.1995 25.8768 27.3507 29.1087C27.9755 29.7606 28.8991 30.3581 29.4968 29.7334C30.0673 29.1359 29.7956 28.0767 29.0893 27.2891C28.8448 27.0175 28.5731 26.7459 28.3015 26.5015C26.3455 25.0077 24.7428 23.0794 22.488 21.0696C21.51 20.0104 20.1789 18.5438 18.8206 17.1315C18.3859 16.6698 17.8154 16.2081 17.2993 16.6155C16.8646 16.9686 17.2177 17.6204 17.4351 18.1093Z" fill="white"/>
<path d="M0.972179 1.65078C1.13518 2.031 1.43403 2.35691 1.67852 2.73714C4.28646 6.51226 7.73658 9.4183 10.8878 12.6502C11.5127 13.3021 12.4362 13.8996 13.0339 13.2749C13.6044 12.6774 13.3327 11.6182 12.6264 10.8306C12.3819 10.559 12.1102 10.2874 11.8386 10.043C9.88263 8.54921 8.27988 6.62091 6.0251 4.61113C5.04712 3.55192 3.71597 2.08532 2.35767 0.673043C1.92302 0.211337 1.35254 -0.250365 0.836382 0.157023C0.401726 0.510092 0.754851 1.16191 0.972179 1.65078Z" fill="white"/>
</g>
</svg>
