<svg width="43" height="42" viewBox="0 0 43 42" fill="none" xmlns="http://www.w3.org/2000/svg">
<path d="M22.841 39.6952C22.8128 39.1325 22.8128 38.4854 22.7846 37.8945C22.7565 34.7151 24.1355 32.1266 26.3307 29.9319C28.5259 27.7654 31.3121 25.9084 33.9576 23.742C35.0551 22.8697 36.0402 21.4348 35.3366 20.8721C34.6331 20.3375 33.3947 20.9002 32.2127 21.8006C31.7905 22.1101 31.3684 22.4477 30.9744 22.7853C29.6798 23.9952 28.2163 25.0925 26.6966 26.3305C25.205 27.5966 23.5446 29.0316 22.3907 31.1981C21.0961 33.1113 20.3081 36.544 21.0117 39.639C21.2368 40.5956 21.6308 41.6929 22.3344 41.5804C22.8973 41.4959 22.8128 40.4268 22.841 39.6952Z" fill="#E59A9E"/>
<path d="M2.24026 20.335C2.77499 20.6726 3.47858 20.7289 4.09773 20.9258C5.81448 21.3198 7.72818 21.3479 9.50121 20.7008C11.2742 20.0818 12.8221 19.0126 14.0886 17.7746C16.5934 15.2705 18.3102 12.3443 20.3928 9.9527C21.2089 8.96793 22.1376 7.81434 21.5185 7.1672C20.9556 6.54821 19.464 7.11093 18.3664 8.34893C17.9724 8.77097 17.6347 9.19302 17.297 9.6432C15.2988 12.6819 13.2443 15.8332 9.89526 18.0559C8.2348 19.0126 5.61746 19.4628 3.02827 18.7875C2.21212 18.5343 1.22707 18.3373 0.88935 18.9563C0.63606 19.4628 1.56482 19.9411 2.24026 20.335Z" fill="#E59A9E"/>
<path d="M40.2613 19.8274C39.6422 19.4898 38.9385 19.2365 38.2631 18.9552C34.7733 17.3233 31.565 15.3537 29.004 12.6526C26.4429 9.9797 24.5573 6.65962 23.516 3.00191C23.0657 1.56696 22.5029 -0.205629 21.6023 0.0194614C20.7861 0.216415 20.5047 1.989 21.0675 3.84599C21.2083 4.49313 21.4616 5.14026 21.7149 5.75926C23.6005 9.75461 25.9363 13.9469 30.5518 17.07C32.6344 18.6738 35.8709 20.3339 39.3325 21.3468C40.402 21.6563 41.7529 21.8532 42.0062 21.2342C42.2032 20.6996 41.0493 20.2213 40.2613 19.8274Z" fill="#E59A9E"/>
<path d="M19.7736 30.8311C19.661 30.5216 19.4639 30.2403 19.2669 29.9589C17.4376 26.9202 14.7359 24.7818 12.3437 22.3059C11.8653 21.7994 11.1054 21.3774 10.4862 22.0245C9.89521 22.6435 9.97969 23.5439 10.5426 24.1628C10.7114 24.3879 10.9084 24.5849 11.1335 24.7537C12.7096 25.8229 13.8634 27.3422 15.6083 28.8616C16.3401 29.6776 17.3251 30.803 18.3664 31.9003C18.676 32.238 19.1544 32.6037 19.661 32.1536C20.1394 31.7596 19.8861 31.2251 19.7736 30.8311Z" fill="#E59A9E"/>
</svg>
