<svg width="141" height="82" viewBox="0 0 141 82" fill="none" xmlns="http://www.w3.org/2000/svg">
<g opacity="0.2">
<path d="M130.519 10.5269C130.834 10.3916 131.105 10.1435 131.421 9.94056C134.556 7.77558 136.97 4.9115 139.654 2.29548C140.196 1.77679 140.692 1.01002 140.173 0.513881C139.677 0.0402923 138.797 0.265814 138.143 0.852163C137.917 1.05513 137.692 1.28064 137.489 1.50616C136.248 3.12989 134.647 4.46046 132.977 6.33227C132.098 7.14413 130.879 8.24917 129.706 9.37676C129.323 9.73759 128.94 10.2112 129.278 10.6397C129.594 11.0005 130.112 10.7073 130.519 10.5269Z" fill="white"/>
<path d="M116.849 24.1934C117.164 24.0581 117.435 23.81 117.751 23.6071C120.886 21.4421 123.3 18.578 125.984 15.962C126.526 15.4433 127.022 14.6765 126.503 14.1804C126.007 13.7068 125.127 13.9323 124.473 14.5187C124.247 14.7216 124.022 14.9471 123.819 15.1727C122.578 16.7964 120.977 18.127 119.307 19.9988C118.428 20.8106 117.21 21.9157 116.037 23.0433C115.653 23.4041 115.27 23.8777 115.608 24.3062C115.924 24.667 116.443 24.3738 116.849 24.1934Z" fill="white"/>
<path d="M129.955 15.0372C130.09 15.353 130.339 15.6236 130.542 15.9393C132.707 19.074 135.572 21.4871 138.189 24.1707C138.708 24.712 139.474 25.2081 139.971 24.6894C140.444 24.1933 140.219 23.3138 139.632 22.6598C139.429 22.4343 139.204 22.2087 138.978 22.0058C137.354 20.7654 136.023 19.1642 134.151 17.4954C133.339 16.6159 132.233 15.3981 131.106 14.2254C130.745 13.842 130.271 13.4586 129.842 13.7969C129.481 14.0901 129.775 14.6313 129.955 15.0372Z" fill="white"/>
<path d="M116.285 1.37074C116.421 1.68646 116.669 1.95708 116.872 2.2728C119.037 5.40751 121.902 7.82056 124.519 10.5042C125.038 11.0455 125.804 11.5416 126.301 11.0229C126.774 10.5268 126.549 9.64726 125.962 8.99326C125.759 8.76774 125.534 8.54223 125.308 8.33926C123.684 7.09891 122.353 5.49773 120.481 3.82889C119.669 2.94937 118.564 1.73156 117.436 0.558867C117.075 0.175486 116.601 -0.207893 116.172 0.130385C115.812 0.423559 116.105 0.964802 116.285 1.37074Z" fill="white"/>
</g>
<path opacity="0.1" d="M41.0678 52.2271C40.0987 49.5213 38.1605 46.7252 35.8589 44.6206C29.7718 38.788 19.8991 37.2848 12.1766 41.103C8.30016 42.937 5.02952 46.0036 2.87933 49.7016C0.729144 53.3996 -0.27031 57.7591 0.0628179 62.0283C0.607936 70.6569 6.90711 78.5039 15.2353 80.9993C23.5029 83.6751 33.1636 80.849 38.6148 74.1445C40.8256 71.4988 42.4004 67.9511 42.8244 65.0949C43.2484 62.2388 42.8243 60.2845 42.4004 60.3747C41.8855 60.4649 41.5827 62.1485 40.7953 64.5537C40.0079 66.9289 38.5542 69.9955 36.2223 72.6412C34.587 74.4752 32.6185 76.0386 30.4683 77.151C26.8948 79.1052 22.5944 79.7967 18.4454 79.1052C14.2965 78.4137 10.299 76.3091 7.42198 73.002C4.51469 69.7249 2.63707 65.3354 2.60678 60.6754C2.51593 56.0153 4.2118 51.1447 7.66422 47.4167C10.9046 43.869 16.5073 40.9828 22.7459 41.4037C28.9541 41.6141 35.3139 45.4324 38.4634 51.2049C39.4628 53.0088 40.1896 55.1434 40.6439 56.9172C41.0982 58.6911 41.2496 60.0741 41.6736 60.3447C41.9764 60.5551 42.2186 59.4126 42.1884 57.7591C42.1581 56.0754 41.6432 53.9408 41.0678 52.2271Z" fill="white"/>
</svg>
