<svg width="23" height="24" viewBox="0 0 23 24" fill="none" xmlns="http://www.w3.org/2000/svg">
<path d="M19.4364 3.2315H18.3083V6.61578C18.3083 6.91497 18.1895 7.20191 17.9779 7.41347C17.7664 7.62502 17.4794 7.74388 17.1803 7.74388C16.8811 7.74388 16.5941 7.62502 16.3826 7.41347C16.171 7.20191 16.0522 6.91497 16.0522 6.61578V3.2315H7.0274V6.61578C7.0274 6.91497 6.90855 7.20191 6.69699 7.41347C6.48543 7.62502 6.1985 7.74388 5.89931 7.74388C5.60012 7.74388 5.31318 7.62502 5.10162 7.41347C4.89007 7.20191 4.77121 6.91497 4.77121 6.61578V3.2315H3.64312C2.74555 3.2315 1.88474 3.58806 1.25007 4.22273C0.615392 4.85741 0.258835 5.71821 0.258835 6.61578V10.0001H22.8207V6.61578C22.8207 5.71821 22.4642 4.85741 21.8295 4.22273C21.1948 3.58806 20.334 3.2315 19.4364 3.2315Z" fill="#696E7E"/>
<path opacity="0.5" d="M22.8207 10.0001H0.258835V20.1529C0.258835 21.0505 0.615392 21.9113 1.25007 22.546C1.88474 23.1806 2.74555 23.5372 3.64312 23.5372H19.4364C20.334 23.5372 21.1948 23.1806 21.8295 22.546C22.4642 21.9113 22.8207 21.0505 22.8207 20.1529V10.0001ZM5.89931 7.74388C5.60012 7.74388 5.31318 7.62502 5.10162 7.41347C4.89007 7.20191 4.77121 6.91497 4.77121 6.61578V2.1034C4.77121 1.80422 4.89007 1.51728 5.10162 1.30572C5.31318 1.09416 5.60012 0.97531 5.89931 0.97531C6.1985 0.97531 6.48543 1.09416 6.69699 1.30572C6.90855 1.51728 7.0274 1.80422 7.0274 2.1034V6.61578C7.0274 6.91497 6.90855 7.20191 6.69699 7.41347C6.48543 7.62502 6.1985 7.74388 5.89931 7.74388ZM17.1803 7.74388C16.8811 7.74388 16.5941 7.62502 16.3826 7.41347C16.171 7.20191 16.0522 6.91497 16.0522 6.61578V2.1034C16.0522 1.80422 16.171 1.51728 16.3826 1.30572C16.5941 1.09416 16.8811 0.97531 17.1803 0.97531C17.4794 0.97531 17.7664 1.09416 17.9779 1.30572C18.1895 1.51728 18.3083 1.80422 18.3083 2.1034V6.61578C18.3083 6.91497 18.1895 7.20191 17.9779 7.41347C17.7664 7.62502 17.4794 7.74388 17.1803 7.74388Z" fill="#696E7E"/>
</svg>
