<svg width="227" height="95" viewBox="0 0 227 95" fill="none" xmlns="http://www.w3.org/2000/svg">
<rect x="5.65588" width="3.77139" height="15.0856" fill="white"/>
<rect x="15.0856" y="5.65686" width="3.77139" height="15.0856" transform="rotate(90 15.0856 5.65686)" fill="white"/>
<rect x="39.5973" width="3.77139" height="15.0856" fill="white"/>
<rect x="49.0267" y="5.65686" width="3.77139" height="15.0856" transform="rotate(90 49.0267 5.65686)" fill="white"/>
<rect x="73.5387" width="3.77139" height="15.0856" fill="white"/>
<rect x="82.9684" y="5.65674" width="3.77139" height="15.0856" transform="rotate(90 82.9684 5.65674)" fill="white"/>
<rect x="107.484" width="3.77139" height="15.0856" fill="white"/>
<rect x="116.914" y="5.65686" width="3.77139" height="15.0856" transform="rotate(90 116.914 5.65686)" fill="white"/>
<rect x="141.425" width="3.77139" height="15.0856" fill="white"/>
<rect x="150.855" y="5.65686" width="3.77139" height="15.0856" transform="rotate(90 150.855 5.65686)" fill="white"/>
<rect x="175.367" width="3.77139" height="15.0856" fill="white"/>
<rect x="184.796" y="5.65686" width="3.77139" height="15.0856" transform="rotate(90 184.796 5.65686)" fill="white"/>
<rect x="209.312" width="3.77139" height="15.0856" fill="white"/>
<rect x="218.742" y="5.65686" width="3.77139" height="15.0856" transform="rotate(90 218.742 5.65686)" fill="white"/>
<rect x="5.65588" y="39.5994" width="3.77139" height="15.0856" fill="white"/>
<rect x="15.0856" y="45.2562" width="3.77139" height="15.0856" transform="rotate(90 15.0856 45.2562)" fill="white"/>
<rect x="39.5973" y="39.5992" width="3.77139" height="15.0856" fill="white"/>
<rect x="49.0267" y="45.2561" width="3.77139" height="15.0856" transform="rotate(90 49.0267 45.2561)" fill="white"/>
<rect x="73.5387" y="39.5992" width="3.77139" height="15.0856" fill="white"/>
<rect x="82.9683" y="45.2561" width="3.77139" height="15.0856" transform="rotate(90 82.9683 45.2561)" fill="white"/>
<rect x="107.484" y="39.5992" width="3.77139" height="15.0856" fill="white"/>
<rect x="116.914" y="45.2561" width="3.77139" height="15.0856" transform="rotate(90 116.914 45.2561)" fill="white"/>
<rect x="141.425" y="39.5992" width="3.77139" height="15.0856" fill="white"/>
<rect x="150.855" y="45.2561" width="3.77139" height="15.0856" transform="rotate(90 150.855 45.2561)" fill="white"/>
<rect x="175.367" y="39.5992" width="3.77139" height="15.0856" fill="white"/>
<rect x="184.796" y="45.2561" width="3.77139" height="15.0856" transform="rotate(90 184.796 45.2561)" fill="white"/>
<rect x="209.312" y="39.5992" width="3.77139" height="15.0856" fill="white"/>
<rect x="218.742" y="45.2561" width="3.77139" height="15.0856" transform="rotate(90 218.742 45.2561)" fill="white"/>
<rect x="5.65625" y="79.1989" width="3.77139" height="15.0856" fill="white"/>
<rect x="15.0859" y="84.8564" width="3.77139" height="15.0856" transform="rotate(90 15.0859 84.8564)" fill="white"/>
<rect x="39.5977" y="79.199" width="3.77139" height="15.0856" fill="white"/>
<rect x="49.0271" y="84.8565" width="3.77139" height="15.0856" transform="rotate(90 49.0271 84.8565)" fill="white"/>
<rect x="73.5391" y="79.199" width="3.77139" height="15.0856" fill="white"/>
<rect x="82.9686" y="84.8565" width="3.77139" height="15.0856" transform="rotate(90 82.9686 84.8565)" fill="white"/>
<rect x="107.484" y="79.199" width="3.77139" height="15.0856" fill="white"/>
<rect x="116.914" y="84.8559" width="3.77139" height="15.0856" transform="rotate(90 116.914 84.8559)" fill="white"/>
<rect x="141.426" y="79.199" width="3.77139" height="15.0856" fill="white"/>
<rect x="150.855" y="84.8559" width="3.77139" height="15.0856" transform="rotate(90 150.855 84.8559)" fill="white"/>
<rect x="175.367" y="79.199" width="3.77139" height="15.0856" fill="white"/>
<rect x="184.797" y="84.8559" width="3.77139" height="15.0856" transform="rotate(90 184.797 84.8559)" fill="white"/>
<rect x="209.312" y="79.199" width="3.77139" height="15.0856" fill="white"/>
<rect x="218.742" y="84.8559" width="3.77139" height="15.0856" transform="rotate(90 218.742 84.8559)" fill="white"/>
</svg>
