<svg width="63" height="222" viewBox="0 0 63 222" fill="none" xmlns="http://www.w3.org/2000/svg">
<g opacity="0.4">
<rect x="4.28128" width="2.85526" height="11.4211" fill="white"/>
<rect x="11.4219" y="4.2829" width="2.85526" height="11.4211" transform="rotate(90 11.4219 4.2829)" fill="white"/>
</g>
<g opacity="0.4">
<rect x="29.9766" width="2.85526" height="11.4211" fill="white"/>
<rect x="37.1172" y="4.2829" width="2.85526" height="11.4211" transform="rotate(90 37.1172 4.2829)" fill="white"/>
</g>
<g opacity="0.4">
<rect x="55.6758" width="2.85526" height="11.4211" fill="white"/>
<rect x="62.8164" y="4.2829" width="2.85526" height="11.4211" transform="rotate(90 62.8164 4.2829)" fill="white"/>
</g>
<g opacity="0.4">
<rect x="4.28128" y="29.9798" width="2.85526" height="11.4211" fill="white"/>
<rect x="11.4219" y="34.2627" width="2.85526" height="11.4211" transform="rotate(90 11.4219 34.2627)" fill="white"/>
</g>
<g opacity="0.4">
<rect x="29.9766" y="29.9798" width="2.85526" height="11.4211" fill="white"/>
<rect x="37.1172" y="34.2626" width="2.85526" height="11.4211" transform="rotate(90 37.1172 34.2626)" fill="white"/>
</g>
<g opacity="0.4">
<rect x="55.6758" y="29.9798" width="2.85526" height="11.4211" fill="white"/>
<rect x="62.8164" y="34.2627" width="2.85526" height="11.4211" transform="rotate(90 62.8164 34.2627)" fill="white"/>
</g>
<g opacity="0.4">
<rect x="4.28128" y="59.9605" width="2.85526" height="11.4211" fill="white"/>
<rect x="11.4219" y="64.2434" width="2.85526" height="11.4211" transform="rotate(90 11.4219 64.2434)" fill="white"/>
</g>
<g opacity="0.4">
<rect x="29.9766" y="59.9605" width="2.85526" height="11.4211" fill="white"/>
<rect x="37.1172" y="64.2434" width="2.85526" height="11.4211" transform="rotate(90 37.1172 64.2434)" fill="white"/>
</g>
<g opacity="0.4">
<rect x="55.6758" y="59.9605" width="2.85526" height="11.4211" fill="white"/>
<rect x="62.8164" y="64.2434" width="2.85526" height="11.4211" transform="rotate(90 62.8164 64.2434)" fill="white"/>
</g>
<g opacity="0.4">
<rect x="4.28128" y="89.9408" width="2.85526" height="11.4211" fill="white"/>
<rect x="11.4219" y="94.2237" width="2.85526" height="11.4211" transform="rotate(90 11.4219 94.2237)" fill="white"/>
</g>
<g opacity="0.4">
<rect x="29.9766" y="89.9403" width="2.85526" height="11.4211" fill="white"/>
<rect x="37.1172" y="94.2232" width="2.85526" height="11.4211" transform="rotate(90 37.1172 94.2232)" fill="white"/>
</g>
<g opacity="0.4">
<rect x="55.6758" y="89.9403" width="2.85526" height="11.4211" fill="white"/>
<rect x="62.8164" y="94.2232" width="2.85526" height="11.4211" transform="rotate(90 62.8164 94.2232)" fill="white"/>
</g>
<g opacity="0.4">
<rect x="4.28128" y="119.921" width="2.85526" height="11.4211" fill="white"/>
<rect x="11.4219" y="124.204" width="2.85526" height="11.4211" transform="rotate(90 11.4219 124.204)" fill="white"/>
</g>
<g opacity="0.4">
<rect x="29.9766" y="119.921" width="2.85526" height="11.4211" fill="white"/>
<rect x="37.1172" y="124.204" width="2.85526" height="11.4211" transform="rotate(90 37.1172 124.204)" fill="white"/>
</g>
<g opacity="0.4">
<rect x="55.6758" y="119.921" width="2.85526" height="11.4211" fill="white"/>
<rect x="62.8164" y="124.204" width="2.85526" height="11.4211" transform="rotate(90 62.8164 124.204)" fill="white"/>
</g>
<g opacity="0.4">
<rect x="4.28128" y="149.901" width="2.85526" height="11.4211" fill="white"/>
<rect x="11.4219" y="154.184" width="2.85526" height="11.4211" transform="rotate(90 11.4219 154.184)" fill="white"/>
</g>
<g opacity="0.4">
<rect x="29.9766" y="149.901" width="2.85526" height="11.4211" fill="white"/>
<rect x="37.1172" y="154.184" width="2.85526" height="11.4211" transform="rotate(90 37.1172 154.184)" fill="white"/>
</g>
<g opacity="0.4">
<rect x="55.6758" y="149.901" width="2.85526" height="11.4211" fill="white"/>
<rect x="62.8164" y="154.184" width="2.85526" height="11.4211" transform="rotate(90 62.8164 154.184)" fill="white"/>
</g>
<g opacity="0.4">
<rect x="4.28128" y="179.882" width="2.85526" height="11.4211" fill="white"/>
<rect x="11.4219" y="184.164" width="2.85526" height="11.4211" transform="rotate(90 11.4219 184.164)" fill="white"/>
</g>
<g opacity="0.4">
<rect x="29.9766" y="179.882" width="2.85526" height="11.4211" fill="white"/>
<rect x="37.1172" y="184.164" width="2.85526" height="11.4211" transform="rotate(90 37.1172 184.164)" fill="white"/>
</g>
<g opacity="0.4">
<rect x="55.6758" y="179.882" width="2.85526" height="11.4211" fill="white"/>
<rect x="62.8164" y="184.164" width="2.85526" height="11.4211" transform="rotate(90 62.8164 184.164)" fill="white"/>
</g>
<g opacity="0.4">
<rect x="4.28128" y="209.862" width="2.85526" height="11.4211" fill="white"/>
<rect x="11.4219" y="214.145" width="2.85526" height="11.4211" transform="rotate(90 11.4219 214.145)" fill="white"/>
</g>
<g opacity="0.4">
<rect x="29.9766" y="209.862" width="2.85526" height="11.4211" fill="white"/>
<rect x="37.1172" y="214.145" width="2.85526" height="11.4211" transform="rotate(90 37.1172 214.145)" fill="white"/>
</g>
<g opacity="0.4">
<rect x="55.6758" y="209.862" width="2.85526" height="11.4211" fill="white"/>
<rect x="62.8164" y="214.145" width="2.85526" height="11.4211" transform="rotate(90 62.8164 214.145)" fill="white"/>
</g>
</svg>
