<svg width="23" height="24" viewBox="0 0 23 24" fill="none" xmlns="http://www.w3.org/2000/svg">
<path d="M6.87165 10.9473C6.64854 10.9473 6.43043 11.0134 6.24492 11.1374C6.0594 11.2614 5.91481 11.4375 5.82943 11.6437C5.74405 11.8498 5.72171 12.0766 5.76523 12.2955C5.80876 12.5143 5.9162 12.7153 6.07397 12.8731C6.23174 13.0308 6.43274 13.1383 6.65157 13.1818C6.8704 13.2253 7.09722 13.203 7.30336 13.1176C7.50949 13.0322 7.68567 12.8876 7.80963 12.7021C7.93359 12.5166 7.99975 12.2985 7.99975 12.0754C7.99975 11.7762 7.88089 11.4893 7.66934 11.2777C7.45778 11.0661 7.17084 10.9473 6.87165 10.9473ZM11.384 10.9473C11.1609 10.9473 10.9428 11.0134 10.7573 11.1374C10.5718 11.2614 10.4272 11.4375 10.3418 11.6437C10.2564 11.8498 10.2341 12.0766 10.2776 12.2955C10.3211 12.5143 10.4286 12.7153 10.5863 12.8731C10.7441 13.0308 10.9451 13.1383 11.164 13.1818C11.3828 13.2253 11.6096 13.203 11.8157 13.1176C12.0219 13.0322 12.1981 12.8876 12.322 12.7021C12.446 12.5166 12.5121 12.2985 12.5121 12.0754C12.5121 11.7762 12.3933 11.4893 12.1817 11.2777C11.9702 11.0661 11.6832 10.9473 11.384 10.9473ZM15.8964 10.9473C15.6733 10.9473 15.4552 11.0134 15.2697 11.1374C15.0842 11.2614 14.9396 11.4375 14.8542 11.6437C14.7688 11.8498 14.7465 12.0766 14.79 12.2955C14.8335 12.5143 14.941 12.7153 15.0987 12.8731C15.2565 13.0308 15.4575 13.1383 15.6763 13.1818C15.8952 13.2253 16.122 13.203 16.3281 13.1176C16.5342 13.0322 16.7104 12.8876 16.8344 12.7021C16.9583 12.5166 17.0245 12.2985 17.0245 12.0754C17.0245 11.7762 16.9057 11.4893 16.6941 11.2777C16.4825 11.0661 16.1956 10.9473 15.8964 10.9473ZM11.384 0.794434C9.9026 0.794434 8.43567 1.08622 7.067 1.65314C5.69833 2.22007 4.45473 3.05101 3.4072 4.09855C1.29161 6.21413 0.103086 9.08349 0.103086 12.0754C0.093224 14.6803 0.995174 17.2066 2.65258 19.2162L0.396391 21.4724C0.239859 21.631 0.133822 21.8325 0.0916606 22.0513C0.049499 22.2702 0.0731018 22.4966 0.159491 22.702C0.253188 22.905 0.405081 23.0756 0.59589 23.1921C0.786699 23.3086 1.00782 23.3657 1.23118 23.3563H11.384C14.3759 23.3563 17.2453 22.1678 19.3609 20.0522C21.4765 17.9366 22.665 15.0673 22.665 12.0754C22.665 9.08349 21.4765 6.21413 19.3609 4.09855C17.2453 1.98296 14.3759 0.794434 11.384 0.794434ZM11.384 21.1001H3.94989L4.99902 20.051C5.10561 19.9465 5.19041 19.8219 5.2485 19.6845C5.30659 19.547 5.33682 19.3993 5.33744 19.2501C5.33321 18.9525 5.21156 18.6687 4.99902 18.4604C3.52187 16.9849 2.60201 15.0429 2.39615 12.9652C2.19029 10.8876 2.71118 8.80278 3.87005 7.0661C5.02892 5.32942 6.75409 4.04826 8.75164 3.44091C10.7492 2.83356 12.8955 2.93759 14.825 3.73528C16.7544 4.53296 18.3476 5.97495 19.3331 7.81557C20.3186 9.65619 20.6354 11.7816 20.2296 13.8296C19.8237 15.8776 18.7204 17.7215 17.1075 19.0473C15.4945 20.373 13.4719 21.0985 11.384 21.1001Z" fill="#696E7E"/>
</svg>
