<svg width="58" height="58" viewBox="0 0 58 58" fill="none" xmlns="http://www.w3.org/2000/svg">
<path d="M28.4446 0.00475403C27.678 0.0155802 26.9115 0.0552761 26.1485 0.122037C26.1287 0.122037 26.1089 0.125646 26.0873 0.127451C24.0252 0.3133 21.8856 0.775216 19.9224 1.44102C16.1922 2.66438 12.865 4.57339 9.92649 7.16806C6.84043 9.89265 4.42917 13.1116 2.68911 16.8683C1.30713 19.8527 0.468591 22.9688 0.139292 26.2113C-0.0946365 28.5082 -0.0298564 30.8286 0.303041 33.1274C0.679126 35.7221 1.4061 38.2193 2.45878 40.6155C3.65361 43.3365 5.22453 45.8102 7.18953 48.0548C9.50002 50.6946 12.1812 52.8382 15.2439 54.5145C18.526 56.3116 22.0404 57.3996 25.7508 57.8092C28.8009 58.1448 31.8582 58.051 34.8614 57.4213C38.0177 56.7591 41.0299 55.6386 43.7849 53.9389C49.0357 50.7 53.034 46.3425 55.5137 40.6227C56.6203 38.0695 57.3419 35.437 57.7342 32.6853C58.0617 30.3956 58.0833 28.1004 57.817 25.8306C57.3293 21.6697 56.0769 17.7434 53.869 14.1401C52.8577 12.4891 51.733 10.95 50.4464 9.50651C47.7671 6.50225 44.5694 4.21252 40.9346 2.5471C38.7015 1.52402 36.3658 0.807694 33.9203 0.408931C32.1119 0.11482 30.2764 -0.0223114 28.4428 0.00294967L28.4446 0.00475403Z" fill="#535AE8"/>
<path d="M16.4628 20.5414C17.2815 20.129 18.191 19.6273 19.0617 19.1653C21.372 17.9349 23.6759 16.6863 25.9748 15.4278L27.6983 14.4822L28.5592 14.007L28.7748 13.8877C28.8429 13.8513 28.8996 13.8198 28.9612 13.7967C29.0828 13.747 29.1947 13.7288 29.305 13.737C29.4152 13.747 29.5352 13.7884 29.6584 13.8546L30.0799 14.0914L30.9408 14.5716L32.661 15.5222C33.2317 15.8401 33.8008 16.163 34.3617 16.4942L34.7817 16.7459C34.9486 16.8453 35.1383 16.9314 35.3637 16.9546C35.5858 16.9794 35.8501 16.9214 36.0398 16.7658C36.2311 16.6118 36.3462 16.4064 36.411 16.211C36.4435 16.1117 36.4662 16.014 36.4808 15.9163C36.5002 15.807 36.497 15.6894 36.4937 15.6083L36.4905 15.494V15.3665L36.4872 15.1148C36.4824 14.7803 36.4759 14.4541 36.4937 14.1378C36.5018 13.9805 36.5197 13.8364 36.5553 13.7619C36.5732 13.7238 36.5878 13.7056 36.6105 13.6907C36.6332 13.6758 36.6656 13.6592 36.7158 13.6493C36.7434 13.6443 36.7612 13.6426 36.8034 13.6393L36.925 13.6311L37.1666 13.6145L37.6497 13.588C38.2934 13.5598 38.9354 13.5599 39.5661 13.6178L39.7639 13.6377L39.7898 13.641C39.7898 13.641 39.793 13.6426 39.7947 13.6443L39.8206 13.6956C39.8368 13.7271 39.8482 13.7602 39.8628 13.7917C39.8887 13.8563 39.9114 13.9242 39.9292 13.9921C40.0038 14.2669 40.0087 14.57 40.0038 14.9012C39.9941 15.5801 40.02 16.2458 40.0233 16.9065C40.0249 17.2377 40.0233 17.5656 40.0103 17.8918C40.0038 18.0558 39.9941 18.2181 39.9827 18.3787C39.9698 18.5642 39.9714 18.7596 40.0103 18.9599C40.0411 19.1189 40.0978 19.2845 40.1838 19.4319C40.2697 19.5809 40.3816 19.7117 40.5015 19.8194C40.6231 19.927 40.7512 20.0131 40.8793 20.0876C40.9425 20.1257 41.0074 20.1588 41.0706 20.192L41.2473 20.2814C41.7143 20.5198 42.1601 20.7616 42.5525 20.9669C43.3339 21.3809 43.903 21.6343 43.9289 21.5267C43.9549 21.4256 43.5171 21.0746 42.8038 20.5861C42.4471 20.3426 42.0191 20.0678 41.5343 19.7912C41.4743 19.7564 41.4127 19.7217 41.3495 19.6869C41.2911 19.6521 41.2344 19.6223 41.1792 19.5859C41.069 19.5163 40.9652 19.4418 40.8793 19.359C40.7042 19.1918 40.6085 18.9964 40.581 18.7446C40.5713 18.6569 40.5713 18.5642 40.5777 18.4698L40.5988 18.1419C40.6118 17.9183 40.6199 17.6948 40.6231 17.4729C40.6296 17.0291 40.6199 16.5886 40.6085 16.1531C40.5972 15.7921 40.5858 15.4294 40.5842 15.0751C40.5842 14.7207 40.5988 14.3249 40.5032 13.9225C40.4805 13.8215 40.448 13.7221 40.4124 13.6261C40.3945 13.5781 40.3718 13.53 40.3524 13.482L40.3183 13.4125L40.3005 13.3777C40.2924 13.3611 40.2843 13.3429 40.2713 13.3247L40.1416 13.1045L39.913 13.0763L39.806 13.0631L39.7379 13.0564L39.6001 13.0432C39.2337 13.0117 38.8657 12.9985 38.4976 13.0001C38.1296 13.0001 37.7616 13.0134 37.3935 13.0333C37.2103 13.0448 37.0255 13.0564 36.8407 13.0697C36.758 13.0763 36.6348 13.0813 36.5116 13.121C36.3883 13.1575 36.2554 13.2369 36.163 13.3512C36.069 13.4655 36.0203 13.5946 35.9928 13.7089C35.9652 13.8248 35.9555 13.9324 35.9474 14.0335C35.9344 14.2322 35.9295 14.4259 35.9295 14.6213C35.9344 14.9989 35.9376 15.3781 35.9425 15.759C35.9425 15.7772 35.9409 15.7937 35.9376 15.807L35.9263 15.8666C35.9198 15.908 35.9101 15.9461 35.9003 15.9825C35.8809 16.0587 35.8501 16.1249 35.816 16.1862C35.7804 16.2442 35.7382 16.2905 35.6928 16.327C35.6458 16.3584 35.5955 16.3799 35.5372 16.3915C35.4204 16.4081 35.2761 16.3766 35.1351 16.2988C35.0702 16.2657 34.9794 16.2094 34.8968 16.1597L34.6438 16.009C33.9678 15.6083 33.2739 15.2175 32.5637 14.8267C31.8552 14.4375 31.1354 14.0417 30.3993 13.6377L30.1237 13.4853L29.9859 13.4092C29.9356 13.3827 29.8837 13.3529 29.8286 13.328C29.6146 13.2253 29.3374 13.1575 29.0715 13.2038C28.9402 13.2253 28.8169 13.2667 28.7051 13.3164C28.6483 13.3413 28.5948 13.3694 28.5429 13.3992L28.4003 13.4787C28.2122 13.5847 28.0225 13.6923 27.8312 13.8C24.9064 15.4145 20.8905 17.6318 16.8713 19.8508C16.7141 19.9386 16.5519 20.028 16.3898 20.1191C16.2325 20.2069 16.072 20.2913 15.9099 20.3758C15.5873 20.543 15.263 20.7103 14.9858 20.8891C14.848 20.9752 14.7118 21.0812 14.6307 21.1325C14.5383 21.1905 14.4459 21.2286 14.3616 21.2567C14.1897 21.3114 14.0503 21.3362 14.0081 21.3776C13.9741 21.4107 14.0487 21.4455 14.1994 21.4621C14.3486 21.4786 14.5869 21.4687 14.8334 21.3379C15.2971 21.0613 15.9358 20.8013 16.4611 20.5463L16.4628 20.5414Z" fill="white" stroke="white"/>
<path fill-rule="evenodd" clip-rule="evenodd" d="M43.0437 28.8012V28.8012C43.053 27.9201 43.0623 27.039 43.072 26.1579C43.072 26.1262 43.0738 26.0941 43.0756 26.0621C43.0794 25.9924 43.0832 25.9229 43.0688 25.8573C43.0392 25.7142 43.0179 25.5836 42.9986 25.4651C42.8914 24.8072 42.8448 24.5208 41.7631 24.5237C33.2055 24.5459 24.6495 24.5459 16.0919 24.5186C15.3088 24.5169 14.9237 24.9967 14.9383 25.7378C14.9803 27.7596 14.9787 29.7831 14.9383 31.8049C14.9237 32.5135 15.3638 32.9626 16.0336 32.9609C22.522 32.9443 29.0104 32.9449 35.4988 32.9455C37.6619 32.9458 39.8249 32.946 41.988 32.9455C42.831 32.9455 43.0122 32.6877 43.0122 31.5043L43.0154 31.4446C43.0251 30.5635 43.0344 29.6824 43.0437 28.8012ZM35.8094 29.6775C36.457 29.6775 36.9819 29.1525 36.9819 28.5049C36.9819 27.8573 36.457 27.3324 35.8094 27.3324C35.1618 27.3324 34.6368 27.8573 34.6368 28.5049C34.6368 29.1525 35.1618 29.6775 35.8094 29.6775ZM40.7341 28.5049C40.7341 29.1525 40.2091 29.6775 39.5616 29.6775C38.914 29.6775 38.389 29.1525 38.389 28.5049C38.389 27.8573 38.914 27.3324 39.5616 27.3324C40.2091 27.3324 40.7341 27.8573 40.7341 28.5049Z" fill="#FCB415"/>
<path fill-rule="evenodd" clip-rule="evenodd" d="M43.0437 39.1194V39.1193C43.053 38.2382 43.0623 37.3571 43.072 36.476C43.072 36.4443 43.0738 36.4122 43.0756 36.3802C43.0794 36.3105 43.0832 36.241 43.0688 36.1754C43.0392 36.0323 43.0179 35.9017 42.9986 35.7832C42.8914 35.1253 42.8448 34.8389 41.7631 34.8418C33.2055 34.864 24.6495 34.864 16.0919 34.8367C15.3088 34.835 14.9237 35.3148 14.9383 36.0559C14.9803 38.0777 14.9787 40.1012 14.9383 42.123C14.9237 42.8316 15.3638 43.2807 16.0336 43.279C22.522 43.2624 29.0104 43.263 35.4988 43.2637C37.6619 43.2639 39.8249 43.2641 41.988 43.2637C42.831 43.2637 43.0122 43.0058 43.0122 41.8224L43.0154 41.7627C43.0251 40.8816 43.0344 40.0005 43.0437 39.1194ZM35.8094 39.9959C36.457 39.9959 36.9819 39.4709 36.9819 38.8234C36.9819 38.1758 36.457 37.6508 35.8094 37.6508C35.1618 37.6508 34.6368 38.1758 34.6368 38.8234C34.6368 39.4709 35.1618 39.9959 35.8094 39.9959ZM40.7341 38.8234C40.7341 39.4709 40.2091 39.9959 39.5616 39.9959C38.914 39.9959 38.389 39.4709 38.389 38.8234C38.389 38.1758 38.914 37.6508 39.5616 37.6508C40.2091 37.6508 40.7341 38.1758 40.7341 38.8234Z" fill="#F05157"/>
</svg>
