<svg width="42" height="42" viewBox="0 0 42 42" fill="none" xmlns="http://www.w3.org/2000/svg">
<path d="M20.5978 0.00344257C20.0427 0.0112822 19.4876 0.0400275 18.9351 0.0883719C18.9208 0.0883719 18.9065 0.0909851 18.8908 0.0922918C17.3975 0.226872 15.8482 0.561363 14.4266 1.0435C11.7254 1.92938 9.31602 3.31177 7.18815 5.19067C4.95342 7.16364 3.20733 9.49462 1.94729 12.215C0.946545 14.3761 0.339324 16.6326 0.100866 18.9806C-0.0685299 20.6439 -0.0216201 22.3242 0.219444 23.9888C0.491781 25.8677 1.01821 27.676 1.7805 29.4112C2.64572 31.3816 3.78328 33.1729 5.20621 34.7983C6.87932 36.7099 8.82086 38.2622 11.0387 39.476C13.4154 40.7774 15.9603 41.5652 18.6472 41.8618C20.8558 42.1049 23.0697 42.0369 25.2445 41.5809C27.53 41.1014 29.7113 40.29 31.7063 39.0592C35.5086 36.7138 38.404 33.5584 40.1996 29.4164C41.0009 27.5676 41.5235 25.6613 41.8075 23.6687C42.0447 22.0106 42.0603 20.3486 41.8675 18.7049C41.5143 15.6919 40.6074 12.8487 39.0086 10.2394C38.2763 9.04385 37.4619 7.92931 36.5302 6.88403C34.5899 4.70853 32.2744 3.05045 29.6423 1.84445C28.0252 1.1036 26.3338 0.584882 24.563 0.296122C23.2534 0.0831455 21.9243 -0.0161565 20.5965 0.00213597L20.5978 0.00344257Z" fill="#535AE8"/>
<path d="M11.9213 14.8748C12.5142 14.5762 13.1728 14.2129 13.8033 13.8783C15.4763 12.9874 17.1446 12.0832 18.8094 11.1719L20.0574 10.4871L20.6808 10.143L20.8369 10.0567C20.8862 10.0303 20.9273 10.0075 20.9719 9.9907C21.06 9.95473 21.141 9.94154 21.2208 9.94754C21.3007 9.95473 21.3875 9.98471 21.4768 10.0327L21.782 10.2042L22.4054 10.5519L23.6511 11.2402C24.0643 11.4704 24.4764 11.7043 24.8826 11.9441L25.1867 12.1264C25.3076 12.1983 25.445 12.2607 25.6082 12.2775C25.769 12.2955 25.9604 12.2535 26.0978 12.1408C26.2363 12.0292 26.3197 11.8806 26.3666 11.7391C26.3901 11.6671 26.4065 11.5964 26.4171 11.5256C26.4312 11.4465 26.4288 11.3613 26.4265 11.3026L26.4242 11.2198V11.1275L26.4218 10.9452C26.4183 10.703 26.4136 10.4668 26.4265 10.2377C26.4324 10.1238 26.4453 10.0195 26.4711 9.96552C26.484 9.93794 26.4946 9.92475 26.511 9.91396C26.5275 9.90317 26.5509 9.89118 26.5873 9.88398C26.6073 9.88038 26.6202 9.87918 26.6507 9.87679L26.7388 9.87079L26.9137 9.8588L27.2636 9.83961C27.7297 9.81923 28.1946 9.81923 28.6513 9.8612L28.7945 9.87559L28.8133 9.87798C28.8133 9.87798 28.8157 9.87918 28.8168 9.88038L28.8356 9.91756C28.8474 9.94034 28.8556 9.96432 28.8661 9.98711C28.8849 10.0339 28.9014 10.083 28.9143 10.1322C28.9683 10.3313 28.9718 10.5507 28.9683 10.7905C28.9612 11.2822 28.98 11.7642 28.9824 12.2427C28.9835 12.4825 28.9824 12.7199 28.973 12.9562C28.9683 13.0749 28.9612 13.1924 28.953 13.3087C28.9436 13.443 28.9448 13.5845 28.973 13.7296C28.9953 13.8447 29.0364 13.9647 29.0986 14.0714C29.1608 14.1793 29.2418 14.274 29.3287 14.352C29.4168 14.4299 29.5095 14.4923 29.6023 14.5462C29.648 14.5738 29.695 14.5978 29.7408 14.6218L29.8688 14.6865C30.2069 14.8592 30.5297 15.0343 30.8139 15.183C31.3797 15.4828 31.7918 15.6662 31.8106 15.5883C31.8294 15.5151 31.5124 15.2609 30.9958 14.9072C30.7376 14.7309 30.4276 14.5319 30.0766 14.3316C30.0331 14.3064 29.9885 14.2812 29.9427 14.256C29.9005 14.2309 29.8594 14.2093 29.8195 14.1829C29.7396 14.1325 29.6645 14.0786 29.6023 14.0186C29.4755 13.8975 29.4062 13.756 29.3862 13.5737C29.3792 13.5102 29.3792 13.443 29.3839 13.3747L29.3992 13.1372C29.4085 12.9754 29.4144 12.8135 29.4168 12.6528C29.4215 12.3314 29.4144 12.0125 29.4062 11.6971C29.398 11.4357 29.3898 11.1731 29.3886 10.9164C29.3886 10.6598 29.3992 10.3732 29.3299 10.0818C29.3134 10.0087 29.29 9.93674 29.2641 9.86719C29.2512 9.83242 29.2348 9.79764 29.2207 9.76287L29.196 9.7125L29.1831 9.68732C29.1773 9.67533 29.1714 9.66214 29.162 9.64895L29.0681 9.48946L28.9025 9.46908L28.8251 9.45948L28.7757 9.45469L28.6759 9.44509C28.4106 9.42231 28.1441 9.41272 27.8776 9.41392C27.6111 9.41392 27.3446 9.42351 27.0781 9.4379C26.9454 9.44629 26.8116 9.45469 26.6777 9.46428C26.6179 9.46908 26.5286 9.47268 26.4394 9.50145C26.3502 9.52784 26.2539 9.58539 26.187 9.66814C26.1189 9.75088 26.0837 9.84441 26.0637 9.92715C26.0438 10.0111 26.0367 10.089 26.0309 10.1622C26.0215 10.3061 26.0179 10.4464 26.0179 10.5879C26.0215 10.8613 26.0238 11.1359 26.0273 11.4117C26.0273 11.4249 26.0262 11.4369 26.0238 11.4465L26.0156 11.4896C26.0109 11.5196 26.0038 11.5472 25.9968 11.5736C25.9827 11.6287 25.9604 11.6767 25.9358 11.7211C25.9099 11.763 25.8794 11.7966 25.8465 11.823C25.8125 11.8458 25.7761 11.8614 25.7338 11.8698C25.6493 11.8817 25.5448 11.859 25.4427 11.8026C25.3957 11.7786 25.33 11.7379 25.2701 11.7019L25.0869 11.5928C24.5974 11.3026 24.0949 11.0196 23.5806 10.7366C23.0676 10.4548 22.5463 10.1682 22.0133 9.87559L21.8137 9.76527L21.7139 9.71011C21.6775 9.69092 21.64 9.66933 21.6 9.65135C21.4451 9.577 21.2443 9.52784 21.0518 9.56141C20.9567 9.577 20.8675 9.60698 20.7864 9.64295C20.7454 9.66094 20.7066 9.68133 20.669 9.70291L20.5657 9.76047C20.4295 9.83721 20.2922 9.91516 20.1536 9.9931C18.0357 11.1623 15.1276 12.7679 12.2172 14.3748C12.1033 14.4383 11.9859 14.5031 11.8685 14.569C11.7546 14.6326 11.6384 14.6937 11.521 14.7549C11.2873 14.876 11.0525 14.9971 10.8518 15.1266C10.752 15.189 10.6534 15.2657 10.5947 15.3029C10.5277 15.3449 10.4608 15.3724 10.3998 15.3928C10.2753 15.4324 10.1744 15.4504 10.1438 15.4804C10.1192 15.5044 10.1732 15.5295 10.2824 15.5415C10.3904 15.5535 10.563 15.5463 10.7414 15.4516C11.0772 15.2513 11.5398 15.0631 11.9201 14.8784L11.9213 14.8748Z" fill="white" stroke="white"/>
<path fill-rule="evenodd" clip-rule="evenodd" d="M31.1492 22.7701C31.1562 22.1321 31.1629 21.494 31.1697 20.856C31.1764 20.2179 31.1831 19.5799 31.1902 18.9418C31.1902 18.9189 31.1914 18.8957 31.1927 18.8725V18.8725C31.1955 18.822 31.1983 18.7717 31.1878 18.7242C31.1664 18.6206 31.151 18.5261 31.137 18.4402L31.137 18.4402C31.0594 17.9638 31.0256 17.7564 30.2423 17.7585C24.0454 17.7745 17.8497 17.7745 11.6528 17.7548C11.0857 17.7535 10.8069 18.101 10.8174 18.6376C10.8479 20.1017 10.8467 21.567 10.8174 23.0311C10.8069 23.5442 11.1256 23.8694 11.6106 23.8682C16.3091 23.8561 21.0076 23.8566 25.7061 23.8571C27.2725 23.8572 28.8388 23.8574 30.4052 23.8571C31.0156 23.8571 31.1468 23.6703 31.1468 22.8134L31.1492 22.7701ZM25.931 21.4903C26.3999 21.4903 26.7801 21.1102 26.7801 20.6413C26.7801 20.1723 26.3999 19.7922 25.931 19.7922C25.462 19.7922 25.0819 20.1723 25.0819 20.6413C25.0819 21.1102 25.462 21.4903 25.931 21.4903ZM29.4972 20.6413C29.4972 21.1102 29.117 21.4903 28.6481 21.4903C28.1791 21.4903 27.799 21.1102 27.799 20.6413C27.799 20.1723 28.1791 19.7922 28.6481 19.7922C29.117 19.7922 29.4972 20.1723 29.4972 20.6413Z" fill="#FCB415"/>
<path fill-rule="evenodd" clip-rule="evenodd" d="M31.1492 30.242C31.1562 29.6039 31.1629 28.9658 31.1697 28.3278C31.1764 27.6897 31.1831 27.0517 31.1902 26.4136C31.1902 26.3907 31.1914 26.3675 31.1927 26.3443V26.3443C31.1955 26.2938 31.1983 26.2435 31.1878 26.196C31.1664 26.0924 31.151 25.9979 31.137 25.912L31.137 25.912C31.0594 25.4356 31.0256 25.2282 30.2423 25.2303C24.0454 25.2464 17.8497 25.2464 11.6528 25.2266C11.0857 25.2253 10.8069 25.5728 10.8174 26.1095C10.8479 27.5735 10.8467 29.0388 10.8174 30.5029C10.8069 31.016 11.1256 31.3412 11.6106 31.34C16.3091 31.3279 21.0076 31.3284 25.7061 31.3289C27.2725 31.329 28.8388 31.3292 30.4052 31.3289C31.0156 31.3289 31.1468 31.1421 31.1468 30.2852L31.1492 30.242ZM25.931 28.9626C26.3999 28.9626 26.7801 28.5824 26.7801 28.1135C26.7801 27.6445 26.3999 27.2644 25.931 27.2644C25.462 27.2644 25.0819 27.6445 25.0819 28.1135C25.0819 28.5824 25.462 28.9626 25.931 28.9626ZM29.4972 28.1135C29.4972 28.5824 29.117 28.9626 28.6481 28.9626C28.1791 28.9626 27.799 28.5824 27.799 28.1135C27.799 27.6445 28.1791 27.2644 28.6481 27.2644C29.117 27.2644 29.4972 27.6445 29.4972 28.1135Z" fill="#F05157"/>
</svg>
