<svg width="54" height="52" viewBox="0 0 54 52" fill="none" xmlns="http://www.w3.org/2000/svg">
<g clip-path="url(#clip0_303_4268)">
<path d="M26.4982 19.7465C26.2831 17.4857 25.3751 15.5134 24.5389 13.4209C23.6309 11.136 22.699 8.87513 21.7433 6.63831C21.7194 6.5902 21.6955 6.5421 21.6716 6.494C21.7672 6.22943 21.7433 5.94081 21.5282 5.62813C21.3371 5.36356 21.1459 5.07494 20.9548 4.81037C20.7159 4.25718 20.4769 3.70399 20.238 3.17485C19.8557 2.30898 19.6167 1.53933 18.661 1.29881C18.661 1.29881 18.661 1.29881 18.6371 1.29881C18.2309 0.745617 17.5619 0.769669 17.1079 1.08234C16.9645 1.13045 16.7973 1.2026 16.6778 1.32286C15.8654 2.02036 15.4831 2.93433 15.1486 3.94451C14.838 4.88253 14.5513 5.8446 14.2645 6.80667C13.9778 6.90288 13.715 7.11934 13.5955 7.50417C11.5884 13.9501 9.58134 20.3959 7.57426 26.8418C6.40347 30.618 5.32825 34.4181 4.08577 38.1702C3.99019 38.3867 3.89462 38.6272 3.79904 38.8437C3.5601 38.9639 3.39285 39.1804 3.29727 39.4931C3.1778 39.9501 3.05833 40.407 2.93886 40.84C2.58046 41.6818 2.22205 42.4995 1.86364 43.3414C1.60081 43.9427 1.43355 44.568 1.38577 45.2174C1.2663 45.506 1.12294 45.7946 1.00347 46.0592C0.931785 46.2276 0.883997 46.3959 0.883997 46.5402C0.764528 46.6365 0.668953 46.7567 0.597272 46.9251C-1.8399 52.481 9.3663 51.7114 12.0424 51.6633C13.1415 51.6392 14.4796 51.7835 15.507 51.2785C16.4628 50.7974 17.1079 49.8594 17.5619 48.9214C18.0397 47.9593 18.3026 46.9491 18.5176 45.939C18.7327 45.8187 18.8999 45.6022 18.9716 45.2896C19.1628 44.5199 19.2583 43.7262 19.3778 42.9325C19.7601 42.3793 20.0468 41.778 20.2858 41.1286C20.4052 40.7919 20.2858 40.383 20.0468 40.1184C20.0707 40.0703 20.0946 39.9982 20.1185 39.9501C20.2141 39.7336 20.2141 39.5412 20.1902 39.3728C20.7875 37.3284 21.4088 35.284 22.0061 33.2396C23.1769 30.4015 24.2999 27.5393 25.3751 24.6772C25.4468 24.6291 25.4946 24.605 25.5663 24.5328C27.0477 23.1378 26.6893 21.5745 26.4982 19.7465Z" fill="#4D64C2"/>
<path d="M35.8646 46.0352C35.8407 46.0111 35.7929 46.0111 35.769 45.9871C35.6495 44.7604 35.2194 43.4857 34.861 42.4995C34.861 42.4274 34.861 42.3312 34.861 42.235C34.8371 41.8983 34.6938 41.5134 34.3831 41.321C34.5743 41.2248 34.7654 41.1286 34.9566 41.0324C35.6734 40.5754 35.6734 39.1804 34.6938 39.012C34.3115 38.9639 33.953 38.8918 33.5707 38.8677C33.8336 38.507 33.8097 38.0019 33.5707 37.617C34.8371 37.4006 34.861 35.4043 33.4513 35.4283C32.6389 35.4524 31.8265 35.4524 31.0141 35.4764C31.038 35.4764 31.0619 35.4764 31.0619 35.4764C32.2327 35.3562 32.4238 33.7687 31.6115 33.3599C31.4442 33.2396 31.2292 33.1434 30.9663 33.1193C28.6725 32.975 26.4026 33.1193 24.1327 33.2637C24.0371 33.2637 23.9415 33.2877 23.8699 33.3118C22.4362 33.3118 21.0026 33.3118 19.569 33.2637C19.1628 33.2396 18.9 33.432 18.7088 33.6725C17.753 33.6725 16.7973 33.6725 15.8415 33.6485C14.4557 33.6485 14.4318 35.765 15.746 35.8613C15.7938 36.1018 15.961 36.3423 16.2477 36.5107C16.3194 36.5588 16.415 36.5828 16.4867 36.6309C16.3433 37.2082 16.6061 37.9297 17.2274 38.074C17.323 38.0981 17.4185 38.1221 17.538 38.1462C17.5858 38.2183 17.6336 38.2905 17.7053 38.3626C18.7566 39.2766 19.9752 40.0944 20.7398 41.297C21.3849 42.3071 22.1017 43.0046 23.0097 43.7743C25.0407 45.4579 27.0477 47.358 29.3176 48.729C29.4371 48.8011 29.5805 48.8733 29.7 48.9454C30.3451 50.0278 31.5637 50.4607 32.7584 50.7253C33.1407 50.7974 33.4752 50.7012 33.7141 50.4847C34.8132 50.3404 35.53 49.3784 35.4584 48.2479C35.4823 48.1998 35.5061 48.1277 35.53 48.0796C35.5539 48.0796 35.5539 48.0796 35.5778 48.0796C36.5336 47.9353 36.6769 46.42 35.8646 46.0352Z" fill="#516FE9"/>
<path d="M53.761 49.21C52.3274 45.2895 51.3956 41.1286 50.2964 37.1119C50.2964 37.0879 50.2964 37.0879 50.2725 37.0638C50.2964 36.9917 50.2964 36.9195 50.2964 36.8473V36.6549C50.2964 36.5106 50.2726 36.3663 50.2009 36.222C50.1531 36.0777 50.0814 35.9574 49.9619 35.8612C49.8664 35.765 49.7469 35.6688 49.6035 35.6207C49.4841 35.5485 49.3407 35.5245 49.1734 35.5245C49.1495 35.5245 49.1495 35.5245 49.1257 35.5245C48.1699 31.7724 47.3575 27.9482 46.1389 24.2683C45.5416 22.4644 44.7531 20.7326 44.0124 18.9769C44.0124 18.9047 43.9885 18.8566 43.9885 18.7844C43.7495 17.3894 43.6062 16.1147 43.0088 15.0324C43.0088 14.9843 43.0088 14.9121 43.0088 14.864C42.9372 14.1424 42.7699 13.5171 42.2442 13.012C42.1964 12.9639 42.1248 12.8918 42.0531 12.8436C42.0053 12.4107 41.9575 11.9778 41.9336 11.5689C41.9097 10.679 41.5035 10.0296 40.9779 9.6207C40.6433 8.37001 40.2849 7.11932 39.8787 5.89268C39.2814 4.06474 38.7318 1.61145 36.9398 0.625331C35.315 -0.240534 33.4274 0.48102 31.6593 0.938004C29.7717 0.456968 27.8124 0.601279 25.9009 0.841797C25.7097 0.865849 25.4947 0.913953 25.3035 0.962056C24.6823 0.841797 24.061 0.673435 23.4637 0.48102C22.6752 0.240502 22.0301 0.360761 21.5044 0.673435C21.3372 0.360761 21.0265 0.0961914 20.5726 0.0961914C19.2345 0.0961914 19.1628 2.09249 20.3575 2.28491C20.0947 3.31913 20.3575 4.52172 21.361 5.19517C24.061 12.7234 26.761 20.2276 29.461 27.7558C29.8195 28.7419 30.2256 29.704 30.6318 30.6901C30.3212 31.0028 30.1301 31.5078 30.369 32.0129C32.3044 36.3663 33.9292 40.8399 35.2433 45.4098C35.2911 45.53 35.3389 45.6503 35.3867 45.7465C35.5779 46.2516 35.769 46.7326 36.0079 47.2377C35.9124 47.3099 35.8407 47.4061 35.7929 47.5023C35.5062 48.0555 35.3389 48.6568 35.315 49.2821C35.315 49.3062 35.315 49.3543 35.315 49.3783C34.9566 49.4986 34.6221 49.6189 34.2876 49.7872C33.0212 50.4126 34.1203 52.3127 35.3867 51.6873C36.1513 51.3025 37.0593 51.1101 37.9672 50.9898C38.1345 51.2063 38.4212 51.3506 38.7796 51.3506C41.0734 51.3506 43.3672 51.3506 45.661 51.3506C47.8115 51.3506 49.9619 51.4468 52.0885 51.1341C52.4947 51.062 52.7336 50.8455 52.8292 50.5569C53.4504 50.4847 53.9761 49.8353 53.761 49.21Z" fill="#16D594"/>
<path d="M21.0985 32.9989C20.2861 33.023 19.4498 33.023 18.5897 33.047C18.1596 33.047 17.7295 33.0711 17.2994 33.0711C16.8693 33.0711 16.4153 33.0951 15.9613 33.1913C15.7224 33.2394 15.5074 33.3116 15.2684 33.4078C15.0534 33.504 14.8383 33.6724 14.6711 33.8888C14.5038 34.1053 14.4082 34.3458 14.3844 34.6344C14.3605 34.899 14.4082 35.1636 14.5038 35.4041C14.695 35.8611 15.0056 36.2218 15.3401 36.5586C15.6746 36.8712 15.9852 37.1599 16.2959 37.4725C19.6888 40.6474 23.0817 43.8222 26.4746 46.997L27.741 48.1756C28.1711 48.5604 28.5773 48.9693 29.0313 49.3541C29.4852 49.739 29.9631 50.0997 30.5127 50.4124C31.0383 50.701 31.6596 50.9415 32.2808 51.0137C32.9021 51.0859 33.5711 51.0137 34.1923 50.7491C34.5029 50.6048 34.7897 50.4365 35.0286 50.1959C35.2675 49.9554 35.4826 49.6909 35.6021 49.3782C35.9127 48.7769 35.9605 48.1034 35.9605 47.4781C35.9366 46.8527 35.8171 46.2514 35.6498 45.6742C35.5065 45.097 35.2914 44.5197 35.1003 43.9906L34.5268 42.331L33.3799 39.0119L31.11 32.3976C29.5808 27.9961 28.0516 23.5706 26.5463 19.1691L21.9826 5.91657L21.4091 4.257C21.218 3.70381 21.0268 3.15062 20.764 2.57337C20.5012 2.02018 20.1667 1.46699 19.6888 1.01001C19.2109 0.553022 18.6136 0.216297 17.8967 0.12009C17.7295 0.0960378 17.5383 0.0960378 17.3711 0.12009C17.2038 0.144141 17.0127 0.168193 16.8454 0.216297C16.5109 0.336556 16.2003 0.504918 15.9374 0.721385C15.4118 1.15432 15.0773 1.73156 14.8144 2.28475C14.5516 2.83794 14.3605 3.41519 14.1932 3.96838L13.6436 5.62795C10.7764 14.5031 7.90913 23.4022 5.01798 32.2773C2.70028 39.4207 0.0241751 47.9591 0.382582 47.8629C0.717095 47.7908 3.29763 40.455 5.99763 32.133C6.95338 29.2228 7.88524 26.2884 8.8171 23.4022C10.3702 18.5678 11.8994 13.7334 13.4764 8.80279C13.8826 7.57615 14.2649 6.32545 14.6711 5.09881C14.8861 4.47347 15.0534 3.84812 15.2923 3.24682C15.5074 2.66958 15.7941 2.09234 16.1764 1.63535C16.3675 1.41889 16.5826 1.22647 16.8215 1.10621C17.0605 0.985954 17.3233 0.913799 17.5861 0.913799C18.1357 0.913799 18.6852 1.17837 19.1153 1.58725C19.5454 1.99613 19.856 2.54932 20.1189 3.12656C20.3817 3.72786 20.5728 4.35321 20.8118 5.00261C24.3481 15.2006 28.0994 25.9517 32.1852 37.7371C32.6631 39.1321 33.1888 40.6233 33.7144 42.1386C33.9773 42.9082 34.2401 43.6779 34.5268 44.4716C34.8136 45.2653 35.0525 46.059 35.172 46.8768C35.2914 47.6705 35.2675 48.5364 34.8613 49.1858C34.6702 49.5225 34.3835 49.7871 34.049 49.9554C33.7144 50.1238 33.3082 50.22 32.9021 50.244C32.4959 50.2681 32.0897 50.1959 31.6835 50.0757C31.3012 49.9554 30.895 49.739 30.5366 49.4984C29.7959 49.0174 29.1268 48.368 28.4339 47.7427C25.6383 45.1691 22.7711 42.4994 19.8321 39.7815C19.0914 39.1081 18.3507 38.4106 17.61 37.7371C17.2516 37.4004 16.8693 37.0637 16.487 36.7029L15.9374 36.1978C15.7702 36.0294 15.6029 35.8611 15.4596 35.6927C15.1728 35.3319 14.9817 34.9471 15.0534 34.6344C15.1012 34.2977 15.364 34.0572 15.7941 33.9369C16.2003 33.7926 16.6782 33.7686 17.1799 33.7445L18.7091 33.6964C23.7985 33.5521 29.9153 33.3356 30.5366 33.0711C30.9905 32.8305 25.1605 32.9508 21.0985 32.9989Z" fill="#516FE9"/>
<path d="M52.4707 43.7743C52.0406 42.3071 51.515 40.6475 51.0371 39.0842C48.5044 30.7142 45.9955 22.3441 43.3194 13.9741C42.6504 11.8816 41.9814 9.81314 41.2884 7.72063C40.9539 6.6864 40.5955 5.65217 40.2132 4.59389C40.0221 4.08881 39.8548 3.55967 39.6159 3.03053C39.3769 2.50139 39.0902 1.9963 38.684 1.53932C38.2778 1.08233 37.7521 0.697502 37.2026 0.481036C36.653 0.240518 36.0557 0.120259 35.5061 0.0721554C34.9327 0 34.3831 0 33.8336 0H32.2088L25.6858 0.0240518C22.1734 0.0721554 17.992 0.168363 18.0875 0.481036C18.1592 0.769658 21.7911 0.93802 25.8769 0.93802C27.3106 0.93802 28.7442 0.93802 30.1539 0.913969C31.3247 0.889917 32.5194 0.865865 33.7141 0.865865C34.3114 0.865865 34.8849 0.865865 35.4583 0.913969C36.0318 0.962072 36.5814 1.10638 37.0592 1.32285C37.561 1.56337 37.9672 1.90009 38.3017 2.35708C38.6362 2.81406 38.8752 3.3432 39.0902 3.89639C39.3052 4.44958 39.4964 5.05088 39.7114 5.62812C39.9265 6.20537 40.1176 6.80666 40.3088 7.40796C41.9097 12.2183 43.5106 17.3173 45.2787 22.8733C46.9274 28.2128 49.1495 35.5245 51.515 42.8363C51.8734 43.9908 52.3035 45.2414 52.6858 46.2276C53.0681 47.2137 53.3787 47.9593 53.546 48.0555C53.8327 48.2239 52.9964 45.6022 52.4707 43.7743Z" fill="#16D594"/>
<path d="M53.4028 49.2341C53.4028 49.4747 53.3551 49.7392 53.2595 49.9557C53.1639 50.1722 52.9967 50.3646 52.8055 50.4848C52.5427 50.6532 52.2082 50.7494 51.8736 50.7735C51.5391 50.8216 51.1807 50.8216 50.7984 50.8216C50.0577 50.8216 49.317 50.8216 48.5763 50.8216C47.0949 50.8216 45.5896 50.8456 44.1082 50.8937L39.64 51.014L37.4179 51.0621C36.6772 51.0861 35.9365 51.1102 35.2197 51.0861C34.6462 51.0621 34.0489 50.9899 33.5949 50.8937C33.1409 50.7975 32.8303 50.7013 32.7586 50.8456C32.6869 50.9659 32.902 51.2785 33.3798 51.5191C33.8338 51.7836 34.5506 51.952 35.2675 51.976C35.7692 52.0001 36.271 52.0001 36.7489 51.976C39.9745 51.7836 43.2719 51.7836 47.2382 51.6393C48.194 51.6393 49.317 51.6153 50.5356 51.5912C51.1329 51.5672 51.802 51.6153 52.5188 51.3988C52.8772 51.3026 53.2356 51.1102 53.5223 50.7975C53.809 50.4848 53.9763 50.076 54.0241 49.6671C54.0719 49.162 53.9524 48.6569 53.8329 48.2961C53.6896 47.9353 53.5223 47.6948 53.4028 47.6948C53.1161 47.6948 53.4267 48.6088 53.4028 49.2341Z" fill="#16D594"/>
<path d="M19.4019 42.9327C19.1629 43.534 18.924 44.2315 18.685 44.8809C18.3744 45.7467 18.0638 46.6367 17.7532 47.5025L17.2992 48.8254L17.0842 49.4748C17.0125 49.6912 16.9408 49.9077 16.8691 50.1001C16.7974 50.2925 16.7019 50.4849 16.6063 50.6052C16.5107 50.7495 16.3674 50.8457 16.224 50.9419C15.9134 51.1103 15.5072 51.1584 15.0771 51.1584L12.3293 51.1343L6.78594 51.1103C5.85408 51.1103 4.92222 51.1343 4.06204 51.0381C3.63195 50.99 3.20187 50.9179 2.79567 50.7976C2.60452 50.7255 2.41337 50.6533 2.22222 50.5571C2.03107 50.4609 1.88771 50.3647 1.72045 50.2204C1.48151 50.0039 1.24257 49.7634 1.07532 49.4748C0.90806 49.2102 0.788592 48.9216 0.740804 48.657C0.621335 48.1519 0.740804 47.743 0.573547 47.6949C0.501866 47.6709 0.406291 47.743 0.286822 47.9114C0.167353 48.0798 0.0717773 48.3443 0.0717773 48.7051C0.0717773 49.0659 0.143459 49.4748 0.334609 49.8596C0.52576 50.2685 0.836379 50.6533 1.21868 50.966C1.76824 51.423 2.41337 51.6394 3.0585 51.7597C4.13372 51.9521 5.16116 51.904 6.1647 51.904C7.19213 51.904 8.24346 51.904 9.29479 51.904C10.37 51.904 11.4691 51.928 12.616 51.928C13.1895 51.928 13.7629 51.928 14.3603 51.928C14.9337 51.928 15.6027 51.9521 16.2718 51.7356C16.6063 51.6394 16.9408 51.423 17.1797 51.1103C17.4187 50.7976 17.5859 50.4368 17.7054 50.1001C17.9204 49.4507 18.1594 48.7532 18.3983 48.0317C18.8762 46.5885 19.378 45.0492 19.8797 43.4859C20.1904 42.5238 20.5488 41.3453 20.3576 41.1528C20.1187 41.0807 19.7125 42.163 19.4019 42.9327Z" fill="#516FE9"/>
<path d="M22.6274 33.1676C22.7707 32.9271 22.8902 32.6385 23.0336 32.3499C24.4433 29.4396 25.4468 26.361 26.5937 23.3545C26.8327 22.7532 27.0238 21.9836 26.7371 21.9114C26.4504 21.8152 26.0442 22.3924 25.7574 23.0899C25.6619 23.3305 25.5663 23.595 25.4707 23.8355C24.969 25.5192 24.276 27.1547 23.5592 29.1991C23.1769 30.1612 22.6513 31.46 22.1495 32.7828C21.9822 33.1917 21.815 33.6968 22.03 33.8411C22.1973 33.9132 22.4362 33.4563 22.6274 33.1676Z" fill="#516FE9"/>
</g>
<defs>
<clipPath id="clip0_303_4268">
<rect width="54" height="52" fill="white"/>
</clipPath>
</defs>
</svg>
