<svg width="49" height="40" viewBox="0 0 49 40" fill="none" xmlns="http://www.w3.org/2000/svg">
<g clip-path="url(#clip0_113_764)">
<path d="M24.5911 39.6559C22.8245 39.5658 21.0758 39.6379 19.3092 39.6199C17.4534 39.6019 15.6155 39.6379 13.7597 39.6019C10.8868 39.5658 8.29938 38.6478 5.94395 36.9556C5.85473 36.8836 5.76551 36.7936 5.65845 36.7216C5.71198 36.7576 5.74767 36.7216 5.81904 36.6496C5.83689 36.6316 5.85473 36.6136 5.87258 36.5956C7.79974 34.6514 9.72691 32.7072 11.6719 30.745C11.7611 30.655 11.7968 30.619 11.7611 30.601C11.8325 30.637 11.9217 30.673 11.9931 30.709C12.5998 30.979 13.26 31.051 13.9203 31.051C15.7582 31.051 17.5783 31.051 19.4163 31.051C21.1472 31.069 22.878 30.997 24.6089 31.087C24.5375 31.105 24.5375 31.159 24.5375 31.375L24.5197 39.3858C24.5375 39.5839 24.5375 39.6379 24.5911 39.6559Z" fill="#139F7F"/>
<path d="M37.2085 5.11138C37.1549 5.07538 37.1192 5.12938 36.9587 5.2734C35.1207 7.12758 33.2649 8.99977 31.427 10.854C31.3913 10.89 31.3734 10.926 31.3377 10.944C31.3021 10.98 31.2842 10.998 31.2842 11.034C31.1415 10.998 31.0522 10.98 30.9273 10.89C30.7667 10.7819 30.624 10.6559 30.4634 10.5479C28.5362 9.2698 26.4306 8.65774 24.1287 8.74775C23.5042 8.76575 22.8796 8.85576 22.2729 8.98177C20.1316 9.46782 18.3294 10.5299 16.8126 12.1501C16.7234 12.1321 16.6342 12.1141 16.5271 12.0961C15.849 11.9521 15.1531 11.8981 14.4572 11.8621C13.8683 11.8441 13.2973 11.8621 12.7085 11.9161C11.7449 12.0061 10.7991 12.2041 9.87125 12.5101C8.56863 12.9422 7.35523 13.5182 6.23105 14.3283C6.19536 14.2923 6.2132 14.2383 6.2132 14.1843C6.28458 13.9683 6.33811 13.7342 6.40949 13.5182C7.23032 10.98 8.49725 8.71174 10.246 6.71354C12.3516 4.37331 14.8498 2.62713 17.7584 1.49302C19.3108 0.880959 20.9346 0.502921 22.5941 0.340905C23.4149 0.250896 24.2358 0.214892 25.0566 0.232894C26.8589 0.286899 28.6254 0.574928 30.3385 1.13298C31.998 1.67304 33.5326 2.41111 34.9958 3.38321C35.6917 3.85126 36.3519 4.37331 37.0122 4.91336C37.0657 4.98537 37.1371 5.03938 37.2085 5.11138Z" fill="#F65535"/>
<path d="M48.8753 26.6761C48.7682 28.4043 48.3578 30.0425 47.644 31.6086C47.0017 32.9948 46.163 34.2549 45.1102 35.371C43.3258 37.2432 41.2023 38.5213 38.722 39.1874C38.0082 39.3854 37.2588 39.5114 36.5271 39.5834C36.0275 39.6374 35.51 39.6554 35.0104 39.6554C33.4223 39.6554 31.8341 39.6554 30.246 39.6554C28.4259 39.6554 26.6058 39.6734 24.8036 39.6734C24.7679 39.6734 24.7322 39.6734 24.6965 39.6734C24.643 39.6734 24.6251 39.6734 24.5894 39.6734C24.5359 39.6554 24.5359 39.6014 24.5359 39.4214L24.5537 31.4106C24.5537 31.1946 24.5537 31.1406 24.6251 31.1226C24.6608 31.1046 24.7322 31.1226 24.8392 31.1226C25.892 31.1226 26.9627 31.1226 28.0155 31.1406C30.3709 31.1586 32.7263 31.1946 35.0996 31.1766C36.9733 31.1586 38.4722 30.3485 39.525 28.7824C40.1674 27.8463 40.435 26.7842 40.3993 25.65C40.3279 23.2378 38.5971 21.0776 36.0989 20.5915C35.8312 20.5375 35.5636 20.5015 35.2959 20.5015C35.1353 20.5015 35.1353 20.5015 35.1353 20.3395C35.1353 19.9075 35.1353 19.4754 35.1353 19.0254C35.1175 17.5492 34.7784 16.1451 34.1717 14.795C33.6186 13.5708 32.8334 12.4907 31.8698 11.5546C31.7271 11.4106 31.5665 11.2846 31.4237 11.1586C31.4059 11.1406 31.388 11.1406 31.3702 11.1226C31.3345 11.1046 31.3167 11.0686 31.3167 11.0506C31.3167 11.0146 31.3345 10.9966 31.3702 10.9606C31.4059 10.9246 31.4237 10.9066 31.4594 10.8706C33.2974 9.01638 35.1532 7.14419 36.9911 5.29C37.1517 5.14599 37.1695 5.09198 37.2409 5.12799C37.2409 5.12799 37.2588 5.12799 37.2588 5.14599C37.2944 5.18199 37.3301 5.218 37.4015 5.29C38.954 6.73015 40.2387 8.38631 41.2558 10.2585C41.9339 11.5006 42.4514 12.8148 42.844 14.1829C42.8975 14.3449 42.9689 14.4529 43.0938 14.5429C44.8604 15.7851 46.27 17.3872 47.2872 19.2954C48.0188 20.6635 48.5184 22.1397 48.7682 23.6878C48.8931 24.6599 48.9288 25.668 48.8753 26.6761Z" fill="#19BDC0"/>
<path d="M24.8906 17.368C24.8727 17.386 24.8727 17.404 24.8549 17.404C24.837 17.422 24.8013 17.458 24.7835 17.476C22.8563 19.4202 20.9292 21.3644 19.002 23.3086C18.9485 23.3626 18.9128 23.4166 18.8414 23.4526C18.7343 23.2726 18.663 23.0926 18.5559 22.9306C17.6994 21.5444 16.4681 20.6804 14.8622 20.4283C13.2205 20.1583 11.7394 20.6083 10.4903 21.7065C9.50892 22.5525 8.93791 23.6506 8.75947 24.9288C8.63456 25.8289 8.70593 26.6569 8.95575 27.431C8.9736 27.485 8.99144 27.539 9.00928 27.593C9.02713 27.629 9.04497 27.6831 9.06282 27.7191C9.15204 27.9531 9.27695 28.1871 9.40186 28.4031C9.4197 28.4391 9.45539 28.4751 9.47323 28.5291C9.66952 28.8532 9.91934 29.1772 10.2048 29.4832C10.2762 29.5552 10.3476 29.6272 10.4011 29.6812C10.4547 29.7353 10.4903 29.7713 10.5439 29.8253C10.5974 29.8613 10.6331 29.8973 10.6866 29.9333C10.7402 29.9873 10.8115 30.0233 10.8651 30.0773C10.9186 30.1133 10.99 30.1673 11.0435 30.2033C11.222 30.3293 11.4182 30.4373 11.6145 30.5273C11.6859 30.5633 11.7394 30.5813 11.7573 30.5993C11.7573 30.6173 11.7573 30.6173 11.7573 30.6353C11.7394 30.6713 11.7216 30.7074 11.6502 30.7614C9.70521 32.7236 7.77804 34.6677 5.83303 36.6299C5.81518 36.6479 5.79734 36.684 5.7795 36.684C5.72596 36.738 5.70812 36.756 5.67243 36.756C5.65459 36.756 5.63674 36.756 5.6189 36.738C5.60105 36.72 5.58321 36.702 5.54752 36.684C5.42261 36.5759 5.2977 36.4679 5.17279 36.3599C5.08357 36.2879 5.0122 36.2159 4.92298 36.1259C4.78022 35.9999 4.63747 35.8739 4.51256 35.7479C3.04934 34.3257 1.96085 32.6695 1.2114 30.7434C1.2114 30.7254 1.19355 30.7254 1.19355 30.7074C0.765292 29.5732 0.479786 28.3851 0.354877 27.179C0.265657 26.3869 0.247812 25.5768 0.319189 24.7848C0.40841 23.4886 0.676072 22.2285 1.12218 21.0044C1.71103 19.4022 2.54971 17.9621 3.65604 16.684C4.42334 15.8019 5.27986 15.0458 6.2256 14.3617C7.34978 13.5696 8.56318 12.9756 9.8658 12.5435C10.7937 12.2375 11.7394 12.0575 12.703 11.9495C13.2919 11.8955 13.8629 11.8595 14.4517 11.8955C15.1477 11.9135 15.8436 11.9855 16.5217 12.1295C16.6109 12.1475 16.7001 12.1655 16.8072 12.1835C18.0384 12.4715 19.234 12.8676 20.3582 13.4616C21.4466 14.0377 22.4281 14.7398 23.3381 15.5678C23.8735 16.0539 24.3552 16.5939 24.8013 17.152C24.8192 17.188 24.8549 17.206 24.8727 17.242C24.9263 17.278 24.9263 17.314 24.8906 17.368Z" fill="#FBBE40"/>
</g>
<defs>
<clipPath id="clip0_113_764">
<rect width="49" height="40" fill="white"/>
</clipPath>
</defs>
</svg>
