<svg width="64" height="52" viewBox="0 0 64 52" fill="none" xmlns="http://www.w3.org/2000/svg">
<g clip-path="url(#clip0_303_4248)">
<path d="M32.1165 51.5551C29.8092 51.4381 27.5251 51.5317 25.2178 51.5083C22.7939 51.4849 20.3933 51.5317 17.9694 51.4849C14.217 51.4381 10.8376 50.2445 7.76109 48.0447C7.64456 47.9511 7.52802 47.8341 7.38818 47.7405C7.4581 47.7873 7.50472 47.7405 7.59794 47.6469C7.62125 47.6235 7.64456 47.6001 7.66786 47.5767C10.185 45.0492 12.7021 42.5218 15.2425 39.9709C15.359 39.8539 15.4057 39.8071 15.359 39.7837C15.4523 39.8305 15.5688 39.8773 15.662 39.9241C16.4545 40.2751 17.3168 40.3687 18.1792 40.3687C20.5797 40.3687 22.957 40.3687 25.3576 40.3687C27.6183 40.3922 29.8791 40.2985 32.1398 40.4156C32.0466 40.439 32.0466 40.5092 32.0466 40.79L32.0233 51.204C32.0466 51.4615 32.0466 51.5317 32.1165 51.5551Z" fill="#22B573"/>
<path d="M48.5944 6.64622C48.5245 6.59942 48.4779 6.66963 48.2681 6.85685C45.8675 9.26729 43.4437 11.7011 41.0431 14.1116C40.9965 14.1584 40.9732 14.2052 40.9265 14.2286C40.8799 14.2754 40.8566 14.2988 40.8566 14.3456C40.6702 14.2988 40.5536 14.2754 40.3905 14.1584C40.1807 14.018 39.9943 13.8541 39.7845 13.7137C37.2674 12.0522 34.5172 11.2565 31.5107 11.3735C30.6949 11.3969 29.8792 11.5139 29.0868 11.6777C26.29 12.3096 23.936 13.6903 21.9549 15.7965C21.8384 15.7731 21.7219 15.7497 21.582 15.7263C20.6964 15.5391 19.7874 15.4689 18.8785 15.4221C18.1093 15.3987 17.3635 15.4221 16.5944 15.4923C15.3359 15.6093 14.1006 15.8667 12.8887 16.2646C11.1873 16.8262 9.60243 17.5751 8.13411 18.6282C8.0875 18.5814 8.11081 18.5112 8.11081 18.441C8.20403 18.1602 8.27395 17.8559 8.36718 17.5751C9.43929 14.2754 11.0941 11.3267 13.3781 8.72903C16.1283 5.68673 19.3912 3.4167 23.1902 1.94235C25.2179 1.14667 27.3388 0.655226 29.5063 0.444604C30.5784 0.327593 31.6505 0.280788 32.7226 0.30419C35.0766 0.374397 37.3839 0.748835 39.6214 1.47431C41.7889 2.17638 43.7933 3.13587 45.7044 4.3996C46.6134 5.00806 47.4757 5.68673 48.338 6.3888C48.408 6.48241 48.5012 6.55262 48.5944 6.64622Z" fill="#ED1C24"/>
<path d="M63.8366 34.6824C63.6968 36.929 63.1607 39.0586 62.2285 41.0946C61.3894 42.8966 60.294 44.5348 58.9189 45.9857C56.5883 48.4196 53.8148 50.0811 50.5752 50.947C49.6429 51.2045 48.664 51.3683 47.7084 51.4619C47.0559 51.5321 46.38 51.5555 45.7274 51.5555C43.6531 51.5555 41.5788 51.5555 39.5045 51.5555C37.1272 51.5555 34.75 51.5789 32.396 51.5789C32.3494 51.5789 32.3028 51.5789 32.2561 51.5789C32.1862 51.5789 32.1629 51.5789 32.1163 51.5789C32.0464 51.5555 32.0464 51.4853 32.0464 51.2513L32.0697 40.8372C32.0697 40.5564 32.0697 40.4862 32.1629 40.4628C32.2095 40.4394 32.3028 40.4628 32.4426 40.4628C33.8177 40.4628 35.2161 40.4628 36.5912 40.4862C39.6677 40.5096 42.7441 40.5564 45.8439 40.533C48.2911 40.5096 50.2489 39.4565 51.624 37.4205C52.463 36.2036 52.8126 34.8228 52.766 33.3485C52.6728 30.2126 50.412 27.4043 47.1491 26.7724C46.7995 26.7022 46.4499 26.6554 46.1003 26.6554C45.8905 26.6554 45.8905 26.6554 45.8905 26.4448C45.8905 25.8831 45.8905 25.3215 45.8905 24.7364C45.8672 22.8174 45.4244 20.992 44.632 19.2369C43.9095 17.6455 42.884 16.2414 41.6254 15.0244C41.439 14.8372 41.2292 14.6734 41.0427 14.5096C41.0194 14.4862 40.9961 14.4862 40.9728 14.4628C40.9262 14.4394 40.9029 14.3926 40.9029 14.3692C40.9029 14.3224 40.9262 14.299 40.9728 14.2522C41.0194 14.2054 41.0427 14.182 41.0894 14.1351C43.4899 11.7247 45.9138 9.29087 48.3144 6.88042C48.5242 6.69321 48.5475 6.623 48.6407 6.6698C48.6407 6.6698 48.664 6.6698 48.664 6.69321C48.7106 6.74001 48.7572 6.78681 48.8505 6.88042C50.8781 8.75261 52.5562 10.9056 53.8847 13.3395C54.7703 14.9542 55.4462 16.6626 55.959 18.4412C56.0289 18.6518 56.1221 18.7922 56.2853 18.9092C58.5926 20.524 60.4339 22.6068 61.7623 25.0874C62.7179 26.866 63.3705 28.785 63.6968 30.7976C63.8599 32.0613 63.9065 33.3719 63.8366 34.6824Z" fill="#29ABE2"/>
<path d="M32.5126 22.5833C32.4893 22.6067 32.4893 22.6302 32.466 22.6302C32.4427 22.6536 32.396 22.7004 32.3727 22.7238C29.8556 25.2512 27.3385 27.7787 24.8214 30.3061C24.7515 30.3763 24.7048 30.4465 24.6116 30.4933C24.4718 30.2593 24.3786 30.0253 24.2387 29.8147C23.12 28.0127 21.5118 26.8894 19.4142 26.5617C17.27 26.2107 15.3356 26.7958 13.7041 28.2233C12.4223 29.3232 11.6764 30.7508 11.4434 32.4123C11.2802 33.5824 11.3735 34.659 11.6998 35.6653C11.7231 35.7355 11.7464 35.8057 11.7697 35.8759C11.793 35.9227 11.8163 35.9929 11.8396 36.0397C11.9561 36.3439 12.1193 36.6482 12.2824 36.929C12.3057 36.9758 12.3523 37.0226 12.3756 37.0928C12.632 37.514 12.9583 37.9353 13.3312 38.3331C13.4244 38.4267 13.5177 38.5203 13.5876 38.5905C13.6575 38.6608 13.7041 38.7076 13.774 38.7778C13.844 38.8246 13.8906 38.8714 13.9605 38.9182C14.0304 38.9884 14.1236 39.0352 14.1936 39.1054C14.2635 39.1522 14.3567 39.2224 14.4266 39.2692C14.6597 39.433 14.9161 39.5734 15.1724 39.6905C15.2657 39.7373 15.3356 39.7607 15.3589 39.7841C15.3589 39.8075 15.3589 39.8075 15.3589 39.8309C15.3356 39.8777 15.3123 39.9245 15.2191 39.9947C12.6786 42.5455 10.1615 45.073 7.62109 47.6239C7.59778 47.6473 7.57448 47.6941 7.55117 47.6941C7.48125 47.7643 7.45794 47.7877 7.41133 47.7877C7.38802 47.7877 7.36472 47.7877 7.34141 47.7643C7.3181 47.7409 7.2948 47.7175 7.24818 47.6941C7.08504 47.5536 6.92189 47.4132 6.75874 47.2728C6.64221 47.1792 6.54899 47.0856 6.43245 46.9686C6.246 46.8048 6.05955 46.641 5.8964 46.4771C3.98526 44.6284 2.56355 42.4753 1.58467 39.9713C1.58467 39.9479 1.56137 39.9479 1.56137 39.9245C1.00201 38.4501 0.629101 36.9056 0.465955 35.3376C0.349421 34.3079 0.326115 33.2548 0.419341 32.2251C0.535875 30.5401 0.885474 28.902 1.46814 27.3106C2.23726 25.2278 3.33267 23.3556 4.77768 21.6941C5.77987 20.5473 6.89859 19.5644 8.13384 18.6752C9.60215 17.6455 11.187 16.8732 12.8884 16.3115C14.1003 15.9137 15.3356 15.6797 16.5941 15.5392C17.3633 15.469 18.1091 15.4222 18.8782 15.469C19.7872 15.4924 20.6961 15.586 21.5818 15.7733C21.6983 15.7967 21.8148 15.8201 21.9547 15.8435C23.5628 16.2179 25.1244 16.7328 26.5927 17.505C28.0144 18.2539 29.2963 19.1666 30.4849 20.2431C31.1841 20.875 31.8134 21.577 32.396 22.3025C32.4193 22.3493 32.466 22.3727 32.4893 22.4195C32.5592 22.4663 32.5592 22.5131 32.5126 22.5833Z" fill="#FBB03B"/>
</g>
<defs>
<clipPath id="clip0_303_4248">
<rect width="64" height="52" fill="white"/>
</clipPath>
</defs>
</svg>
