<svg width="83" height="52" viewBox="0 0 83 52" fill="none" xmlns="http://www.w3.org/2000/svg">
<g clip-path="url(#clip0_303_4260)">
<path d="M41.4502 51.5296C33.4685 51.5296 25.4868 51.5296 17.5051 51.5296C14.198 51.5296 11.0898 50.8119 8.23035 49.1536C4.62489 47.0499 1.88972 44.2036 0.87025 40.0456C0.223756 37.4221 0.372947 34.749 1.29296 32.175C2.56108 28.5615 4.72435 25.5915 7.95683 23.4382C8.75252 22.9185 9.59793 22.4977 10.4931 22.1512C10.8412 22.0275 11.065 21.8542 11.065 21.4087C11.0152 18.5377 11.612 15.7905 12.7558 13.1669C14.8694 8.34067 18.3256 4.77665 23.0749 2.47489C25.6608 1.23738 28.3711 0.544381 31.2804 0.47013C34.7864 0.37113 38.1183 0.989883 41.2762 2.54914C45.4784 4.62815 48.6611 7.74667 50.7995 11.9047C51.2223 12.7214 51.2223 12.7214 52.0179 12.2759C55.7975 10.0484 61.1435 10.6919 64.3262 13.7114C66.2906 15.5677 67.509 17.7952 67.7576 20.493C67.7825 20.9137 67.9814 21.1365 68.4538 21.2355C75.2669 22.5225 79.8172 26.5568 81.9556 33.0165C83.5719 37.9418 82.3535 42.4216 78.6734 46.1836C75.8637 49.0546 72.4323 50.6634 68.5284 51.3564C67.5836 51.5296 66.5889 51.5296 65.6192 51.5296C57.5629 51.5296 49.5066 51.5296 41.4502 51.5296ZM43.7876 42.4958C43.9119 42.4958 44.0114 42.4958 44.1357 42.4958C45.5033 42.4958 45.5033 42.4958 45.7768 41.1346C46.3735 38.1893 46.9454 35.244 47.5422 32.274C48.0644 29.7 48.5865 27.1508 49.1087 24.5767C49.2828 23.76 49.1336 23.5867 48.2882 23.5867C47.9401 23.5867 47.5919 23.6115 47.2438 23.5867C46.6471 23.5372 46.3735 23.76 46.299 24.3787C45.9508 26.631 45.5281 28.908 45.1552 31.1603C44.807 33.264 44.4838 35.3678 44.1357 37.4716C44.1108 37.6943 44.1854 38.0408 43.887 38.0408C43.5389 38.0656 43.5638 37.6943 43.5389 37.4716C43.3151 36.2835 43.1411 35.0955 42.9422 33.9075C42.4448 31.0365 41.9724 28.1655 41.4254 25.2945C41.0524 23.2897 41.4254 23.661 39.4859 23.6115C39.1875 23.6115 38.8891 23.6115 38.5659 23.6115C38.2178 23.6115 38.0188 23.7352 37.9691 24.1312C37.4718 27.1508 36.9496 30.1455 36.4275 33.165C36.1788 34.6005 35.955 36.036 35.7312 37.4716C35.7064 37.6448 35.6815 37.8676 35.4329 37.8923C35.1842 37.9171 35.1593 37.6696 35.1345 37.4963C35.0599 37.1251 35.0599 36.7538 35.0102 36.4073C34.3885 32.769 33.7669 29.1555 33.1453 25.5173C32.7972 23.463 32.7723 23.4877 30.6836 23.6115C30.6339 23.6115 30.5842 23.6115 30.5344 23.6115C30.1366 23.6115 29.9874 23.8342 30.0371 24.2055C30.062 24.453 30.1117 24.7005 30.1614 24.948C30.7085 27.7448 31.2804 30.5415 31.8274 33.3383C32.3744 36.1845 32.9215 39.0308 33.4436 41.8771C33.5182 42.3473 33.7918 42.5453 34.2642 42.5453C34.9356 42.5206 35.6069 42.5206 36.2783 42.5453C36.8004 42.5701 37.0491 42.2978 37.1237 41.8276C37.1983 41.3573 37.248 40.9118 37.3226 40.4416C37.7951 37.6448 38.2426 34.8728 38.7151 32.076C38.8891 31.0613 39.0632 30.0218 39.2621 29.007C39.287 28.8338 39.3367 28.5863 39.5854 28.6358C39.7843 28.6605 39.8091 28.8585 39.8091 29.0318C39.8091 29.601 40.0081 30.1208 40.1075 30.6653C40.6794 34.1055 41.2762 37.5458 41.8729 41.0108C42.1465 42.6443 41.8481 42.4958 43.7876 42.4958ZM28.4209 42.4958C30.0371 42.4958 30.0123 42.4958 29.6144 41.0603C28.943 38.6348 28.2966 36.1846 27.6749 33.7343C26.8295 30.5415 25.9841 27.324 25.1635 24.1312C25.0641 23.76 24.8652 23.5867 24.4922 23.5867C23.5722 23.5867 22.677 23.5867 21.757 23.5867C21.4089 23.5867 21.1851 23.6857 21.0856 24.057C21.0111 24.354 20.9116 24.6262 20.8121 24.9232C19.7429 28.71 18.6489 32.4968 17.5797 36.2836C17.0575 38.1398 16.5105 39.9713 15.9883 41.8276C15.864 42.2731 16.0132 42.4958 16.4856 42.4958C17.0078 42.4958 17.5051 42.4711 18.0272 42.4958C18.624 42.5453 18.8975 42.2483 19.0467 41.6791C19.2954 40.5901 19.6186 39.5258 19.8921 38.4616C20.0164 37.9666 20.3397 37.7438 20.8619 37.7686C22.2543 37.7933 23.6468 37.7933 25.0641 37.7686C25.636 37.7686 25.9095 38.0161 26.0338 38.5358C26.2327 39.4021 26.4317 40.2436 26.6803 41.1098C27.103 42.7928 26.9041 42.4711 28.4209 42.4958ZM52.5152 36.7786C52.5152 36.8033 52.5152 36.8033 52.5152 36.7786C52.2169 36.7786 51.9185 36.7786 51.5952 36.7786C51.2969 36.7786 51.1228 36.9518 51.1228 37.2488C51.0979 38.9813 51.4958 40.6148 52.938 41.7038C54.9769 43.2383 57.3142 43.1393 59.6018 42.4463C61.8646 41.7533 62.884 40.0703 63.0084 37.6448C63.1575 34.5758 61.7651 33.1898 59.751 32.4225C58.5326 31.9523 57.2894 31.5315 56.1207 30.9623C54.4547 30.1455 53.9077 28.8585 54.3304 27.126C54.6039 26.0123 55.6234 25.245 56.8667 25.2202C58.2342 25.2202 59.204 25.8885 59.5272 27.0518C59.9002 28.4378 59.9002 28.4378 61.3673 28.413C61.5662 28.413 61.79 28.413 61.9889 28.413C62.3619 28.413 62.5857 28.215 62.5608 27.8438C62.4365 26.2103 62.1132 24.6757 60.497 23.8342C58.6321 22.8937 56.6926 22.9185 54.7283 23.5125C52.8136 24.0817 51.7693 25.443 51.446 27.3488C51.3466 27.8685 51.3963 28.413 51.3963 28.9328C51.4212 30.7148 52.2169 32.0265 53.7834 32.8928C55.1758 33.66 56.7175 34.0808 58.1845 34.65C60.2483 35.442 60.4721 37.8181 59.8753 39.1298C59.3034 40.4168 57.911 40.9366 56.2202 40.5901C55.0266 40.3673 54.1563 39.3278 54.032 38.0161C53.9077 36.7043 53.9077 36.7043 52.5898 36.7043C52.565 36.7786 52.5401 36.7786 52.5152 36.7786Z" fill="#FFB501"/>
<path d="M22.9257 35.5412C22.3787 35.5412 21.8068 35.5412 21.2597 35.5412C20.8122 35.5412 20.6381 35.3184 20.7376 34.8729C21.3841 32.2247 22.0057 29.5517 22.6771 26.9034C22.7268 26.7054 22.7019 26.3589 23.0003 26.3589C23.3236 26.3589 23.2987 26.7054 23.3484 26.9529C23.9452 29.5269 24.5668 32.1009 25.1387 34.6749C25.3128 35.4669 25.2382 35.5659 24.4176 35.5659C23.9203 35.5412 23.423 35.5412 22.9257 35.5412Z" fill="#FFB501"/>
</g>
<defs>
<clipPath id="clip0_303_4260">
<rect width="83" height="52" fill="white"/>
</clipPath>
</defs>
</svg>
