<svg width="42" height="40" viewBox="0 0 42 40" fill="none" xmlns="http://www.w3.org/2000/svg">
<g clip-path="url(#clip0_113_788)">
<path d="M20.6073 15.1908C20.44 13.4516 19.7338 11.9345 19.0834 10.3249C18.3772 8.56728 17.6524 6.82815 16.9091 5.10752C16.8905 5.07052 16.8719 5.03351 16.8533 4.99651C16.9276 4.79299 16.9091 4.57098 16.7418 4.33046C16.5931 4.12694 16.4445 3.90493 16.2958 3.70141C16.1099 3.27588 15.9241 2.85035 15.7383 2.44332C15.4409 1.77727 15.2551 1.18522 14.5117 1.00021C14.5117 1.00021 14.5117 1.00021 14.4931 1.00021C14.1772 0.574678 13.6568 0.59318 13.3038 0.833698C13.1922 0.8707 13.0622 0.926205 12.9692 1.01871C12.3374 1.55525 12.04 2.2583 11.7799 3.03536C11.5383 3.75692 11.3153 4.49697 11.0922 5.23703C10.8692 5.31103 10.6648 5.47755 10.5719 5.77357C9.01083 10.7319 7.44977 15.6903 5.88871 20.6487C4.97809 23.5534 4.1418 26.4766 3.17543 29.3628C3.1011 29.5293 3.02676 29.7144 2.95242 29.8809C2.76658 29.9734 2.63649 30.1399 2.56216 30.3804C2.46924 30.7319 2.37632 31.0835 2.2834 31.4165C2.00464 32.064 1.72587 32.6931 1.44711 33.3406C1.24269 33.8032 1.1126 34.2842 1.07543 34.7837C0.982511 35.0058 0.871007 35.2278 0.778087 35.4313C0.722334 35.5608 0.685166 35.6903 0.685166 35.8013C0.592246 35.8753 0.51791 35.9678 0.462157 36.0973C-1.43342 40.3712 7.28251 39.7791 9.36393 39.7421C10.2188 39.7236 11.2595 39.8346 12.0586 39.4461C12.802 39.0761 13.3038 38.3545 13.6568 37.633C14.0285 36.8929 14.233 36.1158 14.4002 35.3388C14.5675 35.2463 14.6976 35.0798 14.7533 34.8392C14.902 34.2472 14.9763 33.6367 15.0692 33.0261C15.3666 32.6006 15.5896 32.138 15.7754 31.6385C15.8684 31.3795 15.7754 31.065 15.5896 30.8614C15.6082 30.8244 15.6268 30.7689 15.6453 30.7319C15.7197 30.5654 15.7197 30.4174 15.7011 30.2879C16.1657 28.7153 16.6489 27.1427 17.1135 25.5701C18.0241 23.3869 18.8976 21.1852 19.7338 18.9836C19.7896 18.9466 19.8268 18.9281 19.8825 18.8725C21.0347 17.7995 20.756 16.5969 20.6073 15.1908Z" fill="#545AE8"/>
<path d="M27.8948 35.4138C27.8763 35.3953 27.8391 35.3953 27.8205 35.3768C27.7276 34.4333 27.3931 33.4527 27.1143 32.6941C27.1143 32.6386 27.1143 32.5646 27.1143 32.4906C27.0957 32.2316 26.9842 31.9356 26.7426 31.7876C26.8913 31.7136 27.04 31.6396 27.1886 31.5656C27.7462 31.214 27.7462 30.1409 26.9842 30.0114C26.6869 29.9744 26.4081 29.9189 26.1108 29.9004C26.3152 29.6229 26.2966 29.2344 26.1108 28.9384C27.0957 28.7718 27.1143 27.2362 26.0179 27.2547C25.386 27.2732 24.7541 27.2732 24.1223 27.2917C24.1409 27.2917 24.1594 27.2917 24.1594 27.2917C25.0701 27.1992 25.2187 25.9781 24.5869 25.6636C24.4568 25.5711 24.2895 25.4971 24.0851 25.4786C22.301 25.3676 20.5356 25.4786 18.7701 25.5896C18.6957 25.5896 18.6214 25.6081 18.5656 25.6266C17.4506 25.6266 16.3356 25.6266 15.2205 25.5896C14.9046 25.5711 14.7002 25.7191 14.5515 25.9041C13.8081 25.9041 13.0648 25.9041 12.3214 25.8856C11.2435 25.8856 11.2249 27.5138 12.2471 27.5878C12.2842 27.7728 12.4143 27.9578 12.6373 28.0873C12.6931 28.1243 12.7674 28.1428 12.8232 28.1798C12.7117 28.6238 12.9161 29.1789 13.3993 29.2899C13.4736 29.3084 13.5479 29.3269 13.6409 29.3454C13.678 29.4009 13.7152 29.4564 13.7709 29.5119C14.5886 30.215 15.5364 30.844 16.1311 31.7691C16.6329 32.5461 17.1904 33.0827 17.8966 33.6747C19.4763 34.9698 21.0373 36.4314 22.8028 37.486C22.8957 37.5415 23.0072 37.597 23.1002 37.6525C23.6019 38.4851 24.5497 38.8181 25.4789 39.0216C25.7763 39.0771 26.0364 39.0031 26.2223 38.8366C27.0771 38.7256 27.6347 37.9855 27.5789 37.116C27.5975 37.079 27.6161 37.0235 27.6347 36.9865C27.6532 36.9865 27.6532 36.9865 27.6718 36.9865C28.4152 36.8755 28.5267 35.7099 27.8948 35.4138Z" fill="#545AE8"/>
<path d="M41.8106 37.8549C40.6956 34.8392 39.9708 31.6384 39.1159 28.5487C39.1159 28.5302 39.1159 28.5302 39.0973 28.5117C39.1159 28.4562 39.1159 28.4007 39.1159 28.3452V28.1972C39.1159 28.0862 39.0973 27.9752 39.0416 27.8642C39.0044 27.7532 38.9486 27.6606 38.8557 27.5866C38.7814 27.5126 38.6885 27.4386 38.577 27.4016C38.484 27.3461 38.3725 27.3276 38.2425 27.3276C38.2239 27.3276 38.2239 27.3276 38.2053 27.3276C37.4619 24.4414 36.8301 21.4997 35.8823 18.669C35.4177 17.2814 34.8044 15.9493 34.2283 14.5987C34.2283 14.5432 34.2097 14.5062 34.2097 14.4507C34.0239 13.3776 33.9124 12.397 33.4478 11.5644C33.4478 11.5274 33.4478 11.4719 33.4478 11.4349C33.392 10.8799 33.2619 10.3988 32.8531 10.0103C32.8159 9.97332 32.7602 9.91781 32.7044 9.88081C32.6672 9.54778 32.6301 9.21476 32.6115 8.90023C32.5929 8.21568 32.277 7.71615 31.8681 7.40162C31.6079 6.43955 31.3292 5.47748 31.0132 4.53391C30.5486 3.1278 30.1212 1.24066 28.7274 0.482104C27.4637 -0.183946 25.9956 0.371095 24.6203 0.722622C23.1522 0.352594 21.6283 0.463602 20.1416 0.648616C19.9929 0.667118 19.8256 0.70412 19.677 0.741123C19.1938 0.648616 18.7106 0.519107 18.246 0.371095C17.6327 0.186082 17.1309 0.278588 16.7221 0.519107C16.592 0.278588 16.3504 0.0750732 15.9973 0.0750732C14.9566 0.0750732 14.9009 1.61069 15.8301 1.7587C15.6256 2.55426 15.8301 3.47933 16.6106 3.99737C18.7106 9.7883 20.8106 15.5607 22.9106 21.3517C23.1894 22.1102 23.5053 22.8503 23.8212 23.6088C23.5796 23.8494 23.4309 24.2379 23.6168 24.6264C25.1221 27.9752 26.3858 31.4164 27.4079 34.9317C27.4451 35.0242 27.4823 35.1167 27.5194 35.1907C27.6681 35.5792 27.8168 35.9493 28.0026 36.3378C27.9283 36.3933 27.8725 36.4673 27.8354 36.5413C27.6124 36.9668 27.4823 37.4294 27.4637 37.9104C27.4637 37.9289 27.4637 37.9659 27.4637 37.9844C27.1849 38.0769 26.9248 38.1694 26.6646 38.2989C25.6796 38.78 26.5345 40.2416 27.5194 39.7605C28.1141 39.4645 28.8203 39.3165 29.5265 39.224C29.6566 39.3905 29.8796 39.5015 30.1584 39.5015C31.9425 39.5015 33.7265 39.5015 35.5106 39.5015C37.1832 39.5015 38.8557 39.5755 40.5097 39.335C40.8256 39.2795 41.0115 39.113 41.0858 38.891C41.569 38.8355 41.9779 38.3359 41.8106 37.8549Z" fill="#139F7F"/>
<path d="M16.405 25.3834C15.7731 25.4019 15.1227 25.4019 14.4537 25.4204C14.1191 25.4204 13.7846 25.4389 13.4501 25.4389C13.1156 25.4389 12.7625 25.4574 12.4094 25.5314C12.2236 25.5684 12.0563 25.6239 11.8705 25.6979C11.7032 25.7719 11.536 25.9014 11.4059 26.0679C11.2758 26.2345 11.2014 26.4195 11.1829 26.6415C11.1643 26.845 11.2014 27.0485 11.2758 27.2335C11.4245 27.5851 11.666 27.8626 11.9262 28.1216C12.1864 28.3621 12.428 28.5841 12.6696 28.8247C15.3085 31.2668 17.9475 33.709 20.5864 36.1512L21.5714 37.0578C21.9059 37.3538 22.2218 37.6683 22.5749 37.9643C22.928 38.2604 23.2997 38.5379 23.7271 38.7784C24.136 39.0004 24.6191 39.1854 25.1023 39.2409C25.5855 39.2964 26.1059 39.2409 26.5891 39.0374C26.8307 38.9264 27.0537 38.7969 27.2395 38.6119C27.4253 38.4269 27.5926 38.2234 27.6855 37.9828C27.9271 37.5203 27.9643 37.0023 27.9643 36.5212C27.9457 36.0402 27.8528 35.5777 27.7227 35.1336C27.6112 34.6896 27.4439 34.2456 27.2952 33.8385L26.8492 32.5619L25.9572 30.0087L24.1917 24.9209C23.0023 21.5351 21.813 18.1308 20.6422 14.7451L17.0926 4.55084L16.6466 3.27424C16.4979 2.84871 16.3492 2.42318 16.1448 1.97914C15.9404 1.55361 15.6802 1.12808 15.3085 0.776552C14.9368 0.425026 14.4722 0.166007 13.9147 0.092001C13.7846 0.0734997 13.636 0.0734997 13.5059 0.092001C13.3758 0.110502 13.2271 0.129004 13.097 0.166007C12.8368 0.258513 12.5953 0.388023 12.3908 0.554536C11.982 0.887561 11.7218 1.33159 11.5174 1.75713C11.313 2.18266 11.1643 2.62669 11.0342 3.05222L10.6068 4.32882C8.37667 11.1558 6.14658 18.0013 3.89791 24.8284C2.09525 30.3233 0.0138387 36.8913 0.2926 36.8172C0.552777 36.7617 2.55986 31.1188 4.65986 24.7173C5.40322 22.4787 6.128 20.2215 6.85278 18.0013C8.06074 14.2826 9.25012 10.5638 10.4767 6.771C10.7926 5.82743 11.0899 4.86536 11.4059 3.92179C11.5731 3.44075 11.7032 2.95972 11.8891 2.49718C12.0563 2.05315 12.2793 1.60911 12.5767 1.25759C12.7253 1.09108 12.8926 0.943065 13.0784 0.850558C13.2643 0.758051 13.4687 0.702547 13.6731 0.702547C14.1006 0.702547 14.528 0.906062 14.8625 1.22059C15.197 1.53511 15.4386 1.96064 15.643 2.40467C15.8475 2.86721 15.9961 3.34824 16.182 3.84778C18.9324 11.6924 21.8501 19.9625 25.028 29.0282C25.3997 30.1012 25.8085 31.2483 26.2174 32.4139C26.4218 33.006 26.6262 33.598 26.8492 34.2086C27.0722 34.8191 27.2581 35.4296 27.351 36.0587C27.4439 36.6692 27.4253 37.3353 27.1094 37.8348C26.9607 38.0938 26.7377 38.2974 26.4776 38.4269C26.2174 38.5564 25.9014 38.6304 25.5855 38.6489C25.2696 38.6674 24.9537 38.6119 24.6377 38.5194C24.3404 38.4269 24.0245 38.2604 23.7457 38.0753C23.1696 37.7053 22.6492 37.2058 22.1103 36.7247C19.936 34.7451 17.7059 32.6914 15.42 30.6008C14.8439 30.0827 14.2678 29.5462 13.6917 29.0282C13.413 28.7691 13.1156 28.5101 12.8183 28.2326L12.3908 27.8441C12.2607 27.7146 12.1307 27.5851 12.0191 27.4555C11.7961 27.178 11.6475 26.882 11.7032 26.6415C11.7404 26.3825 11.9448 26.1975 12.2793 26.1049C12.5953 25.9939 12.9669 25.9754 13.3572 25.9569L14.5466 25.9199C18.505 25.8089 23.2625 25.6424 23.7457 25.4389C24.0988 25.2539 19.5643 25.3464 16.405 25.3834Z" fill="#545AE8"/>
<path d="M40.8106 33.6725C40.4761 32.5439 40.0673 31.2673 39.6956 30.0648C37.7257 23.6263 35.7743 17.1878 33.6929 10.7493C33.1726 9.13969 32.6522 7.54857 32.1133 5.93895C31.8531 5.14339 31.5743 4.34783 31.277 3.53377C31.1283 3.14524 30.9982 2.73821 30.8124 2.33118C30.6266 1.92414 30.4035 1.53562 30.0876 1.18409C29.7717 0.832563 29.3628 0.53654 28.9354 0.370028C28.508 0.185014 28.0434 0.0925069 27.6159 0.0555042C27.1699 0 26.7425 0 26.315 0H25.0513L19.9779 0.0185014C17.246 0.0555042 13.9938 0.12951 14.0681 0.370028C14.1239 0.592044 16.9487 0.721554 20.1266 0.721554C21.2416 0.721554 22.3566 0.721554 23.4531 0.703053C24.3637 0.684551 25.2929 0.66605 26.2221 0.66605C26.6867 0.66605 27.1327 0.66605 27.5788 0.703053C28.0248 0.740056 28.4522 0.851064 28.8239 1.01758C29.2142 1.20259 29.5301 1.46161 29.7903 1.81314C30.0504 2.16466 30.2363 2.57169 30.4035 2.99723C30.5708 3.42276 30.7195 3.88529 30.8867 4.32932C31.054 4.77336 31.2027 5.23589 31.3513 5.69843C32.5965 9.39871 33.8416 13.321 35.2168 17.5948C36.4991 21.7021 38.2274 27.3266 40.0673 32.951C40.346 33.839 40.6805 34.8011 40.9779 35.5597C41.2752 36.3182 41.5168 36.8918 41.6469 36.9658C41.8699 37.0953 41.2195 35.0786 40.8106 33.6725Z" fill="#139F7F"/>
<path d="M41.5332 37.8728C41.5332 38.0578 41.496 38.2613 41.4217 38.4279C41.3473 38.5944 41.2173 38.7424 41.0686 38.8349C40.8642 38.9644 40.604 39.0384 40.3438 39.0569C40.0836 39.0939 39.8049 39.0939 39.5075 39.0939C38.9314 39.0939 38.3553 39.0939 37.7792 39.0939C36.627 39.0939 35.4562 39.1124 34.304 39.1494L30.8288 39.2419L29.1004 39.2789C28.5243 39.2974 27.9482 39.3159 27.3907 39.2974C26.9447 39.2789 26.4801 39.2234 26.127 39.1494C25.7739 39.0754 25.5323 39.0014 25.4766 39.1124C25.4208 39.2049 25.5881 39.4454 25.9597 39.6304C26.3128 39.834 26.8704 39.9635 27.4279 39.982C27.8181 40.0005 28.2084 40.0005 28.5801 39.982C31.0889 39.834 33.6535 39.834 36.7385 39.7229C37.4819 39.7229 38.3553 39.7044 39.3031 39.6859C39.7677 39.6674 40.2881 39.7044 40.8456 39.5379C41.1243 39.4639 41.4031 39.3159 41.6261 39.0754C41.8491 38.8349 41.9792 38.5204 42.0164 38.2058C42.0535 37.8173 41.9606 37.4288 41.8677 37.1513C41.7562 36.8737 41.6261 36.6887 41.5332 36.6887C41.3102 36.6887 41.5518 37.3918 41.5332 37.8728Z" fill="#139F7F"/>
<path d="M15.0892 33.0243C14.9034 33.4869 14.7175 34.0234 14.5317 34.5229C14.2901 35.189 14.0485 35.8735 13.8069 36.5396L13.4538 37.5572L13.2865 38.0567C13.2308 38.2232 13.175 38.3897 13.1193 38.5377C13.0635 38.6858 12.9892 38.8338 12.9149 38.9263C12.8405 39.0373 12.729 39.1113 12.6175 39.1853C12.3759 39.3148 12.06 39.3518 11.7255 39.3518L9.58832 39.3333L5.27681 39.3148C4.55203 39.3148 3.82725 39.3333 3.15823 39.2593C2.82371 39.2223 2.4892 39.1668 2.17327 39.0743C2.0246 39.0188 1.87593 38.9633 1.72725 38.8893C1.57858 38.8153 1.46708 38.7413 1.33699 38.6302C1.15115 38.4637 0.965307 38.2787 0.835218 38.0567C0.70513 37.8532 0.61221 37.6312 0.575041 37.4277C0.482121 37.0391 0.575042 36.7246 0.444953 36.6876C0.389201 36.6691 0.314865 36.7246 0.221944 36.8541C0.129024 36.9836 0.0546875 37.1871 0.0546875 37.4647C0.0546875 37.7422 0.11044 38.0567 0.259112 38.3527C0.407785 38.6673 0.649378 38.9633 0.946723 39.2038C1.37416 39.5553 1.87593 39.7218 2.3777 39.8143C3.21398 39.9623 4.01309 39.9253 4.79363 39.9253C5.59274 39.9253 6.41044 39.9253 7.22814 39.9253C8.06442 39.9253 8.91929 39.9438 9.81133 39.9438C10.2573 39.9438 10.7034 39.9438 11.168 39.9438C11.614 39.9438 12.1343 39.9623 12.6547 39.7958C12.9149 39.7218 13.175 39.5553 13.3609 39.3148C13.5467 39.0743 13.6768 38.7968 13.7697 38.5377C13.937 38.0382 14.1228 37.5017 14.3087 36.9466C14.6804 35.8365 15.0706 34.6524 15.4609 33.4499C15.7025 32.7098 15.9812 31.8032 15.8326 31.6552C15.6467 31.5997 15.3308 32.4323 15.0892 33.0243Z" fill="#545AE8"/>
<path d="M17.5941 25.5146C17.7056 25.3296 17.7985 25.1076 17.91 24.8856C19.0065 22.6469 19.787 20.2787 20.679 17.9661C20.8649 17.5035 21.0135 16.9115 20.7905 16.856C20.5675 16.782 20.2516 17.226 20.0286 17.7626C19.9542 17.9476 19.8799 18.1511 19.8056 18.3361C19.4153 19.6312 18.8764 20.8893 18.3188 22.4619C18.0215 23.202 17.6126 24.201 17.2224 25.2186C17.0923 25.5331 16.9622 25.9217 17.1295 26.0327C17.2596 26.0882 17.4454 25.7367 17.5941 25.5146Z" fill="#545AE8"/>
</g>
<defs>
<clipPath id="clip0_113_788">
<rect width="42" height="40" fill="white"/>
</clipPath>
</defs>
</svg>
