<svg width="56" height="35" viewBox="0 0 56 35" fill="none" xmlns="http://www.w3.org/2000/svg">
<g clip-path="url(#clip0_113_777)">
<path d="M27.9624 34.6841C22.5771 34.6841 17.1918 34.6841 11.8066 34.6841C9.57531 34.6841 7.47825 34.201 5.54895 33.0849C3.11635 31.6689 1.27094 29.7531 0.583101 26.9545C0.146911 25.1886 0.24757 23.3895 0.868301 21.657C1.7239 19.2248 3.18346 17.2258 5.36441 15.7765C5.90126 15.4266 6.47166 15.1434 7.07561 14.9102C7.31048 14.8269 7.46147 14.7103 7.46147 14.4104C7.42792 12.478 7.83055 10.6289 8.60227 8.86308C10.0283 5.61463 12.3602 3.21577 15.5645 1.6665C17.3093 0.833568 19.1379 0.367124 21.1008 0.317148C23.4663 0.250513 25.7143 0.666981 27.8449 1.71648C30.6802 3.11581 32.8276 5.21482 34.2703 8.01348C34.5555 8.56322 34.5555 8.56322 35.0924 8.26336C37.6424 6.76408 41.2494 7.19721 43.3968 9.22957C44.7221 10.479 45.5442 11.9783 45.7119 13.7941C45.7287 14.0773 45.8629 14.2272 46.1817 14.2938C50.7784 15.1601 53.8485 17.8755 55.2913 22.2234C56.3818 25.5385 55.5597 28.5537 53.0768 31.0858C51.1811 33.0182 48.8659 34.1011 46.232 34.5675C45.5945 34.6841 44.9234 34.6841 44.2691 34.6841C38.8335 34.6841 33.398 34.6841 27.9624 34.6841ZM29.5394 28.6037C29.6232 28.6037 29.6903 28.6037 29.7742 28.6037C30.6969 28.6037 30.6969 28.6037 30.8815 27.6874C31.2841 25.7051 31.67 23.7227 32.0726 21.7236C32.4249 19.9911 32.7772 18.2753 33.1295 16.5428C33.247 15.993 33.1463 15.8764 32.5759 15.8764C32.341 15.8764 32.1062 15.8931 31.8713 15.8764C31.4687 15.8431 31.2841 15.993 31.2338 16.4095C30.9989 17.9254 30.7137 19.458 30.4621 20.974C30.2272 22.39 30.0091 23.806 29.7742 25.222C29.7575 25.3719 29.8078 25.6051 29.6065 25.6051C29.3716 25.6218 29.3884 25.3719 29.3716 25.222C29.2206 24.4223 29.1032 23.6227 28.969 22.8231C28.6334 20.8907 28.3147 18.9583 27.9456 17.0259C27.6939 15.6765 27.9456 15.9264 26.637 15.8931C26.4357 15.8931 26.2344 15.8931 26.0163 15.8931C25.7814 15.8931 25.6472 15.9764 25.6137 16.2429C25.2781 18.2753 24.9258 20.291 24.5735 22.3233C24.4057 23.2895 24.2548 24.2557 24.1038 25.222C24.087 25.3386 24.0702 25.4885 23.9025 25.5052C23.7347 25.5218 23.7179 25.3552 23.7011 25.2386C23.6508 24.9887 23.6508 24.7389 23.6173 24.5056C23.1978 22.0568 22.7784 19.6246 22.359 17.1758C22.1241 15.7931 22.1074 15.8098 20.6981 15.8931C20.6646 15.8931 20.631 15.8931 20.5975 15.8931C20.3291 15.8931 20.2284 16.043 20.2619 16.2929C20.2787 16.4595 20.3123 16.626 20.3458 16.7926C20.7149 18.6751 21.1008 20.5575 21.4699 22.4399C21.8389 24.3557 22.208 26.2715 22.5603 28.1872C22.6107 28.5037 22.7952 28.637 23.114 28.637C23.5669 28.6203 24.0199 28.6203 24.4729 28.637C24.8252 28.6537 24.9929 28.4704 25.0433 28.1539C25.0936 27.8374 25.1271 27.5375 25.1775 27.221C25.4962 25.3386 25.7982 23.4728 26.117 21.5904C26.2344 20.9073 26.3518 20.2077 26.486 19.5247C26.5028 19.4081 26.5364 19.2415 26.7041 19.2748C26.8383 19.2914 26.8551 19.4247 26.8551 19.5413C26.8551 19.9245 26.9893 20.2743 27.0564 20.6408C27.4423 22.9564 27.8449 25.2719 28.2476 27.6042C28.4321 28.7036 28.2308 28.6037 29.5394 28.6037ZM19.1715 28.6037C20.2619 28.6037 20.2452 28.6037 19.9767 27.6375C19.5238 26.0049 19.0876 24.3557 18.6682 22.7065C18.0978 20.5575 17.5274 18.3919 16.9738 16.2429C16.9066 15.993 16.7724 15.8764 16.5208 15.8764C15.9001 15.8764 15.2961 15.8764 14.6754 15.8764C14.4405 15.8764 14.2895 15.943 14.2224 16.1929C14.1721 16.3928 14.105 16.5761 14.0379 16.776C13.3165 19.3248 12.5783 21.8735 11.8569 24.4223C11.5046 25.6717 11.1355 26.9045 10.7832 28.1539C10.6993 28.4537 10.8 28.6037 11.1188 28.6037C11.4711 28.6037 11.8066 28.587 12.1589 28.6037C12.5615 28.637 12.7461 28.4371 12.8467 28.0539C13.0145 27.321 13.2326 26.6046 13.4171 25.8883C13.501 25.5551 13.7191 25.4052 14.0714 25.4219C15.0109 25.4385 15.9504 25.4385 16.9066 25.4219C17.2925 25.4219 17.477 25.5884 17.5609 25.9383C17.6951 26.5213 17.8294 27.0877 17.9971 27.6708C18.2823 28.8036 18.1481 28.587 19.1715 28.6037ZM35.4279 24.7555C35.4279 24.7722 35.4279 24.7722 35.4279 24.7555C35.2266 24.7555 35.0253 24.7555 34.8072 24.7555C34.6059 24.7555 34.4884 24.8721 34.4884 25.072C34.4717 26.2381 34.7401 27.3376 35.7131 28.0706C37.0888 29.1034 38.6658 29.0368 40.2092 28.5704C41.7359 28.1039 42.4237 26.9711 42.5076 25.3386C42.6083 23.2729 41.6688 22.34 40.3099 21.8236C39.4878 21.5071 38.649 21.2239 37.8605 20.8407C36.7365 20.291 36.3674 19.4247 36.6526 18.2586C36.8371 17.509 37.525 16.9925 38.3638 16.9759C39.2865 16.9759 39.9408 17.4257 40.1589 18.2086C40.4105 19.1415 40.4105 19.1415 41.4004 19.1249C41.5346 19.1249 41.6856 19.1249 41.8198 19.1249C42.0714 19.1249 42.2224 18.9916 42.2056 18.7417C42.1217 17.6422 41.9037 16.6094 40.8132 16.043C39.5549 15.41 38.2464 15.4266 36.921 15.8264C35.6292 16.2096 34.9246 17.1258 34.7065 18.4085C34.6394 18.7584 34.673 19.1249 34.673 19.4747C34.6898 20.6741 35.2266 21.557 36.2835 22.1401C37.223 22.6565 38.2631 22.9397 39.253 23.3229C40.6454 23.8559 40.7964 25.4552 40.3938 26.3381C40.0079 27.2043 39.0684 27.5542 37.9276 27.321C37.1223 27.171 36.5352 26.4714 36.4513 25.5884C36.3674 24.7055 36.3674 24.7055 35.4782 24.7055C35.4615 24.7555 35.4447 24.7555 35.4279 24.7555Z" fill="#FBBE40"/>
<path d="M15.4629 23.9223C15.0938 23.9223 14.708 23.9223 14.3389 23.9223C14.0369 23.9223 13.9195 23.7724 13.9866 23.4725C14.4228 21.6901 14.8422 19.8909 15.2951 18.1084C15.3287 17.9752 15.3119 17.7419 15.5132 17.7419C15.7313 17.7419 15.7145 17.9752 15.7481 18.1418C16.1507 19.8743 16.5701 21.6068 16.956 23.3393C17.0734 23.8724 17.0231 23.939 16.4695 23.939C16.134 23.9223 15.7984 23.9223 15.4629 23.9223Z" fill="#FBBE40"/>
</g>
<defs>
<clipPath id="clip0_113_777">
<rect width="56" height="35" fill="white"/>
</clipPath>
</defs>
</svg>
