<svg width="24" height="24" viewBox="0 0 24 24" fill="none" xmlns="http://www.w3.org/2000/svg">
<path d="M3.68372 3.45713C3.68372 2.55956 4.04028 1.69876 4.67496 1.06408C5.30963 0.429403 6.17044 0.0728455 7.06801 0.0728455C7.96557 0.0728455 8.82638 0.429403 9.46106 1.06408C10.0957 1.69876 10.4523 2.55956 10.4523 3.45713C10.4523 4.3547 10.0957 5.2155 9.46106 5.85018C8.82638 6.48486 7.96557 6.84141 7.06801 6.84141C6.17044 6.84141 5.30963 6.48486 4.67496 5.85018C4.04028 5.2155 3.68372 4.3547 3.68372 3.45713ZM15.1548 6.13748L15.2258 6.19163C15.9438 6.72382 16.8431 6.95042 17.7275 6.82197C18.6119 6.69353 19.4097 6.22047 19.9466 5.50603C20.4835 4.7916 20.716 3.89379 20.5934 3.00854C20.4708 2.12329 20.003 1.32248 19.2922 0.780857C18.5813 0.239238 17.685 0.000788274 16.799 0.117547C15.9129 0.234306 15.1091 0.696793 14.5628 1.40408C14.0165 2.11136 13.7721 3.00602 13.883 3.89281C13.9939 4.7796 14.4511 5.58653 15.1548 6.13748ZM9.21364 8.53355C9.42618 8.1311 9.71771 7.77565 10.0708 7.48847C10.4239 7.20129 10.8312 6.98828 11.2686 6.86217C11.7059 6.73607 12.1641 6.69947 12.6159 6.75456C13.0677 6.80965 13.5037 6.9553 13.8979 7.18279C14.2921 7.41029 14.6363 7.71496 14.9101 8.07857C15.1838 8.44219 15.3814 8.85728 15.4909 9.29901C15.6005 9.74074 15.6199 10.2 15.5479 10.6494C15.4759 11.0988 15.314 11.5291 15.0718 11.9145C14.606 12.6558 13.871 13.1878 13.0212 13.3987C12.1714 13.6095 11.2729 13.4828 10.5146 13.0451C9.75627 12.6075 9.19706 11.8929 8.95446 11.0516C8.71187 10.2104 8.80477 9.30779 9.21364 8.53355ZM2.83765 8.53355H7.35567C7.05493 9.39241 6.98954 10.3161 7.16629 11.2088C7.34303 12.1014 7.75548 12.9305 8.3608 13.61H7.91408C7.04167 13.6099 6.19054 13.8793 5.4772 14.3816C4.76385 14.8838 4.22314 15.5942 3.92908 16.4156C3.36109 16.1874 2.82927 15.8779 2.35031 15.4967C1.07782 14.473 0.299438 12.9602 0.299438 11.0718C0.299438 10.3986 0.566857 9.75299 1.04286 9.27698C1.51887 8.80097 2.16448 8.53355 2.83765 8.53355ZM16.3748 13.61C17.247 13.61 18.0978 13.8795 18.8109 14.3817C19.5239 14.884 20.0643 15.5943 20.3581 16.4156C20.9334 16.1803 21.4664 15.8741 21.9385 15.4967C23.211 14.473 23.9894 12.9602 23.9894 11.0718C23.9894 10.3986 23.722 9.75299 23.246 9.27698C22.77 8.80097 22.1244 8.53355 21.4512 8.53355H16.9332C17.1193 9.06319 17.2209 9.63345 17.2209 10.2257C17.2224 11.4747 16.7619 12.6801 15.9281 13.61H16.3748ZM18.7218 16.8724C18.8453 17.1702 18.913 17.4985 18.913 17.8403C18.913 19.7288 18.1363 21.2415 16.8621 22.2653C15.6082 23.2721 13.9263 23.7628 12.1444 23.7628C10.3626 23.7628 8.68062 23.2721 7.42674 22.2653C6.15425 21.2415 5.37586 19.7288 5.37586 17.8403C5.37497 17.5068 5.44001 17.1763 5.56725 16.8679C5.6945 16.5596 5.88142 16.2794 6.1173 16.0436C6.35317 15.8077 6.63334 15.6208 6.94169 15.4935C7.25004 15.3663 7.5805 15.3012 7.91408 15.3021H16.3748C16.8775 15.302 17.369 15.4512 17.7868 15.7308C18.2047 16.0103 18.5301 16.4077 18.7218 16.8724Z" fill="#516FE9"/>
</svg>
