<svg xmlns="http://www.w3.org/2000/svg" viewBox="0 0 23.53 22.35"><defs><style>.cls-1{fill:#fff;}</style></defs><g id="Layer_2" data-name="Layer 2"><g id="Layer_1-2" data-name="Layer 1"><path class="cls-1" d="M5.88,8.23A2.94,2.94,0,1,0,3.8,7.37,2.94,2.94,0,0,0,5.88,8.23Zm0,2.36a5.21,5.21,0,0,1-2-.41A5.12,5.12,0,0,1,2.14,9,5.52,5.52,0,0,1,1,7.32,5.33,5.33,0,0,1,1,3.27,5.41,5.41,0,0,1,2.14,1.55,5.3,5.3,0,0,1,3.86.4a5.39,5.39,0,0,1,2-.4,5.3,5.3,0,0,1,0,10.59Zm12.35,2.35a2.36,2.36,0,1,0-1.66-.69A2.36,2.36,0,0,0,18.23,12.94Zm0,2.35a4.71,4.71,0,0,1,0-9.41,4.71,4.71,0,1,1,0,9.41Zm2.94,7.06v-.59a2.94,2.94,0,1,0-5.88,0v.59H12.94v-.59a5.39,5.39,0,0,1,.4-2A5.3,5.3,0,0,1,14.49,18a5.31,5.31,0,0,1,5.77-1.15A5.52,5.52,0,0,1,22,18a5.12,5.12,0,0,1,1.14,1.72,5.21,5.21,0,0,1,.41,2v.59Zm-11.76,0V17.64a3.53,3.53,0,0,0-7.06,0v4.71H0V17.64a5.88,5.88,0,0,1,11.76,0v4.71Z"/></g></g></svg>