<svg width="159" height="159" viewBox="0 0 159 159" fill="none" xmlns="http://www.w3.org/2000/svg">
<path fill-rule="evenodd" clip-rule="evenodd" d="M3 6C4.65685 6 6 4.65685 6 3C6 1.34315 4.65685 0 3 0C1.34315 0 0 1.34315 0 3C0 4.65685 1.34315 6 3 6ZM20 6C21.6569 6 23 4.65685 23 3C23 1.34315 21.6569 0 20 0C18.3431 0 17 1.34315 17 3C17 4.65685 18.3431 6 20 6ZM40 3C40 4.65685 38.6569 6 37 6C35.3431 6 34 4.65685 34 3C34 1.34315 35.3431 0 37 0C38.6569 0 40 1.34315 40 3ZM54 6C55.6569 6 57 4.65685 57 3C57 1.34315 55.6569 0 54 0C52.3431 0 51 1.34315 51 3C51 4.65685 52.3431 6 54 6ZM74 3C74 4.65685 72.6569 6 71 6C69.3431 6 68 4.65685 68 3C68 1.34315 69.3431 0 71 0C72.6569 0 74 1.34315 74 3ZM88 6C89.6569 6 91 4.65685 91 3C91 1.34315 89.6569 0 88 0C86.3431 0 85 1.34315 85 3C85 4.65685 86.3431 6 88 6ZM108 3C108 4.65685 106.657 6 105 6C103.343 6 102 4.65685 102 3C102 1.34315 103.343 0 105 0C106.657 0 108 1.34315 108 3ZM122 6C123.657 6 125 4.65685 125 3C125 1.34315 123.657 0 122 0C120.343 0 119 1.34315 119 3C119 4.65685 120.343 6 122 6ZM142 3C142 4.65685 140.657 6 139 6C137.343 6 136 4.65685 136 3C136 1.34315 137.343 0 139 0C140.657 0 142 1.34315 142 3ZM156 6C157.657 6 159 4.65685 159 3C159 1.34315 157.657 0 156 0C154.343 0 153 1.34315 153 3C153 4.65685 154.343 6 156 6ZM6 20C6 21.6569 4.65685 23 3 23C1.34315 23 0 21.6569 0 20C0 18.3431 1.34315 17 3 17C4.65685 17 6 18.3431 6 20ZM20 23C21.6569 23 23 21.6569 23 20C23 18.3431 21.6569 17 20 17C18.3431 17 17 18.3431 17 20C17 21.6569 18.3431 23 20 23ZM40 20C40 21.6569 38.6569 23 37 23C35.3431 23 34 21.6569 34 20C34 18.3431 35.3431 17 37 17C38.6569 17 40 18.3431 40 20ZM54 23C55.6569 23 57 21.6569 57 20C57 18.3431 55.6569 17 54 17C52.3431 17 51 18.3431 51 20C51 21.6569 52.3431 23 54 23ZM74 20C74 21.6569 72.6569 23 71 23C69.3431 23 68 21.6569 68 20C68 18.3431 69.3431 17 71 17C72.6569 17 74 18.3431 74 20ZM88 23C89.6569 23 91 21.6569 91 20C91 18.3431 89.6569 17 88 17C86.3431 17 85 18.3431 85 20C85 21.6569 86.3431 23 88 23ZM108 20C108 21.6569 106.657 23 105 23C103.343 23 102 21.6569 102 20C102 18.3431 103.343 17 105 17C106.657 17 108 18.3431 108 20ZM122 23C123.657 23 125 21.6569 125 20C125 18.3431 123.657 17 122 17C120.343 17 119 18.3431 119 20C119 21.6569 120.343 23 122 23ZM142 20C142 21.6569 140.657 23 139 23C137.343 23 136 21.6569 136 20C136 18.3431 137.343 17 139 17C140.657 17 142 18.3431 142 20ZM156 23C157.657 23 159 21.6569 159 20C159 18.3431 157.657 17 156 17C154.343 17 153 18.3431 153 20C153 21.6569 154.343 23 156 23ZM6 37C6 38.6569 4.65685 40 3 40C1.34315 40 0 38.6569 0 37C0 35.3431 1.34315 34 3 34C4.65685 34 6 35.3431 6 37ZM20 40C21.6569 40 23 38.6569 23 37C23 35.3431 21.6569 34 20 34C18.3431 34 17 35.3431 17 37C17 38.6569 18.3431 40 20 40ZM40 37C40 38.6569 38.6569 40 37 40C35.3431 40 34 38.6569 34 37C34 35.3431 35.3431 34 37 34C38.6569 34 40 35.3431 40 37ZM54 40C55.6569 40 57 38.6569 57 37C57 35.3431 55.6569 34 54 34C52.3431 34 51 35.3431 51 37C51 38.6569 52.3431 40 54 40ZM74 37C74 38.6569 72.6569 40 71 40C69.3431 40 68 38.6569 68 37C68 35.3431 69.3431 34 71 34C72.6569 34 74 35.3431 74 37ZM88 40C89.6569 40 91 38.6569 91 37C91 35.3431 89.6569 34 88 34C86.3431 34 85 35.3431 85 37C85 38.6569 86.3431 40 88 40ZM108 37C108 38.6569 106.657 40 105 40C103.343 40 102 38.6569 102 37C102 35.3431 103.343 34 105 34C106.657 34 108 35.3431 108 37ZM122 40C123.657 40 125 38.6569 125 37C125 35.3431 123.657 34 122 34C120.343 34 119 35.3431 119 37C119 38.6569 120.343 40 122 40ZM142 37C142 38.6569 140.657 40 139 40C137.343 40 136 38.6569 136 37C136 35.3431 137.343 34 139 34C140.657 34 142 35.3431 142 37ZM156 40C157.657 40 159 38.6569 159 37C159 35.3431 157.657 34 156 34C154.343 34 153 35.3431 153 37C153 38.6569 154.343 40 156 40ZM6 54C6 55.6569 4.65685 57 3 57C1.34315 57 0 55.6569 0 54C0 52.3431 1.34315 51 3 51C4.65685 51 6 52.3431 6 54ZM20 57C21.6569 57 23 55.6569 23 54C23 52.3431 21.6569 51 20 51C18.3431 51 17 52.3431 17 54C17 55.6569 18.3431 57 20 57ZM40 54C40 55.6569 38.6569 57 37 57C35.3431 57 34 55.6569 34 54C34 52.3431 35.3431 51 37 51C38.6569 51 40 52.3431 40 54ZM54 57C55.6569 57 57 55.6569 57 54C57 52.3431 55.6569 51 54 51C52.3431 51 51 52.3431 51 54C51 55.6569 52.3431 57 54 57ZM74 54C74 55.6569 72.6569 57 71 57C69.3431 57 68 55.6569 68 54C68 52.3431 69.3431 51 71 51C72.6569 51 74 52.3431 74 54ZM88 57C89.6569 57 91 55.6569 91 54C91 52.3431 89.6569 51 88 51C86.3431 51 85 52.3431 85 54C85 55.6569 86.3431 57 88 57ZM108 54C108 55.6569 106.657 57 105 57C103.343 57 102 55.6569 102 54C102 52.3431 103.343 51 105 51C106.657 51 108 52.3431 108 54ZM122 57C123.657 57 125 55.6569 125 54C125 52.3431 123.657 51 122 51C120.343 51 119 52.3431 119 54C119 55.6569 120.343 57 122 57ZM142 54C142 55.6569 140.657 57 139 57C137.343 57 136 55.6569 136 54C136 52.3431 137.343 51 139 51C140.657 51 142 52.3431 142 54ZM156 57C157.657 57 159 55.6569 159 54C159 52.3431 157.657 51 156 51C154.343 51 153 52.3431 153 54C153 55.6569 154.343 57 156 57ZM6 71C6 72.6569 4.65685 74 3 74C1.34315 74 0 72.6569 0 71C0 69.3431 1.34315 68 3 68C4.65685 68 6 69.3431 6 71ZM20 74C21.6569 74 23 72.6569 23 71C23 69.3431 21.6569 68 20 68C18.3431 68 17 69.3431 17 71C17 72.6569 18.3431 74 20 74ZM40 71C40 72.6569 38.6569 74 37 74C35.3431 74 34 72.6569 34 71C34 69.3431 35.3431 68 37 68C38.6569 68 40 69.3431 40 71ZM54 74C55.6569 74 57 72.6569 57 71C57 69.3431 55.6569 68 54 68C52.3431 68 51 69.3431 51 71C51 72.6569 52.3431 74 54 74ZM74 71C74 72.6569 72.6569 74 71 74C69.3431 74 68 72.6569 68 71C68 69.3431 69.3431 68 71 68C72.6569 68 74 69.3431 74 71ZM88 74C89.6569 74 91 72.6569 91 71C91 69.3431 89.6569 68 88 68C86.3431 68 85 69.3431 85 71C85 72.6569 86.3431 74 88 74ZM108 71C108 72.6569 106.657 74 105 74C103.343 74 102 72.6569 102 71C102 69.3431 103.343 68 105 68C106.657 68 108 69.3431 108 71ZM122 74C123.657 74 125 72.6569 125 71C125 69.3431 123.657 68 122 68C120.343 68 119 69.3431 119 71C119 72.6569 120.343 74 122 74ZM142 71C142 72.6569 140.657 74 139 74C137.343 74 136 72.6569 136 71C136 69.3431 137.343 68 139 68C140.657 68 142 69.3431 142 71ZM156 74C157.657 74 159 72.6569 159 71C159 69.3431 157.657 68 156 68C154.343 68 153 69.3431 153 71C153 72.6569 154.343 74 156 74ZM6 88C6 89.6569 4.65685 91 3 91C1.34315 91 0 89.6569 0 88C0 86.3431 1.34315 85 3 85C4.65685 85 6 86.3431 6 88ZM20 91C21.6569 91 23 89.6569 23 88C23 86.3431 21.6569 85 20 85C18.3431 85 17 86.3431 17 88C17 89.6569 18.3431 91 20 91ZM40 88C40 89.6569 38.6569 91 37 91C35.3431 91 34 89.6569 34 88C34 86.3431 35.3431 85 37 85C38.6569 85 40 86.3431 40 88ZM54 91C55.6569 91 57 89.6569 57 88C57 86.3431 55.6569 85 54 85C52.3431 85 51 86.3431 51 88C51 89.6569 52.3431 91 54 91ZM74 88C74 89.6569 72.6569 91 71 91C69.3431 91 68 89.6569 68 88C68 86.3431 69.3431 85 71 85C72.6569 85 74 86.3431 74 88ZM88 91C89.6569 91 91 89.6569 91 88C91 86.3431 89.6569 85 88 85C86.3431 85 85 86.3431 85 88C85 89.6569 86.3431 91 88 91ZM108 88C108 89.6569 106.657 91 105 91C103.343 91 102 89.6569 102 88C102 86.3431 103.343 85 105 85C106.657 85 108 86.3431 108 88ZM122 91C123.657 91 125 89.6569 125 88C125 86.3431 123.657 85 122 85C120.343 85 119 86.3431 119 88C119 89.6569 120.343 91 122 91ZM142 88C142 89.6569 140.657 91 139 91C137.343 91 136 89.6569 136 88C136 86.3431 137.343 85 139 85C140.657 85 142 86.3431 142 88ZM156 91C157.657 91 159 89.6569 159 88C159 86.3431 157.657 85 156 85C154.343 85 153 86.3431 153 88C153 89.6569 154.343 91 156 91ZM6 105C6 106.657 4.65685 108 3 108C1.34315 108 0 106.657 0 105C0 103.343 1.34315 102 3 102C4.65685 102 6 103.343 6 105ZM20 108C21.6569 108 23 106.657 23 105C23 103.343 21.6569 102 20 102C18.3431 102 17 103.343 17 105C17 106.657 18.3431 108 20 108ZM40 105C40 106.657 38.6569 108 37 108C35.3431 108 34 106.657 34 105C34 103.343 35.3431 102 37 102C38.6569 102 40 103.343 40 105ZM54 108C55.6569 108 57 106.657 57 105C57 103.343 55.6569 102 54 102C52.3431 102 51 103.343 51 105C51 106.657 52.3431 108 54 108ZM74 105C74 106.657 72.6569 108 71 108C69.3431 108 68 106.657 68 105C68 103.343 69.3431 102 71 102C72.6569 102 74 103.343 74 105ZM88 108C89.6569 108 91 106.657 91 105C91 103.343 89.6569 102 88 102C86.3431 102 85 103.343 85 105C85 106.657 86.3431 108 88 108ZM108 105C108 106.657 106.657 108 105 108C103.343 108 102 106.657 102 105C102 103.343 103.343 102 105 102C106.657 102 108 103.343 108 105ZM122 108C123.657 108 125 106.657 125 105C125 103.343 123.657 102 122 102C120.343 102 119 103.343 119 105C119 106.657 120.343 108 122 108ZM142 105C142 106.657 140.657 108 139 108C137.343 108 136 106.657 136 105C136 103.343 137.343 102 139 102C140.657 102 142 103.343 142 105ZM156 108C157.657 108 159 106.657 159 105C159 103.343 157.657 102 156 102C154.343 102 153 103.343 153 105C153 106.657 154.343 108 156 108ZM6 122C6 123.657 4.65685 125 3 125C1.34315 125 0 123.657 0 122C0 120.343 1.34315 119 3 119C4.65685 119 6 120.343 6 122ZM20 125C21.6569 125 23 123.657 23 122C23 120.343 21.6569 119 20 119C18.3431 119 17 120.343 17 122C17 123.657 18.3431 125 20 125ZM40 122C40 123.657 38.6569 125 37 125C35.3431 125 34 123.657 34 122C34 120.343 35.3431 119 37 119C38.6569 119 40 120.343 40 122ZM54 125C55.6569 125 57 123.657 57 122C57 120.343 55.6569 119 54 119C52.3431 119 51 120.343 51 122C51 123.657 52.3431 125 54 125ZM74 122C74 123.657 72.6569 125 71 125C69.3431 125 68 123.657 68 122C68 120.343 69.3431 119 71 119C72.6569 119 74 120.343 74 122ZM88 125C89.6569 125 91 123.657 91 122C91 120.343 89.6569 119 88 119C86.3431 119 85 120.343 85 122C85 123.657 86.3431 125 88 125ZM108 122C108 123.657 106.657 125 105 125C103.343 125 102 123.657 102 122C102 120.343 103.343 119 105 119C106.657 119 108 120.343 108 122ZM122 125C123.657 125 125 123.657 125 122C125 120.343 123.657 119 122 119C120.343 119 119 120.343 119 122C119 123.657 120.343 125 122 125ZM142 122C142 123.657 140.657 125 139 125C137.343 125 136 123.657 136 122C136 120.343 137.343 119 139 119C140.657 119 142 120.343 142 122ZM156 125C157.657 125 159 123.657 159 122C159 120.343 157.657 119 156 119C154.343 119 153 120.343 153 122C153 123.657 154.343 125 156 125ZM6 139C6 140.657 4.65685 142 3 142C1.34315 142 0 140.657 0 139C0 137.343 1.34315 136 3 136C4.65685 136 6 137.343 6 139ZM20 142C21.6569 142 23 140.657 23 139C23 137.343 21.6569 136 20 136C18.3431 136 17 137.343 17 139C17 140.657 18.3431 142 20 142ZM40 139C40 140.657 38.6569 142 37 142C35.3431 142 34 140.657 34 139C34 137.343 35.3431 136 37 136C38.6569 136 40 137.343 40 139ZM54 142C55.6569 142 57 140.657 57 139C57 137.343 55.6569 136 54 136C52.3431 136 51 137.343 51 139C51 140.657 52.3431 142 54 142ZM74 139C74 140.657 72.6569 142 71 142C69.3431 142 68 140.657 68 139C68 137.343 69.3431 136 71 136C72.6569 136 74 137.343 74 139ZM88 142C89.6569 142 91 140.657 91 139C91 137.343 89.6569 136 88 136C86.3431 136 85 137.343 85 139C85 140.657 86.3431 142 88 142ZM108 139C108 140.657 106.657 142 105 142C103.343 142 102 140.657 102 139C102 137.343 103.343 136 105 136C106.657 136 108 137.343 108 139ZM122 142C123.657 142 125 140.657 125 139C125 137.343 123.657 136 122 136C120.343 136 119 137.343 119 139C119 140.657 120.343 142 122 142ZM142 139C142 140.657 140.657 142 139 142C137.343 142 136 140.657 136 139C136 137.343 137.343 136 139 136C140.657 136 142 137.343 142 139ZM156 142C157.657 142 159 140.657 159 139C159 137.343 157.657 136 156 136C154.343 136 153 137.343 153 139C153 140.657 154.343 142 156 142ZM6 156C6 157.657 4.65685 159 3 159C1.34315 159 0 157.657 0 156C0 154.343 1.34315 153 3 153C4.65685 153 6 154.343 6 156ZM20 159C21.6569 159 23 157.657 23 156C23 154.343 21.6569 153 20 153C18.3431 153 17 154.343 17 156C17 157.657 18.3431 159 20 159ZM40 156C40 157.657 38.6569 159 37 159C35.3431 159 34 157.657 34 156C34 154.343 35.3431 153 37 153C38.6569 153 40 154.343 40 156ZM54 159C55.6569 159 57 157.657 57 156C57 154.343 55.6569 153 54 153C52.3431 153 51 154.343 51 156C51 157.657 52.3431 159 54 159ZM74 156C74 157.657 72.6569 159 71 159C69.3431 159 68 157.657 68 156C68 154.343 69.3431 153 71 153C72.6569 153 74 154.343 74 156ZM88 159C89.6569 159 91 157.657 91 156C91 154.343 89.6569 153 88 153C86.3431 153 85 154.343 85 156C85 157.657 86.3431 159 88 159ZM108 156C108 157.657 106.657 159 105 159C103.343 159 102 157.657 102 156C102 154.343 103.343 153 105 153C106.657 153 108 154.343 108 156ZM122 159C123.657 159 125 157.657 125 156C125 154.343 123.657 153 122 153C120.343 153 119 154.343 119 156C119 157.657 120.343 159 122 159ZM142 156C142 157.657 140.657 159 139 159C137.343 159 136 157.657 136 156C136 154.343 137.343 153 139 153C140.657 153 142 154.343 142 156ZM156 159C157.657 159 159 157.657 159 156C159 154.343 157.657 153 156 153C154.343 153 153 154.343 153 156C153 157.657 154.343 159 156 159Z" fill="#E59A9E"/>
</svg>
