<svg width="77" height="160" viewBox="0 0 77 160" fill="none" xmlns="http://www.w3.org/2000/svg">
<g opacity="0.5">
<rect x="6.00806" y="0.280334" width="3.46289" height="13.8515" fill="#FBBE40"/>
<rect x="14.6685" y="5.47571" width="3.46289" height="13.8515" transform="rotate(90 14.6685 5.47571)" fill="#FBBE40"/>
<rect x="37.1716" y="0.280334" width="3.46289" height="13.8515" fill="#FBBE40"/>
<rect x="45.832" y="5.47571" width="3.46289" height="13.8515" transform="rotate(90 45.832 5.47571)" fill="#FBBE40"/>
<rect x="68.3396" y="0.280334" width="3.46289" height="13.8515" fill="#FBBE40"/>
<rect x="77" y="5.47571" width="3.46289" height="13.8515" transform="rotate(90 77 5.47571)" fill="#FBBE40"/>
<rect x="6.0083" y="36.6437" width="3.46289" height="13.8515" fill="#FBBE40"/>
<rect x="14.6685" y="41.837" width="3.46289" height="13.8515" transform="rotate(90 14.6685 41.837)" fill="#FBBE40"/>
<rect x="37.1716" y="36.6359" width="3.46289" height="13.8515" fill="#FBBE40"/>
<rect x="45.832" y="41.8292" width="3.46289" height="13.8515" transform="rotate(90 45.832 41.8292)" fill="#FBBE40"/>
<rect x="68.3396" y="36.6359" width="3.46289" height="13.8515" fill="#FBBE40"/>
<rect x="77" y="41.8292" width="3.46289" height="13.8515" transform="rotate(90 77 41.8292)" fill="#FBBE40"/>
<rect x="6.00806" y="72.9991" width="3.46289" height="13.8515" fill="#FBBE40"/>
<rect x="14.6685" y="78.1925" width="3.46289" height="13.8515" transform="rotate(90 14.6685 78.1925)" fill="#FBBE40"/>
<rect x="37.1716" y="72.9991" width="3.46289" height="13.8515" fill="#FBBE40"/>
<rect x="45.832" y="78.1925" width="3.46289" height="13.8515" transform="rotate(90 45.832 78.1925)" fill="#FBBE40"/>
<rect x="67.1716" y="72.9991" width="3.46289" height="13.8515" fill="#FBBE40"/>
<rect x="75.832" y="78.1925" width="3.46289" height="13.8515" transform="rotate(90 75.832 78.1925)" fill="#FBBE40"/>
<rect x="6.00806" y="109.36" width="3.46289" height="13.8515" fill="#FBBE40"/>
<rect x="14.6685" y="114.554" width="3.46289" height="13.8515" transform="rotate(90 14.6685 114.554)" fill="#FBBE40"/>
<rect x="37.1716" y="109.36" width="3.46289" height="13.8515" fill="#FBBE40"/>
<rect x="45.832" y="114.554" width="3.46289" height="13.8515" transform="rotate(90 45.832 114.554)" fill="#FBBE40"/>
<rect x="68.3396" y="109.36" width="3.46289" height="13.8515" fill="#FBBE40"/>
<rect x="77" y="114.554" width="3.46289" height="13.8515" transform="rotate(90 77 114.554)" fill="#FBBE40"/>
<rect x="6.0083" y="145.722" width="3.46289" height="13.8515" fill="#FBBE40"/>
<rect x="14.6685" y="150.915" width="3.46289" height="13.8515" transform="rotate(90 14.6685 150.915)" fill="#FBBE40"/>
<rect x="37.1719" y="145.722" width="3.46289" height="13.8515" fill="#FBBE40"/>
<rect x="45.832" y="150.915" width="3.46289" height="13.8515" transform="rotate(90 45.832 150.915)" fill="#FBBE40"/>
<rect x="68.3398" y="145.722" width="3.46289" height="13.8515" fill="#FBBE40"/>
<rect x="77" y="150.915" width="3.46289" height="13.8515" transform="rotate(90 77 150.915)" fill="#FBBE40"/>
</g>
</svg>
