<svg width="328" height="306" viewBox="0 0 328 306" fill="none" xmlns="http://www.w3.org/2000/svg">
<rect opacity="0.8" width="328" height="306" rx="32" fill="white"/>
<path d="M50.8146 218.66C50.8146 220.955 52.694 222.826 54.9805 222.826H280.476C282.771 222.826 284.642 220.955 284.642 218.66L286.522 89.0753C286.522 86.7802 283.819 82.3111 278.874 82.6489L58.4968 76.9413C55.6214 76.8634 52.8412 77.972 50.7973 80.0073C48.762 82.0426 47.6447 84.8141 47.714 87.6896L50.8146 218.66Z" fill="#0E1951"/>
<path d="M54.9276 214.657C54.9276 216.831 56.7031 218.598 58.8683 218.598H275.028C277.202 218.598 278.968 216.822 278.968 214.657L280.735 97.0159C280.527 89.9399 274.317 87.3936 270.559 87.5408L59.3533 81.8853C57.3353 81.8333 55.378 82.6128 53.9489 84.0418C52.5198 85.4709 51.7317 87.4282 51.7837 89.4462L54.9276 214.666V214.657Z" fill="#97B1F3"/>
<path d="M276.646 158.571C276.845 158.571 277.018 158.406 277.018 158.207L277.157 148.663C277.157 148.455 276.992 148.29 276.793 148.282C276.594 148.273 276.421 148.446 276.412 148.645L276.273 158.19C276.273 158.398 276.438 158.562 276.637 158.571H276.646Z" fill="#C0CEF6"/>
<path d="M276.985 135.187C277.184 135.187 277.358 135.022 277.358 134.823L277.895 98.2826C277.886 95.8229 277.124 93.8655 275.643 92.4451C272.949 89.8642 268.74 89.9941 268.558 90.0027L201.115 88.1926C200.908 88.1753 200.743 88.3485 200.734 88.5564C200.734 88.7642 200.89 88.9288 201.098 88.9374L268.567 90.7476C268.757 90.7476 272.663 90.6177 275.132 92.9821C276.466 94.2552 277.141 96.0394 277.15 98.2826L276.613 134.814C276.613 135.022 276.777 135.187 276.976 135.195L276.985 135.187Z" fill="#C0CEF6"/>
<path d="M263.665 191.733C263.474 183.488 263.544 110.494 264.02 104.189C264.496 97.8835 254.675 96.7056 239.605 95.9954C224.535 95.2852 97.3405 92.4791 94.0667 92.2106C86.7049 91.613 85.1806 102.612 85.9168 126.499C86.4711 144.445 87.3891 174.004 87.8048 187.602C87.9348 191.647 91.2432 194.86 95.2879 194.869C125.896 194.955 243.199 195.293 251.011 195.518C260.001 195.787 263.743 194.998 263.665 191.725V191.733Z" fill="#C0CEF6"/>
<path d="M43.8417 233.584H289.084C292.098 233.584 294.567 231.02 294.567 227.893C294.567 224.758 292.098 222.203 289.084 222.203H43.8417C40.8277 222.203 38.3594 224.767 38.3594 227.893C38.3594 231.029 40.8277 233.584 43.8417 233.584Z" fill="#0E1951"/>
<path d="M220.324 32.1562H135.594V66.5748H220.324V32.1562Z" fill="white"/>
<path d="M220.312 66.5744C220.312 66.5744 220.312 66.3666 220.303 65.9595C220.303 65.5524 220.303 64.9548 220.295 64.1753C220.295 62.6077 220.277 60.2952 220.269 57.3245C220.26 51.3832 220.243 42.7915 220.217 32.1559L220.312 32.2512C198.755 32.2598 168.754 32.2771 135.591 32.2945L135.721 32.1646C135.721 44.2206 135.721 55.8522 135.721 66.5831L135.591 66.4532C160.145 66.4791 181.303 66.4965 196.339 66.5138C203.865 66.5311 209.85 66.5398 213.964 66.5484C216.016 66.5484 217.601 66.5571 218.684 66.5658C219.221 66.5658 219.628 66.5658 219.905 66.5658C220.182 66.5658 220.321 66.5658 220.321 66.5658C220.321 66.5658 220.191 66.5658 219.914 66.5658C219.636 66.5658 219.238 66.5658 218.71 66.5658C217.636 66.5658 216.06 66.5744 214.016 66.5831C209.91 66.5831 203.934 66.6004 196.425 66.6177C181.372 66.635 160.179 66.6524 135.591 66.6783H135.461V66.5484C135.461 55.8175 135.461 44.1859 135.461 32.1299V32H135.6C168.762 32.0173 198.772 32.026 220.321 32.0433H220.416V32.1386C220.39 42.8002 220.373 51.4091 220.364 57.3592C220.355 60.3212 220.347 62.625 220.338 64.184C220.338 64.9548 220.338 65.5524 220.329 65.9508C220.329 66.3492 220.321 66.5484 220.321 66.5484L220.312 66.5744Z" fill="#0E1951"/>
<path d="M163.255 40.0469H142.789V60.5126H163.255V40.0469Z" fill="#139F7F"/>
<path d="M214.46 47.876C214.46 47.954 203.929 48.0059 190.937 48.0059C177.946 48.0059 167.414 47.9453 167.414 47.876C167.414 47.8067 177.946 47.7461 190.937 47.7461C203.929 47.7461 214.46 47.8067 214.46 47.876Z" fill="#0E1951"/>
<path d="M214.46 52.0518C214.46 52.1297 203.929 52.1817 190.937 52.1817C177.946 52.1817 167.414 52.1211 167.414 52.0518C167.414 51.9825 177.946 51.9219 190.937 51.9219C203.929 51.9219 214.46 51.9825 214.46 52.0518Z" fill="#0E1951"/>
<path d="M197.702 56.2165C197.702 56.2165 197.598 56.2339 197.39 56.2425C197.157 56.2425 196.871 56.2598 196.507 56.2685C195.701 56.2772 194.602 56.2945 193.259 56.3118C190.488 56.3205 186.72 56.3378 182.554 56.3551C178.388 56.3378 174.621 56.3291 171.849 56.3118C170.507 56.2945 169.407 56.2772 168.601 56.2685C168.246 56.2598 167.952 56.2512 167.718 56.2425C167.519 56.2339 167.406 56.2252 167.406 56.2165C167.406 56.2079 167.51 56.1992 167.718 56.1905C167.952 56.1905 168.238 56.1732 168.601 56.1646C169.407 56.1559 170.507 56.1386 171.849 56.1213C174.621 56.1126 178.388 56.0953 182.554 56.078C186.72 56.0953 190.488 56.1039 193.259 56.1213C194.602 56.1386 195.701 56.1559 196.507 56.1646C196.862 56.1732 197.157 56.1819 197.39 56.1905C197.59 56.1992 197.702 56.2079 197.702 56.2165Z" fill="#0E1951"/>
<path d="M123.639 45.9961H34.25V104.977H123.639V45.9961Z" fill="white"/>
<path d="M123.641 104.987C123.641 104.987 123.623 104.614 123.615 103.904C123.615 103.185 123.606 102.146 123.589 100.786C123.58 98.0494 123.563 94.0481 123.537 88.9208C123.511 78.6749 123.476 63.9514 123.433 45.9973L123.632 46.1965C99.0695 46.2138 67.9768 46.2311 34.2512 46.2484L34.5023 45.9973C34.5023 66.9827 34.485 86.9548 34.485 104.978L34.2512 104.744C60.5284 104.788 82.839 104.831 98.6018 104.857C106.483 104.883 112.728 104.909 117.024 104.918C119.154 104.926 120.8 104.944 121.934 104.944C122.48 104.944 122.904 104.952 123.208 104.961C123.493 104.961 123.649 104.978 123.649 104.978C123.649 104.978 123.511 104.987 123.234 104.995C122.939 104.995 122.532 104.995 121.986 105.013C120.869 105.013 119.241 105.03 117.128 105.039C112.849 105.056 106.622 105.073 98.7664 105.099C82.9689 105.125 60.5977 105.169 34.2598 105.212H34.0173V104.978C34.0173 86.9548 34 66.9827 34 45.9973V45.7461H34.2512C67.9768 45.7634 99.0695 45.7807 123.632 45.7981H123.831V45.9973C123.788 64.0033 123.753 78.7702 123.727 89.0507C123.701 94.152 123.684 98.1447 123.675 100.873C123.667 102.215 123.658 103.237 123.649 103.948C123.649 104.64 123.623 104.987 123.623 104.987H123.641Z" fill="#0E1951"/>
<path d="M124.057 52.0168C124.057 52.1554 104.093 52.268 79.4701 52.268C54.8471 52.268 34.875 52.1554 34.875 52.0168C34.875 51.8782 54.8384 51.7656 79.4701 51.7656C104.102 51.7656 124.057 51.8782 124.057 52.0168Z" fill="#0E1951"/>
<path d="M70.517 60.5117H42.0312V98.0568H70.517V60.5117Z" fill="#139F7F"/>
<path d="M115.864 62.2629C115.864 62.4015 106.926 62.5141 95.9009 62.5141C84.8756 62.5141 75.9375 62.4015 75.9375 62.2629C75.9375 62.1243 84.8756 62.0117 95.9009 62.0117C106.926 62.0117 115.864 62.1243 115.864 62.2629Z" fill="#0E1951"/>
<path d="M115.864 66.9543C115.864 67.0929 106.926 67.2055 95.9009 67.2055C84.8756 67.2055 75.9375 67.0929 75.9375 66.9543C75.9375 66.8157 84.8756 66.7031 95.9009 66.7031C106.926 66.7031 115.864 66.8157 115.864 66.9543Z" fill="#0E1951"/>
<path d="M115.864 71.6574C115.864 71.796 106.926 71.9086 95.9009 71.9086C84.8756 71.9086 75.9375 71.796 75.9375 71.6574C75.9375 71.5188 84.8756 71.4062 95.9009 71.4062C106.926 71.4062 115.864 71.5188 115.864 71.6574Z" fill="#0E1951"/>
<path d="M115.864 76.3527C115.864 76.4913 106.926 76.6039 95.9009 76.6039C84.8756 76.6039 75.9375 76.4913 75.9375 76.3527C75.9375 76.2142 84.8756 76.1016 95.9009 76.1016C106.926 76.1016 115.864 76.2142 115.864 76.3527Z" fill="#0E1951"/>
<path d="M114.635 80.25H98.5859V98.0569H114.635V80.25Z" fill="#139F7F"/>
<path d="M95.9419 81.0559C95.9419 81.1944 91.5768 81.307 86.1897 81.307C80.8026 81.307 76.4375 81.1944 76.4375 81.0559C76.4375 80.9173 80.8026 80.8047 86.1897 80.8047C91.5768 80.8047 95.9419 80.9173 95.9419 81.0559Z" fill="#0E1951"/>
<path d="M95.9419 85.7512C95.9419 85.8897 91.5768 86.0023 86.1897 86.0023C80.8026 86.0023 76.4375 85.8897 76.4375 85.7512C76.4375 85.6126 80.8026 85.5 86.1897 85.5C91.5768 85.5 95.9419 85.6126 95.9419 85.7512Z" fill="#0E1951"/>
<path d="M95.9419 91.1965C95.9419 91.3351 91.5768 91.4476 86.1897 91.4476C80.8026 91.4476 76.4375 91.3351 76.4375 91.1965C76.4375 91.0579 80.8026 90.9453 86.1897 90.9453C91.5768 90.9453 95.9419 91.0579 95.9419 91.1965Z" fill="#0E1951"/>
<path d="M95.4419 96.7473C95.4419 96.8858 91.0768 96.9984 85.6897 96.9984C80.3026 96.9984 75.9375 96.8858 75.9375 96.7473C75.9375 96.6087 80.3026 96.4961 85.6897 96.4961C91.0768 96.4961 95.4419 96.6087 95.4419 96.7473Z" fill="#0E1951"/>
<mask id="mask0_16_93" style="mask-type:alpha" maskUnits="userSpaceOnUse" x="85" y="92" width="180" height="104">
<path d="M263.665 191.733C263.474 183.488 263.544 110.494 264.02 104.189C264.496 97.8835 254.675 96.7056 239.605 95.9954C224.535 95.2852 97.3405 92.4791 94.0667 92.2106C86.7049 91.613 85.1806 102.612 85.9168 126.499C86.4711 144.445 87.3891 174.004 87.8048 187.602C87.9348 191.647 91.2432 194.86 95.2879 194.869C125.896 194.955 243.199 195.293 251.011 195.518C260.001 195.787 263.743 194.998 263.665 191.725V191.733Z" fill="#C0CEF6"/>
</mask>
<g mask="url(#mask0_16_93)">
<path d="M140.845 136.166C141.434 135.586 141.408 134.633 140.784 134.087L67.0279 68.2817C66.8201 68.0998 66.5256 68.0565 66.2744 68.1777C65.8327 68.3856 65.7461 68.9745 66.1099 69.3037L138.905 136.201C139.459 136.712 140.308 136.694 140.845 136.175V136.166Z" fill="url(#paint0_linear_16_93)"/>
<path d="M171.362 139.303C171.362 139.303 149.52 147.21 139.274 143.469C138.815 143.304 138.373 143.114 137.966 142.897C128.413 137.848 127.244 124.207 127.244 124.207L122.957 125.056C122.957 125.056 121.553 147.003 136.598 156.434C144.003 161.077 155.383 162.688 172.869 157.153L171.362 139.312V139.303Z" fill="#139F7F"/>
<path d="M127.032 125.392L127.248 124.206C127.248 124.206 128.14 121.296 125.776 118.438C122.355 114.306 119.852 115.822 119.852 115.822C119.852 115.822 120.034 116.705 120.016 117.493C120.008 118.126 119.246 118.446 118.778 118.022L113.192 112.895C113.192 112.895 111.633 121.044 123.602 126.639L127.023 125.401L127.032 125.392Z" fill="url(#paint1_linear_16_93)"/>
<path d="M188.019 187.472C182.537 164.226 196.429 151.079 196.429 151.079C189.379 144.315 177.678 140.512 173.356 139.282C172.291 138.979 171.156 139.213 170.299 139.906C166.592 142.903 156.771 151.607 158.243 158.7C159.3 163.81 168.956 189.325 168.956 189.325C168.956 189.325 177.886 193.552 188.011 187.472H188.019Z" fill="#139F7F"/>
<path d="M200.181 198.983C197.946 192.253 188.021 187.473 188.021 187.473C177.896 193.553 168.967 189.326 168.967 189.326C168.967 189.326 166.966 196.982 168.343 204.093C169.729 211.204 178.398 256.925 178.398 256.925C192.065 259.696 213.077 254.136 213.077 254.136C204.373 238.685 202.415 205.704 200.189 198.974L200.181 198.983Z" fill="url(#paint2_linear_16_93)"/>
<path d="M184.58 136.591C180.059 136.599 176.776 136.608 174.94 136.608H174.516L174.975 139.934C175.009 140.194 175.079 140.453 175.2 140.687C176.456 142.956 180.223 144.1 183.151 144.645C184.935 144.983 186.546 145.269 186.113 143.502L184.571 136.582L184.58 136.591Z" fill="url(#paint3_linear_16_93)"/>
<path d="M176.574 118.203C176.574 118.203 171.828 121.417 169.784 129.601C167.74 137.786 171.057 140.722 174.461 140.54C177.856 140.358 182.784 139.31 187.062 133.438C191.332 127.566 182.801 114.271 176.582 118.203H176.574Z" fill="url(#paint4_linear_16_93)"/>
<path d="M182.755 130.137C182.755 130.137 184.496 118.41 174.752 120.203L172.786 122.256C172.786 122.256 168.022 116.886 173.297 112.833C178.571 108.771 185.89 109.81 189.943 117.198C193.997 124.586 195.46 129.774 192.065 134.364C188.67 138.954 186.115 135.013 186.115 135.013C186.115 135.013 187.674 131.038 186.384 129.332C185.093 127.626 183.422 130.319 183.422 130.319L182.755 130.129V130.137Z" fill="#0E1951"/>
<path d="M184.078 131.142C184.078 131.142 184.936 125.106 188.019 126.829C191.102 128.553 186.91 132.467 185.23 133.801L184.078 131.142Z" fill="url(#paint5_linear_16_93)"/>
<path d="M196.488 151.426C196.488 151.426 205.955 166.574 207.851 177.937C209.748 189.3 191.759 194.029 185.125 187.403L186.069 182.666C186.069 182.666 196.479 184.562 197.432 178.881C198.376 173.199 188.91 161.836 188.91 161.836C188.91 161.836 191.751 153.314 196.488 151.426Z" fill="#139F7F"/>
<path d="M188.588 197.131L177.822 159.543C177.701 159.118 177.337 158.806 176.896 158.754C174.947 158.529 169.291 157.888 162.77 157.334C154.914 156.667 145.786 156.13 140.329 156.589C139.55 156.659 139.082 157.473 139.428 158.174C142.529 164.445 155.287 189.968 161.67 198.326C161.878 198.603 162.207 198.768 162.553 198.759L187.523 198.525C188.25 198.525 188.77 197.824 188.571 197.122L188.588 197.131Z" fill="url(#paint6_linear_16_93)"/>
<path d="M161.658 154.077L153.855 152.777C153.439 152.708 153.101 153.107 153.231 153.505L154.002 155.843C154.071 156.051 154.245 156.198 154.461 156.224L161.97 157.229C162.36 157.281 162.68 156.926 162.594 156.545L162.117 154.501C162.065 154.284 161.884 154.111 161.667 154.077H161.658Z" fill="#8195EC"/>
<path d="M167.503 160.683L166.862 157.331C166.801 156.993 166.524 156.742 166.178 156.708L150.415 155.105C149.886 155.053 149.462 155.538 149.583 156.058L150.588 160.233C150.666 160.57 150.96 160.804 151.298 160.822L166.697 161.601C167.2 161.627 167.589 161.177 167.494 160.683H167.503Z" fill="#8195EC"/>
<path d="M185.991 188.046C185.991 188.046 187.489 181.879 186.883 179.696C186.276 177.505 185.107 174.699 181.201 175.323C177.295 175.946 172.688 177.592 172.688 177.592C172.688 177.592 172.921 180.441 175.892 179.523L174.047 180.944C174.047 180.944 174.307 183.221 176.819 182.009L175.104 183.897C175.104 183.897 176.178 185.768 178.023 184.573C179.867 183.369 180.751 188.79 185.982 188.054L185.991 188.046Z" fill="url(#paint7_linear_16_93)"/>
</g>
<path d="M272.321 236.035H269.047V271.415H272.321V236.035Z" fill="#8195EC"/>
<path d="M256.359 272.099H285.018V270.991C285.018 270.428 284.559 269.969 283.996 269.969H257.39C256.827 269.969 256.368 270.428 256.368 270.991V272.099H256.359Z" fill="#8195EC"/>
<path d="M255.626 228.109H284.622C286.563 228.109 288.139 229.686 288.139 231.626V234.804C288.139 236.744 286.563 238.321 284.622 238.321H255.626C253.686 238.321 252.109 236.744 252.109 234.804V231.626C252.109 229.686 253.686 228.109 255.626 228.109Z" fill="#8195EC"/>
<path d="M288.139 230.362C299.701 193.761 282.119 169.051 283.739 229.504L288.139 230.362Z" fill="#97B1F3"/>
<path d="M284.48 229.791C293.868 195.529 287.693 169.529 279.5 227.886L284.48 229.791Z" fill="#8195EC"/>
<path d="M234.234 270.766C239.093 270.766 241.25 270.35 242.211 269.969C242.021 270.766 241.31 271.398 240.418 271.398H223.218C222.637 271.398 222.274 270.844 222.412 270.341C224.37 270.497 228.536 270.766 234.243 270.766H234.234Z" fill="url(#paint8_linear_16_93)"/>
<path d="M222.406 270.341C222.432 270.237 222.476 270.142 222.545 270.046C223.853 268.375 226.486 265.742 230.071 265.794C235.207 265.863 236.905 266.383 240.793 265.828C240.941 265.811 241.088 265.898 241.14 266.036L242.188 269.007C242.283 269.336 242.292 269.657 242.214 269.96C241.252 270.341 239.105 270.757 234.237 270.757C228.53 270.757 224.372 270.488 222.406 270.332V270.341Z" fill="url(#paint9_linear_16_93)"/>
<path d="M239.799 262.406L240.934 265.871C240.934 265.871 238.292 267.005 235.997 266.052L235.469 263.125L239.799 262.415V262.406Z" fill="url(#paint10_linear_16_93)"/>
<path d="M265.405 216.782C265.336 216.704 265.232 216.66 265.119 216.669C262.729 216.868 235.906 219.155 230.207 221.84C224.465 224.542 234.286 261.126 235.04 263.888C235.066 264.001 235.152 264.088 235.265 264.122C235.759 264.278 237.3 264.607 240.063 263.793C240.219 263.75 240.323 263.594 240.297 263.429C239.933 260.467 236.841 234.753 239.31 228.5C239.353 228.396 239.448 228.318 239.569 228.301L270.316 223.269C270.575 223.225 270.688 222.914 270.515 222.723L265.414 216.782H265.405Z" fill="url(#paint11_linear_16_93)"/>
<path d="M204.389 268.239C208.182 271.288 210.113 272.31 211.101 272.613C210.46 273.115 209.507 273.158 208.806 272.595L195.399 261.821C194.948 261.457 195.009 260.799 195.425 260.496C196.854 261.847 199.937 264.662 204.38 268.239H204.389Z" fill="url(#paint12_linear_16_93)"/>
<path d="M195.422 260.496C195.508 260.435 195.604 260.383 195.716 260.357C197.778 259.881 201.467 259.491 204.23 261.769C208.275 265.112 209.34 266.697 212.9 268.775L211.661 271.85C211.531 272.162 211.332 272.413 211.089 272.604C210.102 272.3 208.162 271.27 204.377 268.23C199.934 264.653 196.851 261.838 195.422 260.487V260.496Z" fill="url(#paint13_linear_16_93)"/>
<path d="M215.8 263.25C215.531 263.493 212.907 268.784 212.907 268.784C212.907 268.784 209.988 268.152 209.391 266.307L212.015 261.535L215.791 263.25H215.8Z" fill="url(#paint14_linear_16_93)"/>
<path d="M282.822 216.41C282.822 216.41 283.775 218.697 283.731 221.728C283.679 225.92 280.302 229.324 276.118 229.54L241.7 231.108C240.972 231.142 240.357 231.645 240.175 232.346C239.37 235.473 235.412 245.078 216.089 264.253C215.578 264.764 214.773 264.851 214.158 264.461L211.404 262.72C211.118 262.538 211.023 262.157 211.196 261.863L231.237 227.643C232.294 225.903 233.983 224.655 235.949 224.153L265.284 216.653L282.822 216.41Z" fill="url(#paint15_linear_16_93)"/>
<path d="M242.894 163.723C242.894 163.723 252.595 169.474 256.354 172.635L248.585 176.974C248.585 176.974 244.384 172.124 240.383 170.106L242.894 163.731V163.723Z" fill="url(#paint16_linear_16_93)"/>
<path d="M282.868 216.731C279.993 217.112 267.053 218.714 260.592 217.978C260.393 217.952 260.22 217.822 260.142 217.64C259.189 215.362 252.979 200.743 248.562 195.936C248.32 195.676 247.904 195.702 247.696 195.988C245.981 198.344 238.377 207.576 223.783 209.196C223.541 209.222 223.307 209.092 223.212 208.867L222.649 207.619C222.528 207.342 222.649 207.022 222.909 206.883C225.368 205.662 236.463 199.781 240.17 191.25C244.344 181.637 246.025 177.54 249.827 175.028C251.914 173.651 253.265 172.655 254.053 172.04C254.642 171.581 255.448 171.547 256.08 171.936C260.722 174.855 278.624 187.777 283.353 216.081C283.405 216.393 283.189 216.687 282.868 216.731Z" fill="#139F7F"/>
<path d="M224.307 206.164L222.488 205.679L216.659 204.328C215.958 204.163 215.222 204.293 214.615 204.674L209.609 207.827L223.441 207.801C223.588 207.342 223.926 206.77 224.316 206.164H224.307Z" fill="url(#paint17_linear_16_93)"/>
<path d="M233.438 159.506C233.412 159.697 235.923 171.995 235.923 171.995L242.913 170.41L242.263 158.398C242.263 158.398 233.888 156.354 233.438 159.506Z" fill="url(#paint18_linear_16_93)"/>
<path d="M240.697 161.074L241.528 167.371C241.537 167.449 241.537 167.535 241.528 167.613C241.459 168.107 241.087 169.787 239.398 169.311C237.856 168.878 236.444 168.497 235.474 168.8C235.033 168.93 234.773 169.38 234.868 169.822C235.093 170.939 235.656 173.451 236.479 175.555C236.643 175.98 237.111 176.205 237.553 176.075C238.878 175.685 241.649 174.793 243.719 173.555C243.997 173.39 244.17 173.078 244.153 172.758C244.083 171.164 243.901 166.34 244.057 164.98C244.204 163.707 245.763 162.945 246.439 162.676C246.664 162.59 246.837 162.408 246.924 162.191C247.236 161.403 247.669 159.584 245.374 158.84C244.897 158.684 244.638 158.164 244.811 157.688C245.149 156.744 245.296 155.297 243.52 154.5C241.719 153.695 240.368 154.656 239.64 155.436C239.346 155.748 238.878 155.8 238.506 155.566C238.298 155.436 238.029 155.393 237.709 155.592C237.276 155.86 236.695 155.678 236.47 155.219C236.037 154.336 235.154 153.383 233.396 153.686C230.26 154.223 229.905 157.696 230.737 159.732C231.56 161.767 234.929 160.988 236.618 159.966C237.899 159.186 239.562 160 240.29 160.442C240.515 160.58 240.671 160.814 240.705 161.083L240.697 161.074Z" fill="white"/>
<path d="M243.982 167.138C243.982 167.138 243.038 163.665 244.363 162.782C245.688 161.898 247.646 162.357 247.213 164.973C246.676 168.221 243.982 167.138 243.982 167.138Z" fill="url(#paint19_linear_16_93)"/>
<path d="M229.742 210.336C229.742 210.336 229.699 210.336 229.673 210.336L200.122 210.31C199.394 210.31 198.797 209.721 198.797 208.985C198.797 208.257 199.394 207.651 200.122 207.668L229.673 207.694C230.401 207.694 230.998 208.283 230.998 209.019C230.998 209.73 230.444 210.301 229.742 210.336Z" fill="url(#paint20_linear_16_93)"/>
<path d="M188.685 181.401C188.685 181.401 188.703 181.444 188.711 181.461L201.148 208.267C201.46 208.934 201.166 209.713 200.507 210.025C199.849 210.328 199.052 210.043 198.749 209.384L186.312 182.579C186 181.912 186.295 181.132 186.953 180.821C187.594 180.526 188.348 180.786 188.677 181.401H188.685Z" fill="url(#paint21_linear_16_93)"/>
<path d="M216.587 211.828C216.717 212.365 229.05 258.606 232.168 270.324C232.532 271.675 231.519 273 230.141 273C229.18 273 228.34 272.333 228.106 271.389L214.422 215.899L216.587 211.828Z" fill="#8195EC"/>
<path d="M209.835 211.828C209.705 212.365 197.372 258.606 194.254 270.324C193.891 271.675 194.904 273 196.281 273C197.242 273 198.082 272.333 198.316 271.389L212.001 215.899L209.835 211.828Z" fill="#8195EC"/>
<path d="M209.321 210.312H217.003V216.479C217.003 217.362 216.293 218.081 215.418 218.081H214.362V231.93C214.362 232.597 213.825 233.143 213.158 233.143C212.491 233.143 211.954 232.597 211.954 231.93V218.081H211.417C210.257 218.081 209.312 217.129 209.312 215.951V210.312H209.321Z" fill="#8195EC"/>
<path d="M235.88 208.832H193C192.402 208.832 191.874 209.239 191.726 209.828L191.129 212.175C190.912 213.024 191.544 213.838 192.411 213.838L236.408 213.578C237.257 213.578 237.88 212.764 237.673 211.924L237.153 209.837C237.006 209.248 236.477 208.832 235.88 208.832Z" fill="url(#paint22_linear_16_93)"/>
<defs>
<linearGradient id="paint0_linear_16_93" x1="94.8963" y1="83.4238" x2="185.912" y2="275.465" gradientUnits="userSpaceOnUse">
<stop stop-color="#070059"/>
<stop offset="1" stop-color="#180F8A"/>
</linearGradient>
<linearGradient id="paint1_linear_16_93" x1="198.822" y1="170.775" x2="77.5692" y2="91.6406" gradientUnits="userSpaceOnUse">
<stop stop-color="#F3BDBB"/>
<stop offset="1" stop-color="#EF9690"/>
</linearGradient>
<linearGradient id="paint2_linear_16_93" x1="105.681" y1="138.547" x2="144.552" y2="179.738" gradientUnits="userSpaceOnUse">
<stop stop-color="#EF9690"/>
<stop offset="1" stop-color="#EC7969"/>
</linearGradient>
<linearGradient id="paint3_linear_16_93" x1="176.967" y1="165.094" x2="180.318" y2="140.609" gradientUnits="userSpaceOnUse">
<stop stop-color="#F3BDBB"/>
<stop offset="1" stop-color="#EF9690"/>
</linearGradient>
<linearGradient id="paint4_linear_16_93" x1="172.575" y1="147.72" x2="191.137" y2="91.0609" gradientUnits="userSpaceOnUse">
<stop stop-color="#F3BDBB"/>
<stop offset="1" stop-color="#EF9690"/>
</linearGradient>
<linearGradient id="paint5_linear_16_93" x1="179.35" y1="149.943" x2="197.902" y2="93.2779" gradientUnits="userSpaceOnUse">
<stop stop-color="#F3BDBB"/>
<stop offset="1" stop-color="#EF9690"/>
</linearGradient>
<linearGradient id="paint6_linear_16_93" x1="128.083" y1="143.104" x2="196.106" y2="201.418" gradientUnits="userSpaceOnUse">
<stop stop-color="#070059"/>
<stop offset="1" stop-color="#180F8A"/>
</linearGradient>
<linearGradient id="paint7_linear_16_93" x1="187.03" y1="181.671" x2="172.688" y2="181.671" gradientUnits="userSpaceOnUse">
<stop stop-color="#F3BDBB"/>
<stop offset="1" stop-color="#EF9690"/>
</linearGradient>
<linearGradient id="paint8_linear_16_93" x1="237.967" y1="197.538" x2="235.343" y2="231.168" gradientUnits="userSpaceOnUse">
<stop stop-color="#070059"/>
<stop offset="1" stop-color="#180F8A"/>
</linearGradient>
<linearGradient id="paint9_linear_16_93" x1="226.936" y1="232.536" x2="232.349" y2="269.986" gradientUnits="userSpaceOnUse">
<stop stop-color="#5052F5"/>
<stop offset="1" stop-color="#4042D8"/>
</linearGradient>
<linearGradient id="paint10_linear_16_93" x1="240.942" y1="264.416" x2="235.469" y2="264.416" gradientUnits="userSpaceOnUse">
<stop stop-color="#F3BDBB"/>
<stop offset="1" stop-color="#EF9690"/>
</linearGradient>
<linearGradient id="paint11_linear_16_93" x1="204.804" y1="183.662" x2="223.78" y2="207.263" gradientUnits="userSpaceOnUse">
<stop stop-color="#5052F5"/>
<stop offset="1" stop-color="#4042D8"/>
</linearGradient>
<linearGradient id="paint12_linear_16_93" x1="208.684" y1="195.253" x2="206.06" y2="228.884" gradientUnits="userSpaceOnUse">
<stop stop-color="#070059"/>
<stop offset="1" stop-color="#180F8A"/>
</linearGradient>
<linearGradient id="paint13_linear_16_93" x1="200.081" y1="236.427" x2="205.503" y2="273.868" gradientUnits="userSpaceOnUse">
<stop stop-color="#5052F5"/>
<stop offset="1" stop-color="#4042D8"/>
</linearGradient>
<linearGradient id="paint14_linear_16_93" x1="215.808" y1="265.155" x2="209.399" y2="265.155" gradientUnits="userSpaceOnUse">
<stop stop-color="#F3BDBB"/>
<stop offset="1" stop-color="#EF9690"/>
</linearGradient>
<linearGradient id="paint15_linear_16_93" x1="232.311" y1="222.785" x2="278.95" y2="275.668" gradientUnits="userSpaceOnUse">
<stop stop-color="#5052F5"/>
<stop offset="1" stop-color="#4042D8"/>
</linearGradient>
<linearGradient id="paint16_linear_16_93" x1="239.292" y1="171.933" x2="254.206" y2="168.252" gradientUnits="userSpaceOnUse">
<stop stop-color="#F3BDBB"/>
<stop offset="1" stop-color="#EF9690"/>
</linearGradient>
<linearGradient id="paint17_linear_16_93" x1="224.307" y1="206.043" x2="209.601" y2="206.043" gradientUnits="userSpaceOnUse">
<stop stop-color="#F3BDBB"/>
<stop offset="1" stop-color="#EF9690"/>
</linearGradient>
<linearGradient id="paint18_linear_16_93" x1="234.477" y1="163.291" x2="250.378" y2="169.856" gradientUnits="userSpaceOnUse">
<stop stop-color="#F3BDBB"/>
<stop offset="1" stop-color="#EF9690"/>
</linearGradient>
<linearGradient id="paint19_linear_16_93" x1="239.66" y1="160.114" x2="247.048" y2="166.385" gradientUnits="userSpaceOnUse">
<stop stop-color="#F3BDBB"/>
<stop offset="1" stop-color="#EF9690"/>
</linearGradient>
<linearGradient id="paint20_linear_16_93" x1="3394.65" y1="-3182.36" x2="3342.33" y2="-3126.51" gradientUnits="userSpaceOnUse">
<stop stop-color="#070059"/>
<stop offset="1" stop-color="#180F8A"/>
</linearGradient>
<linearGradient id="paint21_linear_16_93" x1="-4206.77" y1="-1265.95" x2="-4134.07" y2="-1242.06" gradientUnits="userSpaceOnUse">
<stop stop-color="#070059"/>
<stop offset="1" stop-color="#180F8A"/>
</linearGradient>
<linearGradient id="paint22_linear_16_93" x1="203.479" y1="184.417" x2="253.92" y2="311.681" gradientUnits="userSpaceOnUse">
<stop stop-color="#5052F5"/>
<stop offset="1" stop-color="#4042D8"/>
</linearGradient>
</defs>
</svg>
