<svg width="328" height="306" viewBox="0 0 328 306" fill="none" xmlns="http://www.w3.org/2000/svg">
<rect opacity="0.8" width="328" height="306" rx="32" fill="white"/>
<path d="M48.4687 210.755C48.4687 213.269 50.3584 215.334 52.6809 215.334H280.239C282.553 215.334 284.451 213.278 284.451 210.755L286.341 68.3398C286.341 65.8258 283.619 60.9061 278.624 61.2724L56.2188 55.004C53.3136 54.9208 50.5082 56.1361 48.4521 58.3754C46.3959 60.6064 45.2721 63.6615 45.3387 66.8165L48.4604 210.747L48.4687 210.755Z" fill="#0E1951"/>
<path d="M52.6197 206.36C52.6197 208.741 54.4095 210.697 56.5988 210.697H274.75C276.94 210.697 278.729 208.749 278.729 206.36L280.519 77.0809C280.311 69.2975 274.043 66.5088 270.247 66.667C270.247 66.667 96.4148 61.5891 57.0899 60.4403C55.0504 60.382 53.0775 61.2394 51.6291 62.8044C50.1806 64.3778 49.3898 66.5255 49.4397 68.7481L52.6114 206.36H52.6197Z" fill="#FFE3CC"/>
<path opacity="0.66" d="M264.954 206.161L63.7591 203.83C60.1629 203.788 57.3076 201.008 57.2576 197.503L55.4928 72.1533C55.4679 70.4135 56.1505 68.7736 57.4075 67.5415C58.6978 66.2762 60.4792 65.5936 62.3023 65.6519L268.683 72.7527V73.0773V72.7527C272.279 72.8775 275.126 75.8327 275.026 79.3373L271.605 199.926C271.505 203.381 268.566 206.161 265.029 206.161C265.004 206.161 264.979 206.161 264.954 206.161ZM57.857 68.0077C56.7249 69.1149 56.1172 70.5883 56.1338 72.145L57.8986 197.503C57.9402 200.65 60.5208 203.147 63.7591 203.189L264.954 205.52C264.954 205.52 265.004 205.52 265.02 205.52C268.209 205.52 270.864 203.023 270.947 199.918L274.369 79.329C274.46 76.174 271.896 73.5185 268.65 73.4103L62.2773 66.3012C62.2107 66.3012 62.1358 66.3012 62.0692 66.3012C60.4959 66.3012 58.9725 66.9172 57.857 68.0077Z" fill="white"/>
<path d="M36.2508 227.145L292.037 227.145C295.49 227.145 298.289 224.346 298.289 220.893V220.885C298.289 217.432 295.49 214.633 292.037 214.633L36.2508 214.633C32.798 214.633 29.9991 217.432 29.9991 220.885V220.893C29.9991 224.346 32.798 227.145 36.2508 227.145Z" fill="#0E1951"/>
<path d="M266.656 78.0242L121.094 74.6111C118.73 74.5529 116.766 75.9597 116.766 77.7245V79.3394C116.766 81.0293 118.58 82.4028 120.853 82.4528L266.357 85.1832C268.629 85.2248 270.544 83.9179 270.652 82.228L270.719 81.2874C270.835 79.5475 269.004 78.0824 266.665 78.0242H266.656Z" fill="#ECA053"/>
<path d="M269.387 140.689L266.956 195.023C266.873 196.855 264.109 198.311 260.754 198.286L189.488 197.754C186.142 197.729 183.445 196.239 183.453 194.407L183.703 139.565C183.711 137.692 186.542 136.186 189.98 136.236L263.427 137.284C266.798 137.334 269.462 138.866 269.379 140.706L269.387 140.689Z" fill="#ECA053"/>
<path d="M169.772 87.4959L125.095 86.9548C120.525 86.8965 116.729 88.3866 116.695 90.243L115.938 127.162C115.896 129.018 119.626 130.533 124.196 130.509L170.705 130.275C173.319 130.259 175.441 129.41 175.508 128.344L177.689 90.8923C177.797 89.0692 174.259 87.5458 169.772 87.4959Z" fill="#ECA053"/>
<path d="M252.413 88.2203L194.599 87.7125C188.089 87.6543 182.695 89.186 182.645 91.1006L181.563 129.152C181.505 131.066 186.807 132.623 193.317 132.598L259.497 132.357C263.218 132.34 266.24 131.466 266.331 130.367L269.436 91.7666C269.436 86.4555 260.646 88.4285 252.413 88.212V88.2203Z" fill="#ECA053"/>
<path d="M169.874 134.645L125.196 133.846C120.626 133.763 116.83 135.944 116.797 138.674L116.039 192.875C115.998 195.605 119.727 197.82 124.297 197.786L170.806 197.445C173.42 197.429 175.543 196.172 175.609 194.607L177.79 139.615C177.899 136.934 174.361 134.703 169.874 134.629V134.645Z" fill="#ECA053"/>
<path d="M104.294 72.9617L69.4396 72.404C65.8684 72.3457 62.9132 73.8774 62.8882 75.8003L62.2972 113.935C62.2639 115.858 65.1774 117.414 68.7403 117.39L105.027 117.148C107.066 117.131 108.723 116.249 108.773 115.15L110.471 76.4663C110.554 74.585 107.799 73.0116 104.294 72.9534V72.9617Z" fill="#ECA053"/>
<path d="M103.435 121.544L68.5802 121.103C65.009 121.061 62.0538 122.26 62.0288 123.766L61.4378 153.685C61.4045 155.191 64.3181 156.415 67.8809 156.398L104.167 156.207C106.207 156.199 107.863 155.508 107.913 154.642L109.612 124.291C109.695 122.809 106.939 121.585 103.435 121.535V121.544Z" fill="#ECA053"/>
<path d="M101.99 160.643L68.3928 160.177C64.9548 160.127 62.0995 161.409 62.0746 163.016L61.5002 194.882C61.4752 196.489 64.2722 197.787 67.7102 197.771L102.681 197.571C104.646 197.562 106.244 196.822 106.294 195.906L107.934 163.582C108.017 162.009 105.354 160.693 101.982 160.652L101.99 160.643Z" fill="#ECA053"/>
<path d="M156.995 75.6227L230.018 74.965C231.449 74.9484 232.615 76.1138 232.607 77.5456L232.29 133.586C232.29 135.026 231.092 136.183 229.651 136.133C216.449 135.742 157.828 134.002 155.239 134.111C152.683 134.219 154.073 89.1999 154.456 78.095C154.506 76.7215 155.622 75.631 156.995 75.6227Z" fill="#97B1F3"/>
<path d="M229.716 134.026C219.218 133.71 166.383 132.145 156.676 132.004H156.543L156.518 131.87C155.603 126.709 155.619 105.623 156.568 78.1691C156.577 77.9277 156.776 77.7279 157.018 77.7279L230.048 77.0703C230.207 77.0703 230.315 77.1452 230.373 77.2035C230.465 77.2951 230.506 77.4033 230.506 77.5282L230.19 133.569C230.19 133.818 229.99 134.026 229.732 134.026H229.724H229.716ZM157.018 78.0609C156.943 78.0609 156.885 78.1192 156.885 78.1858C155.952 105.399 155.919 126.326 156.81 131.687C166.857 131.837 219.277 133.394 229.724 133.702V133.86V133.702C229.799 133.702 229.849 133.644 229.857 133.569L230.173 77.5282C230.173 77.5282 230.165 77.4616 230.132 77.4366C230.107 77.4116 230.073 77.395 230.04 77.395L157.018 78.0526V78.0609Z" fill="white" stroke="white" stroke-miterlimit="10"/>
<path d="M165.806 126.827H213.68C215.17 126.827 216.094 125.204 215.337 123.922L196.382 91.7062C195.591 90.366 193.618 90.4659 192.969 91.8811L183.82 111.935C183.279 113.125 181.731 113.441 180.765 112.559L177.061 109.163C176.203 108.372 174.846 108.522 174.18 109.479L164.224 123.797C163.334 125.071 164.249 126.827 165.806 126.827Z" fill="url(#paint0_linear_16_95)"/>
<path d="M215.668 97.0939C219.181 95.6389 220.849 91.6118 219.394 88.0991C217.939 84.5864 213.912 82.9183 210.399 84.3733C206.887 85.8283 205.219 89.8554 206.674 93.3681C208.129 96.8808 212.156 98.5489 215.668 97.0939Z" fill="url(#paint1_linear_16_95)"/>
<path d="M232.029 117.803L231.962 115.655L234.21 111.202C234.618 110.386 234.626 109.429 234.218 108.604L231.679 103.477C231.679 103.477 230.214 114.615 229.823 115.539C229.44 116.463 230.872 118.128 230.872 118.128L232.029 117.803Z" fill="url(#paint2_linear_16_95)"/>
<path d="M231.96 115.656C231.96 115.656 238.786 134.261 250.415 140.072C250.415 140.072 246.544 146.39 244.521 146.773C244.521 146.773 232.101 130.873 230.836 117.854L231.96 115.665V115.656Z" fill="url(#paint3_linear_16_95)"/>
<path d="M262.242 171.262C260.727 164.827 258.371 152.49 259.977 149.51C261.259 147.129 260.36 144.183 257.954 142.934C254.208 140.986 250.404 140.07 250.404 140.07C250.404 140.07 242.979 145.498 243.853 149.752C244.369 152.241 246.417 172.095 246.417 172.095C246.417 172.095 257.297 174.226 262.233 171.262H262.242Z" fill="url(#paint4_linear_16_95)"/>
<path d="M255.269 132.589L257.442 142.354C257.65 143.211 256.867 143.07 255.993 142.911C254.57 142.645 252.739 142.087 252.123 140.98C252.064 140.864 252.031 140.739 252.014 140.614L251.082 133.846C251.007 133.305 251.298 132.789 251.798 132.564L253.596 131.765C254.287 131.457 255.094 131.857 255.269 132.589Z" fill="url(#paint5_linear_16_95)"/>
<path d="M228.11 126.137C228.11 126.137 233.828 146.007 256.896 144.143C258.369 144.026 259.668 145.117 259.784 146.59L259.843 147.389C260.009 149.529 258.261 151.327 256.121 151.218C248.446 150.827 231.972 147.814 226.328 129.591L228.11 126.137Z" fill="url(#paint6_linear_16_95)"/>
<path d="M226.326 129.592C226.326 129.592 225.227 126.354 224.952 124.339C224.677 122.316 225.693 117.779 226.567 116.506C227.441 115.232 227.583 118.354 227.982 119.827C228.373 121.301 227.707 123.398 227.707 123.398L228.107 126.145L226.326 129.6V129.592Z" fill="url(#paint7_linear_16_95)"/>
<path d="M250.816 124.531C250.816 124.531 245.322 132.539 248.735 134.77C252.156 137.001 256.06 131.315 256.06 131.315C256.06 131.315 257.292 126.97 255.894 125.53C254.495 124.09 250.807 124.539 250.807 124.539L250.816 124.531Z" fill="url(#paint8_linear_16_95)"/>
<path d="M253.115 122.591C253.115 122.591 250.726 123.207 250.409 124.298C250.093 125.388 253.856 126.329 254.905 126.354L255.829 130.724C255.829 130.724 258.251 126.553 257.211 124.189C256.178 121.825 253.107 122.591 253.107 122.591H253.115Z" fill="url(#paint9_linear_16_95)"/>
<path d="M254.961 130.747C254.961 130.747 257.109 128.159 258.016 129.807C258.923 131.447 256.093 132.745 255.094 131.954L254.969 130.756L254.961 130.747Z" fill="url(#paint10_linear_16_95)"/>
<path d="M248.335 121.358C248.227 121.508 244.922 133.112 244.922 133.112L251.59 134.86L256.351 124.33C256.351 124.33 250.108 118.886 248.327 121.367L248.335 121.358Z" fill="url(#paint11_linear_16_95)"/>
<path d="M253.832 125.911L251.76 131.655C251.735 131.73 251.701 131.796 251.651 131.863C251.377 132.254 250.319 133.528 249.079 132.362C247.955 131.305 246.923 130.365 245.957 130.19C245.524 130.107 245.1 130.373 244.983 130.797C244.684 131.855 244.051 134.244 243.818 136.4C243.768 136.841 244.068 137.241 244.501 137.324C245.799 137.582 248.563 138.048 250.877 137.898C251.193 137.882 251.468 137.69 251.601 137.407C252.251 136.025 254.232 131.813 254.964 130.731C255.655 129.715 257.32 129.749 258.02 129.815C258.253 129.84 258.477 129.765 258.652 129.615C259.268 129.083 260.442 127.726 258.819 126.069C258.477 125.72 258.494 125.17 258.844 124.837C259.551 124.18 260.317 123.014 259.152 121.549C257.97 120.059 256.396 120.284 255.431 120.633C255.039 120.775 254.615 120.608 254.407 120.25C254.29 120.042 254.082 119.892 253.716 119.917C253.225 119.959 252.817 119.543 252.825 119.052C252.85 118.103 252.517 116.904 250.877 116.379C247.964 115.447 246.124 118.252 245.932 120.359C245.741 122.465 248.954 123.289 250.844 123.164C252.284 123.064 253.341 124.504 253.766 125.195C253.899 125.412 253.924 125.686 253.841 125.928L253.832 125.911Z" fill="#0E1951"/>
<path d="M253.953 132.538C253.953 132.538 254.677 129.158 256.201 128.991C257.724 128.825 259.189 130.082 257.666 132.121C255.768 134.66 253.953 132.538 253.953 132.538Z" fill="url(#paint12_linear_16_95)"/>
<path d="M251.514 228.568C248.317 228.718 245.221 228.626 243.156 228.518C245.038 227.178 249.375 224.264 252.996 223.107L255.485 222.957C255.485 222.957 256.326 224.239 256.634 227.178C256.217 227.694 255.019 228.41 251.514 228.568Z" fill="url(#paint13_linear_16_95)"/>
<path d="M243.128 228.537C243.128 228.537 243.145 228.528 243.153 228.52C245.218 228.628 248.314 228.72 251.511 228.57C255.007 228.412 256.214 227.687 256.63 227.18C256.647 227.313 256.655 227.446 256.672 227.588C256.722 228.229 256.248 228.795 255.598 228.845C252.976 229.044 246.483 229.494 243.353 229.327C242.937 229.302 242.787 228.778 243.12 228.537H243.128Z" fill="url(#paint14_linear_16_95)"/>
<path d="M274.383 227.711C274.616 226.213 274.99 224.04 275.282 223.482C275.74 222.608 277.296 223.482 277.296 223.482C277.296 223.482 278.387 223.99 278.894 224.839C279.219 225.38 280.102 226.92 280.701 227.969C280.767 228.086 280.801 228.219 280.792 228.344L274.557 228.56C274.408 228.319 274.333 228.019 274.383 227.703V227.711Z" fill="url(#paint15_linear_16_95)"/>
<path d="M280.798 228.344C280.789 228.702 280.506 229.026 280.107 229.035L275.661 229.16C275.195 229.176 274.787 228.926 274.562 228.569L280.798 228.352V228.344Z" fill="url(#paint16_linear_16_95)"/>
<path d="M273.906 218.497C273.956 218.68 274.764 222.584 275.122 224.299C275.222 224.773 275.646 225.106 276.129 225.081C276.395 225.065 276.703 225.048 277.02 225.006C277.594 224.931 278.027 224.457 278.052 223.883C278.11 222.384 278.135 219.496 277.586 218.38C276.828 216.84 273.906 218.505 273.906 218.505V218.497Z" fill="url(#paint17_linear_16_95)"/>
<path d="M255.98 219.611C255.63 219.603 256.121 221.393 255.597 223.166C255.48 223.566 255.18 223.874 254.764 223.882C254.498 223.882 254.173 223.882 253.849 223.857C253.357 223.815 252.966 223.441 252.925 222.95L252.5 218.371L255.98 219.611Z" fill="url(#paint18_linear_16_95)"/>
<path d="M246.312 170.937C246.471 171.687 251.915 203.461 252.248 219.902C252.248 220.177 252.456 220.41 252.731 220.443C253.422 220.543 254.77 220.66 256.077 220.418C256.252 220.385 256.393 220.235 256.402 220.06C256.593 216.997 258.125 191.091 256.252 178.904C256.252 178.904 271.736 211.503 274.083 220.485C274.141 220.701 274.341 220.851 274.566 220.843C275.232 220.81 276.605 220.685 277.704 220.285C278.095 220.144 278.32 219.727 278.22 219.319C276.905 213.942 267.715 176.881 261.471 168.715L246.312 170.937Z" fill="#0E1951"/>
<path d="M116.771 210.623L118.736 112.702C118.761 111.628 117.429 110.745 115.789 110.745C113.125 110.745 110.969 109.339 110.969 107.599V83.6825C110.969 82.1591 109.038 80.9437 106.707 80.9937L96.0932 81.2268C93.4793 81.285 91.3982 82.6669 91.3482 84.3734L87.7188 210.631H116.763L116.771 210.623Z" fill="white"/>
<path d="M85.0318 135.693L84.9902 136.875C81.3441 141.945 78.0309 140.654 75.75 139.131C77.1235 135.718 77.3649 135.335 78.4638 134.145C82.5844 137.141 85.0318 135.685 85.0318 135.685V135.693Z" fill="url(#paint19_linear_16_95)"/>
<path d="M68.4219 130.133L74.8317 120.102C75.2563 125.754 76.2552 131.057 78.4612 134.153C77.3624 135.344 77.121 135.718 75.7474 139.14C70.0535 135.344 68.4219 130.133 68.4219 130.133Z" fill="white"/>
<path d="M62.1274 214.279C65.324 214.429 68.4207 214.337 70.4852 214.229C68.6038 212.888 64.2668 209.975 60.6456 208.818L58.1566 208.668C58.1566 208.668 57.3158 209.95 57.0078 212.888C57.424 213.405 58.6228 214.121 62.1274 214.279Z" fill="url(#paint20_linear_16_95)"/>
<path d="M70.5163 214.244C70.5163 214.244 70.4997 214.235 70.4913 214.227C68.4269 214.335 65.3301 214.427 62.1335 214.277C58.6373 214.119 57.4302 213.395 57.014 212.887C56.9973 213.02 56.989 213.153 56.9724 213.295C56.9224 213.936 57.3969 214.502 58.0462 214.552C60.6684 214.751 67.1615 215.201 70.2915 215.034C70.7078 215.009 70.8576 214.485 70.5246 214.244H70.5163Z" fill="url(#paint21_linear_16_95)"/>
<path d="M39.2627 213.422C39.0296 211.924 38.655 209.751 38.3636 209.193C37.9058 208.319 36.3491 209.193 36.3491 209.193C36.3491 209.193 35.2586 209.701 34.7508 210.55C34.4261 211.091 33.5438 212.631 32.9444 213.68C32.8778 213.797 32.8445 213.93 32.8528 214.055L39.0879 214.271C39.2377 214.03 39.3126 213.73 39.2627 213.414V213.422Z" fill="url(#paint22_linear_16_95)"/>
<path d="M32.8438 214.062C32.8521 214.42 33.1351 214.745 33.5347 214.753L37.98 214.878C38.4461 214.895 38.854 214.645 39.0788 214.287L32.8438 214.071V214.062Z" fill="url(#paint23_linear_16_95)"/>
<path d="M39.7374 204.208C39.6874 204.391 38.8799 208.295 38.522 210.01C38.4221 210.484 37.9975 210.817 37.5147 210.792C37.2483 210.776 36.9403 210.759 36.624 210.717C36.0496 210.642 35.6167 210.168 35.5918 209.594C35.5335 208.095 35.5085 205.207 36.0579 204.091C36.8155 202.551 39.7374 204.216 39.7374 204.216V204.208Z" fill="url(#paint24_linear_16_95)"/>
<path d="M57.6562 205.33C58.0059 205.322 57.5147 207.112 58.0392 208.885C58.1557 209.284 58.4554 209.592 58.8716 209.601C59.138 209.601 59.4627 209.601 59.7873 209.576C60.2785 209.534 60.6697 209.159 60.7113 208.668L61.1359 204.09L57.6562 205.33Z" fill="url(#paint25_linear_16_95)"/>
<path d="M67.3377 156.648C67.1795 157.398 61.7353 189.172 61.4023 205.613C61.4023 205.888 61.1942 206.121 60.9195 206.154C60.2286 206.254 58.88 206.371 57.5731 206.129C57.3982 206.096 57.2567 205.946 57.2484 205.771C57.0569 202.708 55.5252 176.802 57.3982 164.615C57.3982 164.615 41.9147 197.214 39.5672 206.196C39.5089 206.412 39.3091 206.562 39.0844 206.554C38.4184 206.52 37.0449 206.396 35.946 205.996C35.5548 205.854 35.33 205.438 35.4299 205.03C36.7452 199.653 45.9354 162.592 52.1788 154.426L67.3377 156.648Z" fill="#0E1951"/>
<path d="M57.4071 164.816C57.3571 164.816 57.3072 164.799 57.2656 164.758C57.1823 164.683 57.1823 164.55 57.2656 164.466L59.3384 162.344C59.4133 162.26 59.5465 162.26 59.6297 162.344C59.713 162.419 59.713 162.552 59.6297 162.635L57.5569 164.758C57.5569 164.758 57.4653 164.816 57.4154 164.816H57.4071Z" fill="url(#paint26_linear_16_95)"/>
<path d="M76.1875 116.875C72.2084 115.834 64.8745 114.186 59.0307 114.552C57.1244 114.669 56.7582 116.467 56.6832 117.807C55.8008 133.365 54.4439 146.393 52.1797 154.426C57.2826 156.449 62.3439 157.382 67.3386 156.649C71.0763 148.641 74.3478 139.392 77.1448 128.887C77.1448 128.887 78.7848 120.512 77.1948 117.715C76.945 117.283 76.6204 116.983 76.1958 116.866L76.1875 116.875Z" fill="white"/>
<path d="M66.6105 105.977C66.6105 105.977 65.6032 111.97 65.3036 114.742C65.2536 115.192 65.4867 115.616 65.8946 115.824C66.9934 116.39 69.3326 117.298 71.8882 116.465C72.3128 116.324 72.5875 115.924 72.5708 115.475L72.396 107.475L66.6022 105.977H66.6105Z" fill="url(#paint27_linear_16_95)"/>
<path d="M90.7762 74.376C90.6347 74.2927 90.5848 74.1179 90.6597 73.9764L91.0676 73.2522L91.1009 73.2688L93.4983 69.373C93.5816 69.2314 93.7647 69.1898 93.9062 69.2731L94.3641 69.5561C94.5056 69.6393 94.5472 69.8225 94.464 69.964L92.2496 73.5602C92.1581 73.7017 92.208 73.8932 92.3579 73.9764L109.773 83.791C109.914 83.8742 109.964 84.049 109.889 84.1906L109.481 84.9148L103.821 94.9458C103.737 95.0873 103.563 95.1373 103.421 95.0623L102.955 94.796C102.813 94.7127 102.763 94.5379 102.838 94.3964L108.349 84.6234C108.432 84.4819 108.383 84.2988 108.233 84.2238L90.7845 74.3843L90.7762 74.376Z" fill="#0E1951"/>
<path d="M97.8788 60.9052L93.25 69.1133L129.338 89.4645L133.967 81.2564L97.8788 60.9052Z" fill="white"/>
<path d="M102.552 92.8208L66.3374 164.358C66.3021 164.428 66.33 164.513 66.3997 164.548L69.0734 165.902C69.1432 165.937 69.2283 165.909 69.2636 165.839L105.478 94.3022C105.513 94.2325 105.485 94.1473 105.416 94.112L102.742 92.7585C102.672 92.7232 102.587 92.7511 102.552 92.8208Z" fill="#0E1951"/>
<path d="M133.218 86.2023C134.505 83.9196 134.86 81.6811 134.011 81.2023C133.162 80.7236 131.431 82.1859 130.143 84.4685C128.856 86.7511 128.501 88.9897 129.35 89.4684C130.199 89.9472 131.93 88.4849 133.218 86.2023Z" fill="white"/>
<path d="M97.3583 66.0226C98.6455 63.7399 99.0008 61.5014 98.1519 61.0226C97.3029 60.5439 95.5711 62.0062 94.2839 64.2888C92.9966 66.5714 92.6414 68.81 93.4903 69.2888C94.3393 69.7675 96.0711 68.3052 97.3583 66.0226Z" fill="white"/>
<path d="M85.6175 135.876C85.8672 135.493 85.9338 135.019 85.8006 134.586C85.5425 133.737 84.9931 132.488 84.0774 132.771C82.7122 133.179 82.5291 136.551 82.5291 136.551L82.8953 138.715L82.4375 139.797C83.3365 139.364 84.4437 137.808 85.6258 135.885L85.6175 135.876Z" fill="url(#paint28_linear_16_95)"/>
<path d="M54.0445 143.497C53.4867 142.714 52.929 141.857 52.3796 140.916C46.9187 131.568 56.9331 117.258 56.9331 117.258L59.9798 126.34C55.468 131.368 57.3659 136.221 58.8976 140.25C60.9039 145.519 69.5946 149.99 69.5946 149.99L67.938 152.029C67.938 152.029 59.0059 150.456 54.0445 143.505V143.497Z" fill="url(#paint29_linear_16_95)"/>
<path d="M50.6179 131.524C50.7345 124.265 56.495 116.557 57.5439 115.2C57.6188 115.1 57.7686 115.125 57.8186 115.233L59.9746 126.329C59.0589 128.477 59.2421 129.826 58.3264 131.757C55.8457 131.407 53.5481 131.391 51.1007 131.924C50.8427 131.982 50.6013 131.782 50.6096 131.524H50.6179Z" fill="white"/>
<path d="M69.5901 149.981C70.0979 149.723 74.077 150.306 73.461 150.847C72.3955 151.804 72.3455 152.528 73.4693 153.427C74.0271 153.869 75.3007 154.543 75.6504 153.511C75.7503 153.219 75.7586 152.845 76.0416 152.711C76.2497 152.612 76.8241 153.311 76.8574 153.536C77.0489 154.793 76.0416 155.841 74.9345 156.258C74.3934 156.457 73.8273 156.549 73.2529 156.632C72.9366 156.682 72.1458 156.799 72.0792 156.765C71.9959 156.732 71.946 156.649 71.8877 156.582C71.6296 156.291 70.2394 155.126 69.9398 154.734C69.7733 154.526 67.7005 151.904 67.8004 151.654C67.8004 151.654 69.1573 150.197 69.5818 149.981H69.5901Z" fill="url(#paint30_linear_16_95)"/>
<path d="M73.5785 99.5938C73.5785 99.5938 76.7917 105.637 76.3755 108.085C75.9593 110.532 71.9802 110.349 68.5089 108.368L66.0781 101.841L73.5785 99.5938Z" fill="url(#paint31_linear_16_95)"/>
<path d="M68.6599 105.163C68.8014 105.096 68.8514 104.93 68.7681 104.796C68.5101 104.405 68.0273 103.598 67.8774 102.898C67.8774 102.898 67.303 102.532 69.3509 102.041C71.3987 101.55 74.4538 100.792 75.0947 99.0441C75.7191 97.3459 74.0792 93.0755 71.4569 96.4802C71.3571 96.6134 71.1656 96.6134 71.0657 96.4802C70.6328 95.9224 69.509 94.757 67.9357 95.4646C66.4706 96.1222 66.3041 97.1961 66.3207 97.7455C66.3207 97.9037 66.1875 98.0285 66.0294 97.9952C65.2885 97.8537 63.5071 97.7289 62.6746 99.5602C61.992 101.067 62.4332 101.916 62.8411 102.332C62.9743 102.465 62.916 102.69 62.7329 102.749C62.2417 102.898 61.6174 103.315 61.6757 104.455C61.7589 106.037 63.532 105.895 64.0315 105.82C64.1147 105.812 64.198 105.837 64.2563 105.895C64.6891 106.37 66.6287 108.401 68.7348 108.642C68.918 108.667 69.0595 108.484 69.0012 108.309L68.0939 105.662C68.0522 105.537 68.1105 105.404 68.227 105.354L68.6766 105.154L68.6599 105.163Z" fill="url(#paint32_linear_16_95)"/>
<path d="M69.0271 105.537C69.0271 105.537 66.7378 103.964 66.5714 105.288C66.4049 106.611 68.6275 107.202 69.7347 106.711L69.0271 105.537Z" fill="url(#paint33_linear_16_95)"/>
<path d="M125.435 237.02C138.654 241.44 151.499 241.44 163.886 237.403C167.016 236.379 169.139 233.465 169.139 230.169V169.5C153.913 172.846 137.963 173.021 121.156 169.5V231.11C121.156 233.798 122.888 236.163 125.435 237.02Z" fill="url(#paint34_linear_16_95)"/>
<path d="M145.147 173.835C158.397 173.835 169.139 171.677 169.139 169.015C169.139 166.353 158.397 164.195 145.147 164.195C131.897 164.195 121.156 166.353 121.156 169.015C121.156 171.677 131.897 173.835 145.147 173.835Z" fill="url(#paint35_linear_16_95)"/>
<path d="M121.141 216.215C137.14 221.776 153.132 221.776 169.123 216.215V192.016C152.982 195.995 136.982 196.195 121.141 192.016V216.215Z" fill="white"/>
<path d="M166.557 175.018C166.041 176.941 163.851 178.231 161.92 177.757C160.563 177.424 159.406 176.366 158.016 176.341C156.434 176.317 155.169 177.623 154.245 178.905C152.572 181.245 151.29 183.867 150.491 186.631C150.224 187.555 149.991 188.529 149.342 189.236C147.96 190.751 145.346 190.268 143.806 188.911C142.266 187.555 141.434 185.598 140.293 183.892C139.153 182.185 137.396 180.604 135.348 180.728C134.666 180.77 134 181.003 133.317 181.036C131.802 181.103 130.304 180.021 129.887 178.564C129.763 178.115 129.721 177.632 129.488 177.232C128.797 176.017 126.957 175.9 126.017 174.918C125.417 174.294 125.217 173.386 124.51 172.779C124.243 172.546 122.429 171.796 122.387 171.68C122.071 170.706 123.086 169.815 124.027 169.399C129.546 166.943 135.848 169.399 141.833 170.231C147.71 171.055 153.329 169.715 159.148 169.765C162.353 169.79 167.764 170.564 166.565 175.035L166.557 175.018Z" fill="white"/>
<path opacity="0.2" d="M144.858 173.976C158.108 173.976 168.85 171.818 168.85 169.156C168.85 166.494 158.108 164.336 144.858 164.336C131.608 164.336 120.867 166.494 120.867 169.156C120.867 171.818 131.608 173.976 144.858 173.976Z" fill="white"/>
<path d="M145.504 172.069C156.414 172.069 165.258 170.765 165.258 169.156C165.258 167.547 156.414 166.242 145.504 166.242C134.594 166.242 125.75 167.547 125.75 169.156C125.75 170.765 134.594 172.069 145.504 172.069Z" fill="#0E1951"/>
<defs>
<linearGradient id="paint0_linear_16_95" x1="215.611" y1="108.788" x2="163.883" y2="108.788" gradientUnits="userSpaceOnUse">
<stop stop-color="#DBE2FB"/>
<stop offset="1" stop-color="#E9EEFB"/>
</linearGradient>
<linearGradient id="paint1_linear_16_95" x1="219.911" y1="90.7386" x2="206.143" y2="90.7386" gradientUnits="userSpaceOnUse">
<stop stop-color="#DBE2FB"/>
<stop offset="1" stop-color="#E9EEFB"/>
</linearGradient>
<linearGradient id="paint2_linear_16_95" x1="230.789" y1="109.728" x2="250.609" y2="154.481" gradientUnits="userSpaceOnUse">
<stop stop-color="#94352C"/>
<stop offset="1" stop-color="#B14B42"/>
</linearGradient>
<linearGradient id="paint3_linear_16_95" x1="231.136" y1="109.579" x2="250.956" y2="154.323" gradientUnits="userSpaceOnUse">
<stop stop-color="#4042D8"/>
<stop offset="1" stop-color="#5052F5"/>
</linearGradient>
<linearGradient id="paint4_linear_16_95" x1="173.453" y1="78.6106" x2="242.071" y2="147.229" gradientUnits="userSpaceOnUse">
<stop stop-color="#4042D8"/>
<stop offset="1" stop-color="#5052F5"/>
</linearGradient>
<linearGradient id="paint5_linear_16_95" x1="255.169" y1="142.221" x2="262.928" y2="170.665" gradientUnits="userSpaceOnUse">
<stop stop-color="#94352C"/>
<stop offset="1" stop-color="#B14B42"/>
</linearGradient>
<linearGradient id="paint6_linear_16_95" x1="243.651" y1="124.871" x2="242.12" y2="162.615" gradientUnits="userSpaceOnUse">
<stop stop-color="#4042D8"/>
<stop offset="1" stop-color="#5052F5"/>
</linearGradient>
<linearGradient id="paint7_linear_16_95" x1="226.509" y1="124.547" x2="225.085" y2="159.71" gradientUnits="userSpaceOnUse">
<stop stop-color="#94352C"/>
<stop offset="1" stop-color="#B14B42"/>
</linearGradient>
<linearGradient id="paint8_linear_16_95" x1="316.13" y1="914.324" x2="318.22" y2="940.002" gradientUnits="userSpaceOnUse">
<stop stop-color="#94352C"/>
<stop offset="1" stop-color="#B14B42"/>
</linearGradient>
<linearGradient id="paint9_linear_16_95" x1="239.7" y1="161.827" x2="261.849" y2="104.968" gradientUnits="userSpaceOnUse">
<stop stop-color="#070059"/>
<stop offset="1" stop-color="#180F8A"/>
</linearGradient>
<linearGradient id="paint10_linear_16_95" x1="320.54" y1="913.955" x2="322.636" y2="939.643" gradientUnits="userSpaceOnUse">
<stop stop-color="#94352C"/>
<stop offset="1" stop-color="#B14B42"/>
</linearGradient>
<linearGradient id="paint11_linear_16_95" x1="247.586" y1="124.987" x2="258.236" y2="137.63" gradientUnits="userSpaceOnUse">
<stop stop-color="#94352C"/>
<stop offset="1" stop-color="#B14B42"/>
</linearGradient>
<linearGradient id="paint12_linear_16_95" x1="253.403" y1="124.563" x2="256.935" y2="133.195" gradientUnits="userSpaceOnUse">
<stop stop-color="#94352C"/>
<stop offset="1" stop-color="#B14B42"/>
</linearGradient>
<linearGradient id="paint13_linear_16_95" x1="256.634" y1="225.796" x2="243.156" y2="225.796" gradientUnits="userSpaceOnUse">
<stop stop-color="#4042D8"/>
<stop offset="1" stop-color="#5052F5"/>
</linearGradient>
<linearGradient id="paint14_linear_16_95" x1="249.804" y1="197.969" x2="249.804" y2="226.389" gradientUnits="userSpaceOnUse">
<stop stop-color="#4042D8"/>
<stop offset="1" stop-color="#5052F5"/>
</linearGradient>
<linearGradient id="paint15_linear_16_95" x1="280.801" y1="225.83" x2="274.374" y2="225.83" gradientUnits="userSpaceOnUse">
<stop stop-color="#4042D8"/>
<stop offset="1" stop-color="#5052F5"/>
</linearGradient>
<linearGradient id="paint16_linear_16_95" x1="279.94" y1="204.66" x2="277.051" y2="235.012" gradientUnits="userSpaceOnUse">
<stop stop-color="#4042D8"/>
<stop offset="1" stop-color="#5052F5"/>
</linearGradient>
<linearGradient id="paint17_linear_16_95" x1="278.085" y1="221.402" x2="273.906" y2="221.402" gradientUnits="userSpaceOnUse">
<stop stop-color="#94352C"/>
<stop offset="1" stop-color="#B14B42"/>
</linearGradient>
<linearGradient id="paint18_linear_16_95" x1="255.988" y1="221.126" x2="252.508" y2="221.126" gradientUnits="userSpaceOnUse">
<stop stop-color="#94352C"/>
<stop offset="1" stop-color="#B14B42"/>
</linearGradient>
<linearGradient id="paint19_linear_16_95" x1="81.985" y1="133.745" x2="70.3224" y2="164.654" gradientUnits="userSpaceOnUse">
<stop stop-color="#F3BDBB"/>
<stop offset="1" stop-color="#EF9690"/>
</linearGradient>
<linearGradient id="paint20_linear_16_95" x1="57.0078" y1="211.507" x2="70.4852" y2="211.507" gradientUnits="userSpaceOnUse">
<stop stop-color="#4042D8"/>
<stop offset="1" stop-color="#5052F5"/>
</linearGradient>
<linearGradient id="paint21_linear_16_95" x1="63.8317" y1="183.676" x2="63.8317" y2="212.096" gradientUnits="userSpaceOnUse">
<stop stop-color="#4042D8"/>
<stop offset="1" stop-color="#5052F5"/>
</linearGradient>
<linearGradient id="paint22_linear_16_95" x1="32.8445" y1="211.541" x2="39.271" y2="211.541" gradientUnits="userSpaceOnUse">
<stop stop-color="#4042D8"/>
<stop offset="1" stop-color="#5052F5"/>
</linearGradient>
<linearGradient id="paint23_linear_16_95" x1="33.6928" y1="190.371" x2="36.5814" y2="220.722" gradientUnits="userSpaceOnUse">
<stop stop-color="#4042D8"/>
<stop offset="1" stop-color="#5052F5"/>
</linearGradient>
<linearGradient id="paint24_linear_16_95" x1="35.5668" y1="207.113" x2="39.7374" y2="207.113" gradientUnits="userSpaceOnUse">
<stop stop-color="#F3BDBB"/>
<stop offset="1" stop-color="#EF9690"/>
</linearGradient>
<linearGradient id="paint25_linear_16_95" x1="57.6562" y1="206.837" x2="61.1359" y2="206.837" gradientUnits="userSpaceOnUse">
<stop stop-color="#F3BDBB"/>
<stop offset="1" stop-color="#EF9690"/>
</linearGradient>
<linearGradient id="paint26_linear_16_95" x1="30.519" y1="92.7925" x2="56.6246" y2="158.939" gradientUnits="userSpaceOnUse">
<stop stop-color="#BA356C"/>
<stop offset="1" stop-color="#472669"/>
</linearGradient>
<linearGradient id="paint27_linear_16_95" x1="68.034" y1="120.378" x2="69.7488" y2="109.814" gradientUnits="userSpaceOnUse">
<stop stop-color="#F3BDBB"/>
<stop offset="1" stop-color="#EF9690"/>
</linearGradient>
<linearGradient id="paint28_linear_16_95" x1="81.8118" y1="130.584" x2="94.2809" y2="163.928" gradientUnits="userSpaceOnUse">
<stop stop-color="#F3BDBB"/>
<stop offset="1" stop-color="#EF9690"/>
</linearGradient>
<linearGradient id="paint29_linear_16_95" x1="51.5887" y1="126.123" x2="76.8619" y2="154.252" gradientUnits="userSpaceOnUse">
<stop stop-color="#F3BDBB"/>
<stop offset="1" stop-color="#EF9690"/>
</linearGradient>
<linearGradient id="paint30_linear_16_95" x1="49.7695" y1="127.755" x2="75.0427" y2="155.883" gradientUnits="userSpaceOnUse">
<stop stop-color="#F3BDBB"/>
<stop offset="1" stop-color="#EF9690"/>
</linearGradient>
<linearGradient id="paint31_linear_16_95" x1="75.0036" y1="106.264" x2="65.2135" y2="100.296" gradientUnits="userSpaceOnUse">
<stop stop-color="#F3BDBB"/>
<stop offset="1" stop-color="#EF9690"/>
</linearGradient>
<linearGradient id="paint32_linear_16_95" x1="60.0358" y1="94.0056" x2="72.6753" y2="103.991" gradientUnits="userSpaceOnUse">
<stop stop-color="#070059"/>
<stop offset="1" stop-color="#180F8A"/>
</linearGradient>
<linearGradient id="paint33_linear_16_95" x1="72.4268" y1="108.488" x2="63.6286" y2="103.118" gradientUnits="userSpaceOnUse">
<stop stop-color="#F3BDBB"/>
<stop offset="1" stop-color="#EF9690"/>
</linearGradient>
<linearGradient id="paint34_linear_16_95" x1="169.139" y1="204.946" x2="121.156" y2="204.946" gradientUnits="userSpaceOnUse">
<stop stop-color="#4042D8"/>
<stop offset="1" stop-color="#5052F5"/>
</linearGradient>
<linearGradient id="paint35_linear_16_95" x1="142.775" y1="157.827" x2="147.969" y2="182.309" gradientUnits="userSpaceOnUse">
<stop stop-color="#4042D8"/>
<stop offset="1" stop-color="#5052F5"/>
</linearGradient>
</defs>
</svg>
