<svg width="13" height="8" viewBox="0 0 13 8" fill="none" xmlns="http://www.w3.org/2000/svg">
<path d="M7.11199 7.13998C7.01813 7.24722 6.90244 7.33316 6.77266 7.39204C6.64288 7.45092 6.50201 7.48138 6.35949 7.48138C6.21698 7.48138 6.07611 7.45092 5.94633 7.39204C5.81655 7.33316 5.70085 7.24722 5.60699 7.13998L0.806993 1.65898C0.680361 1.51445 0.598052 1.33649 0.569915 1.1464C0.541778 0.956313 0.569005 0.762144 0.648338 0.587125C0.727672 0.412107 0.85575 0.263652 1.01725 0.159524C1.17875 0.0553956 1.36683 4.29153e-06 1.55899 -2.3365e-05L11.159 -2.3365e-05C11.3512 -0.000188351 11.5395 0.0550642 11.7011 0.159117C11.8628 0.26317 11.991 0.411613 12.0704 0.586669C12.1499 0.761725 12.1772 0.955975 12.1491 1.14615C12.121 1.33633 12.0387 1.51438 11.912 1.65898L7.11199 7.13998Z" fill="#D6D6D6"/>
</svg>
