<svg width="12" height="8" viewBox="0 0 12 8" fill="none" xmlns="http://www.w3.org/2000/svg">
<path opacity="0.35" d="M6.75305 7.14004C6.65919 7.24728 6.54349 7.33322 6.41371 7.3921C6.28393 7.45098 6.14306 7.48145 6.00055 7.48145C5.85803 7.48145 5.71716 7.45098 5.58738 7.3921C5.4576 7.33322 5.3419 7.24728 5.24805 7.14004L0.448046 1.65904C0.321413 1.51451 0.239104 1.33655 0.210967 1.14646C0.18283 0.956374 0.210057 0.762205 0.289391 0.587186C0.368724 0.412168 0.496802 0.263713 0.658303 0.159585C0.819804 0.0554566 1.00789 6.53267e-05 1.20005 3.76701e-05L10.8 3.76701e-05C10.9923 -0.000127316 11.1805 0.0551252 11.3422 0.159178C11.5038 0.263231 11.632 0.411674 11.7115 0.58673C11.791 0.761786 11.8183 0.956036 11.7902 1.14621C11.7621 1.33639 11.6797 1.51444 11.553 1.65904L6.75305 7.14004Z" fill="white"/>
</svg>
