<svg width="145" height="70" viewBox="0 0 145 70" fill="none" xmlns="http://www.w3.org/2000/svg">
<g clip-path="url(#clip0_301_6832)">
<path d="M143 1H1V69H143V1Z" fill="#545AE8"/>
<path d="M142.628 47.6623C142.752 40.2631 142.774 31.8229 142.836 23.8472C142.893 15.9675 142.947 8.08519 143 0.200194L71.6467 0.0520525L0 0V70H90.0379C102.065 70 115.272 69.972 125.387 69.8759C135.502 69.7798 142.537 69.6156 142.216 69.3634C141.894 69.1111 135.576 68.9109 125.771 68.7668C115.966 68.6227 102.72 68.5346 88.6783 68.5226H59.2354L1.99144 68.6227C1.99144 47.2939 1.99144 25.2085 1.96323 1.37734L57.543 1.3413L141.319 1.41738C141.319 12.2679 141.274 27.1784 141.245 42.0889C141.245 53.7642 141.296 67.7418 141.843 69.1952C142.3 70.3203 142.464 56.9833 142.628 47.6623Z" fill="#39395B"/>
<path d="M141 44H1V57H141V44Z" fill="#FBBE40"/>
<path d="M140.613 43.5026C133.592 43.4079 125.586 43.3955 118.016 43.3461C98.543 43.2252 79.0604 43.1428 59.5682 43.0989L0 43V58L107.493 57.9794C123.691 57.9794 143.062 57.8517 142.621 57.3244C142.18 56.797 125.49 56.5004 106.577 56.4633C99.9631 56.4633 93.3211 56.4633 86.7414 56.4633C73.0106 56.5251 59.2005 56.554 45.0227 56.5704H1.95185C1.95185 52.6114 1.95185 48.5699 1.95185 44.4007L39.0879 44.3678L135.323 44.4913H141.637C141.637 45.8673 141.67 47.2227 141.682 48.4916C141.682 49.9912 141.738 51.3754 141.784 52.6114C141.874 55.0503 142.016 56.7764 142.231 57.1719C142.446 57.5674 142.61 55.7506 142.728 53.0975C142.774 51.7668 142.825 50.2137 142.881 48.6152C142.921 46.9179 142.96 45.1587 143 43.5026H140.613Z" fill="#39395B"/>
<path d="M27.0185 19.395L28.4179 23.9003C28.4516 24.0165 28.5199 24.1184 28.6128 24.191C28.7058 24.2636 28.8185 24.3032 28.9344 24.304H33.4564C33.5711 24.304 33.6829 24.342 33.7758 24.4126C33.8687 24.4832 33.9378 24.5828 33.9733 24.6971C34.0088 24.8113 34.0089 24.9344 33.9735 25.0488C33.9381 25.1631 33.8691 25.2627 33.7763 25.3335L30.1179 28.119C30.0246 28.1887 29.9548 28.2877 29.9188 28.4016C29.8827 28.5156 29.8823 28.6386 29.9175 28.7528L31.3168 33.2582C31.3515 33.3723 31.3509 33.4951 31.3151 33.6089C31.2793 33.7227 31.2102 33.8217 31.1175 33.892C31.0248 33.9622 30.9133 34 30.7989 34C30.6845 34 30.573 33.9622 30.4803 33.892L26.8219 31.1105C26.7295 31.0399 26.6182 31.0019 26.5039 31.0019C26.3895 31.0019 26.2782 31.0399 26.1858 31.1105L22.5197 33.8597C22.427 33.9299 22.3155 33.9677 22.2011 33.9677C22.0867 33.9677 21.9752 33.9299 21.8825 33.8597C21.7898 33.7894 21.7207 33.6904 21.6849 33.5766C21.6491 33.4628 21.6485 33.34 21.6832 33.2259L23.0825 28.7205C23.1181 28.6067 23.1183 28.484 23.0829 28.3701C23.0476 28.2561 22.9786 28.1569 22.8859 28.0867L19.2237 25.3012C19.1309 25.2304 19.0619 25.1308 19.0265 25.0165C18.9911 24.9021 18.9912 24.779 19.0267 24.6648C19.0622 24.5505 19.1314 24.4509 19.2242 24.3803C19.3171 24.3097 19.4289 24.2717 19.5436 24.2717H24.0617C24.1777 24.2709 24.2904 24.2313 24.3833 24.1587C24.4762 24.0861 24.5446 23.9842 24.5783 23.868L25.9892 19.395C26.0238 19.2804 26.0923 19.1803 26.1848 19.1093C26.2774 19.0383 26.3891 19 26.5039 19C26.6186 19 26.7303 19.0383 26.8229 19.1093C26.9154 19.1803 26.984 19.2804 27.0185 19.395Z" fill="white"/>
<path d="M25.4922 21.4097C25.2681 21.9741 25.044 22.5846 24.8237 23.2066L24.7401 23.437C24.7289 23.4824 24.7123 23.5262 24.6907 23.5675C24.6716 23.6015 24.6447 23.6304 24.6123 23.6517C24.58 23.6731 24.543 23.6864 24.5046 23.6904L23.6461 23.6674L21.0478 23.5867H20.2349C20.073 23.5703 19.9096 23.5878 19.7547 23.638C19.5998 23.6882 19.4568 23.7701 19.3346 23.8786C19.2176 23.9889 19.127 24.1247 19.0697 24.2758C19.0124 24.4268 18.99 24.589 19.0041 24.7502C19.0208 24.9134 19.0718 25.0712 19.1537 25.2129C19.2355 25.3546 19.3464 25.477 19.4789 25.5718L21.6138 27.1998L22.6166 27.9294L22.8635 28.1137C22.9205 28.1559 22.9091 28.1482 22.9129 28.1559C22.9195 28.1655 22.923 28.1769 22.923 28.1885C22.923 28.2002 22.9195 28.2116 22.9129 28.2212L21.9671 31.0433L21.7315 31.7652L21.6366 32.0455C21.6024 32.1607 21.5568 32.2797 21.5264 32.3987C21.4637 32.6014 21.4545 32.8172 21.4998 33.0246C21.5654 33.3231 21.7378 33.5866 21.9839 33.7645C22.23 33.9424 22.5325 34.0221 22.8332 33.9883C23.0451 33.9615 23.2473 33.8824 23.4219 33.7579L26.9281 31.2046L29.3061 32.9516L29.9139 33.397L30.4609 33.781C30.6351 33.9064 30.8401 33.9808 31.0535 33.996C31.3576 34.0205 31.6602 33.9323 31.9049 33.7479C32.1495 33.5635 32.3194 33.2955 32.383 32.9938C32.4221 32.7802 32.4091 32.5601 32.345 32.3526L31.4941 29.7263L31.1142 28.5437L31.0003 28.1905L32.835 26.8389L33.7733 26.1439L34.4343 25.6601C34.7063 25.4842 34.8988 25.207 34.9699 24.8885C35.041 24.5701 34.985 24.2362 34.8141 23.9592C34.6539 23.6917 34.3983 23.4966 34.1 23.414C33.9221 23.3723 33.7391 23.3568 33.5568 23.3679H29.4542H29.4314L29.1655 22.6192C29.0706 22.3542 28.9756 22.097 28.8844 21.8512C28.6945 21.3559 28.5046 20.9067 28.3412 20.5266C27.9993 19.7586 27.7068 19.3056 27.5283 19.3977C27.3498 19.4899 27.3536 20.0005 27.4713 20.7953C27.5321 21.1793 27.6233 21.6631 27.741 22.1776C27.8056 22.4349 27.8702 22.7075 27.9386 22.9878C27.9728 23.126 28.0107 23.2681 28.0487 23.414L28.1095 23.6328L28.1855 23.9131C28.2682 24.1818 28.4388 24.414 28.6694 24.5717C28.9 24.7294 29.1767 24.8032 29.4542 24.7809H30.3507H32.0487H33.2263C33.2263 24.7617 33.2871 24.7809 33.2681 24.8116V24.8308C33.2681 24.8308 33.2681 24.8308 33.2415 24.8538L33.0971 24.9652L32.4932 25.4183L30.1152 27.2037C29.966 27.312 29.8449 27.4551 29.7622 27.6209C29.6795 27.7867 29.6377 27.9703 29.6404 28.1559C29.6424 28.2477 29.6538 28.3391 29.6745 28.4285L29.7163 28.5629L29.7505 28.6666L29.8455 28.9584C29.9708 29.3424 30.1 29.7263 30.2254 30.1295C30.4571 30.8437 30.6888 31.5655 30.9281 32.295C30.9281 32.3334 30.9585 32.3795 30.9281 32.4179C30.9184 32.4367 30.9022 32.4513 30.8827 32.459C30.8632 32.4668 30.8415 32.4672 30.8217 32.4601C30.8015 32.4509 30.7824 32.4393 30.7648 32.4256L30.6926 32.368L30.0848 31.9264L27.5701 30.0796C27.4268 29.9714 27.2598 29.8995 27.0833 29.8701C26.9068 29.8407 26.7259 29.8546 26.5558 29.9106C26.4709 29.9382 26.3893 29.9756 26.3127 30.022C26.2747 30.0489 26.2368 30.0719 26.1988 30.1026L26.1076 30.1679L25.8645 30.3483L24.8958 31.074L23.0611 32.4333C23.0269 32.4563 22.9927 32.4947 22.9471 32.4909C22.9248 32.4902 22.9032 32.4824 22.8854 32.4686C22.8677 32.4548 22.8547 32.4357 22.8483 32.4141C22.8419 32.3684 22.8485 32.3217 22.8673 32.2797C22.9167 32.1184 22.9699 31.9533 23.0193 31.7844L24.0981 28.5053C24.1929 28.2168 24.1711 27.9022 24.0373 27.6299C23.9657 27.4925 23.869 27.3701 23.7524 27.269L23.4675 27.0578L22.5559 26.3743L20.5312 24.8653C20.5008 24.8423 20.4704 24.8154 20.4818 24.7732C20.4844 24.7638 20.4888 24.755 20.4949 24.7474C20.5009 24.7397 20.5084 24.7334 20.5169 24.7287C20.5254 24.7241 20.5348 24.7212 20.5444 24.7202C20.554 24.7193 20.5637 24.7203 20.5729 24.7233H20.5995C20.6311 24.7271 20.663 24.7271 20.6945 24.7233H21.1883H22.214H24.364H24.6033C24.6906 24.7157 24.7771 24.7003 24.8616 24.6772C25.0295 24.6288 25.1842 24.5421 25.3137 24.4238C25.4444 24.3064 25.5493 24.1625 25.6214 24.0014C25.6556 23.9246 25.686 23.821 25.7087 23.7557L25.7505 23.6213L26.1038 22.5462C26.4001 21.6401 26.7116 20.6264 26.9167 19.8201C26.9167 19.7701 26.9433 19.7202 26.9547 19.6703V19.5974C26.9547 19.5743 26.9547 19.5974 26.9357 19.5782C26.9167 19.559 26.8787 19.5359 26.8863 19.5475C26.8939 19.559 26.8863 19.5475 26.9167 19.5244C26.9471 19.5014 27.0497 19.4668 27.1484 19.4783C27.2472 19.4899 27.3004 19.3977 27.2244 19.2211C27.1937 19.1685 27.1525 19.1229 27.1035 19.0872C27.0544 19.0515 26.9986 19.0265 26.9395 19.0137C26.8526 18.9938 26.7622 18.9956 26.6761 19.019C26.59 19.0424 26.5109 19.0868 26.4457 19.1481C26.3683 19.2211 26.3097 19.3121 26.2747 19.4131C26.2368 19.5014 26.195 19.5897 26.157 19.6818L25.9215 20.2501C25.7923 20.6648 25.6328 21.0564 25.4922 21.4097Z" fill="#39395B"/>
<path d="M14.8993 7.44883L15.9224 11.0145C15.9475 11.1031 15.9965 11.1808 16.0624 11.2366C16.1283 11.2924 16.208 11.3238 16.2904 11.3262H19.6025C19.6862 11.3262 19.7679 11.3561 19.8357 11.4115C19.9035 11.467 19.9541 11.5452 19.9802 11.6351C20.0063 11.7249 20.0066 11.8218 19.9811 11.9118C19.9556 12.0019 19.9055 12.0806 19.838 12.1366L17.1515 14.3433C17.0831 14.3988 17.0323 14.4776 17.0065 14.5681C16.9806 14.6586 16.9812 14.756 17.008 14.8462L18.0348 18.4119C18.0592 18.5022 18.0581 18.5988 18.0315 18.6884C18.0049 18.7779 17.9543 18.8558 17.8865 18.9112C17.8188 18.9666 17.7375 18.9967 17.6539 18.9974C17.5703 18.998 17.4886 18.9691 17.4202 18.9147L14.7337 16.708C14.6653 16.6534 14.5837 16.6241 14.5 16.6241C14.4163 16.6241 14.3347 16.6534 14.2663 16.708L11.5798 18.9147C11.5118 18.9703 11.43 19.0002 11.3461 19C11.2622 18.9998 11.1804 18.9697 11.1126 18.9139C11.0448 18.858 10.9944 18.7794 10.9685 18.6892C10.9427 18.5991 10.9429 18.502 10.9689 18.4119L11.992 14.8462C12.0188 14.756 12.0194 14.6586 11.9935 14.5681C11.9677 14.4776 11.9168 14.3988 11.8485 14.3433L9.16195 12.1366C9.0945 12.0806 9.04444 12.0019 9.01891 11.9118C8.99339 11.8218 8.99371 11.7249 9.01982 11.6351C9.04593 11.5452 9.09651 11.467 9.16433 11.4115C9.23215 11.3561 9.31374 11.3262 9.39748 11.3262H12.7096C12.792 11.3238 12.8717 11.2924 12.9376 11.2366C13.0035 11.1808 13.0525 11.1031 13.0776 11.0145L14.1044 7.44883C14.1044 7.32979 14.1463 7.21563 14.2208 7.13146C14.2953 7.04729 14.3964 7 14.5018 7C14.6073 7 14.7083 7.04729 14.7829 7.13146C14.8574 7.21563 14.8993 7.32979 14.8993 7.44883Z" fill="white"/>
<path d="M13.2328 9.04443C13.0438 9.52193 12.8627 10.0421 12.6815 10.5707L12.65 10.6688V10.7199C12.6393 10.751 12.6261 10.7809 12.6107 10.8095C12.5948 10.8384 12.5731 10.863 12.5472 10.8814C12.5213 10.8999 12.4918 10.9117 12.461 10.9161L11.8428 10.8862L10.7442 10.8393L10.193 10.8137L9.40544 10.7924C9.25197 10.7838 9.0982 10.7838 8.94473 10.7924C8.82243 10.8113 8.70233 10.8442 8.58641 10.8905C8.37118 10.9742 8.19459 11.1455 8.09421 11.368C7.98777 11.6046 7.97081 11.8769 8.04696 12.1269C8.13199 12.3758 8.27922 12.5942 8.47222 12.7579L9.51963 13.6105L10.256 14.2202L10.9962 14.8299L11.0396 14.864C11.0396 14.864 11.0396 14.864 11.0396 14.8896C11.0434 14.8975 11.0453 14.9062 11.0453 14.9151C11.0453 14.924 11.0434 14.9328 11.0396 14.9407L10.252 17.422L10.063 18.0487C9.98984 18.2426 9.94084 18.4462 9.91733 18.6541C9.89075 18.9508 9.96804 19.2475 10.1339 19.4855C10.3188 19.7468 10.5895 19.9209 10.8899 19.9715C11.0137 19.9948 11.1402 19.9948 11.264 19.9715C11.4306 19.9351 11.5886 19.8626 11.7286 19.7584L13.6226 18.279L14.3787 17.6906L14.418 17.6565L16.3672 19.1871L16.8712 19.5878C17.0222 19.7241 17.1907 19.8361 17.3713 19.9204C17.6246 20.0265 17.9054 20.0265 18.1588 19.9204C18.4476 19.8083 18.6849 19.5789 18.8203 19.2808C18.8786 19.1587 18.9147 19.0255 18.9266 18.8886C18.9481 18.7038 18.9319 18.5161 18.8794 18.3386L18.1509 15.9341L17.8635 14.9748L17.8438 14.9237L19.2416 13.8194L20.2142 13.052C20.4517 12.8981 20.659 12.6953 20.8246 12.4551C20.9305 12.2797 20.9904 12.0763 20.9978 11.8668C21.012 11.6218 20.9571 11.378 20.8403 11.1676C20.7383 10.9896 20.596 10.8429 20.4269 10.7413C20.1355 10.4982 19.3204 10.5963 18.8518 10.575H16.5404H16.5168C16.5168 10.6219 16.4735 10.4471 16.438 10.3448C16.4026 10.2424 16.3632 10.1188 16.3239 10.008L16.0915 9.36418C15.938 8.93784 15.7883 8.57545 15.6426 8.25996C15.3513 7.63324 15.0914 7.26233 14.9063 7.35186C14.7212 7.44139 14.6858 7.88905 14.7488 8.56693C14.7842 8.90374 14.8394 9.30023 14.9221 9.7351C14.9614 9.95679 15.0087 10.1614 15.0599 10.4215L15.1426 10.7796C15.1741 10.9203 15.1819 10.9715 15.2607 11.2614C15.327 11.4924 15.4553 11.6968 15.6291 11.8486C15.803 12.0004 16.0147 12.0928 16.2372 12.1141H17.135H18.4895H18.8833C18.903 12.1141 18.9463 12.1141 18.9384 12.1354C18.9403 12.1452 18.9403 12.1554 18.9384 12.1652C18.9109 12.1908 18.9817 12.1397 18.7691 12.3102L16.9263 13.8791C16.7026 14.0521 16.549 14.3116 16.4971 14.6039C16.473 14.7448 16.473 14.8893 16.4971 15.0302C16.5118 15.1038 16.5302 15.1763 16.5522 15.2477L16.6113 15.4353C16.7058 15.7508 16.8042 16.0662 16.9027 16.3817C17.0523 16.8848 17.2059 17.3879 17.3634 17.8995C17.3744 17.9359 17.3836 17.9729 17.3909 18.0104C17.3922 18.0294 17.3868 18.0482 17.3759 18.0632C17.365 18.0782 17.3493 18.0882 17.3319 18.0914C17.261 18.0914 17.2138 18.0146 17.1508 17.9762L15.0677 16.3391C14.8527 16.1635 14.5829 16.0855 14.3157 16.1217C14.1772 16.1348 14.0429 16.1798 13.9219 16.2538C13.8619 16.2896 13.804 16.3295 13.7486 16.3732L13.6029 16.4926L12.8587 17.0809L12.1027 17.6778L11.709 17.9805L11.6381 18.0402L11.5436 18.1169C11.5252 18.1268 11.5043 18.1296 11.4843 18.125C11.4643 18.1203 11.4463 18.1085 11.4333 18.0914C11.4237 18.0724 11.4186 18.0512 11.4186 18.0295C11.4186 18.0079 11.4237 17.9867 11.4333 17.9677L11.4648 17.8356L12.2917 15.1709C12.3624 14.9403 12.3622 14.6911 12.2913 14.4605C12.2203 14.23 12.0823 14.0305 11.898 13.8919L11.1419 13.2865L10.3544 12.6598L9.92127 12.3102L9.82283 12.2334L9.79133 12.2036C9.77164 12.1823 9.74013 12.1652 9.73226 12.1354C9.73053 12.1269 9.73054 12.1181 9.73227 12.1096C9.73401 12.1011 9.73743 12.0932 9.74231 12.0863C9.74718 12.0794 9.75339 12.0737 9.76049 12.0697C9.7676 12.0656 9.77544 12.0633 9.78345 12.0629H9.88189H10.5119H12.3232C12.6114 12.1041 12.9033 12.0259 13.1405 11.8441C13.3778 11.6623 13.5429 11.3903 13.6029 11.0823C13.7014 10.754 13.8038 10.4215 13.9061 10.089C14.1424 9.31302 14.3905 8.46034 14.544 7.75688L14.5677 7.62898V7.56503L14.4141 7.49681C14.3708 7.49681 14.3669 7.46271 14.3747 7.4755C14.3826 7.48829 14.3747 7.52666 14.3747 7.50108C14.3747 7.4755 14.3747 7.46697 14.3747 7.4755C14.4119 7.45213 14.4538 7.43895 14.4968 7.43712C14.5795 7.43712 14.6543 7.36465 14.607 7.2069C14.5873 7.15883 14.5574 7.11644 14.5198 7.08312C14.4822 7.04981 14.4379 7.02649 14.3905 7.01505C14.3219 6.99548 14.2498 6.99499 14.181 7.01362C14.1121 7.03225 14.0487 7.06941 13.9967 7.12164C13.932 7.18407 13.8809 7.26124 13.8471 7.3476L13.7486 7.57782L13.5518 8.05958C13.4848 8.41344 13.3549 8.74599 13.2328 9.04443Z" fill="#39395B"/>
</g>
<defs>
<clipPath id="clip0_301_6832">
<rect width="145" height="70" fill="white"/>
</clipPath>
</defs>
</svg>
