<svg width="145" height="70" viewBox="0 0 145 70" fill="none" xmlns="http://www.w3.org/2000/svg">
<g clip-path="url(#clip0_301_6806)">
<path d="M145 1H1V15H145V1Z" fill="#139F7F"/>
<path d="M144.312 0.444303L138.531 0.391139L132.726 0.35696L120.94 0.3C100.982 0.19114 81.0131 0.115188 61.0351 0.0721499L0 0V15H108.575C125.173 15 145.023 14.8823 144.576 14.3962C144.128 13.9101 127.014 13.6367 107.64 13.5987C100.855 13.5987 94.0475 13.5987 87.3086 13.5987C73.475 13.6557 59.5611 13.6861 45.2917 13.6975H1.97295C1.97295 9.67215 1.97295 5.5519 1.97295 1.30253L40.0382 1.26835L138.685 1.38608H143.589C143.589 2.76076 143.589 4.13544 143.624 5.43038C143.624 6.94937 143.675 8.35443 143.721 9.6076C143.813 12.0911 143.962 13.8646 144.191 14.2557C144.421 14.6468 144.593 12.7367 144.713 9.99873C144.765 8.63544 144.816 7.06329 144.874 5.46076C144.92 3.76709 144.96 2.04304 145 0.459493L144.312 0.444303Z" fill="#39395B"/>
<path d="M145 55H1V69H145V55Z" fill="#139F7F"/>
<path d="M144.312 55.4329L138.531 55.3835L132.726 55.3456L120.94 55.2924C100.982 55.1836 81.0131 55.1076 61.0351 55.0646L0 55V70H108.575C125.173 70 145.023 69.8785 144.576 69.3962C144.128 68.9139 127.014 68.6367 107.64 68.5987C100.855 68.5987 94.0475 68.5987 87.3086 68.5987C73.475 68.6557 59.5611 68.6823 45.2917 68.6975H1.97295C1.97295 64.6722 1.97295 60.5557 1.97295 56.3025L40.0382 56.2722L138.685 56.3899H143.589C143.589 57.7684 143.589 59.143 143.624 60.4342C143.624 61.9532 143.675 63.362 143.721 64.6114C143.813 67.0949 143.962 68.8684 144.191 69.2557C144.421 69.643 144.593 67.7367 144.713 65.0025C144.765 63.6393 144.816 62.0671 144.874 60.4456C144.92 58.7519 144.96 57.0279 145 55.4481L144.312 55.4329Z" fill="#39395B"/>
<path d="M145 21H1V49H145V21Z" fill="#B40A2D"/>
<path d="M144.84 33.0094C144.868 31.0858 144.903 29.0755 144.937 27.0102C144.937 24.819 144.977 22.5806 145 20.3462L136.2 20.3108C113.697 20.1928 91.186 20.1128 68.6673 20.0708L0 20V50H103.82C122.537 50 144.914 49.8781 144.41 49.3745C144.192 49.1345 139.254 48.9339 131.617 48.7923C123.98 48.6507 113.691 48.5641 102.766 48.5484C95.1237 48.5484 87.4469 48.5484 79.8503 48.5484L41.1167 48.6389L1.96503 48.6625C1.96503 39.8348 1.96503 30.7671 1.96503 21.3572L44.9953 21.3257L143.425 21.4359C143.425 23.4028 143.425 26.1133 143.425 28.8198C143.425 37.6121 143.476 48.1275 144.032 49.2211C144.507 50.0629 144.673 40.0236 144.84 33.0094Z" fill="#39395B"/>
<path d="M73.2613 25.7251L75.2438 31.7622C75.2952 31.9136 75.3924 32.0454 75.5221 32.1394C75.6518 32.2333 75.8076 32.2849 75.9679 32.2869H82.3376C82.4959 32.293 82.6486 32.3473 82.7749 32.4425C82.9013 32.5377 82.9953 32.6693 83.0443 32.8194C83.0932 32.9695 83.0948 33.131 83.0488 33.282C83.0027 33.4331 82.9113 33.5664 82.7868 33.664L77.6368 37.3905C77.507 37.4859 77.4103 37.6194 77.3604 37.7723C77.3104 37.9251 77.3096 38.0897 77.358 38.243L79.3251 44.2763C79.3656 44.4263 79.3597 44.5849 79.3082 44.7315C79.2567 44.878 79.162 45.0057 79.0365 45.0978C78.911 45.1899 78.7606 45.2422 78.6048 45.2477C78.449 45.2532 78.2952 45.2118 78.1634 45.1288L73.0096 41.3985C72.8785 41.3055 72.7215 41.2555 72.5605 41.2555C72.3994 41.2555 72.2424 41.3055 72.1113 41.3985L66.9575 45.1288C66.8257 45.2118 66.6719 45.2532 66.5161 45.2477C66.3603 45.2422 66.2099 45.1899 66.0844 45.0978C65.9589 45.0057 65.8642 44.878 65.8127 44.7315C65.7612 44.5849 65.7553 44.4263 65.7958 44.2763L67.7241 38.2314C67.7726 38.0781 67.7718 37.9135 67.7218 37.7607C67.6718 37.6078 67.5752 37.4744 67.4453 37.3789L62.2954 33.6525C62.1709 33.5548 62.0795 33.4215 62.0334 33.2705C61.9874 33.1194 61.9889 32.9579 62.0379 32.8078C62.0869 32.6577 62.1809 32.5262 62.3072 32.4309C62.4336 32.3357 62.5862 32.2814 62.7446 32.2753H69.1142C69.2746 32.2733 69.4304 32.2218 69.5601 32.1278C69.6898 32.0338 69.787 31.902 69.8383 31.7507L71.8054 25.7135C71.8608 25.565 71.9608 25.4371 72.0918 25.3472C72.2228 25.2573 72.3784 25.2097 72.5374 25.211C72.6965 25.2122 72.8513 25.2623 72.9808 25.3542C73.1103 25.4462 73.2082 25.5757 73.2613 25.7251Z" fill="#FBBE40"/>
<path d="M71.1645 28.554C70.8586 29.3525 70.5527 30.2127 70.2468 31.0923L70.1306 31.4202C70.1004 31.5131 70.0655 31.6045 70.026 31.694C69.9977 31.7447 69.9583 31.7884 69.9107 31.8218C69.8631 31.8552 69.8086 31.8774 69.7511 31.8869H69.4685H69.12H68.423L64.7367 31.8098L63.819 31.7905H63.3582C63.1063 31.7819 62.8569 31.8434 62.638 31.9679C62.4671 32.0696 62.3217 32.2087 62.2129 32.3747C62.1041 32.5408 62.0347 32.7293 62.0101 32.9261C61.9854 33.1229 62.0062 33.3226 62.0707 33.5102C62.1352 33.6978 62.2418 33.8683 62.3824 34.0086L62.5296 34.1359L62.6225 34.2092L62.8084 34.3442L65.7589 36.5469L67.2381 37.6425L67.606 37.9164L67.6486 37.9472C67.6493 37.9575 67.6493 37.9678 67.6486 37.9781C67.6562 37.9993 67.6562 38.0225 67.6486 38.0437L67.5246 38.4294L66.363 41.9013L65.7822 43.6449L65.6389 44.0847C65.5479 44.3682 65.5479 44.6729 65.6389 44.9565C65.7031 45.1693 65.8153 45.3647 65.9669 45.5277C66.1185 45.6907 66.3055 45.817 66.5135 45.897C66.7216 45.9771 66.9453 46.0086 67.1675 45.9894C67.3898 45.9701 67.6046 45.9005 67.7957 45.7859C67.8797 45.7347 67.9612 45.6793 68.0396 45.62L68.2255 45.4888L68.9728 44.9488L70.4675 43.8725L71.9621 42.7962L72.7094 42.26L73.0734 41.9977H73.0928H73.1121L73.4684 42.2562L74.2157 42.7962L75.7065 43.8763L77.2011 44.9565L77.9446 45.4927L78.1343 45.6277L78.2272 45.6971L78.2776 45.7318L78.3705 45.7897C78.6288 45.9497 78.9303 46.0265 79.234 46.0096C79.5336 45.9888 79.8201 45.8793 80.0568 45.6951C80.2935 45.5109 80.4694 45.2604 80.5621 44.9758C80.6531 44.687 80.6531 44.3773 80.5621 44.0885L80.415 43.641L79.8419 41.8935L78.6803 38.4024L78.5602 38.0166C78.5583 38.0064 78.5583 37.996 78.5602 37.9858L78.5951 37.9626L78.9823 37.6926L80.4731 36.6086L83.4585 34.4445L83.6444 34.3095L83.745 34.2362L83.9077 34.0973C84.1131 33.8858 84.2483 33.6165 84.2949 33.3258C84.343 33.0344 84.3022 32.7352 84.178 32.4671C84.0538 32.1989 83.8517 31.974 83.5979 31.8213C83.4045 31.7099 83.1892 31.6415 82.9667 31.6207H76.5041C76.4952 31.6229 76.4859 31.6229 76.477 31.6207C76.477 31.6207 76.477 31.6208 76.4499 31.5513L76.206 30.8415C75.8807 29.9041 75.5555 29.0053 75.2534 28.2299C74.6494 26.6869 74.146 25.6376 73.9253 25.7649C73.7046 25.8922 73.8517 26.9222 74.2157 28.5038C74.3977 29.2753 74.6339 30.2012 74.9166 31.2041C74.9901 31.451 75.0598 31.7056 75.1373 31.9756L75.1682 32.0837C75.1874 32.1443 75.2107 32.2036 75.2379 32.2611C75.2966 32.3755 75.368 32.4829 75.4509 32.5813C75.5812 32.7295 75.7404 32.8497 75.9188 32.9346C76.0972 33.0195 76.2911 33.0673 76.4886 33.0751H76.7171H77.1392H77.9988C79.6135 33.0751 81.232 33.0751 82.839 33.0751H82.928C82.928 33.0751 82.9474 33.0751 82.959 33.1021C82.9657 33.1181 82.9657 33.1362 82.959 33.1522C82.959 33.1522 82.959 33.1522 82.9164 33.2062L81.3017 34.4059L78.0375 36.8092L77.8323 36.9597C77.7093 37.0494 77.6009 37.1573 77.5109 37.2798C77.3295 37.5334 77.2394 37.8407 77.2553 38.1517C77.2597 38.2282 77.27 38.3043 77.2863 38.3793C77.2943 38.4172 77.3047 38.4545 77.3173 38.4911L77.3366 38.5606L77.418 38.8036L77.5806 39.2935L78.2272 41.257C78.4441 41.9128 78.6609 42.5763 78.8778 43.2398C78.9862 43.5716 79.0946 43.9072 79.2069 44.2428L79.2882 44.4936C79.2903 44.5167 79.2903 44.5399 79.2882 44.563C79.2882 44.563 79.2882 44.563 79.2882 44.5939C79.2898 44.6275 79.2788 44.6605 79.2572 44.6864C79.2353 44.7175 79.2026 44.7394 79.1654 44.7479C79.1283 44.7565 79.0893 44.7511 79.0559 44.7327C79.0379 44.7244 79.021 44.7141 79.0055 44.7019L78.8971 44.6247L78.6803 44.4666L78.2427 44.1502L76.477 42.8734L74.6842 41.5734L74.2312 41.2455L74.0027 41.0834L73.8904 40.9986C73.8247 40.9532 73.7562 40.912 73.6852 40.8751C73.3798 40.7248 73.0292 40.6932 72.7017 40.7864C72.5431 40.8324 72.3937 40.9055 72.2603 41.0024L72.0318 41.1683L68.2875 43.8918L67.331 44.59L67.211 44.6749C67.1821 44.6995 67.151 44.7214 67.1181 44.7404C67.1 44.7545 67.0787 44.7638 67.0561 44.7674C67.0326 44.7721 67.0084 44.7717 66.985 44.7664C66.9617 44.7611 66.9397 44.7509 66.9206 44.7366C66.882 44.7099 66.8545 44.6701 66.8431 44.6247C66.8375 44.6006 66.8375 44.5755 66.8431 44.5514C66.8431 44.5514 66.8431 44.5514 66.8431 44.5206L66.8625 44.4473L66.909 44.3045L67.2962 43.1473C67.5543 42.4066 67.8125 41.6351 68.0706 40.8327L68.4811 39.6021L68.6901 38.9695L68.7986 38.6493L68.8567 38.468C68.8831 38.3708 68.9 38.2714 68.907 38.171C68.919 37.9664 68.8841 37.7618 68.8049 37.5726C68.7258 37.3835 68.6044 37.2147 68.4501 37.0793C68.4162 37.047 68.38 37.0173 68.3417 36.9905L68.2681 36.9404L68.1287 36.8362L67.846 36.6279L66.6844 35.787L64.3069 34.0472L63.699 33.6036L63.3931 33.3798L63.2382 33.2679L63.2033 33.2409C63.1934 33.2247 63.1882 33.206 63.1882 33.1869C63.1882 33.1679 63.1934 33.1492 63.2033 33.1329C63.2069 33.113 63.2161 33.0944 63.2298 33.0794C63.2435 33.0644 63.2612 33.0535 63.2808 33.0481H63.3156C63.3156 33.0481 63.3466 33.0481 63.3814 33.0481H64.6515H66.2313H69.4259C69.6005 33.0551 69.7753 33.0473 69.9486 33.0249C70.1998 32.981 70.4346 32.8709 70.6286 32.7061C70.8227 32.5412 70.9689 32.3277 71.0522 32.0875L71.1838 31.7018L71.6872 30.1587C72.1131 28.878 72.5623 27.4584 72.8759 26.3281L72.9689 25.9732C72.972 25.9428 72.9826 25.9137 72.9998 25.8884C73.0228 25.8608 73.0511 25.8381 73.083 25.8215C73.115 25.805 73.1499 25.7949 73.1857 25.7919C73.3205 25.79 73.4537 25.8218 73.5729 25.8845C73.6194 25.8845 73.6504 25.8845 73.662 25.8112C73.6744 25.7144 73.6494 25.6165 73.5923 25.5373C73.5435 25.4665 73.4804 25.4065 73.4071 25.3614C73.3338 25.3162 73.2518 25.2868 73.1664 25.275C73.0446 25.2523 72.9192 25.259 72.8006 25.2946C72.682 25.3302 72.5738 25.3936 72.4849 25.4795C72.3823 25.5795 72.3053 25.7025 72.2603 25.8382C72.2099 25.9655 72.1557 26.0928 72.1054 26.224L71.7879 27.0302L71.1645 28.554Z" fill="#39395B"/>
</g>
<defs>
<clipPath id="clip0_301_6806">
<rect width="145" height="70" fill="white"/>
</clipPath>
</defs>
</svg>
