<svg width="145" height="70" viewBox="0 0 145 70" fill="none" xmlns="http://www.w3.org/2000/svg">
<g clip-path="url(#clip0_301_6820)">
<g clip-path="url(#clip1_301_6820)">
<path d="M143.505 1H1.49463V24H143.505V1Z" fill="#F65535"/>
<path d="M144.885 7.85533C144.885 6.72923 144.931 5.56794 144.954 4.37928C144.954 3.07332 144.983 1.73607 145 0.375366L130.008 0.308896C108.541 0.1942 87.0619 0.116 65.5715 0.0742923L0 0V24H105.727C123.584 24 144.937 23.8788 144.456 23.3783C143.974 22.8778 125.544 22.5963 104.724 22.5611C97.4231 22.5415 90.1049 22.5415 82.8498 22.5611L42.7974 22.6549L1.96565 22.6745C1.96565 15.781 1.96565 8.6999 1.96565 1.35679L42.9808 1.32161L143.464 1.43891C143.464 2.09189 143.464 3.00293 143.464 3.89052C143.464 12.2229 143.516 22.1975 144.072 23.2336C144.553 24.0235 144.719 14.5064 144.885 7.85533Z" fill="#39395B"/>
<path d="M144.885 30.8436C144.885 29.7175 144.931 28.5562 144.954 27.3675C144.954 26.0616 144.983 24.7243 145 23.3636L130.008 23.2972C108.541 23.1851 87.0619 23.1069 65.5715 23.0626L0 23V47H105.727C123.584 47 144.937 46.8749 144.456 46.3783C143.974 45.8817 125.544 45.5963 104.724 45.5572C97.4231 45.5572 90.1049 45.5572 82.8498 45.5572L42.7974 45.6549H1.96565C1.96565 38.7615 1.96565 31.6764 1.96565 24.3333L42.9808 24.3021L143.464 24.4194C143.464 25.0723 143.464 25.9834 143.464 26.871C143.464 35.2033 143.516 45.174 144.072 46.2141C144.553 47.0235 144.719 37.4907 144.885 30.8436Z" fill="#39395B"/>
<path d="M143.505 46H1.49463V69H143.505V46Z" fill="#545AE8"/>
<path d="M144.885 53.8566C144.908 52.7277 144.931 51.5675 144.954 50.3761C144.954 49.0738 144.983 47.7364 145 46.3754L130.008 46.3089C108.541 46.1916 87.0619 46.1121 65.5715 46.0704L0 46V70H105.727C123.584 70 144.937 69.8749 144.456 69.3782C143.974 68.8815 125.544 68.5961 104.724 68.5569C97.4231 68.5374 90.1049 68.5569 82.8498 68.5569L42.7974 68.6547H1.96565C1.96565 61.7601 1.96565 54.6779 1.96565 47.3336L42.9808 47.3023L143.464 47.4157C143.464 48.0727 143.464 48.98 143.464 49.8716C143.464 58.2053 143.516 68.1776 144.072 69.2139C144.553 70.0274 144.719 60.5087 144.885 53.8566Z" fill="#39395B"/>
</g>
</g>
<defs>
<clipPath id="clip0_301_6820">
<rect width="145" height="70" fill="white"/>
</clipPath>
<clipPath id="clip1_301_6820">
<rect width="145" height="70" fill="white"/>
</clipPath>
</defs>
</svg>
