<svg width="212" height="41" viewBox="0 0 212 41" fill="none" xmlns="http://www.w3.org/2000/svg">
<path opacity="0.7" d="M138.736 16.9313C140.621 16.8603 142.471 17.4558 143.961 18.6133C145.346 19.7403 146.257 21.3463 146.514 23.1133H143.636C143.48 22.0069 142.891 21.0077 141.999 20.3353C141.035 19.6416 139.868 19.2878 138.681 19.3293C137.762 19.3185 136.857 19.5463 136.053 19.9903C135.23 20.4641 134.567 21.1708 134.146 22.0213C133.634 23.0721 133.386 24.232 133.425 25.4003C133.387 26.5682 133.634 27.7277 134.146 28.7783C134.568 29.6273 135.231 30.3325 136.053 30.8053C136.857 31.2493 137.762 31.477 138.681 31.4663C139.87 31.5076 141.039 31.148 141.999 30.4453C142.89 29.7651 143.478 28.762 143.636 27.6523H146.519C146.27 29.4277 145.358 31.0429 143.966 32.1723C142.471 33.3216 140.62 33.911 138.736 33.8383C137.271 33.866 135.824 33.5143 134.536 32.8173C133.317 32.139 132.321 31.122 131.668 29.8893C130.951 28.5037 130.596 26.9596 130.636 25.4003C130.6 23.8373 130.956 22.2901 131.672 20.9003C132.319 19.66 133.315 18.6355 134.536 17.9523C135.824 17.2553 137.271 16.9036 138.736 16.9313ZM152.821 11.4053V33.6283H150.088V11.4053H152.821ZM164.687 16.9313C166.167 16.9066 167.629 17.2579 168.936 17.9523C170.182 18.6271 171.205 19.6496 171.88 20.8953C172.615 22.2791 172.982 23.8287 172.946 25.3953C172.985 26.9602 172.618 28.5086 171.88 29.8893C171.201 31.1286 170.179 32.1454 168.936 32.8173C167.629 33.5116 166.167 33.8629 164.687 33.8383C163.206 33.8633 161.743 33.5119 160.436 32.8173C159.192 32.1427 158.166 31.1269 157.48 29.8893C156.733 28.5129 156.36 26.9647 156.399 25.3993C156.362 23.8309 156.735 22.28 157.48 20.8993C158.162 19.6536 159.188 18.6306 160.436 17.9523C161.743 17.2576 163.206 16.9063 164.687 16.9313ZM164.687 19.3313C163.74 19.323 162.806 19.5501 161.969 19.9923C161.114 20.4571 160.415 21.1626 159.958 22.0213C159.416 23.063 159.152 24.2268 159.192 25.4003C159.155 26.5636 159.418 27.7168 159.958 28.7483C160.416 29.6063 161.115 30.3112 161.97 30.7753C162.807 31.2174 163.741 31.4446 164.688 31.4363C165.634 31.4444 166.568 31.2173 167.405 30.7753C168.259 30.3112 168.959 29.6063 169.417 28.7483C169.956 27.7168 170.22 26.5636 170.183 25.4003C170.222 24.2268 169.958 23.063 169.417 22.0213C168.959 21.1632 168.259 20.4584 167.405 19.9943C166.568 19.5521 165.634 19.325 164.687 19.3333V19.3313ZM191.175 17.1393V33.6283H188.442V29.7543C188.082 31.012 187.29 32.1022 186.205 32.8323C185.094 33.555 183.791 33.9264 182.466 33.8983C181.608 33.9319 180.754 33.7848 179.957 33.4666C179.16 33.1484 178.439 32.6662 177.841 32.0513C176.576 30.5864 175.939 28.6822 176.069 26.7513V17.1413H178.802V26.4813C178.712 27.8638 179.164 29.227 180.063 30.2813C180.507 30.7333 181.041 31.0861 181.632 31.3164C182.222 31.5467 182.854 31.6492 183.487 31.6173C184.156 31.6462 184.824 31.5311 185.445 31.2797C186.066 31.0284 186.626 30.6466 187.087 30.1603C188.063 28.9684 188.547 27.4482 188.438 25.9113V17.1423L191.175 17.1393ZM202.317 16.9293C203.767 16.8834 205.193 17.304 206.386 18.1293C207.49 18.9205 208.306 20.0492 208.713 21.3453V11.4053H211.446V33.6283H208.713V29.4243C208.306 30.7192 207.489 31.8468 206.386 32.6373C205.193 33.4626 203.767 33.8832 202.317 33.8373C200.948 33.8606 199.599 33.5075 198.417 32.8163C197.258 32.1186 196.323 31.1027 195.725 29.8893C195.046 28.4919 194.711 26.9524 194.749 25.3993C194.713 23.8431 195.048 22.3008 195.725 20.8993C196.319 19.6799 197.252 18.658 198.413 17.9563C199.595 17.263 200.946 16.9084 202.317 16.9313V16.9293ZM203.098 19.3653C202.349 19.3309 201.602 19.4558 200.906 19.7316C200.21 20.0074 199.58 20.4279 199.058 20.9653C197.992 22.1869 197.448 23.7771 197.541 25.3953C197.447 27.0148 197.991 28.6067 199.058 29.8293C199.579 30.3678 200.208 30.7895 200.905 31.0665C201.601 31.3436 202.348 31.4696 203.097 31.4363C204.114 31.4535 205.116 31.1939 205.997 30.6853C206.851 30.1833 207.544 29.4492 207.997 28.5683C208.494 27.5875 208.741 26.4995 208.718 25.4003C208.74 24.2964 208.493 23.2038 207.997 22.2173C207.55 21.3322 206.855 20.5965 205.997 20.1003C205.113 19.6016 204.112 19.3479 203.098 19.3653Z" fill="white"/>
<path d="M106.118 31.2857C104.531 29.3537 103.734 26.893 103.887 24.3977V11.7947H109.367V23.7707C109.276 25.23 109.753 26.668 110.698 27.7837C111.161 28.2648 111.722 28.6412 112.343 28.8877C112.964 29.1342 113.631 29.245 114.298 29.2127C115.004 29.2463 115.709 29.1272 116.364 28.8637C117.02 28.6002 117.611 28.1984 118.098 27.6857C119.11 26.4578 119.614 24.8893 119.507 23.3017V11.7947H125.018V33.4767H119.504V29.0937C118.961 30.5153 117.963 31.7176 116.666 32.5137C115.294 33.3507 113.712 33.7785 112.106 33.7467C110.989 33.7973 109.874 33.6033 108.84 33.1782C107.805 32.7532 106.876 32.1072 106.118 31.2857ZM81.3808 32.4207C79.8873 31.4976 78.6967 30.1575 77.9558 28.5657C77.097 26.7092 76.6752 24.6806 76.7228 22.6357C76.6752 20.5907 77.097 18.5621 77.9558 16.7057C78.6967 15.1139 79.8873 13.7738 81.3808 12.8507C82.8702 11.9555 84.5803 11.4948 86.3178 11.5207C87.9697 11.473 89.5976 11.9235 90.9898 12.8137C92.2652 13.6529 93.2446 14.8716 93.7898 16.2977V4.51367H99.2698V33.4767H93.7898V28.9377C93.2408 30.3657 92.2626 31.5885 90.9898 32.4377C89.6022 33.3403 87.9725 33.7986 86.3178 33.7517C84.5802 33.7773 82.8701 33.3162 81.3808 32.4207ZM83.8808 18.0207C82.7828 19.2991 82.2226 20.9531 82.3178 22.6357C82.2195 24.3144 82.7811 25.9652 83.8828 27.2357C84.4169 27.7913 85.063 28.227 85.7784 28.5137C86.4937 28.8004 87.2619 28.9317 88.0318 28.8987C88.8012 28.9224 89.5668 28.7832 90.2786 28.4902C90.9903 28.1972 91.6321 27.7571 92.1618 27.1987C93.2858 25.9538 93.8699 24.3138 93.7858 22.6387C93.8744 20.9509 93.2904 19.2968 92.1618 18.0387C91.632 17.4804 90.9902 17.0404 90.2785 16.7474C89.5667 16.4545 88.8011 16.3152 88.0318 16.3387C87.2612 16.3056 86.4925 16.4379 85.7773 16.7269C85.0622 17.0158 84.4172 17.4546 83.8858 18.0137L83.8808 18.0207ZM57.6238 32.4017C55.9966 31.5183 54.6632 30.1783 53.7878 28.5467C52.838 26.7242 52.3666 24.6902 52.4178 22.6357C52.3682 20.5752 52.8394 18.5355 53.7878 16.7057C54.6556 15.0687 55.9909 13.7271 57.6238 12.8517C59.3612 11.9416 61.2999 11.4838 63.2608 11.5207C65.2159 11.4761 67.1497 11.9344 68.8768 12.8517C70.4379 13.6957 71.7272 14.9656 72.5948 16.5137C73.4863 18.1359 73.9382 19.9629 73.9058 21.8137C73.8962 22.4448 73.8293 23.0737 73.7058 23.6927H57.8178C57.7583 25.2653 58.3209 26.7981 59.3838 27.9587C60.3549 28.8743 61.6497 29.3671 62.9838 29.3287C64.1207 29.3711 65.2404 29.0414 66.1728 28.3897C67.0133 27.7747 67.5928 26.867 67.7968 25.8457H73.6288C73.3548 27.3313 72.7236 28.7281 71.7898 29.9157C70.8283 31.1334 69.5863 32.1003 68.1698 32.7337C66.6263 33.4269 64.9498 33.774 63.2578 33.7507C61.2957 33.7872 59.3566 33.3229 57.6238 32.4017ZM59.5028 17.2347C58.9662 17.7594 58.5405 18.3866 58.251 19.0791C57.9616 19.7715 57.8142 20.5151 57.8178 21.2657H68.3478C68.438 20.5324 68.3598 19.7882 68.1191 19.0897C67.8784 18.3912 67.4816 17.7568 66.9588 17.2347C65.9478 16.3188 64.6225 15.8281 63.2588 15.8647C61.878 15.826 60.5345 16.3161 59.5028 17.2347Z" fill="white"/>
<path d="M39.96 30.215L20.011 40.2549L0.0078125 30.1929V23.7579L20.0139 33.826L33.5789 27.001L39.96 30.215Z" fill="white"/>
<path d="M33.2529 16.678L40.01 19.756L20.01 29.824L20.0039 29.818L0.00390625 19.756V10.067L20.0068 0L40.0068 10.068L20.0068 20.153V23.005L33.2529 16.678Z" fill="white"/>
<path opacity="0.53" d="M20.0038 20.091V29.82L0.00384521 19.758V10.069L0.0380249 10.052L20.0038 20.091Z" fill="white"/>
<path d="M40.0059 10.068V10.085L20.0059 20.153L20 20.147L0 10.085V10.068L20.0059 0L40.0059 10.068Z" fill="white"/>
<path opacity="0.26" d="M20.0038 20.091V29.82L0.00384521 19.758V10.069L0.0380249 10.052L20.0038 20.091Z" fill="white"/>
</svg>
