<svg width="68" height="67" viewBox="0 0 68 67" fill="none" xmlns="http://www.w3.org/2000/svg">
<path d="M31.8541 0.505317C31.7105 0.51716 31.2557 0.564532 30.8449 0.596113C21.3916 1.44092 12.5326 6.49 6.92444 14.2472C3.80126 18.562 1.8029 23.4571 1.04903 28.6404C0.781788 30.4485 0.749878 30.9853 0.749878 33.4369C0.749878 35.8884 0.781788 36.4252 1.04903 38.2333C2.85992 50.6014 11.7548 60.9956 23.8167 64.8485C25.9786 65.5394 28.2562 66.0091 30.8449 66.2894C31.8541 66.4 36.2137 66.4 37.2229 66.2894C41.6943 65.7999 45.4796 64.7064 49.217 62.8194C49.7914 62.5312 49.8991 62.4523 49.8233 62.3891C49.7715 62.3496 47.3304 59.1126 44.4026 55.1965L39.0816 48.0827L32.4125 38.3162C28.7428 32.9473 25.7234 28.5536 25.6954 28.5536C25.6675 28.5457 25.6436 32.8881 25.6316 38.1859C25.6117 47.4669 25.6037 47.838 25.488 48.0591C25.3205 48.3749 25.1889 48.5051 24.9136 48.6433C24.7062 48.7459 24.5228 48.7657 23.5415 48.7657H22.4167L22.1175 48.5801C21.9221 48.4578 21.7785 48.2959 21.6828 48.1104L21.5472 47.8222L21.5591 34.9093L21.5791 21.9925L21.7825 21.7399C21.8862 21.6057 22.1096 21.432 22.2651 21.3451C22.5324 21.2148 22.6361 21.203 23.7609 21.203C25.0892 21.203 25.3085 21.2543 25.6556 21.6293C25.7513 21.732 29.3651 27.1166 33.6849 33.5987C38.0047 40.0847 43.916 48.9354 46.8158 53.2818L52.0849 61.1811L52.3522 61.0074C54.7135 59.4876 57.2144 57.3243 59.1929 55.0701C63.405 50.2855 66.1173 44.4509 67.0267 38.2293C67.294 36.4213 67.3259 35.8844 67.3259 33.4329C67.3259 30.9814 67.294 30.4445 67.0267 28.6365C65.2159 16.2684 56.321 5.87416 44.259 2.02123C42.133 1.33828 39.8674 0.868503 37.3306 0.58427C36.7044 0.521107 32.4045 0.450049 31.866 0.501369L31.8541 0.505317ZM45.4796 20.4293C45.7907 20.5832 46.046 20.8793 46.1377 21.1872C46.1896 21.353 46.2015 24.9336 46.1896 33.0026L46.1696 44.5812L44.1075 41.4506L42.0373 38.3201V29.9037C42.0373 24.4638 42.0652 21.4043 42.1011 21.2543C42.2048 20.8951 42.4322 20.6108 42.7473 20.4411C43.0145 20.3069 43.1103 20.2911 44.1314 20.2911C45.0927 20.2911 45.2642 20.3029 45.4796 20.4214V20.4293Z" fill="#3CC1CF"/>
</svg>
