<svg width="48" height="70" viewBox="0 0 48 70" fill="none" xmlns="http://www.w3.org/2000/svg">
<g clip-path="url(#clip0_303_4302)">
<path d="M46.8715 35.3129C46.6246 31.2116 44.5791 26.4499 40.7701 24.4688C36.8906 22.4529 32.6937 23.2175 28.532 23.0785C26.416 22.1401 23.2065 23.1828 23.1007 26.2066C22.9949 28.9176 24.1235 31.4896 24.1941 34.2007C24.2293 36.147 24.1941 38.0934 24.053 40.0398C24.2999 40.1093 24.5467 40.2831 24.7583 40.5264C26.3807 42.3337 28.1794 43.9673 30.2955 45.2185C31.8825 45.7399 33.4343 46.4003 35.1272 46.6783C35.8326 46.6088 36.5379 46.5045 37.2433 46.3655C37.3844 46.435 37.5607 46.5045 37.737 46.5393C38.0545 46.574 38.3719 46.6088 38.6893 46.6783C39.3594 46.6783 39.9589 46.5045 40.5232 46.1917C40.7701 46.0179 41.017 45.8094 41.2639 45.6356C41.5107 45.4271 41.6871 45.149 41.8634 44.871C45.2844 42.9941 47.0831 39.4142 46.8715 35.3129Z" fill="#1ABCFE"/>
<path d="M24.3705 23.1826C24.3 23.1131 24.2647 23.0088 24.1942 22.9393C24.1942 22.9046 24.1589 22.9046 24.1589 22.8698C24.0178 22.6613 23.912 22.418 23.8415 22.1399C23.8062 22.0356 23.771 21.8966 23.7357 21.7923V21.7576C23.7004 21.6186 23.7004 21.5143 23.6651 21.3753C23.5946 20.8192 23.6651 20.2631 23.8062 19.7765C24.0884 17.0307 24.2294 14.2849 24.1589 11.5044C24.0884 8.75858 22.9598 6.22134 23.0656 3.51032C23.1714 0.486488 26.3808 -0.556213 28.4969 0.382218C32.6585 0.521245 36.8554 -0.243403 40.7349 1.77249C44.5439 3.75362 46.5895 8.51529 46.8363 12.6166C47.0832 16.7526 45.2493 20.2978 41.7577 22.2094C41.6166 22.4875 41.405 22.7308 41.1582 22.9741C40.9113 23.1479 40.6644 23.3564 40.4175 23.5302C39.8532 23.843 39.2537 24.0168 38.5836 24.0168C38.2662 23.982 37.9488 23.9473 37.6313 23.8777C37.455 23.843 37.3139 23.7735 37.1376 23.704C34.563 24.1906 31.7063 24.2601 29.1317 23.982C28.8848 24.1558 28.5674 24.2948 28.25 24.3991H28.2147C28.0737 24.4339 27.9326 24.4686 27.7915 24.5034C27.7563 24.5034 27.721 24.5034 27.6857 24.5381C27.5094 24.5729 27.333 24.5729 27.1567 24.5729C26.9804 24.5729 26.8393 24.5729 26.6982 24.5381C26.6629 24.5381 26.5924 24.5381 26.5571 24.5034C26.4513 24.5034 26.3455 24.4686 26.2397 24.4339C26.2045 24.4339 26.1339 24.3991 26.0987 24.3991C25.9928 24.3643 25.9223 24.3296 25.8165 24.3296C25.7812 24.3296 25.7107 24.2948 25.6754 24.2948C25.5696 24.2601 25.4991 24.2253 25.3933 24.1558C25.358 24.1558 25.3228 24.121 25.3228 24.121C25.2169 24.0515 25.1111 23.982 25.0053 23.9125C24.9701 23.9125 24.9701 23.8777 24.9348 23.8777C24.8643 23.8082 24.7585 23.7387 24.6879 23.6692C24.6527 23.6345 24.6527 23.5997 24.6174 23.5997C24.5469 23.5302 24.4763 23.4607 24.441 23.3912C24.441 23.2521 24.4058 23.2174 24.3705 23.1826Z" fill="#FF7262"/>
<path d="M22.2896 64.6476C22.9597 63.7439 24.2293 60.7548 24.1235 59.6078C23.8414 56.8621 23.524 59.8859 23.5945 57.1401C23.6651 54.3943 24.7936 51.8571 24.6878 49.1461C24.582 46.1222 21.3726 45.0795 19.2565 46.018C15.0949 46.157 10.898 45.3923 7.01847 47.4082C3.20951 49.3546 1.12869 54.151 0.917077 58.2523C0.670199 62.3884 2.50414 65.9336 5.99569 67.8452C6.13677 68.1232 6.34838 68.1927 6.59525 68.4013C6.84213 68.5751 7.26535 68.4708 7.51223 68.6446C8.07652 68.9574 8.49974 69.1659 9.13456 69.1659C9.45198 69.1312 9.76939 69.5483 10.1221 69.5135C10.2984 69.4787 10.4395 69.4092 10.6158 69.3397C11.1448 69.1312 12.8377 69.6525 13.4373 69.722C14.4953 69.7915 14.7422 69.0964 15.8355 69.0617C18.0221 68.9226 20.7025 66.8025 22.2896 64.6476Z" fill="#0ACF83"/>
<path d="M23.3829 46.0176C23.4534 45.9481 23.4887 45.8438 23.5592 45.7743C23.5592 45.7395 23.5945 45.7395 23.5945 45.7048C23.7356 45.4962 23.8414 45.2529 23.9119 44.9749C23.9472 44.8706 23.9825 44.7316 24.0177 44.6273V44.5926C24.053 44.4535 24.053 44.3493 24.0883 44.2102C24.1588 43.6541 24.0883 43.098 23.9472 42.6114C23.6651 39.8656 23.524 37.1199 23.5945 34.3393C23.6651 31.5935 24.7936 29.0563 24.6878 26.3453C24.582 23.3214 21.3726 22.2787 19.2565 23.2172C15.0949 23.3562 10.898 22.5916 7.01847 24.6074C3.20951 26.5191 1.12869 31.3155 0.917077 35.4168C0.670199 39.5181 2.50414 43.098 5.99569 44.9749C6.13677 45.2529 6.34838 45.4962 6.59525 45.7395C6.84213 45.9133 7.08901 46.1218 7.33589 46.2956C7.90018 46.6084 8.49974 46.7822 9.16983 46.7822C9.48724 46.7475 9.80466 46.7127 10.1221 46.6432C10.2984 46.6084 10.4395 46.5389 10.6158 46.4694C13.1904 46.956 16.0471 47.0255 18.6217 46.7475C18.8686 46.9213 19.186 47.0603 19.5034 47.1645H19.5387C19.6797 47.1993 19.8208 47.2341 19.9619 47.2688C19.9972 47.2688 20.0324 47.2688 20.0677 47.3036C20.244 47.3383 20.4204 47.3383 20.5967 47.3383C20.7731 47.3383 20.9141 47.3383 21.0552 47.3036C21.0905 47.3036 21.161 47.3036 21.1963 47.2688C21.3021 47.2688 21.4079 47.2341 21.5137 47.1993C21.549 47.1993 21.6195 47.1645 21.6548 47.1645C21.7606 47.1298 21.8311 47.095 21.9369 47.095C21.9722 47.095 22.0427 47.0603 22.078 47.0603C22.1838 47.0255 22.2543 46.9908 22.3601 46.9213C22.3954 46.9213 22.4307 46.8865 22.4307 46.8865C22.5365 46.817 22.6423 46.7475 22.7481 46.678C22.7833 46.678 22.7833 46.6432 22.8186 46.6432C22.8892 46.5737 22.995 46.5042 23.0655 46.4347C23.1008 46.3999 23.1008 46.3651 23.136 46.3651C23.2066 46.2956 23.2771 46.2261 23.3124 46.1566C23.3476 46.0871 23.3829 46.0523 23.3829 46.0176Z" fill="#A259FF"/>
<path d="M23.3829 23.1826C23.4534 23.1131 23.4887 23.0088 23.5592 22.9393C23.5592 22.9046 23.5945 22.9046 23.5945 22.8698C23.7356 22.6613 23.8414 22.418 23.9119 22.1399C23.9472 22.0356 23.9825 21.8966 24.0177 21.7923V21.7576C24.053 21.6186 24.053 21.5143 24.0883 21.3753C24.1588 20.8192 24.0883 20.2631 23.9472 19.7765C23.6651 17.0307 23.524 14.2849 23.5945 11.5044C23.6651 8.75858 24.7936 6.22134 24.6878 3.51032C24.582 0.486488 21.3726 -0.556213 19.2565 0.382218C15.0949 0.486488 10.898 -0.278159 7.01847 1.73773C3.20951 3.68411 1.12869 8.48053 0.917077 12.5818C0.670199 16.6831 2.50414 20.2631 5.99569 22.1399C6.13677 22.418 6.34838 22.6613 6.59525 22.9046C6.84213 23.0783 7.08901 23.2869 7.33589 23.4607C7.90018 23.7735 8.49974 23.9473 9.16983 23.9473C9.48724 23.9125 9.80466 23.8778 10.1221 23.8082C10.2984 23.7735 10.4395 23.704 10.6158 23.6345C13.1904 24.121 16.0471 24.1906 18.6217 23.9125C18.8686 24.0863 19.186 24.2253 19.5034 24.3296H19.5387C19.6797 24.3643 19.8208 24.3991 19.9619 24.4339C19.9972 24.4339 20.0324 24.4339 20.0677 24.4686C20.244 24.5034 20.4204 24.5034 20.5967 24.5034C20.7731 24.5034 20.9141 24.5034 21.0552 24.4686C21.0905 24.4686 21.161 24.4686 21.1963 24.4339C21.3021 24.4339 21.4079 24.3991 21.5137 24.3643C21.549 24.3643 21.6195 24.3296 21.6548 24.3296C21.7606 24.2948 21.8311 24.2601 21.9369 24.2601C21.9722 24.2601 22.0427 24.2253 22.078 24.2253C22.1838 24.1906 22.2543 24.1558 22.3601 24.0863C22.3954 24.0863 22.4307 24.0515 22.4307 24.0515C22.5365 23.982 22.6423 23.9125 22.7481 23.843C22.7833 23.843 22.7833 23.8082 22.8186 23.8082C22.8892 23.7387 22.995 23.6692 23.0655 23.5997C23.1008 23.5649 23.1008 23.5302 23.136 23.5302C23.2066 23.4607 23.2771 23.3912 23.3124 23.3216C23.3476 23.2521 23.3829 23.2174 23.3829 23.1826Z" fill="#F24E1E"/>
<path d="M23.2066 40.2828C23.1713 41.8816 23.2066 43.7238 23.2418 45.4616L23.3829 52.3782C23.3829 53.5251 23.4182 54.6721 23.4182 55.8191V57.5222L23.3829 58.3563L23.3476 58.7734V58.9819L23.3124 59.1905C22.995 61.3802 22.1485 63.4656 20.7378 65.1339C20.3498 65.5162 19.9972 65.9333 19.5739 66.2809C19.3623 66.4546 19.1507 66.6632 18.9391 66.8022L18.269 67.254C18.0574 67.4278 17.7753 67.5321 17.5637 67.6364L17.211 67.8102L17.0346 67.9144L16.8583 67.9839L16.0824 68.262C15.9413 68.3315 15.8355 68.3663 15.6944 68.3663L15.1654 68.4705C10.898 69.548 5.92516 67.9144 3.45638 64.2997C2.82156 63.396 2.3278 62.4229 1.97512 61.3802C1.62244 60.3375 1.37556 59.26 1.30502 58.1825C1.23449 57.1051 1.37556 56.0276 1.65771 54.9849C1.97512 53.9422 2.46887 52.969 3.13897 52.1349C3.66799 51.4397 4.33809 50.8489 5.07872 50.2233C5.78408 49.5976 6.45418 49.0415 7.05374 48.5549C8.25286 47.5817 9.13456 47.0256 8.99349 46.8519C8.85242 46.6781 7.86491 46.9561 6.52471 47.7555C5.85462 48.1379 5.11399 48.694 4.33809 49.2848C3.95014 49.5976 3.56219 49.9104 3.13897 50.2928C2.71575 50.6751 2.3278 51.0922 1.97512 51.544C0.98761 52.83 0.317514 54.3941 0.105905 55.9581C-0.0704355 57.2789 0.000100834 58.6344 0.282246 59.9204C0.564392 61.2064 0.98761 62.4576 1.62244 63.6393C2.85682 66.0028 5.00818 68.0187 7.6533 69.0266C7.97071 69.1309 8.32339 69.3047 8.64081 69.3742L9.13456 69.5132C9.3109 69.548 9.48724 69.5827 9.66358 69.6175C10.0163 69.687 10.3689 69.7565 10.7216 69.826C11.0743 69.8608 11.427 69.8955 11.8149 69.9303C13.2609 69.9998 14.7775 69.826 16.2235 69.3742C19.0802 68.4358 21.7253 66.3504 23.136 63.4656C23.8414 62.0753 24.2999 60.4765 24.4762 58.7039C24.5115 58.2521 24.5468 57.8002 24.5468 57.3484C24.5468 56.8965 24.5468 56.4447 24.5468 55.9929C24.5468 55.0892 24.5115 54.1508 24.5115 53.2123C24.441 49.4586 24.2293 45.4268 24.1235 41.3951C24.053 38.8578 24.0177 35.8687 23.6651 35.5212C23.3829 35.3474 23.2771 38.2322 23.2066 40.2828Z" fill="#516FE9"/>
<path d="M4.23222 19.9156C2.92729 18.5601 1.72818 16.6832 1.34023 14.7368C1.05808 13.4508 1.12862 12.0953 1.41076 10.8093C1.69291 9.52334 2.18666 8.23734 2.78622 7.05561C4.02061 4.69216 6.10143 2.88481 8.64074 2.05065C9.91039 1.63357 11.2153 1.39027 12.5908 1.32076C13.931 1.25124 15.3417 1.286 16.7172 1.286C19.4681 1.39027 22.2895 1.56405 25.111 1.5293C27.9324 1.49454 30.7186 1.286 33.4695 1.39027C34.845 1.42503 36.2205 1.5293 37.5606 1.7726C38.2307 1.87687 38.8656 2.01589 39.5004 2.22443C40.1352 2.43297 40.7348 2.71103 41.2991 3.02384C42.4277 3.68421 43.4152 4.51837 44.2263 5.56108C44.6143 6.08243 45.0022 6.63853 45.2844 7.19464C45.6018 7.78551 45.8487 8.37637 46.0956 9.00199C46.554 10.2185 46.7656 11.5392 46.6951 12.8252C46.6598 13.4856 46.554 14.1112 46.413 14.7368C46.2719 15.3625 46.025 15.9881 45.7429 16.579C45.5313 17.0655 45.2491 17.5174 44.967 17.9692C44.8259 18.2125 44.6496 18.4211 44.5085 18.6296C44.3674 18.8381 44.1911 19.0467 44.0147 19.2205C43.3094 19.9851 42.4277 20.6107 41.7223 21.2016C40.9817 21.7925 40.3821 22.4181 40.0647 22.9047C39.8884 23.148 39.7825 23.3565 39.7473 23.4955C39.712 23.6346 39.712 23.7388 39.7473 23.7388C39.8531 23.7736 40.1 23.5651 40.4879 23.2522C40.8759 22.9047 41.4754 22.4876 42.216 22.001C42.9567 21.5144 43.9089 20.9583 44.8259 20.0894C44.9317 19.9851 45.0375 19.8461 45.1433 19.7418C45.2491 19.6028 45.3549 19.4985 45.4607 19.3595C45.6371 19.1162 45.8487 18.8381 46.025 18.5948C46.3777 18.0735 46.7304 17.4826 47.0125 16.857C47.8237 15.1192 48.1764 13.138 47.9295 11.2264C47.8237 10.427 47.6474 9.66237 47.4005 8.93248C47.1536 8.16783 46.8362 7.47269 46.4482 6.77756C45.7076 5.38729 44.7201 4.06654 43.4504 3.05859C42.216 2.01589 40.6995 1.286 39.0772 0.868921C38.266 0.66038 37.4901 0.521354 36.6789 0.417083C35.8678 0.312813 35.0566 0.2433 34.2454 0.208543C30.9655 0.0347596 27.6503 0.312813 24.2293 0.34757C20.8083 0.34757 17.2462 0.0695163 13.4725 0.173786C12.5555 0.208543 11.6033 0.278057 10.6158 0.417083C9.62825 0.590867 8.60547 0.834164 7.61796 1.25124C6.63045 1.66832 5.64294 2.22443 4.72597 2.91957C3.84427 3.64946 3.0331 4.51837 2.39827 5.52632C1.76344 6.53426 1.26969 7.61172 0.846471 8.75869C0.458521 9.90566 0.176375 11.1221 0.141107 12.3734C0.105839 13.5899 0.28218 14.8759 0.705398 16.0924C1.12862 17.3088 1.79871 18.4211 2.60988 19.3942C3.63266 20.6455 4.97285 21.7577 6.1367 22.4876C6.73626 22.8699 7.19474 23.1132 7.44162 23.3913C7.72377 23.6346 7.86484 23.8431 8.00591 23.8779C8.11172 23.9126 8.11172 23.7388 8.00591 23.4608C7.90011 23.148 7.58269 22.7656 7.12421 22.4181C6.66572 22.0705 6.17197 21.6534 5.64294 21.2364C5.39607 21.0278 5.14919 20.7845 4.90231 20.576C4.65543 20.3674 4.44383 20.1241 4.23222 19.9156Z" fill="#516FE9"/>
<path d="M23.5239 11.6087C23.3828 15.0844 23.3476 19.0467 23.4534 22.8004C23.4887 24.0516 23.5239 25.3029 23.6297 26.5541C23.7003 27.8054 23.7708 29.0218 23.7708 30.2731C23.7708 30.8987 23.7355 31.4896 23.7003 32.1152L23.5239 33.9921C23.4181 35.2433 23.3476 36.5293 23.4887 37.8153C23.6297 39.1013 24.0529 40.422 24.7583 41.5343C25.4989 42.6465 26.4864 43.5849 27.5798 44.3148C29.7311 45.7746 32.2352 46.7825 34.8803 47.0258C36.1852 47.1301 37.5607 47.0606 38.8303 46.7478C40.1352 46.435 41.3696 45.9136 42.4982 45.1837C44.7201 43.7587 46.5188 41.569 47.3299 39.0665C48.1411 36.5641 48.0706 33.7835 47.2241 31.3158C46.8009 30.0645 46.2014 28.9176 45.4255 27.8054C44.6143 26.6584 43.4504 25.8937 42.3571 25.2334C41.2285 24.5382 39.9942 24.0169 38.6892 23.7041C38.0544 23.5303 37.3843 23.426 36.7142 23.3913C36.3968 23.3565 36.0441 23.3565 35.7267 23.3565H34.7745H27.1918H11.9912H11.039C10.7216 23.3565 10.3689 23.3565 10.0162 23.3913C9.34611 23.4608 8.64075 23.5998 8.00592 23.8431C7.37109 24.0864 6.73626 24.3644 6.17197 24.7468C5.60768 25.1291 5.11393 25.5114 4.62017 25.9633C3.63266 26.7974 2.71569 27.7706 1.97506 28.8828C1.23443 29.995 0.705404 31.2463 0.423259 32.5323C0.141113 33.8183 0.0705769 35.139 0.21165 36.4598C0.352722 37.7805 0.670136 39.0665 1.2697 40.2483C1.86925 41.43 2.64515 42.5075 3.5974 43.4459C4.05588 43.9325 4.54964 44.3496 5.04339 44.7666C5.29027 44.9752 5.53715 45.1837 5.81929 45.3575C6.06617 45.5313 6.34831 45.7398 6.63046 45.9136C7.5827 46.5045 8.67601 46.8868 9.76933 47.0606C10.3336 47.1301 10.8979 47.1648 11.4622 47.1301C11.956 47.0953 12.4497 47.0953 12.9787 47.0953C14.0015 47.0953 14.989 47.1301 15.9765 47.0953C16.9288 47.0606 17.8457 47.0606 18.7274 47.0258C22.1485 46.9216 24.5114 46.7825 24.4056 46.5392C24.2998 46.3307 22.1485 46.1569 18.8333 46.0526C17.9868 46.0179 17.1051 46.0179 16.1529 45.9831C15.2006 45.9831 14.2131 45.9136 13.1198 45.8789C12.5908 45.8789 12.0265 45.8441 11.4622 45.8789C10.9332 45.9136 10.4394 45.8789 9.9104 45.8093C8.88762 45.6356 7.86485 45.2532 6.98314 44.6276C5.67822 43.6892 4.44383 42.6465 3.52686 41.3952C2.57462 40.144 1.90452 38.7537 1.65765 37.2244C1.12862 34.6524 1.44604 31.9067 2.8215 29.717C3.49159 28.6048 4.40856 27.6316 5.43134 26.7627C5.67822 26.5541 5.96036 26.3456 6.20724 26.137L6.63046 25.8242C6.77153 25.72 6.87734 25.6504 7.01841 25.5462C7.54743 25.1986 8.14699 24.9553 8.78182 24.7815C9.41665 24.6077 10.0515 24.5035 10.7216 24.5035C11.4269 24.5035 12.1323 24.5035 12.8377 24.5035C14.2484 24.5035 15.6944 24.5035 17.1051 24.5035C19.9618 24.5035 22.8538 24.5035 25.7811 24.5035C28.7083 24.5035 31.6709 24.5035 34.7039 24.5035C35.0919 24.5035 35.4446 24.5035 35.8325 24.5035C36.1852 24.5035 36.5379 24.5382 36.9258 24.573C37.6312 24.6425 38.3718 24.8163 39.0772 25.0248C39.7826 25.2334 40.4526 25.5114 41.0875 25.859C41.4049 26.0328 41.7223 26.2413 42.075 26.4151C42.3924 26.6236 42.7098 26.8322 42.992 27.0407C43.5915 27.4926 44.1205 27.9791 44.5085 28.57C44.7201 28.8828 44.8964 29.1956 45.108 29.5084C45.2844 29.856 45.4607 30.1688 45.6371 30.5164C46.2719 31.8719 46.6246 33.3664 46.6951 34.8957C46.7657 36.425 46.5188 37.9543 45.9192 39.4141C45.3197 40.8391 44.3674 42.1599 43.1683 43.2026C40.9111 45.288 37.3843 46.3654 33.8222 45.7398C32.9405 45.566 32.0588 45.3575 31.1771 44.9752C30.7539 44.8361 30.3307 44.5929 29.9075 44.4191C29.6959 44.3148 29.4842 44.1758 29.2726 44.0715C29.061 43.9672 28.8494 43.8282 28.6731 43.7239C27.8619 43.2373 27.1213 42.6465 26.4512 41.9513C25.8164 41.2562 25.2873 40.4568 24.9699 39.5531C24.2998 37.7805 24.3704 35.7299 24.5467 33.6445C24.582 33.1231 24.6525 32.6018 24.6878 32.0804C24.723 31.5243 24.7583 31.003 24.7583 30.4469C24.7583 29.3694 24.723 28.292 24.6525 27.2145C24.3704 22.9394 24.3351 18.5948 24.3704 14.2502C24.4409 8.79344 24.6172 2.22443 24.2646 1.52929C23.9824 0.973184 23.7003 7.22939 23.5239 11.6087Z" fill="#516FE9"/>
</g>
<defs>
<clipPath id="clip0_303_4302">
<rect width="48" height="70" fill="white"/>
</clipPath>
</defs>
</svg>
