<svg width="65" height="64" viewBox="0 0 65 64" fill="none" xmlns="http://www.w3.org/2000/svg">
<g clip-path="url(#clip0_303_4333)">
<path d="M30.3096 63.7437C30.0197 63.7117 29.6976 63.7117 29.4077 63.6796C29.3111 63.6796 29.2145 63.6476 29.1178 63.6476C25.6069 63.295 22.1605 62.3015 18.9717 60.8273C18.9072 60.7953 18.875 60.7632 18.8106 60.7632C16.5881 59.7056 14.5267 58.4237 12.5941 56.8854C12.3686 56.6931 12.2397 56.5008 12.2397 56.1804C11.9498 51.5013 12.7229 46.9505 14.269 42.5599C14.3656 42.2715 14.4944 42.1433 14.8165 42.1433C15.9439 42.2394 17.039 42.0151 18.1342 41.6626C18.6173 41.5023 19.0039 41.5023 19.3904 41.8869C22.6436 44.8033 26.2511 47.2069 30.1486 49.1939C30.5351 49.3862 30.6961 49.6105 30.6961 50.0592C30.7283 53.6486 33.434 56.4047 37.0093 56.4367C39.0063 56.4367 40.7135 55.6355 41.9697 54.0331C42.2274 53.6806 42.485 53.6165 42.8716 53.7127C46.0281 54.3536 49.1847 54.7702 52.4057 54.8343C53.0499 54.8343 53.7264 54.9305 54.435 54.9625C54.1451 55.4433 53.7908 55.7317 53.4365 56.0201C49.8289 59.0967 45.7705 61.3401 41.1966 62.622C37.6857 63.5835 33.9816 64.0001 30.3096 63.7437Z" fill="#516FE9"/>
<path d="M33.6915 0.288396C33.9814 0.288396 34.2713 0.320444 34.529 0.352492C34.7867 0.38454 35.0765 0.416588 35.3342 0.448636C35.6241 0.480684 35.914 0.512732 36.2039 0.54478C36.4294 0.576828 36.6226 0.608876 36.8481 0.608876C40.4879 1.0896 43.9343 2.17923 47.1875 3.84573C49.0557 4.80717 50.7951 5.92886 52.4378 7.21078C52.5344 7.27488 52.6633 7.33897 52.6633 7.49921C51.2782 7.37102 49.8932 7.21078 48.476 7.21078C42.6459 7.17873 37.2024 8.65294 32.081 11.2809C31.6945 11.4732 31.5012 11.4411 31.2113 11.1527C28.3446 8.23632 25.639 5.2238 22.9656 2.11514C22.9011 2.05104 22.8367 1.9549 22.8689 1.8267C22.9333 1.66646 23.1266 1.66646 23.2877 1.63441C24.5761 1.28189 25.8967 0.929357 27.2173 0.705021C27.8937 0.576828 28.5701 0.512732 29.2465 0.448636C29.8907 0.416588 30.5671 0.38454 31.2435 0.320444C31.9522 0.256348 32.6286 0.256348 33.3372 0.256348C33.466 0.288396 33.5627 0.288396 33.6915 0.288396Z" fill="#4D64C2"/>
<path d="M51.6651 40.3166C53.0501 40.2845 54.4996 39.8679 55.7236 38.8103C55.9813 38.586 56.1745 38.618 56.4644 38.7783C58.3326 40.0602 60.233 41.3742 62.1012 42.6561C62.3589 42.8484 62.4233 43.0086 62.3267 43.297C61.4892 45.5404 60.3941 47.6235 59.0734 49.6105C58.9124 49.8349 58.6869 49.8669 58.4614 49.931C56.4966 50.2515 54.5318 50.3476 52.5348 50.2835C49.7003 50.1874 46.9302 49.7067 44.1602 49.0657C43.5482 48.9055 43.1939 48.6491 42.9684 48.0081C41.7122 44.3867 37.6215 42.8163 34.1106 44.579C33.7241 44.7713 33.4664 44.7392 33.1121 44.5469C29.7944 42.7202 26.7345 40.573 23.8034 38.1694C23.4168 37.8489 23.3202 37.6245 23.5779 37.1118C24.9951 34.4518 25.1884 31.6636 23.9966 28.8754C23.7389 28.2985 23.8356 27.9781 24.2543 27.5294C26.8633 24.9976 29.6656 22.7222 32.6289 20.6391C32.951 20.4147 33.1765 20.4147 33.4664 20.6711C35.2057 22.1774 36.9129 23.7157 38.6844 25.1899C40.6815 26.8564 42.7429 28.5229 44.8044 30.1253C45.1909 30.4137 45.2553 30.6701 45.0942 31.1188C43.4193 35.5735 46.7048 40.2845 51.6651 40.3166Z" fill="#16D594"/>
<path d="M37.6216 17.5946C39.1355 16.7613 40.7138 16.0242 42.292 15.3833C45.8029 13.9411 49.4427 12.8835 53.2435 12.4348C54.4675 12.3066 55.6915 12.2105 56.9154 12.2425C57.3664 12.2425 57.6563 12.4989 57.914 12.8194C59.1701 14.4859 60.2653 16.2485 61.1994 18.1073C62.681 21.0558 63.6474 24.1965 64.0983 27.4333C64.6781 31.4714 64.517 35.4774 63.5507 39.4193C63.3897 40.0923 63.3253 40.1244 62.8099 39.7077C61.3282 38.554 59.8466 37.3682 58.3649 36.2465C58.0106 35.9902 57.9462 35.7338 58.075 35.3492C59.0735 31.888 57.302 28.3627 53.9199 27.1128C52.1161 26.4398 50.2802 26.536 48.5408 27.3692C48.2187 27.5295 48.0254 27.4974 47.7678 27.241C44.4501 24.2926 41.2613 21.248 38.1047 18.1714C37.8793 18.0432 37.686 17.915 37.6216 17.5946Z" fill="#FF4F54"/>
<path d="M16.7814 23.1388C15.6862 22.9465 14.4944 22.9465 13.3027 23.1709C13.206 23.2029 13.1094 23.2029 13.0128 23.235C11.821 23.4913 11.821 23.4913 11.3701 22.4017C10.0817 19.2931 9.34083 16.0562 9.40525 12.6591C9.40525 11.9861 9.50188 11.3451 9.53409 10.7042C9.5663 10.1593 9.79177 9.74272 10.2105 9.35815C12.5296 7.11478 15.1386 5.25599 18.0053 3.78178C18.3275 3.62154 18.5207 3.62154 18.7462 3.97407C21.0009 7.56346 23.7387 10.8324 26.6377 13.909C26.992 14.2936 26.9598 14.4858 26.541 14.8063C23.5777 16.8574 20.872 19.229 18.3919 21.7928C18.0698 22.1133 17.7799 22.4658 17.4578 22.8183C17.2967 23.0106 17.1357 23.2029 16.7814 23.1388Z" fill="#FFB501"/>
<path d="M6.24878 50.0592C3.02777 45.4763 1.224 40.4447 0.740849 34.9645C0.0644363 27.4973 1.83599 20.607 6.02331 14.3896C5.92668 15.2549 5.79784 16.1202 5.73342 16.9855C5.50794 20.1903 6.08773 23.267 7.24729 26.2474C7.40834 26.632 7.37613 26.9204 7.11845 27.305C4.70269 30.7983 4.99258 35.7016 7.79486 38.8744C8.02033 39.0987 8.14917 39.323 8.05254 39.6756C7.08624 43.0086 6.50646 46.4057 6.3132 49.8669C6.34541 49.8669 6.3132 49.8989 6.24878 50.0592Z" fill="#FF4F54"/>
</g>
<defs>
<clipPath id="clip0_303_4333">
<rect width="65" height="64" fill="white"/>
</clipPath>
</defs>
</svg>
