<svg width="44" height="43" viewBox="0 0 44 43" fill="none" xmlns="http://www.w3.org/2000/svg">
<g clip-path="url(#clip0_113_462)">
<path d="M20.6113 0.324299C20.5184 0.331899 20.2242 0.362302 19.9584 0.382571C13.8415 0.924758 8.10923 4.16521 4.48041 9.14371C2.45953 11.9129 1.16648 15.0546 0.678679 18.3812C0.505755 19.5415 0.485107 19.8861 0.485107 21.4595C0.485107 23.0328 0.505755 23.3774 0.678679 24.5378C1.85043 32.4755 7.60594 39.1464 15.4107 41.6192C16.8096 42.0626 18.2833 42.3641 19.9584 42.544C20.6113 42.6149 23.4323 42.6149 24.0853 42.544C26.9785 42.2298 29.4279 41.528 31.8462 40.3169C32.2179 40.132 32.2875 40.0813 32.2385 40.0408C32.205 40.0154 30.6254 37.9379 28.731 35.4246L25.288 30.8591L20.9727 24.591C18.5982 21.1453 16.6444 18.3254 16.6264 18.3254C16.6083 18.3204 16.5928 21.1073 16.5851 24.5074C16.5722 30.4638 16.567 30.702 16.4921 30.8439C16.3837 31.0465 16.2986 31.1302 16.1205 31.2188C15.9863 31.2847 15.8676 31.2974 15.2326 31.2974H14.5048L14.3112 31.1783C14.1848 31.0998 14.0919 30.9959 14.0299 30.8768L13.9422 30.6918L13.9499 22.4045L13.9628 14.1146L14.0944 13.9525C14.1616 13.8663 14.3061 13.7548 14.4067 13.6991C14.5797 13.6155 14.6468 13.6079 15.3746 13.6079C16.2341 13.6079 16.376 13.6408 16.6005 13.8815C16.6625 13.9474 19.0008 17.4032 21.796 21.5633C24.5912 25.726 28.4161 31.4063 30.2925 34.1958L33.7019 39.2655L33.8748 39.154C35.4027 38.1786 37.021 36.7902 38.3012 35.3435C41.0266 32.2728 42.7817 28.5282 43.3701 24.5352C43.5431 23.3749 43.5637 23.0303 43.5637 21.4569C43.5637 19.8836 43.5431 19.539 43.3701 18.3786C42.1984 10.4409 36.4429 3.76997 28.6381 1.2972C27.2624 0.858885 25.7965 0.557388 24.155 0.37497C23.7498 0.334433 20.9675 0.288828 20.6191 0.321765L20.6113 0.324299ZM29.4279 13.1113C29.6292 13.2101 29.7944 13.4001 29.8537 13.5977C29.8873 13.7042 29.895 16.0021 29.8873 21.1808L29.8744 28.6118L28.54 26.6026L27.2005 24.5935V19.1919C27.2005 15.7006 27.2186 13.7371 27.2418 13.6408C27.3089 13.4103 27.456 13.2278 27.6599 13.1189C27.8328 13.0328 27.8948 13.0226 28.5555 13.0226C29.1775 13.0226 29.2885 13.0302 29.4279 13.1062V13.1113Z" fill="#3CC1CF"/>
</g>
<defs>
<clipPath id="clip0_113_462">
<rect width="44" height="43" fill="white"/>
</clipPath>
</defs>
</svg>
