<svg width="42" height="41" viewBox="0 0 42 41" fill="none" xmlns="http://www.w3.org/2000/svg">
<g clip-path="url(#clip0_113_466)">
<path d="M19.5846 40.8364C19.3973 40.8159 19.1892 40.8159 19.0018 40.7954C18.9394 40.7954 18.877 40.7748 18.8145 40.7748C16.5459 40.549 14.319 39.9125 12.2585 38.9681C12.2169 38.9476 12.1961 38.9271 12.1545 38.9271C10.7184 38.2496 9.38638 37.4283 8.13762 36.4428C7.99193 36.3197 7.90868 36.1965 7.90868 35.9912C7.72136 32.9937 8.22087 30.0783 9.21988 27.2656C9.28231 27.0808 9.36556 26.9987 9.57369 26.9987C10.3021 27.0603 11.0098 26.9166 11.7174 26.6907C12.0296 26.5881 12.2793 26.5881 12.5291 26.8344C14.6312 28.7027 16.9622 30.2425 19.4805 31.5155C19.7303 31.6386 19.8343 31.7824 19.8343 32.0698C19.8552 34.3692 21.6034 36.1349 23.9136 36.1554C25.204 36.1554 26.3071 35.6421 27.1188 34.6156C27.2853 34.3898 27.4518 34.3487 27.7015 34.4103C29.7412 34.8209 31.7808 35.0878 33.8621 35.1289C34.2784 35.1289 34.7154 35.1905 35.1733 35.211C34.986 35.519 34.757 35.7037 34.5281 35.8885C32.1971 37.8595 29.5747 39.2966 26.6193 40.1179C24.3507 40.7338 21.9572 41.0007 19.5846 40.8364Z" fill="#545AE8"/>
<path d="M21.7694 0.185692C21.9567 0.185692 22.144 0.206223 22.3105 0.226754C22.477 0.247284 22.6643 0.267815 22.8308 0.288346C23.0181 0.308877 23.2054 0.329408 23.3927 0.349938C23.5384 0.370469 23.6633 0.391 23.809 0.391C26.1608 0.698962 28.3878 1.39701 30.4899 2.46461C31.697 3.08053 32.8209 3.79911 33.8823 4.62034C33.9448 4.66141 34.028 4.70247 34.028 4.80512C33.1331 4.723 32.2381 4.62034 31.3224 4.62034C27.5553 4.59981 24.0379 5.54423 20.7287 7.22776C20.479 7.35094 20.3541 7.33041 20.1668 7.14563C18.3144 5.27733 16.5662 3.34743 14.8387 1.35595C14.7971 1.31489 14.7555 1.25329 14.7763 1.17117C14.8179 1.06852 14.9428 1.06852 15.0469 1.04799C15.8794 0.822147 16.7327 0.596308 17.586 0.452592C18.0231 0.370469 18.4601 0.329407 18.8972 0.288346C19.3135 0.267815 19.7505 0.247284 20.1876 0.206223C20.6455 0.165161 21.0825 0.165161 21.5404 0.165161C21.6237 0.185692 21.6861 0.185692 21.7694 0.185692Z" fill="#545AE8"/>
<path d="M33.3859 25.8291C34.2808 25.8085 35.2174 25.5416 36.0083 24.8641C36.1748 24.7204 36.2997 24.7409 36.487 24.8436C37.6941 25.6648 38.922 26.5066 40.1292 27.3278C40.2957 27.451 40.3373 27.5536 40.2749 27.7384C39.7337 29.1756 39.0261 30.5101 38.1728 31.783C38.0687 31.9267 37.923 31.9472 37.7774 31.9883C36.5078 32.1936 35.2382 32.2552 33.9478 32.2141C32.1163 32.1525 30.3264 31.8446 28.5365 31.434C28.1411 31.3313 27.9121 31.1671 27.7664 30.7564C26.9548 28.4365 24.3115 27.4305 22.043 28.5597C21.7932 28.6828 21.6267 28.6623 21.3978 28.5391C19.2541 27.3689 17.2769 25.9933 15.3829 24.4535C15.1332 24.2482 15.0707 24.1045 15.2372 23.776C16.153 22.0719 16.2778 20.2857 15.5078 18.4996C15.3413 18.13 15.4037 17.9247 15.6743 17.6373C17.3601 16.0153 19.1708 14.5576 21.0856 13.2231C21.2937 13.0794 21.4394 13.0794 21.6267 13.2437C22.7506 14.2086 23.8537 15.1941 24.9984 16.1385C26.2887 17.2061 27.6208 18.2737 28.9528 19.3003C29.2025 19.485 29.2442 19.6493 29.1401 19.9367C28.0578 22.7905 30.1807 25.8085 33.3859 25.8291Z" fill="#139F7F"/>
<path d="M24.3115 11.2728C25.2897 10.739 26.3095 10.2668 27.3294 9.85615C29.5979 8.93226 31.9498 8.25474 34.4057 7.96731C35.1966 7.88519 35.9874 7.8236 36.7783 7.84413C37.0697 7.84413 37.257 8.00837 37.4235 8.21368C38.2352 9.28128 38.9428 10.4105 39.5464 11.6013C40.5038 13.4901 41.1282 15.5021 41.4195 17.5757C41.7942 20.1626 41.6901 22.729 41.0657 25.2542C40.9617 25.6854 40.92 25.7059 40.587 25.439C39.6297 24.6999 38.6723 23.9403 37.7149 23.2217C37.486 23.0574 37.4443 22.8932 37.5276 22.6468C38.1728 20.4295 37.0281 18.1711 34.8427 17.3704C33.6772 16.9393 32.4909 17.0009 31.367 17.5347C31.1589 17.6373 31.034 17.6168 30.8675 17.4525C28.7238 15.5637 26.6634 13.6133 24.6237 11.6423C24.478 11.5602 24.3531 11.4781 24.3115 11.2728Z" fill="#F65535"/>
<path d="M10.8465 14.8239C10.1389 14.7007 9.36879 14.7007 8.59872 14.8445C8.53629 14.865 8.47385 14.865 8.41141 14.8855C7.64134 15.0498 7.64134 15.0498 7.34996 14.3517C6.51746 12.3602 6.03876 10.2866 6.08039 8.11036C6.08039 7.67921 6.14283 7.2686 6.16364 6.85798C6.18445 6.50896 6.33014 6.24206 6.60071 5.99569C8.09922 4.55853 9.78505 3.36775 11.6374 2.42333C11.8455 2.32068 11.9704 2.32068 12.1161 2.54651C13.573 4.84596 15.342 6.94011 17.2152 8.91106C17.4441 9.15743 17.4233 9.28062 17.1527 9.48592C15.238 10.7999 13.4897 12.3192 11.8871 13.9616C11.679 14.1669 11.4917 14.3928 11.2836 14.6186C11.1795 14.7418 11.0754 14.865 10.8465 14.8239Z" fill="#FBBE40"/>
<path d="M4.03827 32.0698C1.957 29.1339 0.791493 25.9105 0.479303 22.3998C0.0422367 17.6161 1.18693 13.202 3.89258 9.21899C3.83015 9.77333 3.74689 10.3277 3.70527 10.882C3.55958 12.9351 3.93421 14.906 4.68347 16.8154C4.78753 17.0618 4.76672 17.2465 4.60021 17.4929C3.03926 19.7308 3.22658 22.872 5.03728 24.9045C5.18297 25.0482 5.26622 25.192 5.20378 25.4178C4.5794 27.553 4.20477 29.7293 4.0799 31.9466C4.10071 31.9466 4.0799 31.9671 4.03827 32.0698Z" fill="#F65535"/>
</g>
<defs>
<clipPath id="clip0_113_466">
<rect width="42" height="41" fill="white"/>
</clipPath>
</defs>
</svg>
