<svg width="44" height="44" viewBox="0 0 44 44" fill="none" xmlns="http://www.w3.org/2000/svg">
<g clip-path="url(#clip0_113_449)">
<path d="M22.1766 43.2498C34.0067 43.2498 43.5968 33.7038 43.5968 21.9282C43.5968 10.1525 34.0067 0.606476 22.1766 0.606476C10.3465 0.606476 0.756348 10.1525 0.756348 21.9282C0.756348 33.7038 10.3465 43.2498 22.1766 43.2498Z" fill="#545AE8"/>
<path d="M31.8206 18.9316C28.7082 24.5405 25.5959 30.129 22.4835 35.7379C22.0767 36.4871 21.6495 37.2363 21.2427 37.9855C21.2223 38.0462 21.202 38.107 21.141 38.1272C21.1003 38.107 21.1003 38.0665 21.1003 38.0462C21.1613 37.459 21.202 36.8516 21.263 36.2643C21.3037 35.7986 21.3444 35.3127 21.3851 34.847C21.4258 34.361 21.4664 33.875 21.5071 33.3891C21.5478 32.9233 21.5885 32.4576 21.6292 31.9919C21.6699 31.5059 21.7105 31.02 21.7512 30.534C21.7919 30.0683 21.8326 29.5823 21.8733 29.1166C21.914 28.6307 21.9547 28.1244 21.9953 27.6385C22.036 27.1728 22.0767 26.7071 22.1174 26.2413C22.1377 25.9781 22.1581 25.7351 22.1784 25.4719C22.1784 25.4111 22.1784 25.3706 22.1784 25.3099C22.1784 25.2492 22.1581 25.2289 22.097 25.2289C22.036 25.2289 21.975 25.2289 21.9343 25.2289H12.7804C12.7193 25.2289 12.6583 25.2289 12.6176 25.2289C12.4956 25.2289 12.4752 25.2087 12.5363 25.0872C12.76 24.662 13.0041 24.257 13.2279 23.8318C15.9944 18.8506 18.7609 13.8695 21.5275 8.88837C22.0767 7.91644 22.6056 6.92426 23.1548 5.95233C23.1955 5.89159 23.2159 5.83084 23.2769 5.7701C23.2972 5.91184 23.2769 6.03333 23.2769 6.15482C23.2362 6.66103 23.1955 7.18749 23.1548 7.6937C23.1142 8.17967 23.0735 8.66563 23.0328 9.1516C22.9921 9.61731 22.9514 10.1033 22.9107 10.569C22.87 11.055 22.8294 11.5409 22.7887 12.0269C22.748 12.4926 22.7073 12.9786 22.6666 13.4443C22.6259 13.9302 22.5853 14.4162 22.5446 14.9022C22.5039 15.3679 22.4632 15.8539 22.4225 16.3196C22.3818 16.8055 22.3412 17.2915 22.3005 17.7775C22.2801 18.0407 22.2598 18.3242 22.2394 18.5874C22.2394 18.6481 22.2598 18.6886 22.3412 18.6886C22.4022 18.6886 22.4632 18.6886 22.5039 18.6886H31.6782C31.963 18.6684 31.963 18.6684 31.8206 18.9316Z" fill="white"/>
</g>
<defs>
<clipPath id="clip0_113_449">
<rect width="44" height="44" fill="white"/>
</clipPath>
</defs>
</svg>
