<svg width="49" height="43" viewBox="0 0 49 43" fill="none" xmlns="http://www.w3.org/2000/svg">
<g clip-path="url(#clip0_113_441)">
<path d="M14.8159 38.152C12.9756 36.7268 11.0112 35.3615 9.66756 33.4369C6.84234 30.0438 4.66824 26.116 3.18113 21.9872C2.28169 19.3026 1.97544 16.4253 0.813902 13.8438C-0.397303 11.9681 1.02359 9.92141 3.1094 9.32694C4.03918 9.1505 5.67252 8.28729 3.69983 8.90619C1.9313 10.182 1.76024 7.74711 3.57291 7.59239C4.80895 7.43223 5.26418 6.43602 4.84205 5.53753C3.51221 4.68518 8.06182 3.74869 5.7746 2.47832C3.39358 -0.051575 9.113 -0.537466 7.70039 2.33716C7.36379 4.54675 11.6982 1.92999 10.6912 4.48431C11.7147 5.71126 14.5179 4.7639 14.4489 6.48217C15.9388 6.5826 16.4492 7.81497 17.8453 7.90998C19.2937 8.55331 21.9203 9.06092 22.4114 10.6652C20.974 11.7835 17.6466 8.35244 17.4866 11.4524C17.9225 16.029 17.8094 20.744 19.5117 25.1035C20.3173 27.7419 22.268 29.8185 24.031 31.8761C25.7167 33.8875 28.0012 35.3072 30.3298 36.4988C32.3714 37.4462 34.5731 38.0732 36.7997 38.4695C37.7019 37.7909 39.2966 35.2637 40.7037 36.3278C40.7726 37.5249 37.9088 38.8306 40.5685 38.6976C42.1328 38.2334 43.2143 39.8865 44.5 38.3963C45.6864 39.7779 49.4276 37.514 48.5834 40.3371C47.4411 41.0619 45.7802 40.6248 44.638 41.621C42.7564 40.6954 41.2555 42.449 39.1696 42.2264C36.8548 42.6335 34.4986 42.7991 32.1507 42.8018C28.2991 42.5032 24.3676 42.3757 20.7036 41.0564C18.6399 40.4674 16.6258 39.311 14.8104 38.152H14.8159Z" fill="#F05157"/>
<path d="M45.6809 39.7372C46.8038 39.7399 49.0828 39.3925 46.641 39.3952C46.2575 39.4549 44.4063 39.4413 45.6809 39.7372Z" fill="#F05157"/>
<path d="M45.4022 39.558C45.3801 39.5418 45.3608 39.5255 45.347 39.5146L45.3387 39.5065C45.336 39.5146 45.3249 39.5282 45.3139 39.5363C45.2587 39.5852 45.2587 39.558 45.278 39.577C45.3028 39.5933 45.3056 39.6069 45.3249 39.6395C45.3387 39.6612 45.3332 39.6449 45.336 39.6503L45.3635 39.6449C45.3884 39.6422 45.4132 39.6395 45.4408 39.6395C45.7415 39.6368 46.0643 39.6531 46.3871 39.6476C46.4699 39.6476 46.5499 39.6476 46.6437 39.6368L46.8506 39.6449C47.0079 39.6503 47.1624 39.6585 47.3197 39.6639C47.3969 39.6693 47.4714 39.6748 47.5376 39.6829L47.5818 39.6911H47.5956C47.5956 39.6911 47.5873 39.7209 47.6232 39.6259C47.6452 39.5662 47.6673 39.5173 47.6921 39.4956C47.7142 39.4739 47.7115 39.4956 47.6811 39.4658C47.659 39.4413 47.6259 39.3952 47.5956 39.3355L47.5735 39.2866H47.5707C47.4769 39.3219 47.3004 39.3517 47.1541 39.3762C46.8479 39.4223 46.5306 39.4576 46.2188 39.4739C45.9678 39.4875 45.6726 39.5363 45.6753 39.7073C45.6781 39.8756 45.9567 39.9842 46.2657 39.9706C46.3733 39.9706 46.4809 39.9598 46.5858 39.9462C46.9417 39.8756 47.2783 39.8458 47.6839 39.7399C47.7115 39.7318 47.739 39.7236 47.7804 39.7046C47.8053 39.6883 47.8218 39.6911 47.8798 39.6286C47.888 39.6205 47.9129 39.5852 47.9239 39.5472C47.9349 39.5173 47.9377 39.4549 47.9211 39.4087C47.9073 39.3707 47.8908 39.349 47.866 39.3246C47.8494 39.3083 47.8411 39.3029 47.8246 39.292C47.739 39.2432 47.7225 39.2513 47.6839 39.2405C47.6535 39.235 47.6232 39.2296 47.5983 39.2269C47.4907 39.2133 47.3914 39.2079 47.2893 39.2025C47.0852 39.1943 46.8782 39.1943 46.663 39.2025C46.5582 39.2079 46.4423 39.2133 46.3182 39.2187C46.1995 39.2215 46.0726 39.2269 45.9429 39.2296C45.8105 39.235 45.6726 39.2405 45.5263 39.2513C45.4518 39.2595 45.3801 39.2649 45.2918 39.2839C45.2697 39.2893 45.2477 39.2947 45.2173 39.3029C45.2035 39.3083 45.1925 39.311 45.1704 39.3219C45.1456 39.3355 45.1428 39.33 45.0987 39.3626C45.0821 39.3762 45.0656 39.3925 45.0518 39.406C45.0325 39.425 45.0021 39.4793 44.9966 39.5228C44.9856 39.5716 44.9911 39.6069 45.0049 39.6476C45.0159 39.6856 45.0463 39.7318 45.0518 39.7372C45.0711 39.7616 45.1097 39.7942 45.1207 39.8024L45.1677 39.8322C45.2946 39.8974 45.3856 39.9136 45.4739 39.9191C45.5594 39.9191 45.6256 39.8974 45.6532 39.8376C45.6974 39.7291 45.5043 39.6476 45.3966 39.5662L45.4022 39.558Z" fill="#3A395B"/>
<path d="M24.6766 40.462C23.8185 40.2584 22.8419 40.0304 21.9452 39.7182C17.1638 38.1221 12.9094 35.1117 9.80277 31.2137C6.69337 27.3103 4.68206 22.5817 3.90401 17.6821C3.81297 17.1908 3.76331 16.6696 3.69157 16.1728C3.62535 15.6734 3.59225 15.1902 3.53707 14.7749C3.46533 13.9388 3.39912 13.3552 3.30807 13.3824C3.2253 13.4068 3.16736 13.9388 3.15356 14.7667C3.1646 15.1793 3.17012 15.6652 3.21426 16.1918C3.26668 16.7185 3.31359 17.2912 3.42119 17.8748C3.48465 18.2847 3.55086 18.6946 3.64191 19.099C3.72744 19.5035 3.81021 19.9107 3.92057 20.307C4.25993 21.6344 4.69585 22.9455 5.22282 24.2403C5.75255 25.5351 6.35953 26.8272 7.09895 28.0921C8.57502 30.6166 10.5118 33.0949 13.1329 35.2637C14.3717 36.3088 15.9526 37.4272 17.7984 38.4017C18.7254 38.874 19.7076 39.3382 20.745 39.7101C21.2582 39.9136 21.7907 40.0684 22.3232 40.2421C22.5908 40.3235 22.8639 40.3887 23.1343 40.462C23.4047 40.5353 23.6751 40.6058 23.9537 40.6601C24.2986 40.728 24.66 40.8176 25.0159 40.8664C25.3719 40.918 25.7167 40.9669 26.0257 41.0021C26.6465 41.0456 27.1128 41.0564 27.2038 40.9994C27.2756 40.9479 26.9141 40.8746 26.401 40.7904C26.1416 40.7551 25.8492 40.7008 25.5512 40.6411C25.2532 40.5787 24.9497 40.5353 24.6793 40.4647L24.6766 40.462Z" fill="white"/>
<path d="M14.8022 7.54895C14.587 7.54353 14.3414 7.56796 14.1097 7.57881C11.6486 7.70097 9.20969 8.06199 6.76244 8.33344C6.27134 8.38773 5.68919 8.50174 5.7223 8.67275C5.75265 8.83833 6.2741 8.88719 6.85073 8.82747C7.05214 8.81119 7.25355 8.78675 7.4522 8.7569C8.77376 8.53702 10.1284 8.42302 11.759 8.20314C12.5398 8.12442 13.6131 8.01856 14.6836 7.90455C15.0202 7.86926 15.4202 7.80683 15.445 7.67111C15.4644 7.55438 15.0753 7.55981 14.8022 7.55167V7.54895Z" fill="white"/>
<path d="M10.5174 4.84262C10.3877 4.83448 10.2442 4.85348 10.109 4.86162C8.65502 4.94849 7.24241 5.27422 5.81324 5.51038C5.52631 5.55653 5.19247 5.66239 5.23109 5.83069C5.26696 5.99356 5.58425 6.05057 5.91809 5.99899C6.03672 5.98542 6.1526 5.9637 6.26848 5.93656C7.02997 5.73569 7.82732 5.64068 8.77366 5.44524C9.2289 5.37738 9.85795 5.28508 10.4842 5.18736C10.6801 5.1575 10.9119 5.1005 10.9147 4.96478C10.9147 4.84805 10.6829 4.84805 10.5201 4.83719L10.5174 4.84262Z" fill="white"/>
</g>
<defs>
<clipPath id="clip0_113_441">
<rect width="49" height="43" fill="white"/>
</clipPath>
</defs>
</svg>
