<svg width="27" height="39" viewBox="0 0 27 39" fill="none" xmlns="http://www.w3.org/2000/svg">
<g clip-path="url(#clip0_113_419)">
<path d="M26.3652 19.6749C26.2263 17.3899 25.0757 14.7369 22.9332 13.6331C20.751 12.51 18.3902 12.936 16.0493 12.8586C14.859 12.3357 13.0537 12.9167 12.9942 14.6014C12.9347 16.1118 13.5695 17.5448 13.6092 19.0552C13.629 20.1396 13.6092 21.224 13.5298 22.3084C13.6687 22.3472 13.8075 22.444 13.9266 22.5795C14.8391 23.5865 15.8509 24.4966 17.0412 25.1937C17.9339 25.4842 18.8068 25.8521 19.759 26.007C20.1558 25.9683 20.5526 25.9102 20.9493 25.8328C21.0287 25.8715 21.1279 25.9102 21.2271 25.9296C21.4056 25.9489 21.5842 25.9683 21.7627 26.007C22.1396 26.007 22.4769 25.9102 22.7943 25.7359C22.9332 25.6391 23.0721 25.5229 23.2109 25.4261C23.3498 25.3099 23.449 25.155 23.5482 25.0001C25.4725 23.9544 26.4842 21.9599 26.3652 19.6749Z" fill="#19BDC0"/>
<path d="M13.7062 12.9171C13.6665 12.8784 13.6467 12.8203 13.607 12.7816C13.607 12.7622 13.5872 12.7622 13.5872 12.7428C13.5078 12.6267 13.4483 12.4911 13.4086 12.3362C13.3888 12.2781 13.369 12.2006 13.3491 12.1425V12.1232C13.3293 12.0457 13.3293 11.9876 13.3094 11.9102C13.2698 11.6003 13.3094 11.2905 13.3888 11.0194C13.5475 9.48961 13.6269 7.95982 13.5872 6.41066C13.5475 4.88087 12.9127 3.46727 12.9722 1.95684C13.0317 0.272132 14.837 -0.308802 16.0273 0.214038C18.3682 0.291496 20.729 -0.134522 22.9112 0.988617C25.0538 2.09239 26.2044 4.74532 26.3432 7.03032C26.4821 9.33469 25.4505 11.3099 23.4865 12.3749C23.4072 12.5298 23.2881 12.6654 23.1493 12.8009C23.0104 12.8978 22.8715 13.0139 22.7327 13.1108C22.4152 13.285 22.078 13.3819 21.7011 13.3819C21.5225 13.3625 21.344 13.3431 21.1654 13.3044C21.0662 13.285 20.9869 13.2463 20.8877 13.2076C19.4395 13.4787 17.8326 13.5174 16.3844 13.3625C16.2455 13.4593 16.067 13.5368 15.8884 13.5949H15.8686C15.7892 13.6142 15.7099 13.6336 15.6305 13.653C15.6107 13.653 15.5909 13.653 15.571 13.6723C15.4718 13.6917 15.3726 13.6917 15.2734 13.6917C15.1743 13.6917 15.0949 13.6917 15.0155 13.6723C14.9957 13.6723 14.956 13.6723 14.9362 13.653C14.8767 13.653 14.8172 13.6336 14.7576 13.6142C14.7378 13.6142 14.6981 13.5949 14.6783 13.5949C14.6188 13.5755 14.5791 13.5561 14.5196 13.5561C14.4997 13.5561 14.4601 13.5368 14.4402 13.5368C14.3807 13.5174 14.341 13.4981 14.2815 13.4593C14.2617 13.4593 14.2419 13.44 14.2419 13.44C14.1823 13.4012 14.1228 13.3625 14.0633 13.3238C14.0435 13.3238 14.0435 13.3044 14.0236 13.3044C13.984 13.2657 13.9244 13.2269 13.8848 13.1882C13.8649 13.1689 13.8649 13.1495 13.8451 13.1495C13.8054 13.1108 13.7657 13.072 13.7459 13.0333C13.7459 12.9558 13.7261 12.9365 13.7062 12.9171Z" fill="#E59A9E"/>
<path d="M12.5354 36.0196C12.9124 35.5161 13.6265 33.8507 13.567 33.2117C13.4083 31.6819 13.2298 33.3666 13.2694 31.8368C13.3091 30.307 13.9439 28.8934 13.8844 27.383C13.8249 25.6983 12.0196 25.1174 10.8293 25.6402C8.4884 25.7177 6.12764 25.2917 3.94542 26.4148C1.80288 27.4992 0.632414 30.1715 0.513384 32.4565C0.374515 34.7609 1.40611 36.736 3.37011 37.8011C3.44946 37.956 3.56849 37.9947 3.70736 38.1109C3.84623 38.2077 4.08429 38.1496 4.22316 38.2465C4.54057 38.4208 4.77863 38.5369 5.13572 38.5369C5.31426 38.5176 5.49281 38.7499 5.69119 38.7306C5.79039 38.7112 5.86974 38.6725 5.96893 38.6338C6.26651 38.5176 7.21875 38.808 7.556 38.8468C8.15115 38.8855 8.29002 38.4982 8.90501 38.4788C10.135 38.4014 11.6427 37.2202 12.5354 36.0196Z" fill="#139F7F"/>
<path d="M13.1504 25.64C13.1901 25.6013 13.2099 25.5432 13.2496 25.5044C13.2496 25.4851 13.2694 25.4851 13.2694 25.4657C13.3488 25.3495 13.4083 25.214 13.448 25.0591C13.4678 25.001 13.4877 24.9235 13.5075 24.8654V24.8461C13.5273 24.7686 13.5273 24.7105 13.5472 24.633C13.5869 24.3232 13.5472 24.0134 13.4678 23.7423C13.3091 22.2125 13.2298 20.6827 13.2694 19.1335C13.3091 17.6038 13.9439 16.1901 13.8844 14.6797C13.8249 12.995 12.0196 12.4141 10.8293 12.9369C8.4884 13.0144 6.12764 12.5884 3.94542 13.7115C1.80288 14.7765 0.632414 17.4488 0.513384 19.7338C0.374515 22.0188 1.40611 24.0134 3.37011 25.0591C3.44946 25.214 3.56849 25.3495 3.70736 25.4851C3.84623 25.5819 3.9851 25.6981 4.12396 25.7949C4.44138 25.9692 4.77863 26.066 5.15556 26.066C5.3341 26.0467 5.51265 26.0273 5.69119 25.9886C5.79039 25.9692 5.86974 25.9305 5.96893 25.8917C7.41713 26.1628 9.02404 26.2016 10.4722 26.0467C10.6111 26.1435 10.7896 26.2209 10.9682 26.279H10.988C11.0674 26.2984 11.1467 26.3178 11.2261 26.3371C11.2459 26.3371 11.2658 26.3371 11.2856 26.3565C11.3848 26.3758 11.484 26.3758 11.5832 26.3758C11.6824 26.3758 11.7617 26.3758 11.8411 26.3565C11.8609 26.3565 11.9006 26.3565 11.9204 26.3371C11.9799 26.3371 12.0395 26.3178 12.099 26.2984C12.1188 26.2984 12.1585 26.279 12.1783 26.279C12.2378 26.2597 12.2775 26.2403 12.337 26.2403C12.3569 26.2403 12.3966 26.2209 12.4164 26.2209C12.4759 26.2016 12.5156 26.1822 12.5751 26.1435C12.5949 26.1435 12.6148 26.1241 12.6148 26.1241C12.6743 26.0854 12.7338 26.0467 12.7933 26.0079C12.8132 26.0079 12.8132 25.9886 12.833 25.9886C12.8727 25.9498 12.9322 25.9111 12.9719 25.8724C12.9917 25.853 12.9917 25.8336 13.0115 25.8336C13.0512 25.7949 13.0909 25.7562 13.1107 25.7175C13.1306 25.6787 13.1504 25.6594 13.1504 25.64Z" fill="#545AE8"/>
<path d="M13.1504 12.9171C13.1901 12.8784 13.2099 12.8203 13.2496 12.7816C13.2496 12.7622 13.2694 12.7622 13.2694 12.7428C13.3488 12.6267 13.4083 12.4911 13.448 12.3362C13.4678 12.2781 13.4877 12.2006 13.5075 12.1425V12.1232C13.5273 12.0457 13.5273 11.9876 13.5472 11.9102C13.5869 11.6003 13.5472 11.2905 13.4678 11.0194C13.3091 9.48961 13.2298 7.95982 13.2694 6.41066C13.3091 4.88087 13.9439 3.46727 13.8844 1.95684C13.8249 0.272132 12.0196 -0.308802 10.8293 0.214038C8.4884 0.272132 6.12764 -0.153886 3.94542 0.969252C1.80288 2.05366 0.632414 4.72596 0.513384 7.01096C0.374515 9.29597 1.40611 11.2905 3.37011 12.3362C3.44946 12.4911 3.56849 12.6267 3.70736 12.7622C3.84623 12.859 3.9851 12.9752 4.12396 13.072C4.44138 13.2463 4.77863 13.3431 5.15556 13.3431C5.3341 13.3238 5.51265 13.3044 5.69119 13.2657C5.79039 13.2463 5.86974 13.2076 5.96893 13.1689C7.41713 13.44 9.02404 13.4787 10.4722 13.3238C10.6111 13.4206 10.7896 13.4981 10.9682 13.5561H10.988C11.0674 13.5755 11.1467 13.5949 11.2261 13.6142C11.2459 13.6142 11.2658 13.6142 11.2856 13.6336C11.3848 13.653 11.484 13.653 11.5832 13.653C11.6824 13.653 11.7617 13.653 11.8411 13.6336C11.8609 13.6336 11.9006 13.6336 11.9204 13.6142C11.9799 13.6142 12.0395 13.5949 12.099 13.5755C12.1188 13.5755 12.1585 13.5561 12.1783 13.5561C12.2378 13.5368 12.2775 13.5174 12.337 13.5174C12.3569 13.5174 12.3966 13.4981 12.4164 13.4981C12.4759 13.4787 12.5156 13.4593 12.5751 13.4206C12.5949 13.4206 12.6148 13.4012 12.6148 13.4012C12.6743 13.3625 12.7338 13.3238 12.7933 13.285C12.8132 13.285 12.8132 13.2657 12.833 13.2657C12.8727 13.2269 12.9322 13.1882 12.9719 13.1495C12.9917 13.1301 12.9917 13.1108 13.0115 13.1108C13.0512 13.072 13.0909 13.0333 13.1107 12.9946C13.1306 12.9558 13.1504 12.9365 13.1504 12.9171Z" fill="#F65535"/>
<path d="M13.0526 22.4444C13.0328 23.3352 13.0526 24.3615 13.0724 25.3297L13.1518 29.1832C13.1518 29.8223 13.1716 30.4613 13.1716 31.1003V32.0492L13.1518 32.5139L13.1319 32.7463V32.8625L13.1121 32.9787C12.9336 34.1986 12.4574 35.3605 11.6639 36.29C11.4457 36.503 11.2473 36.7354 11.0092 36.929C10.8902 37.0259 10.7712 37.142 10.6522 37.2195L10.2752 37.4712C10.1562 37.5681 9.99749 37.6262 9.87846 37.6842L9.68007 37.7811L9.58088 37.8392L9.48169 37.8779L9.04525 38.0328C8.96589 38.0715 8.90638 38.0909 8.82702 38.0909L8.52945 38.149C6.12901 38.7493 3.3318 37.8392 1.94312 35.8253C1.58603 35.3218 1.30829 34.7796 1.10991 34.1986C0.911522 33.6177 0.772654 33.0174 0.732977 32.4171C0.6933 31.8168 0.772654 31.2165 0.931361 30.6356C1.10991 30.0546 1.38764 29.5124 1.76457 29.0477C2.06215 28.6604 2.43908 28.3312 2.85568 27.9827C3.25245 27.6341 3.62938 27.3243 3.96663 27.0532C4.64113 26.511 5.13709 26.2011 5.05774 26.1043C4.97838 26.0075 4.42291 26.1624 3.66905 26.6078C3.29212 26.8208 2.87552 27.1306 2.43908 27.4598C2.22085 27.6341 2.00263 27.8084 1.76457 28.0214C1.52651 28.2344 1.30829 28.4668 1.10991 28.7185C0.554432 29.435 0.177503 30.3064 0.0584731 31.1778C-0.0407186 31.9136 -0.00104191 32.6688 0.157665 33.3853C0.316372 34.1018 0.554432 34.7989 0.911522 35.4573C1.60586 36.7741 2.816 37.8973 4.30388 38.4588C4.48243 38.5169 4.68081 38.6137 4.85935 38.6525L5.13709 38.7299C5.23628 38.7493 5.33547 38.7687 5.43467 38.788C5.63305 38.8267 5.83143 38.8655 6.02982 38.9042C6.2282 38.9236 6.42658 38.9429 6.64481 38.9623C7.45818 39.001 8.31123 38.9042 9.1246 38.6525C10.7315 38.1296 12.2194 36.9678 13.0129 35.3605C13.4097 34.5859 13.6676 33.6952 13.7668 32.7076C13.7866 32.4558 13.8064 32.2041 13.8064 31.9524C13.8064 31.7006 13.8064 31.4489 13.8064 31.1972C13.8064 30.6937 13.7866 30.1708 13.7866 29.648C13.7469 27.5566 13.6279 25.3104 13.5684 23.0641C13.5287 21.6505 13.5089 19.9851 13.3105 19.7915C13.1518 19.6947 13.0923 21.3019 13.0526 22.4444Z" fill="#545AE8"/>
<path d="M2.38282 11.0969C1.6488 10.3416 0.974296 9.29596 0.756074 8.21155C0.597367 7.49506 0.637044 6.73985 0.795751 6.02337C0.954458 5.30688 1.23219 4.5904 1.56945 3.93201C2.26379 2.61522 3.43425 1.60827 4.86261 1.14352C5.57679 0.911151 6.31081 0.7756 7.08451 0.736871C7.83837 0.698142 8.6319 0.717507 9.4056 0.717507C10.953 0.7756 12.5401 0.872422 14.1271 0.853058C15.7142 0.833693 17.2814 0.717507 18.8288 0.7756C19.6025 0.794964 20.3762 0.853058 21.1301 0.988609C21.507 1.0467 21.8641 1.12416 22.2212 1.24035C22.5783 1.35653 22.9155 1.51145 23.2329 1.68573C23.8678 2.05365 24.4232 2.5184 24.8795 3.09933C25.0977 3.3898 25.316 3.69963 25.4747 4.00946C25.6532 4.33866 25.7921 4.66785 25.9309 5.01641C26.1888 5.69417 26.3079 6.43002 26.2682 7.1465C26.2484 7.51443 26.1888 7.86299 26.1095 8.21155C26.0301 8.56011 25.8913 8.90867 25.7326 9.23787C25.6135 9.50897 25.4548 9.7607 25.2961 10.0124C25.2168 10.148 25.1176 10.2642 25.0382 10.3804C24.9589 10.4966 24.8597 10.6127 24.7605 10.7096C24.3637 11.1356 23.8678 11.4841 23.471 11.8133C23.0544 12.1425 22.7171 12.4911 22.5386 12.7622C22.4394 12.8977 22.3799 13.0139 22.36 13.0914C22.3402 13.1688 22.3402 13.2269 22.36 13.2269C22.4196 13.2463 22.5584 13.1301 22.7766 12.9558C22.9949 12.7622 23.3321 12.5298 23.7487 12.2587C24.1653 11.9876 24.701 11.6778 25.2168 11.1937C25.2763 11.1356 25.3358 11.0581 25.3953 11C25.4548 10.9226 25.5143 10.8645 25.5739 10.787C25.673 10.6515 25.7921 10.4966 25.8913 10.361C26.0897 10.0705 26.288 9.74134 26.4467 9.39278C26.903 8.42456 27.1014 7.32078 26.9625 6.25574C26.903 5.81036 26.8038 5.38434 26.665 4.97769C26.5261 4.55167 26.3476 4.16438 26.1293 3.77709C25.7127 3.00251 25.1573 2.26666 24.4431 1.70509C23.7487 1.12416 22.8957 0.717507 21.9831 0.485133C21.5268 0.368946 21.0904 0.291489 20.6341 0.233395C20.1778 0.175302 19.7215 0.136573 19.2653 0.117209C17.4203 0.0203863 15.5555 0.175302 13.6312 0.194666C11.7068 0.194666 9.70317 0.0397507 7.58047 0.0978441C7.06467 0.117209 6.52904 0.155937 5.97356 0.233395C5.41809 0.330218 4.84278 0.465769 4.2873 0.698142C3.73183 0.930515 3.17635 1.24035 2.66056 1.62764C2.1646 2.03429 1.70832 2.5184 1.35122 3.07997C0.994134 3.64154 0.716397 4.24184 0.478337 4.88086C0.260115 5.51989 0.101408 6.19765 0.08157 6.89477C0.0617316 7.57252 0.160923 8.28901 0.398984 8.96676C0.637044 9.64452 1.01397 10.2642 1.47025 10.8064C2.04557 11.5035 2.79942 12.1232 3.45409 12.5298C3.79134 12.7428 4.04924 12.8784 4.18811 13.0333C4.34682 13.1688 4.42617 13.285 4.50552 13.3044C4.56504 13.3238 4.56504 13.2269 4.50552 13.072C4.44601 12.8977 4.26746 12.6847 4.00956 12.4911C3.75167 12.2974 3.47393 12.0651 3.17635 11.8327C3.03749 11.7165 2.89862 11.581 2.75975 11.4648C2.62088 11.3486 2.50185 11.213 2.38282 11.0969Z" fill="#545AE8"/>
<path d="M13.2319 6.46847C13.1526 8.40492 13.1327 10.6125 13.1923 12.7038C13.2121 13.4009 13.2319 14.0981 13.2914 14.7952C13.3311 15.4923 13.3708 16.1701 13.3708 16.8672C13.3708 17.2157 13.351 17.5449 13.3311 17.8935L13.2319 18.9392C13.1724 19.6363 13.1327 20.3528 13.2121 21.0693C13.2914 21.7858 13.5295 22.5216 13.9263 23.1413C14.3429 23.7609 14.8984 24.2838 15.5133 24.6904C16.7235 25.5037 18.132 26.0653 19.6199 26.2009C20.3539 26.2589 21.1276 26.2202 21.8418 26.0459C22.5758 25.8717 23.2701 25.5812 23.905 25.1745C25.1548 24.3806 26.1665 23.1606 26.6228 21.7664C27.0791 20.3722 27.0394 18.823 26.5633 17.4481C26.3252 16.751 25.988 16.112 25.5515 15.4923C25.0953 14.8533 24.4406 14.4273 23.8256 14.0593C23.1908 13.672 22.4964 13.3816 21.7624 13.2073C21.4053 13.1105 21.0284 13.0524 20.6515 13.033C20.4729 13.0137 20.2745 13.0137 20.096 13.0137H19.5604H15.2951H6.74479H6.20915C6.03061 13.0137 5.83222 13.0137 5.63384 13.033C5.25691 13.0718 4.86015 13.1492 4.50305 13.2848C4.14596 13.4203 3.78887 13.5752 3.47146 13.7882C3.15405 14.0012 2.87631 14.2143 2.59857 14.466C2.0431 14.9307 1.5273 15.4729 1.1107 16.0926C0.694091 16.7123 0.396515 17.4094 0.237808 18.1259C0.0791016 18.8424 0.0394249 19.5782 0.118778 20.3141C0.198132 21.0499 0.376677 21.7664 0.713929 22.4248C1.05118 23.0832 1.48762 23.6835 2.02326 24.2063C2.28116 24.4774 2.5589 24.7098 2.83663 24.9422C2.9755 25.0583 3.11437 25.1745 3.27308 25.2714C3.41195 25.3682 3.57065 25.4844 3.72936 25.5812C4.26499 25.9104 4.87998 26.1234 5.49497 26.2202C5.81239 26.2589 6.1298 26.2783 6.44721 26.2589C6.72495 26.2396 7.00269 26.2396 7.30026 26.2396C7.87557 26.2396 8.43105 26.2589 8.98652 26.2396C9.52216 26.2202 10.038 26.2202 10.5339 26.2009C12.4582 26.1428 13.7874 26.0653 13.7279 25.9297C13.6684 25.8136 12.4582 25.7167 10.5934 25.6586C10.1173 25.6393 9.62135 25.6393 9.08571 25.6199C8.55008 25.6199 7.9946 25.5812 7.37962 25.5618C7.08204 25.5618 6.76463 25.5425 6.44721 25.5618C6.14964 25.5812 5.8719 25.5618 5.57433 25.5231C4.99901 25.4263 4.4237 25.2133 3.92774 24.8647C3.19372 24.3419 2.49938 23.7609 1.98358 23.0638C1.44795 22.3667 1.07102 21.5921 0.932151 20.7401C0.634575 19.3071 0.813121 17.7773 1.58682 16.5574C1.96375 15.9377 2.47954 15.3955 3.05485 14.9114C3.19372 14.7952 3.35243 14.679 3.4913 14.5628L3.72936 14.3885C3.80871 14.3304 3.86823 14.2917 3.94758 14.2336C4.24516 14.04 4.58241 13.9044 4.9395 13.8076C5.29659 13.7108 5.65368 13.6527 6.03061 13.6527C6.42737 13.6527 6.82414 13.6527 7.22091 13.6527C8.01444 13.6527 8.82782 13.6527 9.62135 13.6527C11.2283 13.6527 12.855 13.6527 14.5016 13.6527C16.1482 13.6527 17.8146 13.6527 19.5207 13.6527C19.7389 13.6527 19.9373 13.6527 20.1555 13.6527C20.3539 13.6527 20.5523 13.672 20.7705 13.6914C21.1673 13.7301 21.5839 13.827 21.9806 13.9432C22.3774 14.0593 22.7543 14.2143 23.1114 14.4079C23.29 14.5047 23.4685 14.6209 23.6669 14.7177C23.8454 14.8339 24.024 14.9501 24.1827 15.0663C24.52 15.318 24.8175 15.5891 25.0357 15.9183C25.1548 16.0926 25.254 16.2669 25.373 16.4412C25.4722 16.6348 25.5714 16.8091 25.6706 17.0027C26.0277 17.758 26.2261 18.5906 26.2657 19.4427C26.3054 20.2947 26.1665 21.1467 25.8293 21.96C25.492 22.754 24.9564 23.4898 24.2819 24.0708C23.0122 25.2326 21.0284 25.8329 19.0247 25.4844C18.5288 25.3875 18.0328 25.2714 17.5369 25.0583C17.2988 24.9809 17.0607 24.8453 16.8227 24.7485C16.7036 24.6904 16.5846 24.613 16.4656 24.5549C16.3466 24.4968 16.2275 24.4193 16.1283 24.3612C15.672 24.0901 15.2554 23.7609 14.8785 23.3736C14.5214 22.9864 14.2238 22.541 14.0453 22.0375C13.6684 21.0499 13.708 19.9074 13.8072 18.7455C13.8271 18.4551 13.8668 18.1646 13.8866 17.8741C13.9064 17.5643 13.9263 17.2738 13.9263 16.964C13.9263 16.3637 13.9064 15.7634 13.8668 15.1631C13.7081 12.7813 13.6882 10.3607 13.708 7.94017C13.7477 4.89995 13.8469 1.24007 13.6485 0.852782C13.4898 0.542951 13.3311 4.02855 13.2319 6.46847Z" fill="#545AE8"/>
</g>
<defs>
<clipPath id="clip0_113_419">
<rect width="27" height="39" fill="white"/>
</clipPath>
</defs>
</svg>
