<svg width="70" height="70" viewBox="0 0 70 70" fill="none" xmlns="http://www.w3.org/2000/svg">
<path d="M35.2749 68.808C54.0955 68.808 69.3526 53.6211 69.3526 34.8872C69.3526 16.1532 54.0955 0.966309 35.2749 0.966309C16.4544 0.966309 1.19727 16.1532 1.19727 34.8872C1.19727 53.6211 16.4544 68.808 35.2749 68.808Z" fill="#516FE9"/>
<path d="M50.6145 30.1195C45.663 39.0426 40.7115 47.9335 35.7601 56.8567C35.1128 58.0486 34.4332 59.2405 33.786 60.4324C33.7536 60.529 33.7213 60.6257 33.6242 60.6579C33.5594 60.6257 33.5594 60.5612 33.5594 60.529C33.6565 59.5948 33.7213 58.6284 33.8183 57.6942C33.8831 56.9533 33.9478 56.1802 34.0125 55.4393C34.0772 54.6662 34.142 53.893 34.2067 53.1199C34.2714 52.379 34.3361 51.6381 34.4009 50.8972C34.4656 50.1241 34.5303 49.3509 34.595 48.5778C34.6598 47.8369 34.7245 47.0638 34.7892 46.3229C34.8539 45.5497 34.9187 44.7444 34.9834 43.9713C35.0481 43.2304 35.1128 42.4895 35.1776 41.7485C35.2099 41.3298 35.2423 40.9432 35.2747 40.5244C35.2747 40.4278 35.2747 40.3634 35.2747 40.2667C35.2747 40.1701 35.2423 40.1379 35.1452 40.1379C35.0481 40.1379 34.951 40.1379 34.8863 40.1379H20.3232C20.2261 40.1379 20.129 40.1379 20.0643 40.1379C19.8701 40.1379 19.8378 40.1057 19.9349 39.9124C20.2908 39.2359 20.6792 38.5916 21.0352 37.9151C25.4365 29.9906 29.8378 22.0661 34.2391 14.1415C35.1128 12.5953 35.9543 11.0168 36.8281 9.47059C36.8928 9.37395 36.9251 9.2773 37.0222 9.18066C37.0546 9.40616 37.0222 9.59944 37.0222 9.79272C36.9575 10.5981 36.8928 11.4356 36.8281 12.2409C36.7633 13.0141 36.6986 13.7872 36.6339 14.5603C36.5692 15.3012 36.5044 16.0744 36.4397 16.8153C36.375 17.5884 36.3103 18.3615 36.2455 19.1346C36.1808 19.8756 36.1161 20.6487 36.0514 21.3896C35.9866 22.1627 35.9219 22.9358 35.8572 23.709C35.7925 24.4499 35.7277 25.223 35.663 25.9639C35.5983 26.737 35.5336 27.5102 35.4688 28.2833C35.4365 28.7021 35.4041 29.1531 35.3717 29.5718C35.3717 29.6685 35.4041 29.7329 35.5336 29.7329C35.6306 29.7329 35.7277 29.7329 35.7925 29.7329H50.3879C50.841 29.7007 50.841 29.7007 50.6145 30.1195Z" fill="white"/>
</svg>
