<svg width="71" height="62" viewBox="0 0 71 62" fill="none" xmlns="http://www.w3.org/2000/svg">
<g clip-path="url(#clip0_107_1007)">
<path d="M21.4679 55.0098C18.8014 52.955 15.955 50.9863 14.0081 48.2114C9.91439 43.319 6.76417 37.6556 4.60938 31.7026C3.30611 27.8317 2.86236 23.683 1.17931 19.9609C-0.575698 17.2564 1.48314 14.3053 4.50544 13.4482C5.85268 13.1938 8.21935 11.9492 5.36096 12.8415C2.7984 14.6811 2.55054 11.1703 5.17706 10.9472C6.96805 10.7163 7.62768 9.27989 7.01602 7.98439C5.08911 6.75543 11.6814 5.40514 8.36726 3.57343C4.91721 -0.0743155 13.2045 -0.774903 11.1577 3.36991C10.67 6.55582 16.9504 2.78283 15.4912 6.4658C16.9744 8.23488 21.0361 6.86893 20.9362 9.34643C23.095 9.49124 23.8345 11.2681 25.8574 11.4051C27.9562 12.3327 31.7621 13.0646 32.4737 15.3777C30.3909 16.9903 25.5696 12.0431 25.3377 16.5128C25.9693 23.1116 25.8054 29.91 28.272 36.1957C29.4394 40 32.2658 42.9942 34.8204 45.9609C37.263 48.8611 40.5731 50.9081 43.9472 52.6263C46.9055 53.9922 50.0958 54.8963 53.3219 55.4678C54.6292 54.4893 56.9399 50.8454 58.9787 52.3797C59.0787 54.1057 54.929 55.9883 58.7829 55.7965C61.0496 55.1272 62.6167 57.5108 64.4796 55.3621C66.1987 57.3543 71.6196 54.0901 70.3963 58.1605C68.7412 59.2055 66.3346 58.5754 64.6795 60.0118C61.9531 58.6771 59.7783 61.2055 56.756 60.8846C53.4019 61.4717 49.9878 61.7104 46.5857 61.7143C41.0049 61.2838 35.3081 61.0998 29.9991 59.1977C27.0088 58.3484 24.0904 56.6811 21.4599 55.0098H21.4679Z" fill="#F05157"/>
<path d="M66.1907 57.2955C67.8178 57.2995 71.12 56.7985 67.5819 56.8024C67.0263 56.8885 64.3438 56.8689 66.1907 57.2955Z" fill="#F05157"/>
<path d="M65.787 57.0372C65.755 57.0137 65.727 56.9902 65.707 56.9745L65.695 56.9628C65.691 56.9745 65.675 56.9941 65.659 57.0058C65.5791 57.0763 65.5791 57.0372 65.6071 57.0646C65.6431 57.088 65.6471 57.1076 65.675 57.1546C65.695 57.1859 65.687 57.1624 65.691 57.1702L65.731 57.1624C65.767 57.1585 65.803 57.1546 65.8429 57.1546C66.2787 57.1507 66.7464 57.1741 67.2142 57.1663C67.3341 57.1663 67.45 57.1663 67.586 57.1507L67.8858 57.1624C68.1137 57.1702 68.3375 57.182 68.5654 57.1898C68.6773 57.1976 68.7853 57.2055 68.8812 57.2172L68.9452 57.2289H68.9652C68.9652 57.2289 68.9532 57.272 69.0052 57.135C69.0371 57.0489 69.0691 56.9784 69.1051 56.9471C69.1371 56.9158 69.1331 56.9471 69.0891 56.9041C69.0571 56.8689 69.0092 56.8023 68.9652 56.7162L68.9332 56.6458H68.9292C68.7933 56.6966 68.5374 56.7397 68.3255 56.7749C67.8818 56.8415 67.4221 56.8923 66.9703 56.9158C66.6065 56.9354 66.1788 57.0058 66.1828 57.2524C66.1867 57.4951 66.5905 57.6516 67.0383 57.6321C67.1942 57.6321 67.3501 57.6164 67.502 57.5968C68.0177 57.4951 68.5054 57.452 69.0931 57.2994C69.1331 57.2876 69.1731 57.2759 69.233 57.2485C69.269 57.225 69.293 57.2289 69.3769 57.1389C69.3889 57.1272 69.4249 57.0763 69.4409 57.0215C69.4569 56.9784 69.4609 56.8884 69.4369 56.8219C69.4169 56.7671 69.3929 56.7358 69.357 56.7006C69.333 56.6771 69.321 56.6692 69.297 56.6536C69.1731 56.5831 69.1491 56.5949 69.0931 56.5792C69.0491 56.5714 69.0052 56.5636 68.9692 56.5597C68.8133 56.5401 68.6693 56.5323 68.5214 56.5244C68.2256 56.5127 67.9258 56.5127 67.6139 56.5244C67.462 56.5323 67.2941 56.5401 67.1142 56.5479C66.9423 56.5518 66.7584 56.5597 66.5705 56.5636C66.3786 56.5714 66.1788 56.5792 65.9669 56.5949C65.8589 56.6066 65.755 56.6145 65.6271 56.6418C65.5951 56.6497 65.5631 56.6575 65.5191 56.6692C65.4991 56.6771 65.4831 56.681 65.4512 56.6966C65.4152 56.7162 65.4112 56.7084 65.3472 56.7553C65.3232 56.7749 65.2992 56.7984 65.2793 56.818C65.2513 56.8454 65.2073 56.9237 65.1993 56.9863C65.1833 57.0567 65.1913 57.1076 65.2113 57.1663C65.2273 57.2211 65.2713 57.2876 65.2793 57.2955C65.3072 57.3307 65.3632 57.3777 65.3792 57.3894L65.4472 57.4325C65.6311 57.5264 65.763 57.5499 65.8909 57.5577C66.0148 57.5577 66.1108 57.5264 66.1508 57.4403C66.2147 57.2837 65.9349 57.1663 65.779 57.0489L65.787 57.0372Z" fill="#3A395B"/>
<path d="M35.7559 58.3405C34.5126 58.047 33.0974 57.7182 31.7981 57.2681C24.87 54.9667 18.7055 50.6262 14.204 45.0059C9.69857 39.3777 6.78421 32.5597 5.65684 25.4951C5.52492 24.7867 5.45296 24.0352 5.34902 23.319C5.25307 22.5988 5.2051 21.9022 5.12514 21.3033C5.0212 20.0978 4.92526 19.2564 4.79333 19.2955C4.6734 19.3307 4.58945 20.0978 4.56946 21.2916C4.58545 21.8865 4.59344 22.5871 4.65741 23.3464C4.73337 24.1057 4.80133 24.9315 4.95724 25.773C5.04919 26.364 5.14513 26.955 5.27706 27.5382C5.40099 28.1213 5.52092 28.7084 5.68083 29.2798C6.17255 31.1937 6.8042 33.0842 7.56777 34.9511C8.33534 36.818 9.21484 38.681 10.2862 40.5049C12.425 44.1448 15.2314 47.7182 19.0293 50.8454C20.8243 52.3523 23.115 53.9648 25.7895 55.3699C27.1327 56.0509 28.5559 56.7202 30.0591 57.2564C30.8027 57.5499 31.5742 57.773 32.3458 58.0235C32.7336 58.1409 33.1294 58.2348 33.5211 58.3405C33.9129 58.4462 34.3047 58.5479 34.7085 58.6262C35.2082 58.7241 35.7319 58.8532 36.2476 58.9237C36.7633 58.998 37.263 59.0685 37.7108 59.1194C38.6103 59.182 39.2859 59.1976 39.4178 59.1155C39.5218 59.0411 38.9981 58.9354 38.2545 58.8141C37.8787 58.7632 37.4549 58.6849 37.0232 58.5988C36.5914 58.5088 36.1517 58.4462 35.7599 58.3444L35.7559 58.3405Z" fill="white"/>
<path d="M21.448 10.8845C21.1361 10.8767 20.7803 10.9119 20.4445 10.9276C16.8785 11.1037 13.3445 11.6243 9.79854 12.0157C9.08694 12.0939 8.24341 12.2583 8.29139 12.5049C8.33536 12.7436 9.09093 12.8141 9.92646 12.728C10.2183 12.7045 10.5101 12.6693 10.798 12.6262C12.7129 12.3092 14.6758 12.1448 17.0385 11.8278C18.1698 11.7143 19.7249 11.5616 21.2761 11.3973C21.7638 11.3464 22.3435 11.2564 22.3794 11.0607C22.4074 10.8924 21.8438 10.9002 21.448 10.8885V10.8845Z" fill="white"/>
<path d="M15.2394 6.98244C15.0515 6.9707 14.8437 6.99809 14.6478 7.00983C12.541 7.13508 10.4941 7.60475 8.42328 7.94525C8.00752 8.01179 7.52379 8.16443 7.57976 8.40709C7.63173 8.64193 8.09147 8.72412 8.5752 8.64976C8.7471 8.63019 8.91501 8.59888 9.08291 8.55974C10.1863 8.27011 11.3416 8.13312 12.7129 7.85132C13.3725 7.75347 14.284 7.6204 15.1915 7.4795C15.4753 7.43645 15.8111 7.35426 15.8151 7.15856C15.8151 6.99027 15.4793 6.99026 15.2434 6.97461L15.2394 6.98244Z" fill="white"/>
</g>
<defs>
<clipPath id="clip0_107_1007">
<rect width="71" height="62" fill="white"/>
</clipPath>
</defs>
</svg>
