<svg width="86" height="86" viewBox="0 0 86 86" fill="none" xmlns="http://www.w3.org/2000/svg">
<path d="M43 86C66.7482 86 86 66.7482 86 43C86 19.2518 66.7482 0 43 0C19.2518 0 0 19.2518 0 43C0 66.7482 19.2518 86 43 86Z" fill="#F0F8FF"/>
<path d="M68.9728 43.017C68.9728 49.889 66.3958 56.1714 62.1683 60.9379C57.2501 66.4792 50.1087 69.9826 42.142 70.0331C42.0746 70.0331 42.0241 70.0331 41.9567 70.0331C41.8894 70.0331 41.8388 70.0331 41.7715 70.0331C34.0574 69.9826 27.1181 66.6982 22.2168 61.4769C17.7029 56.643 14.9238 50.1584 14.9238 43.017C14.9238 36.1451 17.484 29.8627 21.7284 25.0962C26.6465 19.5548 33.7879 16.0515 41.7715 16.001C41.8388 16.001 41.8894 16.001 41.9567 16.001C42.0241 16.001 42.0746 16.001 42.142 16.001C49.8561 16.0515 56.7954 19.3359 61.6798 24.5572C66.2106 29.3911 68.9728 35.8756 68.9728 43.017Z" fill="#E6E7E8"/>
<path fill-rule="evenodd" clip-rule="evenodd" d="M41.768 15.5799L41.7707 15.5799H42.1412L42.144 15.5799C49.9784 15.6312 57.0264 18.9674 61.9865 24.2695C66.5874 29.1785 69.3931 35.7648 69.3931 43.017C69.3931 49.9961 66.7755 56.3769 62.4825 61.2173C57.4886 66.844 50.2353 70.4028 42.1439 70.4542L42.1412 70.4542H41.7707L41.7679 70.4542C33.9334 70.4028 26.8856 67.0666 21.909 61.7651L21.9083 61.7643C17.3249 56.856 14.502 50.27 14.502 43.017C14.502 36.0388 17.1021 29.6576 21.4129 24.8164C26.4069 19.1897 33.66 15.6312 41.768 15.5799ZM41.772 16.422C33.9135 16.4722 26.8845 19.9201 22.0425 25.3757L22.042 25.3762C17.8641 30.0681 15.3441 36.2516 15.3441 43.017C15.3441 50.0465 18.079 56.4292 22.523 61.1887C27.3486 66.3294 34.1789 69.5618 41.7718 69.612H42.14C49.9814 69.5618 57.0105 66.114 61.8525 60.6584C66.0145 55.9657 68.5509 49.7818 68.5509 43.017C68.5509 35.9866 65.8321 29.604 61.3718 24.8451L61.3715 24.8448C56.563 19.7047 49.733 16.4722 42.1398 16.422H41.772Z" fill="black"/>
<path fill-rule="evenodd" clip-rule="evenodd" d="M41.8013 15.563L41.804 15.563H42.1746L42.1782 15.563C49.9787 15.6314 57.0261 18.9675 62.0025 24.2689C62.1513 24.4274 62.155 24.6731 62.011 24.836C59.9234 27.1974 57.4259 29.1814 54.6558 30.7033L54.6553 30.7036C50.8753 32.7732 46.5639 33.988 41.9787 34.0565L41.9724 34.0565H41.484C37.0548 34.0565 32.8802 33.0132 29.1842 31.1481L29.1838 31.1479C26.2766 29.6771 23.6603 27.7106 21.4544 25.3679C21.3049 25.2092 21.3013 24.9627 21.446 24.7997C26.44 19.1729 33.6932 15.6143 41.8013 15.563ZM41.8053 16.4051C34.086 16.4544 27.1671 19.7821 22.3351 25.0708C24.4176 27.2199 26.8614 29.0292 29.564 30.3964C33.1441 32.203 37.1887 33.2144 41.484 33.2144H41.9692C46.4107 33.1476 50.5871 31.9708 54.2508 29.9649C56.8243 28.551 59.1535 26.7267 61.1221 24.5656C56.3131 19.5875 49.5942 16.4707 42.1727 16.4051H41.8053Z" fill="black"/>
<path fill-rule="evenodd" clip-rule="evenodd" d="M41.9644 51.9605C41.967 51.9605 41.9697 51.9604 41.9723 51.9604H42.4607C46.8728 51.9604 51.064 53.0036 54.76 54.8687C57.6684 56.323 60.2853 58.2901 62.4914 60.6502C62.6502 60.8201 62.6412 61.0865 62.4713 61.2453C62.3014 61.4041 62.035 61.3952 61.8762 61.2253C59.7371 58.9369 57.2004 57.0304 54.3825 55.6214L54.3811 55.6207C50.8011 53.8142 46.7394 52.8026 42.4607 52.8026H41.9762C37.5329 52.8861 33.3564 54.0468 29.6939 56.0521L29.6935 56.0523C26.9921 57.5273 24.5876 59.4671 22.5637 61.7399C22.409 61.9136 22.1428 61.929 21.9692 61.7743C21.7955 61.6197 21.7801 61.3535 21.9347 61.1798C24.0204 58.8377 26.5003 56.8363 29.2897 55.3133C33.0706 53.2432 37.3815 52.046 41.9644 51.9605Z" fill="black"/>
<path fill-rule="evenodd" clip-rule="evenodd" d="M41.7602 15.58C41.7636 15.5799 41.7671 15.5799 41.7706 15.5799H42.1412C42.1447 15.5799 42.1482 15.5799 42.1518 15.58C44.9804 15.6514 47.5728 17.2173 49.7355 19.7914C51.8983 22.3656 53.6602 25.9786 54.8419 30.2375C55.9143 34.0504 56.5082 38.4007 56.5082 43.017C56.5082 47.4477 55.9481 51.6444 54.9613 55.3533C53.7968 59.7307 52.0269 63.454 49.8391 66.1091C47.6519 68.7635 45.0168 70.3827 42.1347 70.454C42.1313 70.4541 42.1278 70.4542 42.1243 70.4542H41.7538C41.7502 70.4542 41.7467 70.4541 41.7431 70.454C38.9145 70.3826 36.3221 68.8168 34.1594 66.2427C31.9966 63.6684 30.2346 60.0552 29.0529 55.7962C27.9806 51.9833 27.3867 47.6331 27.3867 43.017C27.3867 38.5863 27.9469 34.3896 28.9336 30.6808C30.0982 26.303 31.8724 22.5798 34.0623 19.9248C36.2513 17.2708 38.8864 15.6514 41.7602 15.58ZM41.7759 16.422C39.2281 16.4872 36.8037 17.9246 34.7119 20.4607C32.6195 22.9975 30.8904 26.601 29.7474 30.8973C28.7804 34.532 28.2289 38.6557 28.2289 43.017C28.2289 47.5632 28.814 51.8363 29.8638 55.5689L29.8642 55.5703C31.0236 59.7493 32.7396 63.2436 34.8042 65.701C36.8677 68.157 39.2505 69.5469 41.7592 69.612H42.119C44.6754 69.5469 47.0997 68.1093 49.1892 65.5735C51.2795 63.0368 53.0045 59.4334 54.1475 55.1367C55.1145 51.5021 55.666 47.3784 55.666 43.017C55.666 38.4709 55.0809 34.1977 54.0311 30.4652L54.0307 30.4637C52.8713 26.2848 51.1553 22.7904 49.0907 20.3331C47.0272 17.877 44.6444 16.4872 42.1358 16.422H41.7759Z" fill="black"/>
<path fill-rule="evenodd" clip-rule="evenodd" d="M41.9562 15.5801C42.1888 15.5801 42.3773 15.7686 42.3773 16.0012V70.0333C42.3773 70.2658 42.1888 70.4543 41.9562 70.4543C41.7237 70.4543 41.5352 70.2658 41.5352 70.0333V16.0012C41.5352 15.7686 41.7237 15.5801 41.9562 15.5801Z" fill="black"/>
<path fill-rule="evenodd" clip-rule="evenodd" d="M14.5176 43.0168C14.5176 42.7842 14.7061 42.5957 14.9387 42.5957H68.9708C69.2033 42.5957 69.3918 42.7842 69.3918 43.0168C69.3918 43.2493 69.2033 43.4378 68.9708 43.4378H14.9387C14.7061 43.4378 14.5176 43.2493 14.5176 43.0168Z" fill="black"/>
<path d="M56.6269 54.5376C60.878 54.5376 64.3242 51.0915 64.3242 46.8404C64.3242 42.5894 60.878 39.1432 56.6269 39.1432C52.3759 39.1432 48.9297 42.5894 48.9297 46.8404C48.9297 51.0915 52.3759 54.5376 56.6269 54.5376Z" fill="#F7AEBC"/>
<path fill-rule="evenodd" clip-rule="evenodd" d="M56.6261 39.5643C52.6076 39.5643 49.35 42.822 49.35 46.8405C49.35 50.859 52.6076 54.1166 56.6261 54.1166C60.6446 54.1166 63.9022 50.859 63.9022 46.8405C63.9022 42.822 60.6446 39.5643 56.6261 39.5643ZM48.5078 46.8405C48.5078 42.3569 52.1425 38.7222 56.6261 38.7222C61.1097 38.7222 64.7444 42.3569 64.7444 46.8405C64.7444 51.3241 61.1097 54.9588 56.6261 54.9588C52.1425 54.9588 48.5078 51.3241 48.5078 46.8405Z" fill="black"/>
<path d="M71.0617 69.612C71.0617 61.6453 64.6108 54.5376 56.6441 54.5376C48.6774 54.5376 42.2266 61.6453 42.2266 69.612H71.0617Z" fill="#88C1D7"/>
<path fill-rule="evenodd" clip-rule="evenodd" d="M41.8047 69.6121C41.8047 61.4375 48.4202 54.1166 56.6433 54.1166C64.8664 54.1166 71.4819 61.4375 71.4819 69.6121C71.4819 69.8447 71.2934 70.0332 71.0609 70.0332H42.2258C41.9932 70.0332 41.8047 69.8447 41.8047 69.6121ZM42.653 69.1911H70.6336C70.4114 61.6057 64.2138 54.9588 56.6433 54.9588C49.0728 54.9588 42.8752 61.6057 42.653 69.1911Z" fill="black"/>
</svg>
