<svg width="86" height="86" viewBox="0 0 86 86" fill="none" xmlns="http://www.w3.org/2000/svg">
<path fill-rule="evenodd" clip-rule="evenodd" d="M32.6482 21.0218C29.9343 26.6243 28.2436 34.3942 28.2436 42.9999C28.2436 51.6056 29.9343 59.3756 32.6482 64.9781C35.3766 70.6103 39.0635 73.9174 42.9997 73.9174C46.9359 73.9174 50.6229 70.6103 53.3512 64.9781C56.0652 59.3756 57.7558 51.6056 57.7558 42.9999C57.7558 34.3942 56.0652 26.6243 53.3512 21.0218C50.6229 15.3896 46.9359 12.0824 42.9997 12.0824C39.0635 12.0824 35.3766 15.3896 32.6482 21.0218ZM31.877 20.6482C34.6444 14.9354 38.5497 11.2255 42.9997 11.2255C47.4497 11.2255 51.355 14.9354 54.1224 20.6482C56.9042 26.3907 58.6127 34.2937 58.6127 42.9999C58.6127 51.7061 56.9042 59.6092 54.1224 65.3517C51.355 71.0645 47.4497 74.7743 42.9997 74.7743C38.5497 74.7743 34.6444 71.0645 31.877 65.3517C29.0953 59.6092 27.3867 51.7061 27.3867 42.9999C27.3867 34.2937 29.0953 26.3907 31.877 20.6482Z" fill="black"/>
<path d="M43 86C66.7482 86 86 66.7482 86 43C86 19.2518 66.7482 0 43 0C19.2518 0 0 19.2518 0 43C0 66.7482 19.2518 86 43 86Z" fill="#F0F8FF"/>
<path fill-rule="evenodd" clip-rule="evenodd" d="M20.1395 51.2211C18.0862 57.1328 18.3548 62.0783 21.1381 64.8616C23.9214 67.6449 28.8669 67.9135 34.7786 65.8602C40.6592 63.8177 47.3488 59.519 53.4338 53.4339C59.5189 47.3488 63.8176 40.6593 65.8601 34.7787C67.9134 28.867 67.6449 23.9214 64.8616 21.1381C62.0783 18.3548 57.1327 18.0863 51.221 20.1396C45.3404 22.1821 38.6509 26.4808 32.5658 32.5659C26.4807 38.6509 22.182 45.3405 20.1395 51.2211ZM19.3301 50.9399C21.4236 44.9124 25.8037 38.1161 31.9599 31.9599C38.116 25.8038 44.9124 21.4236 50.9399 19.3301C56.9362 17.2474 62.3209 17.3856 65.4675 20.5322C68.6141 23.6788 68.7523 29.0635 66.6696 35.0598C64.5761 41.0873 60.1959 47.8837 54.0398 54.0398C47.8836 60.196 41.0872 64.5761 35.0598 66.6696C29.0634 68.7523 23.6787 68.6141 20.5321 65.4676C17.3856 62.321 17.2474 56.9363 19.3301 50.9399Z" fill="black"/>
<path fill-rule="evenodd" clip-rule="evenodd" d="M21.0228 32.6483C15.3906 35.3766 12.0835 39.0636 12.0835 42.9998C12.0835 46.936 15.3906 50.6229 21.0228 53.3513C26.6254 56.0652 34.3953 57.7559 43.001 57.7559C51.6067 57.7559 59.3766 56.0652 64.9791 53.3513C70.6113 50.6229 73.9185 46.936 73.9185 42.9998C73.9185 39.0636 70.6113 35.3766 64.9791 32.6483C59.3766 29.9343 51.6067 28.2437 43.001 28.2437C34.3953 28.2437 26.6254 29.9343 21.0228 32.6483ZM20.6492 31.8771C26.3917 29.0953 34.2948 27.3868 43.001 27.3868C51.7072 27.3868 59.6102 29.0953 65.3527 31.8771C71.0655 34.6445 74.7754 38.5498 74.7754 42.9998C74.7754 47.4497 71.0655 51.3551 65.3527 54.1225C59.6102 56.9042 51.7072 58.6128 43.001 58.6128C34.2948 58.6128 26.3917 56.9042 20.6492 54.1225C14.9364 51.3551 11.2266 47.4497 11.2266 42.9998C11.2266 38.5498 14.9364 34.6445 20.6492 31.8771Z" fill="black"/>
<path fill-rule="evenodd" clip-rule="evenodd" d="M20.1395 34.7789C22.182 40.6595 26.4807 47.3491 32.5658 53.4341C38.6509 59.5192 45.3404 63.8179 51.221 65.8604C57.1327 67.9137 62.0783 67.6452 64.8616 64.8619C67.6449 62.0786 67.9134 57.133 65.8601 51.2213C63.8176 45.3407 59.5189 38.6512 53.4338 32.5661C47.3488 26.481 40.6592 22.1823 34.7786 20.1398C28.8669 18.0865 23.9214 18.3551 21.1381 21.1384C18.3548 23.9217 18.0862 28.8672 20.1395 34.7789ZM19.3301 35.0601C17.2474 29.0637 17.3856 23.679 20.5321 20.5324C23.6787 17.3859 29.0634 17.2477 35.0598 19.3304C41.0872 21.4239 47.8836 25.804 54.0398 31.9602C60.1959 38.1163 64.5761 44.9127 66.6696 50.9402C68.7523 56.9365 68.6141 62.3212 65.4675 65.4678C62.3209 68.6144 56.9362 68.7526 50.9399 66.6699C44.9124 64.5764 38.116 60.1962 31.9599 54.0401C25.8037 47.8839 21.4236 41.0876 19.3301 35.0601Z" fill="black"/>
<path d="M50.8324 41.3549V45.8452C50.8324 47.6618 47.319 49.1186 43.0002 49.1186C38.6813 49.1186 35.168 47.6447 35.168 45.8452V41.3549C35.168 43.1716 38.6813 44.6283 43.0002 44.6283C47.319 44.6455 50.8324 43.1716 50.8324 41.3549Z" fill="#E6E7E8"/>
<path fill-rule="evenodd" clip-rule="evenodd" d="M35.1667 40.9263C35.4034 40.9263 35.5952 41.1182 35.5952 41.3548C35.5952 41.6604 35.7411 41.9888 36.0843 42.3279C36.4292 42.6686 36.9501 42.9946 37.6281 43.2773C38.9824 43.8419 40.8818 44.1997 42.9989 44.1997L43.0006 44.1998C45.1167 44.2081 47.0155 43.8504 48.3692 43.2839C49.047 43.0003 49.568 42.6728 49.9131 42.3308C50.2566 41.9903 50.4027 41.6607 50.4027 41.3548C50.4027 41.1182 50.5945 40.9263 50.8311 40.9263C51.0678 40.9263 51.2596 41.1182 51.2596 41.3548V45.845C51.2596 46.4477 50.9663 46.9827 50.5158 47.4277C50.067 47.8711 49.4397 48.2498 48.6995 48.5584C47.2173 49.1764 45.2007 49.5469 42.9989 49.5469C40.7965 49.5469 38.7799 49.1719 37.2979 48.5518C36.5578 48.2422 35.9309 47.8629 35.4824 47.4208C35.0326 46.9773 34.7383 46.4445 34.7383 45.845V41.3548C34.7383 41.1182 34.9301 40.9263 35.1667 40.9263ZM35.5952 43.0445V45.845C35.5952 46.1453 35.7401 46.4715 36.084 46.8106C36.4292 47.1509 36.9505 47.4775 37.6287 47.7613C38.9831 48.328 40.8825 48.69 42.9989 48.69C45.1161 48.69 47.0155 48.3321 48.3697 47.7675C49.0478 47.4848 49.5687 47.1588 49.9136 46.8181C50.2568 46.479 50.4027 46.1507 50.4027 45.845V43.0472C49.9643 43.4459 49.3799 43.79 48.7 44.0744C47.2176 44.6947 45.2006 45.0653 42.9981 45.0567C40.7967 45.0566 38.7804 44.6861 37.2984 44.0682C36.6185 43.7847 36.0338 43.442 35.5952 43.0445Z" fill="black"/>
<path d="M50.8324 45.8452V50.3354C50.8324 52.152 47.319 53.6088 43.0002 53.6088C38.6813 53.6088 35.168 52.1349 35.168 50.3354V45.8452C35.168 47.6618 38.6813 49.1186 43.0002 49.1186C47.319 49.1357 50.8324 47.6618 50.8324 45.8452Z" fill="#BBBDBF"/>
<path fill-rule="evenodd" clip-rule="evenodd" d="M35.1667 45.4166C35.4034 45.4166 35.5952 45.6085 35.5952 45.8451C35.5952 46.1507 35.7411 46.4791 36.0843 46.8181C36.4292 47.1589 36.9501 47.4849 37.6281 47.7676C38.9824 48.3322 40.8818 48.69 42.9989 48.69L43.0006 48.69C45.1167 48.6984 47.0155 48.3407 48.3692 47.7742C49.047 47.4906 49.568 47.1631 49.9131 46.8211C50.2566 46.4806 50.4027 46.151 50.4027 45.8451C50.4027 45.6085 50.5945 45.4166 50.8311 45.4166C51.0678 45.4166 51.2596 45.6085 51.2596 45.8451V50.3353C51.2596 50.938 50.9663 51.473 50.5158 51.918C50.067 52.3613 49.4397 52.7401 48.6995 53.0487C47.2173 53.6667 45.2007 54.0372 42.9989 54.0372C40.7965 54.0372 38.7799 53.6622 37.2979 53.0421C36.5578 52.7324 35.9309 52.3532 35.4824 51.9111C35.0326 51.4676 34.7383 50.9348 34.7383 50.3353V45.8451C34.7383 45.6085 34.9301 45.4166 35.1667 45.4166ZM35.5952 47.5348V50.3353C35.5952 50.6356 35.7401 50.9618 36.084 51.3008C36.4292 51.6412 36.9505 51.9678 37.6287 52.2516C38.9831 52.8183 40.8825 53.1803 42.9989 53.1803C45.1161 53.1803 47.0155 52.8224 48.3697 52.2578C49.0478 51.9751 49.5687 51.6491 49.9136 51.3084C50.2568 50.9693 50.4027 50.641 50.4027 50.3353V47.5375C49.9643 47.9362 49.3799 48.2802 48.7 48.5647C47.2176 49.185 45.2006 49.5556 42.9981 49.547C40.7967 49.5469 38.7804 49.1764 37.2984 48.5585C36.6185 48.275 36.0338 47.9323 35.5952 47.5348Z" fill="black"/>
<path d="M43.0002 40.1382C47.3258 40.1382 50.8324 38.6726 50.8324 36.8648C50.8324 35.0569 47.3258 33.5914 43.0002 33.5914C38.6746 33.5914 35.168 35.0569 35.168 36.8648C35.168 38.6726 38.6746 40.1382 43.0002 40.1382Z" fill="#F7AEBC"/>
<path fill-rule="evenodd" clip-rule="evenodd" d="M36.0834 35.8952C35.7404 36.2341 35.5952 36.5614 35.5952 36.8646C35.5952 37.1678 35.7404 37.4951 36.0834 37.834C36.4279 38.1744 36.9484 38.5007 37.626 38.7839C38.9793 39.3496 40.8787 39.7096 42.9989 39.7096C45.1192 39.7096 47.0186 39.3496 48.3719 38.7839C49.0495 38.5007 49.57 38.1744 49.9145 37.834C50.2575 37.4951 50.4027 37.1678 50.4027 36.8646C50.4027 36.5614 50.2575 36.2341 49.9145 35.8952C49.57 35.5548 49.0495 35.2285 48.3719 34.9453C47.0186 34.3796 45.1192 34.0196 42.9989 34.0196C40.8787 34.0196 38.9793 34.3796 37.626 34.9453C36.9484 35.2285 36.4279 35.5548 36.0834 35.8952ZM37.2955 34.1546C38.7768 33.5355 40.7936 33.1627 42.9989 33.1627C45.2043 33.1627 47.221 33.5355 48.7024 34.1546C49.4421 34.4638 50.0687 34.8428 50.5168 35.2857C50.9665 35.73 51.2596 36.2639 51.2596 36.8646C51.2596 37.4653 50.9665 37.9992 50.5168 38.4435C50.0687 38.8863 49.4421 39.2654 48.7024 39.5746C47.221 40.1937 45.2043 40.5665 42.9989 40.5665C40.7936 40.5665 38.7768 40.1937 37.2955 39.5746C36.5558 39.2654 35.9292 38.8863 35.4811 38.4435C35.0314 37.9992 34.7383 37.4653 34.7383 36.8646C34.7383 36.2639 35.0314 35.73 35.4811 35.2857C35.9292 34.8428 36.5558 34.4638 37.2955 34.1546Z" fill="black"/>
<path d="M50.8324 36.8646V41.3549C50.8324 43.1715 47.319 44.6283 43.0002 44.6283C38.6813 44.6283 35.168 43.1544 35.168 41.3549V36.8646C35.168 38.6813 38.6813 40.138 43.0002 40.138C47.319 40.1552 50.8324 38.6813 50.8324 36.8646Z" fill="#88C1D7"/>
<path fill-rule="evenodd" clip-rule="evenodd" d="M35.1667 36.436C35.4034 36.436 35.5952 36.6279 35.5952 36.8645C35.5952 37.1701 35.7411 37.4985 36.0843 37.8376C36.4292 38.1783 36.9501 38.5043 37.6281 38.787C38.9824 39.3516 40.8818 39.7095 42.9989 39.7095L43.0006 39.7095C45.1167 39.7179 47.0155 39.3601 48.3692 38.7936C49.047 38.51 49.568 38.1825 49.9131 37.8405C50.2566 37.5 50.4027 37.1704 50.4027 36.8645C50.4027 36.6279 50.5945 36.436 50.8311 36.436C51.0678 36.436 51.2596 36.6279 51.2596 36.8645V41.3547C51.2596 41.9574 50.9663 42.4924 50.5158 42.9374C50.067 43.3808 49.4397 43.7596 48.6995 44.0681C47.2173 44.6861 45.2007 45.0566 42.9989 45.0566C40.7965 45.0566 38.7799 44.6816 37.2979 44.0615C36.5578 43.7519 35.9309 43.3726 35.4824 42.9305C35.0326 42.487 34.7383 41.9542 34.7383 41.3547V36.8645C34.7383 36.6279 34.9301 36.436 35.1667 36.436ZM35.5952 38.5542V41.3547C35.5952 41.6551 35.7401 41.9812 36.084 42.3203C36.4292 42.6606 36.9505 42.9872 37.6287 43.271C38.9831 43.8377 40.8825 44.1997 42.9989 44.1997C45.1161 44.1997 47.0155 43.8418 48.3697 43.2772C49.0478 42.9945 49.5687 42.6685 49.9136 42.3278C50.2568 41.9887 50.4027 41.6604 50.4027 41.3547V38.5569C49.9643 38.9556 49.3799 39.2997 48.7 39.5841C47.2176 40.2044 45.2006 40.575 42.9981 40.5664C40.7967 40.5663 38.7804 40.1958 37.2984 39.5779C36.6185 39.2944 36.0338 38.9517 35.5952 38.5542Z" fill="black"/>
</svg>
