<svg width="86" height="86" viewBox="0 0 86 86" fill="none" xmlns="http://www.w3.org/2000/svg">
<path d="M43 86C66.7482 86 86 66.7482 86 43C86 19.2518 66.7482 0 43 0C19.2518 0 0 19.2518 0 43C0 66.7482 19.2518 86 43 86Z" fill="#F0F8FF"/>
<path d="M69.7305 19.5529H16.2908V54.4086H69.7305V19.5529Z" fill="#E6E7E8"/>
<path fill-rule="evenodd" clip-rule="evenodd" d="M15.865 19.5532C15.865 19.3184 16.0553 19.1281 16.2901 19.1281H69.7298C69.9645 19.1281 70.1549 19.3184 70.1549 19.5532V54.4089C70.1549 54.6436 69.9645 54.8339 69.7298 54.8339H16.2901C16.0553 54.8339 15.865 54.6436 15.865 54.4089V19.5532ZM16.7152 19.9783V53.9838H69.3047V19.9783H16.7152Z" fill="black"/>
<path d="M47.6243 60.6828H38.3748L40.3131 54.3918H45.686L47.6243 60.6828Z" fill="white"/>
<path fill-rule="evenodd" clip-rule="evenodd" d="M39.9079 54.2668C39.9628 54.0885 40.1276 53.9669 40.3141 53.9669H45.687C45.8736 53.9669 46.0383 54.0885 46.0932 54.2668L48.0315 60.5579C48.0713 60.6868 48.0474 60.8269 47.9673 60.9355C47.8872 61.044 47.7602 61.1081 47.6253 61.1081H38.3758C38.2409 61.1081 38.114 61.044 38.0338 60.9355C37.9537 60.8269 37.9299 60.6868 37.9696 60.5579L39.9079 54.2668ZM40.628 54.8171L38.9516 60.2579H47.0496L45.3732 54.8171H40.628Z" fill="black"/>
<path d="M51.1813 63.2501H34.8076C34.0935 63.2501 33.5154 62.672 33.5154 61.9579C33.5154 61.2438 34.0935 60.6657 34.8076 60.6657H51.1813C51.8954 60.6657 52.4735 61.2438 52.4735 61.9579C52.4735 62.672 51.8954 63.2501 51.1813 63.2501Z" fill="white"/>
<path fill-rule="evenodd" clip-rule="evenodd" d="M34.805 61.0906C34.3256 61.0906 33.9378 61.4783 33.9378 61.9577C33.9378 62.4371 34.3256 62.8248 34.805 62.8248H51.1786C51.658 62.8248 52.0458 62.4371 52.0458 61.9577C52.0458 61.4783 51.658 61.0906 51.1786 61.0906H34.805ZM33.0877 61.9577C33.0877 61.0088 33.8561 60.2404 34.805 60.2404H51.1786C52.1275 60.2404 52.8959 61.0088 52.8959 61.9577C52.8959 62.9066 52.1275 63.675 51.1786 63.675H34.805C33.8561 63.675 33.0877 62.9066 33.0877 61.9577Z" fill="black"/>
<path fill-rule="evenodd" clip-rule="evenodd" d="M15.865 50.6173C15.865 50.3826 16.0553 50.1923 16.2901 50.1923H69.7128C69.9476 50.1923 70.1379 50.3826 70.1379 50.6173C70.1379 50.8521 69.9476 51.0424 69.7128 51.0424H16.2901C16.0553 51.0424 15.865 50.8521 15.865 50.6173Z" fill="black"/>
<path d="M57.8944 50.4126V53.2351H60.9209V50.4126C60.4279 50.4806 59.9178 50.5146 59.4077 50.5146C58.8976 50.5146 58.3875 50.4806 57.8944 50.4126Z" fill="#E6E7E8"/>
<path fill-rule="evenodd" clip-rule="evenodd" d="M57.6143 50.0921C57.7069 50.0114 57.83 49.9747 57.9517 49.9915C58.4247 50.0567 58.9154 50.0895 59.4069 50.0895C59.8983 50.0895 60.389 50.0567 60.862 49.9915C60.9837 49.9747 61.1068 50.0114 61.1994 50.0921C61.292 50.1728 61.3452 50.2897 61.3452 50.4126V53.235C61.3452 53.4698 61.1549 53.6601 60.9201 53.6601H57.8936C57.6588 53.6601 57.4685 53.4698 57.4685 53.235V50.4126C57.4685 50.2897 57.5217 50.1728 57.6143 50.0921ZM58.3187 50.8894V52.81H60.495V50.8894C60.1357 50.9229 59.7711 50.9396 59.4069 50.9396C59.0426 50.9396 58.678 50.9229 58.3187 50.8894Z" fill="black"/>
<path d="M57.7918 53.218C57.2647 53.218 56.8396 53.643 56.8396 54.1701V63.8787C56.8396 65.2899 57.9958 66.4461 59.407 66.4461C60.8183 66.4461 61.9745 65.2899 61.9745 63.8787V54.1701C61.9745 53.643 61.5494 53.218 61.0223 53.218H60.9203H57.8938H57.7918Z" fill="#88C1D7"/>
<path fill-rule="evenodd" clip-rule="evenodd" d="M56.4157 54.1704C56.4157 53.4086 57.0311 52.7932 57.793 52.7932H61.0235C61.7853 52.7932 62.4007 53.4086 62.4007 54.1704V63.879C62.4007 65.525 61.0542 66.8715 59.4082 66.8715C57.7622 66.8715 56.4157 65.525 56.4157 63.879V54.1704ZM57.793 53.6434C57.5006 53.6434 57.2659 53.8781 57.2659 54.1704V63.879C57.2659 65.0555 58.2318 66.0214 59.4082 66.0214C60.5847 66.0214 61.5506 65.0555 61.5506 63.879V54.1704C61.5506 53.8781 61.3158 53.6434 61.0235 53.6434H57.793Z" fill="black"/>
<path d="M59.4084 29.8903C53.7124 29.8903 49.0877 34.5151 49.0877 40.211C49.0877 45.3968 52.9133 49.6815 57.8951 50.4127C58.3882 50.4807 58.8983 50.5147 59.4084 50.5147C59.9184 50.5147 60.4285 50.4807 60.9216 50.4127C65.9034 49.6815 69.729 45.3968 69.729 40.211C69.712 34.5151 65.1043 29.8903 59.4084 29.8903Z" fill="#F7AEBC"/>
<path fill-rule="evenodd" clip-rule="evenodd" d="M48.6619 40.2113C48.6619 34.2806 53.477 29.4655 59.4076 29.4655C65.3395 29.4655 70.1357 34.2815 70.1534 40.21L70.1534 40.2113C70.1534 45.6115 66.1697 50.0722 60.9826 50.8335L60.979 50.834C60.4659 50.9048 59.9364 50.94 59.4076 50.94C58.8789 50.94 58.3494 50.9048 57.8363 50.834L57.8327 50.8335C52.6456 50.0722 48.6619 45.6115 48.6619 40.2113ZM59.4076 30.3157C53.9465 30.3157 49.512 34.7501 49.512 40.2113C49.512 45.1821 53.1786 49.2903 57.9542 49.9921C58.4267 50.0572 58.9168 50.0899 59.4076 50.0899C59.8985 50.0899 60.3885 50.0572 60.8611 49.9921C65.6364 49.2903 69.3029 45.1825 69.3033 40.2121C69.2867 34.749 64.8675 30.3157 59.4076 30.3157Z" fill="black"/>
<path d="M59.4077 47.59C63.4925 47.59 66.8039 44.2786 66.8039 40.1938C66.8039 36.1089 63.4925 32.7975 59.4077 32.7975C55.3229 32.7975 52.0115 36.1089 52.0115 40.1938C52.0115 44.2786 55.3229 47.59 59.4077 47.59Z" fill="white"/>
<path fill-rule="evenodd" clip-rule="evenodd" d="M59.407 33.2229C55.5569 33.2229 52.4359 36.344 52.4359 40.194C52.4359 44.0441 55.5569 47.1652 59.407 47.1652C63.257 47.1652 66.3781 44.0441 66.3781 40.194C66.3781 36.344 63.257 33.2229 59.407 33.2229ZM51.5857 40.194C51.5857 35.8744 55.0874 32.3727 59.407 32.3727C63.7266 32.3727 67.2283 35.8744 67.2283 40.194C67.2283 44.5136 63.7266 48.0153 59.407 48.0153C55.0874 48.0153 51.5857 44.5136 51.5857 40.194Z" fill="black"/>
<path d="M38.7493 27.0847H43L32.0332 38.2215L27.7995 34.736L20.6754 42.6423" fill="#E6E7E8"/>
<path fill-rule="evenodd" clip-rule="evenodd" d="M38.3235 27.085C38.3235 26.8502 38.5138 26.6599 38.7486 26.6599H42.9993C43.1706 26.6599 43.3252 26.7628 43.3914 26.9208C43.4575 27.0788 43.4224 27.2612 43.3022 27.3832L32.3354 38.52C32.1809 38.6769 31.9323 38.6899 31.7623 38.55L27.8425 35.3228L20.9904 42.9271C20.8333 43.1015 20.5645 43.1154 20.3901 42.9583C20.2157 42.8011 20.2017 42.5324 20.3589 42.358L27.483 34.4517C27.6352 34.2828 27.8934 34.2635 28.069 34.4081L32.0025 37.6465L41.9841 27.5101H38.7486C38.5138 27.5101 38.3235 27.3197 38.3235 27.085Z" fill="black"/>
<path fill-rule="evenodd" clip-rule="evenodd" d="M42.9987 26.6599C43.2335 26.6599 43.4238 26.8502 43.4238 27.085V31.2167C43.4238 31.4514 43.2335 31.6417 42.9987 31.6417C42.7639 31.6417 42.5736 31.4514 42.5736 31.2167V27.085C42.5736 26.8502 42.7639 26.6599 42.9987 26.6599Z" fill="black"/>
</svg>
