<svg width="86" height="86" viewBox="0 0 86 86" fill="none" xmlns="http://www.w3.org/2000/svg">
<path d="M43 86C66.7483 86 86 66.7483 86 43C86 19.2518 66.7483 0 43 0C19.2517 0 0 19.2518 0 43C0 66.7483 19.2517 86 43 86Z" fill="#F0F8FF"/>
<path d="M53.5646 21.1228H15.0842V59.6032H53.5646V21.1228Z" fill="#BBBDBF"/>
<path d="M53.5653 60.0235H15.09C14.9786 60.0235 14.8718 59.9792 14.793 59.9004C14.7142 59.8217 14.6699 59.7148 14.6699 59.6034V21.128C14.6699 21.0166 14.7142 20.9098 14.793 20.831C14.8718 20.7523 14.9786 20.708 15.09 20.708H53.5653C53.6767 20.708 53.7836 20.7523 53.8624 20.831C53.9411 20.9098 53.9854 21.0166 53.9854 21.128V59.6034C53.9854 59.7148 53.9411 59.8217 53.8624 59.9004C53.7836 59.9792 53.6767 60.0235 53.5653 60.0235ZM15.5033 59.1834H53.1386V21.5481H15.5033V59.1834Z" fill="black"/>
<path d="M22.1287 39.1978C21.9175 39.2091 21.7063 39.1776 21.5076 39.1051C21.309 39.0326 21.127 38.9207 20.9727 38.7761C19.5446 37.348 21.959 33.3996 24.9564 30.3955C27.9537 27.3914 31.9088 24.9838 33.337 26.4119C33.9939 27.0671 33.8897 28.297 33.0362 29.9688C32.2633 31.4809 30.9562 33.1896 29.3533 34.7925C26.9658 37.1799 23.9701 39.1978 22.1287 39.1978ZM32.1659 26.8286C31.7274 26.8286 31.0671 26.9966 30.1631 27.462C28.7317 28.1945 27.0935 29.4479 25.5511 30.9903C22.0884 34.4531 20.8971 37.5143 21.5675 38.183C22.2379 38.8517 25.2975 37.6622 28.7602 34.1994C30.3009 32.6587 31.5543 31.0205 32.2886 29.5874C33.0463 28.1055 33.0211 27.2839 32.7455 27.0067C32.5829 26.874 32.375 26.8101 32.1659 26.8286Z" fill="black"/>
<path d="M32.183 39.1976C30.3348 39.1976 27.3441 37.1815 24.9583 34.7923C21.9609 31.7949 19.5466 27.8398 20.9747 26.4117C22.4028 24.9836 26.3596 27.398 29.3553 30.3953C30.9582 31.9965 32.2653 33.7103 33.0382 35.219C33.8917 36.8891 33.9959 38.119 33.3389 38.7759C33.1849 38.9209 33.0029 39.033 32.8042 39.1055C32.6055 39.178 32.3941 39.2093 32.183 39.1976ZM22.134 26.8267C21.9292 26.8095 21.7258 26.8734 21.5678 27.0048C20.8957 27.6769 22.0886 30.7364 25.5514 34.1975C27.0938 35.7399 28.7319 36.9933 30.1634 37.7258C31.6453 38.4836 32.4669 38.4584 32.7441 38.1811C33.0214 37.9039 33.0449 37.0823 32.2871 35.6021C31.5546 34.1689 30.3012 32.5308 28.7588 30.9884C25.9093 28.1372 23.3303 26.8267 22.134 26.8267Z" fill="black"/>
<path d="M23.2796 45.9941H20.2285V55.7911H23.2796V45.9941Z" fill="#F7AEBC"/>
<path d="M23.2778 56.2112H20.2267C20.1153 56.2112 20.0084 56.167 19.9297 56.0882C19.8509 56.0094 19.8066 55.9026 19.8066 55.7912V45.9943C19.8066 45.8829 19.8509 45.776 19.9297 45.6972C20.0084 45.6185 20.1153 45.5742 20.2267 45.5742H23.2778C23.3892 45.5742 23.4961 45.6185 23.5748 45.6972C23.6536 45.776 23.6978 45.8829 23.6978 45.9943V55.7912C23.6978 55.9026 23.6536 56.0094 23.5748 56.0882C23.4961 56.167 23.3892 56.2112 23.2778 56.2112ZM20.6467 55.3712H22.8578V46.4143H20.6467V55.3712Z" fill="black"/>
<path d="M30.8461 49.4653H27.7949V55.7911H30.8461V49.4653Z" fill="#F7AEBC"/>
<path d="M30.8445 56.2108H27.795C27.6836 56.2108 27.5768 56.1665 27.498 56.0877C27.4192 56.009 27.375 55.9021 27.375 55.7907V49.465C27.375 49.3536 27.4192 49.2467 27.498 49.168C27.5768 49.0892 27.6836 49.0449 27.795 49.0449H30.8445C30.8997 49.0447 30.9544 49.0554 31.0055 49.0764C31.0565 49.0975 31.103 49.1284 31.142 49.1675C31.181 49.2065 31.212 49.2529 31.233 49.304C31.2541 49.355 31.2647 49.4097 31.2645 49.465V55.7907C31.2647 55.8459 31.2541 55.9007 31.233 55.9517C31.212 56.0028 31.181 56.0492 31.142 56.0882C31.103 56.1273 31.0565 56.1582 31.0055 56.1792C30.9544 56.2003 30.8997 56.211 30.8445 56.2108ZM28.2151 55.3707H30.4245V49.885H28.2151V55.3707Z" fill="black"/>
<path d="M38.4144 43.1396H35.3633V55.7912H38.4144V43.1396Z" fill="#F7AEBC"/>
<path d="M38.4109 56.2113H35.3614C35.25 56.2113 35.1432 56.1671 35.0644 56.0883C34.9857 56.0095 34.9414 55.9027 34.9414 55.7913V43.1398C34.9414 43.0284 34.9857 42.9215 35.0644 42.8428C35.1432 42.764 35.25 42.7197 35.3614 42.7197H38.4109C38.5223 42.7197 38.6291 42.764 38.7079 42.8428C38.7867 42.9215 38.8309 43.0284 38.8309 43.1398V55.7913C38.8309 55.9027 38.7867 56.0095 38.7079 56.0883C38.6291 56.1671 38.5223 56.2113 38.4109 56.2113ZM35.7815 55.3712H37.9959V43.5598H35.7865L35.7815 55.3712Z" fill="black"/>
<path d="M58.4678 49.4957C58.4678 50.773 58.0889 52.0217 57.3793 53.0838C56.6696 54.1459 55.6609 54.9737 54.4808 55.4625C53.3007 55.9514 52.0021 56.0793 50.7493 55.8301C49.4964 55.5809 48.3456 54.9657 47.4424 54.0625C46.5392 53.1593 45.9241 52.0085 45.6749 50.7557C45.4257 49.5028 45.5536 48.2042 46.0424 47.0241C46.5312 45.844 47.359 44.8353 48.4211 44.1256C49.4832 43.416 50.7319 43.0372 52.0092 43.0372C52.8585 43.0332 53.7001 43.1975 54.4855 43.5206C55.2709 43.8438 55.9845 44.3194 56.585 44.9199C57.1855 45.5204 57.6611 46.234 57.9843 47.0194C58.3074 47.8048 58.4718 48.6464 58.4678 49.4957Z" fill="white"/>
<path d="M52.009 56.3724C50.4039 56.3736 48.8487 55.8143 47.6121 54.7909C46.3754 53.7676 45.535 52.3445 45.2359 50.7674C44.9368 49.1904 45.1978 47.5584 45.9738 46.1533C46.7499 44.7482 47.9923 43.6583 49.4864 43.0717C50.9806 42.4851 52.6326 42.4387 54.1573 42.9405C55.682 43.4423 56.9836 44.4608 57.8373 45.8201C58.691 47.1794 59.0433 48.7942 58.8332 50.3855C58.6231 51.9768 57.8638 53.4449 56.6866 54.536C55.4163 55.7185 53.7445 56.3748 52.009 56.3724ZM52.009 43.4571C50.8152 43.4575 49.6483 43.8118 48.6558 44.4752C47.6634 45.1387 46.8899 46.0815 46.4332 47.1845C45.9765 48.2875 45.8571 49.5012 46.09 50.672C46.323 51.8429 46.8979 52.9184 47.7421 53.7625C48.5863 54.6067 49.6617 55.1816 50.8326 55.4146C52.0035 55.6476 53.2171 55.5282 54.3201 55.0715C55.4232 54.6148 56.366 53.8413 57.0294 52.8488C57.6929 51.8563 58.0472 50.6894 58.0475 49.4956C58.0449 47.8949 57.4078 46.3605 56.2759 45.2287C55.1441 44.0968 53.6097 43.4598 52.009 43.4571Z" fill="black"/>
<path d="M61.2327 63.9045V64.8756H42.8301V63.9045C42.8301 60.3375 44.7034 56.3438 47.6639 54.2705C48.8606 55.3594 50.4225 55.9594 52.0404 55.9516C53.6584 55.9438 55.2145 55.3289 56.4006 54.2285C57.2797 54.8431 58.055 55.5941 58.6974 56.453C60.3081 58.6068 61.1956 61.2153 61.2327 63.9045Z" fill="#88C1D7"/>
<path d="M61.2309 65.2953H42.8282C42.7168 65.2953 42.61 65.251 42.5312 65.1723C42.4524 65.0935 42.4082 64.9867 42.4082 64.8753V63.9041C42.4082 60.1003 44.4698 55.9974 47.4218 53.9257C47.5 53.8709 47.5945 53.8444 47.6898 53.8505C47.785 53.8566 47.8754 53.895 47.946 53.9593C49.0648 54.9776 50.5251 55.5388 52.0379 55.5316C53.5507 55.5244 55.0057 54.9495 56.1149 53.9207C56.1848 53.8556 56.2749 53.8163 56.3702 53.8092C56.4655 53.8022 56.5603 53.8279 56.639 53.8821C57.5544 54.5227 58.3615 55.3054 59.0299 56.2007C60.6918 58.429 61.609 61.1246 61.6509 63.9041V64.8753C61.6509 64.9867 61.6067 65.0935 61.5279 65.1723C61.4491 65.251 61.3423 65.2953 61.2309 65.2953ZM43.2533 64.4552H60.8159V63.9041C60.7762 61.3076 59.919 58.7896 58.3662 56.7081C57.8136 55.9754 57.1609 55.3239 56.4273 54.7725C55.1978 55.804 53.6462 56.3729 52.0414 56.3806C50.4365 56.3883 48.8795 55.8342 47.6402 54.8145C45.041 56.7921 43.2483 60.48 43.2483 63.9125L43.2533 64.4552Z" fill="black"/>
<path d="M66.8915 59.5225L70.9138 64.8754H60.0449L63.7497 59.5225" fill="#F7AEBC"/>
<path d="M70.9146 65.2958H60.0457C59.9692 65.2956 59.8943 65.2745 59.8289 65.2348C59.7635 65.195 59.7102 65.1382 59.6748 65.0704C59.6393 65.0027 59.6231 64.9265 59.6277 64.8501C59.6324 64.7738 59.6578 64.7002 59.7013 64.6372L63.406 59.2843C63.4695 59.1927 63.5668 59.1301 63.6765 59.1102C63.7861 59.0904 63.8991 59.1149 63.9907 59.1784C64.0823 59.2419 64.1449 59.3392 64.1648 59.4488C64.1846 59.5585 64.1601 59.6715 64.0966 59.7631L60.8472 64.4557H70.0728L66.5597 59.7765C66.5266 59.7324 66.5025 59.6822 66.4888 59.6288C66.4751 59.5753 66.4721 59.5197 66.4799 59.4651C66.4877 59.4105 66.5062 59.358 66.5343 59.3105C66.5624 59.263 66.5995 59.2216 66.6437 59.1885C66.6878 59.1554 66.738 59.1313 66.7915 59.1176C66.8449 59.1039 66.9005 59.1009 66.9551 59.1087C67.0097 59.1165 67.0622 59.135 67.1097 59.1631C67.1571 59.1912 67.1986 59.2284 67.2317 59.2725L71.254 64.6254C71.3008 64.6879 71.3293 64.7621 71.3363 64.8397C71.3433 64.9174 71.3285 64.9955 71.2936 65.0653C71.2588 65.1351 71.2052 65.1938 71.1388 65.2348C71.0724 65.2758 70.996 65.2975 70.918 65.2975L70.9146 65.2958Z" fill="black"/>
<path d="M66.8919 53.5176H63.75V59.5241H66.8919V53.5176Z" fill="white"/>
<path d="M66.8939 59.9426H63.7521C63.6407 59.9426 63.5338 59.8983 63.4551 59.8196C63.3763 59.7408 63.332 59.6339 63.332 59.5225V53.5177C63.3318 53.4625 63.3425 53.4078 63.3635 53.3567C63.3846 53.3056 63.4155 53.2592 63.4546 53.2202C63.4936 53.1811 63.54 53.1502 63.5911 53.1292C63.6421 53.1082 63.6968 53.0974 63.7521 53.0977H66.8939C66.9492 53.0974 67.0039 53.1082 67.0549 53.1292C67.106 53.1502 67.1524 53.1811 67.1915 53.2202C67.2305 53.2592 67.2614 53.3056 67.2825 53.3567C67.3035 53.4078 67.3142 53.4625 67.314 53.5177V59.5225C67.314 59.6339 67.2697 59.7408 67.191 59.8196C67.1122 59.8983 67.0053 59.9426 66.8939 59.9426ZM64.1721 59.1025H66.4739V53.9327H64.1721V59.1025Z" fill="black"/>
<path d="M66.896 55.7254H65.9652C65.8538 55.7254 65.7469 55.6812 65.6682 55.6024C65.5894 55.5237 65.5451 55.4168 65.5451 55.3054C65.5451 55.194 65.5894 55.0872 65.6682 55.0084C65.7469 54.9296 65.8538 54.8854 65.9652 54.8854H66.896C67.0074 54.8854 67.1142 54.9296 67.193 55.0084C67.2718 55.0872 67.316 55.194 67.316 55.3054C67.316 55.4168 67.2718 55.5237 67.193 55.6024C67.1142 55.6812 67.0074 55.7254 66.896 55.7254Z" fill="black"/>
<path d="M66.896 57.4409H65.9652C65.8538 57.4409 65.7469 57.3966 65.6682 57.3179C65.5894 57.2391 65.5451 57.1323 65.5451 57.0209C65.5451 56.9095 65.5894 56.8026 65.6682 56.7239C65.7469 56.6451 65.8538 56.6008 65.9652 56.6008H66.896C67.0074 56.6008 67.1142 56.6451 67.193 56.7239C67.2718 56.8026 67.316 56.9095 67.316 57.0209C67.316 57.1323 67.2718 57.2391 67.193 57.3179C67.1142 57.3966 67.0074 57.4409 66.896 57.4409Z" fill="black"/>
</svg>
