<svg width="86" height="86" viewBox="0 0 86 86" fill="none" xmlns="http://www.w3.org/2000/svg">
<path d="M43 86C66.7482 86 86 66.7482 86 43C86 19.2518 66.7482 0 43 0C19.2518 0 0 19.2518 0 43C0 66.7482 19.2518 86 43 86Z" fill="#F0F8FF"/>
<path d="M65.1496 22.2956C65.1496 23.3802 64.828 24.4405 64.2254 25.3423C63.6228 26.2442 62.7664 26.9471 61.7643 27.3621C60.7622 27.7772 59.6596 27.8858 58.5958 27.6742C57.532 27.4626 56.5548 26.9403 55.7879 26.1733C55.0209 25.4064 54.4986 24.4292 54.287 23.3654C54.0754 22.3017 54.184 21.199 54.5991 20.1969C55.0142 19.1949 55.7171 18.3384 56.6189 17.7358C57.5207 17.1332 58.581 16.8116 59.6656 16.8116C60.3866 16.8087 61.101 16.9486 61.7677 17.2231C62.4343 17.4977 63.04 17.9015 63.5499 18.4114C64.0597 18.9212 64.4635 19.5269 64.7381 20.1935C65.0126 20.8602 65.1525 21.5746 65.1496 22.2956Z" fill="white"/>
<path d="M59.6656 28.198C58.2902 28.198 56.9579 27.7178 55.8988 26.8403C54.8397 25.9628 54.1201 24.743 53.8644 23.3916C53.6087 22.0402 53.8328 20.6419 54.4982 19.4381C55.1635 18.2342 56.2282 17.3005 57.5086 16.798C58.7889 16.2955 60.2045 16.2558 61.511 16.6857C62.8175 17.1157 63.9329 17.9882 64.6646 19.1529C65.3964 20.3175 65.6986 21.701 65.519 23.0647C65.3395 24.4283 64.6895 25.6865 63.6812 26.622C62.5906 27.637 61.1555 28.2003 59.6656 28.198ZM59.6656 17.2316C58.6645 17.232 57.686 17.5291 56.8538 18.0855C56.0216 18.6419 55.373 19.4325 54.9901 20.3575C54.6071 21.2824 54.507 22.3001 54.7024 23.2819C54.8978 24.2638 55.3799 25.1656 56.0877 25.8735C56.7956 26.5814 57.6975 27.0635 58.6793 27.2589C59.6611 27.4542 60.6788 27.3541 61.6038 26.9712C62.5287 26.5882 63.3194 25.9397 63.8757 25.1074C64.4321 24.2752 64.7293 23.2967 64.7296 22.2956C64.7283 20.953 64.1943 19.6657 63.2449 18.7163C62.2955 17.7669 61.0083 17.233 59.6656 17.2316Z" fill="black"/>
<path d="M67.4947 34.5272V35.3538H51.8693V34.5272C51.8693 31.5029 53.4588 28.1124 55.9723 26.3482C56.9878 27.2743 58.3145 27.7847 59.6889 27.7782C61.0633 27.7717 62.3851 27.2486 63.3918 26.3129C64.1376 26.8356 64.7955 27.4737 65.3408 28.2031C66.7082 30.031 67.4621 32.2447 67.4947 34.5272Z" fill="#F7AEBC"/>
<path d="M67.4946 35.7738H51.8693C51.814 35.7741 51.7593 35.7633 51.7083 35.7423C51.6572 35.7213 51.6108 35.6904 51.5718 35.6513C51.5327 35.6123 51.5018 35.5659 51.4807 35.5148C51.4597 35.4637 51.449 35.409 51.4492 35.3538V34.5272C51.4492 31.2274 53.1697 27.8066 55.7319 26.0055C55.81 25.9503 55.9046 25.9236 56 25.9297C56.0953 25.9358 56.1857 25.9744 56.2561 26.0391C57.1941 26.8935 58.4189 27.3642 59.6877 27.358C60.9564 27.3518 62.1765 26.869 63.1061 26.0055C63.1758 25.9405 63.2655 25.9012 63.3605 25.8942C63.4556 25.8872 63.5501 25.9128 63.6286 25.9668C64.4123 26.5141 65.1032 27.1834 65.675 27.9494C67.0932 29.8525 67.8757 32.154 67.9113 34.5272V35.3538C67.9115 35.4087 67.9009 35.4632 67.8801 35.514C67.8593 35.5649 67.8287 35.6111 67.79 35.6501C67.7513 35.6891 67.7053 35.7201 67.6546 35.7413C67.6039 35.7626 67.5496 35.7736 67.4946 35.7738ZM52.2927 34.9338H67.078V34.5272C67.0445 32.3367 66.3214 30.2126 65.0114 28.4568C64.5581 27.8508 64.0238 27.3098 63.4236 26.8489C62.3743 27.7146 61.0581 28.1911 59.6978 28.1979C58.3375 28.2046 57.0166 27.7411 55.9588 26.8859C53.788 28.566 52.296 31.6508 52.296 34.5272L52.2927 34.9338Z" fill="black"/>
<path d="M31.3157 56.1286C31.3157 57.2132 30.994 58.2735 30.3914 59.1753C29.7888 60.0772 28.9324 60.7801 27.9303 61.1951C26.9282 61.6102 25.8256 61.7188 24.7618 61.5072C23.698 61.2956 22.7208 60.7733 21.9539 60.0063C21.1869 59.2394 20.6646 58.2622 20.453 57.1984C20.2414 56.1347 20.35 55.032 20.7651 54.0299C21.1802 53.0279 21.8831 52.1714 22.7849 51.5688C23.6868 50.9662 24.747 50.6446 25.8317 50.6446C26.5526 50.6419 27.2669 50.7819 27.9334 51.0566C28.6 51.3312 29.2056 51.7351 29.7154 52.2449C30.2251 52.7546 30.629 53.3602 30.9036 54.0268C31.1783 54.6933 31.3183 55.4077 31.3157 56.1286Z" fill="white"/>
<path d="M25.8324 62.0311C24.456 62.0318 23.1226 61.5519 22.0623 60.6742C21.0021 59.7966 20.2816 58.5762 20.0252 57.2239C19.7689 55.8716 19.9928 54.4722 20.6583 53.2674C21.3238 52.0626 22.3891 51.128 23.6703 50.625C24.9515 50.1219 26.3681 50.0821 27.6755 50.5122C28.983 50.9424 30.0992 51.8156 30.8314 52.981C31.5636 54.1465 31.8659 55.5311 31.686 56.8957C31.5062 58.2602 30.8555 59.5192 29.8463 60.4551C28.7556 61.4689 27.3214 62.032 25.8324 62.0311ZM25.8324 51.0648C24.8313 51.0651 23.8528 51.3623 23.0206 51.9186C22.1883 52.475 21.5398 53.2656 21.1568 54.1906C20.7739 55.1155 20.6738 56.1333 20.8691 57.1151C21.0645 58.0969 21.5466 58.9988 22.2545 59.7066C22.9624 60.4145 23.8642 60.8966 24.8461 61.092C25.8279 61.2874 26.8456 61.1873 27.7705 60.8043C28.6955 60.4214 29.4861 59.7728 30.0425 58.9406C30.5989 58.1083 30.896 57.1298 30.8964 56.1287C30.8955 54.786 30.3617 53.4984 29.4122 52.549C28.4627 51.5995 27.1752 51.0657 25.8324 51.0648Z" fill="black"/>
<path d="M33.6684 68.3618V69.1867H18.043V68.3618C18.043 65.3375 19.6341 61.9453 22.1476 60.1828C23.1634 61.1077 24.4896 61.6174 25.8634 61.6108C27.2372 61.6043 28.5584 61.082 29.5655 60.1475C30.312 60.6693 30.97 61.3075 31.5144 62.0377C32.883 63.865 33.6371 66.079 33.6684 68.3618Z" fill="#88C1D7"/>
<path d="M33.6684 69.6068H18.0431C17.9317 69.6068 17.8248 69.5625 17.7461 69.4838C17.6673 69.405 17.623 69.2982 17.623 69.1868V68.3618C17.623 65.0603 19.3435 61.6412 21.9057 59.8384C21.9839 59.7836 22.0785 59.7571 22.1737 59.7632C22.269 59.7693 22.3594 59.8077 22.4299 59.872C23.3681 60.7259 24.5926 61.1965 25.8612 61.1906C27.1297 61.1847 28.3498 60.7027 29.2799 59.8401C29.3497 59.7747 29.4398 59.7352 29.5352 59.7282C29.6306 59.7212 29.7255 59.747 29.8041 59.8015C30.5876 60.3483 31.2781 61.0178 31.8488 61.784C33.2678 63.6868 34.0509 65.9885 34.0868 68.3618V69.1868C34.0868 69.2979 34.0428 69.4045 33.9644 69.4832C33.886 69.5619 33.7796 69.6064 33.6684 69.6068ZM18.4648 68.7667H33.2501V68.3618C33.2167 66.1714 32.4935 64.0473 31.1835 62.2914C30.7305 61.6847 30.1956 61.1435 29.5941 60.6835C28.5447 61.5486 27.2287 62.0246 25.8688 62.031C24.5088 62.0374 23.1884 61.5739 22.1309 60.7188C19.9601 62.399 18.4665 65.4837 18.4665 68.3618L18.4648 68.7667Z" fill="black"/>
<path d="M41.0029 56.7199L40.2905 53.8636C39.7285 53.7004 39.1863 53.475 38.6742 53.1916L36.154 54.7037L34.0824 52.6388L35.5945 50.1186C35.3108 49.6072 35.0854 49.0656 34.9225 48.504L32.0662 47.7916V44.8597L34.9225 44.1474C35.0857 43.5853 35.3111 43.0432 35.5945 42.5311L34.0824 40.0108L36.1557 37.9392L38.6759 39.4513C39.1879 39.1677 39.7301 38.9423 40.2922 38.7793L41.0063 35.923H43.9365L44.6488 38.7793C45.2111 38.942 45.7533 39.1674 46.2651 39.4513L48.7854 37.9392L50.857 40.0108L49.3448 42.5311C49.6289 43.0428 49.8544 43.585 50.0169 44.1474L52.8732 44.8597V47.7899L50.0169 48.5023C49.8547 49.0642 49.6292 49.6059 49.3448 50.1169L50.857 52.6371L48.7854 54.7104L46.2651 53.1983C45.753 53.4817 45.2109 53.7071 44.6488 53.8704C44.6488 53.8872 43.9365 56.7266 43.9365 56.7266L41.0029 56.7199Z" fill="#BBBDBF"/>
<path d="M43.9327 57.14H41.0025C40.9086 57.1401 40.8173 57.1088 40.7433 57.0509C40.6693 56.993 40.6168 56.912 40.5943 56.8208L39.939 54.2015C39.5071 54.0638 39.0873 53.8907 38.6839 53.684L36.3704 55.0718C36.2902 55.1203 36.196 55.1404 36.1031 55.1288C36.0101 55.1172 35.9237 55.0746 35.8579 55.0079L33.7863 52.9363C33.7196 52.8705 33.677 52.7841 33.6654 52.6912C33.6538 52.5982 33.6739 52.504 33.7225 52.4239L35.1103 50.1103C34.9039 49.7065 34.7303 49.2868 34.5911 48.8552L31.9734 48.2C31.8822 48.1774 31.8012 48.1249 31.7433 48.0509C31.6855 47.9769 31.6541 47.8856 31.6542 47.7917V44.8598C31.6545 44.7662 31.686 44.6753 31.7439 44.6016C31.8017 44.5279 31.8825 44.4757 31.9734 44.4532L34.5911 43.798C34.7297 43.3662 34.9033 42.9464 35.1103 42.5429L33.7225 40.2293C33.676 40.1501 33.6571 40.0576 33.6687 39.9665C33.6802 39.8753 33.7216 39.7905 33.7863 39.7253L35.8529 37.6453C35.9192 37.5794 36.0056 37.5375 36.0984 37.5262C36.1913 37.5149 36.2852 37.535 36.3653 37.5831L38.6839 38.9793C39.0873 38.7721 39.5071 38.5985 39.939 38.4602L40.5943 35.8408C40.6171 35.7499 40.6697 35.6693 40.7437 35.6117C40.8177 35.5542 40.9088 35.523 41.0025 35.5233H43.9327C44.0262 35.5234 44.1169 35.5547 44.1905 35.6123C44.2641 35.6698 44.3165 35.7502 44.3393 35.8408L44.9946 38.4602C45.4265 38.5985 45.8462 38.7721 46.2496 38.9793L48.5632 37.5915C48.6433 37.5431 48.7373 37.5229 48.8302 37.5341C48.9231 37.5454 49.0095 37.5875 49.0756 37.6537L51.1422 39.7186C51.2062 39.7843 51.2469 39.8691 51.2581 39.9601C51.2693 40.0512 51.2505 40.1433 51.2044 40.2226L49.8166 42.5362C50.024 42.9395 50.1976 43.3593 50.3358 43.7913L52.9551 44.4465C53.0457 44.4693 53.1261 44.5217 53.1837 44.5953C53.2412 44.669 53.2725 44.7597 53.2727 44.8531V47.7833C53.2729 47.877 53.2417 47.9681 53.1842 48.0421C53.1266 48.1161 53.046 48.1687 52.9551 48.1916L50.3358 48.8468C50.1973 49.2787 50.0237 49.6984 49.8166 50.1019L51.2044 52.4155C51.2525 52.4956 51.2726 52.5895 51.2613 52.6824C51.2501 52.7752 51.2081 52.8616 51.1422 52.9279L49.0756 55.0079C49.0099 55.0746 48.9235 55.1172 48.8305 55.1288C48.7375 55.1404 48.6434 55.1203 48.5632 55.0718L46.2496 53.684C45.8462 53.8905 45.4264 54.0636 44.9946 54.2015L44.3393 56.8208C44.3168 56.9117 44.2646 56.9925 44.1909 57.0504C44.1173 57.1082 44.0264 57.1398 43.9327 57.14ZM41.3302 56.3H43.6034C43.7882 55.564 44.2284 53.8049 44.2368 53.7697C44.2388 53.7583 44.2416 53.747 44.2452 53.736C44.2678 53.6701 44.3063 53.6108 44.3573 53.5633C44.4083 53.5158 44.4702 53.4817 44.5376 53.4639C45.0631 53.3097 45.5702 53.0984 46.0497 52.8338C46.0818 52.8169 46.1156 52.8034 46.1505 52.7935C46.2592 52.7671 46.3739 52.7846 46.4697 52.8422L48.706 54.1863L50.3139 52.5784L48.9698 50.3422C48.9331 50.2782 48.9138 50.2058 48.9138 50.1321C48.9138 50.0584 48.9331 49.986 48.9698 49.9221C49.2369 49.4377 49.4488 48.9249 49.6015 48.3932C49.6093 48.3684 49.6188 48.3443 49.6301 48.3209C49.6577 48.2667 49.6965 48.2191 49.7441 48.1811C49.7916 48.1431 49.8467 48.1158 49.9056 48.1008L52.4359 47.4674V45.1959L49.9056 44.5641C49.8034 44.5388 49.7146 44.4758 49.657 44.3877C49.6319 44.3526 49.6131 44.3134 49.6015 44.2718C49.4491 43.74 49.2371 43.2271 48.9698 42.7428C48.9383 42.6821 48.9218 42.6147 48.9218 42.5463C48.9218 42.4778 48.9383 42.4104 48.9698 42.3497L48.9849 42.3211L50.329 40.0865L48.7211 38.4786L46.4865 39.8228C46.4212 39.8615 46.3466 39.8819 46.2706 39.8819C46.1947 39.8819 46.1201 39.8615 46.0547 39.8228C45.5754 39.5591 45.0682 39.3495 44.5426 39.1977H44.5258C44.4587 39.1752 44.3983 39.1361 44.3501 39.0842C44.302 39.0322 44.2677 38.969 44.2503 38.9004L43.6169 36.3701H41.3302C41.1453 37.1076 40.7035 38.8768 40.6968 38.9004C40.69 38.9239 40.6968 38.9222 40.6884 38.9323C40.6655 38.9998 40.6259 39.0605 40.5734 39.1086C40.5208 39.1568 40.4569 39.1909 40.3876 39.2078C39.8621 39.3607 39.355 39.5708 38.8755 39.8345L38.8604 39.8429C38.7971 39.8749 38.7268 39.8903 38.6559 39.8876C38.5851 39.885 38.5161 39.8644 38.4554 39.8278L36.2192 38.4837L34.6113 40.0916L35.9554 42.3262L35.9722 42.3547C36.0024 42.4161 36.0174 42.4839 36.016 42.5523C36.0145 42.6208 35.9966 42.6878 35.9638 42.7479C35.6964 43.2322 35.4845 43.7451 35.332 44.2768V44.2936C35.3092 44.3606 35.2701 44.4209 35.2182 44.469C35.1662 44.5171 35.1032 44.5515 35.0347 44.5692L32.4926 45.1959V47.4641L35.0246 48.0975C35.0984 48.1161 35.1658 48.1544 35.2196 48.2082C35.2735 48.262 35.3117 48.3294 35.3304 48.4033C35.4829 48.9291 35.6937 49.4363 35.9587 49.9154C35.9954 49.9793 36.0148 50.0517 36.0148 50.1254C36.0148 50.1991 35.9954 50.2715 35.9587 50.3354L34.6146 52.5717L36.2225 54.1796L38.4588 52.8355C38.5547 52.7779 38.6693 52.7604 38.778 52.7868C38.8129 52.7967 38.8467 52.8102 38.8788 52.8271C39.3634 53.0939 39.8762 53.3058 40.4078 53.4588C40.4735 53.478 40.5337 53.5127 40.5831 53.5601C40.6326 53.6075 40.6698 53.6661 40.6917 53.731C40.6953 53.7409 40.6981 53.751 40.7001 53.7613L41.3302 56.3Z" fill="black"/>
<path d="M42.4678 50.6362C44.8479 50.6362 46.7774 48.7068 46.7774 46.3267C46.7774 43.9466 44.8479 42.0171 42.4678 42.0171C40.0877 42.0171 38.1582 43.9466 38.1582 46.3267C38.1582 48.7068 40.0877 50.6362 42.4678 50.6362Z" fill="#F7AEBC"/>
<path d="M42.468 51.0563C41.5326 51.0563 40.6182 50.7789 39.8404 50.2592C39.0626 49.7395 38.4564 49.0008 38.0984 48.1366C37.7405 47.2724 37.6468 46.3214 37.8293 45.404C38.0118 44.4865 38.4622 43.6438 39.1237 42.9823C39.7851 42.3209 40.6279 41.8704 41.5453 41.6879C42.4628 41.5054 43.4137 41.5991 44.278 41.9571C45.1422 42.315 45.8809 42.9212 46.4006 43.699C46.9203 44.4768 47.1976 45.3912 47.1976 46.3267C47.1963 47.5806 46.6976 48.7828 45.8109 49.6695C44.9242 50.5562 43.722 51.0549 42.468 51.0563ZM42.468 42.4371C41.6987 42.4371 40.9467 42.6652 40.3071 43.0926C39.6675 43.52 39.1689 44.1275 38.8746 44.8382C38.5802 45.5489 38.5031 46.331 38.6532 47.0855C38.8033 47.84 39.1737 48.533 39.7177 49.077C40.2617 49.6209 40.9547 49.9914 41.7092 50.1415C42.4637 50.2915 43.2458 50.2145 43.9565 49.9201C44.6672 49.6257 45.2747 49.1272 45.7021 48.4876C46.1294 47.8479 46.3576 47.0959 46.3576 46.3267C46.3562 45.2955 45.946 44.307 45.2169 43.5778C44.4877 42.8487 43.4992 42.4385 42.468 42.4371Z" fill="black"/>
<path d="M24.8048 36.8302C24.6934 36.8302 24.5866 36.786 24.5078 36.7072C24.429 36.6284 24.3848 36.5216 24.3848 36.4102V28.7302C24.3843 27.8268 24.7423 26.9602 25.3802 26.3204C26.018 25.6806 26.8837 25.3201 27.7871 25.3179H44.854C44.9654 25.3179 45.0722 25.3621 45.151 25.4409C45.2298 25.5197 45.274 25.6265 45.274 25.7379C45.274 25.8493 45.2298 25.9561 45.151 26.0349C45.0722 26.1137 44.9654 26.1579 44.854 26.1579H27.7871C27.1063 26.1597 26.4541 26.4316 25.9737 26.9139C25.4933 27.3962 25.2239 28.0495 25.2248 28.7302V36.4169C25.2231 36.5272 25.178 36.6323 25.0995 36.7096C25.0209 36.7869 24.915 36.8303 24.8048 36.8302Z" fill="black"/>
<path d="M24.8064 36.8306C24.7011 36.831 24.5996 36.7913 24.5225 36.7197L21.4629 33.8987C21.3862 33.822 21.3421 33.7185 21.3399 33.61C21.3378 33.5015 21.3777 33.3964 21.4513 33.3167C21.525 33.2369 21.6266 33.1888 21.7349 33.1824C21.8433 33.1759 21.9499 33.2117 22.0325 33.2821L24.8131 35.846L27.5887 33.4081C27.6725 33.3346 27.782 33.2974 27.8933 33.3046C28.0045 33.3119 28.1083 33.363 28.1818 33.4468C28.2553 33.5305 28.2926 33.6401 28.2853 33.7513C28.2781 33.8625 28.2269 33.9663 28.1432 34.0399L25.0836 36.7281C25.007 36.7953 24.9083 36.8318 24.8064 36.8306Z" fill="black"/>
<path d="M61.9192 62.5368H44.8557C44.7443 62.5368 44.6374 62.4926 44.5587 62.4138C44.4799 62.335 44.4356 62.2282 44.4356 62.1168C44.4356 62.0054 44.4799 61.8986 44.5587 61.8198C44.6374 61.741 44.7443 61.6968 44.8557 61.6968H61.9192C62.5994 61.6959 63.2515 61.4253 63.7324 60.9443C64.2133 60.4634 64.4839 59.8113 64.4848 59.1312V51.4445C64.4848 51.3331 64.5291 51.2263 64.6079 51.1475C64.6866 51.0687 64.7935 51.0245 64.9049 51.0245C65.0163 51.0245 65.1231 51.0687 65.2019 51.1475C65.2806 51.2263 65.3249 51.3331 65.3249 51.4445V59.1312C65.3236 60.034 64.9643 60.8995 64.3259 61.5379C63.6875 62.1763 62.8221 62.5355 61.9192 62.5368Z" fill="black"/>
<path d="M67.9635 54.6855C67.858 54.6855 67.7564 54.6452 67.6795 54.573L64.8989 52.0091L62.1233 54.447C62.0818 54.4834 62.0336 54.5112 61.9813 54.529C61.9291 54.5468 61.8738 54.5541 61.8187 54.5505C61.7075 54.5432 61.6037 54.4921 61.5302 54.4083C61.4567 54.3245 61.4194 54.215 61.4267 54.1038C61.4339 53.9925 61.4851 53.8888 61.5688 53.8152L64.6284 51.127C64.7055 51.0578 64.8054 51.0195 64.909 51.0195C65.0126 51.0195 65.1125 51.0578 65.1895 51.127L68.2491 53.948C68.3308 54.0235 68.3791 54.1284 68.3836 54.2396C68.388 54.3508 68.3481 54.4592 68.2726 54.5411C68.2343 54.5857 68.1869 54.6216 68.1336 54.6465C68.0803 54.6715 68.0223 54.6848 67.9635 54.6855Z" fill="black"/>
</svg>
