<svg width="86" height="86" viewBox="0 0 86 86" fill="none" xmlns="http://www.w3.org/2000/svg">
<path d="M43 86C66.7482 86 86 66.7482 86 43C86 19.2518 66.7482 0 43 0C19.2518 0 0 19.2518 0 43C0 66.7482 19.2518 86 43 86Z" fill="#F0F8FF"/>
<path d="M31.014 30.1665H28.8102C28.2886 30.1665 27.8008 30.2674 27.3634 30.4525C26.9091 30.6376 26.4886 30.9235 26.1521 31.26C25.4792 31.9498 25.0586 32.8919 25.0586 33.9181C25.0586 35.9873 26.7409 37.6865 28.827 37.6865H31.014" fill="#F7AEBC"/>
<path fill-rule="evenodd" clip-rule="evenodd" d="M27.2027 30.0642C27.6927 29.8573 28.2356 29.7461 28.8108 29.7461H31.0146C31.2469 29.7461 31.4352 29.9344 31.4352 30.1667C31.4352 30.399 31.2469 30.5873 31.0146 30.5873H28.8108C28.344 30.5873 27.912 30.6775 27.5279 30.84L27.5227 30.8422C27.1234 31.0048 26.7502 31.258 26.452 31.5557C25.8518 32.1719 25.4798 33.0096 25.4798 33.9182C25.4798 35.7564 26.9751 37.266 28.8276 37.266H31.0146C31.2469 37.266 31.4352 37.4543 31.4352 37.6866C31.4352 37.9189 31.2469 38.1072 31.0146 38.1072H28.8276C26.5081 38.1072 24.6387 36.2185 24.6387 33.9182C24.6387 32.7754 25.1071 31.7297 25.8517 30.9665L25.8554 30.9628C26.2291 30.5891 26.6954 30.2714 27.2027 30.0642Z" fill="black"/>
<path d="M55.1887 37.6865H57.3757C58.4187 37.6865 59.3608 37.2659 60.0338 36.593C60.7067 35.9032 61.1273 34.9611 61.1273 33.9349C61.1273 32.3703 60.1684 31.0245 58.8225 30.4525C58.3851 30.2674 57.8804 30.1665 57.3757 30.1665H55.1719" fill="#F7AEBC"/>
<path fill-rule="evenodd" clip-rule="evenodd" d="M54.752 30.1667C54.752 29.9344 54.9403 29.7461 55.1725 29.7461H57.3764C57.9348 29.7461 58.4955 29.8574 58.987 30.0653L58.9877 30.0656C60.4826 30.7009 61.5485 32.1952 61.5485 33.9351C61.5485 35.0779 61.0801 36.1236 60.3355 36.8868L60.3318 36.8905C59.5824 37.64 58.5342 38.1072 57.3764 38.1072H55.1894C54.9571 38.1072 54.7688 37.9189 54.7688 37.6866C54.7688 37.4543 54.9571 37.266 55.1894 37.266H57.3764C58.3036 37.266 59.1389 36.8929 59.7352 36.2976C60.3354 35.6814 60.7074 34.8437 60.7074 33.9351C60.7074 32.546 59.8556 31.3486 58.659 30.8399C58.2758 30.6778 57.8272 30.5873 57.3764 30.5873H55.1725C54.9403 30.5873 54.752 30.399 54.752 30.1667Z" fill="black"/>
<path d="M43.0939 49.8329C36.4151 49.8329 30.998 44.4158 30.998 37.737V30.6881C30.998 24.0093 36.4151 18.5923 43.0939 18.5923C49.7727 18.5923 55.1897 24.0093 55.1897 30.6881V37.737C55.1897 44.4158 49.7727 49.8329 43.0939 49.8329Z" fill="#E6E7E8"/>
<path fill-rule="evenodd" clip-rule="evenodd" d="M43.0946 19.013C36.648 19.013 31.4193 24.2418 31.4193 30.6883V37.7372C31.4193 44.1837 36.648 49.4125 43.0946 49.4125C49.5411 49.4125 54.7698 44.1837 54.7698 37.7372V30.6883C54.7698 24.2418 49.5411 19.013 43.0946 19.013ZM30.5781 30.6883C30.5781 23.7772 36.1835 18.1719 43.0946 18.1719C50.0056 18.1719 55.611 23.7772 55.611 30.6883V37.7372C55.611 44.6483 50.0056 50.2536 43.0946 50.2536C36.1835 50.2536 30.5781 44.6483 30.5781 37.7372V30.6883Z" fill="black"/>
<path fill-rule="evenodd" clip-rule="evenodd" d="M43.0938 14.807C34.6456 14.807 27.7847 21.6673 27.7847 30.1329V30.4525C27.7847 30.6848 27.5964 30.8731 27.3642 30.8731C27.1319 30.8731 26.9436 30.6848 26.9436 30.4525V30.1329C26.9436 21.2033 34.1805 13.9658 43.0938 13.9658C47.5494 13.9658 51.5924 15.7624 54.5121 18.6993C57.4304 21.618 59.244 25.66 59.244 30.1329V30.4525C59.244 30.6848 59.0557 30.8731 58.8235 30.8731C58.5912 30.8731 58.4029 30.6848 58.4029 30.4525V30.1329C58.4029 25.8917 56.684 22.0608 53.9165 19.2933L53.9156 19.2925C51.1491 16.5096 47.3189 14.807 43.0938 14.807Z" fill="black"/>
<path d="M43.5978 45.7619C44.4618 45.7619 45.1623 45.0614 45.1623 44.1974C45.1623 43.3333 44.4618 42.6328 43.5978 42.6328C42.7337 42.6328 42.0332 43.3333 42.0332 44.1974C42.0332 45.0614 42.7337 45.7619 43.5978 45.7619Z" fill="#F7AEBC"/>
<path fill-rule="evenodd" clip-rule="evenodd" d="M43.5984 43.0531C42.9666 43.0531 42.4544 43.5652 42.4544 44.197C42.4544 44.8288 42.9666 45.341 43.5984 45.341C44.2302 45.341 44.7424 44.8288 44.7424 44.197C44.7424 43.5652 44.2302 43.0531 43.5984 43.0531ZM41.6133 44.197C41.6133 43.1007 42.5021 42.2119 43.5984 42.2119C44.6948 42.2119 45.5835 43.1007 45.5835 44.197C45.5835 45.2934 44.6948 46.1822 43.5984 46.1822C42.5021 46.1822 41.6133 45.2934 41.6133 44.197Z" fill="black"/>
<path d="M45.1797 44.1969H47.2489C51.0846 44.1969 54.4156 41.5052 55.2063 37.7368" fill="#E6E7E8"/>
<path fill-rule="evenodd" clip-rule="evenodd" d="M55.2914 37.3255C55.5187 37.3732 55.6643 37.5961 55.6166 37.8234C54.785 41.7871 51.2818 44.6177 47.2476 44.6177H45.1784C44.9461 44.6177 44.7578 44.4294 44.7578 44.1972C44.7578 43.9649 44.9461 43.7766 45.1784 43.7766H47.2476C50.8849 43.7766 54.0437 41.2238 54.7934 37.6507C54.8411 37.4234 55.064 37.2778 55.2914 37.3255Z" fill="black"/>
<path d="M70.3328 72.1573H15.8594C18.6688 64.0149 25.1458 57.5884 33.3386 54.8799C35.5425 57.8744 39.0922 59.8259 43.0961 59.8259C47.1 59.8259 50.6497 57.8744 52.8535 54.8799C61.0296 57.5884 67.5233 64.0149 70.3328 72.1573Z" fill="#88C1D7"/>
<path fill-rule="evenodd" clip-rule="evenodd" d="M52.5135 54.6303C52.6214 54.4836 52.8116 54.4231 52.9845 54.4803C61.2853 57.2302 67.8769 63.7538 70.7291 72.0198C70.7734 72.1483 70.7529 72.2904 70.674 72.4011C70.595 72.5118 70.4674 72.5776 70.3315 72.5776H15.8581C15.7221 72.5776 15.5945 72.5118 15.5156 72.4011C15.4367 72.2904 15.4162 72.1483 15.4605 72.0198C18.3125 63.7541 24.8872 57.2302 33.2053 54.4803C33.3782 54.4231 33.5682 54.4837 33.6761 54.6303C35.8044 57.5223 39.2308 59.405 43.0948 59.405C46.9587 59.405 50.3851 57.5223 52.5135 54.6303ZM16.4549 71.7364H69.7346C66.9029 64.0763 60.7354 58.0319 53.0051 55.3751C50.7148 58.3326 47.1278 60.2462 43.0948 60.2462C39.0617 60.2462 35.4746 58.3325 33.1844 55.3749C25.4387 58.0315 19.2861 64.0758 16.4549 71.7364Z" fill="black"/>
</svg>
