<svg width="86" height="86" viewBox="0 0 86 86" fill="none" xmlns="http://www.w3.org/2000/svg">
<path d="M43 86C66.7483 86 86 66.7482 86 43C86 19.2518 66.7483 0 43 0C19.2518 0 0 19.2518 0 43C0 66.7482 19.2518 86 43 86Z" fill="#F0F8FF"/>
<path d="M67.9171 27.8921H18.084V60.7003H67.9171V27.8921Z" fill="#BBBDBF"/>
<path d="M67.9153 61.1202H18.0821C17.9707 61.1202 17.8639 61.0759 17.7851 60.9972C17.7064 60.9184 17.6621 60.8116 17.6621 60.7002V27.8903C17.6621 27.7789 17.7064 27.672 17.7851 27.5932C17.8639 27.5145 17.9707 27.4702 18.0821 27.4702H67.9153C68.0267 27.4702 68.1336 27.5145 68.2123 27.5932C68.2911 27.672 68.3353 27.7789 68.3353 27.8903V60.7002C68.3353 60.8116 68.2911 60.9184 68.2123 60.9972C68.1336 61.0759 68.0267 61.1202 67.9153 61.1202ZM18.5022 60.2801H67.502V28.312H18.5089L18.5022 60.2801Z" fill="black"/>
<path d="M12.3496 60.7007H73.6515V61.0367C73.6515 62.6409 73.0142 64.1793 71.8799 65.3137C70.7456 66.448 69.2071 67.0852 67.6029 67.0852H18.4049C16.8007 67.0852 15.2622 66.448 14.1279 65.3137C12.9936 64.1793 12.3563 62.6409 12.3563 61.0367V60.7007H12.3496Z" fill="#F7AEBC"/>
<path d="M67.5944 67.5099H18.403C16.6865 67.5082 15.0408 66.8256 13.8269 65.612C12.6129 64.3984 11.93 62.7529 11.9277 61.0363V60.7003C11.9277 60.5889 11.972 60.4821 12.0508 60.4033C12.1295 60.3245 12.2364 60.2803 12.3478 60.2803H73.6496C73.761 60.2803 73.8679 60.3245 73.9466 60.4033C74.0254 60.4821 74.0697 60.5889 74.0697 60.7003V61.0363C74.0674 62.7529 73.3844 64.3984 72.1705 65.612C70.9566 66.8256 69.3109 67.5082 67.5944 67.5099ZM12.7678 61.1254C12.7933 62.6036 13.3981 64.0127 14.452 65.0496C15.5058 66.0865 16.9246 66.6683 18.403 66.6699H67.5944C69.0727 66.6683 70.4912 66.0865 71.5448 65.0495C72.5984 64.0126 73.2028 62.6035 73.2279 61.1254H12.7678Z" fill="black"/>
<path d="M51.083 64.3161H34.9082C34.7968 64.3161 34.6899 64.2718 34.6112 64.1931C34.5324 64.1143 34.4882 64.0075 34.4882 63.896C34.4882 63.7846 34.5324 63.6778 34.6112 63.599C34.6899 63.5203 34.7968 63.476 34.9082 63.476H51.0762C51.1876 63.476 51.2945 63.5203 51.3733 63.599C51.452 63.6778 51.4963 63.7846 51.4963 63.896C51.4963 64.0075 51.452 64.1143 51.3733 64.1931C51.2945 64.2718 51.1876 64.3161 51.0762 64.3161H51.083Z" fill="black"/>
<path d="M44.2079 42.1715C44.2066 43.2798 43.8767 44.3629 43.2599 45.2838C42.6431 46.2047 41.7672 46.922 40.7428 47.3452C39.7184 47.7683 38.5916 47.8782 37.5047 47.6611C36.4179 47.4439 35.4198 46.9094 34.6367 46.1251C33.8535 45.3408 33.3205 44.3419 33.105 43.2547C32.8894 42.1675 33.0011 41.0409 33.4257 40.0171C33.8504 38.9934 34.5691 38.1185 35.4909 37.5031C36.4127 36.8877 37.4963 36.5594 38.6046 36.5598C39.3418 36.5576 40.0721 36.7012 40.7535 36.9826C41.4348 37.2639 42.0538 37.6773 42.5747 38.199C43.0955 38.7206 43.508 39.3402 43.7883 40.022C44.0686 40.7038 44.2112 41.4343 44.2079 42.1715Z" fill="white"/>
<path d="M38.605 48.1881C37.201 48.1886 35.8408 47.6989 34.7594 46.8035C33.6779 45.9081 32.9431 44.6632 32.6816 43.2837C32.4201 41.9043 32.6485 40.4768 33.3273 39.2478C34.0061 38.0187 35.0927 37.0653 36.3995 36.552C37.7064 36.0387 39.1514 35.9977 40.4852 36.4363C41.819 36.8748 42.9578 37.7652 43.7051 38.9539C44.4523 40.1425 44.7611 41.5548 44.5782 42.9468C44.3952 44.3389 43.7319 45.6234 42.7029 46.5786C41.5901 47.6148 40.1255 48.1901 38.605 48.1881ZM38.605 36.9799C37.5802 36.9799 36.5784 37.2837 35.7262 37.8528C34.874 38.422 34.2097 39.231 33.8171 40.1777C33.4246 41.1243 33.3214 42.166 33.5207 43.1712C33.72 44.1765 34.2129 45.1001 34.9369 45.8253C35.661 46.5505 36.5838 47.0448 37.5887 47.2458C38.5936 47.4467 39.6355 47.3453 40.5827 46.9542C41.53 46.5632 42.3401 45.9002 42.9106 45.0489C43.4812 44.1976 43.7866 43.1963 43.7883 42.1715C43.7887 40.7959 43.243 39.4764 42.2711 38.503C41.2992 37.5295 39.9806 36.9817 38.605 36.9799Z" fill="black"/>
<path d="M46.604 54.6667V55.5068H30.6426V54.6667C30.6426 51.5719 32.269 48.1141 34.8429 46.3063C35.8808 47.2527 37.2365 47.7744 38.6411 47.7678C40.0456 47.7613 41.3964 47.227 42.4254 46.271C43.1877 46.8051 43.8598 47.4573 44.4164 48.2032C45.81 50.0725 46.5758 52.3352 46.604 54.6667Z" fill="#88C1D7"/>
<path d="M46.606 55.9303H30.6446C30.5332 55.9303 30.4264 55.8861 30.3476 55.8073C30.2689 55.7285 30.2246 55.6217 30.2246 55.5103V54.6702C30.2246 51.2999 31.982 47.8018 34.593 45.9671C34.6712 45.9122 34.7657 45.8857 34.861 45.8918C34.9563 45.8979 35.0467 45.9363 35.1172 46.0007C36.0775 46.8754 37.3313 47.3574 38.6302 47.3512C39.9291 47.3449 41.1783 46.8509 42.1301 45.9671C42.1999 45.9017 42.29 45.8622 42.3854 45.8551C42.4808 45.8481 42.5757 45.874 42.6543 45.9284C43.4548 46.4866 44.16 47.1702 44.7428 47.953C46.1925 49.897 46.9921 52.2488 47.0278 54.6736V55.5137C47.0269 55.6248 46.982 55.731 46.903 55.8091C46.8239 55.8872 46.7172 55.9308 46.606 55.9303ZM31.058 55.0903H46.1793V54.6669C46.1464 52.4239 45.4068 50.2485 44.0657 48.4503C43.5999 47.8283 43.051 47.2731 42.4342 46.8004C41.3624 47.6867 40.0168 48.1747 38.6261 48.1814C37.2353 48.1881 35.885 47.7132 34.8047 46.8374C32.5819 48.5494 31.0512 51.7098 31.0512 54.6601L31.058 55.0903Z" fill="black"/>
<path d="M58.6606 20.7663V30.3012C58.6606 30.7921 58.4661 31.2631 58.1198 31.611C57.7734 31.9589 57.3033 32.1555 56.8124 32.1577H54.603L49.3442 38.9405C49.3195 38.9724 49.2856 38.9957 49.247 39.0074C49.2085 39.019 49.1672 39.0183 49.1291 39.0053C49.091 38.9923 49.0578 38.9678 49.0343 38.9351C49.0109 38.9024 48.9982 38.8632 48.998 38.8229V32.1577H29.1958C28.9524 32.1577 28.7114 32.1097 28.4866 32.0163C28.2619 31.9229 28.0577 31.786 27.886 31.6135C27.7143 31.441 27.5783 31.2362 27.4859 31.011C27.3935 30.7858 27.3466 30.5446 27.3477 30.3012V20.7647C27.3477 20.2745 27.5424 19.8044 27.889 19.4578C28.2356 19.1112 28.7057 18.9165 29.1958 18.9165H56.8023C57.2937 18.9165 57.7651 19.1111 58.1134 19.4578C58.4616 19.8045 58.6583 20.275 58.6606 20.7663Z" fill="#E6E7E8"/>
<path d="M49.1903 39.4362C49.1228 39.4359 49.0558 39.4245 48.992 39.4026C48.8709 39.3615 48.7658 39.2835 48.6913 39.1795C48.6169 39.0756 48.5769 38.9509 48.577 38.823V32.5779H29.1965C28.5929 32.5774 28.0141 32.3374 27.5872 31.9106C27.1604 31.4837 26.9204 30.9049 26.9199 30.3013V20.7648C26.9193 20.4653 26.9777 20.1686 27.0918 19.8917C27.2058 19.6149 27.3734 19.3632 27.5848 19.1511C27.7963 18.939 28.0475 18.7707 28.324 18.6558C28.6006 18.5409 28.8971 18.4817 29.1965 18.4814H56.803C57.4071 18.4819 57.9863 18.7221 58.4135 19.1492C58.8407 19.5764 59.0809 20.1556 59.0813 20.7597V30.2946C59.0804 30.8981 58.8403 31.4766 58.4135 31.9034C57.9868 32.3301 57.4082 32.5703 56.8047 32.5712H54.8003L49.6674 39.1909C49.6119 39.2655 49.54 39.3264 49.4573 39.3689C49.3746 39.4114 49.2833 39.4344 49.1903 39.4362ZM29.1965 19.3215C28.8155 19.3215 28.4502 19.4729 28.1808 19.7423C27.9114 20.0117 27.76 20.3771 27.76 20.758V30.2946C27.76 30.6755 27.9114 31.0409 28.1808 31.3103C28.4502 31.5797 28.8155 31.7311 29.1965 31.7311H48.9904C49.1018 31.7311 49.2086 31.7753 49.2874 31.8541C49.3661 31.9329 49.4104 32.0397 49.4104 32.1511V38.1526L54.2626 31.8941C54.302 31.8422 54.3528 31.8 54.4111 31.7709C54.4693 31.7418 54.5335 31.7264 54.5987 31.726H56.8081C56.9967 31.726 57.1835 31.6889 57.3578 31.6167C57.5321 31.5445 57.6904 31.4387 57.8238 31.3053C57.9572 31.1719 58.063 31.0135 58.1352 30.8393C58.2074 30.665 58.2446 30.4782 58.2446 30.2895V20.7664C58.2442 20.3851 58.0925 20.0196 57.8229 19.75C57.5532 19.4804 57.1877 19.3287 56.8064 19.3282L29.1965 19.3215Z" fill="black"/>
<path d="M53.1169 23.0466H32.8829C32.7715 23.0466 32.6647 23.0024 32.5859 22.9236C32.5072 22.8448 32.4629 22.738 32.4629 22.6266C32.4629 22.5152 32.5072 22.4083 32.5859 22.3296C32.6647 22.2508 32.7715 22.2065 32.8829 22.2065H53.1169C53.2283 22.2065 53.3352 22.2508 53.414 22.3296C53.4927 22.4083 53.537 22.5152 53.537 22.6266C53.537 22.738 53.4927 22.8448 53.414 22.9236C53.3352 23.0024 53.2283 23.0466 53.1169 23.0466Z" fill="black"/>
<path d="M53.1169 26.071H32.8829C32.7715 26.071 32.6647 26.0268 32.5859 25.948C32.5072 25.8692 32.4629 25.7624 32.4629 25.651C32.4629 25.5396 32.5072 25.4328 32.5859 25.354C32.6647 25.2752 32.7715 25.231 32.8829 25.231H53.1169C53.2283 25.231 53.3352 25.2752 53.414 25.354C53.4927 25.4328 53.537 25.5396 53.537 25.651C53.537 25.7624 53.4927 25.8692 53.414 25.948C53.3352 26.0268 53.2283 26.071 53.1169 26.071Z" fill="black"/>
<path d="M39.6875 29.095H32.8829C32.7715 29.095 32.6647 29.0507 32.5859 28.9719C32.5072 28.8932 32.4629 28.7863 32.4629 28.6749C32.4629 28.5635 32.5072 28.4567 32.5859 28.3779C32.6647 28.2991 32.7715 28.2549 32.8829 28.2549H39.6875C39.7989 28.2549 39.9058 28.2991 39.9845 28.3779C40.0633 28.4567 40.1076 28.5635 40.1076 28.6749C40.1076 28.7863 40.0633 28.8932 39.9845 28.9719C39.9058 29.0507 39.7989 29.095 39.6875 29.095Z" fill="black"/>
</svg>
