<svg width="86" height="86" viewBox="0 0 86 86" fill="none" xmlns="http://www.w3.org/2000/svg">
<path d="M43 86C66.7482 86 86 66.7482 86 43C86 19.2518 66.7482 0 43 0C19.2518 0 0 19.2518 0 43C0 66.7482 19.2518 86 43 86Z" fill="#F0F8FF"/>
<path d="M67.9171 23.3994H18.084V56.2076H67.9171V23.3994Z" fill="#E6E7E8"/>
<path d="M67.9155 56.621H18.084C17.9726 56.621 17.8658 56.5768 17.787 56.498C17.7083 56.4192 17.664 56.3124 17.664 56.201V23.3995C17.664 23.2881 17.7083 23.1812 17.787 23.1025C17.8658 23.0237 17.9726 22.9794 18.084 22.9794H67.9155C68.0269 22.9794 68.1338 23.0237 68.2125 23.1025C68.2913 23.1812 68.3356 23.2881 68.3356 23.3995V56.2077C68.3338 56.3179 68.2888 56.423 68.2102 56.5004C68.1316 56.5777 68.0258 56.621 67.9155 56.621ZM18.5041 55.7809H67.4955V23.8195H18.5041V55.7809Z" fill="black"/>
<path d="M41.5591 49.2384L41.0148 47.0626C40.9985 47.0004 40.9667 46.9434 40.9223 46.897C40.8779 46.8506 40.8224 46.8162 40.7611 46.7971C40.3742 46.6731 39.9983 46.5175 39.637 46.3317C39.5798 46.3022 39.5161 46.2877 39.4518 46.2894C39.3874 46.2912 39.3246 46.3092 39.2691 46.3418L37.347 47.4944C37.2752 47.5375 37.1909 47.5554 37.1078 47.545C37.0246 47.5346 36.9474 47.4967 36.8883 47.4373L35.3661 45.9151C35.3067 45.856 35.2687 45.7787 35.2584 45.6956C35.248 45.6124 35.2658 45.5282 35.309 45.4564L36.4599 43.5343C36.4932 43.4791 36.5117 43.4161 36.5135 43.3516C36.5152 43.2872 36.5002 43.2233 36.47 43.1663C36.2841 42.806 36.1289 42.4305 36.0062 42.044C35.9873 41.9821 35.9528 41.9262 35.906 41.8814C35.8592 41.8367 35.8018 41.8048 35.7391 41.7886L33.5633 41.2459C33.4823 41.2251 33.4105 41.178 33.3591 41.1121C33.3078 41.0461 33.2797 40.965 33.2794 40.8813V38.7274C33.2794 38.6437 33.3074 38.5624 33.3588 38.4964C33.4102 38.4304 33.4822 38.3834 33.5633 38.3628L35.7391 37.8184C35.8015 37.8023 35.8588 37.7705 35.9055 37.7262C35.9522 37.6818 35.9869 37.6262 36.0062 37.5647C36.1289 37.1777 36.2841 36.8017 36.47 36.4407C36.5002 36.3837 36.5152 36.3199 36.5135 36.2554C36.5117 36.1909 36.4932 36.128 36.4599 36.0728L35.3073 34.1524C35.2639 34.0806 35.2459 33.9963 35.2562 33.9131C35.2666 33.8299 35.3047 33.7526 35.3644 33.6937L36.8866 32.1698C36.9461 32.1111 37.0233 32.0737 37.1063 32.0634C37.1892 32.0531 37.2732 32.0704 37.3453 32.1127L39.2691 33.2669C39.3246 33.2995 39.3876 33.3174 39.452 33.3189C39.5164 33.3204 39.5801 33.3054 39.637 33.2753C39.9983 33.09 40.3742 32.9349 40.7611 32.8116C40.8225 32.7923 40.8781 32.7576 40.9225 32.7109C40.9669 32.6641 40.9986 32.6069 41.0148 32.5445L41.5591 30.3687C41.5797 30.2875 41.6267 30.2156 41.6927 30.1641C41.7587 30.1127 41.84 30.0848 41.9237 30.0847H44.0777C44.1611 30.0849 44.2422 30.1129 44.3079 30.1643C44.3737 30.2157 44.4204 30.2877 44.4406 30.3687L44.9849 32.5445C45.0011 32.6069 45.0328 32.6641 45.0772 32.7109C45.1216 32.7576 45.1772 32.7923 45.2386 32.8116C45.6256 32.9346 46.0016 33.0897 46.3627 33.2753C46.4196 33.3054 46.4833 33.3204 46.5477 33.3189C46.6121 33.3174 46.6751 33.2995 46.7306 33.2669L48.6527 32.1127C48.7247 32.0701 48.8088 32.0526 48.8918 32.0629C48.9748 32.0733 49.052 32.1109 49.1114 32.1698L50.6336 33.6937C50.6933 33.7526 50.7314 33.8299 50.7418 33.9131C50.7521 33.9963 50.7342 34.0806 50.6907 34.1524L49.5381 36.0728C49.5052 36.1282 49.4871 36.191 49.4853 36.2554C49.4835 36.3198 49.4982 36.3836 49.5281 36.4407C49.7139 36.8017 49.8691 37.1777 49.9918 37.5647C50.0111 37.6262 50.0458 37.6818 50.0925 37.7262C50.1393 37.7705 50.1965 37.8023 50.2589 37.8184L52.4347 38.3628C52.516 38.3831 52.5881 38.43 52.6396 38.4961C52.6911 38.5622 52.7189 38.6436 52.7187 38.7274V40.8813C52.7189 40.9651 52.6911 41.0465 52.6396 41.1126C52.5881 41.1787 52.516 41.2257 52.4347 41.2459L50.2589 41.7886C50.1963 41.8048 50.1388 41.8367 50.092 41.8814C50.0452 41.9262 50.0107 41.9821 49.9918 42.044C49.8691 42.4305 49.7139 42.806 49.5281 43.1663C49.4982 43.2235 49.4835 43.2872 49.4853 43.3516C49.4871 43.416 49.5052 43.4789 49.5381 43.5343L50.6907 45.4564C50.7339 45.5282 50.7517 45.6124 50.7413 45.6956C50.731 45.7787 50.693 45.856 50.6336 45.9151L49.1114 47.4373C49.0523 47.4967 48.975 47.5346 48.8919 47.545C48.8088 47.5554 48.7245 47.5375 48.6527 47.4944L46.7306 46.3418C46.6751 46.3092 46.6123 46.2912 46.5479 46.2894C46.4836 46.2877 46.4199 46.3022 46.3627 46.3317C46.0014 46.5175 45.6255 46.6731 45.2386 46.7971C45.1773 46.8162 45.1218 46.8506 45.0774 46.897C45.033 46.9434 45.0012 47.0004 44.9849 47.0626L44.4406 49.2384C44.4207 49.3197 44.3741 49.392 44.3084 49.4438C44.2426 49.4955 44.1614 49.5238 44.0777 49.524H41.9237C41.8398 49.5239 41.7583 49.4957 41.6923 49.4439C41.6262 49.3922 41.5794 49.3198 41.5591 49.2384Z" fill="#BBBDBF"/>
<path d="M44.0744 49.9439H41.9221C41.7444 49.944 41.5719 49.8847 41.4318 49.7754C41.2918 49.6661 41.1923 49.5131 41.1492 49.3408L40.6116 47.1902C40.2162 47.0631 39.8319 46.9041 39.4624 46.7147L37.5621 47.8538C37.4103 47.9457 37.232 47.9839 37.0559 47.9623C36.8798 47.9406 36.716 47.8604 36.591 47.7345L35.0671 46.2123C34.9413 46.0868 34.8612 45.9228 34.8396 45.7465C34.818 45.5702 34.8561 45.3917 34.9478 45.2395L36.0869 43.3409C35.8978 42.9707 35.7388 42.5858 35.6115 42.1901L33.4609 41.6524C33.289 41.6093 33.1364 41.51 33.0274 41.3703C32.9185 41.2306 32.8593 41.0584 32.8594 40.8812V38.7273C32.8589 38.5498 32.9179 38.3772 33.0269 38.2372C33.1359 38.0971 33.2887 37.9976 33.4609 37.9544L35.6115 37.4168C35.7385 37.0214 35.8975 36.6371 36.0869 36.2675L34.9461 34.3673C34.8545 34.2154 34.8165 34.0372 34.8381 33.8611C34.8598 33.6851 34.9398 33.5214 35.0654 33.3962L36.5893 31.8723C36.7145 31.7466 36.8782 31.6666 37.0543 31.645C37.2303 31.6234 37.4085 31.6614 37.5604 31.753L39.459 32.8921C39.8295 32.7036 40.2143 32.5446 40.6099 32.4166L41.1475 30.2677C41.1904 30.0952 41.2898 29.9421 41.4299 29.8328C41.57 29.7234 41.7427 29.6642 41.9204 29.6646H44.0727C44.2502 29.6641 44.4227 29.7231 44.5628 29.8321C44.7028 29.9411 44.8024 30.0939 44.8455 30.266L45.3832 32.4166C45.7786 32.5449 46.1634 32.7039 46.5341 32.8921L48.4327 31.753C48.5846 31.6614 48.7628 31.6234 48.9388 31.645C49.1149 31.6666 49.2786 31.7466 49.4038 31.8723L50.9277 33.3962C51.0533 33.5214 51.1333 33.6851 51.1549 33.8611C51.1766 34.0372 51.1385 34.2154 51.047 34.3673L49.9078 36.2675C50.0965 36.6374 50.2555 37.0217 50.3833 37.4168L52.5339 37.9544C52.7061 37.9976 52.8588 38.0971 52.9678 38.2372C53.0769 38.3772 53.1358 38.5498 53.1354 38.7273V40.8812C53.1355 41.0584 53.0763 41.2306 52.9673 41.3703C52.8583 41.51 52.7058 41.6093 52.5339 41.6524L50.3833 42.1901C50.2562 42.5859 50.0972 42.9708 49.9078 43.3409L51.047 45.2395C51.1387 45.3917 51.1768 45.5702 51.1551 45.7465C51.1335 45.9228 51.0534 46.0868 50.9277 46.2123L49.4038 47.7345C49.2789 47.8607 49.1151 47.9411 48.9389 47.9627C48.7627 47.9844 48.5844 47.946 48.4327 47.8538L46.5391 46.708C46.1696 46.8974 45.7852 47.0564 45.3899 47.1834L44.8523 49.334C44.8103 49.5085 44.7106 49.6636 44.5694 49.7743C44.4282 49.885 44.2538 49.9448 44.0744 49.9439ZM41.9557 49.1039H44.0408L44.5767 46.9617C44.6094 46.8295 44.6756 46.708 44.7689 46.6088C44.8622 46.5097 44.9794 46.4362 45.1093 46.3955C45.4738 46.2798 45.8279 46.1337 46.1678 45.9586C46.2887 45.8957 46.4236 45.8648 46.5598 45.8689C46.696 45.873 46.8289 45.912 46.9457 45.9821L48.8359 47.1162L50.3111 45.6428L49.1753 43.7509C49.1059 43.6341 49.0674 43.5015 49.0636 43.3656C49.0598 43.2298 49.0907 43.0952 49.1534 42.9747C49.3283 42.634 49.4744 42.2794 49.5903 41.9145C49.6313 41.7847 49.7049 41.6677 49.804 41.5744C49.9031 41.4812 50.0245 41.4149 50.1565 41.3819L52.297 40.8459V38.7609L50.1565 38.2266C50.0243 38.1934 49.9028 38.1269 49.8037 38.0333C49.7045 37.9398 49.631 37.8224 49.5903 37.6923C49.4747 37.3278 49.3285 36.9737 49.1534 36.6338C49.0907 36.5133 49.0598 36.3787 49.0636 36.2429C49.0674 36.107 49.1059 35.9744 49.1753 35.8576L50.3111 33.9657L48.8359 32.4906L46.944 33.6263C46.8276 33.6967 46.6948 33.7357 46.5588 33.7395C46.4228 33.7433 46.2881 33.7119 46.1678 33.6482C45.8276 33.4737 45.4736 33.3276 45.1093 33.2113C44.9795 33.1709 44.8624 33.0977 44.7691 32.9989C44.6758 32.9 44.6095 32.7787 44.5767 32.6468L44.0408 30.5046H41.9557L41.4197 32.6468C41.3869 32.7787 41.3207 32.9 41.2274 32.9989C41.1341 33.0977 41.0169 33.1709 40.8871 33.2113C40.5229 33.3276 40.1688 33.4737 39.8286 33.6482C39.7082 33.7114 39.5736 33.7426 39.4377 33.7388C39.3017 33.7349 39.1691 33.6962 39.0524 33.6263L37.1606 32.4906L35.6854 33.9657L36.8212 35.8576C36.8906 35.9744 36.929 36.107 36.9329 36.2429C36.9367 36.3787 36.9058 36.5133 36.843 36.6338C36.6679 36.9737 36.5218 37.3278 36.4062 37.6923C36.3654 37.8224 36.2919 37.9398 36.1928 38.0333C36.0937 38.1269 35.9722 38.1934 35.84 38.2266L33.6995 38.7609V40.8459L35.8416 41.3819C35.9734 41.415 36.0945 41.4814 36.1933 41.5746C36.2922 41.6678 36.3655 41.7849 36.4062 41.9145C36.5221 42.2794 36.6682 42.634 36.843 42.9747C36.9058 43.0952 36.9367 43.2298 36.9329 43.3656C36.929 43.5015 36.8906 43.6341 36.8212 43.7509L35.6854 45.6428L37.1606 47.1162L39.0524 45.9821C39.1686 45.912 39.3009 45.873 39.4366 45.8688C39.5723 45.8647 39.7067 45.8956 39.8269 45.9586C40.1676 46.1334 40.5222 46.2796 40.8871 46.3955C41.017 46.4362 41.1343 46.5097 41.2276 46.6088C41.3208 46.708 41.387 46.8295 41.4197 46.9617L41.9557 49.1039Z" fill="black"/>
<path d="M42.9988 44.5844C45.6387 44.5844 47.7788 42.4444 47.7788 39.8044C47.7788 37.1645 45.6387 35.0244 42.9988 35.0244C40.3588 35.0244 38.2188 37.1645 38.2188 39.8044C38.2188 42.4444 40.3588 44.5844 42.9988 44.5844Z" fill="#F7AEBC"/>
<path d="M43.0001 45.0043C41.9696 45.006 40.9617 44.7019 40.1041 44.1306C39.2465 43.5593 38.5776 42.7464 38.1821 41.7949C37.7866 40.8433 37.6822 39.7958 37.8823 38.7849C38.0823 37.774 38.5777 36.8452 39.3058 36.1159C40.0338 35.3866 40.9619 34.8898 41.9724 34.6881C42.983 34.4864 44.0307 34.5891 44.9829 34.9831C45.9351 35.377 46.7491 36.0446 47.3217 36.9013C47.8944 37.758 48.2001 38.7654 48.2001 39.7959C48.2001 41.1758 47.6525 42.4993 46.6776 43.4758C45.7026 44.4524 44.38 45.0021 43.0001 45.0043ZM43.0001 35.4426C42.1357 35.4409 41.2903 35.6957 40.5708 36.1747C39.8514 36.6537 39.2901 37.3354 38.9582 38.1334C38.6263 38.9315 38.5386 39.8101 38.7062 40.658C38.8738 41.506 39.2892 42.2851 39.8998 42.8969C40.5104 43.5087 41.2887 43.9256 42.1363 44.0948C42.9839 44.264 43.8627 44.178 44.6614 43.8476C45.4601 43.5172 46.1429 42.9573 46.6233 42.2388C47.1036 41.5202 47.36 40.6753 47.36 39.811C47.3578 38.6553 46.8978 37.5476 46.0806 36.7305C45.2634 35.9133 44.1557 35.4532 43.0001 35.451V35.4426Z" fill="black"/>
<path d="M12.3496 56.2075H73.6498V56.5435C73.6498 58.1477 73.0125 59.6862 71.8782 60.8205C70.7439 61.9548 69.2054 62.5921 67.6012 62.5921H18.4049C16.8007 62.5921 15.2622 61.9548 14.1279 60.8205C12.9936 59.6862 12.3563 58.1477 12.3563 56.5435V56.2075H12.3496Z" fill="#88C1D7"/>
<path d="M67.5944 63.0189H18.4013C16.6848 63.0167 15.0393 62.3337 13.8257 61.1198C12.6121 59.9059 11.9295 58.2602 11.9277 56.5437V56.2076C11.9277 56.0962 11.972 55.9894 12.0508 55.9106C12.1295 55.8319 12.2364 55.7876 12.3478 55.7876H73.6479C73.7593 55.7876 73.8662 55.8319 73.9449 55.9106C74.0237 55.9894 74.068 56.0962 74.068 56.2076V56.5437C74.0662 58.2602 73.3836 59.9059 72.17 61.1198C70.9564 62.3337 69.3109 63.0167 67.5944 63.0189ZM12.7678 56.6209C12.7933 58.0989 13.3979 59.5078 14.4514 60.5446C15.5049 61.5815 16.9232 62.1635 18.4013 62.1654H67.5944C69.0725 62.1635 70.4908 61.5815 71.5443 60.5446C72.5979 59.5078 73.2024 58.0989 73.2279 56.6209H12.7678Z" fill="black"/>
<path d="M51.0775 59.8235H34.9161C34.8047 59.8235 34.6979 59.7792 34.6191 59.7004C34.5403 59.6217 34.4961 59.5148 34.4961 59.4034C34.4961 59.292 34.5403 59.1852 34.6191 59.1064C34.6979 59.0277 34.8047 58.9834 34.9161 58.9834H51.0775C51.1889 58.9834 51.2957 59.0277 51.3745 59.1064C51.4532 59.1852 51.4975 59.292 51.4975 59.4034C51.4975 59.5148 51.4532 59.6217 51.3745 59.7004C51.2957 59.7792 51.1889 59.8235 51.0775 59.8235Z" fill="black"/>
</svg>
