<svg width="45" height="157" viewBox="0 0 45 157" fill="none" xmlns="http://www.w3.org/2000/svg">
<g opacity="0.4">
<rect x="3.65674" y="0.832031" width="2.00743" height="8.02972" fill="white"/>
<rect x="8.67725" y="3.84204" width="2.00743" height="8.02972" transform="rotate(90 8.67725 3.84204)" fill="white"/>
</g>
<g opacity="0.4">
<rect x="21.7222" y="0.832031" width="2.00743" height="8.02972" fill="white"/>
<rect x="26.7427" y="3.84204" width="2.00743" height="8.02972" transform="rotate(90 26.7427 3.84204)" fill="white"/>
</g>
<g opacity="0.4">
<rect x="39.7905" y="0.832031" width="2.00743" height="8.02972" fill="white"/>
<rect x="44.811" y="3.84204" width="2.00743" height="8.02972" transform="rotate(90 44.811 3.84204)" fill="white"/>
</g>
<g opacity="0.4">
<rect x="3.65674" y="21.9102" width="2.00743" height="8.02972" fill="white"/>
<rect x="8.67725" y="24.9202" width="2.00743" height="8.02972" transform="rotate(90 8.67725 24.9202)" fill="white"/>
</g>
<g opacity="0.4">
<rect x="21.7222" y="21.9102" width="2.00743" height="8.02972" fill="white"/>
<rect x="26.7427" y="24.9202" width="2.00743" height="8.02972" transform="rotate(90 26.7427 24.9202)" fill="white"/>
</g>
<g opacity="0.4">
<rect x="39.7905" y="21.9102" width="2.00743" height="8.02972" fill="white"/>
<rect x="44.811" y="24.9202" width="2.00743" height="8.02972" transform="rotate(90 44.811 24.9202)" fill="white"/>
</g>
<g opacity="0.4">
<rect x="3.65674" y="42.9885" width="2.00743" height="8.02972" fill="white"/>
<rect x="8.67725" y="45.9984" width="2.00743" height="8.02972" transform="rotate(90 8.67725 45.9984)" fill="white"/>
</g>
<g opacity="0.4">
<rect x="21.7222" y="42.9885" width="2.00743" height="8.02972" fill="white"/>
<rect x="26.7427" y="45.9984" width="2.00743" height="8.02972" transform="rotate(90 26.7427 45.9984)" fill="white"/>
</g>
<g opacity="0.4">
<rect x="39.7905" y="42.9885" width="2.00743" height="8.02972" fill="white"/>
<rect x="44.811" y="45.9984" width="2.00743" height="8.02972" transform="rotate(90 44.811 45.9984)" fill="white"/>
</g>
<g opacity="0.4">
<rect x="3.65674" y="64.0667" width="2.00743" height="8.02972" fill="white"/>
<rect x="8.67725" y="67.0767" width="2.00743" height="8.02972" transform="rotate(90 8.67725 67.0767)" fill="white"/>
</g>
<g opacity="0.4">
<rect x="21.7222" y="64.0667" width="2.00743" height="8.02972" fill="white"/>
<rect x="26.7427" y="67.0767" width="2.00743" height="8.02972" transform="rotate(90 26.7427 67.0767)" fill="white"/>
</g>
<g opacity="0.4">
<rect x="39.7905" y="64.0667" width="2.00743" height="8.02972" fill="white"/>
<rect x="44.811" y="67.0767" width="2.00743" height="8.02972" transform="rotate(90 44.811 67.0767)" fill="white"/>
</g>
<g opacity="0.4">
<rect x="3.65674" y="85.1448" width="2.00743" height="8.02972" fill="white"/>
<rect x="8.67725" y="88.1548" width="2.00743" height="8.02972" transform="rotate(90 8.67725 88.1548)" fill="white"/>
</g>
<g opacity="0.4">
<rect x="21.7222" y="85.1448" width="2.00743" height="8.02972" fill="white"/>
<rect x="26.7427" y="88.1548" width="2.00743" height="8.02972" transform="rotate(90 26.7427 88.1548)" fill="white"/>
</g>
<g opacity="0.4">
<rect x="39.7905" y="85.1448" width="2.00743" height="8.02972" fill="white"/>
<rect x="44.811" y="88.1548" width="2.00743" height="8.02972" transform="rotate(90 44.811 88.1548)" fill="white"/>
</g>
<g opacity="0.4">
<rect x="3.65674" y="106.223" width="2.00743" height="8.02972" fill="white"/>
<rect x="8.67725" y="109.233" width="2.00743" height="8.02972" transform="rotate(90 8.67725 109.233)" fill="white"/>
</g>
<g opacity="0.4">
<rect x="21.7222" y="106.223" width="2.00743" height="8.02972" fill="white"/>
<rect x="26.7427" y="109.233" width="2.00743" height="8.02972" transform="rotate(90 26.7427 109.233)" fill="white"/>
</g>
<g opacity="0.4">
<rect x="39.7905" y="106.223" width="2.00743" height="8.02972" fill="white"/>
<rect x="44.811" y="109.233" width="2.00743" height="8.02972" transform="rotate(90 44.811 109.233)" fill="white"/>
</g>
<g opacity="0.4">
<rect x="3.65674" y="127.301" width="2.00743" height="8.02972" fill="white"/>
<rect x="8.67725" y="130.311" width="2.00743" height="8.02972" transform="rotate(90 8.67725 130.311)" fill="white"/>
</g>
<g opacity="0.4">
<rect x="21.7222" y="127.301" width="2.00743" height="8.02972" fill="white"/>
<rect x="26.7427" y="130.311" width="2.00743" height="8.02972" transform="rotate(90 26.7427 130.311)" fill="white"/>
</g>
<g opacity="0.4">
<rect x="39.7905" y="127.301" width="2.00743" height="8.02972" fill="white"/>
<rect x="44.811" y="130.311" width="2.00743" height="8.02972" transform="rotate(90 44.811 130.311)" fill="white"/>
</g>
<g opacity="0.4">
<rect x="3.65674" y="148.379" width="2.00743" height="8.02972" fill="white"/>
<rect x="8.67725" y="151.389" width="2.00743" height="8.02972" transform="rotate(90 8.67725 151.389)" fill="white"/>
</g>
<g opacity="0.4">
<rect x="21.7222" y="148.379" width="2.00743" height="8.02972" fill="white"/>
<rect x="26.7427" y="151.389" width="2.00743" height="8.02972" transform="rotate(90 26.7427 151.389)" fill="white"/>
</g>
<g opacity="0.4">
<rect x="39.7905" y="148.379" width="2.00743" height="8.02972" fill="white"/>
<rect x="44.811" y="151.389" width="2.00743" height="8.02972" transform="rotate(90 44.811 151.389)" fill="white"/>
</g>
</svg>
