<svg width="606" height="382" viewBox="0 0 606 382" fill="none" xmlns="http://www.w3.org/2000/svg">
<path opacity="0.09" d="M501.534 11.394V313.715C501.535 315.211 501.241 316.693 500.67 318.076C500.098 319.458 499.26 320.715 498.202 321.774C497.145 322.832 495.89 323.672 494.508 324.246C493.126 324.819 491.644 325.114 490.148 325.115H50.8049C49.3081 325.115 47.8259 324.82 46.4431 324.247C45.0602 323.674 43.8038 322.835 42.7457 321.776C41.6876 320.717 40.8484 319.46 40.2762 318.077C39.704 316.694 39.41 315.212 39.4109 313.715V11.394C39.4108 9.89769 39.7054 8.41598 40.2779 7.03354C40.8505 5.6511 41.6898 4.395 42.7478 3.33694C43.8059 2.27889 45.062 1.43962 46.4444 0.867065C47.8269 0.29451 49.3086 -0.000131299 50.8049 4.3892e-08H490.148C493.169 0.00132587 496.065 1.20244 498.2 3.33917C500.336 5.4759 501.535 8.37328 501.534 11.394Z" fill="white"/>
<g opacity="0.43">
<path opacity="0.25" d="M433.4 73.493H107.275C103.409 73.493 100.275 76.627 100.275 80.493V133.325C100.275 137.191 103.409 140.325 107.275 140.325H433.4C437.266 140.325 440.4 137.191 440.4 133.325V80.493C440.4 76.627 437.266 73.493 433.4 73.493Z" fill="white"/>
<path opacity="0.25" d="M433.399 156.514H281.514C277.648 156.514 274.514 159.648 274.514 163.514V181.321C274.514 185.187 277.648 188.321 281.514 188.321H433.399C437.265 188.321 440.399 185.187 440.399 181.321V163.514C440.399 159.648 437.265 156.514 433.399 156.514Z" fill="white"/>
<path opacity="0.25" d="M433.399 200.082H281.514C277.648 200.082 274.514 203.216 274.514 207.082V225.996C274.514 229.862 277.648 232.996 281.514 232.996H433.399C437.265 232.996 440.399 229.862 440.399 225.996V207.082C440.399 203.216 437.265 200.082 433.399 200.082Z" fill="white"/>
</g>
<path opacity="0.3" d="M449.453 365.667L449.431 364.387C451.551 364.35 453.692 364.264 455.794 364.13L455.875 365.407C453.754 365.543 451.593 365.63 449.453 365.668M443.026 365.63C440.894 365.569 438.735 365.456 436.609 365.295L436.709 364.019C438.815 364.178 440.954 364.289 443.067 364.351L443.026 365.63ZM462.277 364.847L462.136 363.575C464.236 363.341 466.361 363.055 468.446 362.724L468.646 363.988C466.546 364.322 464.399 364.612 462.276 364.847M430.212 364.661C428.1 364.402 425.96 364.088 423.853 363.728L424.069 362.466C426.156 362.823 428.276 363.135 430.369 363.392L430.212 364.661ZM474.968 362.83L474.707 361.577C476.782 361.145 478.868 360.66 480.907 360.134L481.226 361.373C479.167 361.904 477.061 362.393 474.967 362.83M417.545 362.495C415.462 362.036 413.362 361.521 411.302 360.965L411.636 359.729C413.675 360.281 415.756 360.791 417.82 361.245L417.545 362.495ZM487.411 359.622L487.033 358.4C489.054 357.775 491.085 357.094 493.069 356.377L493.506 357.577C491.506 358.302 489.453 358.989 487.412 359.619M405.141 359.137C403.111 358.484 401.064 357.77 399.057 357.017L399.506 355.817C401.495 356.562 403.523 357.269 405.533 357.917L405.141 359.137ZM499.481 355.253L498.989 354.071C500.93 353.263 502.884 352.396 504.796 351.492L505.343 352.649C503.413 353.561 501.443 354.437 499.482 355.249M393.082 354.606C391.118 353.76 389.149 352.856 387.231 351.92L387.791 350.77C389.691 351.697 391.642 352.593 393.591 353.43L393.082 354.606ZM511.076 349.767L510.476 348.637C512.337 347.646 514.202 346.598 516.017 345.52L516.671 346.62C514.838 347.708 512.956 348.766 511.077 349.766M381.514 348.96C379.645 347.935 377.772 346.851 375.945 345.735L376.612 344.643C378.422 345.748 380.278 346.823 382.129 347.838L381.514 348.96ZM522.114 343.213L521.409 342.144C523.176 340.979 524.935 339.759 526.636 338.519L527.39 339.553C525.673 340.805 523.898 342.036 522.114 343.213ZM370.536 342.253C368.774 341.059 367.011 339.803 365.297 338.521L366.064 337.496C367.764 338.767 369.508 340.011 371.254 341.196L370.536 342.253ZM532.491 335.653L531.691 334.653C533.337 333.331 534.974 331.953 536.559 330.553L537.406 331.512C535.806 332.924 534.153 334.317 532.492 335.651M360.242 334.551C358.593 333.192 356.957 331.778 355.378 330.351L356.238 329.403C357.802 330.821 359.423 332.222 361.056 333.568L360.242 334.551ZM542.122 327.151L541.231 326.232C542.747 324.761 544.25 323.232 545.696 321.692L546.629 322.568C545.17 324.123 543.653 325.668 542.123 327.151M350.723 325.921C349.208 324.413 347.711 322.852 346.275 321.283L347.219 320.419C348.642 321.974 350.124 323.519 351.625 325.019L350.723 325.921ZM550.923 317.778L549.95 316.947C551.327 315.335 552.68 313.674 553.973 312.008L554.984 312.793C553.679 314.474 552.312 316.151 550.923 317.778ZM342.049 316.442C340.683 314.801 339.34 313.108 338.056 311.41L339.077 310.638C340.349 312.32 341.677 313.997 343.033 315.623L342.049 316.442ZM558.808 307.62L557.761 306.884C558.98 305.151 560.172 303.369 561.304 301.584L562.384 302.271C561.241 304.071 560.038 305.871 558.808 307.618M334.308 306.195C333.108 304.438 331.926 302.628 330.808 300.814L331.897 300.141C333.007 301.941 334.174 303.73 335.366 305.472L334.308 306.195ZM565.708 296.761L564.597 296.126C565.645 294.292 566.665 292.404 567.628 290.516L568.768 291.098C567.796 293.004 566.768 294.91 565.709 296.761M327.548 295.279C326.514 293.415 325.512 291.503 324.569 289.596L325.716 289.029C326.651 290.918 327.644 292.812 328.667 294.658L327.548 295.279ZM571.548 285.298L570.381 284.771C571.256 282.836 572.092 280.86 572.869 278.897L574.059 279.368C573.275 281.35 572.43 283.345 571.548 285.299M321.862 283.781C321.009 281.828 320.191 279.831 319.433 277.847L320.633 277.39C321.383 279.356 322.193 281.334 323.038 283.269L321.862 283.781ZM576.287 273.323L575.076 272.909C575.758 270.909 576.403 268.87 576.992 266.837L578.221 267.193C577.627 269.245 576.977 271.307 576.287 273.323ZM317.287 271.79C316.62 269.758 315.993 267.69 315.426 265.637L316.66 265.296C317.222 267.327 317.842 269.378 318.503 271.39L317.287 271.79ZM579.866 260.979L578.622 260.679C579.112 258.629 579.561 256.534 579.954 254.454L581.212 254.692C580.812 256.792 580.362 258.908 579.867 260.978M313.861 259.402C313.391 257.33 312.961 255.21 312.59 253.102L313.85 252.878C314.22 254.966 314.644 257.066 315.108 259.12L313.861 259.402ZM582.261 248.352L580.994 248.173C581.288 246.088 581.537 243.96 581.734 241.849L583.008 241.968C582.808 244.098 582.558 246.246 582.261 248.352ZM311.622 246.752C311.35 244.642 311.122 242.492 310.95 240.359L312.226 240.259C312.398 242.371 312.626 244.502 312.892 246.591L311.622 246.752ZM583.455 235.559L582.177 235.5C582.277 233.4 582.324 231.255 582.324 229.135H583.598C583.598 231.275 583.548 233.435 583.449 235.559M310.574 233.944C310.519 232.355 310.491 230.737 310.491 229.135C310.491 228.595 310.494 228.055 310.501 227.516L311.781 227.532C311.774 228.065 311.771 228.599 311.771 229.132C311.771 230.72 311.798 232.323 311.853 233.897L310.574 233.944ZM582.282 225.99C582.234 223.874 582.135 221.734 581.989 219.629L583.266 219.54C583.413 221.665 583.513 223.824 583.566 225.961L582.282 225.99ZM311.998 221.167L310.72 221.093C310.844 218.958 311.02 216.802 311.243 214.688L312.516 214.822C312.295 216.917 312.121 219.052 311.999 221.168M581.399 213.289C581.155 211.195 580.857 209.074 580.513 206.989L581.776 206.781C582.123 208.89 582.424 211.031 582.67 213.145L581.399 213.289ZM313.329 208.509L312.064 208.315C312.387 206.204 312.764 204.075 313.186 201.987L314.441 202.24C314.023 204.308 313.65 206.418 313.329 208.509ZM579.329 200.729C578.889 198.667 578.392 196.584 577.852 194.536L579.09 194.21C579.635 196.276 580.136 198.38 580.581 200.462L579.329 200.729ZM315.85 196.029L314.609 195.716C315.13 193.646 315.709 191.562 316.325 189.522L317.549 189.893C316.938 191.914 316.366 193.978 315.849 196.029M576.082 188.419C575.446 186.402 574.754 184.375 574.024 182.394L575.224 181.952C575.96 183.952 576.659 185.999 577.301 188.034L576.082 188.419ZM319.541 183.829L318.335 183.4C319.051 181.384 319.826 179.36 320.635 177.383L321.819 177.868C321.019 179.826 320.251 181.832 319.541 183.828M571.689 176.486C570.87 174.549 569.989 172.6 569.077 170.695L570.231 170.142C571.154 172.066 572.041 174.033 572.868 175.989L571.689 176.486ZM324.378 172.024L323.218 171.483C324.118 169.552 325.081 167.612 326.076 165.715L327.209 166.31C326.223 168.189 325.27 170.11 324.378 172.024ZM566.193 165.031C565.193 163.179 564.136 161.32 563.045 159.507L564.145 158.847C565.245 160.677 566.315 162.554 567.322 164.423L566.193 165.031ZM330.307 160.737L329.207 160.089C330.287 158.249 331.427 156.409 332.595 154.619L333.667 155.319C332.511 157.093 331.381 158.919 330.311 160.738M559.643 154.138C558.473 152.384 557.243 150.632 555.989 148.931L557.019 148.171C558.286 149.888 559.527 151.656 560.709 153.427L559.643 154.138ZM337.273 150.066L336.235 149.317C337.482 147.589 338.789 145.864 340.119 144.191L341.119 144.991C339.801 146.649 338.506 148.357 337.271 150.069M552.09 143.902C550.76 142.263 549.371 140.633 547.963 139.057L548.918 138.205C550.339 139.796 551.741 141.441 553.085 143.096L552.09 143.902ZM345.201 140.102L344.238 139.259C345.645 137.652 347.107 136.059 348.583 134.521L349.506 135.408C348.043 136.93 346.595 138.508 345.206 140.102M543.617 134.411C542.134 132.9 540.599 131.406 539.053 129.971L539.924 129.033C541.485 130.481 543.035 131.989 544.532 133.515L543.617 134.411ZM354.028 130.922L353.149 129.993C354.698 128.526 356.302 127.075 357.915 125.684L358.751 126.653C357.151 128.032 355.563 129.468 354.028 130.922ZM534.284 125.748C532.674 124.387 531.004 123.043 529.323 121.748L530.102 120.733C531.802 122.033 533.486 123.393 535.111 124.766L534.284 125.748ZM363.66 122.609L362.87 121.601C364.547 120.287 366.278 118.994 368.016 117.758L368.758 118.801C367.036 120.025 365.321 121.306 363.658 122.608M524.168 117.99C522.429 116.781 520.641 115.599 518.852 114.476L519.532 113.392C521.339 114.526 523.144 115.719 524.9 116.939L524.168 117.99ZM374.026 115.238L373.334 114.161C375.128 113.009 376.971 111.885 378.814 110.819L379.455 111.927C377.629 112.983 375.803 114.097 374.026 115.238ZM513.373 111.215C511.531 110.176 509.638 109.167 507.747 108.215L508.322 107.071C510.231 108.032 512.142 109.05 514.002 110.099L513.373 111.215ZM385.034 108.877L384.445 107.74C386.335 106.764 388.276 105.818 390.213 104.93L390.746 106.093C388.827 106.973 386.905 107.909 385.034 108.876M501.983 105.484C500.049 104.624 498.067 103.798 496.095 103.029L496.559 101.836C498.551 102.612 500.551 103.446 502.504 104.314L501.983 105.484ZM396.583 103.584L396.105 102.397C398.088 101.597 400.113 100.84 402.124 100.14L402.545 101.349C400.553 102.042 398.545 102.794 396.583 103.584ZM490.095 100.857C488.09 100.184 486.044 99.5509 484.012 98.9749L484.36 97.744C486.411 98.325 488.477 98.964 490.501 99.644L490.095 100.857ZM408.606 99.399L408.243 98.171C410.285 97.571 412.373 97.0029 414.443 96.4949L414.743 97.7379C412.688 98.2379 410.62 98.8 408.597 99.399M477.839 97.3849C475.781 96.9059 473.685 96.47 471.606 96.085L471.837 94.826C473.937 95.212 476.053 95.652 478.13 96.136L477.839 97.3849ZM420.961 96.3709L420.716 95.115C422.81 94.706 424.941 94.342 427.051 94.033L427.237 95.299C425.147 95.605 423.037 95.9659 420.961 96.3709ZM465.318 95.0869C463.225 94.8039 461.096 94.567 458.99 94.387L459.103 93.1119C461.228 93.2979 463.377 93.5369 465.49 93.8229L465.318 95.0869ZM433.555 94.524L433.429 93.2499C435.546 93.0409 437.703 92.8779 439.838 92.7669L439.904 94.045C437.789 94.155 435.653 94.3159 433.555 94.5229M452.636 93.9739C450.777 93.8979 448.891 93.86 447.03 93.86H446.27L446.262 92.58H447.031C448.908 92.58 450.812 92.6189 452.689 92.6949L452.636 93.9739Z" fill="white"/>
<path opacity="0.29" d="M501.753 11.394V29.33H39.6299V11.394C39.6298 9.89769 39.9244 8.41598 40.4969 7.03354C41.0695 5.6511 41.9088 4.395 42.9668 3.33694C44.0249 2.27889 45.281 1.43962 46.6634 0.867065C48.0459 0.29451 49.5276 -0.000131299 51.0239 4.3892e-08H490.367C493.388 0.00132587 496.284 1.20244 498.419 3.33917C500.555 5.4759 501.754 8.37328 501.753 11.394Z" fill="white"/>
<path d="M70.592 14.666C70.592 15.7142 70.2811 16.7389 69.6987 17.6105C69.1164 18.4821 68.2886 19.1614 67.3202 19.5625C66.3517 19.9637 65.2861 20.0686 64.258 19.8641C63.2299 19.6596 62.2855 19.1549 61.5443 18.4136C60.8031 17.6724 60.2983 16.728 60.0938 15.6999C59.8893 14.6718 59.9942 13.6062 60.3954 12.6377C60.7965 11.6693 61.4759 10.8415 62.3474 10.2592C63.219 9.67678 64.2437 9.36597 65.292 9.36597C65.988 9.36597 66.6771 9.50306 67.3202 9.76941C67.9632 10.0358 68.5475 10.4262 69.0396 10.9183C69.5318 11.4105 69.9222 11.9947 70.1885 12.6377C70.4549 13.2808 70.592 13.9699 70.592 14.666Z" fill="white"/>
<path d="M85.509 9.36304C84.4607 9.36304 83.436 9.67388 82.5645 10.2563C81.6929 10.8386 81.0136 11.6664 80.6124 12.6348C80.2113 13.6033 80.1063 14.6689 80.3108 15.697C80.5153 16.7251 81.0201 17.6695 81.7613 18.4107C82.5025 19.1519 83.4469 19.6567 84.475 19.8612C85.5031 20.0657 86.5688 19.9607 87.5372 19.5596C88.5057 19.1585 89.3334 18.4792 89.9158 17.6076C90.4981 16.736 90.809 15.7113 90.809 14.6631C90.8066 13.2581 90.2475 11.9114 89.254 10.918C88.2606 9.92457 86.9139 9.36542 85.509 9.36304Z" fill="white"/>
<path opacity="0.33" d="M105.722 19.9689C104.674 19.9689 103.649 19.6581 102.777 19.0757C101.906 18.4933 101.226 17.6656 100.825 16.6971C100.424 15.7287 100.319 14.663 100.524 13.6349C100.728 12.6068 101.233 11.6625 101.974 10.9212C102.715 10.18 103.66 9.67524 104.688 9.47074C105.716 9.26623 106.782 9.3712 107.75 9.77234C108.719 10.1735 109.546 10.8528 110.129 11.7244C110.711 12.5959 111.022 13.6206 111.022 14.6689C111.019 16.0738 110.46 17.4205 109.467 18.4139C108.473 19.4074 107.127 19.9665 105.722 19.9689ZM105.722 10.3579C104.87 10.3577 104.036 10.6103 103.328 11.0837C102.619 11.5571 102.066 12.2301 101.74 13.0175C101.414 13.8049 101.328 14.6713 101.495 15.5073C101.661 16.3433 102.071 17.1111 102.674 17.7138C103.277 18.3165 104.045 18.7269 104.88 18.8932C105.716 19.0594 106.583 18.974 107.37 18.6477C108.158 18.3214 108.831 17.769 109.304 17.0602C109.777 16.3514 110.03 15.5182 110.03 14.6659C110.029 13.5237 109.574 12.4288 108.767 11.6212C107.959 10.8135 106.864 10.3592 105.722 10.3579Z" fill="white"/>
<path opacity="0.64" d="M462.624 292.321H337.722C331.094 292.321 325.722 297.694 325.722 304.321V369.345C325.722 375.972 331.094 381.345 337.722 381.345H462.624C469.251 381.345 474.624 375.972 474.624 369.345V304.321C474.624 297.694 469.251 292.321 462.624 292.321Z" fill="#A6B5F4"/>
<path d="M406.59 309.913H343.248V313.672H406.59V309.913Z" fill="white"/>
<path d="M427.533 334.619H343.248V338.378H427.533V334.619Z" fill="white"/>
<path d="M369.376 359.326H343.248V363.085H369.376V359.326Z" fill="white"/>
<path d="M361.984 322.266H343.248V326.025H361.984V322.266Z" fill="white"/>
<path d="M457.098 346.973H343.248V350.732H457.098V346.973Z" fill="white"/>
<g opacity="0.37">
<path d="M606 263.389C606 269.878 604.076 276.221 600.471 281.617C596.865 287.012 591.741 291.217 585.746 293.701C579.751 296.184 573.154 296.833 566.79 295.568C560.426 294.302 554.58 291.177 549.991 286.588C545.403 282 542.278 276.154 541.012 269.79C539.746 263.425 540.396 256.829 542.879 250.833C545.363 244.838 549.568 239.714 554.963 236.109C560.359 232.504 566.702 230.58 573.191 230.58C581.892 230.58 590.237 234.037 596.39 240.189C602.543 246.342 606 254.687 606 263.389Z" fill="#AEBEFF"/>
</g>
<path d="M465.624 210.678H428.456C423.485 210.678 419.456 214.707 419.456 219.678V238.569C419.456 243.54 423.485 247.569 428.456 247.569H465.624C470.595 247.569 474.624 243.54 474.624 238.569V219.678C474.624 214.707 470.595 210.678 465.624 210.678Z" fill="#16D594"/>
<path d="M440.086 229.124H453.995" stroke="white" stroke-width="2" stroke-linecap="round"/>
<path d="M447.041 222.169V236.078" stroke="white" stroke-width="2" stroke-linecap="round"/>
<path d="M67.822 68.952H11C4.92487 68.952 0 73.8769 0 79.952V110.66C0 116.735 4.92487 121.66 11 121.66H67.822C73.8971 121.66 78.822 116.735 78.822 110.66V79.952C78.822 73.8769 73.8971 68.952 67.822 68.952Z" fill="#F99C40"/>
<path d="M29.0909 86.611C27.6059 88.4813 26.8378 90.8205 26.9249 93.2071C27.012 95.5937 27.9486 97.8706 29.566 99.6277C31.1834 101.385 33.3752 102.506 35.7464 102.79C38.1176 103.075 40.5123 102.502 42.4989 101.177L48.9059 107.585C49.036 107.715 49.2122 107.788 49.3959 107.788C49.5796 107.788 49.7558 107.715 49.8859 107.585L51.6859 105.785C51.7503 105.721 51.8015 105.645 51.8364 105.561C51.8712 105.477 51.8892 105.386 51.8892 105.296C51.8892 105.205 51.8712 105.115 51.8364 105.031C51.8015 104.947 51.7503 104.87 51.6859 104.806L45.2769 98.397C46.7125 96.2455 47.2605 93.6223 46.8063 91.076C46.3521 88.5297 44.9309 86.2577 42.8399 84.7353C40.749 83.2129 38.1504 82.5579 35.5877 82.9075C33.0249 83.2571 30.6967 84.5842 29.0899 86.611H29.0909ZM41.9509 97.85C40.9601 98.841 39.6977 99.5159 38.3233 99.7893C36.9489 100.063 35.5243 99.9225 34.2296 99.3863C32.935 98.8501 31.8284 97.942 31.0498 96.7768C30.2713 95.6117 29.8557 94.2419 29.8557 92.8405C29.8557 91.4392 30.2713 90.0694 31.0498 88.9042C31.8284 87.7391 32.935 86.831 34.2296 86.2947C35.5243 85.7585 36.9489 85.6183 38.3233 85.8917C39.6977 86.1652 40.9601 86.8401 41.9509 87.831C43.2776 89.1606 44.0227 90.9621 44.0229 92.8403C44.0231 94.7186 43.2783 96.5202 41.9519 97.85H41.9509Z" fill="#F9FBFC"/>
<path d="M240.35 160.555H91.822C84.6423 160.555 78.822 166.375 78.822 173.555V284.504C78.822 291.684 84.6423 297.504 91.822 297.504H240.35C247.53 297.504 253.35 291.684 253.35 284.504V173.555C253.35 166.375 247.53 160.555 240.35 160.555Z" fill="white"/>
<g opacity="0.05">
<path d="M233.462 183.892H98.7109V186.074H233.462V183.892Z" fill="#516FE9"/>
<path d="M233.462 205.915H98.7109V208.097H233.462V205.915Z" fill="#516FE9"/>
<path d="M233.462 227.938H98.7109V230.12H233.462V227.938Z" fill="#516FE9"/>
<path d="M233.462 249.96H98.7109V252.142H233.462V249.96Z" fill="#516FE9"/>
<path d="M233.462 271.983H98.7109V274.165H233.462V271.983Z" fill="#516FE9"/>
</g>
<path d="M105.197 236.273H99.2031V274.166H105.197V236.273Z" fill="#516FE9"/>
<path d="M120.547 256.492H114.553V274.167H120.547V256.492Z" fill="#516FE9"/>
<path d="M136.994 218.116H131V274.166H136.994V218.116Z" fill="#516FE9"/>
<path d="M153.441 242.238H147.447V274.166H153.441V242.238Z" fill="#516FE9"/>
<path d="M169.887 218.116H163.893V274.166H169.887V218.116Z" fill="#516FE9"/>
<path d="M185.238 261.974H179.244V274.166H185.238V261.974Z" fill="#516FE9"/>
<path d="M201.684 233.466H195.69V274.166H201.684V233.466Z" fill="#516FE9"/>
<path d="M218.131 252.106H212.137V274.166H218.131V252.106Z" fill="#516FE9"/>
<path d="M234.578 198.38H228.584V274.166H234.578V198.38Z" fill="#516FE9"/>
<path d="M535.151 58.131H444.864C437.685 58.131 431.864 63.9513 431.864 71.131V136.38C431.864 143.56 437.685 149.38 444.864 149.38H535.151C542.331 149.38 548.151 143.56 548.151 136.38V71.131C548.151 63.9513 542.331 58.131 535.151 58.131Z" fill="white"/>
<path d="M489.762 107.408L481.711 85.1689C477.187 86.8053 473.269 89.7823 470.48 93.7029C467.692 97.6235 466.165 102.301 466.104 107.112C466.043 111.923 467.45 116.638 470.138 120.628C472.826 124.618 476.667 127.694 481.148 129.445C485.629 131.196 490.538 131.538 495.219 130.427C499.9 129.316 504.131 126.804 507.347 123.226C510.564 119.648 512.612 115.175 513.22 110.402C513.828 105.63 512.967 100.785 510.75 96.515L489.762 107.408Z" fill="#516FE9"/>
<path d="M513.895 88.09C511.251 83.0012 506.85 79.0457 501.509 76.9587C496.167 74.8717 490.25 74.7954 484.857 76.744L492.908 98.983L513.895 88.09Z" fill="#16D594"/>
</svg>
