<svg width="60" height="60" viewBox="0 0 60 60" fill="none" xmlns="http://www.w3.org/2000/svg">
<g clip-path="url(#clip0_303_4173)">
<path d="M57.5034 18.3617C56.7544 16.4565 55.7281 14.5237 54.4521 12.7013C53.1761 10.879 51.6781 9.16705 50.0138 7.67602C48.9319 6.68201 47.7669 5.79844 46.5464 4.97009C45.3258 4.14174 44.0221 3.42384 42.6906 2.78877C42.3577 2.65071 42.0249 2.45743 41.692 2.31937L40.6379 1.93281C40.305 1.79475 39.9444 1.68431 39.5838 1.57386C39.2232 1.4358 38.8903 1.35297 38.5297 1.24252C37.8362 1.02163 37.0873 0.85596 36.3661 0.69029C36.0055 0.607455 35.6448 0.552232 35.2842 0.469397C35.0901 0.441786 34.9236 0.386562 34.7294 0.358951L34.1747 0.276116C32.7322 0.0828348 31.262 0 29.7641 0C28.2662 0 26.796 0.138058 25.3258 0.358951C22.3855 0.828348 19.5006 1.71192 16.8376 3.03728C11.484 5.63277 6.93472 9.88495 3.96662 15.0483C3.21766 16.3461 2.57966 17.6714 2.02487 19.0796C1.49783 20.4602 1.02626 21.896 0.721128 23.3594C0.388257 24.8228 0.166343 26.2862 0.083125 27.7773L0.0276465 28.3295L-9.27802e-05 28.8817C-9.27802e-05 29.2407 -0.027832 29.6272 -0.027832 29.9862C-9.27802e-05 30.7317 -9.27784e-05 31.4772 0.0553857 32.2227C0.083125 32.9682 0.194082 33.7138 0.305039 34.4317C0.443735 35.1772 0.554692 35.8951 0.721128 36.613C0.887563 37.3309 1.08174 38.0488 1.30365 38.7667C1.55331 39.4846 1.77522 40.1749 2.05261 40.8652C2.30226 41.5555 2.63514 42.2457 2.94027 42.9084C3.27314 43.5711 3.60601 44.2338 3.99436 44.8688C4.35497 45.5315 4.77106 46.139 5.18715 46.774L5.82515 47.6852C6.04706 47.989 6.26898 48.2651 6.51863 48.5688C10.2634 53.2904 15.4229 56.8247 21.1372 58.6194C26.8515 60.4142 33.0928 60.4694 38.8349 58.7851C44.5769 57.1008 49.7919 53.6769 53.5921 49.0934C55.1178 47.2434 56.477 45.1174 57.5034 42.936C58.5297 40.7547 59.1955 38.5182 59.5838 36.5578C59.9722 34.5973 60.0554 32.8854 59.9999 31.7257C59.9444 30.5384 59.778 29.9034 59.6116 29.9586C59.2232 30.069 59.0845 32.5265 58.1136 36.0884C57.6143 37.8555 56.8931 39.8988 55.839 41.9972C55.312 43.0465 54.7017 44.0957 54.0082 45.145C53.6754 45.6696 53.287 46.1666 52.8987 46.6912C52.7045 46.9397 52.5103 47.1882 52.2884 47.4367L51.9833 47.8233L51.6504 48.1822C49.2371 50.9434 46.3245 53.2352 43.079 54.9195C40.416 56.3277 37.4756 57.2941 34.4521 57.7635C31.4285 58.2052 28.2939 58.2329 25.2426 57.6806C19.1123 56.659 13.2593 53.4561 8.95968 48.5964C4.63236 43.7644 1.94165 37.248 1.88618 30.3451C1.8307 26.8937 2.41322 23.387 3.66149 20.046C4.90975 16.705 6.8515 13.5021 9.37577 10.7685C11.8168 8.17303 15.0068 5.77082 18.8071 4.11413C22.6074 2.42982 27.0457 1.60147 31.6227 1.82237C33.8973 1.93281 36.1996 2.34699 38.4742 3.03728C40.7211 3.72757 42.9125 4.72158 44.9652 5.96411C49.0706 8.47676 52.5658 12.0939 54.9236 16.3737C55.6726 17.699 56.3383 19.1624 56.8654 20.6259C57.4202 22.0893 57.7808 23.5527 58.0859 24.878C58.391 26.2034 58.5297 27.3631 58.6684 28.2467C58.8071 29.1302 58.8903 29.7377 59.0568 29.931C59.1677 30.069 59.2787 29.7377 59.3342 29.075C59.3619 28.9093 59.3619 28.7161 59.3896 28.5228C59.3896 28.3295 59.3896 28.081 59.3896 27.8601C59.3896 27.6116 59.3896 27.3631 59.3896 27.087C59.3896 26.8109 59.3619 26.5347 59.3342 26.231C59.2509 25.0437 59.029 23.6908 58.7239 22.3378C58.4188 20.902 57.9472 19.5766 57.5034 18.3617Z" fill="#516FE9"/>
<path d="M23.1459 33.2256L21.3257 39.7681H19L24.9323 19H27.6625L33.6285 39.7345H31.2016L29.3478 33.1921H23.1459V33.2256ZM28.8759 31.1119L27.1569 25.1398C26.7524 23.7978 26.5165 22.5564 26.2468 21.3486H26.1794C25.9098 22.59 25.6401 23.8313 25.303 25.1063L23.584 31.1119H28.8759Z" fill="#FF4F54"/>
<path d="M38.4146 19V39.7345H36.1562V19H38.4146Z" fill="#FF4F54"/>
</g>
<defs>
<clipPath id="clip0_303_4173">
<rect width="60" height="60" fill="white"/>
</clipPath>
</defs>
</svg>
