<svg width="44" height="45" viewBox="0 0 44 45" fill="none" xmlns="http://www.w3.org/2000/svg">
<path d="M22 44.4889C34.1503 44.4889 44 34.5298 44 22.2445C44 9.95919 34.1503 0 22 0C9.84973 0 0 9.95919 0 22.2445C0 34.5298 9.84973 44.4889 22 44.4889Z" fill="#71A89B"/>
<path d="M19.7376 31.7471C19.7394 31.6459 19.7431 31.5522 19.7431 31.4417C19.7431 31.3312 19.7302 31.215 19.6931 31.0989C19.6561 30.9827 19.5912 30.8666 19.4967 30.7748C19.4004 30.6811 19.2781 30.6231 19.1577 30.5931C19.0372 30.5612 18.9112 30.5594 18.813 30.5519C18.7093 30.5462 18.6037 30.5388 18.4981 30.5331C18.2868 30.52 18.0738 30.5088 17.8607 30.4957C17.0084 30.4432 16.1339 30.4095 15.289 30.3645L14.4442 30.3214C14.1589 30.3083 13.8883 30.2971 13.6549 30.2278C13.4177 30.1585 13.2788 30.0386 13.2084 29.8231C13.1398 29.6021 13.1306 29.3323 13.1361 29.0532L13.1472 27.3334C13.1306 26.7377 13.0083 26.1064 12.6711 25.5687C12.5062 25.3008 12.2931 25.061 12.0541 24.8624L11.8688 24.7219L11.6798 24.5964C11.628 24.5646 11.5835 24.5309 11.5483 24.499C11.5131 24.4634 11.5057 24.454 11.502 24.4428C11.4983 24.4297 11.4964 24.4166 11.502 24.4053C11.5094 24.3829 11.5298 24.336 11.5575 24.2892C11.6131 24.1974 11.7076 24.0794 11.7891 23.9651L12.295 23.2738C12.6285 22.8017 12.9527 22.324 13.2139 21.7714C13.4678 21.2206 13.6197 20.6324 13.7086 20.0498C13.7994 19.4653 13.8346 18.8864 13.8661 18.315C13.8976 17.7399 13.9161 17.1704 13.9532 16.6084C13.9717 16.3274 13.994 16.0464 14.0273 15.7729C14.0588 15.5031 14.107 15.2352 14.17 14.9729C14.2978 14.4484 14.4961 13.9444 14.7629 13.478C15.3094 12.5525 16.0691 11.7245 16.9714 11.1456C17.8755 10.5593 18.9224 10.2164 20.0007 10.0684C20.5417 9.99351 21.0845 9.95791 21.633 9.97665C22.1814 9.98789 22.7354 10.046 23.2819 10.1153C23.8378 10.1827 24.3751 10.2708 24.8994 10.4225C25.4238 10.5705 25.9388 10.7578 26.428 10.9958C27.4118 11.466 28.2882 12.1254 28.9718 12.9759C29.3165 13.3993 29.6259 13.8601 29.913 14.3379C30.1984 14.8156 30.4485 15.3026 30.6467 15.8141C31.0507 16.8332 31.2378 17.931 31.2007 19.0269C31.1655 20.1247 30.9098 21.2112 30.5133 22.2491C30.1169 23.2907 29.5907 24.2817 29.0348 25.2746C28.7569 25.7748 28.4771 26.3012 28.2882 26.8819C28.1103 27.4664 27.9991 28.0284 27.9158 28.6148C27.7861 29.5496 27.7675 30.5406 27.8342 31.4811C27.8972 32.4234 28.0399 33.3132 28.1881 34.0775C28.3382 34.84 28.4938 35.477 28.618 35.9172C28.6495 36.0277 28.6791 36.1251 28.705 36.2076C28.7199 36.2488 28.7328 36.2881 28.7439 36.3237C28.7588 36.3593 28.7625 36.3837 28.794 36.4474C28.8255 36.5073 28.8996 36.5448 28.9311 36.5448C28.9663 36.5485 28.9811 36.5448 28.9904 36.5392C29.007 36.5298 29.0256 36.526 29.0256 36.5092C29.0256 36.4923 29.02 36.4717 28.9904 36.4511C28.957 36.4305 28.9237 36.4005 28.9329 36.3499C28.9348 36.2263 28.9274 36.054 28.9088 35.8348C28.8718 35.3983 28.794 34.7876 28.7032 34.0476C28.5272 32.5751 28.2974 30.5725 28.6217 28.5099C28.6791 28.1502 28.7532 27.7943 28.8421 27.4421C28.9255 27.0974 29.0478 26.7752 29.1997 26.4492C29.5036 25.8047 29.9001 25.1566 30.2391 24.484C30.8079 23.3712 31.3156 22.1929 31.6009 20.9359C31.8863 19.6826 31.9456 18.3506 31.6787 17.0636C31.5472 16.421 31.349 15.7897 31.0784 15.1902C30.8098 14.587 30.48 14.0194 30.1224 13.4705C29.7611 12.9216 29.3535 12.3895 28.8718 11.9156C28.3882 11.4416 27.8398 11.037 27.2506 10.7016C26.0759 10.0328 24.7327 9.62633 23.3746 9.47833C22.6946 9.39028 22.0091 9.32471 21.305 9.32846C20.601 9.33221 19.8932 9.40714 19.191 9.56076C18.4907 9.71812 17.7903 9.95229 17.1418 10.3082C16.4897 10.6586 15.8819 11.1138 15.3632 11.6608C14.8444 12.2078 14.3812 12.8204 14.0403 13.5267C13.6994 14.2292 13.4974 15.0048 13.4196 15.7878C13.3399 16.5259 13.3158 17.294 13.2769 18.079C13.2325 18.8658 13.1973 19.6788 13.0212 20.4713C12.9342 20.8665 12.8045 21.2543 12.6285 21.6215C12.4469 21.9868 12.2153 22.354 11.9689 22.7118C11.7206 23.0715 11.4538 23.4293 11.1833 23.8002C11.1147 23.8977 11.0332 24.0082 10.9721 24.1581C10.9424 24.2311 10.9128 24.3454 10.9146 24.4503C10.9146 24.5571 10.9498 24.662 11.0036 24.7519C11.0314 24.8006 11.061 24.8362 11.0925 24.8737C11.1221 24.9037 11.1518 24.9355 11.1814 24.958C11.2407 25.0086 11.2982 25.0498 11.3537 25.0854L11.4946 25.1772C11.539 25.2053 11.5798 25.2352 11.6205 25.2671C11.9522 25.5163 12.2116 25.846 12.3691 26.2356C12.5284 26.6272 12.5895 27.0599 12.5877 27.5264C12.5877 28.0041 12.5877 28.4855 12.5877 28.9707C12.5877 29.2068 12.5821 29.4784 12.634 29.7576C12.6562 29.8981 12.7026 30.0498 12.7804 30.1959C12.8545 30.3439 12.9823 30.4863 13.1231 30.5781C13.4122 30.7673 13.7012 30.8029 13.9625 30.8347L14.1589 30.8497L14.3423 30.8572L14.7091 30.8722C15.1983 30.8928 15.6892 30.9116 16.1821 30.9322C16.6749 30.9528 17.1678 30.9753 17.6625 30.9959L18.4054 31.0314L18.7778 31.0502C18.9168 31.0577 18.9946 31.0577 19.0632 31.0783C19.1465 31.1064 19.1873 31.1382 19.2244 31.2019C19.2596 31.2712 19.2818 31.3762 19.2799 31.5129C19.2799 31.8351 19.2818 32.1611 19.2836 32.4796C19.2874 33.1184 19.2948 33.7403 19.3096 34.2911C19.3374 35.3945 19.3874 36.2244 19.4782 36.3799C19.6357 36.6235 19.6894 33.7553 19.7413 31.7527L19.7376 31.7471Z" fill="white" stroke="white" stroke-width="0.5"/>
<path d="M23.4815 26.2056C23.5222 25.8909 23.5297 25.5294 23.55 25.1903C23.6056 24.2854 23.6408 23.3787 23.6631 22.472L23.6871 21.112C23.6946 20.8965 23.6779 20.6136 23.7112 20.535C23.7261 20.4862 23.7501 20.4469 23.802 20.3945L24.0336 20.1565L24.9785 19.1824L25.4528 18.6916C25.5344 18.5979 25.6474 18.4911 25.7196 18.2775C25.753 18.1726 25.7604 18.0527 25.74 17.946C25.7215 17.8411 25.6844 17.7511 25.6455 17.6818C25.6252 17.6425 25.6048 17.6144 25.5844 17.5788C25.5788 17.5657 25.5788 17.5694 25.577 17.5638C25.5733 17.5563 25.5714 17.5451 25.5696 17.5282C25.5696 17.4926 25.5825 17.4345 25.614 17.3765C25.6455 17.3184 25.6937 17.2641 25.7437 17.2228C25.7697 17.2004 25.7975 17.1854 25.8234 17.1723C25.853 17.1573 25.8845 17.1479 25.9123 17.1404C26.0254 17.1161 26.1161 17.1423 26.2106 17.236C26.257 17.2809 26.2996 17.3484 26.3311 17.4177C26.3552 17.4739 26.3644 17.5226 26.357 17.5657C26.3514 17.635 26.3033 17.7268 26.2106 17.8167C26.0884 17.9235 26.0846 17.9366 25.9864 17.9572C25.892 17.9722 25.7493 17.9553 25.64 17.9741C25.5288 17.9909 25.4658 18.0415 25.4695 18.0996C25.4732 18.1577 25.5177 18.212 25.5825 18.2738C25.6511 18.3319 25.74 18.4143 25.9253 18.4724C26.0179 18.5005 26.1439 18.5117 26.2736 18.4799C26.3385 18.4649 26.3996 18.4405 26.4589 18.4106C26.5126 18.3825 26.559 18.3544 26.6108 18.3188C26.709 18.2476 26.8091 18.1558 26.8906 18.0303C26.9703 17.9066 27.0333 17.7455 27.0407 17.5732C27.0574 17.3296 26.9592 17.1029 26.8591 16.9493C26.7535 16.7826 26.596 16.6234 26.3904 16.5316C26.2199 16.4548 26.0198 16.4342 25.8419 16.466C25.6659 16.4997 25.5066 16.5709 25.3676 16.6777C25.2342 16.7845 25.1249 16.9119 25.0452 17.0636C24.9674 17.2153 24.9118 17.3952 24.9322 17.6031C24.9452 17.7062 24.9748 17.8148 25.036 17.9066L25.0804 17.9778C25.0897 17.9947 25.099 18.0097 25.1027 18.0228C25.1175 18.079 25.1231 18.0584 25.0934 18.1221C25.0582 18.1801 24.9674 18.2719 24.8785 18.3656C24.7896 18.4574 24.6988 18.5511 24.608 18.6447C24.2448 19.0175 23.8743 19.4016 23.487 19.8006L23.3351 19.958C23.2721 20.0254 23.211 20.106 23.1665 20.1996C23.0702 20.3851 23.0609 20.608 23.0665 20.7504C23.0702 21.0408 23.0739 21.3368 23.0776 21.6384C23.0628 22.7924 23.0424 24.3791 23.022 25.9659C23.0201 26.215 23.022 26.4885 23.0498 26.7077C23.0702 26.9231 23.1406 27.1311 23.2406 27.148C23.3221 27.1554 23.3462 27.0131 23.3888 26.8314C23.4278 26.6459 23.4555 26.4042 23.4815 26.2056Z" fill="white" stroke="white" stroke-width="0.5"/>
<path d="M21.8805 26.6834C21.9213 26.438 21.9287 26.1589 21.9509 25.8947C22.1751 23.0847 22.0713 20.269 22.0899 17.4552C22.0936 16.8895 22.0324 16.2132 21.7953 16.23C21.5674 16.2431 21.4192 16.8276 21.4062 17.4871C21.3988 17.7175 21.3988 17.9498 21.4062 18.1802C21.497 19.7089 21.4358 21.2638 21.4766 23.1409C21.4599 24.0364 21.4358 25.269 21.4192 26.4998C21.4136 26.8858 21.434 27.3485 21.6156 27.3972C21.773 27.4347 21.8268 26.9925 21.8787 26.6853L21.8805 26.6834Z" fill="white" stroke="white" stroke-width="0.5"/>
<path d="M20.3132 26.4961C20.3558 26.1738 20.3632 25.8085 20.3836 25.462C20.4411 24.5403 20.4781 23.6186 20.5004 22.695L20.5263 21.3106L20.53 20.964V20.8778C20.53 20.8441 20.53 20.8085 20.53 20.7729C20.53 20.7036 20.5207 20.6305 20.5096 20.5556C20.467 20.2577 20.2947 19.958 20.0964 19.7669L19.1423 18.7778C18.9811 18.611 18.8143 18.4462 18.6457 18.2832C18.5679 18.2101 18.5179 18.1521 18.4975 18.1109C18.4808 18.0734 18.4771 18.0621 18.4864 18.0041C18.4919 17.976 18.5031 17.9423 18.5197 17.9029C18.5494 17.828 18.5753 17.7493 18.5883 17.665C18.6198 17.4983 18.6068 17.3091 18.5438 17.1423C18.4827 16.9737 18.3752 16.8313 18.2511 16.7246C18.1881 16.6684 18.1251 16.6271 18.0621 16.5878C17.9972 16.5485 17.925 16.5129 17.8435 16.4848C17.6823 16.4267 17.4674 16.4173 17.2969 16.4754C17.1227 16.5335 17.0005 16.6159 16.8819 16.7171C16.7392 16.8445 16.6595 16.985 16.5984 17.1292C16.541 17.2753 16.5039 17.4252 16.5039 17.5976C16.5039 17.665 16.5113 17.7399 16.528 17.8167C16.5373 17.8561 16.5521 17.8973 16.5669 17.9366C16.5854 17.976 16.6095 18.0247 16.6243 18.0453C16.6929 18.1539 16.78 18.2551 16.8819 18.3357C17.082 18.5024 17.3599 18.5792 17.5841 18.5399C17.6952 18.523 17.7934 18.4818 17.8638 18.4368C17.9287 18.3937 17.9583 18.3619 17.9787 18.3357C18.0102 18.2851 18.0528 18.2457 18.0584 18.1858C18.0639 18.1315 18.0176 18.0584 17.8953 18.0434C17.8379 18.034 17.7712 18.0415 17.7138 18.0434C17.6619 18.0434 17.6137 18.0359 17.5637 18.0209C17.4674 17.9928 17.3803 17.9385 17.2987 17.8467C17.2598 17.7999 17.2228 17.7455 17.1931 17.6856C17.1857 17.665 17.182 17.6369 17.1857 17.5713C17.1931 17.487 17.2283 17.3821 17.2747 17.3109C17.2987 17.2735 17.3173 17.251 17.3414 17.2304C17.384 17.1929 17.4247 17.1667 17.4599 17.1479C17.5192 17.1161 17.547 17.1067 17.6008 17.1142C17.6285 17.118 17.6619 17.1292 17.6989 17.1479C17.736 17.1648 17.7805 17.1929 17.8083 17.2135C17.9305 17.3091 17.9824 17.4252 17.9509 17.5751C17.9398 17.6182 17.9343 17.6331 17.8991 17.7268C17.8731 17.8055 17.849 17.8954 17.8435 17.9947C17.8361 18.094 17.8509 18.2064 17.8861 18.3038C17.9213 18.4031 17.9732 18.4855 18.025 18.5548C18.0788 18.6242 18.1344 18.6804 18.1881 18.7328L18.327 18.8658C18.4178 18.9576 18.5105 19.0494 18.6031 19.1412C18.9644 19.5178 19.3368 19.9055 19.7222 20.3064C19.8611 20.4769 19.9093 20.6549 19.9038 20.934C19.9075 21.23 19.9093 21.5316 19.913 21.8389C19.8963 23.0153 19.8741 24.6321 19.85 26.2488C19.8445 26.7565 19.8649 27.3634 20.0446 27.4271C20.2021 27.4758 20.2558 26.897 20.3095 26.4923L20.3132 26.4961Z" fill="white" stroke="white" stroke-width="0.5"/>
<path d="M21.5545 15.9618C21.5045 15.8794 21.4378 15.812 21.3896 15.7258C21.3247 15.6153 21.3007 15.516 21.3025 15.4336C21.3062 15.3511 21.3322 15.2912 21.3822 15.2275C21.4285 15.1657 21.5119 15.0907 21.586 15.0514C21.662 15.0083 21.7379 14.9896 21.8028 14.9933C21.8713 14.9971 21.9158 15.0139 21.9843 15.0664C22.0473 15.1188 22.0955 15.1825 22.1177 15.2518C22.1678 15.3886 22.1177 15.5778 21.9936 15.6715C21.8973 15.7558 21.649 15.9356 21.7657 16.1473C21.8213 16.2485 21.9139 16.3065 22.0325 16.3234C22.1492 16.3384 22.303 16.3065 22.4512 16.1848C22.5568 16.1024 22.6495 15.9843 22.7032 15.8569C22.7829 15.6452 22.8107 15.413 22.7625 15.1881C22.7162 14.9633 22.5958 14.7535 22.4272 14.6037C22.3456 14.5306 22.2456 14.4594 22.127 14.4126C22.0103 14.3657 21.8806 14.3451 21.7546 14.3526C21.4989 14.3657 21.2636 14.4875 21.0913 14.6617C21.0042 14.7385 20.9134 14.8341 20.8393 14.969C20.7671 15.102 20.717 15.2781 20.7319 15.4579C20.743 15.6378 20.8115 15.8101 20.906 15.9506C20.956 16.0237 21.0024 16.078 21.0524 16.1342C21.1043 16.1904 21.1617 16.2466 21.2265 16.2972C21.3062 16.3627 21.4137 16.4189 21.51 16.4283C21.6064 16.4396 21.686 16.4058 21.7175 16.3197C21.7639 16.1717 21.6138 16.0705 21.5563 15.9618H21.5545Z" fill="white" stroke="white" stroke-width="0.5"/>
</svg>
