<svg width="38" height="39" viewBox="0 0 38 39" fill="none" xmlns="http://www.w3.org/2000/svg">
<path d="M35.5297 0.446876H2.34864C1.25995 0.4754 0.392334 1.36441 0.392334 2.4531V35.6342C0.392334 36.7419 1.29085 37.638 2.39618 37.638H35.5773C36.685 37.638 37.5811 36.7395 37.5811 35.6342V2.4008C37.555 1.2931 36.635 0.418351 35.5273 0.446876H35.5297ZM2.99995 8.40758H7.01001V12.4176H2.99995V8.40758ZM7.01001 26.4517H2.99995V22.4416H7.01001V26.4517ZM2.99995 29.9008H7.01001V33.9108H2.99995V29.9008Z" fill="#FCB415"/>
<path d="M2.83097 30.9252C2.77867 31.277 2.76916 31.6787 2.74302 32.0567C2.724 32.3657 2.70261 32.6747 2.68359 32.9813L2.65982 33.4449L2.63843 34.2697C3.4276 34.2911 4.21678 34.3101 5.00596 34.3315L6.00907 34.3458L7.45669 34.3529L7.44718 29.4609H4.76112C3.94818 29.4538 2.97834 29.5346 2.99974 29.8389C3.01875 30.1313 3.85785 30.3214 4.80629 30.3381C5.13907 30.3476 5.47186 30.3476 5.79989 30.3381C5.99956 30.3286 6.19923 30.319 6.40128 30.3119L6.55341 30.3072C6.5748 30.3072 6.56767 30.3048 6.57718 30.3024C6.58907 30.3 6.60095 30.2953 6.61759 30.2929L6.62234 30.319V30.3333L6.62472 30.3404V30.3452V30.3761C6.62472 30.5354 6.62948 30.697 6.63185 30.8586C6.63185 31.1819 6.63661 31.5099 6.63898 31.8427C6.63898 32.3894 6.63898 32.9528 6.63898 33.5399C6.14931 33.5471 5.63825 33.5518 5.10342 33.5589C4.82293 33.5542 4.51867 33.5494 4.17399 33.5447C4.00047 33.5423 3.81982 33.5399 3.6249 33.5376C3.57498 33.5376 3.52744 33.5376 3.47515 33.5376C3.44187 33.5376 3.44187 33.5376 3.43711 33.5376H3.42523C3.41097 33.5352 3.39433 33.5328 3.37769 33.5328C3.37769 33.5185 3.38244 33.5043 3.38244 33.4876V33.4662C3.38719 33.4187 3.38719 33.3712 3.38719 33.3212C3.38957 33.1097 3.39433 32.8862 3.39908 32.6557C3.40621 32.1922 3.41097 31.693 3.4181 31.1938C3.42523 30.6376 3.39908 29.9744 3.16613 29.9054C2.96408 29.8508 2.89515 30.4854 2.82859 30.9299L2.83097 30.9252Z" fill="#3A395B"/>
<path d="M7.17876 25.4249C7.23106 25.0731 7.24056 24.6714 7.26909 24.2934C7.2881 23.9844 7.3095 23.6754 7.32851 23.3688L7.35228 22.9053L7.37368 22.0804C6.5845 22.059 5.79532 22.04 5.00615 22.0186L4.00304 22.0044L2.55542 21.9972L2.56493 26.8892H5.25098C6.06155 26.8963 7.03376 26.8155 7.01237 26.5112C6.99335 26.2188 6.15426 26.0287 5.20582 26.012C4.87303 26.0025 4.54025 26.0025 4.21222 26.012C4.01254 26.0215 3.81287 26.0311 3.61083 26.0382L3.45869 26.0429C3.4373 26.0429 3.44443 26.0453 3.43492 26.0477C3.42304 26.0501 3.41115 26.0548 3.39451 26.0572L3.38976 26.0311V26.0168L3.38738 26.0097V26.0049V25.974C3.38738 25.8147 3.38263 25.6531 3.38025 25.4915C3.38025 25.1682 3.3755 24.8402 3.3755 24.5074C3.3755 23.9607 3.3755 23.3973 3.3755 22.8102C3.86517 22.803 4.37623 22.7983 4.91107 22.7912C5.19156 22.7959 5.49582 22.8007 5.84049 22.8054C6.01401 22.8078 6.19467 22.8102 6.38958 22.8125C6.4395 22.8125 6.48704 22.8125 6.53934 22.8125C6.57262 22.8125 6.57262 22.8125 6.57737 22.8125H6.58925C6.60352 22.8149 6.62016 22.8173 6.6368 22.8173C6.6368 22.8316 6.63204 22.8458 6.63204 22.8625V22.8839C6.62729 22.9314 6.62729 22.9789 6.62729 23.0289C6.62491 23.2404 6.62016 23.4639 6.6154 23.6944C6.60827 24.158 6.60352 24.6571 6.59639 25.1563C6.58925 25.7125 6.6154 26.3757 6.84835 26.4447C7.0504 26.4993 7.11933 25.8647 7.18589 25.4202L7.17876 25.4249Z" fill="#3A395B"/>
<path d="M2.83097 9.43453C2.77867 9.78633 2.76916 10.1881 2.74302 10.566C2.724 10.875 2.70261 11.184 2.68359 11.4907L2.65982 11.9542L2.63843 12.779C3.4276 12.8004 4.21678 12.8194 5.00596 12.8408L6.00907 12.8551L7.45669 12.8622L7.44718 7.97027H4.76112C3.94818 7.96314 2.97834 8.04396 2.99974 8.34822C3.01875 8.6406 3.85785 8.83076 4.80629 8.8474C5.13907 8.85691 5.47186 8.85691 5.79989 8.8474C5.99956 8.83789 6.19923 8.82838 6.40128 8.82125L6.55341 8.8165C6.5748 8.8165 6.56767 8.81412 6.57718 8.81175C6.58907 8.80937 6.60095 8.80461 6.61759 8.80224L6.62234 8.82838V8.84265L6.62472 8.84978V8.85453V8.88543C6.62472 9.0447 6.62948 9.20633 6.63185 9.36797C6.63185 9.69125 6.63661 10.0193 6.63898 10.3521C6.63898 10.8988 6.63898 11.4621 6.63898 12.0493C6.14931 12.0564 5.63825 12.0612 5.10342 12.0683C4.82293 12.0635 4.51867 12.0588 4.17399 12.054C4.00047 12.0516 3.81982 12.0493 3.6249 12.0469C3.57498 12.0469 3.52744 12.0469 3.47515 12.0469C3.44187 12.0469 3.44187 12.0469 3.43711 12.0469H3.42523C3.41097 12.0445 3.39433 12.0421 3.37769 12.0421C3.37769 12.0279 3.38244 12.0136 3.38244 11.997V11.9756C3.38719 11.928 3.38719 11.8805 3.38719 11.8306C3.38957 11.619 3.39433 11.3956 3.39908 11.1626C3.40621 10.6991 3.41097 10.1999 3.4181 9.70076C3.42523 9.14453 3.39908 8.48134 3.16613 8.4124C2.96408 8.35773 2.89515 8.9924 2.82859 9.43691L2.83097 9.43453Z" fill="#3A395B"/>
<path d="M37.4146 8.55734C37.3623 11.7449 37.3528 15.3794 37.3243 18.8166C37.2934 23.3853 37.2648 27.9564 37.2339 32.5274L37.2244 34.2412L37.2197 35.0994V35.5272L37.2173 35.6342L37.2125 35.7221C37.2125 35.7816 37.203 35.8386 37.1935 35.8957C37.1222 36.3568 36.837 36.7799 36.4352 37.02C36.238 37.1412 36.0145 37.2197 35.7839 37.2482C35.7269 37.2601 35.6675 37.2553 35.6104 37.2601C35.5557 37.2648 35.4725 37.2601 35.4036 37.2601H34.9757L28.1156 37.2339C23.5422 37.2244 18.9664 37.2125 14.393 37.203L7.53046 37.1959H4.09801L2.38417 37.1912C1.93729 37.1912 1.50229 36.9843 1.21229 36.6444C1.06491 36.4757 0.957947 36.276 0.898521 36.0621C0.834341 35.8434 0.834341 35.6461 0.836718 35.3347V33.6185V30.186V23.3211L0.829586 9.58897V2.72409C0.822455 2.41032 0.824832 2.22253 0.893767 1.99909C0.957947 1.78516 1.07204 1.58548 1.21942 1.41672C1.51655 1.0768 1.94917 0.877127 2.41507 0.881881H5.84752H19.5773C26.9318 0.886635 35.7245 0.808193 35.5272 0.503932C35.3561 0.213933 27.7448 0.0237704 19.1566 0.00713112C16.1496 -0.00237704 13.1355 -0.00237704 10.1476 0.00713112C7.6612 0.0190163 5.17006 0.0309015 2.66704 0.0427867C2.38417 0.0380326 1.96343 0.0427867 1.61401 0.175901C1.25983 0.301884 0.934176 0.508686 0.672702 0.777292C0.413605 1.05065 0.216311 1.38344 0.10459 1.74237C0.0546719 1.92302 0.0142622 2.10843 0.00713112 2.29622L0 2.43646V2.55769V2.79302C0.00237704 4.05285 0.00475408 5.31506 0.00950815 6.5844C0.0142622 11.6594 0.0190163 16.8152 0.0237704 22.1136C0.0237704 24.7616 0.0237704 27.4477 0.0237704 30.1741C0.0237704 31.5386 0.0237704 32.9125 0.0237704 34.2983C0.0237704 34.6453 0.0237704 34.9924 0.0237704 35.3394V35.6009C0.0261474 35.6936 0.0285245 35.803 0.0404097 35.9052C0.0665571 36.1096 0.114098 36.314 0.19254 36.5042C0.494424 37.2767 1.22655 37.871 2.06089 37.9779C2.16311 37.997 2.26769 37.997 2.37228 38.0041H2.64089H3.17097C3.52515 38.0041 3.87933 38.0041 4.23588 38.0041C4.94662 38.0041 5.66211 38.0041 6.37997 38.0041C7.8157 38.0041 9.26807 38.0017 10.7323 37.9993C13.6632 37.9946 16.6512 37.9898 19.7033 37.9851C22.6175 37.9898 25.8051 37.997 29.1972 38.0017C30.892 38.0041 32.6391 38.0089 34.429 38.0112C34.6525 38.0112 34.8759 38.0112 35.1017 38.0112C35.3347 38.0089 35.5296 38.0207 35.8172 37.9993C36.3521 37.9447 36.8702 37.7022 37.2577 37.3195C37.6428 36.9368 37.8947 36.4139 37.9518 35.8671L37.9637 35.6603C37.9661 35.5914 37.9637 35.5415 37.9637 35.4821V35.135C37.9637 34.9021 37.9637 34.6691 37.9637 34.4362C37.9756 26.9699 37.9875 18.9593 37.9993 10.9486C38.0017 8.43373 37.9993 5.66924 37.9637 3.45859C37.9589 3.18285 37.9542 2.91425 37.9494 2.65753C37.9494 2.4222 37.9328 2.09655 37.8496 1.83507C37.6951 1.29786 37.3599 0.896144 37.0248 0.646555C36.6848 0.394588 36.3378 0.289999 36.0787 0.254343C35.8172 0.216311 35.6342 0.247212 35.551 0.273359C35.4844 0.29713 35.5272 0.3209 35.6508 0.344671C35.7744 0.366064 35.9812 0.408851 36.2332 0.511063C36.4828 0.615653 36.7823 0.791554 37.0295 1.08393C37.2839 1.36917 37.4764 1.77327 37.5168 2.23204C37.4859 4.1099 37.4431 6.54636 37.4098 8.55259L37.4146 8.55734Z" fill="#3A395B"/>
<path d="M32.7342 4.45936C32.0377 4.40707 31.2438 4.39756 30.4926 4.36904C22.501 4.08142 14.4928 4.21453 6.48928 4.19076C4.8824 4.186 2.95938 4.26445 3.00217 4.56871C3.0402 4.86108 4.70413 5.05125 6.57961 5.06789C7.23567 5.07739 7.89649 5.07739 8.5478 5.06789C12.8954 4.95141 17.3167 5.02985 22.6579 4.97756C25.2061 4.99895 28.7075 5.02985 32.2112 5.05125C33.3118 5.05838 34.6263 5.03223 34.7642 4.79928C34.8711 4.59723 33.6137 4.5283 32.7365 4.46174L32.7342 4.45936Z" fill="#3A395B"/>
<path d="M33.212 10.2427C32.6795 10.1904 32.071 10.1809 31.4958 10.1524C25.382 9.86474 19.2517 9.99785 13.126 9.97408C11.8947 9.96933 10.4233 10.0478 10.4566 10.352C10.4851 10.6444 11.7592 10.8346 13.195 10.8512C13.6965 10.8607 14.2028 10.8607 14.702 10.8512C18.0275 10.7347 21.4124 10.8132 25.4985 10.7609C27.4501 10.7823 30.129 10.8132 32.8079 10.8346C33.6494 10.8417 34.6572 10.8156 34.7618 10.5826C34.8426 10.3806 33.8823 10.3116 33.2096 10.2451L33.212 10.2427Z" fill="#3A395B"/>
<path d="M33.212 24.3266C32.6795 24.2744 32.071 24.2648 31.4958 24.2387C25.382 23.9511 19.2517 24.0842 13.126 24.0604C11.8947 24.0557 10.4233 24.1341 10.4566 24.4384C10.4851 24.7307 11.7592 24.9209 13.195 24.9375C13.6965 24.9471 14.2028 24.9471 14.702 24.9375C18.0275 24.8211 21.4124 24.8995 25.4985 24.8472C27.4501 24.8686 30.129 24.8995 32.8079 24.9209C33.6494 24.928 34.6572 24.9019 34.7618 24.6689C34.8426 24.4669 33.8823 24.398 33.2096 24.3314L33.212 24.3266Z" fill="#3A395B"/>
<path d="M33.212 31.7666C32.6795 31.7144 32.071 31.7048 31.4958 31.6763C25.382 31.3887 19.2517 31.5218 13.126 31.498C11.8947 31.4933 10.4233 31.5717 10.4566 31.876C10.4851 32.1684 11.7592 32.3585 13.195 32.3752C13.6965 32.3847 14.2028 32.3847 14.702 32.3752C18.0275 32.2587 21.4124 32.3371 25.4985 32.2848C27.4501 32.3062 30.129 32.3371 32.8079 32.3585C33.6494 32.3657 34.6572 32.3395 34.7618 32.1066C34.8426 31.9045 33.8823 31.8356 33.2096 31.769L33.212 31.7666Z" fill="#3A395B"/>
<path d="M5.03224 19.1614C5.72871 19.2137 6.52264 19.2232 7.27379 19.2517C15.2654 19.5393 23.2736 19.4062 31.2771 19.43C32.884 19.4348 34.807 19.3563 34.7642 19.0521C34.7262 18.7597 33.0623 18.5695 31.1868 18.5529C30.5307 18.5434 29.8699 18.5434 29.2186 18.5529C24.871 18.6694 20.4497 18.5909 15.1085 18.6432C12.5603 18.6218 9.05894 18.5909 5.55519 18.5695C4.45462 18.5624 3.14012 18.5885 3.00225 18.8215C2.89528 19.0235 4.15273 19.0925 5.02986 19.159L5.03224 19.1614Z" fill="#3A395B"/>
</svg>
