<svg width="61" height="62" viewBox="0 0 61 62" fill="none" xmlns="http://www.w3.org/2000/svg">
<path d="M57.035 0.717397H3.77005C2.02241 0.763187 0.629639 2.1903 0.629639 3.93794V57.2029C0.629639 58.9811 2.07202 60.4196 3.84637 60.4196H57.1113C58.8895 60.4196 60.328 58.9772 60.328 57.2029V3.854C60.2861 2.07583 58.8094 0.671608 57.0312 0.717397H57.035ZM4.81559 13.4966H11.2529V19.9338H4.81559V13.4966ZM11.2529 42.4624H4.81559V36.0251H11.2529V42.4624ZM4.81559 47.9991H11.2529V54.4364H4.81559V47.9991Z" fill="#FCB415"/>
<path d="M4.54468 49.6437C4.46073 50.2084 4.44547 50.8533 4.40349 51.46C4.37296 51.9561 4.33862 52.4521 4.3081 52.9444L4.26994 53.6885L4.2356 55.0126C5.50245 55.0469 6.7693 55.0774 8.03615 55.1118L9.64642 55.1347L11.9703 55.1461L11.955 47.2932H7.64312C6.33811 47.2817 4.78126 47.4115 4.8156 47.8999C4.84613 48.3692 6.19311 48.6745 7.71562 48.7012C8.24983 48.7165 8.78405 48.7165 9.31063 48.7012C9.63116 48.6859 9.95168 48.6707 10.276 48.6592L10.5202 48.6516C10.5546 48.6516 10.5431 48.6478 10.5584 48.644C10.5775 48.6401 10.5966 48.6325 10.6233 48.6287L10.6309 48.6707V48.6936L10.6347 48.705V48.7126V48.7623C10.6347 49.0179 10.6423 49.2774 10.6462 49.5369C10.6462 50.0558 10.6538 50.5824 10.6576 51.1166C10.6576 51.9942 10.6576 52.8986 10.6576 53.8411C9.87155 53.8525 9.05115 53.8602 8.19259 53.8716C7.74233 53.864 7.2539 53.8564 6.70061 53.8487C6.42206 53.8449 6.13205 53.8411 5.81916 53.8373C5.73903 53.8373 5.66271 53.8373 5.57876 53.8373C5.52534 53.8373 5.52534 53.8373 5.51771 53.8373H5.49863C5.47573 53.8335 5.44902 53.8297 5.42231 53.8297C5.42231 53.8068 5.42995 53.7839 5.42995 53.7572V53.7228C5.43758 53.6465 5.43758 53.5702 5.43758 53.49C5.44139 53.1504 5.44902 52.7918 5.45666 52.4216C5.4681 51.6775 5.47574 50.8762 5.48718 50.0749C5.49863 49.182 5.45666 48.1174 5.08271 48.0067C4.75836 47.919 4.6477 48.9378 4.54086 49.6513L4.54468 49.6437Z" fill="#3A395B"/>
<path d="M11.5238 40.814C11.6078 40.2493 11.623 39.6044 11.6688 38.9977C11.6993 38.5017 11.7337 38.0056 11.7642 37.5134L11.8024 36.7693L11.8367 35.4452C10.5699 35.4109 9.303 35.3803 8.03615 35.346L6.42588 35.3231L4.10205 35.3116L4.11731 43.1646H8.42918C9.73038 43.176 11.291 43.0463 11.2567 42.5579C11.2262 42.0885 9.87919 41.7833 8.35668 41.7566C7.82247 41.7413 7.28825 41.7413 6.76167 41.7566C6.44114 41.7718 6.12062 41.7871 5.79627 41.7985L5.55206 41.8062C5.51772 41.8062 5.52917 41.81 5.5139 41.8138C5.49482 41.8176 5.47574 41.8252 5.44903 41.8291L5.4414 41.7871V41.7642L5.43759 41.7527V41.7451V41.6955C5.43759 41.4398 5.42995 41.1804 5.42614 40.9209C5.42614 40.4019 5.41851 39.8754 5.41851 39.3411C5.41851 38.4635 5.41851 37.5592 5.41851 36.6167C6.20456 36.6052 7.02496 36.5976 7.88352 36.5861C8.33379 36.5938 8.82221 36.6014 9.3755 36.609C9.65406 36.6128 9.94406 36.6167 10.257 36.6205C10.3371 36.6205 10.4134 36.6205 10.4974 36.6205C10.5508 36.6205 10.5508 36.6205 10.5584 36.6205H10.5775C10.6004 36.6243 10.6271 36.6281 10.6538 36.6281C10.6538 36.651 10.6462 36.6739 10.6462 36.7006V36.7349C10.6385 36.8113 10.6385 36.8876 10.6385 36.9677C10.6347 37.3073 10.6271 37.666 10.6195 38.0361C10.608 38.7802 10.6004 39.5815 10.5889 40.3829C10.5775 41.2758 10.6195 42.3404 10.9934 42.451C11.3178 42.5388 11.4284 41.52 11.5353 40.8064L11.5238 40.814Z" fill="#3A395B"/>
<path d="M4.54468 15.145C4.46073 15.7098 4.44547 16.3547 4.40349 16.9614C4.37296 17.4574 4.33862 17.9535 4.3081 18.4457L4.26994 19.1898L4.2356 20.5139C5.50245 20.5482 6.7693 20.5788 8.03615 20.6131L9.64642 20.636L11.9703 20.6475L11.955 12.7945H7.64312C6.33811 12.7831 4.78126 12.9128 4.8156 13.4012C4.84613 13.8706 6.19311 14.1758 7.71562 14.2025C8.24983 14.2178 8.78405 14.2178 9.31063 14.2025C9.63116 14.1873 9.95168 14.172 10.276 14.1606L10.5202 14.1529C10.5546 14.1529 10.5431 14.1491 10.5584 14.1453C10.5775 14.1415 10.5966 14.1339 10.6233 14.13L10.6309 14.172V14.1949L10.6347 14.2064V14.214V14.2636C10.6347 14.5193 10.6423 14.7787 10.6462 15.0382C10.6462 15.5572 10.6538 16.0837 10.6576 16.618C10.6576 17.4956 10.6576 18.3999 10.6576 19.3424C9.87155 19.3539 9.05115 19.3615 8.19259 19.373C7.74233 19.3653 7.2539 19.3577 6.70061 19.3501C6.42206 19.3463 6.13205 19.3424 5.81916 19.3386C5.73903 19.3386 5.66271 19.3386 5.57876 19.3386C5.52534 19.3386 5.52534 19.3386 5.51771 19.3386H5.49863C5.47573 19.3348 5.44902 19.331 5.42231 19.331C5.42231 19.3081 5.42995 19.2852 5.42995 19.2585V19.2242C5.43758 19.1478 5.43758 19.0715 5.43758 18.9914C5.44139 18.6518 5.44902 18.2931 5.45666 17.9191C5.4681 17.1751 5.47574 16.3737 5.48718 15.5724C5.49863 14.6795 5.45666 13.6149 5.08271 13.5042C4.75836 13.4165 4.6477 14.4353 4.54086 15.1489L4.54468 15.145Z" fill="#3A395B"/>
<path d="M60.0609 13.7369C59.977 18.8539 59.9617 24.6883 59.9159 30.206C59.8663 37.54 59.8205 44.8778 59.7709 52.2156L59.7556 54.9668L59.748 56.3443V57.0312L59.7442 57.2029L59.7366 57.344C59.7366 57.4394 59.7213 57.531 59.706 57.6226C59.5916 58.3629 59.1337 59.0421 58.4888 59.4275C58.1721 59.6221 57.8134 59.748 57.4433 59.7938C57.3517 59.8129 57.2563 59.8052 57.1647 59.8129C57.0769 59.8205 56.9434 59.8129 56.8327 59.8129H56.1459L45.1334 59.7709C37.7918 59.7556 30.4464 59.7366 23.1047 59.7213L12.0885 59.7099H6.57846L3.82726 59.7022C3.10989 59.7022 2.41159 59.3702 1.94606 58.8246C1.70948 58.5537 1.53777 58.2331 1.44238 57.8897C1.33935 57.5387 1.33935 57.2219 1.34317 56.7221V53.967V48.457V37.4369L1.33172 15.393V4.37292C1.32027 3.86924 1.32409 3.56779 1.43475 3.2091C1.53777 2.86568 1.72093 2.54515 1.95751 2.27422C2.43449 1.72856 3.12897 1.40804 3.87687 1.41567H9.3869H31.427C43.2332 1.4233 57.3479 1.29738 57.0312 0.808952C56.7564 0.343423 44.5382 0.0381581 30.7516 0.0114474C25.9246 -0.00381581 21.0862 -0.00381581 16.2897 0.0114474C12.2984 0.0305265 8.29939 0.0496056 4.28134 0.0686846C3.82726 0.061053 3.15186 0.0686846 2.59094 0.28237C2.02238 0.484608 1.49961 0.816584 1.07988 1.24777C0.663951 1.68659 0.347239 2.2208 0.167896 2.79699C0.0877637 3.08699 0.0228949 3.38463 0.0114474 3.68608L0 3.91121V4.10582V4.48358C0.00381581 6.50596 0.00763163 8.53216 0.0152633 10.5698C0.0228949 18.7166 0.0305265 26.9931 0.0381581 35.4985C0.0381581 39.7493 0.0381581 44.0612 0.0381581 48.4379C0.0381581 50.6282 0.0381581 52.8338 0.0381581 55.0584C0.0381581 55.6155 0.0381581 56.1726 0.0381581 56.7297V57.1494C0.0419739 57.2983 0.0457898 57.4738 0.0648688 57.6379C0.106843 57.966 0.183159 58.2942 0.309081 58.5995C0.793689 59.8396 1.96896 60.7935 3.30831 60.9653C3.47239 60.9958 3.64029 60.9958 3.80818 61.0072H4.23937H5.0903C5.65885 61.0072 6.22741 61.0072 6.79978 61.0072C7.94071 61.0072 9.08927 61.0072 10.2416 61.0072C12.5464 61.0072 14.8779 61.0034 17.2284 60.9996C21.9333 60.992 26.7298 60.9843 31.6293 60.9767C36.3075 60.9843 41.4245 60.9958 46.8696 61.0034C49.5903 61.0072 52.3949 61.0149 55.2682 61.0187C55.6269 61.0187 55.9856 61.0187 56.3481 61.0187C56.7221 61.0149 57.035 61.0339 57.4967 60.9996C58.3552 60.9118 59.1871 60.5226 59.8091 59.9083C60.4272 59.2939 60.8317 58.4544 60.9233 57.5768L60.9424 57.2448C60.9462 57.1342 60.9424 57.054 60.9424 56.9587V56.4015C60.9424 56.0276 60.9424 55.6536 60.9424 55.2797C60.9614 43.2942 60.9805 30.4349 60.9996 17.5756C61.0034 13.5385 60.9996 9.10072 60.9424 5.55201C60.9347 5.10937 60.9271 4.67819 60.9195 4.26608C60.9195 3.88831 60.8927 3.36555 60.7592 2.94581C60.5112 2.08343 59.9731 1.43856 59.4351 1.0379C58.8894 0.633425 58.3323 0.465529 57.9164 0.408292C57.4967 0.347239 57.2029 0.396845 57.0693 0.438819C56.9625 0.476977 57.0311 0.515135 57.2296 0.553293C57.428 0.587635 57.76 0.65632 58.1644 0.8204C58.5651 0.988296 59.0459 1.27067 59.4427 1.74001C59.851 2.19791 60.1601 2.8466 60.225 3.58305C60.1754 6.59754 60.1067 10.5088 60.0533 13.7293L60.0609 13.7369Z" fill="#3A395B"/>
<path d="M52.5476 7.1585C51.4295 7.07456 50.155 7.05929 48.9492 7.0135C36.1205 6.55179 23.265 6.76547 10.4172 6.72732C7.83767 6.71968 4.75068 6.84561 4.81936 7.33403C4.88042 7.80338 7.55149 8.10864 10.5622 8.13535C11.6153 8.15061 12.6761 8.15061 13.7217 8.13535C20.7008 7.94838 27.7982 8.0743 36.3723 7.99035C40.4629 8.02469 46.0836 8.0743 51.7081 8.10864C53.4748 8.12009 55.5849 8.07811 55.8063 7.70417C55.978 7.37982 53.9594 7.26916 52.5514 7.16232L52.5476 7.1585Z" fill="#3A395B"/>
<path d="M53.3145 16.4424C52.4597 16.3585 51.4829 16.3432 50.5594 16.2974C40.7452 15.8357 30.9042 16.0494 21.0708 16.0113C19.0942 16.0036 16.7323 16.1295 16.7857 16.618C16.8315 17.0873 18.8767 17.3926 21.1815 17.4193C21.9866 17.4346 22.7994 17.4346 23.6007 17.4193C28.939 17.2323 34.3728 17.3582 40.9321 17.2743C44.0649 17.3086 48.3654 17.3582 52.6658 17.3926C54.0166 17.404 55.6345 17.3621 55.8024 16.9881C55.9321 16.6638 54.3905 16.5531 53.3106 16.4463L53.3145 16.4424Z" fill="#3A395B"/>
<path d="M53.3145 39.051C52.4597 38.9671 51.4829 38.9518 50.5594 38.9099C40.7452 38.4482 30.9042 38.6618 21.0708 38.6237C19.0942 38.616 16.7323 38.742 16.7857 39.2304C16.8315 39.6997 18.8767 40.005 21.1815 40.0317C21.9866 40.047 22.7994 40.047 23.6007 40.0317C28.939 39.8447 34.3728 39.9707 40.9321 39.8867C44.0649 39.9211 48.3654 39.9707 52.6658 40.005C54.0166 40.0164 55.6345 39.9745 55.8024 39.6005C55.9321 39.2762 54.3905 39.1655 53.3106 39.0587L53.3145 39.051Z" fill="#3A395B"/>
<path d="M53.3145 50.9944C52.4597 50.9105 51.4829 50.8952 50.5594 50.8494C40.7452 50.3877 30.9042 50.6014 21.0708 50.5633C19.0942 50.5556 16.7323 50.6815 16.7857 51.17C16.8315 51.6393 18.8767 51.9446 21.1815 51.9713C21.9866 51.9866 22.7994 51.9866 23.6007 51.9713C28.939 51.7843 34.3728 51.9102 40.9321 51.8263C44.0649 51.8606 48.3654 51.9102 52.6658 51.9446C54.0166 51.956 55.6345 51.9141 55.8024 51.5401C55.9321 51.2158 54.3905 51.1051 53.3106 50.9983L53.3145 50.9944Z" fill="#3A395B"/>
<path d="M8.07806 30.7593C9.19609 30.8432 10.4706 30.8585 11.6764 30.9043C24.5051 31.366 37.3606 31.1523 50.2085 31.1905C52.7879 31.1981 55.8749 31.0722 55.8062 30.5838C55.7452 30.1144 53.0741 29.8092 50.0635 29.7824C49.0103 29.7672 47.9495 29.7672 46.904 29.7824C39.9248 29.9694 32.8274 29.8435 24.2533 29.9274C20.1627 29.8931 14.542 29.8435 8.91754 29.8092C7.15082 29.7977 5.04067 29.8397 4.81935 30.2136C4.64764 30.538 6.66621 30.6486 8.07424 30.7555L8.07806 30.7593Z" fill="#3A395B"/>
</svg>
