<svg width="62" height="62" viewBox="0 0 62 62" fill="none" xmlns="http://www.w3.org/2000/svg">
<path d="M30.6593 62C47.592 62 61.3186 48.1208 61.3186 31C61.3186 13.8792 47.592 0 30.6593 0C13.7266 0 0 13.8792 0 31C0 48.1208 13.7266 62 30.6593 62Z" fill="#71A89B"/>
<path d="M27.5065 44.2429C27.5091 44.1019 27.5143 43.9714 27.5143 43.8174C27.5143 43.6633 27.4962 43.5015 27.4445 43.3396C27.3929 43.1777 27.3025 43.0159 27.1708 42.8879C27.0366 42.7574 26.8662 42.6765 26.6983 42.6347C26.5305 42.5903 26.3549 42.5877 26.2181 42.5773C26.0735 42.5694 25.9263 42.559 25.7791 42.5512C25.4848 42.5329 25.1878 42.5172 24.8909 42.4989C23.7032 42.4258 22.4844 42.3788 21.307 42.3162L20.1296 42.2561C19.732 42.2379 19.355 42.2222 19.0297 42.1256C18.6992 42.029 18.5055 41.8619 18.4074 41.5617C18.3118 41.2536 18.2989 40.8777 18.3067 40.4887L18.3222 38.092C18.2989 37.2618 18.1285 36.382 17.6586 35.6327C17.4288 35.2594 17.1319 34.9252 16.7988 34.6485L16.5406 34.4526L16.2772 34.2777C16.2049 34.2333 16.1429 34.1864 16.0939 34.142C16.0448 34.0924 16.0345 34.0793 16.0293 34.0637C16.0242 34.0454 16.0216 34.0271 16.0293 34.0114C16.0396 33.9801 16.068 33.9148 16.1068 33.8496C16.1842 33.7216 16.3159 33.5572 16.4295 33.3979L17.1344 32.4345C17.5992 31.7766 18.0511 31.1109 18.4151 30.3407C18.7689 29.5732 18.9806 28.7534 19.1045 27.9415C19.2311 27.1269 19.2801 26.3202 19.324 25.5239C19.3679 24.7224 19.3937 23.9288 19.4454 23.1455C19.4712 22.7539 19.5022 22.3623 19.5486 21.9812C19.5925 21.6052 19.6597 21.2319 19.7475 20.8664C19.9256 20.1354 20.2019 19.4331 20.5737 18.783C21.3354 17.4933 22.3941 16.3393 23.6515 15.5326C24.9116 14.7155 26.3704 14.2377 27.8732 14.0315C28.6271 13.927 29.3837 13.8774 30.1479 13.9035C30.9122 13.9192 31.6843 14.0001 32.446 14.0967C33.2206 14.1907 33.9694 14.3134 34.7001 14.5249C35.4308 14.7311 36.1486 14.9922 36.8303 15.3238C38.2013 15.9791 39.4227 16.898 40.3754 18.0833C40.8557 18.6733 41.2869 19.3156 41.6871 19.9813C42.0847 20.6471 42.4333 21.3259 42.7096 22.0386C43.2725 23.4588 43.5333 24.9887 43.4816 26.516C43.4326 28.0459 43.0762 29.5601 42.5237 31.0065C41.9711 32.458 41.2378 33.8391 40.4632 35.2228C40.0759 35.9199 39.686 36.6535 39.4226 37.4628C39.1748 38.2774 39.0199 39.0606 38.9037 39.8778C38.7229 41.1805 38.6971 42.5616 38.7901 43.8722C38.8778 45.1854 39.0767 46.4255 39.2832 47.4907C39.4924 48.5532 39.7093 49.4409 39.8823 50.0544C39.9261 50.2085 39.9675 50.3442 40.0036 50.4591C40.0243 50.5165 40.0423 50.5713 40.0578 50.6209C40.0785 50.6706 40.0837 50.7045 40.1275 50.7933C40.1714 50.8768 40.2747 50.929 40.3186 50.929C40.3677 50.9342 40.3883 50.929 40.4012 50.9212C40.4245 50.9081 40.4503 50.9029 40.4503 50.8794C40.4503 50.8559 40.4426 50.8272 40.4012 50.7985C40.3548 50.7698 40.3083 50.728 40.3212 50.6575C40.3238 50.4852 40.3135 50.245 40.2876 49.9395C40.236 49.3312 40.1276 48.4801 40.001 47.4489C39.7557 45.3969 39.4356 42.606 39.8874 39.7316C39.9675 39.2303 40.0707 38.7343 40.1947 38.2434C40.3109 37.7631 40.4813 37.314 40.693 36.8598C41.1165 35.9617 41.669 35.0583 42.1415 34.1211C42.9342 32.5703 43.6417 30.9282 44.0393 29.1763C44.437 27.4298 44.5196 25.5735 44.1478 23.78C43.9645 22.8845 43.6882 22.0047 43.3112 21.1692C42.9368 20.3286 42.4772 19.5375 41.9789 18.7726C41.4754 18.0076 40.9073 17.2662 40.236 16.6056C39.5621 15.9451 38.7978 15.3812 37.9767 14.9139C36.3397 13.9819 34.4677 13.4153 32.5751 13.2091C31.6275 13.0864 30.6721 12.995 29.6909 13.0002C28.7097 13.0054 27.7234 13.1099 26.7448 13.3239C25.7688 13.5432 24.7928 13.8696 23.8891 14.3656C22.9802 14.8538 22.1333 15.4882 21.4103 16.2506C20.6873 17.0129 20.0418 17.8666 19.5667 18.8509C19.0916 19.8299 18.8102 20.9107 18.7017 22.002C18.5907 23.0307 18.5571 24.1011 18.5029 25.195C18.4409 26.2915 18.3919 27.4245 18.1466 28.5289C18.0252 29.0797 17.8445 29.6202 17.5992 30.1319C17.3462 30.641 17.0234 31.1527 16.68 31.6513C16.334 32.1526 15.9622 32.6512 15.5852 33.1682C15.4897 33.3039 15.3761 33.458 15.2909 33.6668C15.2495 33.7686 15.2082 33.9279 15.2108 34.0741C15.2108 34.2229 15.2599 34.3691 15.3347 34.4944C15.3735 34.5623 15.4148 34.6119 15.4587 34.6641C15.5 34.7059 15.5413 34.7503 15.5826 34.7816C15.6652 34.8521 15.7453 34.9095 15.8228 34.9591L16.019 35.0871C16.081 35.1262 16.1378 35.168 16.1946 35.2124C16.6568 35.5596 17.0182 36.0191 17.2377 36.5621C17.4598 37.1078 17.545 37.7109 17.5424 38.3609C17.5424 39.0267 17.5424 39.6976 17.5424 40.3738C17.5424 40.7028 17.5346 41.0813 17.6069 41.4703C17.6379 41.6661 17.7025 41.8776 17.8109 42.0812C17.9142 42.2875 18.0924 42.4859 18.2886 42.6138C18.6914 42.8775 19.0942 42.9271 19.4583 42.9715L19.732 42.9924L19.9876 43.0028L20.4988 43.0237C21.1805 43.0524 21.8647 43.0785 22.5516 43.1072C23.2384 43.136 23.9252 43.1673 24.6146 43.196L25.65 43.2456L26.169 43.2717C26.3627 43.2822 26.4711 43.2822 26.5666 43.3109C26.6828 43.35 26.7396 43.3944 26.7913 43.4832C26.8403 43.5798 26.8713 43.726 26.8687 43.9166C26.8687 44.3656 26.8713 44.8199 26.8739 45.2637C26.8791 46.154 26.8894 47.0207 26.9101 47.7883C26.9488 49.326 27.0185 50.4826 27.145 50.6993C27.3645 51.0387 27.4394 47.0416 27.5117 44.2507L27.5065 44.2429Z" fill="white" stroke="white" stroke-width="0.5"/>
<path d="M32.7241 36.5205C32.7809 36.0819 32.7912 35.5781 32.8196 35.1055C32.8971 33.8445 32.9461 32.5809 32.9771 31.3173L33.0107 29.4219C33.021 29.1217 32.9978 28.7275 33.0442 28.6178C33.0649 28.55 33.0985 28.4951 33.1708 28.422L33.4935 28.0905L34.8104 26.7329L35.4714 26.0489C35.585 25.9183 35.7425 25.7695 35.8432 25.4719C35.8897 25.3257 35.9 25.1586 35.8716 25.0098C35.8458 24.8636 35.7941 24.7383 35.7399 24.6417C35.7115 24.5869 35.6831 24.5477 35.6547 24.4981C35.6469 24.4798 35.6469 24.485 35.6444 24.4772C35.6392 24.4668 35.6366 24.4511 35.634 24.4276C35.634 24.378 35.6521 24.2971 35.696 24.2161C35.7399 24.1352 35.807 24.0595 35.8767 24.0021C35.9129 23.9707 35.9516 23.9498 35.9878 23.9316C36.0291 23.9107 36.073 23.8976 36.1117 23.8872C36.2692 23.8532 36.3957 23.8898 36.5274 24.0203C36.592 24.083 36.6514 24.177 36.6953 24.2736C36.7288 24.3519 36.7417 24.4198 36.7314 24.4798C36.7237 24.5764 36.6565 24.7043 36.5274 24.8297C36.357 24.9785 36.3518 24.9967 36.215 25.0255C36.0833 25.0463 35.8845 25.0228 35.7322 25.049C35.5772 25.0725 35.4894 25.1429 35.4946 25.2239C35.4998 25.3048 35.5617 25.3805 35.6521 25.4667C35.7476 25.5476 35.8716 25.6625 36.1298 25.7434C36.2589 25.7826 36.4345 25.7982 36.6152 25.7539C36.7056 25.733 36.7908 25.699 36.8734 25.6573C36.9483 25.6181 37.0129 25.5789 37.0851 25.5293C37.222 25.4301 37.3614 25.3022 37.475 25.1273C37.5861 24.955 37.6739 24.7304 37.6842 24.4903C37.7074 24.1509 37.5706 23.835 37.4311 23.6209C37.284 23.3885 37.0645 23.1666 36.7779 23.0387C36.5403 22.9316 36.2615 22.9029 36.0136 22.9473C35.7683 22.9943 35.5462 23.0935 35.3526 23.2423C35.1667 23.3911 35.0143 23.5687 34.9033 23.7801C34.7949 23.9916 34.7174 24.2422 34.7458 24.532C34.7639 24.6756 34.8052 24.827 34.8904 24.955L34.9524 25.0542C34.9653 25.0777 34.9782 25.0986 34.9834 25.1168C35.004 25.1952 35.0118 25.1664 34.9705 25.2552C34.9214 25.3361 34.7949 25.4641 34.6709 25.5946C34.547 25.7225 34.4205 25.8531 34.294 25.9836C33.7879 26.5031 33.2715 27.0383 32.7318 27.5944L32.5201 27.8137C32.4323 27.9077 32.3471 28.02 32.2851 28.1505C32.1509 28.409 32.1379 28.7197 32.1457 28.9181C32.1509 29.3227 32.156 29.7352 32.1612 30.1556C32.1405 31.7638 32.1121 33.9751 32.0837 36.1864C32.0811 36.5336 32.0837 36.9148 32.1225 37.2202C32.1509 37.5205 32.249 37.8102 32.3884 37.8337C32.502 37.8442 32.5356 37.6458 32.595 37.3925C32.6492 37.1341 32.6879 36.7973 32.7241 36.5205Z" fill="white" stroke="white" stroke-width="0.5"/>
<path d="M30.493 37.1861C30.5498 36.8441 30.5601 36.4551 30.5911 36.087C30.9035 32.1709 30.7589 28.247 30.7847 24.3257C30.7899 23.5372 30.7047 22.5947 30.3742 22.6182C30.0566 22.6365 29.85 23.4511 29.832 24.37C29.8216 24.6912 29.8216 25.0149 29.832 25.336C29.9585 27.4664 29.8733 29.6333 29.9301 32.2492C29.9068 33.4972 29.8733 35.215 29.85 36.9303C29.8423 37.4681 29.8707 38.113 30.1237 38.1808C30.3432 38.2331 30.4181 37.6169 30.4904 37.1888L30.493 37.1861Z" fill="white" stroke="white" stroke-width="0.5"/>
<path d="M28.3087 36.9252C28.3681 36.4761 28.3784 35.967 28.4068 35.484C28.4868 34.1996 28.5385 32.9151 28.5695 31.628L28.6056 29.6986L28.6108 29.2157V29.0956C28.6108 29.0486 28.6108 28.999 28.6108 28.9494C28.6108 28.8528 28.5979 28.7509 28.5824 28.6465C28.523 28.2314 28.2829 27.8137 28.0066 27.5474L26.6768 26.1689C26.4522 25.9366 26.2198 25.7068 25.9848 25.4797C25.8764 25.3779 25.8067 25.2969 25.7783 25.2395C25.755 25.1873 25.7499 25.1716 25.7628 25.0907C25.7705 25.0515 25.786 25.0045 25.8093 24.9497C25.8506 24.8453 25.8867 24.7356 25.9048 24.6181C25.9487 24.3858 25.9306 24.1221 25.8428 23.8898C25.7576 23.6548 25.6079 23.4564 25.4349 23.3076C25.3471 23.2292 25.2593 23.1718 25.1715 23.117C25.0811 23.0621 24.9804 23.0125 24.8668 22.9734C24.6422 22.8924 24.3427 22.8794 24.1051 22.9603C23.8624 23.0413 23.692 23.1561 23.5267 23.2971C23.3279 23.4746 23.2169 23.6704 23.1317 23.8715C23.0516 24.0751 23 24.284 23 24.5242C23 24.6181 23.0103 24.7226 23.0336 24.8296C23.0465 24.8844 23.0671 24.9419 23.0878 24.9967C23.1136 25.0515 23.1472 25.1194 23.1678 25.1481C23.2634 25.2996 23.3847 25.4405 23.5267 25.5528C23.8056 25.7851 24.1929 25.8922 24.5053 25.8374C24.6603 25.8139 24.7971 25.7564 24.8952 25.6938C24.9856 25.6337 25.0269 25.5893 25.0553 25.5528C25.0992 25.4823 25.1586 25.4275 25.1663 25.3439C25.1741 25.2682 25.1095 25.1664 24.9391 25.1455C24.8591 25.1325 24.7661 25.1429 24.6861 25.1455C24.6138 25.1455 24.5466 25.1351 24.4769 25.1142C24.3427 25.075 24.2213 24.9993 24.1077 24.8714C24.0535 24.8061 24.0018 24.7304 23.9605 24.6469C23.9502 24.6181 23.945 24.579 23.9502 24.4876C23.9605 24.3701 24.0096 24.2239 24.0741 24.1247C24.1077 24.0725 24.1335 24.0412 24.1671 24.0125C24.2265 23.9602 24.2833 23.9237 24.3323 23.8976C24.415 23.8532 24.4537 23.8401 24.5286 23.8506C24.5673 23.8558 24.6138 23.8715 24.6654 23.8976C24.7171 23.9211 24.779 23.9602 24.8178 23.989C24.9882 24.1221 25.0605 24.284 25.0166 24.4928C25.0011 24.5529 24.9933 24.5738 24.9443 24.7043C24.9081 24.814 24.8746 24.9393 24.8668 25.0776C24.8565 25.216 24.8771 25.3727 24.9262 25.5084C24.9753 25.6468 25.0476 25.7617 25.1199 25.8582C25.1947 25.9548 25.2722 26.0332 25.3471 26.1063L25.5407 26.2916C25.6673 26.4196 25.7964 26.5475 25.9255 26.6754C26.429 27.2002 26.9479 27.7406 27.485 28.2993C27.6787 28.5369 27.7458 28.7849 27.7381 29.1739C27.7432 29.5864 27.7458 30.0067 27.751 30.4349C27.7277 32.0744 27.6967 34.3275 27.6632 36.5806C27.6554 37.2881 27.6838 38.1339 27.9343 38.2227C28.1538 38.2906 28.2286 37.4839 28.3035 36.9199L28.3087 36.9252Z" fill="white" stroke="white" stroke-width="0.5"/>
<path d="M30.0387 22.2447C29.969 22.1298 29.8761 22.0359 29.8089 21.9158C29.7186 21.7617 29.685 21.6234 29.6876 21.5085C29.6927 21.3936 29.7289 21.3101 29.7986 21.2213C29.8632 21.1352 29.9793 21.0307 30.0826 20.9759C30.1885 20.9159 30.2944 20.8897 30.3847 20.895C30.4803 20.9002 30.5422 20.9237 30.6378 20.9968C30.7256 21.0699 30.7927 21.1587 30.8237 21.2552C30.8934 21.4458 30.8237 21.7095 30.6507 21.8401C30.5164 21.9575 30.1704 22.2082 30.3331 22.5032C30.4105 22.6442 30.5397 22.7251 30.7049 22.7486C30.8676 22.7695 31.0819 22.7251 31.2884 22.5554C31.4356 22.4405 31.5647 22.276 31.6396 22.0985C31.7506 21.8035 31.7894 21.4798 31.7222 21.1665C31.6577 20.8532 31.4898 20.5608 31.2549 20.3519C31.1413 20.2501 31.0018 20.1509 30.8366 20.0856C30.6739 20.0204 30.4932 19.9917 30.3176 20.0021C29.9613 20.0204 29.6334 20.1901 29.3932 20.4329C29.2719 20.5399 29.1453 20.6731 29.0421 20.861C28.9414 21.0464 28.8717 21.2918 28.8923 21.5424C28.9078 21.7931 29.0033 22.0332 29.135 22.2291C29.2047 22.3309 29.2693 22.4066 29.339 22.4849C29.4113 22.5632 29.4913 22.6416 29.5817 22.712C29.6927 22.8034 29.8425 22.8817 29.9768 22.8948C30.111 22.9105 30.2221 22.8635 30.266 22.7434C30.3305 22.5371 30.1214 22.3961 30.0413 22.2447H30.0387Z" fill="white" stroke="white" stroke-width="0.5"/>
</svg>
