<svg width="44" height="44" viewBox="0 0 44 44" fill="none" xmlns="http://www.w3.org/2000/svg">
<g clip-path="url(#clip0_113_404)">
<path d="M42.1666 13.4653C41.6174 12.0681 40.8647 10.6507 39.929 9.31431C38.9932 7.97791 37.8948 6.7225 36.6742 5.62908C35.8809 4.90014 35.0265 4.25219 34.1315 3.64473C33.2364 3.03728 32.2803 2.51081 31.3039 2.0451C31.0598 1.94386 30.8157 1.80212 30.5716 1.70087L29.7986 1.4174C29.5545 1.31615 29.29 1.23516 29.0256 1.15416C28.7611 1.05292 28.517 0.992177 28.2526 0.911183C27.744 0.749195 27.1948 0.627704 26.6659 0.506213C26.4015 0.445467 26.137 0.40497 25.8726 0.344225C25.7302 0.323976 25.6081 0.283479 25.4657 0.263231L25.0589 0.202485C24.0011 0.0607455 22.923 0 21.8245 0C20.726 0 19.6479 0.101243 18.5697 0.263231C16.4135 0.607455 14.2979 1.25541 12.3451 2.22734C8.41903 4.13069 5.08292 7.24896 2.90632 11.0354C2.35708 11.9871 1.88921 12.959 1.48237 13.9917C1.09587 15.0041 0.750051 16.0571 0.526288 17.1302C0.282182 18.2034 0.119446 19.2766 0.0584192 20.37L0.017735 20.775L-0.0026071 21.1799C-0.0026071 21.4432 -0.0229492 21.7266 -0.0229492 21.9899C-0.0026071 22.5366 -0.0026071 23.0833 0.0380771 23.63C0.0584193 24.1767 0.139788 24.7234 0.221156 25.2499C0.322867 25.7966 0.404235 26.3231 0.526288 26.8495C0.648341 27.376 0.790735 27.9024 0.953472 28.4289C1.13655 28.9554 1.29929 29.4616 1.50271 29.9678C1.68579 30.474 1.92989 30.9802 2.15366 31.4662C2.39776 31.9521 2.64187 32.4381 2.92666 32.9038C3.19111 33.3898 3.49624 33.8353 3.80137 34.301L4.26924 34.9692C4.43197 35.1919 4.59471 35.3944 4.77779 35.6171C7.52398 39.0796 11.3076 41.6714 15.4981 42.9876C19.6886 44.3037 24.2655 44.3442 28.4764 43.1091C32.6872 41.8739 36.5115 39.3631 39.2984 36.0018C40.4172 34.6452 41.4139 33.0861 42.1666 31.4864C42.9193 29.8868 43.4075 28.2467 43.6923 26.809C43.9771 25.3714 44.0381 24.116 43.9974 23.2655C43.9567 22.3948 43.8347 21.9291 43.7126 21.9696C43.4278 22.0506 43.3261 23.8527 42.6141 26.4648C42.248 27.7607 41.7191 29.2591 40.9461 30.798C40.5596 31.5674 40.112 32.3369 39.6035 33.1063C39.3594 33.491 39.0746 33.8555 38.7898 34.2402C38.6474 34.4225 38.505 34.6047 38.3423 34.7869L38.1185 35.0704L37.8744 35.3336C36.1047 37.3585 33.9687 39.0391 31.5887 40.2743C29.6359 41.3069 27.4796 42.0156 25.2623 42.3599C23.045 42.6838 20.7464 42.7041 18.5087 42.2991C14.0131 41.5499 9.72092 39.2011 6.5679 35.6374C3.39453 32.0939 1.42134 27.3152 1.38066 22.2531C1.33997 19.722 1.76716 17.1505 2.68255 14.7004C3.59795 12.2503 5.0219 9.90152 6.87303 7.89692C8.66313 5.99356 11.0025 4.23194 13.7893 3.01703C16.5762 1.78187 19.831 1.17441 23.1874 1.3364C24.8555 1.4174 26.5439 1.72112 28.2119 2.22734C29.8596 2.73355 31.4667 3.46249 32.972 4.37368C35.9826 6.21629 38.5457 8.86884 40.2748 12.0074C40.824 12.9793 41.3122 14.0525 41.6987 15.1256C42.1056 16.1988 42.37 17.272 42.5938 18.2439C42.8176 19.2158 42.9193 20.0663 43.021 20.7142C43.1227 21.3622 43.1837 21.8076 43.3058 21.9494C43.3871 22.0506 43.4685 21.8076 43.5092 21.3217C43.5295 21.2002 43.5295 21.0584 43.5499 20.9167C43.5499 20.775 43.5499 20.5927 43.5499 20.4307C43.5499 20.2485 43.5499 20.0663 43.5499 19.8638C43.5499 19.6613 43.5295 19.4588 43.5092 19.2361C43.4482 18.3654 43.2854 17.3732 43.0617 16.381C42.8379 15.3281 42.4921 14.3562 42.1666 13.4653Z" fill="#545AE8"/>
<path d="M16.9736 24.3655L15.6389 29.1632H13.9333L18.2837 13.9333H20.2858L24.6609 29.1386H22.8812L21.5217 24.3409H16.9736V24.3655ZM21.1757 22.8154L19.9151 18.4359C19.6184 17.4517 19.4454 16.5414 19.2477 15.6556H19.1982C19.0005 16.566 18.8028 17.4763 18.5556 18.4113L17.295 22.8154H21.1757Z" fill="#F65535"/>
<path d="M28.1707 13.9333V29.1386H26.5146V13.9333H28.1707Z" fill="#F65535"/>
</g>
<defs>
<clipPath id="clip0_113_404">
<rect width="44" height="44" fill="white"/>
</clipPath>
</defs>
</svg>
