<svg width="80" height="59" viewBox="0 0 80 59" fill="none" xmlns="http://www.w3.org/2000/svg">
<g clip-path="url(#clip0_303_4026)">
<path d="M4.91943 57.1334C5.05899 49.1993 5.3381 39.2817 5.47765 31.3477C9.28053 31.3088 12.6996 31.3865 16.5025 31.3477C16.3978 39.6318 16.2932 48.5771 16.1885 56.8612" fill="#FFB501"/>
<path d="M25.1201 56.1999C25.2597 48.2658 25.5388 8.63427 25.6783 0.700192C29.4812 0.6613 32.9003 0.739085 36.7032 0.700192C36.5985 8.98431 36.4939 50.1715 36.3892 58.4556" fill="#01CFD9"/>
<path d="M64.1606 57.5222C64.3002 49.5881 64.5793 15.6738 64.7189 7.73974C68.5217 7.70085 71.9408 7.77864 75.7437 7.73974C75.6391 16.0239 75.5344 50.2104 75.4297 58.4945" fill="#FFB501"/>
<path d="M45.3555 56.1997C45.495 48.2656 45.7741 29.7139 45.9137 21.7798C49.7166 21.7409 53.1357 21.8187 56.9385 21.7798C56.8339 30.0639 56.7292 50.1713 56.6245 58.4944" fill="#FF4F54"/>
<path d="M8.05952 33.6813C7.95486 33.6424 7.88508 33.6813 7.8153 33.6424C7.39664 33.6035 7.04775 33.7202 6.69886 33.8369C6.34997 33.9535 6.00109 34.1091 5.6522 34.148C5.51264 34.1869 5.3382 34.3425 5.40798 34.8092C5.47775 35.2759 5.68709 35.5481 5.89642 35.5481C5.9662 35.5481 6.03597 35.5481 6.10575 35.5092C6.52442 35.1981 6.97797 35.1981 7.5013 34.887C7.74552 34.8092 8.1293 34.6925 8.4433 34.5369C8.54797 34.498 8.65263 34.3814 8.51308 34.0313C8.33863 33.7591 8.16419 33.7202 8.05952 33.6813Z" fill="white"/>
<path d="M8.61799 39.2041C8.51332 39.1652 8.44355 39.2041 8.33888 39.243C7.39688 39.3597 6.69911 39.9431 5.86178 40.2153C5.68733 40.2542 5.54778 40.4487 5.68733 40.9543C5.82689 41.421 6.106 41.6543 6.31533 41.5765C6.38511 41.5765 6.45489 41.5376 6.52466 41.4988C6.94333 41.1098 7.46666 40.9932 7.98999 40.6042C8.2691 40.4876 8.65288 40.2931 9.03666 40.0597C9.14132 39.9819 9.24599 39.8653 9.07155 39.5152C8.93199 39.2819 8.75755 39.243 8.61799 39.2041Z" fill="white"/>
<path d="M9.24559 45.3103C9.14092 45.2714 9.00137 45.3103 8.8967 45.3103C7.71048 45.388 6.76849 46.127 5.72182 46.5937C5.51249 46.6715 5.30316 46.9437 5.51249 47.3716C5.68693 47.7994 6.03582 47.9938 6.28004 47.8772C6.38471 47.8383 6.45449 47.7994 6.52426 47.7605C7.01271 47.2938 7.60582 47.1382 8.2687 46.7104C8.61759 46.5937 9.07115 46.3992 9.5247 46.2048C9.66426 46.127 9.80381 46.0103 9.69914 45.6603C9.59448 45.388 9.38515 45.388 9.24559 45.3103Z" fill="white"/>
<path d="M10.118 51.2995C9.97846 51.2606 9.8389 51.2995 9.69935 51.2995C8.19913 51.3384 6.90824 52.0774 5.54758 52.5052C5.26847 52.583 4.98936 52.8552 5.12892 53.3219C5.26847 53.7886 5.65225 53.9831 5.96625 53.8664C6.07091 53.8275 6.21047 53.7886 6.31514 53.7497C7.01291 53.283 7.78046 53.1275 8.65268 52.7385C9.10624 52.6219 9.69935 52.4274 10.2925 52.2718C10.4669 52.194 10.6762 52.0774 10.6065 51.7273C10.5716 51.3773 10.3273 51.3384 10.118 51.2995Z" fill="white"/>
<path d="M48.2514 23.1803C48.1468 23.1414 48.077 23.1803 48.0072 23.1414C47.5885 23.1025 47.2396 23.2192 46.8908 23.3359C46.5419 23.4526 46.193 23.6081 45.8441 23.647C45.7045 23.6859 45.5301 23.8415 45.5999 24.3082C45.6696 24.7749 45.879 25.0472 46.0883 25.0472C46.1581 25.0472 46.2279 25.0472 46.2976 25.0083C46.7163 24.6971 47.1699 24.6971 47.6932 24.386C47.9374 24.3082 48.3212 24.1915 48.6352 24.0359C48.7399 23.9971 48.8445 23.8804 48.705 23.5303C48.5305 23.2581 48.3561 23.2192 48.2514 23.1803Z" fill="white"/>
<path d="M48.8094 28.7417C48.7047 28.7028 48.635 28.7417 48.5303 28.7806C47.5883 28.8973 46.8905 29.4807 46.0532 29.7529C45.8787 29.7918 45.7392 29.9863 45.8787 30.4919C46.0183 30.9586 46.2974 31.1919 46.5067 31.1141C46.5765 31.1141 46.6463 31.0752 46.7161 31.0364C47.1347 30.6474 47.6581 30.5308 48.1814 30.1418C48.4605 30.0251 48.8443 29.8307 49.2281 29.5973C49.3327 29.5195 49.4374 29.4029 49.263 29.0528C49.1234 28.7806 48.949 28.7806 48.8094 28.7417Z" fill="white"/>
<path d="M49.4375 34.8479C49.3328 34.809 49.1933 34.8479 49.0886 34.8479C47.9024 34.9256 46.9604 35.6646 45.9137 36.1313C45.7044 36.2091 45.4951 36.4813 45.7044 36.9092C45.8788 37.337 46.2277 37.5314 46.4719 37.4148C46.5766 37.3759 46.6464 37.337 46.7162 37.2981C47.2046 36.8314 47.7977 36.6758 48.4606 36.248C48.8095 36.1313 49.263 35.9368 49.7166 35.7424C49.8561 35.6646 49.9957 35.5479 49.891 35.1979C49.7864 34.8867 49.577 34.8867 49.4375 34.8479Z" fill="white"/>
<path d="M50.3446 40.7985C50.205 40.7596 50.0655 40.7985 49.9259 40.7985C48.4257 40.8374 47.1348 41.5764 45.7741 42.0042C45.495 42.082 45.2159 42.3542 45.3555 42.8209C45.495 43.2877 45.8788 43.4821 46.1928 43.3654C46.2975 43.3266 46.437 43.2877 46.5417 43.2488C47.2395 42.7821 48.007 42.6265 48.8792 42.2376C49.3328 42.1209 49.9259 41.9264 50.519 41.7708C50.6935 41.6931 50.9028 41.5764 50.833 41.2264C50.7632 40.8763 50.519 40.8374 50.3446 40.7985Z" fill="white"/>
<path d="M50.7983 47.2939C50.6587 47.255 50.5191 47.2939 50.3447 47.3328C48.8096 47.4495 47.4489 48.2274 46.0534 48.7719C45.7743 48.8885 45.4603 49.1219 45.6347 49.5886C45.7743 50.0164 46.1929 50.2109 46.5069 50.0942C46.6116 50.0553 46.7512 50.0164 46.8558 49.9386C47.5536 49.433 48.3909 49.2386 49.298 48.7719C49.7516 48.6163 50.3796 48.4218 51.0076 48.1885C51.2169 48.1107 51.4263 47.994 51.3216 47.6051C51.2169 47.3717 50.9727 47.3328 50.7983 47.2939Z" fill="white"/>
<path d="M52.2287 52.9718C52.0542 52.9329 51.8798 53.0107 51.6705 53.0107C49.7516 53.2052 47.9723 53.9052 46.1232 54.2164C45.7394 54.2942 45.3207 54.4886 45.3905 54.9942C45.4603 55.4609 45.9138 55.6943 46.3674 55.6554C46.5418 55.6554 46.6814 55.6165 46.8209 55.5776C47.8327 55.1887 48.8794 55.0331 50.1005 54.6053C50.6936 54.4497 51.5309 54.2553 52.3334 53.983C52.5776 53.9053 52.8916 53.7497 52.7869 53.3608C52.7869 53.0107 52.4729 53.0107 52.2287 52.9718Z" fill="white"/>
<path d="M67.0566 10.0343C66.9519 9.99542 66.8821 10.0343 66.8124 9.99542C66.3937 9.95653 66.0448 10.0732 65.6959 10.1899C65.347 10.3066 64.9982 10.4621 64.6493 10.501C64.5097 10.5399 64.3353 10.6955 64.405 11.1622C64.4748 11.6289 64.6842 11.9012 64.8935 11.9012C64.9633 11.9012 65.033 11.9012 65.1028 11.8623C65.5215 11.5511 65.975 11.5511 66.4984 11.24C66.7426 11.1622 67.1264 11.0455 67.4404 10.89C67.545 10.8511 67.6497 10.7344 67.5101 10.3843C67.3357 10.1121 67.1961 10.0732 67.0566 10.0343Z" fill="white"/>
<path d="M67.6146 15.5957C67.5099 15.5568 67.4401 15.5957 67.3355 15.6346C66.3935 15.7513 65.6957 16.3347 64.8584 16.6069C64.6839 16.6458 64.5444 16.8403 64.6839 17.3459C64.8235 17.8126 65.1026 18.0459 65.3119 17.9681C65.3817 17.9681 65.4515 17.9293 65.5212 17.8904C65.9399 17.5014 66.4632 17.3848 66.9866 16.9958C67.2657 16.8792 67.6495 16.6847 68.0332 16.4513C68.1379 16.3736 68.2426 16.2569 68.0681 15.9068C67.9286 15.6346 67.7541 15.6346 67.6146 15.5957Z" fill="white"/>
<path d="M68.2427 21.7019C68.138 21.663 67.9984 21.7019 67.8938 21.7019C66.7076 21.7796 65.7656 22.5186 64.7189 22.9853C64.5096 23.0631 64.3002 23.3353 64.5096 23.7632C64.684 24.191 65.0329 24.3854 65.2771 24.2688C65.3818 24.2299 65.4516 24.191 65.5213 24.1521C66.0098 23.6854 66.6029 23.5298 67.2658 23.102C67.6147 22.9853 68.0682 22.7908 68.5218 22.5964C68.6613 22.5186 68.8009 22.4019 68.6962 22.0519C68.5915 21.7407 68.3822 21.7407 68.2427 21.7019Z" fill="white"/>
<path d="M69.1498 27.6525C69.0102 27.6136 68.8706 27.6525 68.7311 27.6525C67.2309 27.6914 65.94 28.4304 64.5793 28.8582C64.3002 28.936 64.0211 29.2082 64.1607 29.675C64.3002 30.1417 64.684 30.3361 64.998 30.2194C65.1027 30.1806 65.2422 30.1417 65.3469 30.1028C66.0447 29.6361 66.8122 29.4805 67.6844 29.0916C68.138 28.9749 68.7311 28.7804 69.3242 28.6249C69.4986 28.5471 69.708 28.4304 69.6382 28.0804C69.5684 27.7303 69.3242 27.6914 69.1498 27.6525Z" fill="white"/>
<path d="M69.6034 34.1865C69.4639 34.1476 69.3243 34.1865 69.1499 34.2254C67.6148 34.3421 66.2541 35.1199 64.8586 35.6644C64.5794 35.7811 64.2654 36.0145 64.4399 36.4812C64.5794 36.909 64.9981 37.1035 65.3121 36.9868C65.4168 36.9479 65.5563 36.909 65.661 36.8312C66.3588 36.3256 67.1961 36.1311 68.1032 35.6644C68.5568 35.5089 69.1848 35.3144 69.8128 35.081C70.0221 35.0033 70.2314 34.8866 70.1268 34.4977C70.0221 34.2254 69.7779 34.2254 69.6034 34.1865Z" fill="white"/>
<path d="M69.8473 40.2536C69.7077 40.2147 69.5333 40.2536 69.3937 40.2536C67.7888 40.2925 66.3584 40.8759 64.8233 41.1092C64.5093 41.1481 64.1604 41.3426 64.2302 41.8482C64.3 42.3149 64.6489 42.5872 65.0326 42.5483C65.1722 42.5483 65.2769 42.5094 65.4164 42.4705C66.2537 42.1205 67.126 42.0427 68.1377 41.6926C68.6262 41.576 69.324 41.4593 69.9868 41.2648C70.1962 41.187 70.4404 41.0704 70.3706 40.7203C70.3008 40.3314 70.0566 40.3314 69.8473 40.2536Z" fill="white"/>
<path d="M69.8473 47.2932C69.7077 47.2543 69.5333 47.2932 69.3937 47.2932C67.7888 47.3321 66.3584 47.9154 64.8233 48.1488C64.5093 48.1877 64.1604 48.3822 64.2302 48.8878C64.3 49.3545 64.6489 49.6267 65.0326 49.5878C65.1722 49.5878 65.2769 49.5489 65.4164 49.51C66.2537 49.16 67.126 49.0822 68.1377 48.7322C68.6262 48.6155 69.324 48.4988 69.9868 48.3044C70.1962 48.2266 70.4404 48.1099 70.3706 47.7599C70.3008 47.371 70.0566 47.3321 69.8473 47.2932Z" fill="white"/>
<path d="M68.9403 52.9719C68.8008 52.933 68.6612 52.933 68.5566 52.933C67.161 52.8941 65.9399 53.4775 64.6141 53.8275C64.3699 53.9053 64.0908 54.1387 64.1955 54.6054C64.3001 55.0721 64.649 55.2666 64.963 55.2277C65.0677 55.2277 65.1724 55.1888 65.277 55.111C65.9399 54.7221 66.6726 54.6054 67.5099 54.2553C67.9286 54.1776 68.4868 54.022 69.0799 53.9053C69.2543 53.8664 69.4637 53.7497 69.3939 53.3997C69.3241 53.0886 69.1148 53.0497 68.9403 52.9719Z" fill="white"/>
<path d="M28.0156 5.36732C27.9109 5.32843 27.8411 5.36732 27.7714 5.32843C27.3527 5.28954 27.0038 5.40621 26.6549 5.52289C26.306 5.63957 25.9571 5.79514 25.6083 5.83403C25.4687 5.87293 25.2943 6.0285 25.364 6.49521C25.4338 6.96192 25.6431 7.23417 25.8525 7.23417C25.9223 7.23417 25.992 7.23416 26.0618 7.19527C26.4805 6.88413 26.934 6.88413 27.4574 6.57299C27.7016 6.49521 28.0854 6.37853 28.3994 6.22296C28.504 6.18407 28.6087 6.06739 28.4691 5.71736C28.2947 5.44511 28.1551 5.44511 28.0156 5.36732Z" fill="white"/>
<path d="M28.574 10.9292C28.4694 10.8903 28.3996 10.9292 28.2949 10.9681C27.3529 11.0848 26.6552 11.6682 25.8178 11.9404C25.6434 11.9793 25.5038 12.1738 25.6434 12.6794C25.7829 13.1461 26.0621 13.3794 26.2714 13.3016C26.3412 13.3016 26.4109 13.2627 26.4807 13.2239C26.8994 12.8349 27.4227 12.7183 27.946 12.3293C28.2252 12.2127 28.6089 12.0182 28.9927 11.7848C29.0974 11.707 29.202 11.5904 29.0276 11.2403C28.888 10.9681 28.7136 10.9681 28.574 10.9292Z" fill="white"/>
<path d="M29.2021 17.0349C29.0975 16.996 28.9579 17.0349 28.8532 17.0349C27.667 17.1126 26.725 17.8516 25.6784 18.3183C25.469 18.3961 25.2597 18.6684 25.469 19.0962C25.6435 19.524 25.9924 19.7185 26.2366 19.6018C26.3413 19.5629 26.411 19.524 26.4808 19.4851C26.9693 19.0184 27.5624 18.8628 28.2252 18.435C28.5741 18.3183 29.0277 18.1239 29.4812 17.9294C29.6208 17.8516 29.7604 17.7349 29.6557 17.3849C29.551 17.1126 29.3417 17.0738 29.2021 17.0349Z" fill="white"/>
<path d="M30.1092 22.9855C29.9697 22.9467 29.8301 22.9855 29.6906 22.9855C28.1903 23.0244 26.8995 23.7634 25.5388 24.1912C25.2597 24.269 24.9806 24.5413 25.1201 25.008C25.2597 25.4747 25.6435 25.6691 25.9575 25.5525C26.0621 25.5136 26.2017 25.4747 26.3063 25.4358C27.0041 24.9691 27.7717 24.8135 28.6439 24.4246C29.0974 24.3079 29.6906 24.1134 30.2837 23.9579C30.4581 23.8801 30.6674 23.7634 30.5977 23.4134C30.5279 23.0633 30.2837 23.0633 30.1092 22.9855Z" fill="white"/>
<path d="M30.5629 29.5195C30.4233 29.4806 30.2838 29.5195 30.1093 29.5584C28.5742 29.6751 27.2136 30.4529 25.818 30.9974C25.5389 31.1141 25.2249 31.3475 25.3994 31.8142C25.5389 32.242 25.9576 32.4365 26.2716 32.3198C26.3762 32.2809 26.5158 32.242 26.6205 32.1642C27.3182 31.6586 28.1556 31.4642 29.0627 30.9974C29.5162 30.8419 30.1442 30.6474 30.7722 30.4141C30.9816 30.3363 31.1909 30.2196 31.0862 29.8307C30.9816 29.5584 30.7373 29.5584 30.5629 29.5195Z" fill="white"/>
<path d="M30.8068 35.6257C30.6672 35.5868 30.4928 35.6257 30.3532 35.6257C28.7483 35.6646 27.3179 36.248 25.7828 36.4813C25.4688 36.5202 25.1199 36.7147 25.1897 37.2203C25.2594 37.687 25.6083 37.9592 25.9921 37.9203C26.1317 37.9203 26.2363 37.8815 26.3759 37.8426C27.2132 37.4925 28.0854 37.4147 29.0972 37.0647C29.5857 36.948 30.2834 36.8314 30.9463 36.6369C31.1557 36.5591 31.3999 36.4424 31.3301 36.0924C31.2952 35.7035 31.0161 35.6646 30.8068 35.6257Z" fill="white"/>
<path d="M30.8068 42.6262C30.6672 42.5873 30.4928 42.6262 30.3532 42.6262C28.7483 42.6651 27.3179 43.2485 25.7828 43.4818C25.4688 43.5207 25.1199 43.7152 25.1897 44.2208C25.2594 44.6875 25.6083 44.9597 25.9921 44.9208C26.1317 44.9208 26.2363 44.8819 26.3759 44.8431C27.2132 44.493 28.0854 44.4152 29.0972 44.0652C29.5857 43.9485 30.2834 43.8318 30.9463 43.6374C31.1557 43.5596 31.3999 43.4429 31.3301 43.0929C31.2952 42.704 31.0161 42.6651 30.8068 42.6262Z" fill="white"/>
<path d="M29.8998 48.3049C29.7603 48.266 29.6207 48.266 29.516 48.266C28.1205 48.2271 26.8994 48.8105 25.5736 49.1605C25.3294 49.2383 25.0503 49.4717 25.1549 49.9384C25.2596 50.4051 25.6085 50.5996 25.9225 50.5607C26.0272 50.5607 26.1318 50.5218 26.2365 50.444C26.8994 50.0551 27.632 49.9384 28.4694 49.5884C28.888 49.5106 29.4463 49.355 30.0394 49.2383C30.2138 49.1994 30.4231 49.0828 30.3534 48.7327C30.2836 48.4216 30.0743 48.3827 29.8998 48.3049Z" fill="white"/>
<path d="M29.8998 54.0998C29.7603 54.0609 29.6207 54.0609 29.516 54.0609C28.1205 54.022 26.8994 54.6054 25.5736 54.9555C25.3294 55.0332 25.0503 55.2666 25.1549 55.7333C25.2596 56.2 25.6085 56.3945 25.9225 56.3556C26.0272 56.3556 26.1318 56.3167 26.2365 56.2389C26.8994 55.85 27.632 55.7333 28.4694 55.3833C28.888 55.3055 29.4463 55.1499 30.0394 55.0332C30.2138 54.9944 30.4231 54.8777 30.3534 54.5276C30.2836 54.2165 30.0743 54.1776 29.8998 54.0998Z" fill="white"/>
<path d="M74.8716 56.9778C73.1271 56.8223 71.1036 56.7834 69.2196 56.6667C49.0887 55.7333 28.923 56.1611 8.79218 56.0833C4.74508 56.0833 -0.104466 56.3167 0.000200451 57.3279C0.104867 58.3002 4.29152 58.9225 9.00151 58.9614C10.6413 59.0002 12.3159 59.0002 13.9557 58.9614C24.9108 58.5724 36.0403 58.8447 49.4725 58.6502C55.8921 58.728 64.7189 58.8058 73.5109 58.8836C76.2671 58.9225 79.5815 58.8058 79.9304 58.0668C80.2444 57.4445 77.0695 57.2112 74.8716 56.9778Z" fill="#516FE9"/>
</g>
<defs>
<clipPath id="clip0_303_4026">
<rect width="80" height="59" fill="white"/>
</clipPath>
</defs>
</svg>
