<svg width="53" height="40" viewBox="0 0 53 40" fill="none" xmlns="http://www.w3.org/2000/svg">
<g clip-path="url(#clip0_113_261)">
<path d="M3.26074 37.8506C3.3532 32.5942 3.53811 26.0238 3.63056 20.7675C6.14997 20.7417 8.41512 20.7933 10.9345 20.7675C10.8652 26.2557 10.7958 32.182 10.7265 37.6702" fill="#FBBE40"/>
<path d="M16.6453 37.2314C16.7377 31.9751 16.9226 5.71924 17.0151 0.462913C19.5345 0.437147 21.7996 0.488679 24.3191 0.462913C24.2497 5.95114 24.1804 33.2377 24.111 38.7259" fill="#19BDC0"/>
<path d="M42.5088 38.1072C42.6012 32.8509 42.7862 10.3826 42.8786 5.1263C45.398 5.10054 47.6632 5.15207 50.1826 5.1263C50.1132 10.6145 50.0439 33.2631 49.9746 38.7513" fill="#FBBE40"/>
<path d="M30.0505 37.2304C30.143 31.974 30.3279 19.6835 30.4204 14.4272C32.9398 14.4014 35.2049 14.4529 37.7243 14.4272C37.655 19.9154 37.5856 33.2366 37.5163 38.7506" fill="#F65535"/>
<path d="M5.33846 22.3126C5.26912 22.2868 5.2229 22.3126 5.17667 22.2868C4.8993 22.261 4.66816 22.3383 4.43703 22.4156C4.20589 22.4929 3.97475 22.596 3.74361 22.6218C3.65116 22.6475 3.53559 22.7506 3.58181 23.0598C3.62804 23.369 3.76672 23.5493 3.90541 23.5493C3.95163 23.5493 3.99786 23.5493 4.04409 23.5236C4.32146 23.3174 4.62194 23.3174 4.96864 23.1113C5.13044 23.0598 5.38469 22.9825 5.59272 22.8794C5.66206 22.8537 5.7314 22.7764 5.63894 22.5445C5.52337 22.3641 5.40781 22.3383 5.33846 22.3126Z" fill="white"/>
<path d="M5.71099 25.9724C5.64165 25.9466 5.59542 25.9724 5.52608 25.9982C4.902 26.0755 4.43973 26.462 3.885 26.6423C3.76943 26.6681 3.67697 26.7969 3.76943 27.1319C3.86188 27.4411 4.04679 27.5957 4.18548 27.5441C4.2317 27.5441 4.27793 27.5184 4.32416 27.4926C4.60152 27.235 4.94823 27.1577 5.29494 26.9C5.47985 26.8227 5.7341 26.6939 5.98835 26.5393C6.0577 26.4877 6.12704 26.4104 6.01147 26.1785C5.91901 26.0239 5.80344 25.9982 5.71099 25.9724Z" fill="white"/>
<path d="M6.12779 30.0154C6.05845 29.9897 5.96599 30.0154 5.89665 30.0154C5.11078 30.067 4.48671 30.5565 3.7933 30.8657C3.65461 30.9173 3.51593 31.0976 3.65461 31.3811C3.77018 31.6645 4.00132 31.7933 4.16312 31.716C4.23246 31.6903 4.27869 31.6645 4.32491 31.6387C4.64851 31.3295 5.04144 31.2265 5.4806 30.943C5.71174 30.8657 6.01222 30.7369 6.3127 30.6081C6.40516 30.5565 6.49761 30.4792 6.42827 30.2473C6.35893 30.067 6.22025 30.067 6.12779 30.0154Z" fill="white"/>
<path d="M6.70438 33.9853C6.61193 33.9595 6.51947 33.9853 6.42701 33.9853C5.43312 34.011 4.57791 34.5006 3.67647 34.784C3.49156 34.8356 3.30665 35.0159 3.3991 35.3251C3.49156 35.6343 3.74581 35.7631 3.95384 35.6858C4.02318 35.6601 4.11563 35.6343 4.18497 35.6085C4.64725 35.2994 5.15575 35.1963 5.7336 34.9386C6.03408 34.8613 6.42701 34.7325 6.81995 34.6294C6.93552 34.5779 7.0742 34.5006 7.02797 34.2687C7.00486 34.0368 6.84306 34.011 6.70438 33.9853Z" fill="white"/>
<path d="M31.9676 15.3563C31.8983 15.3306 31.852 15.3563 31.8058 15.3306C31.5285 15.3048 31.2973 15.3821 31.0662 15.4594C30.835 15.5367 30.6039 15.6398 30.3728 15.6655C30.2803 15.6913 30.1647 15.7943 30.211 16.1035C30.2572 16.4127 30.3959 16.5931 30.5346 16.5931C30.5808 16.5931 30.627 16.5931 30.6732 16.5673C30.9506 16.3612 31.2511 16.3612 31.5978 16.1551C31.7596 16.1035 32.0138 16.0262 32.2219 15.9232C32.2912 15.8974 32.3606 15.8201 32.2681 15.5882C32.1525 15.4079 32.037 15.3821 31.9676 15.3563Z" fill="white"/>
<path d="M32.3404 19.042C32.271 19.0163 32.2248 19.042 32.1555 19.0678C31.5314 19.1451 31.0691 19.5316 30.5144 19.712C30.3988 19.7377 30.3064 19.8666 30.3988 20.2015C30.4913 20.5107 30.6762 20.6653 30.8149 20.6138C30.8611 20.6138 30.9073 20.588 30.9536 20.5623C31.2309 20.3046 31.5776 20.2273 31.9243 19.9696C32.1092 19.8923 32.3635 19.7635 32.6177 19.6089C32.6871 19.5574 32.7564 19.4801 32.6409 19.2482C32.5484 19.0678 32.4328 19.0678 32.3404 19.042Z" fill="white"/>
<path d="M32.7572 23.0851C32.6878 23.0593 32.5954 23.0851 32.526 23.0851C31.7402 23.1366 31.1161 23.6262 30.4227 23.9354C30.284 23.9869 30.1453 24.1673 30.284 24.4507C30.3996 24.7341 30.6307 24.863 30.7925 24.7857C30.8619 24.7599 30.9081 24.7341 30.9543 24.7084C31.2779 24.3992 31.6708 24.2961 32.11 24.0127C32.3411 23.9354 32.6416 23.8065 32.9421 23.6777C33.0346 23.6262 33.127 23.5489 33.0577 23.317C32.9883 23.1109 32.8496 23.1109 32.7572 23.0851Z" fill="white"/>
<path d="M33.3545 27.029C33.2621 27.0033 33.1696 27.029 33.0772 27.029C32.0833 27.0548 31.2281 27.5444 30.3266 27.8278C30.1417 27.8793 29.9568 28.0597 30.0493 28.3689C30.1417 28.6781 30.396 28.8069 30.604 28.7296C30.6733 28.7038 30.7658 28.6781 30.8351 28.6523C31.2974 28.3431 31.8059 28.24 32.3837 27.9824C32.6842 27.9051 33.0772 27.7763 33.4701 27.6732C33.5857 27.6217 33.7243 27.5444 33.6781 27.3125C33.6319 27.0806 33.4701 27.0548 33.3545 27.029Z" fill="white"/>
<path d="M33.6548 31.3319C33.5624 31.3062 33.4699 31.3319 33.3543 31.3577C32.3373 31.435 31.4359 31.9503 30.5113 32.3111C30.3264 32.3884 30.1184 32.5429 30.234 32.8521C30.3264 33.1356 30.6038 33.2644 30.8118 33.1871C30.8812 33.1613 30.9736 33.1356 31.043 33.084C31.5052 32.7491 32.06 32.6202 32.6609 32.3111C32.9614 32.208 33.3774 32.0792 33.7935 31.9246C33.9322 31.873 34.0709 31.7957 34.0015 31.5381C33.9322 31.3835 33.7704 31.3577 33.6548 31.3319Z" fill="white"/>
<path d="M34.6016 35.0939C34.486 35.0681 34.3704 35.1196 34.2317 35.1196C32.9605 35.2485 31.7817 35.7122 30.5566 35.9184C30.3024 35.9699 30.025 36.0987 30.0712 36.4337C30.1175 36.7429 30.418 36.8975 30.7184 36.8717C30.834 36.8717 30.9265 36.846 31.0189 36.8202C31.6892 36.5625 32.3826 36.4595 33.1916 36.176C33.5846 36.073 34.1393 35.9441 34.6709 35.7638C34.8327 35.7122 35.0407 35.6092 34.9714 35.3515C34.9714 35.1196 34.7634 35.1196 34.6016 35.0939Z" fill="white"/>
<path d="M44.4261 6.64807C44.3568 6.6223 44.3105 6.64807 44.2643 6.6223C43.9869 6.59654 43.7558 6.67384 43.5247 6.75113C43.2935 6.82843 43.0624 6.9315 42.8313 6.95726C42.7388 6.98303 42.6232 7.0861 42.6695 7.39529C42.7157 7.70449 42.8544 7.88485 42.9931 7.88485C43.0393 7.88485 43.0855 7.88485 43.1317 7.85909C43.4091 7.65296 43.7096 7.65296 44.0563 7.44682C44.2181 7.39529 44.4723 7.31799 44.6804 7.21493C44.7497 7.18916 44.819 7.11186 44.7266 6.87997C44.611 6.6996 44.5186 6.67383 44.4261 6.64807Z" fill="white"/>
<path d="M44.7935 10.3338C44.7242 10.308 44.6779 10.3338 44.6086 10.3596C43.9845 10.4369 43.5222 10.8234 42.9675 11.0037C42.8519 11.0295 42.7595 11.1583 42.8519 11.4933C42.9444 11.8025 43.1293 11.9571 43.268 11.9055C43.3142 11.9055 43.3605 11.8798 43.4067 11.854C43.684 11.5963 44.0308 11.519 44.3775 11.2614C44.5624 11.1841 44.8166 11.0552 45.0709 10.9007C45.1402 10.8491 45.2096 10.7718 45.094 10.5399C45.0015 10.3596 44.886 10.3596 44.7935 10.3338Z" fill="white"/>
<path d="M45.2103 14.3768C45.141 14.3511 45.0485 14.3768 44.9792 14.3768C44.1933 14.4284 43.5692 14.9179 42.8758 15.2271C42.7371 15.2787 42.5984 15.459 42.7371 15.7425C42.8527 16.0259 43.0838 16.1547 43.2456 16.0774C43.315 16.0516 43.3612 16.0259 43.4074 16.0001C43.731 15.6909 44.124 15.5879 44.5631 15.3044C44.7943 15.2271 45.0947 15.0983 45.3952 14.9695C45.4877 14.9179 45.5801 14.8406 45.5108 14.6087C45.4414 14.4026 45.3028 14.4026 45.2103 14.3768Z" fill="white"/>
<path d="M45.8128 18.3208C45.7203 18.295 45.6279 18.3208 45.5354 18.3208C44.5415 18.3465 43.6863 18.8361 42.7849 19.1195C42.6 19.1711 42.415 19.3514 42.5075 19.6606C42.6 19.9698 42.8542 20.0987 43.0622 20.0214C43.1316 19.9956 43.224 19.9698 43.2934 19.9441C43.7557 19.6349 44.2642 19.5318 44.842 19.2741C45.1425 19.1968 45.5354 19.068 45.9283 18.9649C46.0439 18.9134 46.1826 18.8361 46.1364 18.6042C46.0901 18.3723 45.9283 18.3465 45.8128 18.3208Z" fill="white"/>
<path d="M46.1131 22.6496C46.0206 22.6238 45.9282 22.6496 45.8126 22.6753C44.7956 22.7526 43.8941 23.2679 42.9696 23.6287C42.7847 23.706 42.5767 23.8606 42.6922 24.1698C42.7847 24.4532 43.062 24.582 43.2701 24.5047C43.3394 24.479 43.4319 24.4532 43.5012 24.4017C43.9635 24.0667 44.5182 23.9379 45.1192 23.6287C45.4197 23.5256 45.8357 23.3968 46.2518 23.2422C46.3904 23.1906 46.5291 23.1134 46.4598 22.8557C46.3904 22.6753 46.2286 22.6753 46.1131 22.6496Z" fill="white"/>
<path d="M46.2722 26.6693C46.1798 26.6436 46.0642 26.6693 45.9717 26.6693C44.9085 26.6951 43.9608 27.0816 42.9438 27.2362C42.7358 27.2619 42.5047 27.3908 42.5509 27.7257C42.5971 28.0349 42.8283 28.2153 43.0825 28.1895C43.175 28.1895 43.2443 28.1638 43.3368 28.138C43.8915 27.9061 44.4693 27.8546 45.1396 27.6227C45.4632 27.5454 45.9255 27.4681 46.3647 27.3392C46.5034 27.2877 46.6651 27.2104 46.6189 26.9785C46.5727 26.7209 46.4109 26.7209 46.2722 26.6693Z" fill="white"/>
<path d="M46.2722 31.3327C46.1798 31.3069 46.0642 31.3327 45.9717 31.3327C44.9085 31.3585 43.9608 31.745 42.9438 31.8996C42.7358 31.9253 42.5047 32.0542 42.5509 32.3891C42.5971 32.6983 42.8283 32.8787 43.0825 32.8529C43.175 32.8529 43.2443 32.8272 43.3368 32.8014C43.8915 32.5695 44.4693 32.518 45.1396 32.2861C45.4632 32.2088 45.9255 32.1315 46.3647 32.0026C46.5034 31.9511 46.6651 31.8738 46.6189 31.6419C46.5727 31.3842 46.4109 31.3585 46.2722 31.3327Z" fill="white"/>
<path d="M45.6724 35.0929C45.5799 35.0671 45.4875 35.0671 45.4181 35.0671C44.4936 35.0414 43.6846 35.4279 42.8063 35.6598C42.6445 35.7113 42.4596 35.8659 42.5289 36.1751C42.5982 36.4843 42.8294 36.6131 43.0374 36.5874C43.1067 36.5874 43.1761 36.5616 43.2454 36.5101C43.6846 36.2524 44.17 36.1751 44.7247 35.9432C45.0021 35.8917 45.3719 35.7886 45.7648 35.7113C45.8804 35.6855 46.0191 35.6082 45.9729 35.3763C45.9266 35.1702 45.7879 35.1444 45.6724 35.0929Z" fill="white"/>
<path d="M18.5626 3.55554C18.4932 3.52977 18.447 3.55554 18.4008 3.52977C18.1234 3.50401 17.8923 3.58131 17.6611 3.6586C17.43 3.7359 17.1989 3.83897 16.9677 3.86474C16.8753 3.8905 16.7597 3.99357 16.8059 4.30276C16.8522 4.61196 16.9908 4.79232 17.1295 4.79232C17.1758 4.79232 17.222 4.79232 17.2682 4.76656C17.5456 4.56043 17.8461 4.56043 18.1928 4.3543C18.3546 4.30276 18.6088 4.22546 18.8168 4.1224C18.8862 4.09663 18.9555 4.01933 18.8631 3.78744C18.7475 3.60707 18.655 3.60707 18.5626 3.55554Z" fill="white"/>
<path d="M18.9351 7.24126C18.8658 7.2155 18.8195 7.24126 18.7502 7.26703C18.1261 7.34433 17.6638 7.73082 17.1091 7.91119C16.9935 7.93695 16.9011 8.06579 16.9935 8.40075C17.086 8.70994 17.2709 8.86454 17.4096 8.81301C17.4558 8.81301 17.5021 8.78724 17.5483 8.76148C17.8256 8.50381 18.1724 8.42651 18.5191 8.16885C18.704 8.09155 18.9582 7.96272 19.2125 7.80812C19.2818 7.75659 19.3512 7.67929 19.2356 7.44739C19.1431 7.26703 19.0276 7.26703 18.9351 7.24126Z" fill="white"/>
<path d="M19.3519 11.2843C19.2826 11.2585 19.1901 11.2843 19.1208 11.2843C18.3349 11.3358 17.7108 11.8254 17.0174 12.1346C16.8787 12.1861 16.7401 12.3665 16.8787 12.6499C16.9943 12.9334 17.2254 13.0622 17.3872 12.9849C17.4566 12.9591 17.5028 12.9334 17.549 12.9076C17.8726 12.5984 18.2656 12.4953 18.7047 12.2119C18.9359 12.1346 19.2363 12.0058 19.5368 11.8769C19.6293 11.8254 19.7217 11.7481 19.6524 11.5162C19.5831 11.3358 19.4444 11.3101 19.3519 11.2843Z" fill="white"/>
<path d="M19.9493 15.2282C19.8568 15.2025 19.7643 15.2282 19.6719 15.2282C18.678 15.254 17.8228 15.7436 16.9213 16.027C16.7364 16.0785 16.5515 16.2589 16.644 16.5681C16.7364 16.8773 16.9907 17.0061 17.1987 16.9288C17.2681 16.9031 17.3605 16.8773 17.4298 16.8515C17.8921 16.5423 18.4006 16.4393 18.9785 16.1816C19.279 16.1043 19.6719 15.9755 20.0648 15.8724C20.1804 15.8209 20.3191 15.7436 20.2728 15.5117C20.2266 15.2798 20.0648 15.2798 19.9493 15.2282Z" fill="white"/>
<path d="M20.2495 19.557C20.1571 19.5313 20.0646 19.557 19.9491 19.5828C18.9321 19.6601 18.0306 20.1754 17.1061 20.5361C16.9211 20.6134 16.7131 20.768 16.8287 21.0772C16.9211 21.3607 17.1985 21.4895 17.4065 21.4122C17.4759 21.3864 17.5683 21.3607 17.6377 21.3091C18.1 20.9742 18.6547 20.8453 19.2556 20.5361C19.5561 20.4331 19.9722 20.3043 20.3882 20.1497C20.5269 20.0981 20.6656 20.0208 20.5962 19.7632C20.5269 19.5828 20.3651 19.5828 20.2495 19.557Z" fill="white"/>
<path d="M20.4141 23.6027C20.3216 23.5769 20.206 23.6027 20.1136 23.6027C19.0503 23.6284 18.1027 24.0149 17.0857 24.1695C16.8776 24.1953 16.6465 24.3241 16.6927 24.6591C16.739 24.9683 16.9701 25.1486 17.2244 25.1229C17.3168 25.1229 17.3861 25.0971 17.4786 25.0714C18.0333 24.8395 18.6112 24.7879 19.2815 24.556C19.6051 24.4787 20.0674 24.4014 20.5065 24.2726C20.6452 24.2211 20.807 24.1438 20.7608 23.9119C20.7377 23.6542 20.5527 23.6284 20.4141 23.6027Z" fill="white"/>
<path d="M20.4141 28.2402C20.3216 28.2144 20.206 28.2402 20.1136 28.2402C19.0503 28.2659 18.1027 28.6524 17.0857 28.807C16.8776 28.8328 16.6465 28.9616 16.6927 29.2966C16.739 29.6058 16.9701 29.7862 17.2244 29.7604C17.3168 29.7604 17.3861 29.7346 17.4786 29.7089C18.0333 29.477 18.6112 29.4254 19.2815 29.1935C19.6051 29.1162 20.0674 29.0389 20.5065 28.9101C20.6452 28.8586 20.807 28.7813 20.7608 28.5494C20.7377 28.2917 20.5527 28.2659 20.4141 28.2402Z" fill="white"/>
<path d="M19.814 32.0004C19.7215 31.9746 19.6291 31.9746 19.5597 31.9746C18.6352 31.9488 17.8262 32.3353 16.9479 32.5672C16.7861 32.6188 16.6012 32.7734 16.6705 33.0826C16.7398 33.3918 16.971 33.5206 17.179 33.4948C17.2483 33.4948 17.3177 33.4691 17.387 33.4175C17.8262 33.1599 18.3116 33.0826 18.8663 32.8507C19.1437 32.7991 19.5135 32.6961 19.9064 32.6188C20.022 32.593 20.1607 32.5157 20.1145 32.2838C20.0682 32.0777 19.9295 32.0519 19.814 32.0004Z" fill="white"/>
<path d="M19.814 35.8408C19.7215 35.8151 19.6291 35.8151 19.5597 35.8151C18.6352 35.7893 17.8262 36.1758 16.9479 36.4077C16.7861 36.4592 16.6012 36.6138 16.6705 36.923C16.7398 37.2322 16.971 37.361 17.179 37.3353C17.2483 37.3353 17.3177 37.3095 17.387 37.258C17.8262 37.0003 18.3116 36.923 18.8663 36.6911C19.1437 36.6396 19.5135 36.5365 19.9064 36.4592C20.022 36.4335 20.1607 36.3562 20.1145 36.1243C20.0682 35.9181 19.9295 35.8924 19.814 35.8408Z" fill="white"/>
<path d="M49.6034 37.7475C48.4477 37.6444 47.1071 37.6187 45.8589 37.5414C32.5223 36.923 19.1625 37.2064 5.82579 37.1549C3.14458 37.1549 -0.0682382 37.3095 0.00110326 37.9794C0.0704447 38.6236 2.8441 39.0358 5.96447 39.0616C7.05082 39.0874 8.16028 39.0874 9.24663 39.0616C16.5044 38.8039 23.8777 38.9843 32.7765 38.8555C37.0295 38.907 42.8773 38.9585 48.7019 39.0101C50.5279 39.0358 52.7237 38.9585 52.9549 38.469C53.1629 38.0567 51.0595 37.9021 49.6034 37.7475Z" fill="#545AE8"/>
</g>
<defs>
<clipPath id="clip0_113_261">
<rect width="53" height="39.0875" fill="white"/>
</clipPath>
</defs>
</svg>
