<svg width="43" height="43" viewBox="0 0 43 43" fill="none" xmlns="http://www.w3.org/2000/svg">
<g clip-path="url(#clip0_113_201)">
<path d="M30.5717 38.3587C30.5717 38.9414 30.5717 39.5241 30.5717 40.0867C30.5717 40.3881 30.4922 40.569 30.1742 40.6895C28.445 41.3124 26.7159 41.9353 25.0066 42.5984C24.6091 42.7391 24.45 42.5582 24.291 42.2568C23.6948 41.1718 23.0985 40.0867 22.5022 39.0017C22.3631 38.7405 22.2041 38.5195 21.8662 38.4793C19.9582 38.2181 18.07 37.9568 16.162 37.6755C15.8042 37.6152 15.5458 37.7157 15.2874 37.9367C14.4129 38.64 13.5185 39.3031 12.6639 40.0064C12.4055 40.2274 12.1869 40.2475 11.8887 40.0667C10.3583 39.1223 8.84777 38.1779 7.31735 37.2536C6.91984 37.0124 6.89997 36.7713 7.07885 36.3695C7.59561 35.2241 8.05275 34.0587 8.54964 32.8933C8.64901 32.6522 8.62914 32.4512 8.49001 32.2302C7.51611 30.5624 6.54221 28.8746 5.58818 27.2068C5.40931 26.9054 5.1708 26.7447 4.83292 26.6844C3.73976 26.4433 2.64661 26.162 1.53358 25.9209C1.21557 25.8405 1.09632 25.6395 1.05657 25.3381C0.957191 24.5344 0.837938 23.7106 0.73856 22.9068C0.619307 21.9624 0.539805 21.018 0.380801 20.0737C0.301299 19.5914 0.500054 19.4307 0.897564 19.3101C2.09009 18.9685 3.3025 18.6269 4.49503 18.2853C4.79316 18.205 4.95217 18.0442 5.05155 17.7629C5.72731 15.9746 6.40308 14.2064 7.09872 12.4381C7.21798 12.1166 7.23785 11.8755 7.07885 11.5741C6.58196 10.5494 6.12482 9.50449 5.60806 8.49982C5.44906 8.17833 5.48881 7.9573 5.74719 7.69608C7.01922 6.43019 8.27138 5.12412 9.50366 3.83814C9.76204 3.55683 9.9608 3.53674 10.2788 3.77786C11.2328 4.50122 12.2266 5.16431 13.2005 5.88767C13.5781 6.16898 13.8961 6.22926 14.3533 6.0886C16.1023 5.50589 17.8514 4.96337 19.6004 4.44094C19.9383 4.34047 20.1371 4.13954 20.2961 3.83814C20.7731 2.85356 21.2898 1.86898 21.747 0.864305C21.9259 0.482529 22.1445 0.361969 22.542 0.422249C24.291 0.60309 26.06 0.783931 27.8289 0.944679C28.2264 0.984866 28.3854 1.14561 28.3854 1.54748C28.3655 2.81337 28.5245 4.05917 28.5643 5.32505C28.5842 5.62646 28.6835 5.84748 28.9419 6.00823C30.5518 7.09328 32.1617 8.19842 33.7717 9.28347C34.03 9.46431 34.2884 9.46431 34.5866 9.40403C35.6996 9.1629 36.8325 8.92178 37.9455 8.66057C38.2635 8.58019 38.4424 8.66057 38.6213 8.94188C39.5952 10.469 40.5691 12.0162 41.5629 13.5232C41.7815 13.8447 41.7219 14.0255 41.4635 14.2466C40.4896 15.0905 39.5554 15.9545 38.5815 16.8185C38.3828 16.9994 38.2834 17.2003 38.3033 17.4816C38.4623 19.3905 38.6014 21.2793 38.7405 23.1881C38.7604 23.5699 38.9194 23.811 39.2176 24.0321C40.0921 24.7353 40.9467 25.4587 41.8014 26.162C42.0399 26.3428 42.1393 26.5438 42.0399 26.8652C41.4436 28.6134 40.8473 30.3816 40.271 32.1297C40.1716 32.4512 39.9331 32.4512 39.6548 32.411C38.4027 32.19 37.1505 32.0092 35.9182 31.7881C35.6002 31.7279 35.3816 31.7681 35.1431 31.9891C33.7518 33.2952 32.3406 34.6012 30.9493 35.9073C30.7108 36.1283 30.5916 36.3695 30.6115 36.711C30.6313 37.2737 30.6115 37.8363 30.6115 38.3989C30.5916 38.3587 30.5916 38.3587 30.5717 38.3587ZM21.0712 35.2241C28.0475 35.3648 34.6462 29.7587 34.7853 21.7615C34.9244 14.3671 29.2798 8.07786 21.6277 7.83674C14.0154 7.59561 8.0925 13.6839 7.73474 20.8372C7.33723 28.5933 13.4191 35.1438 21.0712 35.2241Z" fill="#545AE8"/>
<path d="M21.6485 24.2732C21.6485 25.1171 21.6485 25.1171 20.8534 25.4386C20.5156 25.5793 20.1379 25.6798 19.8 25.8405C19.482 25.9812 19.3031 25.8807 19.164 25.5994C19.164 25.5793 19.1441 25.5793 19.1441 25.5592C18.6671 24.012 17.3156 24.2531 16.1628 24.1326C15.7852 24.0924 15.5069 24.4942 15.2287 24.7354C14.9107 25.0167 14.6324 25.0368 14.2746 24.7957C13.8771 24.5143 13.4399 24.2732 13.0225 24.0321C12.8039 23.8914 12.7244 23.7307 12.8635 23.5097C13.4796 22.6055 13.3007 21.8017 12.7045 20.9578C12.307 20.3952 11.989 19.8928 11.2337 19.8326C10.7368 19.7924 10.4585 19.5111 10.4585 18.9485C10.4585 18.5265 10.3989 18.1045 10.3194 17.6826C10.2797 17.4414 10.3592 17.3008 10.5778 17.2405C10.6772 17.2003 10.7964 17.14 10.8958 17.1199C11.8498 17.0597 12.2275 16.4368 12.4262 15.6129C12.4461 15.5125 12.466 15.412 12.5256 15.3316C12.943 14.7288 12.8039 14.1461 12.4461 13.5835C12.1678 13.1615 12.2672 12.84 12.625 12.5185C12.9629 12.2171 13.2809 11.8756 13.5989 11.5541C13.7778 11.3531 13.9368 11.3129 14.1355 11.5139C14.215 11.5742 14.3144 11.6143 14.374 11.6947C14.9703 12.3176 15.6461 12.398 16.4013 12.0363C16.6597 11.9157 16.9578 11.8354 17.2361 11.755C17.7926 11.6143 17.9317 11.112 18.1106 10.69C18.3094 10.248 18.5678 10.1073 19.0249 10.1877C19.482 10.2681 19.9193 10.3284 20.3764 10.3685C20.6944 10.3886 20.8336 10.5695 20.7938 10.8508C20.6348 11.8354 21.1118 12.398 21.9068 12.9003C22.6224 13.3424 23.2186 13.7041 24.0534 13.3022C24.3317 13.1615 24.59 13.262 24.749 13.5634C25.0074 14.0055 25.2857 14.4274 25.5838 14.8494C25.7826 15.1307 25.7428 15.3316 25.4844 15.5326C25.4447 15.5728 25.4049 15.5928 25.3851 15.633C25.0869 15.9344 24.59 16.1153 24.5503 16.5573C24.4708 17.3008 24.5304 18.0844 24.7292 18.8078C24.8285 19.1896 25.2658 19.3704 25.5639 19.6115C25.8621 19.8527 25.9813 20.0536 25.8024 20.4354C25.5838 20.8774 25.4646 21.3597 25.3056 21.8218C25.2261 22.083 25.067 22.2036 24.7888 22.1232C24.749 22.1232 24.7292 22.1232 24.6894 22.1031C23.1789 21.4802 22.6025 22.8064 21.7081 23.5298C21.5888 23.6302 21.6087 23.791 21.6087 23.9517C21.6485 24.012 21.6485 24.1527 21.6485 24.2732ZM13.0622 18.0041C13.102 20.9779 15.3678 23.2284 18.2696 23.1882C20.9329 23.148 23.2584 20.7569 23.2186 18.0643C23.1789 15.1307 20.8932 12.8802 18.0311 12.9204C15.328 12.9405 13.0225 15.3115 13.0622 18.0041Z" fill="#545AE8"/>
<path d="M30.672 29.6378C29.8571 29.256 29.4795 30.1 28.9428 30.5621C28.7441 30.7229 28.8037 31.0042 28.8236 31.2252C28.8633 31.5869 28.7043 31.7878 28.3863 31.8883C28.3466 31.9084 28.287 31.9285 28.2472 31.9486C27.4323 32.2299 27.4323 32.2299 26.9553 31.5065C26.8559 31.3458 26.7168 31.2453 26.518 31.2252C25.8621 31.1046 25.1665 30.8434 24.61 31.4864C24.4709 31.6271 24.2721 31.607 24.1131 31.5065C23.9938 31.4462 23.8945 31.3658 23.7752 31.3056C23.1193 30.8836 23.1193 30.8836 23.3777 30.1401C23.4572 29.9392 23.497 29.7584 23.3777 29.5775C23.0199 28.9948 22.7814 28.2514 21.9268 28.2112C21.7479 28.1911 21.6485 28.0504 21.6287 27.8696C21.5889 27.6084 21.569 27.3472 21.5293 27.0859C21.4895 26.7444 21.6088 26.5434 21.9665 26.5032C22.364 26.463 22.6224 26.242 22.7814 25.8401C23.0199 25.2574 23.2982 24.6948 22.8411 24.092C22.7218 23.9514 22.7814 23.7705 22.9206 23.65C22.9802 23.5897 23.0597 23.5093 23.1193 23.449C23.7553 22.806 23.7553 22.806 24.5106 23.2682C24.5901 23.3084 24.6895 23.3687 24.769 23.3887C25.2062 23.449 26.2994 22.8663 26.4982 22.4845C26.7764 21.942 26.836 21.942 27.8298 22.1028C28.287 22.1831 28.3068 22.4845 28.3068 22.8261C28.3068 23.1476 28.4261 23.3687 28.7043 23.5696C29.241 23.9313 29.7379 24.3934 30.4733 24.0518C30.6124 23.9915 30.7316 24.092 30.8111 24.1925C30.8906 24.2929 30.9503 24.4135 31.0298 24.514C31.5068 25.2172 31.5068 25.2172 30.8906 25.8602C30.8111 25.9406 30.7118 26.0411 30.7118 26.1415C30.7515 26.8247 30.5329 27.5883 31.2683 28.0705C31.5267 28.2313 31.6062 28.4523 31.467 28.7336C31.3677 28.9747 31.2882 29.2359 31.2087 29.4771C31.149 29.6378 31.0298 29.7383 30.672 29.6378ZM23.2386 27.0859C23.1988 28.8341 24.7094 30.4014 26.4783 30.4415C28.2472 30.4817 29.7577 28.9747 29.8174 27.1261C29.877 25.3579 28.3665 23.7906 26.6174 23.7504C24.7889 23.7504 23.2783 25.2373 23.2386 27.0859Z" fill="#545AE8"/>
</g>
<defs>
<clipPath id="clip0_113_201">
<rect width="42.2951" height="43" fill="white"/>
</clipPath>
</defs>
</svg>
