<svg width="44" height="44" viewBox="0 0 44 44" fill="none" xmlns="http://www.w3.org/2000/svg">
<path d="M22.0124 42.9261C19.2778 42.9261 16.5656 42.9261 13.831 42.9261C12.7999 42.9261 11.9706 42.5406 11.343 41.7243C7.91352 37.4157 4.50649 33.1071 1.07705 28.8212C0.449438 28.0275 0.247706 27.1205 0.494267 26.1227C1.34603 22.4717 2.17537 18.8208 3.00471 15.1698C3.38576 13.4918 3.76681 11.8137 4.14786 10.1356C4.28235 9.50066 4.55132 8.93374 5.02203 8.48021C5.26859 8.23077 5.5824 8.04935 5.8962 7.89062C7.82387 6.96087 9.75153 6.03113 11.6792 5.10138C14.6603 3.67275 17.6639 2.22144 20.6675 0.770132C20.9813 0.611395 21.2951 0.498011 21.6313 0.452658C22.2365 0.361951 22.7969 0.475335 23.3348 0.724778C24.1417 1.11028 24.9711 1.51846 25.778 1.90397C29.9023 3.89952 34.049 5.89507 38.1733 7.89062C38.4871 8.04935 38.8009 8.20809 39.0475 8.45753C39.4958 8.88839 39.7872 9.40996 39.9217 10.0449C40.5269 12.6754 41.1321 15.3286 41.7149 17.9591C42.3425 20.6576 42.9477 23.3788 43.5753 26.0773C43.8218 27.1205 43.5977 28.0275 42.9477 28.8666C39.5406 33.1525 36.1336 37.4384 32.7266 41.7243C32.099 42.5179 31.2696 42.9261 30.261 42.9261C27.5264 42.9261 24.7694 42.9261 22.0124 42.9261ZM21.3847 9.2739C21.3847 9.31925 21.3847 9.38728 21.3847 9.43263C21.4072 9.70475 21.3623 9.9542 21.1606 10.181C21.0934 10.249 21.0934 10.3397 21.0709 10.4304C21.0261 10.6345 21.0261 10.6345 20.8244 10.6798C20.802 10.6798 20.7571 10.6799 20.7347 10.7025C18.2915 10.9746 16.1397 11.9271 14.3017 13.5598C14.1 13.7412 13.9207 13.9226 13.7189 14.104C13.5396 14.2854 13.5396 14.3081 13.3379 14.1494C13.2706 14.104 13.181 14.0587 13.0913 14.0814C12.8448 14.104 12.6654 14.0133 12.4637 13.8546C12.0378 13.5144 11.6568 13.1516 11.2981 12.7434C11.0964 12.5167 10.8947 12.2899 10.6481 12.1085C10.5136 11.9951 10.3343 11.9271 10.155 11.8817C9.68428 11.791 9.25841 12.0631 9.16875 12.5167C9.07909 12.9022 9.19116 13.2196 9.48255 13.4691C9.75153 13.7185 10.0653 13.8999 10.3791 14.0587C10.8498 14.3081 11.2757 14.6256 11.6792 14.9431C11.8137 15.0565 11.9258 15.1925 11.9482 15.3739C11.9706 15.5327 12.0378 15.646 12.1723 15.7594C12.262 15.8275 12.262 15.9182 12.1947 16.0089C12.1051 16.1223 12.0378 16.2583 11.9706 16.3944C10.6257 18.7074 10.1326 21.1792 10.424 23.855C10.4464 24.1045 10.4464 24.1045 10.2447 24.1725C10.155 24.1952 10.0653 24.2632 9.99809 24.3312C9.8636 24.5126 9.68428 24.626 9.46014 24.6714C8.9446 24.7848 8.42906 24.8755 7.91352 24.8755C7.5773 24.8981 7.24108 24.9208 6.90486 25.0115C6.38933 25.1476 6.09794 25.6011 6.21001 26.1C6.32208 26.5989 6.79279 26.8937 7.30833 26.7803C7.64455 26.7123 7.98077 26.5762 8.29457 26.4402C8.76528 26.2361 9.28082 26.0773 9.77394 25.9639C9.97567 25.9186 10.1774 25.9186 10.3567 26.032C10.4688 26.0773 10.5809 26.1 10.6929 26.0773C10.8947 26.032 10.8947 26.0547 10.9619 26.2361C10.9843 26.2814 11.0067 26.3495 11.0067 26.3948C11.6119 28.0729 12.5309 29.5469 13.7638 30.7941C14.4138 31.4517 15.1086 31.996 15.8707 32.4948C16.0501 32.6082 16.0725 32.6082 15.9828 32.835C15.938 32.9484 15.9156 33.0618 15.9604 33.1751C16.0276 33.3792 15.9828 33.5606 15.8931 33.7421C15.669 34.2409 15.4 34.6945 15.0862 35.148C14.8845 35.4428 14.6828 35.7376 14.5483 36.0778C14.4362 36.3045 14.4362 36.554 14.5259 36.7807C14.6603 37.1436 14.9293 37.3477 15.3104 37.3703C15.6914 37.393 15.9828 37.2343 16.1621 36.8941C16.3414 36.5313 16.4759 36.1685 16.5656 35.7603C16.7001 35.216 16.9242 34.6945 17.1932 34.2183C17.2604 34.1049 17.3277 33.9915 17.4622 33.9461C17.6191 33.9008 17.7312 33.7874 17.7984 33.6513C17.8432 33.538 17.9329 33.5153 18.0225 33.5606C18.1122 33.606 18.2019 33.6287 18.3139 33.6513C20.0623 34.2409 21.833 34.4224 23.671 34.1729C24.4556 34.0595 25.2177 33.8781 25.9798 33.606C26.1815 33.538 26.2039 33.538 26.316 33.7194C26.3608 33.8101 26.428 33.8781 26.5177 33.9008C26.7194 33.9688 26.8539 34.1276 26.966 34.3316C27.2126 34.8305 27.4143 35.3521 27.5488 35.8963C27.6384 36.2365 27.7505 36.554 27.9074 36.8714C28.0867 37.2343 28.4454 37.4157 28.8712 37.3477C29.2299 37.3023 29.5213 37.0075 29.5885 36.5993C29.6333 36.3952 29.5885 36.2138 29.4989 36.0324C29.342 35.6923 29.1626 35.3975 28.9385 35.1027C28.6247 34.6718 28.3557 34.1956 28.1316 33.6967C28.0643 33.5153 28.0195 33.3566 28.0867 33.1751C28.1316 33.0618 28.1091 32.9484 28.0643 32.835C27.9971 32.6536 27.9971 32.6536 28.154 32.5402C28.1988 32.5175 28.2436 32.4948 28.266 32.4722C29.8127 31.4744 31.0455 30.2045 32.0093 28.6171C32.4576 27.8915 32.8162 27.1205 33.0852 26.3041C33.1749 26.0547 33.1524 26.032 33.4214 26.0773C33.5111 26.1 33.5783 26.0773 33.668 26.032C33.8473 25.9186 34.049 25.9186 34.2508 25.9639C34.7663 26.0773 35.2818 26.2361 35.7525 26.4402C36.0664 26.5762 36.4026 26.7123 36.7388 26.7803C36.9181 26.8257 37.0974 26.8257 37.2992 26.7576C37.6578 26.6216 37.8819 26.2814 37.8819 25.8959C37.8819 25.5104 37.6354 25.1703 37.2543 25.0569C36.9629 24.9662 36.6715 24.9208 36.3577 24.8981C35.775 24.8755 35.1922 24.8074 34.6094 24.6714C34.3853 24.626 34.1835 24.5126 34.049 24.3312C34.0042 24.2632 33.937 24.2178 33.8473 24.1725C33.6232 24.0818 33.6232 24.0818 33.6456 23.8323C33.8025 22.3584 33.7128 20.8844 33.3318 19.4331C33.018 18.2312 32.5248 17.12 31.8748 16.0769C31.7403 15.8728 31.7403 15.8728 31.9196 15.7141C31.9869 15.646 32.0541 15.578 32.0765 15.4646C32.099 15.2379 32.211 15.0791 32.3679 14.9431C32.7714 14.6029 33.2197 14.3081 33.6904 14.0587C34.0042 13.8999 34.2956 13.7185 34.5646 13.4918C34.968 13.1516 35.0577 12.5847 34.7439 12.1992C34.4301 11.791 33.8921 11.7457 33.4663 12.0631C33.1973 12.2899 32.9507 12.5393 32.7042 12.7888C32.3679 13.197 31.9869 13.5371 31.5834 13.8773C31.4265 14.0133 31.2472 14.0814 31.0231 14.0814C30.8886 14.0814 30.7765 14.1267 30.6868 14.1947C30.5299 14.3081 30.5299 14.3081 30.373 14.1721C30.3506 14.1494 30.3058 14.104 30.2834 14.0814C28.8488 12.6527 27.1677 11.6549 25.2401 11.088C24.6125 10.9066 23.9848 10.7706 23.3348 10.7025C23.0883 10.6799 23.0658 10.6572 23.0434 10.4304C23.0434 10.317 22.9986 10.249 22.9314 10.1583C22.7969 10.0222 22.752 9.86349 22.752 9.6594C22.752 9.09248 22.7745 8.54824 22.8865 8.004C22.9538 7.64117 22.9986 7.30102 22.9762 6.93819C22.9538 6.41663 22.5503 6.03113 22.0572 6.0538C21.5641 6.07648 21.2054 6.46198 21.183 6.98355C21.183 7.34637 21.2278 7.68653 21.2951 8.02668C21.3175 8.41218 21.3623 8.84304 21.3847 9.2739Z" fill="#F65535"/>
<path d="M25.1958 25.6454C25.1958 25.1919 25.532 24.8291 25.9579 24.8064C26.07 24.8064 26.182 24.8064 26.3165 24.8291C27.7287 25.0785 29.1408 25.3053 30.5305 25.5547C30.5529 25.5547 30.5977 25.5547 30.6202 25.5774C30.8219 25.6228 30.8443 25.6454 30.7771 25.8268C30.7322 25.9629 30.6874 26.0763 30.6202 26.1897C29.9029 27.8451 28.827 29.183 27.3476 30.2035C27.0786 30.3849 27.0786 30.3849 26.9441 30.0901C26.4062 28.7748 25.8682 27.4596 25.3303 26.1443C25.2855 25.9856 25.2182 25.8268 25.1958 25.6454Z" fill="#F65535"/>
<path d="M20.891 13.4698C20.8238 14.5356 20.7789 15.6014 20.7117 16.6672C20.6893 17.0074 20.6669 17.3475 20.6669 17.6877C20.6669 17.8237 20.6444 17.9598 20.5996 18.0732C20.4427 18.5494 19.9496 18.7535 19.5013 18.5494C19.4116 18.504 19.322 18.436 19.2323 18.3906C18.0668 17.5516 16.9012 16.7126 15.7132 15.8735C15.7132 15.8735 15.6908 15.8735 15.6908 15.8508C15.4891 15.6921 15.4667 15.6921 15.6684 15.5107C16.6546 14.5809 17.7978 13.9006 19.0754 13.4698C19.5685 13.311 20.0617 13.175 20.5548 13.107C20.622 13.107 20.6893 13.0843 20.7565 13.0843C20.8462 13.0616 20.9134 13.107 20.9134 13.2203C20.9134 13.2884 20.9134 13.3791 20.891 13.4698C20.9134 13.4698 20.9134 13.4698 20.891 13.4698Z" fill="#F65535"/>
<path d="M12.708 22.3586C12.7304 20.7258 13.1115 19.1612 13.9408 17.7098C14.0977 17.4377 14.0977 17.4377 14.3219 17.6418C15.3529 18.5716 16.3616 19.5013 17.3927 20.4311C17.5047 20.5444 17.6168 20.6351 17.7289 20.7712C18.0651 21.2021 17.9306 21.7917 17.4375 22.0411C17.3478 22.0864 17.2358 22.1318 17.1237 22.1545C15.7788 22.54 14.4339 22.9482 13.0891 23.3337C12.7753 23.4244 12.7753 23.4244 12.7528 23.0842C12.708 22.8575 12.708 22.6307 12.708 22.3586Z" fill="#F65535"/>
<path d="M31.3834 22.5173C31.3834 22.7214 31.3834 22.9708 31.361 23.1976C31.3386 23.3564 31.3162 23.379 31.1593 23.3337C30.8006 23.243 30.4196 23.1296 30.061 23.0162C29.0523 22.7214 28.0436 22.4266 27.0126 22.1318C26.8781 22.0865 26.7212 22.0411 26.6091 21.9731C26.1832 21.7236 26.0711 21.1794 26.3625 20.7712C26.4298 20.6805 26.497 20.6125 26.5643 20.5444C27.6402 19.5693 28.6937 18.6169 29.7696 17.6418C29.7696 17.6418 29.792 17.6418 29.792 17.6191C29.9937 17.4377 29.9937 17.4377 30.1282 17.6645C30.6886 18.6623 31.0696 19.7054 31.2713 20.8392C31.3386 21.4062 31.3834 21.9504 31.3834 22.5173Z" fill="#F65535"/>
<path d="M22.0137 31.8832C21.1395 31.8606 20.2205 31.7472 19.3463 31.475C19.3015 31.4524 19.2343 31.4297 19.1894 31.4297C19.0774 31.407 19.0549 31.339 19.0998 31.2483C19.1222 31.2029 19.1446 31.1576 19.167 31.1122C19.8395 29.865 20.5119 28.6405 21.1843 27.3932C21.2516 27.2799 21.2964 27.1891 21.3637 27.0984C21.6775 26.6903 22.2602 26.6676 22.5965 27.0531C22.6861 27.1438 22.7534 27.2572 22.8206 27.3932C23.493 28.6405 24.1879 29.8877 24.8603 31.1349C24.9948 31.407 24.9948 31.407 24.7034 31.4977C23.8965 31.7472 22.9775 31.8832 22.0137 31.8832Z" fill="#F65535"/>
<path d="M17.9798 24.8306C18.5626 24.8306 18.9212 25.2614 18.8539 25.783C18.8315 25.919 18.7867 26.0324 18.7419 26.1685C18.2039 27.4837 17.666 28.799 17.128 30.1369C17.0159 30.3864 17.0159 30.3864 16.7918 30.2276C15.2228 29.1391 14.0796 27.6878 13.3624 25.8964C13.2503 25.6469 13.2727 25.6243 13.5417 25.5789C14.9538 25.3295 16.3659 25.1027 17.778 24.8532C17.8677 24.8532 17.9574 24.8306 17.9798 24.8306Z" fill="#F65535"/>
<path d="M23.1771 13.4905C23.1771 13.4678 23.1771 13.4225 23.1771 13.3998C23.1547 13.0596 23.1771 13.0596 23.5133 13.105C25.3513 13.4225 26.9652 14.2162 28.3549 15.4861C28.3773 15.5087 28.3997 15.5087 28.3997 15.5314C28.5566 15.6901 28.5566 15.7128 28.3773 15.8489C27.4807 16.4838 26.5842 17.1415 25.71 17.7764C25.441 17.9805 25.172 18.1619 24.9031 18.366C24.791 18.434 24.6789 18.5247 24.5668 18.5701C24.1185 18.7515 23.603 18.5021 23.4909 18.0258C23.4685 17.9351 23.4685 17.8671 23.4461 17.7764C23.4013 17.1868 23.3789 16.5745 23.334 15.9849C23.2668 15.1232 23.222 14.3069 23.1771 13.4905Z" fill="#F65535"/>
<path d="M22.0539 20.907C22.2332 20.907 22.4125 20.907 22.5919 20.907C22.7039 20.907 22.7936 20.9297 22.8832 21.043C23.1074 21.3378 23.354 21.6553 23.6005 21.9501C23.6678 22.0408 23.6902 22.1088 23.6678 22.2222C23.5781 22.6077 23.4884 22.9932 23.3988 23.3787C23.3764 23.4695 23.3315 23.5375 23.2419 23.5828C22.8832 23.7642 22.5246 23.923 22.166 24.1044C22.0763 24.1498 22.0091 24.1498 21.9194 24.1044C21.5608 23.923 21.2246 23.7642 20.8659 23.6055C20.7539 23.5602 20.709 23.4921 20.6866 23.3787C20.597 23.0159 20.5297 22.6531 20.44 22.2676C20.4176 22.1542 20.44 22.0635 20.5073 21.9728C20.7314 21.678 20.978 21.4059 21.2021 21.1111C21.2918 21.0204 21.3815 20.9523 21.4935 20.975C21.6729 20.9297 21.8746 20.907 22.0539 20.907Z" fill="#F65535"/>
</svg>
