<svg width="64" height="63" viewBox="0 0 64 63" fill="none" xmlns="http://www.w3.org/2000/svg">
<g clip-path="url(#clip0_303_4003)">
<path d="M32.0165 62.4395C28.0389 62.4395 24.0939 62.4395 20.1164 62.4395C18.6166 62.4395 17.4103 61.8787 16.4974 60.6913C11.5091 54.4243 6.55344 48.1573 1.56515 41.9232C0.652263 40.7688 0.358835 39.4494 0.71747 37.9981C1.95639 32.6876 3.16271 27.3772 4.36902 22.0667C4.92328 19.6258 5.47753 17.185 6.03178 14.7442C6.2274 13.8206 6.61864 12.996 7.30331 12.3363C7.66194 11.9735 8.11839 11.7096 8.57483 11.4787C11.3787 10.1264 14.1826 8.77401 16.9864 7.42166C21.3227 5.34365 25.6915 3.23265 30.0603 1.12166C30.5168 0.890766 30.9732 0.725845 31.4622 0.659876C32.3425 0.527939 33.1576 0.692861 33.9401 1.05569C35.1138 1.61642 36.3201 2.21014 37.4938 2.77087C43.4928 5.67349 49.5244 8.57611 55.5234 11.4787C55.9798 11.7096 56.4363 11.9405 56.7949 12.3033C57.447 12.93 57.8708 13.6887 58.0664 14.6122C58.9467 18.4384 59.827 22.2976 60.6747 26.1238C61.5876 30.0489 62.4678 34.007 63.3807 37.9321C63.7394 39.4494 63.4133 40.7688 62.4679 41.9892C57.5122 48.2232 52.5565 54.4573 47.6008 60.6913C46.6879 61.8457 45.4816 62.4395 44.0145 62.4395C40.0369 62.4395 36.0267 62.4395 32.0165 62.4395ZM31.1036 13.4908C31.1036 13.5567 31.1036 13.6557 31.1036 13.7217C31.1362 14.1175 31.071 14.4803 30.7776 14.8101C30.6798 14.9091 30.6798 15.041 30.6472 15.173C30.582 15.4698 30.582 15.4698 30.2885 15.5358C30.2559 15.5358 30.1907 15.5358 30.1581 15.5688C26.6044 15.9646 23.4745 17.3499 20.801 19.7248C20.5076 19.9887 20.2468 20.2525 19.9533 20.5164C19.6925 20.7803 19.6925 20.8133 19.3991 20.5824C19.3013 20.5164 19.1709 20.4505 19.0404 20.4834C18.6818 20.5164 18.421 20.3845 18.1276 20.1536C17.5081 19.6588 16.9538 19.1311 16.4322 18.5374C16.1388 18.2075 15.8453 17.8777 15.4867 17.6138C15.2911 17.4489 15.0303 17.3499 14.7694 17.284C14.0848 17.152 13.4653 17.5478 13.3349 18.2075C13.2045 18.7683 13.3675 19.23 13.7913 19.5929C14.1826 19.9557 14.639 20.2196 15.0955 20.4505C15.7801 20.8133 16.3996 21.2751 16.9864 21.7368C17.1821 21.9018 17.3451 22.0997 17.3777 22.3635C17.4103 22.5944 17.5081 22.7594 17.7037 22.9243C17.8341 23.0232 17.8341 23.1552 17.7363 23.2871C17.6059 23.452 17.5081 23.6499 17.4103 23.8478C15.4541 27.2122 14.7368 30.8075 15.1607 34.6997C15.1933 35.0625 15.1933 35.0625 14.8998 35.1614C14.7694 35.1944 14.639 35.2934 14.5412 35.3923C14.3456 35.6562 14.0848 35.8211 13.7587 35.8871C13.0089 36.052 12.259 36.184 11.5091 36.184C11.0201 36.2169 10.531 36.2499 10.042 36.3819C9.2921 36.5798 8.86826 37.2395 9.03128 37.9651C9.19429 38.6908 9.87896 39.1196 10.6288 38.9546C11.1179 38.8557 11.6069 38.6578 12.0634 38.4599C12.748 38.163 13.4979 37.9321 14.2152 37.7672C14.5086 37.7012 14.802 37.7012 15.0629 37.8662C15.2259 37.9321 15.3889 37.9651 15.5519 37.9321C15.8453 37.8662 15.8453 37.8991 15.9431 38.163C15.9757 38.229 16.0084 38.3279 16.0084 38.3939C16.8886 40.8348 18.2254 42.9787 20.0185 44.7929C20.964 45.7494 21.9747 46.541 23.0832 47.2667C23.3441 47.4316 23.3767 47.4316 23.2463 47.7615C23.181 47.9264 23.1484 48.0913 23.2136 48.2562C23.3115 48.5531 23.2463 48.8169 23.1158 49.0808C22.7898 49.8065 22.3986 50.4662 21.9421 51.1259C21.6487 51.5546 21.3553 51.9834 21.1597 52.4782C20.9966 52.8081 20.9966 53.1709 21.127 53.5007C21.3227 54.0285 21.7139 54.3253 22.2682 54.3583C22.8224 54.3913 23.2463 54.1604 23.5071 53.6656C23.7679 53.1379 23.9635 52.6101 24.0939 52.0164C24.2896 51.2248 24.6156 50.4662 25.0068 49.7735C25.1046 49.6086 25.2024 49.4436 25.3981 49.3777C25.6263 49.3117 25.7893 49.1468 25.8871 48.9489C25.9523 48.784 26.0827 48.751 26.2131 48.8169C26.3436 48.8829 26.474 48.9159 26.637 48.9489C29.18 49.8065 31.7557 50.0704 34.4291 49.7075C35.5702 49.5426 36.6788 49.2787 37.7873 48.8829C38.0807 48.784 38.1133 48.784 38.2763 49.0478C38.3415 49.1798 38.4393 49.2787 38.5697 49.3117C38.8632 49.4107 39.0588 49.6416 39.2218 49.9384C39.5804 50.6641 39.8739 51.4227 40.0695 52.2143C40.1999 52.7091 40.3629 53.1709 40.5911 53.6327C40.852 54.1604 41.3736 54.4243 41.9931 54.3253C42.5147 54.2594 42.9386 53.8306 43.0364 53.2368C43.1016 52.94 43.0364 52.6761 42.906 52.4122C42.6777 51.9175 42.4169 51.4887 42.0909 51.0599C41.6344 50.4332 41.2432 49.7405 40.9172 49.0149C40.8194 48.751 40.7542 48.5201 40.852 48.2562C40.9172 48.0913 40.8846 47.9264 40.8194 47.7615C40.7215 47.4976 40.7215 47.4976 40.9498 47.3327C41.015 47.2997 41.0802 47.2667 41.1128 47.2337C43.3624 45.7824 45.1556 43.9353 46.5575 41.6264C47.2096 40.5709 47.7312 39.4494 48.1225 38.262C48.2529 37.8991 48.2203 37.8662 48.6115 37.9321C48.7419 37.9651 48.8397 37.9321 48.9701 37.8662C49.231 37.7012 49.5244 37.7012 49.8178 37.7672C50.5677 37.9321 51.3176 38.163 52.0022 38.4599C52.4587 38.6578 52.9477 38.8557 53.4368 38.9546C53.6976 39.0206 53.9584 39.0206 54.2519 38.9217C54.7735 38.7238 55.0995 38.229 55.0995 37.6683C55.0995 37.1075 54.7409 36.6128 54.1866 36.4478C53.7628 36.3159 53.339 36.2499 52.8825 36.2169C52.0348 36.184 51.1872 36.085 50.3395 35.8871C50.0134 35.8211 49.72 35.6562 49.5244 35.3923C49.4592 35.2934 49.3614 35.2274 49.231 35.1614C48.9049 35.0295 48.9049 35.0295 48.9375 34.6667C49.1658 32.5227 49.0353 30.3787 48.4811 28.2677C48.0247 26.5196 47.3074 24.9033 46.3619 23.3861C46.1663 23.0892 46.1663 23.0892 46.4271 22.8583C46.5249 22.7594 46.6227 22.6604 46.6553 22.4955C46.6879 22.1656 46.8509 21.9347 47.0792 21.7368C47.666 21.2421 48.3181 20.8133 49.0027 20.4505C49.4592 20.2196 49.883 19.9557 50.2743 19.6258C50.8611 19.1311 50.9915 18.3065 50.5351 17.7457C50.0787 17.152 49.2962 17.0861 48.6767 17.5478C48.2855 17.8777 47.9268 18.2405 47.5682 18.6033C47.0792 19.1971 46.5249 19.6918 45.938 20.1866C45.7098 20.3845 45.449 20.4834 45.123 20.4834C44.9273 20.4834 44.7643 20.5494 44.6339 20.6484C44.4057 20.8133 44.4057 20.8133 44.1775 20.6154C44.1449 20.5824 44.0797 20.5164 44.0471 20.4834C41.9605 18.4054 39.5152 16.9541 36.7114 16.1295C35.7985 15.8656 34.8856 15.6677 33.9401 15.5688C33.5815 15.5358 33.5489 15.5028 33.5163 15.173C33.5163 15.008 33.451 14.9091 33.3532 14.7772C33.1576 14.5792 33.0924 14.3484 33.0924 14.0515C33.0924 13.2269 33.125 12.4353 33.288 11.6436C33.3858 11.1159 33.451 10.6211 33.4184 10.0934C33.3858 9.33475 32.799 8.77401 32.0817 8.807C31.3644 8.83998 30.8428 9.40071 30.8102 10.1594C30.8102 10.6871 30.8754 11.1819 30.9732 11.6766C31.0058 12.2374 31.071 12.8641 31.1036 13.4908Z" fill="#FF6868"/>
<path d="M36.646 37.3054C36.646 36.6457 37.135 36.1179 37.7545 36.085C37.9175 36.085 38.0805 36.085 38.2762 36.1179C40.3302 36.4808 42.3842 36.8106 44.4055 37.1734C44.4381 37.1734 44.5034 37.1734 44.536 37.2064C44.8294 37.2724 44.862 37.3054 44.7642 37.5693C44.699 37.7672 44.6338 37.9321 44.536 38.097C43.4927 40.5049 41.9277 42.4509 39.7759 43.9352C39.3847 44.1991 39.3847 44.1991 39.189 43.7703C38.4066 41.8572 37.6241 39.9441 36.8416 38.031C36.7764 37.8001 36.6786 37.5693 36.646 37.3054Z" fill="#FF6868"/>
<path d="M30.3864 19.5929C30.2886 21.1432 30.2234 22.6934 30.1256 24.2437C30.093 24.7385 30.0604 25.2332 30.0604 25.728C30.0604 25.9259 30.0278 26.1238 29.9626 26.2887C29.7344 26.9814 29.0171 27.2782 28.365 26.9814C28.2346 26.9154 28.1042 26.8165 27.9738 26.7505C26.2784 25.5301 24.5831 24.3097 22.8551 23.0892C22.8551 23.0892 22.8225 23.0892 22.8225 23.0563C22.5291 22.8254 22.4965 22.8254 22.7899 22.5615C24.2244 21.2091 25.8872 20.2196 27.7456 19.5929C28.4628 19.362 29.1801 19.1641 29.8974 19.0652C29.9952 19.0652 30.093 19.0322 30.1908 19.0322C30.3212 18.9992 30.419 19.0652 30.419 19.2301C30.419 19.329 30.419 19.461 30.3864 19.5929C30.419 19.5929 30.419 19.5929 30.3864 19.5929Z" fill="#FF6868"/>
<path d="M18.4863 32.5225C18.5189 30.1477 19.0732 27.8717 20.2795 25.7608C20.5077 25.3649 20.5077 25.3649 20.8338 25.6618C22.3335 27.0142 23.8006 28.3665 25.3004 29.7189C25.4634 29.8838 25.6264 30.0157 25.7894 30.2136C26.2785 30.8403 26.0829 31.6979 25.3656 32.0608C25.2352 32.1267 25.0722 32.1927 24.9092 32.2257C22.953 32.7864 20.9968 33.3801 19.0406 33.9409C18.5841 34.0728 18.5841 34.0728 18.5515 33.578C18.4863 33.2482 18.4863 32.9183 18.4863 32.5225Z" fill="#FF6868"/>
<path d="M45.6447 32.7534C45.6447 33.0503 45.6447 33.4131 45.6121 33.743C45.5795 33.9739 45.5469 34.0068 45.3187 33.9409C44.797 33.8089 44.2428 33.644 43.7211 33.4791C42.254 33.0503 40.7868 32.6215 39.2871 32.1927C39.0915 32.1267 38.8632 32.0608 38.7002 31.9618C38.0808 31.599 37.9178 30.8074 38.3416 30.2136C38.4394 30.0817 38.5372 29.9828 38.635 29.8838C40.2 28.4655 41.7323 27.0801 43.2973 25.6618C43.2973 25.6618 43.3299 25.6618 43.3299 25.6288C43.6233 25.3649 43.6233 25.365 43.8189 25.6948C44.634 27.1461 45.1883 28.6634 45.4817 30.3126C45.5795 31.1372 45.6447 31.9288 45.6447 32.7534Z" fill="#FF6868"/>
<path d="M32.0165 46.3761C30.745 46.3431 29.4082 46.1782 28.1367 45.7824C28.0715 45.7494 27.9737 45.7164 27.9085 45.7164C27.7455 45.6834 27.7129 45.5845 27.7781 45.4525C27.8107 45.3866 27.8433 45.3206 27.8759 45.2546C28.854 43.4405 29.8321 41.6593 30.8102 39.8452C30.908 39.6803 30.9732 39.5483 31.071 39.4164C31.5274 38.8227 32.3751 38.7897 32.8642 39.3504C32.9946 39.4824 33.0924 39.6473 33.1902 39.8452C34.1683 41.6593 35.179 43.4735 36.1571 45.2876C36.3527 45.6834 36.3527 45.6834 35.9289 45.8154C34.7551 46.1782 33.4184 46.3761 32.0165 46.3761Z" fill="#FF6868"/>
<path d="M26.148 36.1182C26.9957 36.1182 27.5173 36.7449 27.4195 37.5035C27.3869 37.7014 27.3217 37.8663 27.2565 38.0642C26.474 39.9773 25.6916 41.8904 24.9091 43.8365C24.7461 44.1993 24.7461 44.1993 24.42 43.9684C22.1378 42.3852 20.4751 40.2742 19.4318 37.6684C19.2687 37.3056 19.3013 37.2726 19.6926 37.2066C21.7466 36.8438 23.8006 36.514 25.8546 36.1511C25.985 36.1511 26.1154 36.1182 26.148 36.1182Z" fill="#FF6868"/>
<path d="M33.7117 19.626C33.7117 19.593 33.7117 19.527 33.7117 19.494C33.6791 18.9993 33.7117 18.9993 34.2007 19.0652C36.8742 19.527 39.2216 20.6815 41.243 22.5286C41.2756 22.5616 41.3082 22.5616 41.3082 22.5946C41.5365 22.8254 41.5365 22.8584 41.2756 23.0563C39.9715 23.9799 38.6674 24.9364 37.3958 25.86C37.0046 26.1569 36.6134 26.4207 36.2221 26.7176C36.0591 26.8165 35.8961 26.9485 35.7331 27.0145C35.081 27.2783 34.3312 26.9155 34.1681 26.2228C34.1355 26.0909 34.1355 25.9919 34.1029 25.86C34.0377 25.0024 34.0051 24.1118 33.9399 23.2542C33.8421 22.0008 33.7769 20.8134 33.7117 19.626Z" fill="#FF6868"/>
<path d="M32.0818 30.4116C32.3426 30.4116 32.6035 30.4116 32.8643 30.4116C33.0273 30.4116 33.1577 30.4446 33.2881 30.6095C33.6142 31.0383 33.9728 31.5001 34.3314 31.9289C34.4293 32.0608 34.4619 32.1598 34.4292 32.3247C34.2988 32.8854 34.1684 33.4462 34.038 34.0069C34.0054 34.1388 33.9402 34.2378 33.8098 34.3038C33.2881 34.5676 32.7665 34.7985 32.2448 35.0624C32.1144 35.1284 32.0166 35.1284 31.8862 35.0624C31.3646 34.7985 30.8755 34.5676 30.3539 34.3368C30.1908 34.2708 30.1256 34.1718 30.093 34.0069C29.9626 33.4792 29.8648 32.9514 29.7344 32.3907C29.7018 32.2258 29.7344 32.0938 29.8322 31.9619C30.1582 31.5331 30.5169 31.1373 30.8429 30.7085C30.9733 30.5765 31.1037 30.4776 31.2667 30.5106C31.5276 30.4446 31.821 30.4116 32.0818 30.4116Z" fill="#FF6868"/>
</g>
<defs>
<clipPath id="clip0_303_4003">
<rect width="64" height="63" fill="white"/>
</clipPath>
</defs>
</svg>
