<svg width="60" height="61" viewBox="0 0 60 61" fill="none" xmlns="http://www.w3.org/2000/svg">
<g clip-path="url(#clip0_303_4159)">
<path d="M43.3647 54.4153C43.3647 55.242 43.3647 56.0686 43.3647 56.8667C43.3647 57.2943 43.2519 57.5509 42.8008 57.7219C40.3478 58.6055 37.8948 59.4892 35.4699 60.4298C34.906 60.6294 34.6805 60.3728 34.4549 59.9452C33.609 58.406 32.7632 56.8667 31.9173 55.3275C31.7199 54.9569 31.4944 54.6434 31.0151 54.5864C28.3083 54.2158 25.6297 53.8452 22.923 53.4462C22.4154 53.3607 22.0489 53.5032 21.6824 53.8167C20.4418 54.8144 19.173 55.7551 17.9605 56.7527C17.594 57.0663 17.2839 57.0948 16.8609 56.8382C14.6899 55.4985 12.547 54.1588 10.376 52.8476C9.81205 52.5055 9.78386 52.1635 10.0376 51.5934C10.7707 49.9686 11.4192 48.3153 12.1241 46.6621C12.2651 46.32 12.2369 46.035 12.0395 45.7214C10.6579 43.3555 9.27634 40.9611 7.92296 38.5952C7.6692 38.1677 7.33085 37.9396 6.85153 37.8541C5.30078 37.5121 3.75002 37.113 2.17108 36.7709C1.71995 36.6569 1.55078 36.3719 1.49438 35.9443C1.35341 34.8041 1.18423 33.6354 1.04326 32.4952C0.874083 31.1555 0.761301 29.8158 0.535737 28.4761C0.422955 27.792 0.70491 27.5639 1.26882 27.3929C2.96055 26.9083 4.68047 26.4237 6.3722 25.9392C6.79514 25.8251 7.0207 25.5971 7.16168 25.198C8.12032 22.6611 9.07897 20.1527 10.0658 17.6443C10.235 17.1882 10.2632 16.8462 10.0376 16.4186C9.33273 14.9649 8.68423 13.4826 7.95115 12.0574C7.72559 11.6013 7.78198 11.2878 8.14852 10.9172C9.95303 9.12141 11.7293 7.26861 13.4775 5.44431C13.844 5.04524 14.126 5.01674 14.5771 5.35879C15.9305 6.38496 17.3403 7.32562 18.7218 8.35179C19.2575 8.75085 19.7087 8.83636 20.3572 8.63683C22.8384 7.8102 25.3196 7.04057 27.8008 6.29945C28.2801 6.15693 28.5621 5.87188 28.7876 5.44431C29.4643 4.04758 30.1974 2.65085 30.8459 1.22562C31.0996 0.684029 31.4098 0.513001 31.9737 0.598515C34.4549 0.855057 36.9643 1.1116 39.4737 1.33964C40.0376 1.39665 40.2632 1.62468 40.2632 2.19478C40.235 3.99057 40.4605 5.75786 40.5169 7.55365C40.5451 7.98123 40.6861 8.29478 41.0527 8.52281C43.3365 10.0621 45.6203 11.6298 47.9042 13.1691C48.2707 13.4256 48.6372 13.4256 49.0602 13.3401C50.6391 12.998 52.2463 12.656 53.8252 12.2854C54.2763 12.1714 54.5301 12.2854 54.7839 12.6845C56.1654 14.8509 57.547 17.0457 58.9568 19.1836C59.2669 19.6396 59.1824 19.8962 58.8158 20.2097C57.4342 21.4069 56.109 22.6326 54.7275 23.8583C54.4455 24.1149 54.3045 24.3999 54.3327 24.799C54.5583 27.5069 54.7557 30.1864 54.953 32.8943C54.9812 33.4359 55.2068 33.778 55.6297 34.0915C56.8703 35.0892 58.0827 36.1153 59.2951 37.113C59.6335 37.3695 59.7745 37.6546 59.6335 38.1107C58.7876 40.5906 57.9418 43.099 57.1241 45.5789C56.9831 46.035 56.6448 46.035 56.25 45.978C54.4737 45.6644 52.6974 45.4079 50.9493 45.0943C50.4981 45.0088 50.188 45.0658 49.8496 45.3794C47.876 47.2322 45.8741 49.085 43.9004 50.9378C43.5621 51.2513 43.3929 51.5934 43.4211 52.078C43.4493 52.8761 43.4211 53.6742 43.4211 54.4724C43.3929 54.4153 43.3929 54.4153 43.3647 54.4153ZM29.8872 49.9686C39.7839 50.1681 49.1448 42.2153 49.3421 30.8705C49.5395 20.3808 41.532 11.4588 30.6767 11.1167C19.8778 10.7747 11.4756 19.4116 10.9681 29.5593C10.4042 40.5621 19.032 49.8546 29.8872 49.9686Z" fill="#516FE9"/>
<path d="M30.705 34.4336C30.705 35.6308 30.705 35.6308 29.5772 36.0869C29.0979 36.2864 28.5622 36.4289 28.0828 36.657C27.6317 36.8565 27.378 36.714 27.1806 36.3149C27.1806 36.2864 27.1524 36.2864 27.1524 36.2579C26.4757 34.063 24.5584 34.4051 22.9231 34.2341C22.3874 34.1771 21.9926 34.7472 21.5979 35.0892C21.1468 35.4883 20.752 35.5168 20.2445 35.1747C19.6806 34.7757 19.0603 34.4336 18.4682 34.0915C18.158 33.892 18.0453 33.664 18.2426 33.3504C19.1167 32.0677 18.8629 30.9275 18.0171 29.7303C17.4531 28.9322 17.002 28.2196 15.9306 28.1341C15.2257 28.0771 14.831 27.678 14.831 26.8799C14.831 26.2813 14.7464 25.6827 14.6336 25.0841C14.5772 24.742 14.69 24.5425 15.0001 24.457C15.1411 24.4 15.3103 24.3144 15.4513 24.2859C16.8047 24.2004 17.3404 23.3168 17.6223 22.1481C17.6505 22.0056 17.6787 21.863 17.7633 21.749C18.3554 20.8939 18.158 20.0672 17.6505 19.2691C17.2558 18.6705 17.3968 18.2144 17.9043 17.7584C18.3836 17.3308 18.8347 16.8462 19.2859 16.3901C19.5396 16.1051 19.7652 16.0481 20.0471 16.3331C20.1599 16.4187 20.3009 16.4757 20.3855 16.5897C21.2313 17.4733 22.19 17.5873 23.2614 17.0743C23.628 16.9032 24.0509 16.7892 24.4456 16.6752C25.2351 16.4757 25.4325 15.763 25.6862 15.1644C25.9682 14.5373 26.3347 14.3378 26.9832 14.4518C27.6317 14.5658 28.252 14.6514 28.9005 14.7084C29.3516 14.7369 29.549 14.9934 29.4926 15.3925C29.2671 16.7892 29.9437 17.5873 31.0716 18.3C32.0866 18.9271 32.9325 19.4401 34.1167 18.8701C34.5114 18.6705 34.878 18.813 35.1035 19.2406C35.4701 19.8677 35.8648 20.4663 36.2877 21.0649C36.5697 21.464 36.5133 21.749 36.1468 22.0341C36.0904 22.0911 36.034 22.1196 36.0058 22.1766C35.5828 22.6042 34.878 22.8607 34.8216 23.4878C34.7088 24.5425 34.7934 25.6542 35.0753 26.6803C35.2163 27.2219 35.8366 27.4785 36.2595 27.8205C36.6825 28.1626 36.8516 28.4476 36.5979 28.9892C36.2877 29.6163 36.1186 30.3004 35.893 30.956C35.7802 31.3266 35.5546 31.4976 35.1599 31.3836C35.1035 31.3836 35.0753 31.3836 35.0189 31.3551C32.8761 30.4715 32.0584 32.3528 30.7896 33.3789C30.6204 33.5215 30.6486 33.7495 30.6486 33.9775C30.705 34.063 30.705 34.2626 30.705 34.4336ZM18.5246 25.5401C18.581 29.7588 21.7953 32.9514 25.9118 32.8944C29.69 32.8373 32.9889 29.4453 32.9325 25.6257C32.8761 21.464 29.6336 18.2715 25.5734 18.3285C21.7389 18.357 18.4682 21.7205 18.5246 25.5401Z" fill="#516FE9"/>
<path d="M43.5057 42.0443C42.3497 41.5027 41.8139 42.6999 41.0527 43.3555C40.7707 43.5836 40.8553 43.9826 40.8835 44.2962C40.9399 44.8093 40.7143 45.0943 40.2632 45.2369C40.2068 45.2654 40.1222 45.2939 40.0658 45.3224C38.9098 45.7214 38.9098 45.7214 38.2331 44.6953C38.0921 44.4672 37.8948 44.3247 37.6128 44.2962C36.6824 44.1252 35.6955 43.7546 34.9061 44.6668C34.7087 44.8663 34.4267 44.8378 34.2012 44.6953C34.032 44.6098 33.891 44.4957 33.7218 44.4102C32.7914 43.8116 32.7914 43.8116 33.1579 42.7569C33.2707 42.4719 33.3271 42.2154 33.1579 41.9588C32.6504 41.1322 32.3121 40.0775 31.0997 40.0205C30.8459 39.992 30.7049 39.7925 30.6767 39.5359C30.6203 39.1654 30.5921 38.7948 30.5358 38.4242C30.4794 37.9397 30.6485 37.6546 31.1561 37.5976C31.72 37.5406 32.0865 37.227 32.3121 36.6569C32.6504 35.8303 33.0452 35.0322 32.3967 34.177C32.2275 33.9775 32.3121 33.721 32.5094 33.5499C32.594 33.4644 32.7068 33.3504 32.7914 33.2649C33.6936 32.3527 33.6936 32.3527 34.7651 33.0084C34.8779 33.0654 35.0188 33.1509 35.1316 33.1794C35.7519 33.2649 37.3027 32.4383 37.5846 31.8967C37.9794 31.127 38.0639 31.127 39.4737 31.3551C40.1222 31.4691 40.1504 31.8967 40.1504 32.3812C40.1504 32.8373 40.3196 33.1509 40.7143 33.4359C41.4756 33.949 42.1805 34.6046 43.2237 34.12C43.4211 34.0345 43.5903 34.177 43.703 34.3196C43.8158 34.4621 43.9004 34.6331 44.0132 34.7756C44.6899 35.7733 44.6899 35.7733 43.8158 36.6855C43.703 36.7995 43.5621 36.942 43.5621 37.0845C43.6185 38.0537 43.3083 39.1369 44.3515 39.821C44.7181 40.049 44.8309 40.3626 44.6335 40.7616C44.4925 41.1037 44.3797 41.4742 44.267 41.8163C44.1824 42.0443 44.0132 42.1869 43.5057 42.0443ZM32.9606 38.4242C32.9042 40.9041 35.047 43.1275 37.5564 43.1845C40.0658 43.2415 42.2087 41.1037 42.2933 38.4812C42.3779 35.9728 40.235 33.7495 37.7538 33.6925C35.1598 33.6925 33.017 35.8018 32.9606 38.4242Z" fill="#516FE9"/>
</g>
<defs>
<clipPath id="clip0_303_4159">
<rect width="60" height="61" fill="white"/>
</clipPath>
</defs>
</svg>
