<svg width="57" height="57" viewBox="0 0 57 57" fill="none" xmlns="http://www.w3.org/2000/svg">
<path d="M28.5 57C44.2401 57 57 44.2401 57 28.5C57 12.7599 44.2401 0 28.5 0C12.7599 0 0 12.7599 0 28.5C0 44.2401 12.7599 57 28.5 57Z" fill="white"/>
<path d="M20.5566 19.9942H19.0959C18.7502 19.9942 18.4269 20.0611 18.137 20.1838C17.8359 20.3064 17.5571 20.496 17.3341 20.719C16.8881 21.1761 16.6094 21.8005 16.6094 22.4807C16.6094 23.8522 17.7244 24.9784 19.107 24.9784H20.5566" fill="#F7AEBC"/>
<path fill-rule="evenodd" clip-rule="evenodd" d="M18.0305 19.9264C18.3553 19.7893 18.7151 19.7156 19.0963 19.7156H20.557C20.7109 19.7156 20.8357 19.8404 20.8357 19.9943C20.8357 20.1483 20.7109 20.2731 20.557 20.2731H19.0963C18.7869 20.2731 18.5006 20.3329 18.246 20.4406L18.2426 20.442C17.9779 20.5499 17.7306 20.7176 17.5329 20.915C17.1351 21.3233 16.8886 21.8786 16.8886 22.4808C16.8886 23.6992 17.8796 24.6997 19.1075 24.6997H20.557C20.7109 24.6997 20.8357 24.8245 20.8357 24.9785C20.8357 25.1324 20.7109 25.2572 20.557 25.2572H19.1075C17.5701 25.2572 16.3311 24.0055 16.3311 22.4808C16.3311 21.7233 16.6415 21.0303 17.135 20.5244L17.1375 20.522C17.3852 20.2743 17.6942 20.0637 18.0305 19.9264Z" fill="black"/>
<path d="M36.5795 24.9784H38.029C38.7204 24.9784 39.3448 24.6996 39.7908 24.2536C40.2368 23.7964 40.5155 23.172 40.5155 22.4919C40.5155 21.4549 39.88 20.5629 38.988 20.1838C38.6981 20.0611 38.3635 19.9942 38.029 19.9942H36.5684" fill="#F7AEBC"/>
<path fill-rule="evenodd" clip-rule="evenodd" d="M36.29 19.9943C36.29 19.8404 36.4148 19.7156 36.5688 19.7156H38.0295C38.3996 19.7156 38.7712 19.7893 39.097 19.9272L39.0974 19.9273C40.0882 20.3484 40.7947 21.3388 40.7947 22.492C40.7947 23.2495 40.4843 23.9425 39.9907 24.4484L39.9883 24.4508C39.4916 24.9476 38.7969 25.2572 38.0295 25.2572H36.5799C36.426 25.2572 36.3012 25.1324 36.3012 24.9785C36.3012 24.8245 36.426 24.6997 36.5799 24.6997H38.0295C38.6441 24.6997 39.1977 24.4524 39.5929 24.0578C39.9907 23.6495 40.2372 23.0942 40.2372 22.492C40.2372 21.5713 39.6727 20.7777 38.8796 20.4405C38.6256 20.3331 38.3283 20.2731 38.0295 20.2731H36.5688C36.4148 20.2731 36.29 20.1483 36.29 19.9943Z" fill="black"/>
<path d="M28.5629 33.0289C24.1363 33.0289 20.5459 29.4385 20.5459 25.0119V20.34C20.5459 15.9133 24.1363 12.3229 28.5629 12.3229C32.9896 12.3229 36.5799 15.9133 36.5799 20.34V25.0119C36.5799 29.4385 32.9896 33.0289 28.5629 33.0289Z" fill="#E6E7E8"/>
<path fill-rule="evenodd" clip-rule="evenodd" d="M28.5624 12.6016C24.2897 12.6016 20.8241 16.0672 20.8241 20.3399V25.0119C20.8241 29.2845 24.2897 32.7501 28.5624 32.7501C32.8351 32.7501 36.3006 29.2845 36.3006 25.0119V20.3399C36.3006 16.0672 32.8351 12.6016 28.5624 12.6016ZM20.2666 20.3399C20.2666 15.7593 23.9818 12.0441 28.5624 12.0441C33.143 12.0441 36.8582 15.7593 36.8582 20.3399V25.0119C36.8582 29.5924 33.143 33.3076 28.5624 33.3076C23.9818 33.3076 20.2666 29.5924 20.2666 25.0119V20.3399Z" fill="black"/>
<path fill-rule="evenodd" clip-rule="evenodd" d="M28.5626 9.81404C22.9632 9.81404 18.4159 14.361 18.4159 19.9719V20.1838C18.4159 20.3377 18.2911 20.4625 18.1372 20.4625C17.9832 20.4625 17.8584 20.3377 17.8584 20.1838V19.9719C17.8584 14.0535 22.655 9.25653 28.5626 9.25653C31.5157 9.25653 34.1954 10.4473 36.1306 12.3939C38.0648 14.3283 39.2668 17.0074 39.2668 19.9719V20.1838C39.2668 20.3377 39.142 20.4625 38.9881 20.4625C38.8341 20.4625 38.7093 20.3377 38.7093 20.1838V19.9719C38.7093 17.1609 37.5701 14.6218 35.7358 12.7876L35.7352 12.787C33.9016 10.9425 31.363 9.81404 28.5626 9.81404Z" fill="black"/>
<path d="M28.8973 30.3305C29.47 30.3305 29.9343 29.8662 29.9343 29.2935C29.9343 28.7208 29.47 28.2565 28.8973 28.2565C28.3246 28.2565 27.8604 28.7208 27.8604 29.2935C27.8604 29.8662 28.3246 30.3305 28.8973 30.3305Z" fill="#F7AEBC"/>
<path fill-rule="evenodd" clip-rule="evenodd" d="M28.8978 28.5354C28.479 28.5354 28.1395 28.8748 28.1395 29.2936C28.1395 29.7123 28.479 30.0518 28.8978 30.0518C29.3165 30.0518 29.656 29.7123 29.656 29.2936C29.656 28.8748 29.3165 28.5354 28.8978 28.5354ZM27.582 29.2936C27.582 28.5669 28.1711 27.9778 28.8978 27.9778C29.6244 27.9778 30.2135 28.5669 30.2135 29.2936C30.2135 30.0202 29.6244 30.6093 28.8978 30.6093C28.1711 30.6093 27.582 30.0202 27.582 29.2936Z" fill="black"/>
<path d="M29.9453 29.2935H31.3168C33.859 29.2935 36.0668 27.5095 36.5909 25.0118" fill="#E6E7E8"/>
<path fill-rule="evenodd" clip-rule="evenodd" d="M36.6485 24.739C36.7992 24.7706 36.8957 24.9184 36.8641 25.0691C36.3129 27.6962 33.991 29.5723 31.3172 29.5723H29.9457C29.7918 29.5723 29.667 29.4475 29.667 29.2935C29.667 29.1396 29.7918 29.0148 29.9457 29.0148H31.3172C33.7279 29.0148 35.8216 27.3228 36.3185 24.9546C36.3501 24.8039 36.4979 24.7074 36.6485 24.739Z" fill="black"/>
<path d="M46.6142 47.8252H10.5098C12.3719 42.4285 16.6647 38.1691 22.0949 36.3739C23.5555 38.3586 25.9082 39.6521 28.562 39.6521C31.2157 39.6521 33.5684 38.3586 35.0291 36.3739C40.4481 38.1691 44.7521 42.4285 46.6142 47.8252Z" fill="#88C1D7"/>
<path fill-rule="evenodd" clip-rule="evenodd" d="M34.8051 36.2086C34.8766 36.1114 35.0026 36.0713 35.1172 36.1093C40.6189 37.9318 44.9878 42.2556 46.8782 47.7342C46.9076 47.8194 46.894 47.9136 46.8417 47.987C46.7893 48.0603 46.7048 48.1039 46.6147 48.1039H10.5102C10.4201 48.1039 10.3355 48.0603 10.2832 47.987C10.2309 47.9136 10.2173 47.8194 10.2467 47.7342C12.137 42.2558 16.4946 37.9318 22.0078 36.1092C22.1224 36.0713 22.2483 36.1115 22.3198 36.2086C23.7305 38.1254 26.0014 39.3733 28.5624 39.3733C31.1234 39.3733 33.3944 38.1254 34.8051 36.2086ZM10.9058 47.5464H46.2191C44.3422 42.4694 40.2545 38.4632 35.1309 36.7023C33.6129 38.6625 31.2355 39.9308 28.5624 39.9308C25.8893 39.9308 23.5119 38.6624 21.9939 36.7022C16.8601 38.463 12.7823 42.4691 10.9058 47.5464Z" fill="black"/>
</svg>
