<svg width="57" height="57" viewBox="0 0 57 57" fill="none" xmlns="http://www.w3.org/2000/svg">
<path d="M28.5 57C44.2401 57 57 44.2401 57 28.5C57 12.7599 44.2401 0 28.5 0C12.7599 0 0 12.7599 0 28.5C0 44.2401 12.7599 57 28.5 57Z" fill="white"/>
<path d="M35.5021 14H9.99765V39.5045H35.5021V14Z" fill="#BBBDBF"/>
<path d="M35.5031 39.7829H10.002C9.92816 39.7829 9.85737 39.7536 9.80516 39.7013C9.75295 39.6491 9.7236 39.5783 9.7236 39.5045V14.0034C9.7236 13.9295 9.75295 13.8587 9.80516 13.8065C9.85737 13.7543 9.92816 13.725 10.002 13.725H35.5031C35.577 13.725 35.6478 13.7543 35.7 13.8065C35.7522 13.8587 35.7815 13.9295 35.7815 14.0034V39.5045C35.7815 39.5783 35.7522 39.6491 35.7 39.7013C35.6478 39.7536 35.577 39.7829 35.5031 39.7829ZM10.2759 39.2261H35.2203V14.2818H10.2759V39.2261Z" fill="black"/>
<path d="M14.6669 25.9799C14.5269 25.9874 14.3869 25.9665 14.2552 25.9185C14.1236 25.8704 14.003 25.7963 13.9007 25.7004C12.9542 24.7538 14.5544 22.1369 16.541 20.1458C18.5276 18.1547 21.149 16.559 22.0956 17.5055C22.531 17.9398 22.462 18.755 21.8963 19.863C21.384 20.8652 20.5176 21.9977 19.4553 23.0601C17.8729 24.6425 15.8874 25.9799 14.6669 25.9799ZM21.3194 17.7817C21.0288 17.7817 20.5911 17.893 19.992 18.2015C19.0432 18.687 17.9575 19.5178 16.9352 20.54C14.6401 22.8351 13.8506 24.8641 14.2949 25.3073C14.7392 25.7505 16.7671 24.9621 19.0622 22.667C20.0833 21.6458 20.9141 20.5601 21.4007 19.6102C21.9029 18.628 21.8862 18.0835 21.7036 17.8997C21.5958 17.8118 21.458 17.7694 21.3194 17.7817Z" fill="black"/>
<path d="M21.3304 25.98C20.1055 25.98 18.1233 24.6437 16.542 23.0601C14.5554 21.0735 12.9551 18.4521 13.9017 17.5056C14.8482 16.559 17.4707 18.1592 19.4563 20.1459C20.5186 21.2071 21.385 22.343 21.8972 23.343C22.4629 24.4499 22.532 25.265 22.0966 25.7004C21.9945 25.7965 21.8739 25.8708 21.7422 25.9189C21.6105 25.9669 21.4704 25.9877 21.3304 25.98ZM14.6701 17.7806C14.5343 17.7692 14.3995 17.8116 14.2948 17.8987C13.8493 18.3441 14.64 20.3719 16.9351 22.6659C17.9574 23.6882 19.0431 24.5189 19.9919 25.0045C20.9741 25.5067 21.5186 25.49 21.7024 25.3062C21.8861 25.1225 21.9017 24.5779 21.3995 23.5969C20.9139 22.647 20.0832 21.5612 19.0609 20.539C17.1723 18.6492 15.4629 17.7806 14.6701 17.7806Z" fill="black"/>
<path d="M15.4292 30.4844H13.407V36.9777H15.4292V30.4844Z" fill="#F7AEBC"/>
<path d="M15.4288 37.2562H13.4065C13.3327 37.2562 13.2619 37.2268 13.2097 37.1746C13.1575 37.1224 13.1281 37.0516 13.1281 36.9778V30.4845C13.1281 30.4106 13.1575 30.3398 13.2097 30.2876C13.2619 30.2354 13.3327 30.2061 13.4065 30.2061H15.4288C15.5026 30.2061 15.5735 30.2354 15.6257 30.2876C15.6779 30.3398 15.7072 30.4106 15.7072 30.4845V36.9778C15.7072 37.0516 15.6779 37.1224 15.6257 37.1746C15.5735 37.2268 15.5026 37.2562 15.4288 37.2562ZM13.6849 36.6994H15.1504V30.7628H13.6849V36.6994Z" fill="black"/>
<path d="M20.4447 32.785H18.4224V36.9777H20.4447V32.785Z" fill="#F7AEBC"/>
<path d="M20.4432 37.256H18.422C18.3482 37.256 18.2774 37.2267 18.2252 37.1745C18.1729 37.1223 18.1436 37.0515 18.1436 36.9776V32.785C18.1436 32.7112 18.1729 32.6403 18.2252 32.5881C18.2774 32.5359 18.3482 32.5066 18.422 32.5066H20.4432C20.4798 32.5064 20.516 32.5135 20.5499 32.5275C20.5837 32.5414 20.6145 32.5619 20.6403 32.5878C20.6662 32.6137 20.6867 32.6444 20.7007 32.6783C20.7146 32.7121 20.7217 32.7484 20.7216 32.785V36.9776C20.7217 37.0142 20.7146 37.0505 20.7007 37.0844C20.6867 37.1182 20.6662 37.1489 20.6403 37.1748C20.6145 37.2007 20.5837 37.2212 20.5499 37.2351C20.516 37.2491 20.4798 37.2562 20.4432 37.256ZM18.7004 36.6992H20.1648V33.0634H18.7004V36.6992Z" fill="black"/>
<path d="M25.4602 28.5924H23.4379V36.9777H25.4602V28.5924Z" fill="#F7AEBC"/>
<path d="M25.4587 37.2562H23.4375C23.3637 37.2562 23.2929 37.2269 23.2407 37.1746C23.1884 37.1224 23.1591 37.0516 23.1591 36.9778V28.5925C23.1591 28.5186 23.1884 28.4478 23.2407 28.3956C23.2929 28.3434 23.3637 28.3141 23.4375 28.3141H25.4587C25.5325 28.3141 25.6033 28.3434 25.6555 28.3956C25.7077 28.4478 25.7371 28.5186 25.7371 28.5925V36.9778C25.7371 37.0516 25.7077 37.1224 25.6555 37.1746C25.6033 37.2269 25.5325 37.2562 25.4587 37.2562ZM23.7159 36.6994H25.1836V28.8709H23.7193L23.7159 36.6994Z" fill="black"/>
<path d="M38.7521 32.8051C38.7521 33.6518 38.501 34.4794 38.0307 35.1833C37.5603 35.8873 36.8918 36.4359 36.1096 36.7599C35.3274 37.0839 34.4667 37.1687 33.6364 37.0035C32.806 36.8384 32.0433 36.4307 31.4446 35.832C30.846 35.2334 30.4383 34.4706 30.2731 33.6403C30.1079 32.8099 30.1927 31.9492 30.5167 31.167C30.8407 30.3848 31.3894 29.7163 32.0933 29.2459C32.7972 28.7756 33.6248 28.5245 34.4715 28.5245C35.0343 28.5219 35.5922 28.6308 36.1127 28.845C36.6333 29.0591 37.1062 29.3743 37.5042 29.7724C37.9023 30.1704 38.2175 30.6433 38.4317 31.1639C38.6458 31.6844 38.7548 32.2423 38.7521 32.8051Z" fill="white"/>
<path d="M34.4707 37.3631C33.4068 37.3639 32.3761 36.9932 31.5565 36.3149C30.7368 35.6366 30.1798 34.6934 29.9816 33.6482C29.7833 32.6029 29.9563 31.5212 30.4707 30.59C30.985 29.6587 31.8085 28.9363 32.7988 28.5475C33.7891 28.1587 34.884 28.1279 35.8946 28.4605C36.9052 28.7931 37.7678 29.4682 38.3337 30.3691C38.8995 31.27 39.133 32.3403 38.9937 33.395C38.8544 34.4497 38.3512 35.4227 37.571 36.1459C36.729 36.9297 35.621 37.3647 34.4707 37.3631ZM34.4707 28.803C33.6795 28.8032 32.9061 29.038 32.2483 29.4777C31.5905 29.9175 31.0778 30.5424 30.7751 31.2734C30.4724 32.0045 30.3933 32.8089 30.5477 33.5849C30.7021 34.361 31.0831 35.0738 31.6426 35.6333C32.2021 36.1928 32.915 36.5738 33.691 36.7283C34.467 36.8827 35.2714 36.8035 36.0025 36.5008C36.7336 36.1981 37.3585 35.6855 37.7982 35.0277C38.2379 34.3699 38.4728 33.5964 38.473 32.8052C38.4712 31.7443 38.049 30.7273 37.2988 29.9771C36.5486 29.227 35.5316 28.8047 34.4707 28.803Z" fill="black"/>
<path d="M40.5839 42.3552V42.9989H28.3868V42.3552C28.3868 39.9911 29.6284 37.3441 31.5906 35.9699C32.3837 36.6916 33.4189 37.0893 34.4913 37.0841C35.5637 37.079 36.595 36.6714 37.3812 35.9421C37.9638 36.3494 38.4777 36.8471 38.9035 37.4165C39.971 38.844 40.5593 40.5728 40.5839 42.3552Z" fill="#88C1D7"/>
<path d="M40.5835 43.2772H28.3864C28.3125 43.2772 28.2417 43.2479 28.1895 43.1957C28.1373 43.1435 28.108 43.0727 28.108 42.9988V42.3552C28.108 39.834 29.4744 37.1146 31.4309 35.7416C31.4827 35.7053 31.5454 35.6877 31.6085 35.6917C31.6717 35.6958 31.7316 35.7212 31.7783 35.7639C32.5199 36.4388 33.4878 36.8107 34.4905 36.8059C35.4931 36.8012 36.4575 36.4202 37.1926 35.7383C37.239 35.6951 37.2987 35.669 37.3618 35.6644C37.425 35.6597 37.4879 35.6768 37.54 35.7126C38.1467 36.1373 38.6816 36.656 39.1247 37.2494C40.2262 38.7263 40.8341 40.5129 40.8619 42.3552V42.9988C40.8619 43.0727 40.8325 43.1435 40.7803 43.1957C40.7281 43.2479 40.6573 43.2772 40.5835 43.2772ZM28.6681 42.7204H40.3084V42.3552C40.2821 40.6342 39.714 38.9653 38.6848 37.5857C38.3185 37.1001 37.8859 36.6683 37.3997 36.3028C36.5848 36.9865 35.5564 37.3636 34.4927 37.3687C33.429 37.3737 32.3971 37.0065 31.5757 36.3307C29.8529 37.6414 28.6648 40.0857 28.6648 42.3608L28.6681 42.7204Z" fill="black"/>
<path d="M44.3353 39.451L47.0012 42.9989H39.7974L42.2529 39.451" fill="#F7AEBC"/>
<path d="M47.0009 43.2773H39.7971C39.7465 43.2771 39.6968 43.2632 39.6534 43.2368C39.6101 43.2105 39.5748 43.1728 39.5513 43.1279C39.5278 43.083 39.517 43.0325 39.5201 42.9819C39.5232 42.9313 39.5401 42.8825 39.5689 42.8408L42.0243 39.2929C42.0664 39.2322 42.1309 39.1907 42.2036 39.1776C42.2762 39.1644 42.3512 39.1806 42.4118 39.2227C42.4725 39.2648 42.514 39.3293 42.5272 39.402C42.5404 39.4746 42.5241 39.5496 42.482 39.6103L40.3283 42.7205H46.443L44.1145 39.6192C44.0926 39.5899 44.0766 39.5566 44.0675 39.5212C44.0585 39.4858 44.0565 39.449 44.0616 39.4128C44.0668 39.3766 44.0791 39.3417 44.0977 39.3103C44.1163 39.2788 44.141 39.2513 44.1702 39.2294C44.1995 39.2075 44.2327 39.1915 44.2682 39.1824C44.3036 39.1734 44.3404 39.1714 44.3766 39.1765C44.4128 39.1817 44.4476 39.194 44.4791 39.2126C44.5105 39.2312 44.538 39.2558 44.56 39.2851L47.2259 42.833C47.2569 42.8743 47.2758 42.9235 47.2804 42.975C47.2851 43.0265 47.2753 43.0783 47.2522 43.1245C47.229 43.1708 47.1935 43.2097 47.1495 43.2368C47.1056 43.264 47.0549 43.2784 47.0032 43.2784L47.0009 43.2773Z" fill="black"/>
<path d="M44.3348 35.4711H42.2523V39.4521H44.3348V35.4711Z" fill="white"/>
<path d="M44.3372 39.7294H42.2548C42.181 39.7294 42.1102 39.7 42.0579 39.6478C42.0057 39.5956 41.9764 39.5248 41.9764 39.451V35.471C41.9763 35.4344 41.9834 35.3982 41.9973 35.3643C42.0112 35.3305 42.0317 35.2997 42.0576 35.2738C42.0835 35.248 42.1143 35.2275 42.1481 35.2135C42.1819 35.1996 42.2182 35.1925 42.2548 35.1926H44.3372C44.3738 35.1925 44.4101 35.1996 44.4439 35.2135C44.4778 35.2275 44.5085 35.248 44.5344 35.2738C44.5603 35.2997 44.5808 35.3305 44.5947 35.3643C44.6087 35.3982 44.6158 35.4344 44.6156 35.471V39.451C44.6156 39.5248 44.5863 39.5956 44.5341 39.6478C44.4819 39.7 44.411 39.7294 44.3372 39.7294ZM42.5332 39.1726H44.0588V35.7461H42.5332V39.1726Z" fill="black"/>
<path d="M44.338 36.9344H43.7211C43.6473 36.9344 43.5765 36.905 43.5243 36.8528C43.472 36.8006 43.4427 36.7298 43.4427 36.656C43.4427 36.5821 43.472 36.5113 43.5243 36.4591C43.5765 36.4069 43.6473 36.3776 43.7211 36.3776H44.338C44.4119 36.3776 44.4827 36.4069 44.5349 36.4591C44.5871 36.5113 44.6164 36.5821 44.6164 36.656C44.6164 36.7298 44.5871 36.8006 44.5349 36.8528C44.4827 36.905 44.4119 36.9344 44.338 36.9344Z" fill="black"/>
<path d="M44.338 38.0713H43.7211C43.6473 38.0713 43.5765 38.0419 43.5243 37.9897C43.472 37.9375 43.4427 37.8667 43.4427 37.7929C43.4427 37.719 43.472 37.6482 43.5243 37.596C43.5765 37.5438 43.6473 37.5145 43.7211 37.5145H44.338C44.4119 37.5145 44.4827 37.5438 44.5349 37.596C44.5871 37.6482 44.6164 37.719 44.6164 37.7929C44.6164 37.8667 44.5871 37.9375 44.5349 37.9897C44.4827 38.0419 44.4119 38.0713 44.338 38.0713Z" fill="black"/>
</svg>
