<svg width="57" height="57" viewBox="0 0 57 57" fill="none" xmlns="http://www.w3.org/2000/svg">
<path fill-rule="evenodd" clip-rule="evenodd" d="M21.639 13.9331C19.8402 17.6464 18.7197 22.7962 18.7197 28.5C18.7197 34.2037 19.8402 39.3536 21.639 43.0669C23.4473 46.7998 25.891 48.9918 28.4999 48.9918C31.1088 48.9918 33.5524 46.7998 35.3608 43.0669C37.1595 39.3536 38.2801 34.2037 38.2801 28.5C38.2801 22.7962 37.1595 17.6464 35.3608 13.9331C33.5524 10.2001 31.1088 8.00814 28.4999 8.00814C25.891 8.00814 23.4473 10.2001 21.639 13.9331ZM21.1279 13.6855C22.9621 9.89905 25.5505 7.44019 28.4999 7.44019C31.4493 7.44019 34.0377 9.89905 35.8719 13.6855C37.7156 17.4915 38.848 22.7296 38.848 28.5C38.848 34.2704 37.7156 39.5084 35.8719 43.3145C34.0377 47.1009 31.4493 49.5598 28.4999 49.5598C25.5505 49.5598 22.9621 47.1009 21.1279 43.3145C19.2841 39.5084 18.1517 34.2704 18.1517 28.5C18.1517 22.7296 19.2841 17.4915 21.1279 13.6855Z" fill="black"/>
<path d="M28.5 57C44.2401 57 57 44.2401 57 28.5C57 12.7599 44.2401 0 28.5 0C12.7599 0 0 12.7599 0 28.5C0 44.2401 12.7599 57 28.5 57Z" fill="white"/>
<path fill-rule="evenodd" clip-rule="evenodd" d="M13.3479 33.9488C11.987 37.8671 12.165 41.1449 14.0098 42.9897C15.8545 44.8344 19.1324 45.0124 23.0506 43.6515C26.9482 42.2977 31.382 39.4486 35.4151 35.4155C39.4482 31.3823 42.2974 26.9486 43.6511 23.051C45.012 19.1327 44.8341 15.8549 42.9893 14.0101C41.1446 12.1654 37.8667 11.9874 33.9485 13.3483C30.0509 14.7021 25.6171 17.5512 21.584 21.5843C17.5508 25.6175 14.7017 30.0512 13.3479 33.9488ZM12.8114 33.7625C14.199 29.7675 17.1021 25.263 21.1824 21.1827C25.2626 17.1025 29.7672 14.1994 33.7621 12.8118C37.7365 11.4314 41.3054 11.523 43.3909 13.6085C45.4764 15.694 45.568 19.263 44.1876 23.2373C42.8001 27.2323 39.8969 31.7368 35.8167 35.8171C31.7365 39.8973 27.2319 42.8004 23.2369 44.188C19.2626 45.5684 15.6937 45.4768 13.6082 43.3913C11.5226 41.3058 11.431 37.7368 12.8114 33.7625Z" fill="black"/>
<path fill-rule="evenodd" clip-rule="evenodd" d="M13.9333 21.639C10.2003 23.4473 8.00839 25.891 8.00839 28.4999C8.00839 31.1088 10.2003 33.5524 13.9333 35.3608C17.6466 37.1595 22.7964 38.2801 28.5002 38.2801C34.204 38.2801 39.3538 37.1595 43.0671 35.3608C46.8001 33.5524 48.992 31.1088 48.992 28.4999C48.992 25.891 46.8001 23.4473 43.0671 21.639C39.3538 19.8402 34.204 18.7197 28.5002 18.7197C22.7964 18.7197 17.6466 19.8402 13.9333 21.639ZM13.6857 21.1279C17.4918 19.2841 22.7298 18.1517 28.5002 18.1517C34.2706 18.1517 39.5087 19.2841 43.3147 21.1279C47.1011 22.9621 49.56 25.5505 49.56 28.4999C49.56 31.4493 47.1011 34.0377 43.3147 35.8719C39.5087 37.7156 34.2706 38.848 28.5002 38.848C22.7298 38.848 17.4918 37.7156 13.6857 35.8719C9.89929 34.0377 7.44043 31.4493 7.44043 28.4999C7.44043 25.5505 9.89929 22.9621 13.6857 21.1279Z" fill="black"/>
<path fill-rule="evenodd" clip-rule="evenodd" d="M13.3479 23.0512C14.7017 26.9488 17.5508 31.3825 21.584 35.4157C25.6171 39.4488 30.0509 42.2979 33.9485 43.6517C37.8667 45.0126 41.1446 44.8346 42.9893 42.9899C44.8341 41.1451 45.012 37.8673 43.6511 33.949C42.2974 30.0514 39.4482 25.6177 35.4151 21.5845C31.382 17.5514 26.9482 14.7023 23.0506 13.3485C19.1324 11.9876 15.8545 12.1656 14.0098 14.0103C12.165 15.8551 11.987 19.1329 13.3479 23.0512ZM12.8114 23.2375C11.431 19.2632 11.5226 15.6942 13.6082 13.6087C15.6937 11.5232 19.2626 11.4316 23.2369 12.812C27.2319 14.1996 31.7365 17.1027 35.8167 21.1829C39.8969 25.2632 42.8001 29.7677 44.1876 33.7627C45.568 37.737 45.4764 41.306 43.3909 43.3915C41.3054 45.477 37.7365 45.5686 33.7621 44.1882C29.7672 42.8006 25.2626 39.8975 21.1824 35.8173C17.1021 31.737 14.199 27.2325 12.8114 23.2375Z" fill="black"/>
<path d="M33.6907 27.4095V30.3856C33.6907 31.5896 31.3621 32.5552 28.4996 32.5552C25.6371 32.5552 23.3085 31.5783 23.3085 30.3856V27.4095C23.3085 28.6136 25.6371 29.5791 28.4996 29.5791C31.3621 29.5904 33.6907 28.6136 33.6907 27.4095Z" fill="#E6E7E8"/>
<path fill-rule="evenodd" clip-rule="evenodd" d="M23.3085 27.1254C23.4653 27.1254 23.5924 27.2526 23.5924 27.4094C23.5924 27.612 23.6891 27.8296 23.9166 28.0543C24.1452 28.2802 24.4905 28.4963 24.9399 28.6836C25.8374 29.0578 27.0964 29.295 28.4996 29.295L28.5007 29.295C29.9032 29.3006 31.1617 29.0635 32.0589 28.688C32.5082 28.5 32.8535 28.283 33.0822 28.0563C33.3099 27.8306 33.4067 27.6121 33.4067 27.4094C33.4067 27.2526 33.5338 27.1254 33.6907 27.1254C33.8475 27.1254 33.9747 27.2526 33.9747 27.4094V30.3855C33.9747 30.7849 33.7803 31.1395 33.4817 31.4345C33.1842 31.7283 32.7684 31.9794 32.2778 32.1839C31.2955 32.5935 29.9589 32.8391 28.4996 32.8391C27.0398 32.8391 25.7032 32.5905 24.721 32.1795C24.2305 31.9743 23.8149 31.7229 23.5177 31.4299C23.2195 31.136 23.0245 30.7828 23.0245 30.3855V27.4094C23.0245 27.2526 23.1516 27.1254 23.3085 27.1254ZM23.5924 28.5293V30.3855C23.5924 30.5845 23.6885 30.8007 23.9164 31.0254C24.1452 31.251 24.4907 31.4675 24.9402 31.6556C25.8379 32.0312 27.0968 32.2711 28.4996 32.2711C29.9028 32.2711 31.1617 32.0339 32.0593 31.6597C32.5087 31.4723 32.8539 31.2563 33.0825 31.0304C33.31 30.8057 33.4067 30.5881 33.4067 30.3855V28.5311C33.1161 28.7953 32.7288 29.0234 32.2782 29.212C31.2956 29.6231 29.9588 29.8687 28.499 29.863C27.0399 29.8629 25.7035 29.6174 24.7213 29.2078C24.2706 29.02 23.8831 28.7928 23.5924 28.5293Z" fill="black"/>
<path d="M33.6907 30.3855V33.3616C33.6907 34.5656 31.3621 35.5312 28.4996 35.5312C25.6371 35.5312 23.3085 34.5543 23.3085 33.3616V30.3855C23.3085 31.5896 25.6371 32.5551 28.4996 32.5551C31.3621 32.5664 33.6907 31.5896 33.6907 30.3855Z" fill="#BBBDBF"/>
<path fill-rule="evenodd" clip-rule="evenodd" d="M23.3085 30.1016C23.4653 30.1016 23.5924 30.2287 23.5924 30.3855C23.5924 30.5881 23.6891 30.8058 23.9166 31.0305C24.1452 31.2563 24.4905 31.4724 24.9399 31.6597C25.8374 32.034 27.0964 32.2712 28.4996 32.2712L28.5007 32.2712C29.9032 32.2767 31.1617 32.0396 32.0589 31.6642C32.5082 31.4762 32.8535 31.2591 33.0822 31.0324C33.3099 30.8067 33.4067 30.5883 33.4067 30.3855C33.4067 30.2287 33.5338 30.1016 33.6907 30.1016C33.8475 30.1016 33.9747 30.2287 33.9747 30.3855V33.3616C33.9747 33.7611 33.7803 34.1157 33.4817 34.4106C33.1842 34.7045 32.7684 34.9555 32.2778 35.1601C31.2955 35.5696 29.9589 35.8152 28.4996 35.8152C27.0398 35.8152 25.7032 35.5666 24.721 35.1557C24.2305 34.9504 23.8149 34.6991 23.5177 34.406C23.2195 34.1121 23.0245 33.7589 23.0245 33.3616V30.3855C23.0245 30.2287 23.1516 30.1016 23.3085 30.1016ZM23.5924 31.5054V33.3616C23.5924 33.5607 23.6885 33.7769 23.9164 34.0016C24.1452 34.2271 24.4907 34.4436 24.9402 34.6317C25.8379 35.0073 27.0968 35.2472 28.4996 35.2472C29.9028 35.2472 31.1617 35.01 32.0593 34.6358C32.5087 34.4485 32.8539 34.2324 33.0825 34.0066C33.31 33.7818 33.4067 33.5642 33.4067 33.3616V31.5073C33.1161 31.7715 32.7288 31.9995 32.2782 32.1881C31.2956 32.5992 29.9588 32.8448 28.499 32.8391C27.0399 32.839 25.7035 32.5935 24.7213 32.184C24.2706 31.9961 23.8831 31.7689 23.5924 31.5054Z" fill="black"/>
<path d="M28.4996 26.603C31.3666 26.603 33.6907 25.6316 33.6907 24.4334C33.6907 23.2352 31.3666 22.2638 28.4996 22.2638C25.6326 22.2638 23.3085 23.2352 23.3085 24.4334C23.3085 25.6316 25.6326 26.603 28.4996 26.603Z" fill="#F7AEBC"/>
<path fill-rule="evenodd" clip-rule="evenodd" d="M23.916 23.7909C23.6887 24.0155 23.5924 24.2325 23.5924 24.4334C23.5924 24.6344 23.6887 24.8513 23.916 25.0759C24.1443 25.3016 24.4893 25.5178 24.9384 25.7055C25.8354 26.0804 27.0943 26.319 28.4996 26.319C29.9048 26.319 31.1637 26.0804 32.0607 25.7055C32.5098 25.5178 32.8548 25.3016 33.0831 25.0759C33.3105 24.8513 33.4067 24.6344 33.4067 24.4334C33.4067 24.2325 33.3105 24.0155 33.0831 23.7909C32.8548 23.5653 32.5098 23.349 32.0607 23.1613C31.1637 22.7864 29.9048 22.5478 28.4996 22.5478C27.0943 22.5478 25.8354 22.7864 24.9384 23.1613C24.4893 23.349 24.1443 23.5653 23.916 23.7909ZM24.7194 22.6373C25.7012 22.2269 27.0379 21.9799 28.4996 21.9799C29.9613 21.9799 31.2979 22.2269 32.2797 22.6373C32.77 22.8422 33.1853 23.0934 33.4823 23.3869C33.7804 23.6814 33.9747 24.0353 33.9747 24.4334C33.9747 24.8316 33.7804 25.1854 33.4823 25.4799C33.1853 25.7734 32.77 26.0247 32.2797 26.2296C31.2979 26.6399 29.9613 26.887 28.4996 26.887C27.0379 26.887 25.7012 26.6399 24.7194 26.2296C24.2291 26.0247 23.8138 25.7734 23.5168 25.4799C23.2188 25.1854 23.0245 24.8316 23.0245 24.4334C23.0245 24.0353 23.2188 23.6814 23.5168 23.3869C23.8138 23.0934 24.2291 22.8422 24.7194 22.6373Z" fill="black"/>
<path d="M33.6907 24.4333V27.4094C33.6907 28.6135 31.3621 29.579 28.4996 29.579C25.6371 29.579 23.3085 28.6021 23.3085 27.4094V24.4333C23.3085 25.6374 25.6371 26.6029 28.4996 26.6029C31.3621 26.6143 33.6907 25.6374 33.6907 24.4333Z" fill="#88C1D7"/>
<path fill-rule="evenodd" clip-rule="evenodd" d="M23.3085 24.1495C23.4653 24.1495 23.5924 24.2766 23.5924 24.4335C23.5924 24.636 23.6891 24.8537 23.9166 25.0784C24.1452 25.3042 24.4905 25.5203 24.9399 25.7077C25.8374 26.0819 27.0964 26.3191 28.4996 26.3191L28.5007 26.3191C29.9032 26.3246 31.1617 26.0875 32.0589 25.7121C32.5082 25.5241 32.8535 25.307 33.0822 25.0803C33.3099 24.8547 33.4067 24.6362 33.4067 24.4335C33.4067 24.2766 33.5338 24.1495 33.6907 24.1495C33.8475 24.1495 33.9747 24.2766 33.9747 24.4335V27.4095C33.9747 27.809 33.7803 28.1636 33.4817 28.4585C33.1842 28.7524 32.7684 29.0034 32.2778 29.208C31.2955 29.6175 29.9589 29.8631 28.4996 29.8631C27.0398 29.8631 25.7032 29.6146 24.721 29.2036C24.2305 28.9983 23.8149 28.747 23.5177 28.4539C23.2195 28.16 23.0245 27.8068 23.0245 27.4095V24.4335C23.0245 24.2766 23.1516 24.1495 23.3085 24.1495ZM23.5924 25.5534V27.4095C23.5924 27.6086 23.6885 27.8248 23.9164 28.0495C24.1452 28.275 24.4907 28.4916 24.9402 28.6796C25.8379 29.0553 27.0968 29.2952 28.4996 29.2952C29.9028 29.2952 31.1617 29.058 32.0593 28.6837C32.5087 28.4964 32.8539 28.2803 33.0825 28.0545C33.31 27.8298 33.4067 27.6121 33.4067 27.4095V25.5552C33.1161 25.8194 32.7288 26.0475 32.2782 26.236C31.2956 26.6471 29.9588 26.8928 28.499 26.887C27.0399 26.887 25.7035 26.6414 24.7213 26.2319C24.2706 26.044 23.8831 25.8169 23.5924 25.5534Z" fill="black"/>
</svg>
