<svg width="57" height="57" viewBox="0 0 57 57" fill="none" xmlns="http://www.w3.org/2000/svg">
<path d="M28.5 57C44.2401 57 57 44.2401 57 28.5C57 12.7599 44.2401 0 28.5 0C12.7599 0 0 12.7599 0 28.5C0 44.2401 12.7599 57 28.5 57Z" fill="white"/>
<path d="M45.7137 28.5112C45.7137 33.0659 44.0058 37.2298 41.2038 40.389C37.9441 44.0617 33.2108 46.3837 27.9305 46.4172C27.8859 46.4172 27.8524 46.4172 27.8078 46.4172C27.7631 46.4172 27.7296 46.4172 27.685 46.4172C22.5721 46.3837 17.9729 44.2069 14.7243 40.7462C11.7325 37.5424 9.89059 33.2445 9.89059 28.5112C9.89059 23.9566 11.5874 19.7927 14.4006 16.6334C17.6603 12.9607 22.3935 10.6387 27.685 10.6052C27.7296 10.6052 27.7631 10.6052 27.8078 10.6052C27.8524 10.6052 27.8859 10.6052 27.9305 10.6052C33.0434 10.6387 37.6427 12.8156 40.88 16.2762C43.883 19.4801 45.7137 23.778 45.7137 28.5112Z" fill="#E6E7E8"/>
<path fill-rule="evenodd" clip-rule="evenodd" d="M27.683 10.3264L27.6848 10.3264H27.9304L27.9322 10.3264C33.1248 10.3604 37.7961 12.5715 41.0836 16.0858C44.1331 19.3394 45.9927 23.7047 45.9927 28.5114C45.9927 33.1371 44.2578 37.3662 41.4124 40.5744C38.1025 44.3037 33.295 46.6625 27.9321 46.6965L27.9304 46.6965H27.6848L27.6829 46.6965C22.4903 46.6625 17.8191 44.4513 14.5207 40.9375L14.5202 40.9369C11.4824 37.6838 9.61133 33.3186 9.61133 28.5114C9.61133 23.8863 11.3347 19.6569 14.1918 16.4482C17.5018 12.7189 22.3091 10.3604 27.683 10.3264ZM27.6857 10.8845C22.4771 10.9177 17.8184 13.203 14.6091 16.8189L14.6088 16.8192C11.8397 19.929 10.1695 24.0274 10.1695 28.5114C10.1695 33.1705 11.9821 37.4009 14.9276 40.5554C18.126 43.9626 22.653 46.1051 27.6856 46.1383H27.9296C33.1268 46.1051 37.7856 43.8199 40.9948 40.204C43.7534 37.0937 45.4345 32.995 45.4345 28.5114C45.4345 23.8517 43.6325 19.6214 40.6762 16.4673L40.676 16.4671C37.489 13.0602 32.9621 10.9177 27.9294 10.8845H27.6857Z" fill="black"/>
<path fill-rule="evenodd" clip-rule="evenodd" d="M27.7051 10.3151L27.7069 10.3151H27.9525L27.9549 10.3151C33.125 10.3604 37.7959 12.5716 41.0943 16.0853C41.1929 16.1903 41.1953 16.3532 41.0999 16.4611C39.7162 18.0262 38.061 19.3412 36.2249 20.3499L36.2246 20.3501C33.7192 21.7218 30.8617 22.527 27.8227 22.5724L27.8185 22.5724H27.4948C24.5591 22.5724 21.7923 21.8809 19.3426 20.6447L19.3424 20.6446C17.4154 19.6698 15.6814 18.3664 14.2193 16.8137C14.1203 16.7085 14.1179 16.5451 14.2138 16.4371C17.5238 12.7077 22.3312 10.3491 27.7051 10.3151ZM27.7078 10.8732C22.5915 10.9059 18.0057 13.1115 14.8031 16.6168C16.1833 18.0411 17.803 19.2403 19.5943 20.1465C21.9672 21.3439 24.6479 22.0142 27.4948 22.0142H27.8164C30.7602 21.97 33.5282 21.19 35.9565 19.8605C37.6622 18.9234 39.206 17.7143 40.5108 16.2819C37.3234 12.9825 32.8702 10.9167 27.9513 10.8732H27.7078Z" fill="black"/>
<path fill-rule="evenodd" clip-rule="evenodd" d="M27.8138 34.4391C27.8155 34.4391 27.8173 34.4391 27.819 34.4391H28.1427C31.067 34.4391 33.8449 35.1305 36.2946 36.3666C38.2222 37.3305 39.9567 38.6343 41.4189 40.1986C41.5241 40.3112 41.5182 40.4878 41.4056 40.593C41.293 40.6983 41.1164 40.6923 41.0111 40.5797C39.5934 39.063 37.912 37.7994 36.0444 36.8656L36.0435 36.8651C33.6706 35.6677 30.9786 34.9973 28.1427 34.9973H27.8216C24.8766 35.0526 22.1085 35.8219 19.681 37.151L19.6807 37.1511C17.8903 38.1287 16.2966 39.4144 14.9552 40.9208C14.8527 41.0359 14.6762 41.0461 14.5611 40.9436C14.446 40.8411 14.4358 40.6647 14.5383 40.5496C15.9207 38.9973 17.5643 37.6708 19.4131 36.6613C21.919 35.2893 24.7763 34.4958 27.8138 34.4391Z" fill="black"/>
<path fill-rule="evenodd" clip-rule="evenodd" d="M27.6778 10.3263C27.6801 10.3263 27.6824 10.3262 27.6847 10.3262H27.9303C27.9327 10.3262 27.935 10.3263 27.9374 10.3263C29.8122 10.3736 31.5304 11.4115 32.9638 13.1176C34.3973 14.8237 35.565 17.2184 36.3483 20.0411C37.059 22.5683 37.4527 25.4517 37.4527 28.5113C37.4527 31.4479 37.0814 34.2295 36.4274 36.6876C35.6556 39.589 34.4825 42.0567 33.0325 43.8165C31.5828 45.5758 29.8362 46.649 27.9261 46.6963C27.9238 46.6964 27.9215 46.6964 27.9192 46.6964H27.6736C27.6712 46.6964 27.6689 46.6964 27.6665 46.6963C25.7917 46.649 24.0735 45.6111 22.6401 43.9051C21.2066 42.1988 20.0388 39.8041 19.2555 36.9812C18.5448 34.4541 18.1512 31.5708 18.1512 28.5113C18.1512 25.5747 18.5225 22.7932 19.1765 20.335C19.9484 17.4334 21.1243 14.9657 22.5757 13.206C24.0266 11.4469 25.7731 10.3736 27.6778 10.3263ZM27.6883 10.8844C25.9996 10.9276 24.3927 11.8803 23.0063 13.5612C21.6195 15.2426 20.4734 17.6309 19.7159 20.4785C19.075 22.8875 18.7094 25.6207 18.7094 28.5113C18.7094 31.5245 19.0972 34.3567 19.793 36.8306L19.7933 36.8315C20.5617 39.6013 21.6991 41.9173 23.0675 43.546C24.4351 45.1739 26.0145 46.095 27.6772 46.1382H27.9156C29.61 46.095 31.2168 45.1422 32.6017 43.4616C33.9871 41.7802 35.1304 39.3919 35.888 36.5441C36.5289 34.1351 36.8945 31.402 36.8945 28.5113C36.8945 25.4982 36.5067 22.666 35.8109 20.192L35.8106 20.1911C35.0422 17.4213 33.9048 15.1053 32.5364 13.4766C31.1688 11.8488 29.5894 10.9276 27.9268 10.8844H27.6883Z" fill="black"/>
<path fill-rule="evenodd" clip-rule="evenodd" d="M27.8076 10.3262C27.9617 10.3262 28.0867 10.4512 28.0867 10.6053V46.4173C28.0867 46.5714 27.9617 46.6964 27.8076 46.6964C27.6535 46.6964 27.5285 46.5714 27.5285 46.4173V10.6053C27.5285 10.4512 27.6535 10.3262 27.8076 10.3262Z" fill="black"/>
<path fill-rule="evenodd" clip-rule="evenodd" d="M9.62228 28.5112C9.62228 28.3571 9.74723 28.2321 9.90137 28.2321H45.7134C45.8675 28.2321 45.9924 28.3571 45.9924 28.5112C45.9924 28.6653 45.8675 28.7903 45.7134 28.7903H9.90137C9.74723 28.7903 9.62228 28.6653 9.62228 28.5112Z" fill="black"/>
<path d="M37.5323 36.147C40.3499 36.147 42.634 33.8629 42.634 31.0453C42.634 28.2278 40.3499 25.9437 37.5323 25.9437C34.7147 25.9437 32.4307 28.2278 32.4307 31.0453C32.4307 33.8629 34.7147 36.147 37.5323 36.147Z" fill="#F7AEBC"/>
<path fill-rule="evenodd" clip-rule="evenodd" d="M37.5319 26.2228C34.8685 26.2228 32.7093 28.3819 32.7093 31.0453C32.7093 33.7088 34.8685 35.8679 37.5319 35.8679C40.1953 35.8679 42.3544 33.7088 42.3544 31.0453C42.3544 28.3819 40.1953 26.2228 37.5319 26.2228ZM32.1512 31.0453C32.1512 28.0736 34.5602 25.6646 37.5319 25.6646C40.5036 25.6646 42.9126 28.0736 42.9126 31.0453C42.9126 34.017 40.5036 36.4261 37.5319 36.4261C34.5602 36.4261 32.1512 34.017 32.1512 31.0453Z" fill="black"/>
<path d="M47.0989 46.1381C47.0989 40.8578 42.8234 36.1469 37.5431 36.1469C32.2628 36.1469 27.9873 40.8578 27.9873 46.1381H47.0989Z" fill="#88C1D7"/>
<path fill-rule="evenodd" clip-rule="evenodd" d="M27.708 46.1382C27.708 40.7201 32.0927 35.8679 37.5429 35.8679C42.9931 35.8679 47.3778 40.7201 47.3778 46.1382C47.3778 46.2923 47.2529 46.4173 47.0987 46.4173H27.9871C27.833 46.4173 27.708 46.2923 27.708 46.1382ZM28.2703 45.8591H46.8156C46.6683 40.8316 42.5606 36.4261 37.5429 36.4261C32.5252 36.4261 28.4175 40.8316 28.2703 45.8591Z" fill="black"/>
</svg>
