<svg width="57" height="57" viewBox="0 0 57 57" fill="none" xmlns="http://www.w3.org/2000/svg">
<path d="M28.5 57C44.2401 57 57 44.2401 57 28.5C57 12.7599 44.2401 0 28.5 0C12.7599 0 0 12.7599 0 28.5C0 44.2401 12.7599 57 28.5 57Z" fill="white"/>
<path d="M45.0143 15.5089H11.9854V37.2538H45.0143V15.5089Z" fill="#E6E7E8"/>
<path d="M45.0138 37.5279H11.9859C11.9121 37.5279 11.8413 37.4985 11.7891 37.4463C11.7369 37.3941 11.7075 37.3233 11.7075 37.2495V15.5089C11.7075 15.4351 11.7369 15.3643 11.7891 15.3121C11.8413 15.2599 11.9121 15.2305 11.9859 15.2305H45.0138C45.0876 15.2305 45.1584 15.2599 45.2106 15.3121C45.2628 15.3643 45.2922 15.4351 45.2922 15.5089V37.2539C45.291 37.327 45.2611 37.3966 45.2091 37.4479C45.157 37.4991 45.0868 37.5279 45.0138 37.5279ZM12.2643 36.9711H44.7354V15.7873H12.2643V36.9711Z" fill="black"/>
<path d="M27.545 32.6348L27.1842 31.1927C27.1734 31.1515 27.1523 31.1137 27.1229 31.0829C27.0935 31.0521 27.0567 31.0293 27.016 31.0167C26.7597 30.9345 26.5105 30.8314 26.2711 30.7083C26.2331 30.6887 26.1909 30.6791 26.1483 30.6802C26.1056 30.6814 26.064 30.6933 26.0272 30.7149L24.7532 31.4789C24.7056 31.5074 24.6498 31.5193 24.5947 31.5124C24.5396 31.5055 24.4884 31.4804 24.4492 31.441L23.4403 30.4321C23.4009 30.3929 23.3758 30.3417 23.3689 30.2866C23.3621 30.2315 23.3739 30.1757 23.4025 30.1281L24.1653 28.8541C24.1874 28.8175 24.1996 28.7758 24.2008 28.7331C24.202 28.6903 24.192 28.648 24.1719 28.6103C24.0487 28.3714 23.9459 28.1226 23.8646 27.8664C23.852 27.8254 23.8292 27.7883 23.7982 27.7586C23.7672 27.729 23.7291 27.7078 23.6875 27.6971L22.2454 27.3374C22.1918 27.3236 22.1442 27.2924 22.1101 27.2487C22.0761 27.205 22.0575 27.1512 22.0573 27.0958V25.6682C22.0573 25.6127 22.0758 25.5588 22.1099 25.5151C22.144 25.4713 22.1917 25.4401 22.2454 25.4265L23.6875 25.0657C23.7289 25.055 23.7669 25.034 23.7978 25.0046C23.8288 24.9751 23.8518 24.9383 23.8646 24.8976C23.9459 24.641 24.0487 24.3918 24.1719 24.1526C24.192 24.1148 24.202 24.0725 24.2008 24.0298C24.1996 23.987 24.1874 23.9453 24.1653 23.9087L23.4013 22.6359C23.3726 22.5883 23.3606 22.5325 23.3675 22.4773C23.3744 22.4221 23.3996 22.3709 23.4392 22.3319L24.4481 21.3218C24.4876 21.283 24.5387 21.2582 24.5937 21.2513C24.6487 21.2445 24.7044 21.256 24.7521 21.284L26.0272 22.049C26.064 22.0706 26.1057 22.0825 26.1484 22.0835C26.1911 22.0845 26.2333 22.0745 26.2711 22.0546C26.5105 21.9318 26.7597 21.829 27.016 21.7472C27.0568 21.7344 27.0936 21.7114 27.123 21.6805C27.1525 21.6495 27.1735 21.6115 27.1842 21.5702L27.545 20.1281C27.5586 20.0743 27.5898 20.0266 27.6335 19.9925C27.6773 19.9584 27.7312 19.9399 27.7866 19.9399H29.2143C29.2696 19.94 29.3233 19.9585 29.3669 19.9926C29.4105 20.0267 29.4414 20.0744 29.4548 20.1281L29.8156 21.5702C29.8263 21.6115 29.8473 21.6495 29.8768 21.6805C29.9062 21.7114 29.943 21.7344 29.9838 21.7472C30.2402 21.8288 30.4894 21.9316 30.7287 22.0546C30.7665 22.0745 30.8087 22.0845 30.8514 22.0835C30.8941 22.0825 30.9358 22.0706 30.9726 22.049L32.2466 21.284C32.2943 21.2558 32.35 21.2442 32.405 21.251C32.46 21.2579 32.5112 21.2828 32.5506 21.3218L33.5595 22.3319C33.599 22.3709 33.6243 22.4221 33.6312 22.4773C33.638 22.5325 33.6261 22.5883 33.5973 22.6359L32.8334 23.9087C32.8116 23.9454 32.7996 23.9871 32.7984 24.0298C32.7972 24.0725 32.807 24.1147 32.8267 24.1526C32.9499 24.3918 33.0528 24.641 33.1341 24.8976C33.1469 24.9383 33.1699 24.9751 33.2009 25.0046C33.2318 25.034 33.2698 25.055 33.3111 25.0657L34.7532 25.4265C34.8071 25.44 34.8549 25.4711 34.889 25.5149C34.9231 25.5587 34.9416 25.6126 34.9414 25.6682V27.0958C34.9416 27.1513 34.9231 27.2053 34.889 27.2491C34.8549 27.2929 34.8071 27.324 34.7532 27.3374L33.3111 27.6971C33.2696 27.7078 33.2315 27.729 33.2005 27.7586C33.1695 27.7883 33.1466 27.8254 33.1341 27.8664C33.0528 28.1226 32.9499 28.3714 32.8267 28.6103C32.807 28.6481 32.7972 28.6904 32.7984 28.7331C32.7996 28.7757 32.8116 28.8174 32.8334 28.8541L33.5973 30.1281C33.6259 30.1757 33.6377 30.2315 33.6309 30.2866C33.624 30.3417 33.5989 30.3929 33.5595 30.4321L32.5506 31.441C32.5114 31.4804 32.4602 31.5055 32.4051 31.5124C32.35 31.5193 32.2942 31.5074 32.2466 31.4789L30.9726 30.7149C30.9358 30.6933 30.8942 30.6814 30.8515 30.6802C30.8089 30.6791 30.7667 30.6887 30.7287 30.7083C30.4893 30.8314 30.2401 30.9345 29.9838 31.0167C29.9431 31.0293 29.9063 31.0521 29.8769 31.0829C29.8475 31.1137 29.8264 31.1515 29.8156 31.1927L29.4548 32.6348C29.4416 32.6886 29.4108 32.7366 29.3672 32.7709C29.3236 32.8052 29.2697 32.8239 29.2143 32.8241H27.7866C27.731 32.824 27.677 32.8053 27.6333 32.771C27.5895 32.7367 27.5584 32.6887 27.545 32.6348Z" fill="#BBBDBF"/>
<path d="M29.2126 33.1024H27.7861C27.6683 33.1025 27.554 33.0631 27.4611 32.9907C27.3683 32.9183 27.3024 32.8169 27.2738 32.7026L26.9175 31.2773C26.6555 31.193 26.4007 31.0876 26.1558 30.9621L24.8963 31.7171C24.7957 31.778 24.6775 31.8033 24.5608 31.789C24.4441 31.7746 24.3356 31.7215 24.2527 31.6381L23.2426 30.6291C23.1593 30.546 23.1062 30.4373 23.0919 30.3204C23.0775 30.2035 23.1028 30.0852 23.1636 29.9844L23.9186 28.726C23.7932 28.4806 23.6879 28.2255 23.6034 27.9632L22.1781 27.6069C22.0641 27.5783 21.963 27.5125 21.8908 27.4199C21.8186 27.3273 21.7793 27.2132 21.7794 27.0957V25.6681C21.7791 25.5505 21.8182 25.4361 21.8904 25.3433C21.9627 25.2505 22.0639 25.1845 22.1781 25.1559L23.6034 24.7995C23.6877 24.5375 23.7931 24.2828 23.9186 24.0378L23.1625 22.7784C23.1018 22.6777 23.0766 22.5596 23.0909 22.4429C23.1052 22.3262 23.1583 22.2177 23.2415 22.1347L24.2516 21.1247C24.3345 21.0414 24.443 20.9884 24.5597 20.9741C24.6764 20.9597 24.7945 20.9849 24.8952 21.0456L26.1536 21.8006C26.3991 21.6757 26.6542 21.5703 26.9164 21.4855L27.2727 20.0612C27.3011 19.9469 27.367 19.8454 27.4598 19.7729C27.5527 19.7005 27.6672 19.6612 27.785 19.6614H29.2115C29.3291 19.6611 29.4435 19.7002 29.5363 19.7725C29.6291 19.8447 29.6951 19.946 29.7237 20.0601L30.0801 21.4855C30.3421 21.5705 30.5972 21.6759 30.8429 21.8006L32.1012 21.0456C32.2019 20.9849 32.32 20.9597 32.4367 20.9741C32.5534 20.9884 32.6619 21.0414 32.7449 21.1247L33.7549 22.1347C33.8382 22.2177 33.8912 22.3262 33.9055 22.4429C33.9199 22.5596 33.8947 22.6777 33.834 22.7784L33.0789 24.0378C33.204 24.283 33.3094 24.5377 33.3941 24.7995L34.8195 25.1559C34.9336 25.1845 35.0348 25.2505 35.1071 25.3433C35.1793 25.4361 35.2184 25.5505 35.2181 25.6681V27.0957C35.2182 27.2132 35.179 27.3273 35.1068 27.4199C35.0345 27.5125 34.9334 27.5783 34.8195 27.6069L33.3941 27.9632C33.3099 28.2256 33.2045 28.4807 33.0789 28.726L33.834 29.9844C33.8947 30.0852 33.92 30.2035 33.9057 30.3204C33.8913 30.4373 33.8382 30.546 33.7549 30.6291L32.7449 31.6381C32.6621 31.7217 32.5535 31.7749 32.4368 31.7893C32.32 31.8036 32.2018 31.7782 32.1012 31.7171L30.8462 30.9577C30.6013 31.0832 30.3465 31.1886 30.0845 31.2728L29.7282 32.6982C29.7003 32.8138 29.6343 32.9166 29.5407 32.99C29.4471 33.0633 29.3315 33.103 29.2126 33.1024ZM27.8083 32.5456H29.1903L29.5455 31.1258C29.5672 31.0382 29.6111 30.9577 29.6729 30.8919C29.7347 30.8262 29.8124 30.7775 29.8985 30.7505C30.1401 30.6739 30.3748 30.577 30.6001 30.461C30.6802 30.4193 30.7697 30.3988 30.8599 30.4015C30.9502 30.4042 31.0383 30.4301 31.1157 30.4766L32.3685 31.2283L33.3462 30.2516L32.5934 28.9977C32.5474 28.9203 32.5219 28.8324 32.5194 28.7424C32.5169 28.6523 32.5374 28.5632 32.5789 28.4833C32.6948 28.2575 32.7917 28.0225 32.8685 27.7806C32.8957 27.6946 32.9444 27.617 33.0101 27.5552C33.0758 27.4934 33.1563 27.4495 33.2438 27.4276L34.6625 27.0724V25.6904L33.2438 25.3363C33.1561 25.3143 33.0756 25.2702 33.0099 25.2082C32.9442 25.1462 32.8955 25.0684 32.8685 24.9822C32.7919 24.7406 32.695 24.5059 32.5789 24.2806C32.5374 24.2007 32.5169 24.1115 32.5194 24.0215C32.5219 23.9314 32.5474 23.8435 32.5934 23.7661L33.3462 22.5122L32.3685 21.5345L31.1146 22.2873C31.0374 22.3339 30.9494 22.3598 30.8592 22.3623C30.7691 22.3648 30.6798 22.344 30.6001 22.3018C30.3746 22.1861 30.14 22.0892 29.8985 22.0122C29.8125 21.9854 29.7349 21.9369 29.673 21.8714C29.6112 21.8058 29.5673 21.7255 29.5455 21.6381L29.1903 20.2182H27.8083L27.4531 21.6381C27.4314 21.7255 27.3875 21.8058 27.3256 21.8714C27.2638 21.9369 27.1861 21.9854 27.1001 22.0122C26.8587 22.0892 26.624 22.1861 26.3985 22.3018C26.3187 22.3437 26.2295 22.3643 26.1394 22.3618C26.0493 22.3593 25.9614 22.3336 25.8841 22.2873L24.6302 21.5345L23.6524 22.5122L24.4052 23.7661C24.4512 23.8435 24.4767 23.9314 24.4793 24.0215C24.4818 24.1115 24.4613 24.2007 24.4197 24.2806C24.3037 24.5059 24.2068 24.7406 24.1302 24.9822C24.1032 25.0684 24.0545 25.1462 23.9887 25.2082C23.923 25.2702 23.8425 25.3143 23.7549 25.3363L22.3362 25.6904V27.0724L23.756 27.4276C23.8433 27.4495 23.9236 27.4935 23.9891 27.5553C24.0546 27.6171 24.1032 27.6947 24.1302 27.7806C24.207 28.0225 24.3038 28.2575 24.4197 28.4833C24.4613 28.5632 24.4818 28.6523 24.4793 28.7424C24.4767 28.8324 24.4512 28.9203 24.4052 28.9977L23.6524 30.2516L24.6302 31.2283L25.8841 30.4766C25.9611 30.4301 26.0488 30.4042 26.1387 30.4015C26.2286 30.3988 26.3177 30.4193 26.3974 30.461C26.6232 30.5769 26.8582 30.6737 27.1001 30.7505C27.1862 30.7775 27.2639 30.8262 27.3257 30.8919C27.3876 30.9577 27.4314 31.0382 27.4531 31.1258L27.8083 32.5456Z" fill="black"/>
<path d="M28.4996 29.5501C30.2493 29.5501 31.6677 28.1317 31.6677 26.382C31.6677 24.6322 30.2493 23.2138 28.4996 23.2138C26.7499 23.2138 25.3314 24.6322 25.3314 26.382C25.3314 28.1317 26.7499 29.5501 28.4996 29.5501Z" fill="#F7AEBC"/>
<path d="M28.4999 29.8285C27.8169 29.8296 27.1489 29.6281 26.5805 29.2495C26.012 28.8708 25.5687 28.3321 25.3066 27.7014C25.0444 27.0707 24.9753 26.3764 25.1078 25.7064C25.2404 25.0364 25.5687 24.4207 26.0513 23.9374C26.5339 23.454 27.149 23.1247 27.8188 22.9911C28.4886 22.8574 29.183 22.9254 29.8141 23.1866C30.4452 23.4477 30.9847 23.8901 31.3642 24.458C31.7438 25.0258 31.9464 25.6934 31.9464 26.3764C31.9464 27.291 31.5835 28.1682 30.9373 28.8155C30.2911 29.4627 29.4145 29.8271 28.4999 29.8285ZM28.4999 23.4911C27.927 23.49 27.3667 23.6589 26.8898 23.9764C26.4129 24.2938 26.041 24.7456 25.821 25.2746C25.601 25.8035 25.5428 26.3859 25.6539 26.9479C25.765 27.5099 26.0403 28.0263 26.445 28.4318C26.8497 28.8373 27.3656 29.1136 27.9274 29.2257C28.4892 29.3379 29.0716 29.2809 29.601 29.0619C30.1304 28.8429 30.5829 28.4718 30.9013 27.9956C31.2197 27.5193 31.3896 26.9593 31.3896 26.3865C31.3881 25.6205 31.0832 24.8863 30.5416 24.3447C30 23.8031 29.2658 23.4982 28.4999 23.4967V23.4911Z" fill="black"/>
<path d="M8.185 37.2539H48.8142V37.4766C48.8142 38.5399 48.3918 39.5595 47.64 40.3113C46.8882 41.0632 45.8685 41.4855 44.8053 41.4855H12.1984C11.1351 41.4855 10.1154 41.0632 9.36363 40.3113C8.61182 39.5595 8.18945 38.5399 8.18945 37.4766V37.2539H8.185Z" fill="#88C1D7"/>
<path d="M44.8015 41.7683H12.1968C11.0591 41.7669 9.96849 41.3142 9.16412 40.5096C8.35976 39.705 7.90737 38.6143 7.90619 37.4766V37.2539C7.90619 37.18 7.93552 37.1092 7.98773 37.057C8.03994 37.0048 8.11075 36.9755 8.18459 36.9755H48.8138C48.8876 36.9755 48.9584 37.0048 49.0106 37.057C49.0628 37.1092 49.0922 37.18 49.0922 37.2539V37.4766C49.091 38.6143 48.6386 39.705 47.8342 40.5096C47.0299 41.3142 45.9392 41.7669 44.8015 41.7683ZM8.46298 37.5278C8.4799 38.5074 8.88057 39.4412 9.57882 40.1284C10.2771 40.8156 11.2171 41.2013 12.1968 41.2026H44.8015C45.7812 41.2013 46.7213 40.8156 47.4195 40.1284C48.1178 39.4412 48.5184 38.5074 48.5354 37.5278H8.46298Z" fill="black"/>
<path d="M33.8532 39.6503H23.1416C23.0678 39.6503 22.9969 39.621 22.9447 39.5688C22.8925 39.5165 22.8632 39.4457 22.8632 39.3719C22.8632 39.2981 22.8925 39.2273 22.9447 39.175C22.9969 39.1228 23.0678 39.0935 23.1416 39.0935H33.8532C33.927 39.0935 33.9978 39.1228 34.05 39.175C34.1022 39.2273 34.1316 39.2981 34.1316 39.3719C34.1316 39.4457 34.1022 39.5165 34.05 39.5688C33.9978 39.621 33.927 39.6503 33.8532 39.6503Z" fill="black"/>
</svg>
