<svg width="57" height="57" viewBox="0 0 57 57" fill="none" xmlns="http://www.w3.org/2000/svg">
<path d="M28.5 57C44.2401 57 57 44.2401 57 28.5C57 12.7599 44.2401 0 28.5 0C12.7599 0 0 12.7599 0 28.5C0 44.2401 12.7599 57 28.5 57Z" fill="white"/>
<path d="M45.0149 18.4866H11.9859V40.2316H45.0149V18.4866Z" fill="#BBBDBF"/>
<path d="M45.0136 40.5099H11.9847C11.9108 40.5099 11.84 40.4806 11.7878 40.4284C11.7356 40.3762 11.7063 40.3054 11.7063 40.2315V18.4854C11.7063 18.4116 11.7356 18.3408 11.7878 18.2886C11.84 18.2364 11.9108 18.207 11.9847 18.207H45.0136C45.0875 18.207 45.1583 18.2364 45.2105 18.2886C45.2627 18.3408 45.292 18.4116 45.292 18.4854V40.2315C45.292 40.3054 45.2627 40.3762 45.2105 40.4284C45.1583 40.4806 45.0875 40.5099 45.0136 40.5099ZM12.2631 39.9531H44.7397V18.7649H12.2675L12.2631 39.9531Z" fill="black"/>
<path d="M8.18521 40.2319H48.8155V40.4546C48.8155 41.5178 48.3931 42.5375 47.6413 43.2893C46.8895 44.0411 45.8698 44.4635 44.8066 44.4635H12.1986C11.1354 44.4635 10.1157 44.0411 9.36386 43.2893C8.61204 42.5375 8.18967 41.5178 8.18967 40.4546V40.2319H8.18521Z" fill="#F7AEBC"/>
<path d="M44.8009 44.7449H12.1973C11.0597 44.7438 9.96888 44.2914 9.1643 43.487C8.35973 42.6826 7.90705 41.592 7.90558 40.4543V40.2316C7.90558 40.1577 7.93492 40.0869 7.98713 40.0347C8.03934 39.9825 8.11014 39.9532 8.18398 39.9532H48.8143C48.8881 39.9532 48.9589 39.9825 49.0111 40.0347C49.0633 40.0869 49.0927 40.1577 49.0927 40.2316V40.4543C49.0912 41.592 48.6385 42.6826 47.8339 43.487C47.0294 44.2914 45.9386 44.7438 44.8009 44.7449ZM8.46237 40.5133C8.4793 41.4931 8.88012 42.427 9.57861 43.1143C10.2771 43.8015 11.2174 44.1871 12.1973 44.1882H44.8009C45.7807 44.1871 46.7209 43.8015 47.4192 43.1142C48.1176 42.4269 48.5181 41.493 48.5348 40.5133H8.46237Z" fill="black"/>
<path d="M33.8574 42.6281H23.1369C23.0631 42.6281 22.9923 42.5988 22.9401 42.5466C22.8878 42.4944 22.8585 42.4236 22.8585 42.3497C22.8585 42.2759 22.8878 42.2051 22.9401 42.1529C22.9923 42.1007 23.0631 42.0714 23.1369 42.0714H33.853C33.9268 42.0714 33.9976 42.1007 34.0498 42.1529C34.102 42.2051 34.1313 42.2759 34.1313 42.3497C34.1313 42.4236 34.102 42.4944 34.0498 42.5466C33.9976 42.5988 33.9268 42.6281 33.853 42.6281H33.8574Z" fill="black"/>
<path d="M29.3006 27.9509C29.2998 28.6855 29.0811 29.4033 28.6723 30.0137C28.2635 30.6241 27.683 31.0995 27.004 31.38C26.3251 31.6604 25.5782 31.7333 24.8578 31.5894C24.1375 31.4454 23.476 31.0912 22.9569 30.5713C22.4379 30.0515 22.0846 29.3894 21.9417 28.6689C21.7989 27.9483 21.8729 27.2015 22.1543 26.523C22.4358 25.8445 22.9121 25.2646 23.5231 24.8568C24.1341 24.4489 24.8522 24.2313 25.5868 24.2315C26.0754 24.23 26.5595 24.3253 27.0111 24.5117C27.4627 24.6982 27.8729 24.9722 28.2181 25.318C28.5634 25.6637 28.8368 26.0743 29.0225 26.5262C29.2083 26.9781 29.3028 27.4623 29.3006 27.9509Z" fill="white"/>
<path d="M25.587 31.9386C24.6565 31.939 23.755 31.6144 23.0382 31.0209C22.3214 30.4274 21.8344 29.6023 21.6611 28.688C21.4878 27.7737 21.6391 26.8276 22.089 26.013C22.5389 25.1984 23.2591 24.5665 24.1253 24.2263C24.9914 23.8861 25.9492 23.859 26.8332 24.1496C27.7172 24.4403 28.472 25.0304 28.9673 25.8183C29.4626 26.6061 29.6673 27.5421 29.546 28.4648C29.4247 29.3874 28.9851 30.2387 28.3031 30.8718C27.5656 31.5587 26.5948 31.9399 25.587 31.9386ZM25.587 24.5099C24.9078 24.5099 24.2438 24.7112 23.679 25.0885C23.1142 25.4657 22.6739 26.0019 22.4137 26.6294C22.1535 27.2568 22.0851 27.9472 22.2172 28.6135C22.3493 29.2797 22.676 29.8919 23.1559 30.3725C23.6358 30.8532 24.2474 31.1809 24.9134 31.314C25.5795 31.4472 26.27 31.38 26.8979 31.1208C27.5257 30.8617 28.0626 30.4222 28.4408 29.858C28.8189 29.2938 29.0213 28.6301 29.0224 27.9509C29.0227 27.0392 28.6611 26.1646 28.0169 25.5194C27.3727 24.8742 26.4988 24.5111 25.587 24.5099Z" fill="black"/>
<path d="M30.8887 36.2326V36.7894H20.3096V36.2326C20.3096 34.1813 21.3876 31.8896 23.0936 30.6914C23.7815 31.3186 24.68 31.6644 25.611 31.6601C26.5419 31.6557 27.4372 31.3016 28.1192 30.668C28.6244 31.0219 29.0699 31.4542 29.4388 31.9486C30.3625 33.1876 30.87 34.6873 30.8887 36.2326Z" fill="#88C1D7"/>
<path d="M30.8901 37.0701H20.311C20.2372 37.0701 20.1663 37.0408 20.1141 36.9886C20.0619 36.9364 20.0326 36.8655 20.0326 36.7917V36.2349C20.0326 34.0011 21.1974 31.6826 22.9279 30.4665C22.9797 30.4302 23.0424 30.4126 23.1055 30.4167C23.1687 30.4207 23.2286 30.4462 23.2754 30.4888C23.9118 31.0686 24.7428 31.388 25.6038 31.3839C26.4647 31.3798 27.2926 31.0524 27.9235 30.4665C27.9697 30.4232 28.0294 30.397 28.0927 30.3924C28.1559 30.3877 28.2188 30.4048 28.2709 30.4409C28.8015 30.8109 29.2689 31.264 29.6551 31.7828C30.6159 33.0713 31.1459 34.63 31.1696 36.2371V36.7939C31.169 36.8676 31.1392 36.938 31.0868 36.9897C31.0345 37.0415 30.9637 37.0704 30.8901 37.0701ZM20.5849 36.5133H30.6072V36.2327C30.5854 34.7461 30.0952 33.3042 29.2063 32.1124C28.8976 31.7001 28.5338 31.3322 28.125 31.0189C27.4146 31.6063 26.5228 31.9297 25.601 31.9342C24.6792 31.9386 23.7843 31.6239 23.0682 31.0434C21.595 32.1781 20.5805 34.2728 20.5805 36.2282L20.5849 36.5133Z" fill="black"/>
<path d="M38.8797 13.7637V20.0833C38.8797 20.4087 38.7508 20.7209 38.5212 20.9515C38.2917 21.1821 37.9801 21.3124 37.6547 21.3138H36.1904L32.7048 25.8094C32.6885 25.8305 32.666 25.846 32.6405 25.8537C32.6149 25.8614 32.5876 25.8609 32.5623 25.8523C32.537 25.8437 32.5151 25.8275 32.4995 25.8058C32.4839 25.7841 32.4755 25.7581 32.4754 25.7314V21.3138H19.3507C19.1894 21.3138 19.0296 21.282 18.8807 21.2201C18.7317 21.1581 18.5964 21.0674 18.4826 20.9531C18.3688 20.8387 18.2786 20.7031 18.2174 20.5538C18.1562 20.4045 18.125 20.2446 18.1258 20.0833V13.7626C18.1258 13.4377 18.2548 13.1262 18.4846 12.8964C18.7143 12.6667 19.0258 12.5377 19.3507 12.5377H37.6481C37.9737 12.5377 38.2862 12.6667 38.517 12.8964C38.7478 13.1262 38.8782 13.438 38.8797 13.7637Z" fill="#E6E7E8"/>
<path d="M32.6029 26.138C32.5582 26.1377 32.5138 26.1302 32.4715 26.1157C32.3912 26.0885 32.3215 26.0367 32.2722 25.9678C32.2228 25.8989 32.1963 25.8163 32.1964 25.7315V21.5923H19.3512C18.9511 21.592 18.5675 21.4329 18.2846 21.15C18.0017 20.8671 17.8426 20.4835 17.8423 20.0834V13.7627C17.8418 13.5642 17.8806 13.3676 17.9562 13.1841C18.0318 13.0005 18.1428 12.8337 18.283 12.6932C18.4231 12.5526 18.5896 12.4411 18.7729 12.3649C18.9562 12.2888 19.1527 12.2495 19.3512 12.2493H37.6485C38.0489 12.2496 38.4328 12.4088 38.7159 12.6919C38.9991 12.975 39.1583 13.359 39.1586 13.7594V20.0789C39.158 20.479 38.9988 20.8624 38.716 21.1453C38.4331 21.4281 38.0496 21.5873 37.6496 21.5879H36.3211L32.9191 25.9754C32.8823 26.0248 32.8346 26.0651 32.7798 26.0933C32.725 26.1215 32.6645 26.1368 32.6029 26.138ZM19.3512 12.8061C19.0987 12.8061 18.8565 12.9064 18.678 13.085C18.4994 13.2635 18.3991 13.5057 18.3991 13.7582V20.0789C18.3991 20.3315 18.4994 20.5736 18.678 20.7522C18.8565 20.9308 19.0987 21.0311 19.3512 21.0311H32.4704C32.5442 21.0311 32.615 21.0604 32.6672 21.1126C32.7194 21.1648 32.7488 21.2356 32.7488 21.3095V25.2872L35.9648 21.1391C35.9909 21.1047 36.0246 21.0768 36.0632 21.0575C36.1018 21.0382 36.1443 21.028 36.1875 21.0277H37.6519C37.7769 21.0277 37.9007 21.0031 38.0162 20.9552C38.1317 20.9074 38.2367 20.8373 38.3251 20.7489C38.4135 20.6604 38.4837 20.5555 38.5315 20.44C38.5794 20.3245 38.604 20.2006 38.604 20.0756V13.7638C38.6037 13.5111 38.5032 13.2688 38.3245 13.0901C38.1458 12.9114 37.9035 12.8109 37.6508 12.8106L19.3512 12.8061Z" fill="black"/>
<path d="M35.2054 15.2751H21.7945C21.7207 15.2751 21.6499 15.2457 21.5977 15.1935C21.5455 15.1413 21.5161 15.0705 21.5161 14.9967C21.5161 14.9228 21.5455 14.852 21.5977 14.7998C21.6499 14.7476 21.7207 14.7183 21.7945 14.7183H35.2054C35.2793 14.7183 35.3501 14.7476 35.4023 14.7998C35.4545 14.852 35.4838 14.9228 35.4838 14.9967C35.4838 15.0705 35.4545 15.1413 35.4023 15.1935C35.3501 15.2457 35.2793 15.2751 35.2054 15.2751Z" fill="black"/>
<path d="M35.2054 17.2796H21.7945C21.7207 17.2796 21.6499 17.2503 21.5977 17.1981C21.5455 17.1459 21.5161 17.0751 21.5161 17.0012C21.5161 16.9274 21.5455 16.8566 21.5977 16.8044C21.6499 16.7522 21.7207 16.7228 21.7945 16.7228H35.2054C35.2793 16.7228 35.3501 16.7522 35.4023 16.8044C35.4545 16.8566 35.4838 16.9274 35.4838 17.0012C35.4838 17.0751 35.4545 17.1459 35.4023 17.1981C35.3501 17.2503 35.2793 17.2796 35.2054 17.2796Z" fill="black"/>
<path d="M26.3045 19.2838H21.7945C21.7207 19.2838 21.6499 19.2545 21.5977 19.2023C21.5455 19.1501 21.5161 19.0793 21.5161 19.0054C21.5161 18.9316 21.5455 18.8608 21.5977 18.8086C21.6499 18.7564 21.7207 18.7271 21.7945 18.7271H26.3045C26.3784 18.7271 26.4492 18.7564 26.5014 18.8086C26.5536 18.8608 26.5829 18.9316 26.5829 19.0054C26.5829 19.0793 26.5536 19.1501 26.5014 19.2023C26.4492 19.2545 26.3784 19.2838 26.3045 19.2838Z" fill="black"/>
</svg>
