<svg width="154" height="40" viewBox="0 0 154 40" fill="none" xmlns="http://www.w3.org/2000/svg">
<g clip-path="url(#clip0_86_3766)">
<path d="M69.3031 16.1782H60.6711C60.7995 16.9484 61.2242 17.638 61.8547 18.0999C62.5488 18.5897 63.3846 18.8386 64.234 18.8085C64.7882 18.8255 65.3399 18.7276 65.8542 18.5208C66.3685 18.3141 66.8343 18.0031 67.222 17.6074L68.603 19.1904C68.1008 19.7889 67.4565 20.2522 66.7289 20.538C65.9137 20.8495 65.0466 21.0027 64.1739 20.9896C63.066 21.0129 61.9692 20.7656 60.979 20.269C60.0905 19.8184 59.3506 19.1221 58.8475 18.2632C58.3387 17.379 58.0785 16.3739 58.0944 15.3542C58.0814 14.3457 58.3345 13.3516 58.8282 12.4717C59.3011 11.6203 60.0049 10.9193 60.8587 10.4491C61.7557 9.96195 62.7632 9.71376 63.7842 9.72849C64.793 9.71272 65.7884 9.96118 66.6711 10.4491C67.5068 10.9135 68.1927 11.6059 68.6487 12.4453C69.1361 13.3588 69.3804 14.3819 69.3584 15.4167C69.344 15.5969 69.3319 15.8491 69.3031 16.1782ZM61.6911 12.527C61.1156 13.0242 60.7446 13.7163 60.6494 14.4703H66.8924C66.8038 13.728 66.4451 13.044 65.8844 12.5486C65.3004 12.0488 64.5505 11.7849 63.7818 11.8087C63.0201 11.7831 62.2757 12.0388 61.6911 12.527Z" fill="white"/>
<path d="M82.5919 5.58496V20.848H80.1187V19.4283C79.7002 19.9449 79.1583 20.348 78.5429 20.6006C77.8856 20.8681 77.1813 21.0013 76.4715 20.9921C75.4733 21.0108 74.4871 20.7717 73.6086 20.2979C72.7708 19.8386 72.0815 19.1503 71.6214 18.3138C71.1285 17.4089 70.8797 16.3915 70.8997 15.3616C70.8785 14.3346 71.1274 13.32 71.6214 12.419C72.084 11.588 72.773 10.905 73.6086 10.4492C74.4838 9.97541 75.4665 9.73468 76.4619 9.75023C77.1461 9.74146 77.8254 9.86715 78.4611 10.1202C79.0572 10.3619 79.5867 10.7424 80.0056 11.2299V5.59456L82.5919 5.58496ZM78.4491 18.3762C78.9456 18.0938 79.3525 17.6776 79.6231 17.1752C79.9203 16.6192 80.0694 15.9964 80.0562 15.3664C80.0697 14.7355 79.9206 14.1119 79.6231 13.5552C79.3525 13.0527 78.9456 12.6365 78.4491 12.3541C77.9405 12.0686 77.3652 11.9228 76.7819 11.9313C76.1977 11.9228 75.6217 12.0687 75.1122 12.3541C74.6157 12.6365 74.2089 13.0527 73.9382 13.5552C73.6407 14.1119 73.4916 14.7355 73.5052 15.3664C73.4919 15.9964 73.641 16.6192 73.9382 17.1752C74.2089 17.6776 74.6157 18.0938 75.1122 18.3762C75.6217 18.6617 76.1977 18.8075 76.7819 18.799C77.3652 18.8076 77.9405 18.6617 78.4491 18.3762Z" fill="white"/>
<path d="M96.6232 9.86312V20.848H94.1717V19.4499C93.7534 19.9468 93.2233 20.3378 92.6248 20.591C91.9931 20.8607 91.3125 20.9973 90.6256 20.9921C89.1548 20.9921 87.9984 20.5837 87.1564 19.767C86.3144 18.9503 85.8885 17.7404 85.8789 16.1374V9.86312H88.4531V15.7867C88.4531 16.7732 88.6768 17.5106 89.1243 17.9991C89.5718 18.4875 90.2069 18.7277 91.0297 18.7197C91.4349 18.7395 91.8397 18.6737 92.2178 18.5268C92.5958 18.3799 92.9386 18.155 93.2238 17.867C93.7659 17.2985 94.037 16.4785 94.037 15.4072V9.85352L96.6232 9.86312Z" fill="white"/>
<path d="M101.966 20.2522C101.132 19.7961 100.442 19.1153 99.9763 18.2872C99.4895 17.4173 99.2406 16.4348 99.2546 15.4383C99.2395 14.4448 99.4885 13.4651 99.9763 12.599C100.445 11.7758 101.134 11.0989 101.966 10.6437C102.848 10.1682 103.838 9.92749 104.841 9.94471C105.706 9.93013 106.563 10.1168 107.343 10.49C108.065 10.8433 108.67 11.3971 109.085 12.085L107.992 12.8248C107.655 12.3107 107.185 11.896 106.633 11.6238C106.074 11.3549 105.461 11.2177 104.841 11.2226C104.103 11.2112 103.375 11.3925 102.729 11.7487C102.107 12.0932 101.599 12.6106 101.266 13.238C100.907 13.916 100.725 14.6738 100.739 15.4407C100.724 16.2125 100.908 16.9751 101.273 17.6555C101.608 18.2793 102.116 18.7938 102.736 19.1376C103.382 19.4929 104.11 19.6734 104.848 19.6612C105.467 19.6668 106.08 19.5338 106.64 19.2721C107.195 19.0035 107.665 18.5881 108 18.0711L109.092 18.8109C108.676 19.5014 108.067 20.0557 107.34 20.4059C106.563 20.7771 105.71 20.9637 104.848 20.9512C103.843 20.9696 102.85 20.7289 101.966 20.2522Z" fill="white"/>
<path d="M111.781 5.58496H113.244V20.848H111.781V5.58496Z" fill="white"/>
<path d="M118.934 20.2402C118.108 19.7784 117.424 19.0997 116.957 18.2777C116.469 17.4118 116.219 16.4319 116.235 15.4384C116.219 14.4447 116.468 13.4647 116.957 12.5991C117.423 11.7781 118.108 11.1015 118.934 10.6437C119.799 10.1711 120.771 9.93031 121.756 9.94472C122.742 9.93009 123.714 10.1709 124.578 10.6437C125.402 11.1039 126.081 11.7855 126.537 12.6111C127.024 13.4775 127.273 14.457 127.258 15.4504C127.272 16.4437 127.023 17.423 126.537 18.2897C126.076 19.1132 125.394 19.7927 124.569 20.2522C123.708 20.7355 122.735 20.9841 121.747 20.9728C120.761 20.9784 119.792 20.7258 118.934 20.2402ZM123.828 19.1304C124.443 18.7826 124.944 18.2646 125.271 17.6387C125.623 16.9593 125.8 16.2031 125.786 15.4384C125.8 14.6728 125.623 13.9158 125.271 13.2356C124.944 12.6104 124.443 12.0931 123.828 11.7463C123.196 11.3907 122.481 11.2092 121.756 11.2202C121.032 11.2088 120.318 11.3904 119.687 11.7463C119.075 12.0964 118.574 12.6128 118.244 13.2356C117.886 13.9138 117.705 14.6717 117.72 15.4384C117.705 16.2043 117.886 16.9613 118.244 17.6387C118.574 18.2621 119.075 18.7793 119.687 19.1304C120.318 19.4856 121.032 19.6664 121.756 19.6541C122.481 19.6659 123.196 19.4851 123.828 19.1304Z" fill="white"/>
<path d="M140.008 10.0288V20.8383H138.608V18.8638C138.233 19.5129 137.683 20.0439 137.02 20.3963C136.309 20.7686 135.516 20.9562 134.713 20.9416C133.299 20.9416 132.182 20.5469 131.364 19.7574C130.546 18.9679 130.14 17.8157 130.145 16.3007V10.0288H131.607V16.1566C131.607 17.2952 131.889 18.16 132.452 18.7509C133.015 19.3418 133.817 19.6365 134.858 19.6349C135.998 19.6349 136.898 19.2881 137.557 18.5947C138.216 17.9013 138.546 16.9405 138.546 15.7122V10.036L140.008 10.0288Z" fill="white"/>
<path d="M153.999 5.58496V20.848H152.599V18.7077C152.182 19.4121 151.58 19.9887 150.857 20.3748C150.104 20.7668 149.265 20.9649 148.415 20.9513C147.449 20.9642 146.497 20.7232 145.653 20.2523C144.838 19.7929 144.168 19.1158 143.717 18.2969C143.24 17.4206 142.998 16.4357 143.017 15.4384C142.999 14.4404 143.24 13.4548 143.717 12.5775C144.166 11.7606 144.837 11.0869 145.653 10.6342C146.502 10.1677 147.458 9.93007 148.427 9.9448C149.253 9.93291 150.069 10.1199 150.807 10.4901C151.518 10.8589 152.119 11.4092 152.548 12.0851V5.58496H153.999ZM150.592 19.1305C151.206 18.7801 151.706 18.2627 152.036 17.6388C152.394 16.9614 152.575 16.2044 152.56 15.4384C152.575 14.6717 152.394 13.9139 152.036 13.2357C151.706 12.6125 151.205 12.0959 150.592 11.7464C149.968 11.3923 149.261 11.2107 148.543 11.2203C147.818 11.2089 147.104 11.3905 146.474 11.7464C145.861 12.0965 145.361 12.6129 145.03 13.2357C144.672 13.9139 144.491 14.6717 144.506 15.4384C144.491 16.2044 144.672 16.9614 145.03 17.6388C145.361 18.2622 145.861 18.7794 146.474 19.1305C147.104 19.4857 147.819 19.6664 148.543 19.6541C149.26 19.6646 149.968 19.4839 150.592 19.1305Z" fill="white"/>
<path d="M65.1862 28.0254V35.2317H64.2504V33.9154C64.0012 34.3532 63.6335 34.712 63.1894 34.9507C62.7149 35.199 62.1853 35.3237 61.6497 35.3134C60.7066 35.3134 59.9624 35.0508 59.4171 34.5255C58.8718 34.0002 58.6 33.23 58.6016 32.2147V28.0326H59.5759V32.1162C59.5759 32.8753 59.7636 33.451 60.1389 33.8433C60.3507 34.0483 60.603 34.2067 60.8798 34.3085C61.1566 34.4102 61.4516 34.4531 61.746 34.4342C62.078 34.4516 62.4099 34.3987 62.72 34.2791C63.0301 34.1595 63.3114 33.9758 63.5455 33.74C63.9849 33.2788 64.2047 32.6383 64.2047 31.8183V28.035L65.1862 28.0254Z" fill="white"/>
<path d="M73.7602 28.7582C74.2942 29.2834 74.5621 30.0489 74.5637 31.0546V35.2391H73.5869V31.1555C73.5869 30.406 73.3993 29.8351 73.024 29.4428C72.8122 29.2378 72.5598 29.0794 72.283 28.9776C72.0063 28.8758 71.7112 28.833 71.4169 28.8518C71.078 28.8341 70.7391 28.8867 70.4215 29.0062C70.104 29.1256 69.8146 29.3095 69.5717 29.5461C69.1162 30.0073 68.8892 30.6478 68.8908 31.4677V35.2535H67.9141V28.0471H68.8499V29.3779C69.1135 28.9392 69.4964 28.5844 69.9542 28.3546C70.464 28.1039 71.0268 27.9795 71.5949 27.9919C71.9888 27.9688 72.3833 28.0247 72.7552 28.1563C73.1271 28.2879 73.4688 28.4925 73.7602 28.7582Z" fill="white"/>
<path d="M77.1991 26.2406C77.1342 26.1784 77.0825 26.1038 77.047 26.0213C77.0114 25.9388 76.9928 25.85 76.9922 25.7602C76.9921 25.6702 77.0104 25.5812 77.046 25.4986C77.0816 25.416 77.1337 25.3415 77.1991 25.2797C77.2651 25.2125 77.3442 25.1595 77.4315 25.124C77.5188 25.0885 77.6125 25.0712 77.7067 25.0732C77.8003 25.0712 77.8934 25.0878 77.9805 25.122C78.0677 25.1562 78.1471 25.2074 78.2143 25.2725C78.2809 25.3334 78.3338 25.4077 78.3695 25.4905C78.4051 25.5734 78.4228 25.6628 78.4212 25.753C78.4232 25.8471 78.4059 25.9406 78.3703 26.0278C78.3347 26.1149 78.2816 26.1939 78.2143 26.2598C78.1486 26.3274 78.0695 26.3806 77.9822 26.4161C77.8948 26.4517 77.801 26.4688 77.7067 26.4664C77.611 26.4665 77.5162 26.4465 77.4288 26.4075C77.3413 26.3686 77.263 26.3117 77.1991 26.2406ZM77.2111 28.0253H78.1782V35.2317H77.2159L77.2111 28.0253Z" fill="white"/>
<path d="M86.9781 28.0254L83.7639 35.2317H82.7607L79.5586 28.0254H80.5835L83.29 34.1676L86.023 28.0254H86.9781Z" fill="white"/>
<path d="M94.4386 31.9337H88.3928C88.4084 32.2788 88.4931 32.6173 88.6419 32.9292C88.7906 33.2411 89.0004 33.5201 89.2589 33.7497C89.8066 34.2222 90.5131 34.4702 91.2365 34.4439C91.6607 34.4481 92.0814 34.3664 92.4731 34.2037C92.847 34.0434 93.1806 33.8022 93.4498 33.4975L93.9983 34.1268C93.6751 34.5133 93.2621 34.8151 92.7954 35.006C92.2922 35.2102 91.7532 35.3123 91.21 35.3062C90.5227 35.3184 89.844 35.1529 89.2397 34.8258C88.6792 34.5231 88.215 34.0695 87.8996 33.5167C87.5742 32.9394 87.4081 32.2862 87.4185 31.6238C87.4078 30.9638 87.5669 30.3121 87.8804 29.731C88.1717 29.1879 88.6091 28.737 89.1434 28.429C89.6931 28.1152 90.317 27.9542 90.9502 27.963C91.581 27.9542 92.2026 28.1152 92.7497 28.429C93.2774 28.7375 93.7095 29.1856 93.9983 29.7237C94.3081 30.3085 94.4638 30.9624 94.4506 31.6238L94.4386 31.9337ZM89.1988 29.4715C88.7208 29.9275 88.4329 30.547 88.3928 31.2058H93.5172C93.4789 30.547 93.1917 29.9272 92.7136 29.4715C92.2366 29.0264 91.6028 28.7873 90.9502 28.8061C90.3013 28.7886 89.6719 29.0278 89.1988 29.4715Z" fill="white"/>
<path d="M98.4006 28.3403C98.9219 28.0774 99.5011 27.9502 100.085 27.9703V28.9168L99.8441 28.9024C99.5138 28.8843 99.1834 28.9373 98.8754 29.0579C98.5674 29.1785 98.289 29.3639 98.059 29.6014C97.6284 30.0674 97.4143 30.7232 97.4143 31.5639V35.2391H96.4375V28.0328H97.3709V29.4452C97.5842 28.9746 97.9458 28.5865 98.4006 28.3403Z" fill="white"/>
<path d="M102.149 35.054C101.692 34.9252 101.264 34.7081 100.891 34.4151L101.331 33.6464C101.676 33.9061 102.063 34.1037 102.476 34.2301C102.937 34.3817 103.42 34.4579 103.905 34.4559C104.562 34.4559 105.05 34.355 105.368 34.1484C105.518 34.0587 105.642 33.9307 105.727 33.7775C105.811 33.6242 105.853 33.4514 105.849 33.2765C105.855 33.1594 105.835 33.0425 105.789 32.9343C105.744 32.8262 105.675 32.7297 105.587 32.6519C105.394 32.4924 105.169 32.3761 104.928 32.3108C104.58 32.214 104.226 32.1386 103.869 32.085C103.392 32.0003 102.921 31.888 102.457 31.7487C102.106 31.6384 101.79 31.437 101.543 31.165C101.275 30.8479 101.14 30.4403 101.165 30.0264C101.16 29.737 101.227 29.4508 101.359 29.1929C101.49 28.935 101.683 28.7132 101.92 28.5467C102.424 28.1624 103.124 27.9702 104.021 27.9702C104.494 27.9714 104.966 28.0336 105.423 28.1552C105.831 28.2507 106.221 28.413 106.576 28.6356L106.138 29.4259C105.509 29.0045 104.765 28.7887 104.009 28.8086C103.517 28.7757 103.027 28.8903 102.601 29.1376C102.453 29.2286 102.332 29.3558 102.247 29.5073C102.163 29.6587 102.119 29.8292 102.12 30.0024C102.115 30.125 102.136 30.2474 102.183 30.361C102.229 30.4746 102.3 30.5768 102.389 30.6606C102.58 30.8314 102.807 30.9556 103.053 31.0233C103.415 31.1233 103.782 31.2035 104.153 31.2635C104.621 31.3471 105.085 31.457 105.541 31.5926C105.882 31.6996 106.19 31.8933 106.434 32.1547C106.695 32.459 106.827 32.8525 106.804 33.2525C106.811 33.5491 106.743 33.8426 106.605 34.1053C106.466 34.368 106.264 34.5912 106.015 34.7538C105.489 35.1237 104.758 35.3087 103.823 35.3087C103.255 35.3095 102.691 35.2237 102.149 35.054Z" fill="white"/>
<path d="M108.598 26.2408C108.533 26.1786 108.481 26.104 108.446 26.0215C108.41 25.939 108.391 25.8502 108.391 25.7604C108.391 25.6705 108.409 25.5815 108.445 25.4988C108.48 25.4162 108.532 25.3418 108.598 25.28C108.664 25.2129 108.743 25.1599 108.83 25.1244C108.918 25.0889 109.011 25.0715 109.105 25.0734C109.295 25.0703 109.478 25.142 109.615 25.2728C109.682 25.3338 109.734 25.4081 109.769 25.491C109.805 25.5738 109.822 25.6632 109.82 25.7532C109.822 25.8471 109.805 25.9406 109.77 26.0278C109.735 26.115 109.682 26.194 109.615 26.26C109.549 26.3275 109.47 26.3807 109.382 26.4163C109.294 26.4518 109.2 26.4689 109.105 26.4666C109.01 26.4666 108.915 26.4465 108.828 26.4076C108.74 26.3687 108.662 26.3118 108.598 26.2408ZM108.612 28.0256H109.587V35.2319H108.612V28.0256Z" fill="white"/>
<path d="M116.112 34.7994C115.914 34.9724 115.682 35.101 115.431 35.1766C115.158 35.2636 114.873 35.3073 114.586 35.3063C114.302 35.3244 114.017 35.2853 113.748 35.1912C113.478 35.0972 113.231 34.95 113.02 34.7586C112.829 34.5506 112.682 34.3061 112.587 34.0399C112.493 33.7736 112.454 33.4911 112.472 33.2092V28.847H111.18V28.0255H112.472V26.4473H113.434V28.0255H115.633V28.847H113.434V33.154C113.409 33.5102 113.525 33.8621 113.756 34.134C113.879 34.2515 114.025 34.3421 114.185 34.4C114.345 34.458 114.515 34.4819 114.685 34.4703C114.883 34.4713 115.08 34.4388 115.267 34.3742C115.444 34.3144 115.607 34.2215 115.748 34.1004L116.112 34.7994Z" fill="white"/>
<path d="M123.814 28.0254L120.205 36.1013C119.996 36.661 119.647 37.1574 119.19 37.5426C118.786 37.8313 118.298 37.9806 117.802 37.9677C117.469 37.9704 117.138 37.9143 116.825 37.802C116.532 37.7014 116.265 37.5373 116.043 37.3216L116.495 36.6009C116.666 36.7774 116.871 36.9172 117.098 37.0118C117.324 37.1064 117.568 37.1538 117.814 37.151C118.119 37.1585 118.418 37.061 118.66 36.8748C118.946 36.6179 119.169 36.299 119.312 35.9428L119.628 35.2437L116.399 28.0374H117.417L120.135 34.1676L122.856 28.0374L123.814 28.0254Z" fill="white"/>
<path d="M24.2914 20.3771L48.5827 10.6822L24.2914 0L0 10.1609V19.5388L24.2914 29.9592L48.5827 20.2354L40.7927 17.0358L24.2914 23.7257V20.3771Z" fill="white"/>
<path d="M0 22.7456L24.2914 33.3053L40.7927 26.6971L48.5827 29.9592L24.2914 39.9976L0 29.9592V22.7456Z" fill="white"/>
<path d="M25.9766 12.724C27.0316 12.724 27.8868 11.8701 27.8868 10.8167C27.8868 9.76334 27.0316 8.90942 25.9766 8.90942C24.9216 8.90942 24.0664 9.76334 24.0664 10.8167C24.0664 11.8701 24.9216 12.724 25.9766 12.724Z" fill="#FCC042"/>
<path d="M36.033 39.2721H34.462V16.6466L25.332 11.4989L26.1019 10.1321L36.033 15.7314V39.2721Z" fill="#FCC042"/>
</g>
<defs>
<clipPath id="clip0_86_3766">
<rect width="154" height="40" fill="white"/>
</clipPath>
</defs>
</svg>
