<svg width="63" height="222" viewBox="0 0 63 222" fill="none" xmlns="http://www.w3.org/2000/svg">
<g opacity="0.4">
<rect x="4.28046" width="2.85526" height="11.4211" fill="white" fill-opacity="0.6"/>
<rect x="11.4211" y="4.28296" width="2.85526" height="11.4211" transform="rotate(90 11.4211 4.28296)" fill="white" fill-opacity="0.6"/>
</g>
<g opacity="0.4">
<rect x="29.9758" width="2.85526" height="11.4211" fill="white" fill-opacity="0.6"/>
<rect x="37.1164" y="4.28296" width="2.85526" height="11.4211" transform="rotate(90 37.1164 4.28296)" fill="white" fill-opacity="0.6"/>
</g>
<g opacity="0.4">
<rect x="55.675" width="2.85526" height="11.4211" fill="white" fill-opacity="0.6"/>
<rect x="62.8156" y="4.28296" width="2.85526" height="11.4211" transform="rotate(90 62.8156 4.28296)" fill="white" fill-opacity="0.6"/>
</g>
<g opacity="0.4">
<rect x="4.28046" y="29.9797" width="2.85526" height="11.4211" fill="white" fill-opacity="0.6"/>
<rect x="11.4211" y="34.2627" width="2.85526" height="11.4211" transform="rotate(90 11.4211 34.2627)" fill="white" fill-opacity="0.6"/>
</g>
<g opacity="0.4">
<rect x="29.9758" y="29.9797" width="2.85526" height="11.4211" fill="white" fill-opacity="0.6"/>
<rect x="37.1164" y="34.2627" width="2.85526" height="11.4211" transform="rotate(90 37.1164 34.2627)" fill="white" fill-opacity="0.6"/>
</g>
<g opacity="0.4">
<rect x="55.675" y="29.9797" width="2.85526" height="11.4211" fill="white" fill-opacity="0.6"/>
<rect x="62.8156" y="34.2627" width="2.85526" height="11.4211" transform="rotate(90 62.8156 34.2627)" fill="white" fill-opacity="0.6"/>
</g>
<g opacity="0.4">
<rect x="4.28046" y="59.9604" width="2.85526" height="11.4211" fill="white" fill-opacity="0.6"/>
<rect x="11.4211" y="64.2434" width="2.85526" height="11.4211" transform="rotate(90 11.4211 64.2434)" fill="white" fill-opacity="0.6"/>
</g>
<g opacity="0.4">
<rect x="29.9758" y="59.9604" width="2.85526" height="11.4211" fill="white" fill-opacity="0.6"/>
<rect x="37.1164" y="64.2434" width="2.85526" height="11.4211" transform="rotate(90 37.1164 64.2434)" fill="white" fill-opacity="0.6"/>
</g>
<g opacity="0.4">
<rect x="55.675" y="59.9604" width="2.85526" height="11.4211" fill="white" fill-opacity="0.6"/>
<rect x="62.8156" y="64.2434" width="2.85526" height="11.4211" transform="rotate(90 62.8156 64.2434)" fill="white" fill-opacity="0.6"/>
</g>
<g opacity="0.4">
<rect x="4.28046" y="89.9409" width="2.85526" height="11.4211" fill="white" fill-opacity="0.6"/>
<rect x="11.4211" y="94.2239" width="2.85526" height="11.4211" transform="rotate(90 11.4211 94.2239)" fill="white" fill-opacity="0.6"/>
</g>
<g opacity="0.4">
<rect x="29.9758" y="89.9404" width="2.85526" height="11.4211" fill="white" fill-opacity="0.6"/>
<rect x="37.1164" y="94.2234" width="2.85526" height="11.4211" transform="rotate(90 37.1164 94.2234)" fill="white" fill-opacity="0.6"/>
</g>
<g opacity="0.4">
<rect x="55.675" y="89.9404" width="2.85526" height="11.4211" fill="white" fill-opacity="0.6"/>
<rect x="62.8156" y="94.2234" width="2.85526" height="11.4211" transform="rotate(90 62.8156 94.2234)" fill="white" fill-opacity="0.6"/>
</g>
<g opacity="0.4">
<rect x="4.28046" y="119.921" width="2.85526" height="11.4211" fill="white" fill-opacity="0.6"/>
<rect x="11.4211" y="124.204" width="2.85526" height="11.4211" transform="rotate(90 11.4211 124.204)" fill="white" fill-opacity="0.6"/>
</g>
<g opacity="0.4">
<rect x="29.9758" y="119.921" width="2.85526" height="11.4211" fill="white" fill-opacity="0.6"/>
<rect x="37.1164" y="124.204" width="2.85526" height="11.4211" transform="rotate(90 37.1164 124.204)" fill="white" fill-opacity="0.6"/>
</g>
<g opacity="0.4">
<rect x="55.675" y="119.921" width="2.85526" height="11.4211" fill="white" fill-opacity="0.6"/>
<rect x="62.8156" y="124.204" width="2.85526" height="11.4211" transform="rotate(90 62.8156 124.204)" fill="white" fill-opacity="0.6"/>
</g>
<g opacity="0.4">
<rect x="4.28046" y="149.901" width="2.85526" height="11.4211" fill="white" fill-opacity="0.6"/>
<rect x="11.4211" y="154.184" width="2.85526" height="11.4211" transform="rotate(90 11.4211 154.184)" fill="white" fill-opacity="0.6"/>
</g>
<g opacity="0.4">
<rect x="29.9758" y="149.901" width="2.85526" height="11.4211" fill="white" fill-opacity="0.6"/>
<rect x="37.1164" y="154.184" width="2.85526" height="11.4211" transform="rotate(90 37.1164 154.184)" fill="white" fill-opacity="0.6"/>
</g>
<g opacity="0.4">
<rect x="55.675" y="149.901" width="2.85526" height="11.4211" fill="white" fill-opacity="0.6"/>
<rect x="62.8156" y="154.184" width="2.85526" height="11.4211" transform="rotate(90 62.8156 154.184)" fill="white" fill-opacity="0.6"/>
</g>
<g opacity="0.4">
<rect x="4.28046" y="179.882" width="2.85526" height="11.4211" fill="white" fill-opacity="0.6"/>
<rect x="11.4211" y="184.164" width="2.85526" height="11.4211" transform="rotate(90 11.4211 184.164)" fill="white" fill-opacity="0.6"/>
</g>
<g opacity="0.4">
<rect x="29.9758" y="179.882" width="2.85526" height="11.4211" fill="white" fill-opacity="0.6"/>
<rect x="37.1164" y="184.164" width="2.85526" height="11.4211" transform="rotate(90 37.1164 184.164)" fill="white" fill-opacity="0.6"/>
</g>
<g opacity="0.4">
<rect x="55.675" y="179.882" width="2.85526" height="11.4211" fill="white" fill-opacity="0.6"/>
<rect x="62.8156" y="184.164" width="2.85526" height="11.4211" transform="rotate(90 62.8156 184.164)" fill="white" fill-opacity="0.6"/>
</g>
<g opacity="0.4">
<rect x="4.28046" y="209.862" width="2.85526" height="11.4211" fill="white" fill-opacity="0.6"/>
<rect x="11.4211" y="214.145" width="2.85526" height="11.4211" transform="rotate(90 11.4211 214.145)" fill="white" fill-opacity="0.6"/>
</g>
<g opacity="0.4">
<rect x="29.9758" y="209.862" width="2.85526" height="11.4211" fill="white" fill-opacity="0.6"/>
<rect x="37.1164" y="214.145" width="2.85526" height="11.4211" transform="rotate(90 37.1164 214.145)" fill="white" fill-opacity="0.6"/>
</g>
<g opacity="0.4">
<rect x="55.675" y="209.862" width="2.85526" height="11.4211" fill="white" fill-opacity="0.6"/>
<rect x="62.8156" y="214.145" width="2.85526" height="11.4211" transform="rotate(90 62.8156 214.145)" fill="white" fill-opacity="0.6"/>
</g>
</svg>
