<svg width="253" height="293" viewBox="0 0 253 293" fill="none" xmlns="http://www.w3.org/2000/svg">
<g opacity="0.16">
<rect x="5.65588" width="3.77139" height="15.0856" fill="white"/>
<rect x="15.0856" y="5.65674" width="3.77139" height="15.0856" transform="rotate(90 15.0856 5.65674)" fill="white"/>
<rect x="39.5973" width="3.77139" height="15.0856" fill="white"/>
<rect x="49.0267" y="5.65674" width="3.77139" height="15.0856" transform="rotate(90 49.0267 5.65674)" fill="white"/>
<rect x="73.5426" width="3.77139" height="15.0856" fill="white"/>
<rect x="82.9723" y="5.65674" width="3.77139" height="15.0856" transform="rotate(90 82.9723 5.65674)" fill="white"/>
<rect x="107.484" width="3.77139" height="15.0856" fill="white"/>
<rect x="116.914" y="5.65674" width="3.77139" height="15.0856" transform="rotate(90 116.914 5.65674)" fill="white"/>
<rect x="141.425" width="3.77139" height="15.0856" fill="white"/>
<rect x="150.855" y="5.65674" width="3.77139" height="15.0856" transform="rotate(90 150.855 5.65674)" fill="white"/>
<rect x="175.367" width="3.77139" height="15.0856" fill="white"/>
<rect x="184.796" y="5.65674" width="3.77139" height="15.0856" transform="rotate(90 184.796 5.65674)" fill="white"/>
<rect x="209.312" width="3.77139" height="15.0856" fill="white"/>
<rect x="218.742" y="5.65674" width="3.77139" height="15.0856" transform="rotate(90 218.742 5.65674)" fill="white"/>
<rect x="243.254" width="3.77139" height="15.0856" fill="white"/>
<rect x="252.683" y="5.65674" width="3.77139" height="15.0856" transform="rotate(90 252.683 5.65674)" fill="white"/>
<rect x="5.65588" y="39.5996" width="3.77139" height="15.0856" fill="white"/>
<rect x="15.0856" y="45.2563" width="3.77139" height="15.0856" transform="rotate(90 15.0856 45.2563)" fill="white"/>
<rect x="39.597" y="39.5996" width="3.77139" height="15.0856" fill="white"/>
<rect x="49.0267" y="45.2563" width="3.77139" height="15.0856" transform="rotate(90 49.0267 45.2563)" fill="white"/>
<rect x="73.5424" y="39.5996" width="3.77139" height="15.0856" fill="white"/>
<rect x="82.9721" y="45.2563" width="3.77139" height="15.0856" transform="rotate(90 82.9721 45.2563)" fill="white"/>
<rect x="107.484" y="39.5996" width="3.77139" height="15.0856" fill="white"/>
<rect x="116.914" y="45.2563" width="3.77139" height="15.0856" transform="rotate(90 116.914 45.2563)" fill="white"/>
<rect x="141.425" y="39.5996" width="3.77139" height="15.0856" fill="white"/>
<rect x="150.855" y="45.2563" width="3.77139" height="15.0856" transform="rotate(90 150.855 45.2563)" fill="white"/>
<rect x="175.367" y="39.5996" width="3.77139" height="15.0856" fill="white"/>
<rect x="184.796" y="45.2563" width="3.77139" height="15.0856" transform="rotate(90 184.796 45.2563)" fill="white"/>
<rect x="209.312" y="39.5996" width="3.77139" height="15.0856" fill="white"/>
<rect x="218.742" y="45.2563" width="3.77139" height="15.0856" transform="rotate(90 218.742 45.2563)" fill="white"/>
<rect x="243.254" y="39.5996" width="3.77139" height="15.0856" fill="white"/>
<rect x="252.683" y="45.2563" width="3.77139" height="15.0856" transform="rotate(90 252.683 45.2563)" fill="white"/>
<rect x="5.65588" y="79.199" width="3.77139" height="15.0856" fill="white"/>
<rect x="15.0856" y="84.8564" width="3.77139" height="15.0856" transform="rotate(90 15.0856 84.8564)" fill="white"/>
<rect x="39.5973" y="79.1992" width="3.77139" height="15.0856" fill="white"/>
<rect x="49.0267" y="84.8567" width="3.77139" height="15.0856" transform="rotate(90 49.0267 84.8567)" fill="white"/>
<rect x="73.5426" y="79.1992" width="3.77139" height="15.0856" fill="white"/>
<rect x="82.9721" y="84.8567" width="3.77139" height="15.0856" transform="rotate(90 82.9721 84.8567)" fill="white"/>
<rect x="107.484" y="79.1992" width="3.77139" height="15.0856" fill="white"/>
<rect x="116.914" y="84.856" width="3.77139" height="15.0856" transform="rotate(90 116.914 84.856)" fill="white"/>
<rect x="141.425" y="79.1992" width="3.77139" height="15.0856" fill="white"/>
<rect x="150.855" y="84.856" width="3.77139" height="15.0856" transform="rotate(90 150.855 84.856)" fill="white"/>
<rect x="175.367" y="79.1992" width="3.77139" height="15.0856" fill="white"/>
<rect x="184.796" y="84.856" width="3.77139" height="15.0856" transform="rotate(90 184.796 84.856)" fill="white"/>
<rect x="209.312" y="79.1992" width="3.77139" height="15.0856" fill="white"/>
<rect x="218.742" y="84.856" width="3.77139" height="15.0856" transform="rotate(90 218.742 84.856)" fill="white"/>
<rect x="243.254" y="79.1992" width="3.77139" height="15.0856" fill="white"/>
<rect x="252.683" y="84.856" width="3.77139" height="15.0856" transform="rotate(90 252.683 84.856)" fill="white"/>
<rect x="5.65588" y="118.799" width="3.77139" height="15.0856" fill="white"/>
<rect x="15.0856" y="124.456" width="3.77139" height="15.0856" transform="rotate(90 15.0856 124.456)" fill="white"/>
<rect x="39.5973" y="118.798" width="3.77139" height="15.0856" fill="white"/>
<rect x="49.0267" y="124.455" width="3.77139" height="15.0856" transform="rotate(90 49.0267 124.455)" fill="white"/>
<rect x="73.5426" y="118.798" width="3.77139" height="15.0856" fill="white"/>
<rect x="82.9721" y="124.455" width="3.77139" height="15.0856" transform="rotate(90 82.9721 124.455)" fill="white"/>
<rect x="107.484" y="118.798" width="3.77139" height="15.0856" fill="white"/>
<rect x="116.914" y="124.455" width="3.77139" height="15.0856" transform="rotate(90 116.914 124.455)" fill="white"/>
<rect x="141.425" y="118.798" width="3.77139" height="15.0856" fill="white"/>
<rect x="150.855" y="124.455" width="3.77139" height="15.0856" transform="rotate(90 150.855 124.455)" fill="white"/>
<rect x="175.367" y="118.798" width="3.77139" height="15.0856" fill="white"/>
<rect x="184.796" y="124.455" width="3.77139" height="15.0856" transform="rotate(90 184.796 124.455)" fill="white"/>
<rect x="209.312" y="118.798" width="3.77139" height="15.0856" fill="white"/>
<rect x="218.742" y="124.455" width="3.77139" height="15.0856" transform="rotate(90 218.742 124.455)" fill="white"/>
<rect x="243.254" y="118.798" width="3.77139" height="15.0856" fill="white"/>
<rect x="252.683" y="124.455" width="3.77139" height="15.0856" transform="rotate(90 252.683 124.455)" fill="white"/>
<rect x="5.65588" y="158.398" width="3.77139" height="15.0856" fill="white"/>
<rect x="15.0856" y="164.055" width="3.77139" height="15.0856" transform="rotate(90 15.0856 164.055)" fill="white"/>
<rect x="39.5973" y="158.398" width="3.77139" height="15.0856" fill="white"/>
<rect x="49.027" y="164.055" width="3.77139" height="15.0856" transform="rotate(90 49.027 164.055)" fill="white"/>
<rect x="73.5426" y="158.398" width="3.77139" height="15.0856" fill="white"/>
<rect x="82.9723" y="164.055" width="3.77139" height="15.0856" transform="rotate(90 82.9723 164.055)" fill="white"/>
<rect x="107.484" y="158.399" width="3.77139" height="15.0856" fill="white"/>
<rect x="116.914" y="164.055" width="3.77139" height="15.0856" transform="rotate(90 116.914 164.055)" fill="white"/>
<rect x="141.425" y="158.399" width="3.77139" height="15.0856" fill="white"/>
<rect x="150.855" y="164.056" width="3.77139" height="15.0856" transform="rotate(90 150.855 164.056)" fill="white"/>
<rect x="175.367" y="158.399" width="3.77139" height="15.0856" fill="white"/>
<rect x="184.796" y="164.056" width="3.77139" height="15.0856" transform="rotate(90 184.796 164.056)" fill="white"/>
<rect x="209.312" y="158.399" width="3.77139" height="15.0856" fill="white"/>
<rect x="218.742" y="164.055" width="3.77139" height="15.0856" transform="rotate(90 218.742 164.055)" fill="white"/>
<rect x="243.254" y="158.399" width="3.77139" height="15.0856" fill="white"/>
<rect x="252.683" y="164.055" width="3.77139" height="15.0856" transform="rotate(90 252.683 164.055)" fill="white"/>
<rect x="5.65588" y="197.998" width="3.77139" height="15.0856" fill="white"/>
<rect x="15.0856" y="203.655" width="3.77139" height="15.0856" transform="rotate(90 15.0856 203.655)" fill="white"/>
<rect x="39.5973" y="197.998" width="3.77139" height="15.0856" fill="white"/>
<rect x="49.0267" y="203.655" width="3.77139" height="15.0856" transform="rotate(90 49.0267 203.655)" fill="white"/>
<rect x="73.5426" y="197.998" width="3.77139" height="15.0856" fill="white"/>
<rect x="82.9721" y="203.655" width="3.77139" height="15.0856" transform="rotate(90 82.9721 203.655)" fill="white"/>
<rect x="107.484" y="197.998" width="3.77139" height="15.0856" fill="white"/>
<rect x="116.914" y="203.655" width="3.77139" height="15.0856" transform="rotate(90 116.914 203.655)" fill="white"/>
<rect x="141.425" y="197.998" width="3.77139" height="15.0856" fill="white"/>
<rect x="150.855" y="203.655" width="3.77139" height="15.0856" transform="rotate(90 150.855 203.655)" fill="white"/>
<rect x="175.367" y="197.998" width="3.77139" height="15.0856" fill="white"/>
<rect x="184.796" y="203.655" width="3.77139" height="15.0856" transform="rotate(90 184.796 203.655)" fill="white"/>
<rect x="209.312" y="197.998" width="3.77139" height="15.0856" fill="white"/>
<rect x="218.742" y="203.655" width="3.77139" height="15.0856" transform="rotate(90 218.742 203.655)" fill="white"/>
<rect x="243.254" y="197.998" width="3.77139" height="15.0856" fill="white"/>
<rect x="252.683" y="203.655" width="3.77139" height="15.0856" transform="rotate(90 252.683 203.655)" fill="white"/>
<rect x="5.65588" y="237.598" width="3.77139" height="15.0856" fill="white"/>
<rect x="15.0856" y="243.255" width="3.77139" height="15.0856" transform="rotate(90 15.0856 243.255)" fill="white"/>
<rect x="39.597" y="237.598" width="3.77139" height="15.0856" fill="white"/>
<rect x="49.0267" y="243.255" width="3.77139" height="15.0856" transform="rotate(90 49.0267 243.255)" fill="white"/>
<rect x="73.5424" y="237.598" width="3.77139" height="15.0856" fill="white"/>
<rect x="82.9721" y="243.255" width="3.77139" height="15.0856" transform="rotate(90 82.9721 243.255)" fill="white"/>
<rect x="107.484" y="237.598" width="3.77139" height="15.0856" fill="white"/>
<rect x="116.914" y="243.255" width="3.77139" height="15.0856" transform="rotate(90 116.914 243.255)" fill="white"/>
<rect x="141.425" y="237.598" width="3.77139" height="15.0856" fill="white"/>
<rect x="150.855" y="243.255" width="3.77139" height="15.0856" transform="rotate(90 150.855 243.255)" fill="white"/>
<rect x="175.367" y="237.598" width="3.77139" height="15.0856" fill="white"/>
<rect x="184.796" y="243.255" width="3.77139" height="15.0856" transform="rotate(90 184.796 243.255)" fill="white"/>
<rect x="209.312" y="237.598" width="3.77139" height="15.0856" fill="white"/>
<rect x="218.742" y="243.255" width="3.77139" height="15.0856" transform="rotate(90 218.742 243.255)" fill="white"/>
<rect x="243.254" y="237.598" width="3.77139" height="15.0856" fill="white"/>
<rect x="252.683" y="243.255" width="3.77139" height="15.0856" transform="rotate(90 252.683 243.255)" fill="white"/>
<rect x="5.65588" y="277.197" width="3.77139" height="15.0856" fill="white"/>
<rect x="15.0856" y="282.854" width="3.77139" height="15.0856" transform="rotate(90 15.0856 282.854)" fill="white"/>
<rect x="39.5973" y="277.197" width="3.77139" height="15.0856" fill="white"/>
<rect x="49.0267" y="282.854" width="3.77139" height="15.0856" transform="rotate(90 49.0267 282.854)" fill="white"/>
<rect x="73.5426" y="277.197" width="3.77139" height="15.0856" fill="white"/>
<rect x="82.9721" y="282.854" width="3.77139" height="15.0856" transform="rotate(90 82.9721 282.854)" fill="white"/>
<rect x="107.484" y="277.197" width="3.77139" height="15.0856" fill="white"/>
<rect x="116.914" y="282.854" width="3.77139" height="15.0856" transform="rotate(90 116.914 282.854)" fill="white"/>
<rect x="141.425" y="277.197" width="3.77139" height="15.0856" fill="white"/>
<rect x="150.855" y="282.854" width="3.77139" height="15.0856" transform="rotate(90 150.855 282.854)" fill="white"/>
<rect x="175.367" y="277.197" width="3.77139" height="15.0856" fill="white"/>
<rect x="184.796" y="282.854" width="3.77139" height="15.0856" transform="rotate(90 184.796 282.854)" fill="white"/>
<rect x="209.312" y="277.197" width="3.77139" height="15.0856" fill="white"/>
<rect x="218.742" y="282.854" width="3.77139" height="15.0856" transform="rotate(90 218.742 282.854)" fill="white"/>
<rect x="243.254" y="277.197" width="3.77139" height="15.0856" fill="white"/>
<rect x="252.683" y="282.854" width="3.77139" height="15.0856" transform="rotate(90 252.683 282.854)" fill="white"/>
</g>
</svg>
