<svg width="157" height="37" viewBox="0 0 157 37" fill="none" xmlns="http://www.w3.org/2000/svg">
<path d="M56.3447 15.2514H44.2602C44.4812 16.3813 45.0216 17.2901 45.9304 17.9533C46.8146 18.6164 47.9445 18.9603 49.2708 18.9603C50.9656 18.9603 52.3656 18.3954 53.4464 17.2901L55.3868 19.5007C54.699 20.3358 53.8148 20.9498 52.7586 21.3674C51.7025 21.7849 50.4989 22.006 49.1726 22.006C47.4778 22.006 45.9795 21.6621 44.7023 20.999C43.425 20.3358 42.418 19.3779 41.7057 18.1989C40.9934 16.9953 40.6495 15.6444 40.6495 14.1216C40.6495 12.6233 40.9934 11.2724 41.6811 10.0688C42.3689 8.8653 43.3022 7.93194 44.5303 7.26876C45.7339 6.60559 47.1094 6.26172 48.6322 6.26172C50.1305 6.26172 51.4814 6.58103 52.6604 7.2442C53.8394 7.90738 54.7727 8.84073 55.4359 10.0443C56.0991 11.2478 56.4429 12.6233 56.4429 14.2198C56.3938 14.4409 56.3938 14.7848 56.3447 15.2514ZM45.6848 10.1425C44.8988 10.8303 44.4075 11.7391 44.2356 12.8689H52.9797C52.8323 11.7636 52.3656 10.8548 51.5797 10.1671C50.7937 9.47935 49.8112 9.13548 48.6322 9.13548C47.4532 9.11092 46.4953 9.45478 45.6848 10.1425Z" fill="#516FE9"/>
<path d="M74.9385 0.415921V21.8095H71.4753V19.8199C70.8858 20.5568 70.1489 21.0972 69.2647 21.4656C68.3805 21.834 67.4225 22.006 66.3664 22.006C64.8927 22.006 63.5663 21.6867 62.3628 21.0235C61.1838 20.3603 60.2504 19.4515 59.5872 18.248C58.9241 17.0444 58.5802 15.669 58.5802 14.1216C58.5802 12.5741 58.9241 11.1987 59.5872 9.99513C60.2504 8.79158 61.1838 7.88279 62.3628 7.21961C63.5417 6.55644 64.8681 6.23713 66.3664 6.23713C67.3734 6.23713 68.3068 6.40906 69.1664 6.75293C70.0016 7.0968 70.7384 7.6126 71.3279 8.30034V0.391357H74.9385V0.415921ZM69.1419 18.3217C69.8296 17.9287 70.37 17.3637 70.7875 16.6269C71.1805 15.89 71.4016 15.0549 71.4016 14.097C71.4016 13.1391 71.2051 12.2794 70.7875 11.5671C70.3946 10.8302 69.8296 10.2653 69.1419 9.87231C68.4541 9.47932 67.6682 9.28282 66.8085 9.28282C65.9488 9.28282 65.1628 9.47932 64.4751 9.87231C63.7874 10.2653 63.247 10.8302 62.8294 11.5671C62.4364 12.304 62.2154 13.1391 62.2154 14.097C62.2154 15.0549 62.4119 15.9146 62.8294 16.6269C63.2224 17.3637 63.7874 17.9287 64.4751 18.3217C65.1628 18.7147 65.9488 18.9112 66.8085 18.9112C67.6682 18.9112 68.4541 18.7147 69.1419 18.3217Z" fill="#516FE9"/>
<path d="M94.5881 6.40942V21.8098H91.1494V19.8449C90.5845 20.5326 89.8477 21.073 88.988 21.4414C88.1283 21.8098 87.195 22.0063 86.1879 22.0063C84.1247 22.0063 82.5036 21.4414 81.3246 20.287C80.1456 19.1326 79.5562 17.4378 79.5562 15.2026V6.40942H83.1668V14.7114C83.1668 16.0869 83.4861 17.1185 84.1001 17.8062C84.7142 18.494 85.623 18.8378 86.7774 18.8378C88.0546 18.8378 89.0862 18.4448 89.8477 17.6343C90.6091 16.8483 90.9775 15.6939 90.9775 14.1956V6.40942H94.5881Z" fill="#516FE9"/>
<g opacity="0.6">
<path d="M101.343 21.2448C100.434 20.7536 99.7216 20.0413 99.2058 19.1325C98.69 18.2237 98.4443 17.2166 98.4443 16.0868C98.4443 14.9569 98.69 13.9499 99.2058 13.0411C99.7216 12.1569 100.434 11.4446 101.343 10.9533C102.251 10.4621 103.283 10.1919 104.413 10.1919C105.42 10.1919 106.304 10.3884 107.09 10.7814C107.876 11.1744 108.49 11.7393 108.957 12.5007L107.778 13.2867C107.385 12.7218 106.918 12.2797 106.329 12.0095C105.739 11.7147 105.101 11.5674 104.413 11.5674C103.578 11.5674 102.816 11.7639 102.153 12.1323C101.49 12.5007 100.974 13.0411 100.581 13.7288C100.213 14.4166 100.016 15.2026 100.016 16.0868C100.016 16.971 100.213 17.7816 100.581 18.4447C100.95 19.1325 101.465 19.6483 102.153 20.0413C102.816 20.4097 103.578 20.6062 104.413 20.6062C105.101 20.6062 105.739 20.4588 106.329 20.1886C106.918 19.9185 107.409 19.4764 107.778 18.9114L108.957 19.6974C108.49 20.4588 107.876 21.0238 107.09 21.4167C106.304 21.8097 105.395 22.0062 104.413 22.0062C103.283 22.0062 102.251 21.7606 101.343 21.2448Z" fill="#516FE9"/>
<path d="M111.855 5.54932H113.427V21.9076H111.855V5.54932Z" fill="#516FE9"/>
<path d="M119.494 21.2448C118.61 20.729 117.898 20.0413 117.382 19.1325C116.866 18.2482 116.621 17.2166 116.621 16.0868C116.621 14.9569 116.866 13.9499 117.382 13.0411C117.898 12.1569 118.61 11.4446 119.494 10.9533C120.379 10.4621 121.386 10.1919 122.516 10.1919C123.621 10.1919 124.628 10.4375 125.537 10.9533C126.446 11.4446 127.133 12.1569 127.649 13.0411C128.165 13.9253 128.411 14.9569 128.411 16.0868C128.411 17.2166 128.165 18.2237 127.649 19.1325C127.133 20.0413 126.446 20.729 125.537 21.2448C124.653 21.7606 123.645 22.0062 122.516 22.0062C121.41 22.0062 120.403 21.7606 119.494 21.2448ZM124.726 20.0413C125.389 19.6728 125.881 19.1325 126.249 18.4447C126.617 17.757 126.789 16.971 126.789 16.0868C126.789 15.2026 126.593 14.4166 126.249 13.7288C125.881 13.0411 125.365 12.5007 124.726 12.1323C124.088 11.7639 123.326 11.5674 122.516 11.5674C121.705 11.5674 120.944 11.7639 120.305 12.1323C119.666 12.5007 119.126 13.0411 118.758 13.7288C118.389 14.4166 118.193 15.2026 118.193 16.0868C118.193 16.971 118.389 17.757 118.758 18.4447C119.126 19.1325 119.642 19.6728 120.305 20.0413C120.968 20.4097 121.705 20.6062 122.516 20.6062C123.326 20.6062 124.088 20.4343 124.726 20.0413Z" fill="#516FE9"/>
<path d="M142.043 10.2903V21.8836H140.544V19.7712C140.127 20.4835 139.562 21.0239 138.849 21.4169C138.137 21.8099 137.302 22.0064 136.369 22.0064C134.846 22.0064 133.667 21.5888 132.783 20.7292C131.898 19.894 131.481 18.6414 131.481 17.0203V10.2903H133.053V16.8484C133.053 18.0765 133.348 18.9853 133.962 19.6239C134.551 20.2625 135.435 20.5818 136.541 20.5818C137.769 20.5818 138.727 20.2134 139.439 19.4765C140.151 18.7396 140.495 17.708 140.495 16.3817V10.2903H142.043Z" fill="#516FE9"/>
<path d="M157 5.54932V21.9076H155.502V19.6234C155.035 20.4094 154.421 20.9988 153.635 21.4164C152.874 21.834 151.989 22.0305 151.031 22.0305C149.951 22.0305 148.968 21.7848 148.084 21.269C147.2 20.7532 146.512 20.0655 146.021 19.1813C145.53 18.297 145.259 17.2654 145.259 16.111C145.259 14.9566 145.505 13.9495 146.021 13.0407C146.512 12.1565 147.2 11.4442 148.084 10.953C148.968 10.4617 149.951 10.2161 151.031 10.2161C151.965 10.2161 152.825 10.4126 153.586 10.8056C154.347 11.1986 154.961 11.7635 155.453 12.5249V5.54932H157ZM153.365 20.0409C154.028 19.6725 154.544 19.1321 154.912 18.4444C155.281 17.7567 155.477 16.9707 155.477 16.0864C155.477 15.2022 155.281 14.4162 154.912 13.7285C154.544 13.0407 154.028 12.5004 153.365 12.1319C152.702 11.7635 151.989 11.567 151.179 11.567C150.344 11.567 149.607 11.7635 148.968 12.1319C148.33 12.5004 147.789 13.0407 147.421 13.7285C147.052 14.4162 146.856 15.2022 146.856 16.0864C146.856 16.9707 147.052 17.7567 147.421 18.4444C147.789 19.1321 148.305 19.6725 148.968 20.0409C149.631 20.4094 150.368 20.6059 151.179 20.6059C151.965 20.6059 152.702 20.4339 153.365 20.0409Z" fill="#516FE9"/>
</g>
<path d="M46.7661 27.434V34.1394H45.9064V32.9113C45.6608 33.3289 45.3415 33.6482 44.9239 33.8692C44.5064 34.0903 44.0397 34.2131 43.4993 34.2131C42.6151 34.2131 41.9273 33.9675 41.4361 33.4762C40.9203 32.985 40.6747 32.2727 40.6747 31.3148V27.4094H41.5835V31.2165C41.5835 31.9288 41.7554 32.4692 42.0993 32.8131C42.4431 33.1815 42.9344 33.3534 43.5976 33.3534C44.3099 33.3534 44.8502 33.1324 45.2678 32.7148C45.6853 32.2973 45.8818 31.6832 45.8818 30.9218V27.4094H46.7661V27.434Z" fill="#516FE9"/>
<path d="M54.7489 28.1221C55.2402 28.6134 55.4858 29.3257 55.4858 30.259V34.1644H54.577V30.3573C54.577 29.6695 54.4051 29.1292 54.0612 28.7607C53.7173 28.3923 53.2261 28.2204 52.5629 28.2204C51.8506 28.2204 51.2611 28.4414 50.8436 28.859C50.426 29.2765 50.2049 29.8906 50.2049 30.652V34.1644H49.2961V27.4589H50.1558V28.687C50.4014 28.2695 50.7453 27.9502 51.1874 27.7291C51.6295 27.5081 52.1453 27.3853 52.7103 27.3853C53.5699 27.3853 54.2577 27.6309 54.7489 28.1221Z" fill="#516FE9"/>
<path d="M57.942 25.7886C57.8192 25.6658 57.7455 25.5185 57.7455 25.322C57.7455 25.15 57.8192 25.0027 57.942 24.8798C58.0648 24.757 58.2367 24.6833 58.4087 24.6833C58.5806 24.6833 58.7525 24.757 58.8753 24.8798C58.9981 25.0027 59.0718 25.15 59.0718 25.322C59.0718 25.5185 58.9981 25.6658 58.8753 25.7886C58.7525 25.9115 58.5806 25.9851 58.4087 25.9851C58.2367 25.9851 58.0648 25.9115 57.942 25.7886ZM57.9665 27.4343H58.8753V34.1397H57.9665V27.4343Z" fill="#516FE9"/>
<path d="M67.0297 27.4336L64.0332 34.139H63.1244L60.1523 27.4336H61.0857L63.591 33.1566L66.1209 27.4336H67.0297Z" fill="#516FE9"/>
<path d="M73.9807 31.0691H68.356C68.4052 31.7569 68.6753 32.3218 69.1666 32.7639C69.6578 33.206 70.2719 33.4025 71.0087 33.4025C71.4263 33.4025 71.8193 33.3288 72.1631 33.1815C72.507 33.0341 72.8263 32.813 73.0719 32.5183L73.5878 33.1078C73.293 33.4762 72.9246 33.7464 72.4825 33.9183C72.0403 34.1148 71.5491 34.1885 71.0087 34.1885C70.321 34.1885 69.7069 34.0411 69.1666 33.7464C68.6262 33.4516 68.2087 33.0341 67.9139 32.5183C67.6192 32.0025 67.4718 31.413 67.4718 30.7498C67.4718 30.0866 67.6192 29.4972 67.8894 28.9814C68.1841 28.4656 68.5771 28.048 69.0683 27.7778C69.5596 27.4831 70.1245 27.3357 70.7386 27.3357C71.3526 27.3357 71.9175 27.4831 72.4088 27.7778C72.9 28.0726 73.293 28.4656 73.5632 28.9814C73.8334 29.4972 73.9807 30.0866 73.9807 30.7498V31.0691ZM69.0929 28.7849C68.6508 29.2024 68.4052 29.7428 68.356 30.406H73.1211C73.072 29.7428 72.8018 29.2024 72.3842 28.7849C71.9421 28.3673 71.4017 28.1708 70.7386 28.1708C70.0754 28.1708 69.535 28.3673 69.0929 28.7849Z" fill="#516FE9"/>
<path d="M77.6653 27.7291C78.0828 27.5081 78.5986 27.3853 79.2372 27.3853V28.2695L79.0162 28.2449C78.3039 28.2449 77.7635 28.466 77.3459 28.9081C76.953 29.3502 76.7565 29.9397 76.7565 30.7257V34.1398H75.8477V27.4344H76.7073V28.7607C76.9284 28.2941 77.2231 27.9747 77.6653 27.7291Z" fill="#516FE9"/>
<path d="M81.1526 33.9924C80.6614 33.8451 80.2684 33.6486 79.9736 33.403L80.3912 32.6907C80.6614 32.9117 81.0298 33.0836 81.4474 33.231C81.8649 33.3784 82.307 33.4521 82.7737 33.4521C83.3878 33.4521 83.8299 33.3538 84.1246 33.1573C84.4194 32.9608 84.5667 32.6907 84.5667 32.3468C84.5667 32.1012 84.493 31.9047 84.3211 31.7573C84.1492 31.6099 83.9527 31.5117 83.7071 31.438C83.4614 31.3643 83.1421 31.2906 82.7246 31.2169C82.1842 31.1187 81.7421 31.0204 81.3982 30.8976C81.0544 30.7994 80.7842 30.6029 80.5386 30.3573C80.2929 30.1116 80.1947 29.7432 80.1947 29.3011C80.1947 28.7362 80.4403 28.2695 80.907 27.9256C81.3737 27.5572 82.0368 27.3853 82.872 27.3853C83.3141 27.3853 83.7316 27.4344 84.1737 27.5572C84.6159 27.68 84.9597 27.8274 85.2545 27.9993L84.8615 28.7362C84.2966 28.3432 83.6579 28.1712 82.872 28.1712C82.2825 28.1712 81.8649 28.2695 81.5702 28.466C81.2754 28.6625 81.128 28.9327 81.128 29.2765C81.128 29.5221 81.2017 29.7432 81.3737 29.8906C81.5456 30.038 81.7421 30.1608 81.9877 30.2345C82.2333 30.3081 82.5772 30.3818 83.0193 30.4555C83.5597 30.5538 83.9772 30.652 84.3211 30.7503C84.6404 30.8485 84.9106 31.0204 85.1562 31.2661C85.3773 31.5117 85.5001 31.8555 85.5001 32.2977C85.5001 32.8872 85.2545 33.3538 84.7632 33.6977C84.272 34.0416 83.5843 34.2135 82.7246 34.2135C82.1597 34.2135 81.6438 34.1398 81.1526 33.9924Z" fill="#516FE9"/>
<path d="M87.1463 25.7886C87.0235 25.6658 86.9498 25.5185 86.9498 25.322C86.9498 25.15 87.0235 25.0027 87.1463 24.8798C87.2691 24.757 87.4411 24.6833 87.613 24.6833C87.7849 24.6833 87.9569 24.757 88.0797 24.8798C88.2025 25.0027 88.2762 25.15 88.2762 25.322C88.2762 25.5185 88.2025 25.6658 88.0797 25.7886C87.9569 25.9115 87.7849 25.9851 87.613 25.9851C87.4411 25.9851 87.2691 25.9115 87.1463 25.7886ZM87.1463 27.4343H88.0551V34.1397H87.1463V27.4343Z" fill="#516FE9"/>
<path d="M94.1214 33.7469C93.9495 33.8942 93.7284 34.017 93.4828 34.0907C93.2372 34.1644 92.967 34.2135 92.6968 34.2135C92.0582 34.2135 91.5915 34.0416 91.2477 33.6977C90.9038 33.3539 90.7319 32.8872 90.7319 32.2486V28.1958H89.5283V27.4344H90.7319V25.9607H91.6407V27.4344H93.6793V28.1958H91.6407V32.1995C91.6407 32.5925 91.7389 32.9118 91.9354 33.1083C92.1319 33.3293 92.4266 33.4276 92.7951 33.4276C92.9916 33.4276 93.1635 33.403 93.3354 33.3293C93.5074 33.2802 93.6547 33.1819 93.7776 33.0837L94.1214 33.7469Z" fill="#516FE9"/>
<path d="M101.294 27.4336L97.9287 34.9496C97.6585 35.5882 97.3392 36.0303 96.9953 36.3005C96.6269 36.5707 96.2093 36.6935 95.6935 36.6935C95.3742 36.6935 95.0795 36.6444 94.7847 36.5461C94.5145 36.4479 94.2689 36.3005 94.0479 36.0794L94.4654 35.3917C94.8093 35.7356 95.2023 35.9075 95.6935 35.9075C95.9883 35.9075 96.2584 35.8338 96.4795 35.6619C96.7006 35.4899 96.897 35.1952 97.0935 34.8022L97.3883 34.139L94.3917 27.4336H95.3251L97.855 33.132L100.385 27.4336H101.294Z" fill="#516FE9"/>
<path d="M16.825 18.8124L33.65 12.0824L16.825 4.68921L0 11.7385V18.2229L16.825 25.4687L33.65 18.7141L28.2464 16.5036L16.825 21.1458V18.8124Z" fill="#516FE9"/>
<path d="M0 20.4585L16.825 27.778L28.2464 23.2094L33.65 25.4692L16.825 32.4202L0 25.4692V20.4585Z" fill="#516FE9"/>
</svg>
