<svg width="154" height="36" viewBox="0 0 154 36" fill="none" xmlns="http://www.w3.org/2000/svg">
<path d="M55.268 14.9676H43.4144C43.6313 16.0759 44.1613 16.9673 45.0527 17.6178C45.9201 18.2683 47.0283 18.6056 48.3293 18.6056C49.9917 18.6056 51.365 18.0515 52.4251 16.9673L54.3284 19.1356C53.6538 19.9548 52.7865 20.5571 51.7505 20.9667C50.7145 21.3763 49.534 21.5931 48.233 21.5931C46.5706 21.5931 45.1009 21.2558 43.8481 20.6053C42.5953 19.9548 41.6075 19.0152 40.9088 17.8587C40.2101 16.6782 39.8728 15.3531 39.8728 13.8593C39.8728 12.3897 40.2101 11.0646 40.8847 9.88403C41.5593 8.70349 42.4748 7.78796 43.6795 7.13746C44.86 6.48695 46.2092 6.14966 47.7029 6.14966C49.1726 6.14966 50.4977 6.46286 51.6541 7.11337C52.8106 7.76387 53.7261 8.67939 54.3766 9.85994C55.0271 11.0405 55.3644 12.3897 55.3644 13.9557C55.3162 14.1725 55.3162 14.5098 55.268 14.9676ZM44.8118 9.9563C44.0408 10.6309 43.559 11.5223 43.3903 12.6306H51.9673C51.8228 11.5464 51.365 10.655 50.5941 9.9804C49.8231 9.3058 48.8594 8.96851 47.7029 8.96851C46.5465 8.94441 45.6069 9.28171 44.8118 9.9563Z" fill="white"/>
<path d="M73.5064 0.415452V21.4002H70.1094V19.4487C69.5311 20.1715 68.8084 20.7015 67.941 21.0629C67.0737 21.4243 66.1341 21.593 65.0981 21.593C63.6525 21.593 62.3515 21.2798 61.171 20.6292C60.0145 19.9787 59.099 19.0873 58.4485 17.9068C57.798 16.7262 57.4607 15.377 57.4607 13.8592C57.4607 12.3413 57.798 10.9922 58.4485 9.81161C59.099 8.63107 60.0145 7.73964 61.171 7.08913C62.3274 6.43863 63.6284 6.12543 65.0981 6.12543C66.0859 6.12543 67.0014 6.29408 67.8447 6.63137C68.6638 6.96867 69.3866 7.47462 69.9648 8.14921V0.391357H73.5064V0.415452ZM67.8206 17.979C68.4952 17.5936 69.0252 17.0394 69.4348 16.3166C69.8203 15.5939 70.0371 14.7747 70.0371 13.8351C70.0371 12.8955 69.8444 12.0522 69.4348 11.3535C69.0493 10.6308 68.4952 10.0766 67.8206 9.69115C67.146 9.30567 66.375 9.11292 65.5318 9.11292C64.6885 9.11292 63.9175 9.30567 63.2429 9.69115C62.5683 10.0766 62.0383 10.6308 61.6287 11.3535C61.2433 12.0763 61.0264 12.8955 61.0264 13.8351C61.0264 14.7747 61.2192 15.618 61.6287 16.3166C62.0142 17.0394 62.5683 17.5936 63.2429 17.979C63.9175 18.3645 64.6885 18.5573 65.5318 18.5573C66.375 18.5573 67.146 18.3645 67.8206 17.979Z" fill="white"/>
<path d="M92.7806 6.29443V21.4006H89.4077V19.4731C88.8535 20.1477 88.1307 20.6778 87.2875 21.0392C86.4442 21.4006 85.5287 21.5933 84.5409 21.5933C82.5171 21.5933 80.927 21.0392 79.7706 19.9068C78.6141 18.7745 78.0359 17.1121 78.0359 14.9196V6.29443H81.5775V14.4378C81.5775 15.787 81.8907 16.7989 82.493 17.4735C83.0954 18.1481 83.9868 18.4853 85.1191 18.4853C86.372 18.4853 87.3839 18.0999 88.1307 17.3048C88.8776 16.5338 89.239 15.4015 89.239 13.9318V6.29443H92.7806Z" fill="white"/>
<g opacity="0.6">
<path d="M99.4059 20.8464C98.5145 20.3645 97.8158 19.6658 97.3099 18.7744C96.8039 17.883 96.563 16.8952 96.563 15.7869C96.563 14.6786 96.8039 13.6908 97.3099 12.7994C97.8158 11.9321 98.5145 11.2334 99.4059 10.7515C100.297 10.2697 101.309 10.0046 102.418 10.0046C103.405 10.0046 104.273 10.1974 105.044 10.5829C105.815 10.9683 106.417 11.5225 106.875 12.2694L105.718 13.0403C105.333 12.4862 104.875 12.0525 104.297 11.7875C103.719 11.4984 103.092 11.3538 102.418 11.3538C101.598 11.3538 100.851 11.5466 100.201 11.908C99.5505 12.2694 99.0445 12.7994 98.6591 13.474C98.2977 14.1486 98.1049 14.9196 98.1049 15.7869C98.1049 16.6542 98.2977 17.4493 98.6591 18.0998C99.0204 18.7744 99.5264 19.2803 100.201 19.6658C100.851 20.0272 101.598 20.2199 102.418 20.2199C103.092 20.2199 103.719 20.0754 104.297 19.8104C104.875 19.5453 105.357 19.1117 105.718 18.5576L106.875 19.3285C106.417 20.0754 105.815 20.6295 105.044 21.015C104.273 21.4005 103.381 21.5932 102.418 21.5932C101.309 21.5932 100.297 21.3523 99.4059 20.8464Z" fill="white"/>
<path d="M109.718 5.45068H111.26V21.4964H109.718V5.45068Z" fill="white"/>
<path d="M117.211 20.8464C116.344 20.3404 115.645 19.6658 115.139 18.7744C114.633 17.907 114.392 16.8952 114.392 15.7869C114.392 14.6786 114.633 13.6908 115.139 12.7994C115.645 11.9321 116.344 11.2334 117.211 10.7515C118.079 10.2697 119.066 10.0046 120.175 10.0046C121.259 10.0046 122.247 10.2456 123.138 10.7515C124.029 11.2334 124.704 11.9321 125.21 12.7994C125.716 13.6667 125.957 14.6786 125.957 15.7869C125.957 16.8952 125.716 17.883 125.21 18.7744C124.704 19.6658 124.029 20.3404 123.138 20.8464C122.271 21.3523 121.283 21.5932 120.175 21.5932C119.09 21.5932 118.103 21.3523 117.211 20.8464ZM122.343 19.6658C122.993 19.3044 123.475 18.7744 123.837 18.0998C124.198 17.4252 124.367 16.6542 124.367 15.7869C124.367 14.9196 124.174 14.1486 123.837 13.474C123.475 12.7994 122.969 12.2694 122.343 11.908C121.717 11.5466 120.97 11.3538 120.175 11.3538C119.38 11.3538 118.633 11.5466 118.006 11.908C117.38 12.2694 116.85 12.7994 116.488 13.474C116.127 14.1486 115.934 14.9196 115.934 15.7869C115.934 16.6542 116.127 17.4252 116.488 18.0998C116.85 18.7744 117.356 19.3044 118.006 19.6658C118.657 20.0272 119.38 20.2199 120.175 20.2199C120.97 20.2199 121.717 20.0513 122.343 19.6658Z" fill="white"/>
<path d="M139.328 10.1011V21.4728H137.859V19.4009C137.449 20.0996 136.895 20.6296 136.196 21.0151C135.498 21.4006 134.678 21.5933 133.763 21.5933C132.269 21.5933 131.113 21.1837 130.245 20.3405C129.378 19.5213 128.969 18.2926 128.969 16.7025V10.1011H130.51V16.5338C130.51 17.7385 130.8 18.6299 131.402 19.2563C131.98 19.8827 132.847 20.1959 133.932 20.1959C135.136 20.1959 136.076 19.8345 136.775 19.1117C137.473 18.389 137.811 17.3771 137.811 16.0761V10.1011H139.328Z" fill="white"/>
<path d="M154 5.45068V21.4964H152.53V19.2558C152.073 20.0268 151.47 20.605 150.699 21.0146C149.952 21.4242 149.085 21.6169 148.145 21.6169C147.085 21.6169 146.122 21.376 145.254 20.87C144.387 20.3641 143.712 19.6895 143.231 18.8221C142.749 17.9548 142.484 16.9429 142.484 15.8106C142.484 14.6782 142.725 13.6904 143.231 12.799C143.712 11.9316 144.387 11.2329 145.254 10.7511C146.122 10.2692 147.085 10.0283 148.145 10.0283C149.061 10.0283 149.904 10.221 150.651 10.6065C151.398 10.992 152 11.5461 152.482 12.293V5.45068H154ZM150.434 19.6654C151.085 19.304 151.591 18.774 151.952 18.0994C152.313 17.4248 152.506 16.6538 152.506 15.7865C152.506 14.9191 152.313 14.1482 151.952 13.4736C151.591 12.799 151.085 12.2689 150.434 11.9075C149.784 11.5461 149.085 11.3534 148.29 11.3534C147.471 11.3534 146.748 11.5461 146.122 11.9075C145.495 12.2689 144.965 12.799 144.604 13.4736C144.242 14.1482 144.05 14.9191 144.05 15.7865C144.05 16.6538 144.242 17.4248 144.604 18.0994C144.965 18.774 145.471 19.304 146.122 19.6654C146.772 20.0268 147.495 20.2195 148.29 20.2195C149.061 20.2195 149.784 20.0509 150.434 19.6654Z" fill="white"/>
</g>
<path d="M45.8725 26.9174V33.4947H45.0292V32.2901C44.7883 32.6997 44.4751 33.0129 44.0655 33.2297C43.6559 33.4465 43.1982 33.567 42.6681 33.567C41.8008 33.567 41.1262 33.3261 40.6443 32.8442C40.1384 32.3624 39.8975 31.6637 39.8975 30.7241V26.8933H40.7889V30.6277C40.7889 31.3264 40.9575 31.8564 41.2948 32.1937C41.6321 32.5551 42.114 32.7237 42.7645 32.7237C43.4632 32.7237 43.9932 32.5069 44.4028 32.0973C44.8124 31.6878 45.0051 31.0854 45.0051 30.3386V26.8933H45.8725V26.9174Z" fill="white"/>
<path d="M53.7026 27.5922C54.1844 28.074 54.4254 28.7727 54.4254 29.6882V33.519H53.5339V29.7846C53.5339 29.11 53.3653 28.58 53.028 28.2186C52.6907 27.8572 52.2088 27.6885 51.5583 27.6885C50.8596 27.6885 50.2814 27.9054 49.8718 28.3149C49.4623 28.7245 49.2454 29.3268 49.2454 30.0737V33.519H48.354V26.9417H49.1972V28.1463C49.4382 27.7367 49.7755 27.4235 50.2091 27.2067C50.6428 26.9898 51.1488 26.8694 51.7029 26.8694C52.5461 26.8694 53.2207 27.1103 53.7026 27.5922Z" fill="white"/>
<path d="M56.8346 25.3034C56.7141 25.1829 56.6418 25.0384 56.6418 24.8457C56.6418 24.677 56.7141 24.5324 56.8346 24.412C56.955 24.2915 57.1237 24.2192 57.2923 24.2192C57.461 24.2192 57.6296 24.2915 57.7501 24.412C57.8706 24.5324 57.9429 24.677 57.9429 24.8457C57.9429 25.0384 57.8706 25.1829 57.7501 25.3034C57.6296 25.4239 57.461 25.4961 57.2923 25.4961C57.1237 25.4961 56.955 25.4239 56.8346 25.3034ZM56.8587 26.9176H57.7501V33.4949H56.8587V26.9176Z" fill="white"/>
<path d="M65.7489 26.917L62.8096 33.4943H61.9181L59.0029 26.917H59.9185L62.3759 32.5306L64.8575 26.917H65.7489Z" fill="white"/>
<path d="M72.5672 30.4829H67.0499C67.0981 31.1575 67.3632 31.7116 67.845 32.1453C68.3269 32.579 68.9292 32.7717 69.652 32.7717C70.0615 32.7717 70.447 32.6994 70.7843 32.5549C71.1216 32.4103 71.4348 32.1935 71.6758 31.9044L72.1817 32.4826C71.8926 32.844 71.5312 33.109 71.0975 33.2777C70.6639 33.4704 70.182 33.5427 69.652 33.5427C68.9774 33.5427 68.3751 33.3981 67.845 33.109C67.315 32.8199 66.9054 32.4103 66.6163 31.9044C66.3272 31.3984 66.1826 30.8202 66.1826 30.1697C66.1826 29.5192 66.3272 28.941 66.5922 28.435C66.8813 27.9291 67.2668 27.5195 67.7486 27.2545C68.2305 26.9654 68.7846 26.8208 69.3869 26.8208C69.9893 26.8208 70.5434 26.9654 71.0252 27.2545C71.5071 27.5436 71.8926 27.9291 72.1576 28.435C72.4226 28.941 72.5672 29.5192 72.5672 30.1697V30.4829ZM67.7727 28.2423C67.3391 28.6518 67.0981 29.1819 67.0499 29.8324H71.7239C71.6758 29.1819 71.4107 28.6518 71.0012 28.2423C70.5675 27.8327 70.0374 27.64 69.3869 27.64C68.7364 27.64 68.2064 27.8327 67.7727 28.2423Z" fill="white"/>
<path d="M76.1813 27.2067C76.5909 26.9898 77.0968 26.8694 77.7232 26.8694V27.7367L77.5064 27.7126C76.8077 27.7126 76.2777 27.9295 75.8681 28.3631C75.4826 28.7968 75.2899 29.375 75.2899 30.146V33.4949H74.3984V26.9176H75.2417V28.2186C75.4585 27.7608 75.7476 27.4476 76.1813 27.2067Z" fill="white"/>
<path d="M79.602 33.3503C79.1201 33.2058 78.7347 33.013 78.4456 32.7721L78.8551 32.0734C79.1201 32.2902 79.4815 32.4589 79.8911 32.6034C80.3007 32.748 80.7344 32.8203 81.1921 32.8203C81.7944 32.8203 82.2281 32.7239 82.5172 32.5312C82.8063 32.3384 82.9509 32.0734 82.9509 31.7361C82.9509 31.4952 82.8786 31.3024 82.71 31.1579C82.5413 31.0133 82.3486 30.917 82.1076 30.8447C81.8667 30.7724 81.5535 30.7001 81.1439 30.6279C80.6139 30.5315 80.1802 30.4351 79.8429 30.3146C79.5056 30.2183 79.2406 30.0255 78.9997 29.7846C78.7588 29.5437 78.6624 29.1823 78.6624 28.7486C78.6624 28.1945 78.9033 27.7367 79.3611 27.3994C79.8188 27.038 80.4693 26.8694 81.2885 26.8694C81.7222 26.8694 82.1317 26.9176 82.5654 27.038C82.9991 27.1585 83.3364 27.3031 83.6255 27.4717L83.24 28.1945C82.6859 27.809 82.0595 27.6403 81.2885 27.6403C80.7103 27.6403 80.3007 27.7367 80.0116 27.9295C79.7225 28.1222 79.5779 28.3872 79.5779 28.7245C79.5779 28.9654 79.6502 29.1823 79.8188 29.3268C79.9875 29.4714 80.1802 29.5919 80.4212 29.6641C80.6621 29.7364 80.9994 29.8087 81.4331 29.881C81.9631 29.9773 82.3727 30.0737 82.71 30.1701C83.0232 30.2665 83.2882 30.4351 83.5291 30.676C83.746 30.917 83.8664 31.2543 83.8664 31.6879C83.8664 32.2662 83.6255 32.7239 83.1436 33.0612C82.6618 33.3985 81.9872 33.5672 81.1439 33.5672C80.5898 33.5672 80.0839 33.4949 79.602 33.3503Z" fill="white"/>
<path d="M85.4811 25.3034C85.3606 25.1829 85.2883 25.0384 85.2883 24.8457C85.2883 24.677 85.3606 24.5324 85.4811 24.412C85.6015 24.2915 85.7702 24.2192 85.9388 24.2192C86.1075 24.2192 86.2761 24.2915 86.3966 24.412C86.5171 24.5324 86.5893 24.677 86.5893 24.8457C86.5893 25.0384 86.5171 25.1829 86.3966 25.3034C86.2761 25.4239 86.1075 25.4961 85.9388 25.4961C85.7702 25.4961 85.6015 25.4239 85.4811 25.3034ZM85.4811 26.9176H86.3725V33.4949H85.4811V26.9176Z" fill="white"/>
<path d="M92.323 33.1096C92.1543 33.2541 91.9375 33.3746 91.6966 33.4469C91.4556 33.5191 91.1906 33.5673 90.9256 33.5673C90.2992 33.5673 89.8414 33.3987 89.5041 33.0614C89.1668 32.7241 88.9982 32.2663 88.9982 31.6399V27.6646H87.8176V26.9177H88.9982V25.4722H89.8896V26.9177H91.8893V27.6646H89.8896V31.5917C89.8896 31.9772 89.986 32.2904 90.1787 32.4832C90.3715 32.7 90.6606 32.7964 91.022 32.7964C91.2147 32.7964 91.3833 32.7723 91.552 32.7C91.7206 32.6518 91.8652 32.5554 91.9857 32.4591L92.323 33.1096Z" fill="white"/>
<path d="M99.3581 26.917L96.0574 34.2894C95.7924 34.9158 95.4792 35.3494 95.1419 35.6145C94.7805 35.8795 94.3709 36 93.8649 36C93.5517 36 93.2626 35.9518 92.9735 35.8554C92.7085 35.759 92.4676 35.6145 92.2507 35.3976L92.6603 34.723C92.9976 35.0603 93.3831 35.229 93.8649 35.229C94.1541 35.229 94.4191 35.1567 94.6359 34.9881C94.8527 34.8194 95.0455 34.5303 95.2382 34.1448L95.5273 33.4943L92.588 26.917H93.5036L95.9851 32.5065L98.4667 26.917H99.3581Z" fill="white"/>
<path d="M16.5035 18.4605L33.007 11.8591L16.5035 4.60718L0 11.5218V17.8823L16.5035 24.9896L33.007 18.3641L27.7066 16.1958L16.5035 20.7493V18.4605Z" fill="white"/>
<path d="M0 20.0752L16.5035 27.2548L27.7066 22.7736L33.007 24.9901L16.5035 31.8084L0 24.9901V20.0752Z" fill="white"/>
</svg>
