<svg width="57" height="43" viewBox="0 0 57 43" fill="none" xmlns="http://www.w3.org/2000/svg">
<g clip-path="url(#clip0_113_105)">
<path d="M17.6375 40.916C18.097 40.2294 18.538 39.5701 19.0099 38.8654C18.4668 38.197 17.9283 37.5362 17.3899 36.8738C17.5539 36.7132 17.7148 36.7662 17.8587 36.7647C18.6107 36.7556 19.3627 36.7647 20.1146 36.7511C25.1309 36.6601 30.1472 36.6404 35.1634 36.6889C39.8841 36.7344 44.4919 33.7713 46.1026 29.2623C47.5787 25.1322 46.7726 21.3507 43.873 18.0254C42.1648 16.0672 39.9368 14.9548 37.3992 14.3894C37.3404 14.3758 37.2785 14.3682 37.2182 14.3637C37.1903 14.3621 37.1594 14.3773 37.1114 14.3909C36.9753 14.7183 37.1346 15.0912 36.9938 15.4883C35.8906 14.3091 34.8199 13.1633 33.7167 11.9811C34.7658 10.8535 35.7839 9.75917 36.8499 8.61487C36.8855 9.15292 36.8438 9.62125 37.0109 10.0759C37.3373 10.2139 37.6808 10.1517 38.0104 10.1805C40.5557 10.3973 42.776 11.3824 44.7534 12.9238C47.0589 14.7198 48.9109 16.8781 50.0745 19.5502C51.399 22.5905 51.5181 25.7248 50.7507 28.9152C50.2199 31.1205 49.3303 33.1666 47.9222 34.9808C46.0732 37.3649 43.6286 38.9245 40.7939 39.9688C38.6618 40.7538 36.4554 40.9933 34.1995 40.9903C29.7805 40.9857 25.3614 40.9994 20.9424 41.0054C20.0373 41.0054 19.1321 41.007 18.227 41.0054C18.0614 41.0054 17.8897 41.0342 17.6359 40.916H17.6375Z" fill="#F05157"/>
<path d="M22.2468 34.7413C19.0888 30.0595 18.08 25.0777 20.2492 19.7548C22.5237 14.1757 27.082 11.3733 32.8951 10.2032C32.5083 10.9671 31.8708 11.5537 31.3834 12.2827C31.9915 12.9784 32.7543 13.5195 33.384 14.2106C33.2386 14.3591 33.0637 14.3591 32.909 14.3985C31.535 14.7456 30.2183 15.2276 28.9929 15.9369C26.8979 17.1509 25.3877 18.859 24.5058 21.0809C23.5465 23.4953 23.2478 25.9673 23.9704 28.4984C24.4903 30.3217 25.5301 31.848 26.8499 33.2075C27.3559 33.7304 27.9082 34.2063 28.5395 34.7398H22.2483L22.2468 34.7413Z" fill="#FCB415"/>
<path d="M52.8178 36.6859C53.0266 36.2509 52.9756 35.7992 52.9013 35.2172C54.1685 36.4024 55.3909 37.5483 56.5931 38.6729C55.3414 39.8687 54.1035 41.0524 52.8936 42.2088C52.9415 41.9072 52.9911 41.4707 52.7775 41.0191H43.7461C44.1205 40.5128 44.611 40.187 45.0628 39.8217C46.1521 38.9442 47.2661 38.0969 48.3492 37.2118C48.7283 36.9011 49.1585 36.8875 49.5979 36.8677C50.5618 36.8253 51.5304 36.8829 52.4928 36.7753C52.598 36.7632 52.7094 36.7783 52.8178 36.6859Z" fill="#3CC1CF"/>
<path fill-rule="evenodd" clip-rule="evenodd" d="M21.7625 35.5067L23.0019 35.5128C22.7063 35.6795 22.1632 35.6189 21.7625 35.6189V35.5052V35.5067ZM21.4236 35.3976C21.5319 35.2915 21.7842 35.537 21.5567 35.4567C21.5536 35.4567 21.272 35.5461 21.4236 35.3976ZM18.3616 34.6201C18.3724 34.6095 18.3956 34.6368 18.3956 34.6534C18.3956 34.6595 18.4095 34.6671 18.4095 34.6671C18.4065 34.664 18.21 34.7701 18.3616 34.6201ZM18.0227 34.511C18.0336 34.5003 18.0568 34.5276 18.0568 34.5443C18.0568 34.5504 18.0707 34.5579 18.0707 34.5579C18.0676 34.5549 17.8711 34.661 18.0227 34.511ZM17.6839 34.4018C17.7922 34.2957 18.0444 34.5413 17.8169 34.4609C17.8138 34.4609 17.5322 34.5504 17.6839 34.4018ZM21.1993 34.2927C21.2101 34.2821 21.2333 34.3094 21.2333 34.326C21.2333 34.3321 21.2472 34.3397 21.2472 34.3397C21.2442 34.3367 21.0476 34.4428 21.1993 34.2927ZM20.6221 34.2654L20.2926 34.2988C20.3529 34.2548 20.2477 34.0623 20.6221 34.2654ZM19.8377 34.0729C19.946 33.9668 20.1936 34.2124 19.9707 34.132C19.9677 34.132 19.6861 34.2215 19.8377 34.0729ZM26.4151 33.9638C26.5235 33.8577 26.771 34.1033 26.5482 34.0229C26.5451 34.0229 26.2635 34.1123 26.4151 33.9638ZM19.2714 33.9638C19.3797 33.8577 19.6273 34.1033 19.4044 34.0229C19.4014 34.0229 19.1167 34.1123 19.2714 33.9638ZM26.8669 33.8547C26.8778 33.8441 26.901 33.8714 26.901 33.888C26.901 33.8941 26.9149 33.9017 26.9149 33.9017C26.9118 33.8986 26.7153 34.0047 26.8669 33.8547ZM27.3218 33.7456C27.3327 33.735 27.3559 33.7622 27.3559 33.7789C27.3559 33.785 27.3698 33.7925 27.3698 33.7925C27.3667 33.7895 27.1702 33.8956 27.3218 33.7456ZM18.4776 33.7456C18.5859 33.6395 18.8381 33.885 18.6107 33.8047C18.6076 33.8047 18.326 33.8941 18.4776 33.7456ZM26.6395 33.7456C26.8437 33.6198 26.6998 33.5334 27.0836 33.7153L26.6395 33.7456ZM27.2058 33.5228C27.2166 33.5122 27.2398 33.5394 27.2398 33.5561C27.2398 33.5622 27.2538 33.5698 27.2538 33.5698C27.2507 33.5667 27.0542 33.6728 27.2058 33.5228ZM17.9098 33.5228C17.9206 33.5122 17.9438 33.5394 17.9438 33.5561C17.9438 33.5622 17.9577 33.5698 17.9577 33.5698C17.9547 33.5667 17.7581 33.6728 17.9098 33.5228ZM26.0716 33.5228C26.2759 33.397 26.132 33.3106 26.5157 33.4925L26.0716 33.5228ZM26.641 33.3045C26.6519 33.2939 26.6751 33.3212 26.6751 33.3379C26.6751 33.3439 26.689 33.3515 26.689 33.3515C26.6859 33.3485 26.4894 33.4546 26.641 33.3045ZM20.9625 33.3348L20.633 33.4318C20.7924 33.2954 20.4195 33.3121 20.9625 33.3348ZM20.1796 33.1954C20.1905 33.1848 20.2137 33.2121 20.2137 33.2287C20.2137 33.2348 20.2276 33.2424 20.2276 33.2424C20.2245 33.2393 20.028 33.3454 20.1796 33.1954ZM19.8392 33.0817C19.8501 33.0711 19.8733 33.0984 19.8733 33.1151C19.8733 33.1211 19.8872 33.1287 19.8872 33.1287C19.8841 33.1257 19.6876 33.2318 19.8392 33.0817ZM19.3843 32.9726C19.3952 32.962 19.4184 32.9893 19.4184 33.0059C19.4184 33.012 19.4323 33.0196 19.4323 33.0196C19.4292 33.0165 19.2327 33.1226 19.3843 32.9726ZM28.114 32.527C28.1249 32.5164 28.1481 32.5437 28.1481 32.5603C28.1481 32.5664 28.162 32.574 28.162 32.574C28.1589 32.5709 27.9624 32.677 28.114 32.527ZM28.3415 32.4179C28.3523 32.4073 28.3755 32.4345 28.3755 32.4512C28.3755 32.4573 28.3895 32.4649 28.3895 32.4649C28.3864 32.4618 28.1899 32.5679 28.3415 32.4179ZM28.5689 32.3087C28.5798 32.2981 28.603 32.3254 28.603 32.3421C28.603 32.3482 28.6169 32.3557 28.6169 32.3557C28.6138 32.3527 28.4173 32.4588 28.5689 32.3087ZM29.2513 32.0905L29.2822 31.9874L29.3673 32.0511L29.2559 32.0875L29.2528 32.0905H29.2513ZM29.5901 31.8677L29.5592 31.9708L29.4741 31.9071L29.5855 31.8707L29.5886 31.8677H29.5901ZM30.1564 31.5403C30.3328 31.2948 30.5541 31.172 30.8357 31.0947C30.6083 31.4342 30.5541 31.4433 30.1564 31.5403ZM17.345 34.32C15.9912 34.2033 12.9368 31.9026 12.2437 30.8765C12.5732 30.9629 14.1267 32.4057 14.6466 32.7452C15.0953 33.0378 15.5022 33.2833 15.9633 33.5667C16.3981 33.832 16.9953 34.0184 17.3481 34.3215H17.345V34.32ZM30.8357 31.0993C31.0492 30.7764 30.9548 30.8537 31.2906 30.7673C31.0771 31.0902 31.1715 31.0129 30.8357 31.0993ZM31.2921 30.7673L31.747 30.3218C31.6728 30.6779 31.6248 30.681 31.2921 30.7673ZM25.7359 30.4354L25.708 30.5385L25.6229 30.4748L25.7343 30.4385V30.4354H25.7359ZM11.9017 30.5445L11.7965 30.5142L11.8615 30.4309L11.8986 30.54L11.9017 30.543V30.5445ZM31.747 30.3263L31.778 30.2232L31.8631 30.2869L31.7517 30.3233L31.7486 30.3263H31.747ZM33.9024 27.8831C33.9132 27.8725 33.9364 27.8998 33.9364 27.9164C33.9364 27.9225 33.9504 27.9301 33.9504 27.9301C33.9473 27.9271 33.7508 28.0331 33.9024 27.8831ZM34.2413 27.5512L34.2134 27.6542L34.1283 27.5906L34.2397 27.5542V27.5512H34.2413ZM9.52201 26.7737C9.53284 26.763 9.55605 26.7903 9.55605 26.807C9.55605 26.8131 9.56998 26.8206 9.56998 26.8206C9.56688 26.8176 9.37038 26.9237 9.52201 26.7737ZM35.2563 25.3277C35.2671 25.3171 35.2903 25.3444 35.2903 25.3611C35.2903 25.3671 35.3042 25.3747 35.3042 25.3747C35.3011 25.3717 35.1046 25.4778 35.2563 25.3277ZM35.3677 25.1049C35.3677 24.8488 35.5069 25.0852 35.4388 25.1049C35.4388 25.1049 35.3677 25.3914 35.3677 25.1049ZM35.4791 24.6593C35.4899 24.6487 35.5131 24.676 35.5131 24.6927C35.5131 24.6988 35.527 24.7063 35.527 24.7063C35.5239 24.7033 35.3274 24.8094 35.4791 24.6593ZM35.7065 23.991C35.7065 23.7348 35.8458 23.9713 35.7777 23.991C35.7777 23.991 35.7065 24.2774 35.7065 23.991ZM35.8179 23.4362C35.8288 23.4256 35.852 23.4529 35.852 23.4696C35.852 23.4756 35.8659 23.4832 35.8659 23.4832C35.8628 23.4802 35.6663 23.5863 35.8179 23.4362ZM35.9169 22.8845C36.0423 23.024 36.033 22.7284 36.0191 23.2074L35.9169 22.8845ZM36.0763 22.7618C36.0485 22.5223 36.1924 20.2155 36.2465 20.1125C36.3239 20.8142 36.4028 22.2237 36.0763 22.7618ZM26.7494 30.105L26.4105 30.2141C26.3393 30.5536 26.0747 30.2172 26.0716 30.2141C25.4914 30.2141 25.2439 30.3733 24.707 30.4339C24.235 30.487 23.5836 30.5067 23.1458 30.5733C22.3891 30.687 20.7289 30.7067 20.1734 30.3278C19.0981 30.2354 17.3868 29.1305 16.7926 29.1244C16.8948 29.72 17.4301 30.2581 17.7829 30.7431C15.9881 30.9356 14.4439 28.9046 13.1736 28.0043L13.3531 28.5257C12.8208 28.4454 12.8579 28.0498 12.4634 27.774L12.2808 27.8907L11.8259 27.4345C11.9481 28.5848 14.4392 30.7552 15.3924 31.46C16.6952 32.4239 19.4988 33.5546 21.0801 33.5546C21.3447 33.2151 21.3819 33.5485 21.7718 33.6546C21.8166 33.6683 21.993 33.6849 22.0704 33.6986C23.5976 33.9684 24.9344 33.5561 26.0686 33.5561C25.4481 33.979 24.4083 33.9411 23.5836 34.0275C24.4424 34.42 25.7312 33.7941 26.6349 33.7774C25.2439 34.7247 20.961 34.3124 18.8521 33.6243C18.3832 33.4712 16.9721 32.8392 16.6658 32.8059L17.1098 33.2212C15.2732 32.7862 12.779 30.3627 11.7006 28.9653C11.0554 28.1301 10.322 26.9677 9.90109 25.9507C9.48024 24.9306 8.83502 23.2483 8.83502 22.1343L8.49617 22.104C8.64626 22.7224 8.67256 23.4711 8.92786 24.4638C9.10425 25.1519 9.32087 26.0204 9.61949 26.6342C9.22648 26.5372 8.91703 25.5702 8.75766 25.1853C8.63542 24.8867 8.56116 24.6396 8.45285 24.3714C8.29967 23.9864 8.24242 23.7803 7.92058 23.653C7.58173 24.2547 7.86952 25.1125 8.05674 25.6506C9.54367 29.9322 12.9616 33.8289 17.2955 35.2657C19.1863 35.8902 19.9568 36.0008 21.9899 36.0008C24.8106 36.0008 28.34 35.243 30.6748 33.8471C34.0215 31.8419 36.2202 27.6967 36.8546 23.9C37.1223 22.298 37.1223 20.5884 36.8546 18.9833C35.9247 13.4255 32.0178 9.39542 26.6256 7.67366C25.397 7.28111 23.2927 6.82642 22.0193 6.89917C21.7099 6.49753 21.4701 5.8746 21.0662 5.34716C20.2384 4.26652 18.1403 2.2189 16.8917 2.10522C17.1021 2.39471 17.9268 2.77968 18.2796 3.07978C19.1584 3.82395 21.467 6.0292 21.6325 6.86583C20.8217 6.92948 19.5731 6.7764 18.9418 7.07801C19.8485 7.17501 20.6995 6.90523 21.7377 7.02497C22.0905 7.33112 21.9373 7.33719 22.1926 7.54331L22.0936 7.02497C22.4495 7.07195 22.7651 7.08105 23.1055 7.13106C23.4552 7.18411 23.7337 7.30991 24.1298 7.35083C24.0648 7.7267 23.9163 7.57969 25.1758 8.04196C24.5615 8.13441 23.1705 7.79642 22.451 7.76914C22.1122 7.7555 20.1982 7.8131 20.0992 8.4148C20.7537 8.87707 24.1035 8.56788 25.3908 9.19232C24.871 9.2484 24.447 9.13321 23.924 9.11199C23.398 9.09229 23.0792 8.98165 22.4479 8.99529C21.9358 9.0059 20.127 9.19535 19.8547 9.52728C20.8929 9.64095 21.3819 9.46362 23.1427 9.65762C24.2428 9.77736 24.8772 9.67429 25.9664 10.223C26.4724 10.4791 26.6178 10.373 26.9907 10.5518C27.2723 10.6883 28.5659 11.44 28.7422 11.6128C30.7382 13.574 31.7393 14.2727 32.8348 17.0448C33.005 17.4768 33.2525 17.6905 33.3376 17.9997L33.4769 20.3534C33.3547 21.1279 33.463 21.9964 33.2727 22.827C33.0251 23.9076 32.383 25.6597 31.5954 26.5175C31.6155 26.854 31.5846 26.4251 31.7285 26.8707C31.0833 27.1238 30.1704 28.2135 29.5128 28.6985C29.0068 29.0714 28.9093 29.3275 28.3353 29.5427C27.9036 29.7019 27.1779 30.0777 26.7602 30.1111L26.7463 30.105H26.7494Z" fill="#415970"/>
<path fill-rule="evenodd" clip-rule="evenodd" d="M9.86086 21.7222C9.96917 21.6161 10.2167 21.8616 9.99393 21.7813C9.99083 21.7813 9.70923 21.8707 9.86086 21.7222ZM9.17851 21.613L9.51118 21.6297C9.13829 21.8298 9.31158 21.6964 9.17851 21.613ZM9.17851 21.613L8.84585 21.5964C9.21874 21.3963 9.04545 21.5297 9.17851 21.613ZM8.61221 21.3902C8.62304 21.3796 8.64625 21.4069 8.64625 21.4236C8.64625 21.4296 8.66018 21.4372 8.66018 21.4372C8.65708 21.4342 8.46058 21.5403 8.61221 21.3902ZM6.00506 20.0565L6.11027 20.0838L6.04529 20.1671L6.00815 20.058H6.00506V20.0565ZM6.00506 20.0565L5.89984 20.0262L5.96483 19.9428L6.00196 20.0519L6.00506 20.055V20.0565ZM5.55016 19.7246L5.65537 19.7518L5.59039 19.8352L5.55325 19.7261H5.55016V19.7246ZM5.43876 19.6154L5.33354 19.5851L5.39853 19.5018L5.43566 19.6109L5.43876 19.6139V19.6154ZM3.172 16.9494L3.27722 16.9767L3.21223 17.0601L3.1751 16.9509H3.172V16.9494ZM3.172 16.9494L3.06679 16.9191L3.13177 16.8358L3.16891 16.9449L3.172 16.9479V16.9494ZM2.94455 16.6175L3.04977 16.6448L2.98478 16.7281L2.94765 16.619H2.94455V16.6175ZM2.7171 16.1719C2.72793 16.1613 2.75114 16.1886 2.75114 16.2053C2.75114 16.2113 2.76507 16.2189 2.76507 16.2189C2.76197 16.2159 2.56547 16.322 2.7171 16.1719ZM2.6057 15.9491C2.61653 15.9385 2.63974 15.9658 2.63974 15.9825C2.63974 15.9885 2.65366 15.9961 2.65366 15.9961C2.65057 15.9931 2.45407 16.0992 2.6057 15.9491ZM2.4943 15.7263C2.4943 15.4702 2.63355 15.7066 2.56547 15.7263C2.56547 15.7263 2.4943 16.0158 2.4943 15.7263ZM2.38289 15.3944C2.39372 15.3838 2.41693 15.4111 2.41693 15.4277C2.41693 15.4338 2.43086 15.4414 2.43086 15.4414C2.42776 15.4383 2.23126 15.5444 2.38289 15.3944ZM21.6573 15.1716L21.6263 15.2747L21.5412 15.211L21.6526 15.1746L21.6557 15.1716H21.6573ZM2.27149 15.0625C2.28232 15.0519 2.30553 15.0791 2.30553 15.0958C2.30553 15.1019 2.31945 15.1095 2.31945 15.1095C2.31636 15.1064 2.11985 15.2125 2.27149 15.0625ZM4.19939 12.9512L4.18237 13.2771C3.97813 12.9118 4.11429 13.0815 4.19939 12.9512ZM1.33539 10.9596L1.36324 12.7178C1.16983 12.3646 1.16364 11.3022 1.33539 10.9596ZM3.97194 12.5056C3.98277 12.495 4.00598 12.5223 4.00598 12.5389C4.00598 12.545 4.01991 12.5526 4.01991 12.5526C4.01681 12.5495 3.82031 12.6556 3.97194 12.5056ZM0.453442 9.28336C0.453442 9.02722 0.592696 9.26366 0.524616 9.28336C0.524616 9.28336 0.453442 9.56981 0.453442 9.28336ZM0.564846 8.83776C0.575676 8.82715 0.598885 8.85443 0.598885 8.87111C0.598885 8.87717 0.612811 8.88475 0.612811 8.88475C0.609716 8.88172 0.413213 8.98781 0.564846 8.83776ZM4.98695 8.39217L4.95601 8.49523L4.87091 8.43157L4.98231 8.3952L4.9854 8.39217H4.98695ZM3.05905 5.8353L3.0281 5.93836L2.943 5.8747L3.05441 5.83833L3.0575 5.8353H3.05905ZM3.05905 5.8353L3.0869 5.73223L3.172 5.79589L3.0606 5.83226V5.8353H3.05905ZM2.15235 5.72617C2.16318 5.71556 2.18639 5.74284 2.18639 5.75951C2.18639 5.76558 2.20031 5.77315 2.20031 5.77315C2.19722 5.77012 2.00072 5.87622 2.15235 5.72617ZM2.4912 5.39425L2.46025 5.49731L2.37515 5.43365L2.48656 5.39728L2.48965 5.39425H2.4912ZM2.93682 4.84407C3.0281 4.51821 2.95074 4.61066 3.27567 4.39848C3.18438 4.72434 3.26174 4.63188 2.93682 4.84407ZM3.50312 4.17568L3.49229 4.37877L3.27876 4.39848L3.50621 4.17568H3.50312ZM3.73057 3.95288L3.71974 4.15597L3.50621 4.17568L3.73366 3.95288H3.73057ZM3.73057 3.95288C3.94718 3.63005 4.26283 3.27539 4.63727 3.17536C4.42065 3.49819 4.10501 3.85285 3.73057 3.95288ZM4.63727 3.17536C4.86162 2.84647 5.16025 2.61003 5.54397 2.50697C5.36449 2.77675 4.93589 3.09503 4.63727 3.17536ZM5.54397 2.50697L5.57182 2.4039L5.65692 2.46756L5.54552 2.50394V2.50697H5.54397ZM8.49307 22.0617L8.83193 22.092C9.37192 22.5633 12.6398 22.6831 13.3654 22.3451H13.4768C15.1634 22.5406 18.9341 20.2868 20.2338 18.5757C21.8692 16.425 23.2278 13.9212 23.2278 11.0627C23.0885 11.2749 22.9353 12.5056 22.8409 12.9072C22.6584 13.6787 22.6166 13.9182 22.2468 14.6593L21.9451 14.6699L21.6433 15.1792C21.6913 14.6411 22.0039 14.0394 22.1245 13.4301C22.2638 12.742 22.4371 12.1737 22.0967 11.5113C21.4716 11.9463 21.4283 14.2076 20.8511 14.8457C20.8713 13.8515 21.6898 12.2798 21.2318 11.3082C20.961 11.6674 20.9053 12.4753 20.7877 13.0042C20.6655 13.5499 20.4922 14.1046 20.3019 14.6396C19.6365 16.5008 17.8216 18.1301 16.019 18.9986C14.3696 19.7928 13.2772 19.6533 12.7001 20.0792C11.5397 19.77 11.241 19.9125 11.0105 19.8898C10.7892 19.867 10.8681 19.8034 10.5355 19.77C9.91502 19.7867 10.2802 19.77 10.0914 19.6276C9.84694 19.6276 10.0543 19.6579 9.96917 19.5184C9.65353 19.6382 8.94488 19.3456 8.60757 19.1729L8.23158 18.9637C7.55233 18.5712 6.96282 18.2817 6.47388 17.7163C6.21239 17.4132 6.25262 17.4511 5.90758 17.4996C5.74821 16.619 4.11274 15.0822 4.1963 13.6363C4.2195 13.2301 4.4779 13.3377 4.18546 12.9618C4.18546 11.6159 4.2195 9.88052 4.75177 8.73925L5.09062 8.40732H4.97922L5.09062 8.18453L5.20202 7.96173L5.42947 7.6298C5.5579 7.16754 6.03755 6.5628 6.45067 6.29605L6.38259 6.05355C5.63216 6.10356 5.56408 6.40972 4.99778 6.50217C5.19738 5.30482 6.85142 4.32724 7.7937 3.59368L7.36202 3.47394L8.26872 2.96469L8.04127 2.91164L8.26872 2.85253L8.49307 2.55395C6.82047 2.7328 4.71618 4.58793 3.63928 5.9808C1.67733 8.52403 1.64329 11.8857 1.49785 12.1782L1.46691 10.8551C1.09092 10.5762 1.89395 8.45128 2.07808 8.00871C2.33957 7.37366 3.30661 5.94442 3.39481 5.6322L3.18128 5.58825C4.53515 4.20144 5.22368 3.22841 7.39915 2.22051C8.33216 1.79159 9.2729 1.53848 10.2662 1.36266C12.2081 1.02013 12.3566 1.29901 13.9348 1.15957C13.2293 0.770052 11.3896 0.806427 10.5138 0.936772C10.2523 0.976178 9.4988 1.06257 9.29611 1.05044C9.86241 0.738224 11.5768 0.688208 11.9234 0.295659C11.2859 -0.425782 8.47141 0.388113 7.66683 0.70488C4.31853 2.03257 2.10283 3.8771 0.713384 7.21149C-0.552286 10.2594 -0.120596 15.7157 1.89859 17.877C2.94455 18.994 3.39481 19.5487 4.73939 20.4263C5.70334 21.0553 7.40379 21.9919 8.5039 22.0647L8.49771 22.0586L8.49307 22.0617Z" fill="#229BB5"/>
<path fill-rule="evenodd" clip-rule="evenodd" d="M8.23462 18.9469L8.61061 19.1561C8.62763 18.4346 9.21868 16.7553 9.50029 16.0415C10.1207 14.4849 11.4994 12.3812 12.7171 11.1945C13.1039 10.8156 14.6388 9.453 14.8446 9.16655C13.517 9.28325 11.3926 11.9553 10.6267 13.142C10.1037 13.9529 9.54671 15.0472 9.28986 15.9414C9.13668 16.4734 8.56419 18.7302 8.23462 18.9439V18.9469ZM10.0944 19.6123C10.2848 19.7593 9.91805 19.7714 10.5385 19.7548C10.7149 18.9333 10.8542 18.086 11.1187 17.2873C11.3323 16.6356 11.8754 15.7217 12.0146 15.1624C11.1698 15.7535 10.4256 18.4043 10.4256 19.3849C10.3095 19.7669 10.5308 19.4986 10.096 19.6077L10.0929 19.6108L10.0944 19.6123ZM11.2209 27.2814C10.9501 26.181 10.376 25.7688 9.87009 23.1589C9.82522 22.933 9.88092 23.0331 9.79582 22.7906C9.63954 22.3344 9.75868 22.6769 9.63335 22.5041C9.41209 22.877 9.9459 24.7078 10.0852 25.064C10.2786 25.5596 10.7938 26.9858 11.2224 27.2844V27.2814H11.2209ZM18.0134 4.58176C17.1655 3.43139 14.5011 2.29467 13.0544 2.40683L13.7398 2.58567C16.3965 3.20405 17.6157 4.5272 18.0134 4.58327V4.58024V4.58176ZM8.9541 2.05217L11.767 1.74601C11.9496 1.75965 12.0316 1.97942 12.5809 1.60657C11.4978 1.60657 9.73393 1.52018 8.95255 2.05217H8.9541Z" fill="#415970"/>
<path fill-rule="evenodd" clip-rule="evenodd" d="M16.4352 1.82936C16.0376 1.2807 14.7456 0.895731 14.0632 0.968482C14.1375 1.02456 16.1985 1.77328 16.4352 1.82936Z" fill="#229BB5"/>
<path fill-rule="evenodd" clip-rule="evenodd" d="M17.9112 29.1698L16.2247 27.8634C16.35 28.5878 17.1747 28.994 17.9112 29.1698ZM9.97217 19.5016C10.0836 19.3319 10.2058 18.4649 10.2878 18.1451C10.4039 17.6965 10.6096 17.2843 10.6514 16.8356C10.1965 17.3373 9.97217 18.7499 9.97217 19.5016Z" fill="#415970"/>
<path fill-rule="evenodd" clip-rule="evenodd" d="M6.45995 6.27319L6.12109 6.94159L7.36974 5.83063C6.77559 5.88064 6.88854 6.00038 6.46304 6.27622L6.45995 6.27319Z" fill="#229BB5"/>
<path fill-rule="evenodd" clip-rule="evenodd" d="M14.1669 25.1701C14.2009 25.5551 14.2783 25.7915 14.5057 26.078C14.6883 25.7582 14.4825 25.3899 14.1669 25.1701ZM13.4876 22.3374H13.3762C13.2308 22.736 13.1766 22.9285 13.5928 23.0285L13.4876 22.3374ZM13.5155 18.6014C13.7228 18.3286 13.8033 17.933 13.8079 17.6314C13.5774 17.9012 13.4752 18.1664 13.5155 18.6014ZM9.07016 4.74092C9.14133 4.894 8.91079 5.05011 9.43995 4.88793C9.57921 4.84398 9.77262 4.69848 9.84998 4.6424L9.07016 4.74546V4.74243V4.74092ZM26.0731 30.1702H26.412L26.7508 30.0611V29.9519C26.3068 29.9626 26.378 29.905 26.0716 30.1747V30.1717L26.0731 30.1702ZM20.178 30.2793L20.735 30.2687L19.9506 30.0596L20.178 30.2793ZM15.5285 5.38506C15.284 5.17287 15.2732 5.10315 14.9715 5.24562L15.5285 5.38506ZM19.9506 30.0596L19.2713 29.8368C19.5761 30.102 19.5096 30.0489 19.9506 30.0596ZM11.4452 4.49842L12.1214 4.46507L11.4452 4.38171V4.49842ZM18.7019 7.49785C18.23 7.49785 18.4807 7.45844 18.247 7.60698C18.719 7.60395 18.4683 7.64638 18.7019 7.49785ZM14.9622 2.38866C14.7285 2.23861 14.9792 2.27953 14.5073 2.27953C14.7409 2.42958 14.4903 2.38866 14.9622 2.38866ZM10.6546 16.8341L10.882 16.3916L10.6747 16.5174L10.6546 16.8326V16.8341ZM14.5073 2.27498C14.3912 2.20223 14.5521 2.05825 14.1777 2.2477L14.5073 2.27498ZM8.27331 2.27498C8.38162 2.38108 8.62918 2.13554 8.40638 2.21587C8.40328 2.21587 8.11858 2.12645 8.27331 2.27498ZM8.95566 2.05219L8.62299 2.06886C8.99589 2.26892 8.82259 2.13554 8.95566 2.05219ZM5.09985 8.38904L5.21126 8.16624H5.09985V8.38904ZM5.21126 8.16624L5.3273 7.94345H5.21126V8.16624ZM5.43871 7.83432L5.55011 7.61152H5.43871V7.83432ZM8.27331 2.83122V2.94489L8.50076 2.89185L8.27331 2.83274V2.83122ZM22.8161 10.4912L22.9152 10.0593C22.8842 10.082 22.8579 10.0866 22.8548 10.126L22.8177 10.4912H22.8161ZM11.4468 27.7285L11.4777 27.8285L11.5628 27.7649L11.4468 27.7285ZM5.8936 7.16441L5.78839 7.19473L5.85338 7.27505L5.8936 7.16593V7.16441ZM12.0162 15.1669L12.1183 15.1366L12.0533 15.0563L12.0162 15.1654V15.1669ZM14.1684 25.1701L14.1406 25.0671L14.0555 25.1307L14.1669 25.1701H14.1684ZM18.0242 7.71913L17.9221 7.74945L17.9871 7.82977L18.0242 7.72065V7.71913ZM10.995 16.0536L11.0971 16.0263L11.0321 15.943L10.995 16.0521V16.0536ZM18.5905 29.5048L18.6215 29.6049L18.7035 29.5412L18.5921 29.5048H18.5905ZM15.7559 5.49873L15.7869 5.59876L15.8689 5.53511L15.7575 5.49873H15.7559ZM5.66616 7.49634L5.76828 7.46905L5.70329 7.38569L5.66616 7.49482V7.49634ZM26.7524 29.9474L26.8576 29.9201L26.7926 29.8368L26.7524 29.9459V29.9474ZM11.4452 27.727L11.4174 27.6239L11.3323 27.6876L11.4437 27.727H11.4452ZM17.4564 3.7209L17.4873 3.82093L17.5693 3.75727L17.4579 3.7209H17.4564Z" fill="#415970"/>
<path fill-rule="evenodd" clip-rule="evenodd" d="M7.36662 5.83216L7.47184 5.80184L7.40376 5.72152L7.36662 5.83064V5.83216ZM3.39941 5.60936L3.50153 5.57905L3.43655 5.49872L3.39941 5.60784V5.60936Z" fill="#229BB5"/>
<path fill-rule="evenodd" clip-rule="evenodd" d="M11.1063 15.8354C11.1171 15.846 11.1404 15.7884 11.1404 15.802C11.1404 15.8081 11.1543 15.7884 11.1543 15.7884C11.1512 15.7914 10.9547 15.6853 11.1063 15.8354ZM13.828 17.501C13.8388 17.5116 13.862 17.454 13.862 17.4677C13.862 17.4738 13.8759 17.454 13.8759 17.454C13.8728 17.4571 13.6763 17.351 13.828 17.501ZM1.47144 10.3867C1.48227 10.3973 1.50548 10.3397 1.50548 10.3533C1.50548 10.3594 1.51941 10.3397 1.51941 10.3397C1.51631 10.3427 1.31981 10.2366 1.47144 10.3867Z" fill="#415970"/>
</g>
<defs>
<clipPath id="clip0_113_105">
<rect width="57" height="43" fill="white"/>
</clipPath>
</defs>
</svg>
