<svg width="52" height="46" viewBox="0 0 52 46" fill="none" xmlns="http://www.w3.org/2000/svg">
<path d="M25.9074 45.1545C40.2157 45.1545 51.8149 35.0463 51.8149 22.5773C51.8149 10.1082 40.2157 0 25.9074 0C11.5992 0 0 10.1082 0 22.5773C0 35.0463 11.5992 45.1545 25.9074 45.1545Z" fill="#F99C40"/>
<path d="M21.557 14.8302C21.498 14.8693 21.4192 14.8888 21.3208 14.9083L19.8246 15.0059L18.8009 15.0839L18.2694 15.123C18.23 15.123 18.1906 15.1034 18.1513 15.0449C18.1119 14.9864 18.0922 14.9473 18.0922 14.8888C18.0922 14.8498 18.1119 14.8302 18.1316 14.8107C18.1513 14.7912 18.1906 14.7717 18.2103 14.7717C18.2497 14.7717 18.2694 14.7522 18.2694 14.7522C18.2694 14.479 18.2694 13.8155 18.2694 12.7813C18.2694 12.0203 18.23 11.4349 18.1709 11.0056C18.1119 10.5763 18.0725 10.3616 18.0725 10.3226C18.0725 10.2445 18.1119 10.186 18.1709 10.147C18.23 10.108 18.2891 10.0884 18.3481 10.0884C18.3875 10.0884 18.4269 10.108 18.4466 10.1275C18.4662 10.147 18.4859 10.2055 18.5056 10.2641C18.5647 10.4397 18.604 10.7714 18.6434 11.2397C18.6828 11.7081 18.6828 12.2154 18.6828 12.7228C18.6828 13.1716 18.6828 13.5619 18.6828 13.9521C18.6828 14.3229 18.6828 14.5766 18.6828 14.7132C18.7615 14.7132 18.8993 14.6937 19.1159 14.6937C19.3324 14.6741 19.549 14.6741 19.7655 14.6546C20.1002 14.6156 20.4743 14.5571 20.9074 14.4985C21.242 14.44 21.4586 14.4205 21.5176 14.4205C21.5767 14.4205 21.6161 14.44 21.6358 14.4985C21.6555 14.5571 21.6555 14.6156 21.6555 14.6937C21.6555 14.7327 21.6161 14.7912 21.557 14.8302Z" fill="white" stroke="white" stroke-width="0.957029" stroke-miterlimit="10"/>
<path d="M25.7304 13.3667C25.7304 13.4643 25.6517 13.6594 25.4942 13.9912C25.3367 14.3034 25.1004 14.5961 24.8051 14.8693C24.4902 15.1425 24.1161 15.2791 23.6633 15.2791C23.2893 15.2791 22.994 15.1815 22.7381 14.9669C22.4821 14.7522 22.364 14.44 22.364 14.0107C22.364 13.6009 22.4624 13.1911 22.679 12.8008C22.8955 12.4106 23.1515 12.0788 23.4861 11.8252C23.8208 11.5715 24.1752 11.4544 24.5295 11.4544C24.7461 11.4544 24.9233 11.4934 25.0611 11.591C25.1989 11.6691 25.2776 11.8057 25.2776 11.9618C25.2776 12.1374 25.1595 12.313 24.9429 12.4886C24.7067 12.6643 24.4114 12.8204 24.0571 12.9374C23.7027 13.074 23.309 13.1716 22.9349 13.2106C22.8562 13.4448 22.8365 13.679 22.8365 13.9131C22.8365 14.2253 22.9152 14.4595 23.0727 14.6156C23.2302 14.7912 23.4665 14.8693 23.7618 14.8693C24.2145 14.8693 24.5689 14.7327 24.8445 14.44C25.1201 14.1473 25.3564 13.8351 25.5335 13.4643C25.5532 13.4448 25.5729 13.4058 25.5926 13.3472C25.6123 13.2887 25.6517 13.2497 25.6713 13.2497C25.7107 13.2497 25.7304 13.2887 25.7304 13.3667ZM24.7658 11.8252C24.6673 11.7861 24.5689 11.7471 24.4311 11.7471C24.2145 11.7471 23.998 11.8057 23.8011 11.9422C23.6043 12.0788 23.4271 12.235 23.2893 12.4106C23.1515 12.5862 23.0727 12.7618 23.0334 12.8984C23.2893 12.8789 23.5846 12.8008 23.8799 12.7033C24.1752 12.5862 24.4114 12.4691 24.628 12.352C24.8248 12.2154 24.9233 12.1179 24.9233 12.0398C24.9036 11.9422 24.8642 11.8642 24.7658 11.8252Z" fill="white" stroke="white" stroke-width="0.957029" stroke-miterlimit="10"/>
<path d="M30.0615 14.8693C30.1009 14.9083 30.1206 14.9474 30.1206 14.9669C30.1206 15.0254 30.1009 15.1035 30.0418 15.1815C29.9828 15.2596 29.9237 15.2986 29.8647 15.2986C29.7662 15.2986 29.6875 15.2401 29.6481 15.1425C29.589 15.0254 29.5694 14.9083 29.5694 14.7522C29.5694 14.6351 29.5694 14.2449 29.5891 13.6204V13.3277C29.5891 13.2106 29.5497 13.1131 29.4906 13.0741C29.2347 13.4643 28.9788 13.8156 28.7622 14.1083C28.5457 14.401 28.2504 14.6742 27.896 14.9278C27.5417 15.1815 27.1873 15.3181 26.8133 15.3181C26.6361 15.3181 26.4786 15.2596 26.3801 15.162C26.2817 15.0644 26.2227 14.9278 26.2227 14.7522C26.2227 14.5376 26.3211 14.2644 26.5376 13.8936C26.7542 13.5229 27.0101 13.1521 27.3251 12.7813C27.6401 12.4106 27.9748 12.0984 28.2897 11.8642C28.5063 11.7081 28.6638 11.6105 28.8016 11.552C28.9197 11.4935 29.0378 11.4739 29.1363 11.4739C29.2347 11.4739 29.3331 11.4935 29.4316 11.552C29.53 11.6105 29.6087 11.6691 29.6875 11.7666C29.7662 11.8642 29.7859 11.9618 29.7859 12.0789C29.7859 12.235 29.7465 12.3911 29.6481 12.5472L29.7859 12.5082C29.845 12.5082 29.8843 12.5862 29.904 12.7228C29.904 12.8009 29.9237 12.9765 29.9237 13.2302C29.9237 13.4838 29.9434 13.6985 29.9434 13.8741C29.9434 14.0497 29.9631 14.2058 29.9631 14.3815C29.9631 14.5376 29.9828 14.6742 29.9828 14.7717C30.0025 14.7913 30.0222 14.8303 30.0615 14.8693ZM27.8369 14.5766C28.1322 14.362 28.3882 14.1083 28.6047 13.8351C28.841 13.5424 29.0772 13.1911 29.3528 12.7618C29.4316 12.6057 29.4512 12.4301 29.4512 12.2545C29.4512 12.1374 29.4119 12.0398 29.3528 11.9618C29.2741 11.8837 29.1756 11.8447 29.0575 11.8447C28.9197 11.8447 28.7228 11.9423 28.5063 12.1179C28.2504 12.313 27.9748 12.5862 27.6795 12.9179C27.3842 13.2497 27.1479 13.5814 26.9707 13.8936C26.7739 14.2254 26.6754 14.479 26.6754 14.6547C26.6754 14.8108 26.7542 14.8888 26.9117 14.8888C27.2464 14.8888 27.5613 14.7913 27.8369 14.5766Z" fill="white" stroke="white" stroke-width="0.957029" stroke-miterlimit="10"/>
<path d="M33.8809 15.4743C33.8218 15.5134 33.7628 15.5329 33.6643 15.5329C33.6053 15.5329 33.5659 15.5134 33.5265 15.4938C33.4872 15.4743 33.4675 15.4353 33.4675 15.3963C33.4675 15.1816 33.4872 14.8499 33.5265 14.4011C33.5659 13.9132 33.5856 13.523 33.5856 13.2107C33.5856 12.8985 33.5659 12.6449 33.5462 12.4497C33.5265 12.2546 33.4872 12.157 33.4084 12.157C33.2115 12.157 32.995 12.3717 32.7588 12.8205C32.5225 13.2693 32.2666 13.8352 31.9516 14.5572L31.8138 14.8694C31.7941 14.9279 31.7547 14.967 31.6957 14.9865C31.6366 15.0255 31.5776 15.0255 31.5185 15.0255C31.4398 15.0255 31.4004 15.0255 31.3807 15.006C31.361 14.9865 31.3413 14.967 31.3413 14.9084L31.2626 14.2645L31.1248 13.1327C31.0854 12.6839 31.0263 12.2936 30.987 11.9619C30.9673 11.8838 30.9673 11.8253 30.9673 11.7863C30.9673 11.7082 31.0067 11.6497 31.0854 11.5911C31.1641 11.5326 31.2429 11.5131 31.3413 11.5131C31.4004 11.5131 31.4398 11.6301 31.4594 11.8838C31.4791 12.1375 31.5185 12.5473 31.5382 13.0937L31.5776 13.5035C31.6169 14.0303 31.6563 14.3621 31.6563 14.4986C31.676 14.4596 31.6957 14.4401 31.6957 14.4011C31.7154 14.3621 31.7351 14.323 31.7547 14.2645C32.0697 13.523 32.365 12.918 32.6406 12.4302C32.9162 11.9424 33.1722 11.6887 33.4281 11.6887C33.6053 11.6887 33.7234 11.8253 33.8021 12.0985C33.8612 12.3717 33.9006 12.7229 33.9203 13.1522C33.9399 13.6205 33.9399 14.323 33.9399 15.2402C33.9596 15.3768 33.9399 15.4158 33.8809 15.4743Z" fill="white" stroke="white" stroke-width="0.957029" stroke-miterlimit="10"/>
<path d="M24.8841 24.06C24.6873 24.3137 24.4116 24.5284 24.077 24.6845C23.7226 24.8406 23.3289 24.9186 22.8958 24.9186C22.5217 24.9186 22.2264 24.8991 22.0099 24.8406C21.7933 24.782 21.6752 24.704 21.6752 24.6064C21.6752 24.5479 21.7146 24.4698 21.7933 24.3527C21.8721 24.2357 21.9508 24.1771 21.9902 24.1771C22.069 24.1771 22.0886 24.1966 22.0886 24.2161C22.0886 24.2357 22.069 24.2552 22.0493 24.2747C22.0296 24.2942 22.0099 24.3137 22.0099 24.3332C22.0099 24.3527 22.0493 24.3723 22.1083 24.4113C22.1871 24.4503 22.2855 24.4698 22.443 24.4893C22.6005 24.5089 22.7777 24.5284 22.9942 24.5284C23.3289 24.5284 23.6242 24.4698 23.8998 24.3527C24.1557 24.2357 24.3526 24.0796 24.4904 23.9039C24.6282 23.7283 24.7069 23.5527 24.7069 23.3771C24.7069 23.1429 24.5888 22.9673 24.3526 22.7917C24.1163 22.6355 23.7226 22.4794 23.1911 22.3233C22.6792 22.1672 22.2855 22.0501 22.0099 21.9526C21.7343 21.855 21.498 21.7184 21.3209 21.5818C21.1437 21.4257 21.0649 21.2501 21.0649 21.0354C21.0649 20.7427 21.2421 20.4695 21.5965 20.1768C21.9508 19.9036 22.4036 19.6695 22.9155 19.4939C23.447 19.3182 23.9195 19.2402 24.3723 19.2402C24.6085 19.2402 24.7266 19.2792 24.7463 19.3573C24.766 19.4353 24.766 19.5329 24.766 19.6304C24.766 19.7085 24.7266 19.7475 24.6676 19.7475C24.6479 19.7475 24.6085 19.7475 24.5691 19.728C24.5298 19.7085 24.4904 19.689 24.4707 19.689C24.4313 19.6695 24.392 19.6695 24.3526 19.65C24.3132 19.6304 24.2345 19.6304 24.1557 19.6304C23.8604 19.6304 23.4864 19.7085 23.073 19.8451C22.6595 19.9817 22.2855 20.1573 21.9705 20.372C21.6555 20.5866 21.498 20.7817 21.498 20.9769C21.498 21.133 21.5768 21.2696 21.7146 21.3867C21.8524 21.5038 22.0493 21.6013 22.2855 21.6794C22.5217 21.7574 22.8564 21.855 23.2895 21.9721C23.9195 22.1477 24.392 22.3233 24.6873 22.538C24.9826 22.7526 25.14 23.0063 25.14 23.299C25.1794 23.5527 25.081 23.8064 24.8841 24.06Z" fill="white" stroke="white" stroke-width="0.957029" stroke-miterlimit="10"/>
<path d="M26.2423 19.8648C26.1439 19.8648 26.0455 19.8258 25.947 19.7477C25.8486 19.6697 25.7896 19.6111 25.7896 19.5721C25.7896 19.5136 25.8289 19.455 25.888 19.416C25.947 19.3575 26.0061 19.338 26.0652 19.338C26.1439 19.3575 26.2227 19.3965 26.2817 19.455C26.3211 19.4941 26.3801 19.5526 26.4392 19.6111C26.4983 19.6697 26.518 19.7282 26.518 19.7282C26.5376 19.8258 26.4392 19.8648 26.2423 19.8648ZM26.6754 24.8018C26.6361 24.8213 26.577 24.8408 26.4983 24.8408C26.4195 24.8408 26.3605 24.7237 26.3211 24.4895C26.2817 24.2554 26.2423 23.8261 26.203 23.1821C26.1833 22.7528 26.1636 22.343 26.1439 21.9333C26.1242 21.5235 26.1242 21.2113 26.1045 20.9966C26.1045 20.9381 26.1242 20.899 26.1439 20.86C26.1636 20.8405 26.203 20.821 26.262 20.821C26.3998 20.821 26.4786 20.8795 26.518 20.9771C26.5573 21.0747 26.577 21.2698 26.577 21.543V22.4601C26.577 22.987 26.5967 23.4163 26.6361 23.7285C26.6361 23.748 26.6558 23.9041 26.7148 24.2359C26.7542 24.4505 26.7739 24.6066 26.7739 24.6847C26.7542 24.7432 26.7148 24.7823 26.6754 24.8018Z" fill="white" stroke="white" stroke-width="0.957029" stroke-miterlimit="10"/>
<path d="M30.5932 24.1383C30.5342 24.2749 30.4751 24.392 30.4161 24.509C30.3373 24.6066 30.2783 24.6651 30.2192 24.6651C30.1011 24.6651 29.9436 24.5286 29.7467 24.2749C29.5499 24.0212 29.2939 23.67 28.9986 23.2211L28.9002 23.065C28.7821 23.2602 28.6837 23.4163 28.6246 23.5334C28.5458 23.67 28.4868 23.8065 28.408 23.9627C28.2899 24.2163 28.2309 24.3529 28.2309 24.4115C28.2309 24.4895 28.2702 24.5286 28.349 24.5286C28.3687 24.5286 28.3884 24.509 28.4277 24.4895C28.4671 24.47 28.5065 24.4505 28.5065 24.4505C28.5262 24.4505 28.5655 24.4505 28.5852 24.47C28.6049 24.4895 28.6246 24.509 28.6246 24.5286C28.6246 24.5676 28.5852 24.6066 28.4868 24.6847C28.408 24.7627 28.3096 24.8213 28.1915 24.8798C28.0931 24.9383 27.9946 24.9578 27.9356 24.9578C27.8962 24.9578 27.8568 24.9188 27.8174 24.8603C27.7781 24.7822 27.7584 24.7237 27.7584 24.6456C27.7584 24.509 27.8174 24.3139 27.9553 24.0602C28.0931 23.8065 28.2702 23.4553 28.5458 23.0065L28.6837 22.7723C28.5655 22.5382 28.408 22.265 28.2112 21.9137C28.0143 21.5625 27.8371 21.2893 27.6993 21.0746C27.6206 20.938 27.5615 20.8014 27.5615 20.6844C27.5615 20.6258 27.5615 20.5868 27.5812 20.5673C27.6009 20.5478 27.6206 20.5283 27.6403 20.5283C27.6993 20.5283 27.7387 20.5478 27.7978 20.6063C27.8568 20.6649 27.9159 20.7429 28.0143 20.86C28.2702 21.2307 28.5655 21.7381 28.8805 22.3821C28.9002 22.343 28.979 22.2455 29.0774 22.0698C29.2546 21.7771 29.4317 21.5039 29.6089 21.2698C29.727 21.1137 29.8255 21.0161 29.8845 20.9576C29.9436 20.899 30.042 20.8795 30.1601 20.8795C30.3373 20.8795 30.4161 20.9185 30.4161 20.9966C30.4161 21.0161 30.4161 21.0356 30.3964 21.0551C30.3767 21.0746 30.3373 21.0942 30.2783 21.1137C30.2192 21.1332 30.1601 21.1917 30.1011 21.2503C30.0026 21.3478 29.8452 21.5235 29.6483 21.8162C29.4514 22.1089 29.2349 22.4016 29.0577 22.7138C29.1758 22.9284 29.3333 23.1626 29.5105 23.3772C29.6877 23.5919 29.8255 23.787 29.9633 23.9236C30.1011 24.0602 30.1798 24.1383 30.2192 24.1383C30.2979 24.1383 30.357 24.0797 30.4161 23.9431C30.4358 23.9041 30.4358 23.8651 30.4554 23.8261C30.4751 23.787 30.4948 23.7675 30.5342 23.7675C30.6129 23.7675 30.6326 23.787 30.6326 23.8456C30.672 23.9041 30.6523 24.0017 30.5932 24.1383Z" fill="white" stroke="white" stroke-width="0.957029" stroke-miterlimit="10"/>
<path d="M18.6827 33.4851C18.4858 33.7388 18.2102 33.9535 17.8756 34.1096C17.5212 34.2657 17.1275 34.3437 16.6944 34.3437C16.3203 34.3437 16.025 34.3242 15.8085 34.2657C15.5919 34.2072 15.4738 34.1291 15.4738 34.0315C15.4738 33.973 15.5132 33.8949 15.5919 33.7779C15.6707 33.6608 15.7494 33.6022 15.7888 33.6022C15.8675 33.6022 15.8872 33.6217 15.8872 33.6413C15.8872 33.6608 15.8675 33.6803 15.8479 33.6998C15.8282 33.7193 15.8085 33.7388 15.8085 33.7583C15.8085 33.7779 15.8478 33.7974 15.9069 33.8364C15.9857 33.8754 16.0841 33.8949 16.2416 33.9144C16.3991 33.934 16.5763 33.9535 16.7928 33.9535C17.1275 33.9535 17.4228 33.8949 17.6984 33.7779C17.9543 33.6608 18.1512 33.5047 18.289 33.329C18.4268 33.1534 18.5055 32.9778 18.5055 32.8022C18.5055 32.568 18.3874 32.3924 18.1512 32.2168C17.9149 32.0607 17.5212 31.9045 16.9897 31.7484C16.4778 31.5923 16.0841 31.4752 15.8085 31.3777C15.5329 31.2801 15.2966 31.1435 15.1194 31.0069C14.9423 30.8508 14.8635 30.6752 14.8635 30.4605C14.8635 30.1678 15.0407 29.8946 15.3951 29.6019C15.7494 29.3287 16.2022 29.0946 16.7141 28.919C17.2456 28.7433 17.7181 28.6653 18.1709 28.6653C18.4071 28.6653 18.5252 28.7043 18.5449 28.7824C18.5646 28.8604 18.5646 28.958 18.5646 29.0556C18.5646 29.1336 18.5252 29.1726 18.4662 29.1726C18.4465 29.1726 18.4071 29.1726 18.3677 29.1531C18.3283 29.1336 18.289 29.1141 18.2693 29.1141C18.2299 29.0946 18.1905 29.0946 18.1512 29.0751C18.1118 29.0556 18.0331 29.0556 17.9543 29.0556C17.659 29.0556 17.285 29.1336 16.8715 29.2702C16.4581 29.4068 16.0841 29.5824 15.7691 29.7971C15.4541 30.0117 15.2966 30.2069 15.2966 30.402C15.2966 30.5581 15.3754 30.6947 15.5132 30.8118C15.651 30.9289 15.8479 31.0264 16.0841 31.1045C16.3203 31.1825 16.655 31.2801 17.0881 31.3972C17.7181 31.5728 18.1905 31.7484 18.4858 31.9631C18.7811 32.1777 18.9386 32.4314 18.9386 32.7241C18.978 32.9583 18.8796 33.2315 18.6827 33.4851Z" fill="white" stroke="white" stroke-width="0.957029" stroke-miterlimit="10"/>
<path d="M20.0409 29.2899C19.9425 29.2899 19.8441 29.2509 19.7456 29.1728C19.6472 29.0948 19.5881 29.0363 19.5881 28.9972C19.5881 28.9387 19.6275 28.8801 19.6866 28.8411C19.7456 28.7826 19.8047 28.7631 19.8637 28.7631C19.9425 28.7826 20.0212 28.8216 20.0803 28.8801C20.1197 28.9192 20.1787 28.9777 20.2378 29.0363C20.2968 29.0948 20.3165 29.1533 20.3165 29.1533C20.3362 29.2509 20.2378 29.2899 20.0409 29.2899ZM20.474 34.2269C20.4347 34.2464 20.3756 34.2659 20.2968 34.2659C20.2181 34.2659 20.159 34.1488 20.1197 33.9147C20.0803 33.6805 20.0409 33.2512 20.0016 32.6072C19.9819 32.1779 19.9622 31.7682 19.9425 31.3584C19.9228 30.9486 19.9228 30.6364 19.9031 30.4217C19.9031 30.3632 19.9228 30.3242 19.9425 30.2851C19.9622 30.2656 20.0016 30.2461 20.0606 30.2461C20.1984 30.2461 20.2772 30.3046 20.3165 30.4022C20.3559 30.4998 20.3756 30.6949 20.3756 30.9681V31.8852C20.3756 32.4121 20.3953 32.8414 20.4347 33.1536C20.4347 33.1731 20.4543 33.3292 20.5134 33.661C20.5528 33.8756 20.5725 34.0317 20.5725 34.0903C20.5528 34.1488 20.5134 34.1878 20.474 34.2269Z" fill="white" stroke="white" stroke-width="0.957029" stroke-miterlimit="10"/>
<path d="M25.2384 35.1048C25.0612 35.4366 24.8447 35.7098 24.6084 35.9244C24.3525 36.1391 24.0966 36.3147 23.8407 36.4513C23.5848 36.5879 23.3485 36.6464 23.1516 36.6464C23.0335 36.6464 22.9548 36.6269 22.9154 36.5684C22.876 36.5098 22.8367 36.4513 22.8367 36.3927C22.8367 36.3342 22.9745 36.2561 23.2304 36.1781C23.6241 36.061 23.9785 35.8659 24.3132 35.5927C24.5691 35.378 24.7659 35.1439 24.8841 34.8707C25.0022 34.5975 25.0612 34.3243 25.0612 34.0511C25.0612 33.7389 25.0416 33.4462 25.0022 33.1925C24.9628 32.9388 24.8841 32.6071 24.8053 32.2363C24.7069 31.8266 24.6281 31.4948 24.5888 31.2021C24.4903 31.4363 24.3328 31.729 24.136 32.0802C23.9391 32.412 23.6832 32.7437 23.4076 33.0559C23.1516 33.3486 22.8957 33.5828 22.6792 33.7194C22.4626 33.8755 22.2461 33.934 22.0492 33.934C21.872 33.934 21.7539 33.8755 21.6555 33.7584C21.5767 33.6413 21.5374 33.4657 21.5374 33.2511C21.5374 32.8998 21.6555 32.4705 21.8917 32.0022C22.1279 31.5143 22.4429 31.1046 22.7973 30.7533C23.1516 30.4021 23.5257 30.2264 23.88 30.2264C23.9982 30.2264 24.0966 30.2655 24.1557 30.3435C24.2147 30.4216 24.2541 30.5191 24.2541 30.6167C24.2541 30.7533 24.2147 30.8314 24.1557 30.8314C24.136 30.8314 24.1163 30.8118 24.0966 30.7728C24.0769 30.7338 24.0375 30.6948 23.9982 30.6753C23.9588 30.6362 23.9194 30.6362 23.88 30.6362C23.5848 30.6362 23.2895 30.7923 22.9745 31.085C22.6792 31.3777 22.4232 31.729 22.2264 32.1388C22.0295 32.529 21.9311 32.8608 21.9311 33.1145C21.9311 33.2511 21.9508 33.3486 21.9901 33.4267C22.0295 33.5047 22.1083 33.5242 22.187 33.5242C22.3248 33.5242 22.502 33.4462 22.6989 33.3096C22.8957 33.1535 23.132 32.9388 23.4076 32.6266C23.6438 32.3534 23.88 32.0217 24.0769 31.6509C24.2738 31.2802 24.4313 30.9289 24.5297 30.5972C24.5494 30.5582 24.5691 30.5387 24.5888 30.5191C24.6084 30.4996 24.6478 30.4801 24.6872 30.4801C24.7463 30.4801 24.7856 30.4996 24.8447 30.5191C24.9037 30.5387 24.9234 30.5777 24.9234 30.6167C24.9234 30.6362 24.9234 30.6557 24.9037 30.6753C24.9037 30.6948 24.8841 30.7143 24.8841 30.7143C24.9234 31.007 25.0219 31.4558 25.1794 32.0607C25.2975 32.49 25.3762 32.8413 25.4353 33.134C25.4943 33.4267 25.514 33.6999 25.514 33.9926C25.4943 34.4024 25.4156 34.7731 25.2384 35.1048Z" fill="white" stroke="white" stroke-width="0.957029" stroke-miterlimit="10"/>
<path d="M31.7349 34.1682C31.6955 34.2073 31.6364 34.2268 31.5577 34.2268C31.4593 34.2268 31.4002 34.1877 31.4002 34.0902C31.4002 33.0364 31.3608 32.2169 31.2821 31.6705C31.2033 31.1046 31.0852 30.8314 30.8884 30.8314C30.5734 30.8314 30.1206 31.8266 29.53 33.7975C29.53 33.856 29.5103 33.9146 29.4512 33.9536C29.4119 33.9926 29.3528 34.0121 29.2741 34.0121C29.1756 34.0121 29.1166 33.9731 29.1166 33.8755C29.1166 33.6609 29.1363 33.3487 29.1559 32.8998C29.1756 32.412 29.1953 32.0217 29.1953 31.7485C29.1953 31.3583 29.1756 31.0851 29.1559 30.9095C29.1363 30.7534 29.0772 30.6558 28.9788 30.6558C28.7819 30.6558 28.526 30.9875 28.2307 31.6315C27.9354 32.2754 27.6204 33.056 27.2857 33.9341L27.207 34.1292C27.1873 34.1877 27.1479 34.2268 27.1085 34.2658C27.0692 34.3048 27.0101 34.3243 26.9707 34.3243C26.892 34.3243 26.8526 34.3243 26.8329 34.3048C26.8133 34.2853 26.7936 34.2658 26.7936 34.2073C26.7739 33.9536 26.7345 33.6023 26.7148 33.173C26.6951 33.056 26.6951 32.8803 26.6754 32.6267C26.6164 31.7485 26.5573 31.1436 26.518 30.8314C26.4786 30.5192 26.4392 30.3436 26.4392 30.3045C26.4392 30.2655 26.4589 30.207 26.518 30.1484C26.5573 30.0899 26.6164 30.0704 26.6558 30.0704C26.7542 30.0704 26.8133 30.1289 26.8723 30.246C26.892 30.3045 26.9314 30.5387 26.9707 30.929C27.0101 31.3192 27.0298 31.8266 27.0495 32.4315L27.0889 33.6219C27.4038 32.7242 27.7385 31.9242 28.0732 31.2022C28.4079 30.4802 28.7228 30.1094 28.9985 30.1094C29.1953 30.1094 29.3134 30.2265 29.3922 30.4802C29.4709 30.7338 29.4906 31.0851 29.4906 31.5729C29.4906 31.8266 29.4906 32.1778 29.4709 32.6462V32.9974C29.7072 32.2559 29.9434 31.6315 30.1796 31.1241C30.4159 30.6168 30.6521 30.3631 30.8884 30.3631C31.479 30.3631 31.7743 31.5534 31.7743 33.9341C31.7939 34.0512 31.7743 34.1097 31.7349 34.1682Z" fill="white" stroke="white" stroke-width="0.957029" stroke-miterlimit="10"/>
<path d="M36.4792 33.6805C36.5186 33.7195 36.5383 33.7585 36.5383 33.778C36.5383 33.8366 36.5186 33.9146 36.4596 33.9927C36.4005 34.0707 36.3414 34.1098 36.2824 34.1098C36.184 34.1098 36.1052 34.0512 36.0658 33.9537C36.0068 33.8366 35.9871 33.7195 35.9871 33.5634C35.9871 33.4463 35.9871 33.056 36.0068 32.4316V32.1389C36.0068 32.0218 35.9674 31.9242 35.9083 31.8852C35.6524 32.2755 35.3965 32.6267 35.1799 32.9194C34.9634 33.2121 34.6681 33.4853 34.3137 33.739C33.9594 33.9927 33.605 34.1293 33.231 34.1293C33.0538 34.1293 32.8963 34.0707 32.7979 33.9732C32.6994 33.8756 32.6404 33.739 32.6404 33.5634C32.6404 33.3487 32.7388 33.0755 32.9554 32.7048C33.1719 32.334 33.4278 31.9633 33.7428 31.5925C34.0578 31.2217 34.3925 30.9095 34.7075 30.6754C34.924 30.5193 35.0815 30.4217 35.2193 30.3631C35.3374 30.3046 35.4555 30.2851 35.554 30.2851C35.6524 30.2851 35.7508 30.3046 35.8493 30.3631C35.9477 30.4217 36.0265 30.4802 36.1052 30.5778C36.184 30.6754 36.2036 30.7729 36.2036 30.89C36.2036 31.0461 36.1643 31.2022 36.0658 31.3583L36.2036 31.3193C36.2627 31.3193 36.3021 31.3974 36.3218 31.534C36.3218 31.612 36.3414 31.7876 36.3414 32.0413C36.3414 32.295 36.3611 32.5096 36.3611 32.6853C36.3611 32.8609 36.3808 33.017 36.3808 33.1926C36.3808 33.3487 36.4005 33.4853 36.4005 33.5829C36.4202 33.6024 36.4399 33.6414 36.4792 33.6805ZM34.2547 33.4073C34.55 33.1926 34.8059 32.9389 35.0224 32.6658C35.2587 32.3731 35.4949 32.0218 35.7705 31.5925C35.8493 31.4364 35.869 31.2608 35.869 31.0852C35.869 30.9681 35.8296 30.8705 35.7705 30.7924C35.7115 30.7144 35.5934 30.6754 35.4752 30.6754C35.3374 30.6754 35.1406 30.7729 34.924 30.9486C34.6681 31.1437 34.3925 31.4169 34.0972 31.7486C33.8019 32.0803 33.5656 32.4121 33.3885 32.7243C33.1916 33.056 33.0932 33.3097 33.0932 33.4853C33.0932 33.6414 33.1719 33.7195 33.3294 33.7195C33.6641 33.7195 33.9594 33.6024 34.2547 33.4073Z" fill="white" stroke="white" stroke-width="0.957029" stroke-miterlimit="10"/>
</svg>
