<svg width="98" height="47" viewBox="0 0 98 47" fill="none" xmlns="http://www.w3.org/2000/svg">
<g clip-path="url(#clip0_303_3954)">
<path d="M48.3077 16.5561L44.1241 21.2865L42.4687 23.1361C42.6192 22.6207 41.5657 20.7407 40.0608 18.891C39.4889 18.1936 38.9171 17.4961 38.285 16.829C36.2383 14.6761 34.0111 12.6142 31.4226 10.7342C30.1284 9.79421 28.774 8.88453 27.269 8.09614C26.5166 7.70195 25.734 7.33808 24.9214 6.97421C24.5 6.8226 24.0786 6.67098 23.6572 6.51937C23.2058 6.39808 22.7844 6.24647 22.3329 6.1555C20.6173 5.73098 18.4803 5.45808 16.223 5.64002C14.0258 5.79163 11.6781 6.33744 9.48096 7.18647C10.113 6.67098 10.7451 6.18582 11.4373 5.73098C12.8821 4.73034 14.4773 3.97227 16.1327 3.3355C17.7279 2.69873 19.4736 2.30453 21.2193 2.1226C24.7107 1.7284 28.3225 2.45614 31.6032 3.85098C33.68 4.73034 35.7568 5.91292 37.6228 7.21679C39.519 8.52066 41.2045 10.0065 42.6794 11.371C44.1542 12.7355 45.4183 14.009 46.3815 14.9187C47.3446 15.8284 48.0068 16.4045 48.3077 16.5561Z" fill="#516FE9" stroke="#516FE9"/>
<path d="M58.6618 15.7678H57.6986C56.8559 15.7678 56.4947 15.7374 54.8092 15.8587L54.8694 14.8581V14.6155V14.1607C54.8694 13.8271 54.8393 13.4633 54.8092 13.1297C54.7791 12.7962 54.749 12.4323 54.6888 12.0987L54.6286 11.6439L54.5985 11.5529L54.5684 11.462V11.4013L54.5383 11.4316L54.4179 11.5833C53.9664 12.0987 53.5149 12.6142 53.0635 13.0994C51.1974 15.222 49.3313 17.2839 47.4953 19.3762C43.8233 23.5304 40.1814 27.5936 36.5997 31.6265C34.7938 33.6581 32.9879 35.6897 30.8208 37.3878C30.2791 37.8123 29.7072 38.2065 29.1353 38.5704C28.5635 38.9342 27.9314 39.2374 27.2993 39.5407C26.0352 40.0865 24.7109 40.511 23.3565 40.7233C17.9388 41.6026 12.19 39.9349 8.27723 36.0536C7.28399 35.0226 6.41114 33.8703 5.68878 32.5968C5.02661 31.3233 4.45475 29.9891 4.12367 28.5942C3.43141 25.8045 3.37121 22.8329 4.03337 20.0433C4.48485 18.042 5.2975 16.1316 6.38104 14.4942C7.49467 12.8568 8.87919 11.4923 10.3841 10.431C11.889 9.36971 13.4842 8.64196 15.0493 8.12648C15.4406 8.00519 15.8319 7.8839 16.2232 7.79293C16.6145 7.70196 17.0057 7.64132 17.3669 7.55035C18.1194 7.45938 18.8417 7.30777 19.5641 7.30777C20.4068 7.24713 21.2195 7.27745 21.9719 7.36842C21.2195 7.18648 20.467 7.03487 19.6845 6.9439C17.096 6.61035 14.4474 6.91358 11.8589 7.52003C10.8958 7.76261 9.87244 8.09616 8.99959 8.39938C8.57821 8.52067 8.09664 8.70261 7.67526 8.88454C6.38104 10.2187 5.2674 11.7045 4.36445 13.2813C3.5217 14.7671 2.79934 16.3439 2.28767 17.9813C1.8061 19.6187 1.44492 21.2562 1.29443 22.9542C0.993445 26.2897 1.35462 29.6555 2.55856 32.5968C3.73239 35.5381 5.83927 37.9942 8.12674 39.9349C8.39762 40.1774 8.7287 40.42 9.02969 40.6323C9.33067 40.8445 9.63165 41.0871 9.93263 41.2691C10.5647 41.6633 11.1667 42.0878 11.8589 42.391C13.1532 43.1187 14.5076 43.6039 15.8319 44.0587C18.5407 44.8774 21.2797 45.1807 23.8681 44.9987C28.0819 44.6955 31.9947 42.9671 35.456 40.7536C38.9474 38.54 42.0776 35.8716 44.9068 33.0516C47.7361 30.2013 50.3245 27.1691 52.7023 24.0762C53.9062 22.5297 55.0801 20.9833 56.2238 19.4065C56.7957 18.6181 57.3675 17.86 57.9093 17.0716L58.722 15.9497C58.7821 15.8891 58.8423 15.7981 58.8724 15.7678C58.8122 15.7678 58.7219 15.7678 58.6618 15.7678Z" fill="#FFB501" stroke="#FFB501"/>
<path d="M59.2336 31.0806L59.2035 31.2322L58.9928 32.4148L58.7821 33.5974L58.7219 33.9006C58.7219 33.931 58.7219 33.931 58.7219 33.931L57.6384 34.2039L56.4946 34.5071L55.3509 34.8103L54.6586 34.9922L54.5382 34.871L54.147 34.4161C53.8761 34.1129 53.6052 33.8097 53.3644 33.5064C52.8226 32.9 52.2809 32.3239 51.6789 31.7477C50.8963 30.9593 49.8128 30.171 49.3613 30.2316C50.2643 29.2006 51.1672 28.1697 52.01 27.1084C52.7323 26.229 53.4547 25.3193 54.147 24.4097C54.2372 24.7432 54.6285 25.289 54.8693 25.7135C55.1703 26.1684 55.5616 26.6535 55.9228 27.1387C56.8558 28.4122 57.849 29.6858 58.9627 30.8684L59.1734 31.0806C59.2336 31.0806 59.2035 31.0503 59.2336 31.0806Z" fill="#FFB501" stroke="#FFB501"/>
<path d="M86.9543 5.36733C85.7504 4.97313 84.5164 4.70023 83.2824 4.57894C80.8745 4.30604 78.4666 4.48797 76.0889 5.03378C73.7713 5.57959 71.5139 6.42862 69.377 7.45959C67.24 8.49055 65.1933 9.67313 63.2068 10.9467C62.7252 11.2802 62.2136 11.5835 61.732 11.917L60.5281 12.7357L60.2873 12.7054C60.1368 12.7054 60.0164 12.6751 59.8659 12.6447C59.595 12.6144 59.3241 12.5538 59.0231 12.4931C58.7222 12.4325 58.4513 12.4022 58.1503 12.3415L57.759 12.3112L57.3978 10.2796L57.157 9.00604L57.127 8.91507L57.458 8.5512C58.6018 7.33829 59.896 6.21636 61.3106 5.27636C64.1098 3.39636 67.3002 2.09249 70.6411 1.60733C71.845 1.42539 73.079 1.36475 74.3432 1.36475C75.5772 1.39507 76.8413 1.54668 78.0453 1.75894C80.4531 2.21378 82.7105 3.06281 84.5465 4.00281C85.4795 4.45765 86.2621 4.94281 86.9543 5.36733Z" fill="#516FE9" stroke="#516FE9" stroke-linejoin="round"/>
<path d="M96.3751 28.4126C95.8333 31.8087 94.5993 35.1745 92.4021 37.9642C91.9506 38.5706 91.439 39.1165 90.8972 39.6623C90.235 39.8745 89.3923 40.1474 88.399 40.39C85.931 41.0571 82.6202 41.5423 79.9113 41.4513C78.8278 41.421 77.7142 41.33 76.6306 41.1177C76.1791 41.0268 75.6976 40.9358 75.2461 40.8145C76.3597 40.9055 77.6841 40.8752 79.0686 40.6326C80.3628 40.4506 81.657 40.0868 82.8911 39.6623C84.9377 38.8739 86.864 37.7823 88.5495 36.2965C90.2049 34.8106 91.6497 32.961 92.5526 30.7474C93.0041 29.6558 93.3051 28.5036 93.5158 27.321C93.6662 26.1384 93.7866 24.8952 93.6963 23.6519C93.606 22.4087 93.4255 21.1352 93.0342 19.9223C92.673 18.679 92.1914 17.4358 91.4992 16.2836C90.2952 14.0094 88.1583 11.7048 85.4193 9.91581C82.7105 8.12678 79.3395 6.85323 75.818 6.58033C75.6976 6.58033 75.5471 6.58033 75.4267 6.55C78.0151 5.82226 80.6939 5.57968 83.3726 5.91323C86.4728 6.2771 89.5127 7.52033 91.77 9.73387C94.0575 11.9474 95.4119 15.0706 96.1042 18.3152C96.7664 21.5597 96.8868 25.0165 96.3751 28.4126Z" fill="#FFB501" stroke="#FFB501" stroke-linejoin="round"/>
<path d="M89.9941 40.5413C88.2183 42.1181 86.0813 43.3613 83.824 44.271C79.9714 45.7568 75.246 46.3329 70.2497 45.1807C67.7515 44.6046 65.1931 43.6039 62.695 42.1788C61.4309 41.4813 60.1667 40.6929 58.9628 39.7529C58.3608 39.2981 57.7288 38.8129 57.1268 38.3278L56.9161 38.1459L56.8559 38.0852L56.7957 38.0246L56.7656 37.9942H56.7957C56.8258 37.9942 56.8559 37.9942 56.886 37.9942H56.9462H57.0365C57.5482 37.9033 58.0298 37.782 58.5414 37.6304C59.0531 37.4788 59.5347 37.2968 60.0463 37.1149C60.2871 37.0239 60.558 36.9026 60.7988 36.8117L61.3707 36.5691L61.5512 36.4781L61.6114 36.4478V36.3871L61.6415 36.2962L61.7318 35.9323L61.8221 35.4168L61.8823 34.9923C61.9124 34.7194 61.9726 34.4465 62.0027 34.1736C62.0328 33.9613 62.0629 33.7491 62.093 33.5368L62.1231 33.4459V33.4155L62.1532 33.4459L62.2134 33.5065L62.4241 33.7188C62.5144 33.84 62.6348 33.9613 62.7251 34.0523C62.9358 34.2646 63.1465 34.5071 63.3571 34.7194C65.0727 36.4478 67.0592 38.0246 69.2865 39.3284C71.5138 40.602 73.9818 41.6329 76.6004 42.0878C80.1219 42.6942 84.0046 42.2394 86.9843 41.451C88.128 41.2084 89.1514 40.8446 89.9941 40.5413Z" fill="#516FE9" stroke="#516FE9" stroke-linejoin="round"/>
</g>
<defs>
<clipPath id="clip0_303_3954">
<rect width="98" height="47" fill="white"/>
</clipPath>
</defs>
</svg>
