<svg width="145" height="37" viewBox="0 0 145 37" fill="none" xmlns="http://www.w3.org/2000/svg">
<g clip-path="url(#clip0_303_3965)">
<path d="M138.284 0.462314C137.682 0.647314 137.034 1.06356 136.525 1.57231C135.876 2.21981 135.413 3.14481 135.274 4.06981C135.135 4.99481 135.274 6.01231 135.691 6.89106C136.108 7.76981 136.803 8.50981 137.636 9.01856C138.47 9.52731 139.489 9.75856 140.461 9.66606C141.434 9.61981 142.406 9.24981 143.147 8.64857C143.934 8.04731 144.49 7.21481 144.814 6.28981C145.416 4.39356 144.814 2.26606 143.286 0.971064C142.684 0.462314 141.85 0.0923139 141.202 0.0460639C140.554 -0.0464361 140.091 0.0923139 140.137 0.231064C140.137 0.369814 140.554 0.462314 141.063 0.693564C141.573 0.878564 142.221 1.20231 142.777 1.71106C143.147 2.08106 143.518 2.49731 143.749 2.95981C143.981 3.32981 144.12 3.79231 144.166 4.20856C144.259 4.67106 144.259 5.08731 144.166 5.54981C144.027 6.42856 143.564 7.30731 142.823 7.90856C142.128 8.50981 141.156 8.92606 140.137 8.92606C139.118 8.92606 138.053 8.55606 137.266 7.81606C136.895 7.44606 136.525 6.98356 136.293 6.42856C136.062 5.87356 135.923 5.22606 135.969 4.57856C136.015 3.23731 136.895 1.89606 138.146 1.20231C138.562 0.971064 139.025 0.832314 139.396 0.739814C139.766 0.647314 140.091 0.601064 140.137 0.462314C140.183 0.369814 139.952 0.277314 139.581 0.277314C139.164 0.231064 138.655 0.323564 138.284 0.462314Z" fill="#39395B"/>
<path d="M140.229 3.32961C140.322 3.37586 140.368 3.37586 140.415 3.42211C140.507 3.51461 140.507 3.60711 140.461 3.74586C140.461 3.88461 140.415 3.93086 140.322 3.97711C140.229 4.02336 140.137 4.02336 139.952 4.02336H139.766C139.674 3.83836 139.674 3.56086 139.766 3.42211C139.766 3.42211 139.72 3.42211 139.859 3.37586C139.952 3.37586 140.044 3.28336 139.998 3.23711C139.952 3.19086 139.952 3.09836 139.859 3.05211C139.813 3.05211 139.813 3.00586 139.674 3.00586C139.581 3.00586 139.488 3.05211 139.396 3.09836C139.396 3.14461 139.35 3.14461 139.35 3.19086C139.303 3.23711 139.303 3.28336 139.303 3.32961C139.303 3.37586 139.303 3.42211 139.257 3.42211C139.211 3.69961 139.257 3.88461 139.35 4.16211C139.396 4.30086 139.535 4.39336 139.674 4.39336C139.813 4.39336 139.859 4.39336 139.952 4.39336C140.091 4.39336 140.322 4.39336 140.554 4.20836C140.739 4.11586 140.832 3.83836 140.832 3.60711C140.832 3.51461 140.785 3.32961 140.693 3.23711C140.6 3.09836 140.461 3.05211 140.322 3.05211C140.183 3.00586 139.998 3.05211 139.998 3.14461C139.998 3.23711 140.137 3.28336 140.229 3.32961Z" fill="#39395B"/>
<path d="M141.943 3.79217C142.036 3.56092 141.989 3.28342 141.943 3.05217C141.85 2.82092 141.712 2.54342 141.526 2.40467C141.248 2.17342 140.878 2.12717 140.554 2.08092C140.23 2.03467 139.905 2.03467 139.581 2.03467H139.118C138.933 2.03467 138.84 2.03467 138.609 2.03467C138.516 2.03467 138.331 2.12717 138.285 2.21967C138.192 2.35842 138.192 2.45092 138.192 2.54342V3.00592C138.192 4.30092 138.192 5.54967 138.192 6.79842C138.192 6.89092 138.192 6.98342 138.238 7.12217C138.285 7.26092 138.423 7.39967 138.516 7.44592C138.655 7.49217 138.748 7.49217 138.84 7.49217H139.072C139.164 7.49217 139.303 7.49217 139.442 7.39967C139.581 7.30717 139.628 7.12217 139.628 7.02967C139.628 6.79842 139.628 6.70592 139.628 6.52092V5.54967C139.628 5.45717 139.628 5.45717 139.628 5.45717C139.628 5.45717 139.674 5.41092 139.72 5.41092C139.813 5.36467 139.952 5.36467 140.091 5.41092C140.322 5.45717 140.6 5.64217 140.646 5.82717V5.91967V6.05842L140.693 6.28967C140.693 6.42842 140.739 6.61342 140.739 6.75217C140.739 6.89092 140.739 7.12217 140.924 7.35342C141.109 7.58467 141.387 7.53842 141.526 7.53842H141.758C141.85 7.53842 142.036 7.49217 142.128 7.39967C142.221 7.30717 142.221 7.12217 142.175 6.98342C142.128 6.89092 142.128 6.79842 142.082 6.79842V6.61342L142.036 6.42842L141.943 6.05842C141.897 5.82717 141.85 5.54967 141.758 5.31842C141.665 5.08717 141.434 4.94842 141.295 4.90217C141.156 4.85592 141.063 4.85592 141.063 4.90217C141.063 4.99467 141.341 5.08717 141.434 5.45717C141.48 5.64217 141.48 5.82717 141.526 6.15092C141.573 6.42842 141.619 6.75217 141.619 7.02967L141.665 7.16842C141.665 7.21467 141.665 7.21467 141.665 7.21467H141.619C141.434 7.21467 141.202 7.26092 141.11 7.21467C141.063 7.21467 141.017 7.12217 141.017 6.93717C141.017 6.75217 140.971 6.56717 140.971 6.38217L140.924 6.10467V5.96592C140.924 5.91967 140.924 5.87342 140.878 5.78092C140.785 5.54967 140.646 5.41092 140.461 5.27217C140.137 5.04092 139.674 4.94842 139.257 5.22592C139.118 5.31842 139.072 5.50342 139.118 5.59592V5.87342C139.118 6.05842 139.118 6.24342 139.118 6.42842C139.118 6.61342 139.118 6.79842 139.118 6.98342C139.118 7.07592 139.118 7.12217 139.118 7.12217C139.118 7.12217 139.072 7.16842 138.979 7.16842C138.794 7.16842 138.562 7.16842 138.562 7.12217C138.516 7.12217 138.516 6.89092 138.516 6.70592C138.516 5.91967 138.516 5.13342 138.516 4.25467C138.516 3.83842 138.516 3.42217 138.516 2.91342C138.516 2.77467 138.516 2.68217 138.516 2.54342C138.516 2.49717 138.516 2.45092 138.516 2.45092C138.516 2.45092 138.516 2.45092 138.562 2.40467C138.609 2.40467 138.748 2.40467 138.887 2.40467C139.025 2.40467 139.164 2.40467 139.257 2.40467C139.766 2.40467 140.322 2.35842 140.832 2.45092C141.063 2.49717 141.295 2.58967 141.434 2.77467C141.573 2.95967 141.665 3.19092 141.665 3.42217C141.712 4.02342 141.017 4.57842 141.017 4.67092C141.063 4.85592 141.804 4.43967 141.943 3.79217Z" fill="#39395B"/>
<path d="M20.2841 7.53842C16.4866 12.4409 13.5227 16.7422 11.3461 20.3034C9.72518 23.0322 8.5674 25.2984 7.82642 27.1022C7.59487 27.6572 7.50224 28.0734 7.50224 28.2584C7.50224 28.6747 7.7338 28.9059 8.1506 28.9059C8.24322 28.9059 8.33584 28.9059 8.42847 28.9059C9.49362 28.8134 10.5125 28.7209 11.3924 28.7209C11.9944 28.7209 12.3186 28.9059 12.3186 29.2759C12.3186 29.5534 12.1797 29.7847 11.8555 29.8309C11.6702 29.8772 11.1145 29.9234 10.0957 30.0159C7.50224 30.1547 4.86251 30.8022 2.13016 32.0509C1.20394 32.4672 0.555582 32.6984 0.277715 32.6984C0.0461598 32.6984 -0.0927734 32.6059 -0.0927734 32.3747C-0.0927734 31.9584 0.0924709 31.6347 0.46296 31.4497C1.065 31.1259 2.03754 30.6634 3.42687 30.0622L3.65842 29.9697C4.63096 27.7497 5.55718 25.8072 6.39078 24.1422C7.96535 21.0897 9.58624 18.3147 11.2998 15.7709C12.1334 14.5222 13.7079 12.2097 16.1161 8.87967C16.255 8.64842 16.3477 8.50967 16.3477 8.37092C16.3477 8.13967 16.2087 8.00092 15.9772 8.00092C15.7456 8.00092 14.912 8.13967 13.4764 8.37092C11.485 8.69467 9.95673 8.97217 8.9842 9.24967C7.91904 10.6834 7.03913 12.0709 6.39078 13.4584C6.20553 13.8284 5.97398 14.0597 5.6498 14.1059C5.18669 14.1984 5.00145 13.9209 5.09407 13.3659C5.18669 12.6722 5.97398 11.2847 7.36331 9.20342C8.47478 7.53842 9.63255 6.10467 10.8366 4.90217C11.4387 4.30092 11.8555 4.02342 12.087 4.02342C12.5038 4.02342 12.6891 4.20842 12.6891 4.57842C12.6891 4.85592 12.3649 5.31842 11.7166 5.96592C11.1608 6.47467 10.9293 6.89092 10.9293 7.12217C10.9293 7.30717 11.0219 7.39967 11.2534 7.39967C11.4387 7.39967 12.1334 7.30717 13.3838 7.07592C18.5243 6.24342 23.2017 5.78092 27.4623 5.73467C28.0181 4.94842 28.3885 4.39342 28.5738 4.11592C28.9906 3.51467 29.4074 3.19092 29.6853 3.19092C29.9631 3.19092 30.1484 3.42217 30.1484 3.83842C30.1484 3.93092 29.5926 4.80967 28.4812 6.42842C27.8328 7.35342 27.1845 8.60217 26.4898 10.0822C26.3045 10.4984 25.8877 11.5622 25.1931 13.3197C25.0541 13.7359 24.8226 13.9209 24.5447 13.9209C24.1279 13.9209 23.9427 13.7359 23.9427 13.3659C23.9427 12.8572 24.591 11.1459 25.9341 8.23217C26.0267 8.04717 26.0267 7.90842 26.0267 7.72342C26.0267 7.30717 25.6099 7.07592 24.7763 7.07592C23.2943 7.26092 21.7661 7.35342 20.2841 7.53842Z" fill="#4D64C2"/>
<path d="M72.9862 20.3033C71.5505 22.7083 70.0222 25.6221 68.4477 29.1371C67.5215 31.2183 67.0583 32.4671 67.151 32.8833C67.1973 33.2533 67.4751 33.4383 68.0309 33.4383C68.1235 33.4383 68.7255 33.3921 69.837 33.2996C70.4854 33.2533 71.0411 33.2071 71.5505 33.2071C72.1062 33.2071 72.3378 33.3921 72.3378 33.7621C72.3378 34.0858 72.1526 34.2708 71.8284 34.3633C71.7358 34.4096 70.8095 34.5021 69.0497 34.6408C67.6604 34.7333 66.1784 35.0571 64.5575 35.5196C64.0944 35.6583 62.844 36.1208 60.8063 36.9071C60.5748 36.9996 60.3432 37.0458 60.2043 37.0458C59.8338 37.0458 59.6486 36.8608 59.6486 36.4908C59.6486 36.1671 59.8338 35.9358 60.158 35.7508C61.0379 35.3346 62.1494 34.9183 63.3998 34.5021C64.6965 31.3108 66.0395 28.2121 67.5215 25.2521C65.8079 26.7783 63.9555 28.1658 61.8715 29.4608C59.0002 31.2183 56.6383 32.1433 54.8322 32.1433C53.4429 32.1433 52.3777 31.6346 51.6831 30.6633C51.081 29.8308 50.7568 28.7208 50.7568 27.3796C50.7568 25.0208 51.5441 22.4308 53.165 19.6558C54.4617 17.3896 56.3142 15.2158 58.7223 13.1346C61.1305 11.0533 63.7703 9.4808 66.7342 8.3708C68.7719 7.6308 70.6706 7.2608 72.523 7.2608C73.5882 7.2608 74.607 7.39955 75.6259 7.6308C77.1542 5.2258 78.2193 3.97705 78.7287 3.97705C79.0992 3.97705 79.2382 4.16205 79.2382 4.53205C79.2382 4.71705 79.1455 4.90205 79.0066 5.1333C77.7099 6.75205 76.7374 8.1858 76.089 9.34205C75.6722 10.1283 74.9775 11.6083 74.0976 13.7358C73.9124 14.1521 73.6808 14.3371 73.3566 14.3371C72.9862 14.3371 72.8009 14.1521 72.8009 13.7821C72.8009 13.5046 72.9862 12.9033 73.403 11.9783C73.9124 10.8221 74.1439 10.1283 74.1439 9.8508C74.1439 9.0183 73.403 8.60205 71.8747 8.60205C69.7444 8.60205 67.3362 9.3883 64.6039 11.0071C61.1768 13.0421 58.4445 15.5858 56.4994 18.5921C54.6933 21.3671 53.7671 24.0033 53.7671 26.4083C53.7671 27.4258 53.9523 28.2121 54.3691 28.7671C54.8785 29.5071 55.6195 29.8308 56.592 29.8308C58.1666 29.8308 60.4822 28.7671 63.5387 26.6858C65.9469 25.0208 67.753 23.5871 68.9108 22.3846C69.1423 22.1071 69.2813 21.8758 69.2813 21.6446C69.2813 21.3671 69.096 21.1821 68.7718 21.1821C68.2161 21.1821 66.9194 21.4596 64.7891 22.0608C63.5387 22.4308 62.7514 22.5696 62.5199 22.5696C62.1031 22.5696 61.8715 22.3383 61.8715 21.9221C61.8715 21.5983 62.1494 21.3671 62.6588 21.1821C64.2797 20.6733 66.2247 20.1646 68.5403 19.7021C71.4116 19.1471 73.5419 18.8696 74.9312 18.8696C75.487 18.8696 75.7648 19.0546 75.7648 19.4708C75.7648 19.8871 75.4406 20.1183 74.7923 20.1646C73.9124 20.2108 73.3103 20.2571 72.9862 20.3033Z" fill="#4D64C2"/>
<path d="M96.4194 17.3896C97.9477 17.1121 98.9202 16.9734 99.4296 16.9734C99.8927 16.9734 100.171 17.1584 100.171 17.5284C100.171 17.8521 99.9853 18.0834 99.6149 18.1759C99.4296 18.2221 98.9202 18.3146 98.0403 18.4071C97.0214 18.5459 96.4194 18.6847 96.2341 18.9159C96.0026 19.1472 95.771 20.7659 95.4932 23.7259C95.2153 26.5934 95.1227 28.2584 95.2153 28.7671C95.3079 29.2297 95.5395 29.4609 95.9563 29.4609C96.0489 29.4609 96.1415 29.4609 96.2805 29.4609C97.114 29.3684 97.9477 29.3684 98.8276 29.3684C99.7075 29.3684 100.124 29.5534 100.124 29.9697C100.124 30.3397 99.8464 30.5247 99.2444 30.5709C97.253 30.7097 95.4932 30.9409 94.0112 31.3109C92.9461 31.5884 92.0661 31.8659 91.4178 32.0972L89.0096 33.0684C88.7781 33.1609 88.5465 33.2072 88.3613 33.2072C88.0371 33.2072 87.8981 33.0684 87.8981 32.7447C87.8981 32.3747 88.0834 32.0972 88.4539 31.9122C89.5653 31.3109 91.001 30.7559 92.7145 30.2009C92.7608 27.4722 93.0387 23.8184 93.6407 19.2396C89.0096 20.1184 85.7678 20.8121 84.008 21.3209C83.2207 22.2459 82.0166 23.8184 80.3958 26.0847C79.6548 27.1022 79.2843 27.7497 79.2843 27.9809C79.2843 28.3047 79.4695 28.4434 79.8863 28.4434C80.0253 28.4434 80.6273 28.3972 81.6925 28.3046C82.2482 28.2584 82.7576 28.2584 83.1744 28.2584C83.7765 28.2584 84.0543 28.4434 84.0543 28.8134C84.0543 29.1834 83.7301 29.3684 83.0818 29.4146C81.0904 29.5534 79.4232 29.7847 78.0339 30.1084C76.8761 30.3859 75.9962 30.6634 75.4405 30.8947L73.0323 31.9122C72.7544 32.0509 72.4766 32.0972 72.245 32.0972C72.0134 32.0972 71.8745 31.9122 71.8745 31.5884C71.8745 31.3109 72.1061 31.0334 72.5692 30.7559C73.7733 30.1547 75.07 29.5997 76.5519 29.0909L76.7835 28.7671C79.1454 25.3909 80.8126 23.1247 81.7388 21.9222C81.5072 21.9684 80.581 22.1996 79.0527 22.6622C78.8212 22.7547 78.6359 22.7546 78.4507 22.7546C78.1265 22.7546 77.9876 22.5697 77.9876 22.1534C77.9876 21.8759 78.4044 21.5521 79.238 21.3209C79.9326 21.0896 80.6736 20.8584 81.5072 20.6271C82.3408 20.3959 82.8966 20.2571 83.1281 20.2109L83.4523 19.8872C87.8981 14.8459 91.8346 10.6834 95.3079 7.39965C96.4657 6.28965 97.3456 5.5034 97.9477 5.08715C98.3181 4.80965 98.6423 4.6709 98.8739 4.6709C99.337 4.6709 99.5685 4.90215 99.5685 5.36465C99.5685 5.54965 99.4759 5.8734 99.337 6.28965C97.7624 10.3134 96.7899 14.0134 96.4194 17.3896ZM93.7333 17.8059C93.826 16.9271 94.1038 15.4934 94.5669 13.5046C94.9374 11.9321 95.2153 10.7759 95.4469 10.0359C95.4932 9.9434 95.4932 9.8509 95.4932 9.80465C95.4932 9.52715 95.3542 9.43465 95.1227 9.52715C94.8448 9.61965 93.0387 11.3771 89.7043 14.8921C87.3424 17.3434 86.1846 18.6846 86.1846 18.8696C86.1846 19.1009 86.2773 19.2396 86.4625 19.2396C86.6014 19.2396 87.8518 19.0084 90.1674 18.4996C91.0936 18.3146 92.2977 18.0834 93.7333 17.8059Z" fill="#4D64C2"/>
<path d="M119.39 8.09356C117.398 10.3598 115.5 12.9036 113.693 15.7248C113.508 16.0486 113.416 16.2336 113.416 16.3723C113.416 16.6036 113.554 16.7423 113.879 16.7423C113.971 16.7423 114.573 16.6498 115.638 16.5111C117.861 16.2336 119.482 16.0948 120.362 16.0486C120.501 15.8636 120.825 15.4473 121.288 14.7998C122.029 13.7361 122.585 13.2273 122.909 13.2273C123.28 13.2273 123.465 13.4123 123.465 13.7823C123.465 13.9211 123.419 14.1061 123.28 14.2911C123.233 14.3373 122.817 14.9386 122.029 16.0486C121.011 17.5286 119.992 19.3786 118.927 21.5523C118.695 21.9686 118.51 22.1998 118.278 22.1998C117.861 22.1998 117.63 22.0611 117.63 21.7373C117.63 21.3211 117.861 20.6736 118.371 19.7486C118.927 18.6386 119.204 17.9911 119.204 17.8523C119.204 17.5748 119.019 17.3898 118.649 17.3898C117.861 17.3898 115.685 17.6673 112.072 18.2223C110.591 20.4886 109.34 22.6161 108.368 24.5123C107.302 26.5936 106.747 27.9811 106.747 28.6286C106.747 29.0448 106.978 29.2761 107.488 29.2761C107.673 29.2761 108.275 29.2298 109.201 29.0911C109.896 28.9986 110.452 28.9523 110.915 28.9523C111.424 28.9523 111.702 29.1373 111.702 29.5073C111.702 29.8773 111.378 30.1086 110.729 30.2011C108.553 30.4323 106.747 30.7098 105.311 31.0336C104.153 31.3111 103.273 31.5423 102.579 31.8198C101.791 32.1436 100.958 32.4673 100.124 32.7911C99.8927 32.8836 99.6611 32.9298 99.4759 32.9298C99.198 32.9298 99.0591 32.7911 99.0591 32.4673C99.0591 32.1436 99.198 31.9586 99.4759 31.7736C100.032 31.4036 101.189 30.9411 102.996 30.2936C103.875 27.6573 105.218 24.6973 107.117 21.5061C109.016 18.2686 111.007 15.1698 113.091 12.3023C114.295 10.6373 114.944 9.75856 114.99 9.61981C115.083 9.43481 115.083 9.29606 114.99 9.15731C114.897 9.01856 114.759 8.97231 114.527 8.97231C114.295 8.97231 113.74 9.06481 112.86 9.29606C111.934 9.57356 111.285 9.71231 111.054 9.71231C110.776 9.71231 110.591 9.57356 110.591 9.34231C110.591 8.97231 110.776 8.69481 111.1 8.55606C112.628 7.95481 115.036 7.39981 118.417 6.89106C122.076 6.33606 125.734 6.1048 129.393 6.1048C129.949 5.27231 130.412 4.57855 130.828 4.11605C131.245 3.5148 131.616 3.2373 131.847 3.2373C132.218 3.2373 132.357 3.4223 132.357 3.7923C132.357 3.93105 131.894 4.71731 130.921 6.15106C129.856 7.81606 128.837 9.80481 127.957 12.1173C127.726 12.6261 127.494 12.8573 127.17 12.7186C126.938 12.6261 126.799 12.4411 126.799 12.1636C126.799 11.7011 127.216 10.4986 128.096 8.64856C128.235 8.32481 128.328 8.09356 128.328 7.95481C128.328 7.58481 128.004 7.39981 127.401 7.39981C124.53 7.49231 121.844 7.67731 119.39 8.09356Z" fill="#4D64C2"/>
<path d="M29.2682 32.8835C30.0555 33.4848 31.2133 33.8548 32.2784 33.9473C35.0571 34.1323 37.9284 33.4385 40.4292 32.051C42.8837 30.6635 45.014 28.721 46.6349 26.3623C47.0054 25.761 47.4222 25.206 47.7 24.5585C47.839 24.2348 48.0242 23.911 48.1632 23.5873L48.58 22.616C48.6263 22.431 48.7189 22.2923 48.7652 22.1073L48.9041 21.5985L49.182 20.581L49.3672 19.5173L49.4599 19.0085C49.5062 18.8235 49.5062 18.6385 49.5062 18.4535C49.8767 15.6323 48.9504 12.3485 46.496 10.4523C46.2644 10.2673 45.9865 10.0823 45.7087 9.94353C45.4308 9.80478 45.1066 9.66604 44.8288 9.57354C44.5046 9.48104 44.2267 9.38853 43.9488 9.38853C43.671 9.38853 43.3931 9.34229 43.1152 9.34229C42.8374 9.34229 42.6058 9.38853 42.4206 9.43478C42.2353 9.48103 42.0501 9.57353 41.9112 9.61978C41.6333 9.75853 41.4944 9.89729 41.5407 10.036C41.587 10.1748 41.7722 10.2673 42.0038 10.3598C42.1427 10.406 42.2816 10.4523 42.4669 10.4985C42.6521 10.5448 42.8374 10.591 43.0226 10.6373C43.2079 10.6835 43.4394 10.776 43.6247 10.8223C43.8562 10.8685 44.0415 11.0073 44.273 11.0998C44.6898 11.331 45.1529 11.5623 45.5697 11.9323C46.1718 12.441 46.6349 13.0423 47.0517 13.6898C47.7 14.7998 48.0705 16.141 48.0242 17.5285C48.0242 18.9623 47.7 20.3498 47.2369 21.7835C46.7275 23.171 45.9865 24.5585 45.1066 25.8535C44.1804 27.1485 43.0226 28.351 41.6796 29.461C40.3829 30.4785 38.6694 31.496 36.678 32.0973C36.1686 32.1898 35.6592 32.3748 35.1497 32.4673C34.8719 32.5135 34.594 32.5598 34.3624 32.5598L33.9456 32.606C33.8067 32.606 33.6678 32.606 33.5288 32.606C32.9731 32.606 32.4174 32.6523 31.908 32.606C31.3985 32.5598 30.8891 32.421 30.426 32.1898C29.824 31.9123 29.2682 31.5423 28.8977 31.1723C28.4809 30.8023 28.2031 30.4785 27.9715 30.5248C27.7863 30.5248 27.7863 30.941 28.0178 31.4498C28.2031 31.9585 28.7588 32.5135 29.2682 32.8835Z" fill="#39395B"/>
<path d="M31.0745 29.2297C30.3798 28.8597 29.7778 28.166 29.361 27.3797C28.8516 26.316 28.5274 25.1597 28.3421 23.9572C28.2032 22.801 28.2032 21.5985 28.3885 20.396C28.5737 19.2397 28.8979 18.0835 29.4073 17.0197C29.8704 15.956 30.5188 14.9385 31.2597 14.0135C32.0007 13.0885 32.8806 12.256 33.8069 11.516C34.7331 10.776 35.7982 10.1285 36.8634 9.61971C37.9285 9.11096 39.0863 8.64846 40.2441 8.32471C41.4019 8.00096 42.5596 7.86221 43.7174 7.95471C44.6436 8.04721 45.5699 8.27846 46.3108 8.55596C47.0518 8.78721 47.5612 9.06471 47.7465 8.83346C47.9317 8.60221 47.7002 8.04721 46.9592 7.44596C46.2645 6.84471 45.0604 6.38221 43.7637 6.28971C42.8375 6.19721 41.9576 6.28971 41.0777 6.47471C39.642 6.79846 38.299 7.26096 36.956 7.86221C35.613 8.46346 34.3626 9.20346 33.1122 10.0822C32.5101 10.5447 31.9081 11.0535 31.3524 11.5622C30.7966 12.1172 30.2409 12.7185 29.7778 13.366C28.8053 14.661 27.9717 16.1872 27.4622 17.8985C26.9065 19.471 26.5823 21.506 26.8139 23.6797C26.9528 24.7435 27.1844 25.8997 27.6475 26.9635C28.0643 28.0272 28.7126 29.1835 29.8704 29.9235C30.6114 30.4322 31.5839 30.6635 32.3249 30.5247C33.1122 30.386 33.5753 29.9235 33.529 29.6922C33.4827 29.5072 33.0659 29.5997 32.6028 29.646C32.1397 29.5997 31.4913 29.461 31.0745 29.2297Z" fill="#39395B"/>
</g>
<defs>
<clipPath id="clip0_303_3965">
<rect width="145" height="37" fill="white"/>
</clipPath>
</defs>
</svg>
