<svg width="68" height="68" viewBox="0 0 68 68" fill="none" xmlns="http://www.w3.org/2000/svg">
<path d="M66.4993 43.7885C65.191 48.1131 63.0601 52.0008 60.16 55.4632C57.3204 58.8559 53.9834 61.6328 50.0585 63.715C46.5659 65.567 42.8734 66.7614 38.9834 67.3889C38.4884 67.4702 38.1352 67.3331 37.8099 66.952C36.2111 65.079 34.5868 63.2293 32.9904 61.354C32.6069 60.9032 32.1701 60.4803 31.9075 59.9853C31.9539 59.6367 32.1794 59.4787 32.3629 59.2974C34.05 57.6057 35.7464 55.921 37.4265 54.2246C37.7355 53.9132 38.0818 53.7599 38.5093 53.6553C42.1995 52.7513 45.4644 51.0852 48.1949 48.3757C50.4536 46.1355 52.1476 43.5654 53.2444 40.5863C53.4141 40.1216 53.442 39.608 53.7278 39.1619C54.1159 39.1828 54.167 39.5174 54.2832 39.7521C55.2197 41.6018 56.1422 43.4609 57.0764 45.3129C57.1925 45.5453 57.2692 45.8032 57.5574 46.0542C60.6248 44.9295 63.6108 43.4632 66.7735 42.2966C66.9083 42.8822 66.6364 43.3331 66.4993 43.7839V43.7885Z" fill="#BBE1ED"/>
<path d="M36.0531 67.4656C34.5519 68.3974 26.2606 67.282 21.7362 65.4764C13.3125 62.1116 7.10338 56.3486 3.15759 48.1364C4.9167 45.3199 6.49919 42.4803 8.26062 39.8312C8.60686 39.7266 8.80206 39.8916 9.00655 39.9938C11.2072 41.1092 13.438 42.1689 15.5991 43.361C15.9802 43.5701 16.28 43.8327 16.4984 44.2138C17.2049 45.4477 18.0437 46.6003 19.0244 47.6205C21.2692 49.9582 23.8648 51.7731 26.9369 52.8978C29.2862 53.7599 31.7122 54.0806 34.1847 54.1828C34.3823 54.1898 34.6123 54.1247 34.8215 54.4338C33.139 56.258 31.2823 57.945 29.4977 59.8459C31.696 62.4021 33.871 64.9303 36.0531 67.4679V67.4656Z" fill="#5165AF"/>
<path d="M20.3421 11.9388C19.9354 14.395 19.5287 16.8536 19.1244 19.3098C19.0338 19.8605 18.8316 20.3276 18.4505 20.7761C15.8641 23.8412 14.2886 27.378 13.7983 31.3586C13.4288 34.3331 13.6914 37.2703 14.6651 40.1239C14.7394 40.34 14.8696 40.5562 14.6976 40.9977C12.3366 39.9287 10.1476 38.5926 7.71462 37.4957C5.97411 40.3354 4.24289 43.1518 2.50238 45.9915C1.06628 44.5972 -0.318692 36.3803 0.064732 31.3702C0.796724 21.7893 5.42802 13.9535 10.9377 8.97595C14.033 9.64055 17.1538 10.4121 20.1817 11.144C20.4164 11.4647 20.3816 11.6994 20.3421 11.9341V11.9388Z" fill="#FCB415"/>
<path d="M67.9493 35.7204C67.8796 37.0519 67.6425 38.3741 67.4776 39.6987C67.4311 40.0891 67.1476 40.275 66.8199 40.4121C65.1236 41.1185 63.4318 41.8296 61.7355 42.5337C60.6224 42.9961 59.5093 43.4516 58.459 43.8838C58.1127 43.763 58.0593 43.512 57.957 43.3075C56.7951 41.0139 55.6797 38.6925 54.4504 36.4338C54.2785 36.1177 54.2366 35.7901 54.2761 35.4438C54.627 32.2417 54.0693 29.1766 52.8703 26.2138C51.9663 23.9783 50.7138 21.9705 49.0546 20.2021C47.9926 19.0705 46.8726 18.0201 45.5852 17.151C45.4551 17.065 45.3342 16.9628 45.2204 16.8536C45.1692 16.8048 45.1553 16.7211 45.0809 16.5608C47.751 16.1425 50.3745 15.7358 53.1166 15.3059C52.8703 12.048 52.5658 8.84349 52.366 5.65991C52.7959 5.53442 52.9864 5.75286 53.1933 5.89229C54.9222 7.04488 56.5209 8.37873 57.9849 9.83575C60.0879 11.9295 61.9028 14.2742 63.4063 16.8512C65.414 20.2904 66.7154 23.9853 67.4497 27.8822C67.9377 30.4686 68.0887 33.0898 67.9516 35.7157L67.9493 35.7204Z" fill="#F05157"/>
<path d="M51.2622 13.6002C50.9741 13.965 50.7091 13.9743 50.4466 14.0138C47.8834 14.4019 45.318 14.7877 42.7572 15.199C42.3668 15.2617 42.0298 15.1757 41.6905 15.0363C38.8509 13.8791 35.8927 13.3771 32.8416 13.5514C29.565 13.735 26.5023 14.6854 23.665 16.3376C22.8749 16.7977 22.0918 17.2695 21.3969 17.8992C21.0554 17.6064 21.1669 17.2834 21.2134 16.9929C21.5433 14.948 21.8873 12.9077 22.2219 10.8628C22.273 10.5537 22.3241 10.2377 22.0825 9.85427C19.0313 9.13158 15.9058 8.39494 12.7339 7.64435C15.1994 4.99292 22.359 1.41894 28.2963 0.4476C37.7982 -1.10701 46.2707 1.6792 50.4419 4.33994C50.8207 7.43057 50.9973 10.5793 51.2622 13.6002Z" fill="#3CC1CF"/>
</svg>
