<svg width="75" height="64" viewBox="0 0 75 64" fill="none" xmlns="http://www.w3.org/2000/svg">
<g clip-path="url(#clip0_303_3904)">
<path d="M69.7302 59.3966C67.3919 57.0775 66.5543 54.17 66.2402 51.0548C65.8214 46.7973 66.3449 42.6091 67.008 38.4209C67.9852 32.1905 67.2174 26.2024 64.5999 20.5258C59.9582 10.3841 52.1755 3.94604 41.1471 1.41927C34.9698 0.000127554 28.8623 0.277034 22.9642 2.38845C12.0056 6.29975 4.67665 13.7416 1.60546 25.0602C-0.383839 32.3982 0.38396 39.5285 3.97866 46.2089C8.79485 55.1737 16.3332 60.608 26.3495 62.7541C32.2476 64.0347 37.9712 63.5502 43.5901 61.6118C48.3365 59.985 52.4198 57.2505 55.9447 53.6854C56.4682 53.1316 56.9568 52.4047 57.6199 53.6854C60.726 59.8465 66.0657 62.2695 72.7316 62.3041C73.1853 62.3041 73.7437 62.3733 74.2323 61.7503C72.4524 61.2311 70.9517 60.608 69.7302 59.3966ZM35.3188 55.2776C33.5738 55.866 31.759 55.9352 30.014 55.3814C17.9037 51.6432 10.7841 39.9785 12.9828 27.6215C14.5882 18.6913 22.1964 10.7303 31.1308 8.72268C33.0154 8.30732 34.8651 8.30732 36.6799 8.96497C37.1685 9.13804 37.1336 9.83031 36.645 9.93415C36.1913 10.038 35.7027 10.1764 35.249 10.2803C27.4663 12.0109 22.1615 16.6837 19.0205 23.8487C12.9479 37.7286 22.1964 49.2202 32.108 53.2354C33.155 53.6508 34.1671 54.1007 35.2839 54.343C35.5282 54.4122 35.8772 54.4469 35.8772 54.7584C35.8772 55.1045 35.5631 55.2084 35.3188 55.2776ZM52.3151 30.979C52.1057 38.8016 48.5459 45.0667 42.9619 50.2933C41.7404 51.4355 40.3095 51.7124 38.7041 51.0548C32.7711 48.5972 28.3039 44.8244 27.222 38.1786C26.0703 30.9098 30.4328 22.6718 36.6101 19.6259C43.9391 15.9915 52.3849 20.9758 52.3151 29.3868C52.3151 29.906 52.3151 30.4252 52.3151 30.979Z" fill="#516FE9"/>
<path d="M35.8773 54.7932C35.8773 55.1393 35.5632 55.2085 35.3189 55.2778C33.5739 55.8662 31.7591 55.9354 30.0141 55.3816C17.9038 51.6434 10.7842 39.9787 12.9829 27.6217C14.5883 18.6915 22.1965 10.7304 31.1309 8.72285C32.5269 8.41133 34.5 8.00049 36.5 8.7228C37.4074 8.89586 37.4074 10.0381 36.5 10.2458L35.2491 10.2458C27.4664 11.9765 22.1616 16.6493 19.0206 23.8143C12.948 37.7288 22.1965 49.2204 32.1081 53.2356C33.1551 53.6509 34.1672 54.1009 35.284 54.3432C35.5283 54.4124 35.8424 54.447 35.8773 54.7932Z" fill="white"/>
</g>
<defs>
<clipPath id="clip0_303_3904">
<rect width="75" height="64" fill="white"/>
</clipPath>
</defs>
</svg>
