<svg width="87" height="66" viewBox="0 0 87 66" fill="none" xmlns="http://www.w3.org/2000/svg">
<g clip-path="url(#clip0_107_533)">
<path d="M26.9202 62.8013C27.6216 61.7475 28.2947 60.7355 29.015 59.6538C28.1861 58.6279 27.3642 57.6136 26.5424 56.597C26.7927 56.3504 27.0383 56.4318 27.2579 56.4295C28.4057 56.4156 29.5534 56.4295 30.7012 56.4086C38.3576 56.269 46.014 56.2388 53.6704 56.3132C60.8757 56.383 67.9086 51.835 70.3671 44.9142C72.6201 38.575 71.3897 32.7708 66.964 27.6669C64.3567 24.6613 60.956 22.9538 57.0829 22.0861C56.9932 22.0651 56.8987 22.0535 56.8066 22.0465C56.7641 22.0442 56.7169 22.0674 56.6437 22.0884C56.4358 22.5909 56.6791 23.1631 56.4642 23.7726C54.7803 21.9628 53.1461 20.2041 51.4623 18.3895C53.0634 16.6588 54.6174 14.9791 56.2445 13.2228C56.2989 14.0486 56.2351 14.7675 56.4902 15.4654C56.9885 15.677 57.5127 15.5817 58.0158 15.6259C61.9006 15.9585 65.2896 17.4706 68.3077 19.8365C71.8266 22.5932 74.6534 25.9059 76.4294 30.0072C78.4509 34.6738 78.6328 39.4846 77.4614 44.3815C76.6514 47.7663 75.2934 50.9068 73.1444 53.6914C70.3222 57.3507 66.5908 59.7445 62.2643 61.3473C59.01 62.5524 55.6423 62.9199 52.1991 62.9153C45.4543 62.9083 38.7095 62.9292 31.9647 62.9385C30.5831 62.9385 29.2016 62.9409 27.82 62.9385C27.5673 62.9385 27.3052 62.9827 26.9179 62.8013H26.9202Z" fill="#F05157"/>
<path d="M33.9554 53.3239C29.1353 46.1379 27.5956 38.4913 30.9066 30.3212C34.3782 21.758 41.3355 17.4567 50.2081 15.6608C49.6177 16.8332 48.6448 17.7335 47.9008 18.8525C48.829 19.9203 49.9932 20.7508 50.9544 21.8116C50.7324 22.0395 50.4656 22.0395 50.2294 22.1C48.1323 22.6327 46.1225 23.3725 44.2521 24.4612C41.0545 26.3246 38.7495 28.9464 37.4034 32.3568C35.9392 36.0626 35.4834 39.8568 36.5863 43.7418C37.3798 46.5403 38.9668 48.8829 40.9813 50.9696C41.7535 51.7722 42.5966 52.5027 43.5602 53.3216H33.9578L33.9554 53.3239Z" fill="#FCB415"/>
<path d="M80.6165 56.3085C80.9353 55.6409 80.8574 54.9476 80.744 54.0543C82.6782 55.8735 84.5439 57.6322 86.3789 59.3583C84.4683 61.1938 82.579 63.0106 80.7322 64.7856C80.8054 64.3227 80.881 63.6527 80.5551 62.9595H66.7703C67.3418 62.1825 68.0904 61.6823 68.78 61.1217C70.4426 59.7747 72.143 58.4743 73.7961 57.1158C74.3747 56.6389 75.0312 56.6179 75.7019 56.5877C77.1732 56.5225 78.6516 56.6109 80.1205 56.4458C80.2811 56.4272 80.4512 56.4504 80.6165 56.3085Z" fill="#3CC1CF"/>
<path fill-rule="evenodd" clip-rule="evenodd" d="M33.2163 54.4986L35.108 54.5079C34.6569 54.7638 33.828 54.6708 33.2163 54.6708V54.4963V54.4986ZM32.6992 54.3311C32.8645 54.1683 33.2494 54.5452 32.9023 54.4219C32.8975 54.4219 32.4677 54.5591 32.6992 54.3311ZM28.0255 53.1377C28.042 53.1214 28.0774 53.1633 28.0774 53.1889C28.0774 53.1982 28.0987 53.2098 28.0987 53.2098C28.094 53.2052 27.7941 53.368 28.0255 53.1377ZM27.5083 52.9702C27.5248 52.9539 27.5603 52.9958 27.5603 53.0214C27.5603 53.0307 27.5815 53.0423 27.5815 53.0423C27.5768 53.0377 27.2769 53.2005 27.5083 52.9702ZM26.9911 52.8027C27.1564 52.6399 27.5414 53.0168 27.1942 52.8935C27.1895 52.8935 26.7597 53.0307 26.9911 52.8027ZM32.3567 52.6352C32.3732 52.619 32.4087 52.6608 32.4087 52.6864C32.4087 52.6957 32.4299 52.7074 32.4299 52.7074C32.4252 52.7027 32.1253 52.8655 32.3567 52.6352ZM31.4758 52.5934L30.9728 52.6446C31.0649 52.5771 30.9043 52.2816 31.4758 52.5934ZM30.2785 52.2979C30.4438 52.1351 30.8217 52.5119 30.4816 52.3887C30.4769 52.3887 30.047 52.5259 30.2785 52.2979ZM40.3178 52.1304C40.4831 51.9676 40.8609 52.3445 40.5209 52.2212C40.5161 52.2212 40.0863 52.3584 40.3178 52.1304ZM29.4141 52.1304C29.5794 51.9676 29.9573 52.3445 29.6172 52.2212C29.6125 52.2212 29.178 52.3584 29.4141 52.1304ZM41.0074 51.9629C41.0239 51.9467 41.0593 51.9885 41.0593 52.0141C41.0593 52.0234 41.0806 52.035 41.0806 52.035C41.0758 52.0304 40.7759 52.1932 41.0074 51.9629ZM41.7017 51.7954C41.7182 51.7792 41.7536 51.821 41.7536 51.8466C41.7536 51.8559 41.7749 51.8676 41.7749 51.8676C41.7702 51.8629 41.4702 52.0257 41.7017 51.7954ZM28.2026 51.7954C28.3679 51.6326 28.7529 52.0095 28.4057 51.8862C28.401 51.8862 27.9712 52.0234 28.2026 51.7954ZM40.6602 51.7954C40.9719 51.6024 40.7523 51.4698 41.338 51.7489L40.6602 51.7954ZM41.5246 51.4535C41.5411 51.4372 41.5765 51.4791 41.5765 51.5047C41.5765 51.514 41.5978 51.5256 41.5978 51.5256C41.593 51.5209 41.2931 51.6838 41.5246 51.4535ZM27.3359 51.4535C27.3524 51.4372 27.3879 51.4791 27.3879 51.5047C27.3879 51.514 27.4091 51.5256 27.4091 51.5256C27.4044 51.5209 27.1045 51.6838 27.3359 51.4535ZM39.7935 51.4535C40.1052 51.2604 39.8856 51.1278 40.4713 51.4069L39.7935 51.4535ZM40.6626 51.1185C40.6791 51.1022 40.7145 51.1441 40.7145 51.1697C40.7145 51.179 40.7358 51.1906 40.7358 51.1906C40.731 51.1859 40.4311 51.3488 40.6626 51.1185ZM31.9954 51.165L31.4924 51.3139C31.7356 51.1045 31.1665 51.1301 31.9954 51.165ZM30.8004 50.951C30.8169 50.9347 30.8524 50.9766 30.8524 51.0022C30.8524 51.0115 30.8736 51.0231 30.8736 51.0231C30.8689 51.0185 30.569 51.1813 30.8004 50.951ZM30.2808 50.7765C30.2974 50.7602 30.3328 50.8021 30.3328 50.8277C30.3328 50.837 30.3541 50.8486 30.3541 50.8486C30.3493 50.844 30.0494 51.0068 30.2808 50.7765ZM29.5865 50.609C29.6031 50.5927 29.6385 50.6346 29.6385 50.6602C29.6385 50.6695 29.6597 50.6811 29.6597 50.6811C29.655 50.6765 29.3551 50.8393 29.5865 50.609ZM42.9108 49.9251C42.9274 49.9088 42.9628 49.9507 42.9628 49.9763C42.9628 49.9856 42.984 49.9972 42.984 49.9972C42.9793 49.9925 42.6794 50.1554 42.9108 49.9251ZM43.258 49.7576C43.2745 49.7413 43.3099 49.7832 43.3099 49.8088C43.3099 49.8181 43.3312 49.8297 43.3312 49.8297C43.3265 49.825 43.0266 49.9879 43.258 49.7576ZM43.6052 49.5901C43.6217 49.5738 43.6571 49.6157 43.6571 49.6413C43.6571 49.6506 43.6784 49.6622 43.6784 49.6622C43.6736 49.6576 43.3737 49.8204 43.6052 49.5901ZM44.6466 49.2551L44.6939 49.0969L44.8237 49.1946L44.6537 49.2505L44.649 49.2551H44.6466ZM45.1638 48.9131L45.1166 49.0713L44.9867 48.9736L45.1567 48.9178L45.1615 48.9131H45.1638ZM46.0282 48.4106C46.2974 48.0338 46.6351 47.8454 47.0649 47.7267C46.7178 48.2478 46.6351 48.2618 46.0282 48.4106ZM26.4739 52.6771C24.4075 52.498 19.7456 48.9666 18.6876 47.3917C19.1906 47.5243 21.5617 49.739 22.3552 50.2601C23.0401 50.709 23.6612 51.0859 24.365 51.5209C25.0286 51.928 25.9402 52.2142 26.4786 52.6794H26.4739V52.6771ZM47.0649 47.7337C47.3908 47.2382 47.2468 47.3568 47.7593 47.2242C47.4333 47.7197 47.5774 47.6011 47.0649 47.7337ZM47.7616 47.2242L48.4559 46.5403C48.3426 47.087 48.2694 47.0916 47.7616 47.2242ZM39.281 46.7148L39.2385 46.873L39.1086 46.7752L39.2786 46.7194V46.7148H39.281ZM18.1657 46.8823L18.0051 46.8357L18.1043 46.7078L18.161 46.8753L18.1657 46.8799V46.8823ZM48.4559 46.5473L48.5032 46.3891L48.6331 46.4868L48.463 46.5426L48.4583 46.5473H48.4559ZM51.7457 42.7972C51.7622 42.781 51.7976 42.8228 51.7976 42.8484C51.7976 42.8577 51.8189 42.8694 51.8189 42.8694C51.8142 42.8647 51.5142 43.0275 51.7457 42.7972ZM52.2629 42.2878L52.2204 42.446L52.0905 42.3483L52.2605 42.2924V42.2878H52.2629ZM14.5335 41.0944C14.55 41.0781 14.5855 41.12 14.5855 41.1455C14.5855 41.1549 14.6067 41.1665 14.6067 41.1665C14.602 41.1618 14.3021 41.3247 14.5335 41.0944ZM53.8121 38.8751C53.8286 38.8588 53.8641 38.9007 53.8641 38.9262C53.8641 38.9356 53.8853 38.9472 53.8853 38.9472C53.8806 38.9425 53.5807 39.1054 53.8121 38.8751ZM53.9821 38.5331C53.9821 38.1399 54.1947 38.5029 54.0908 38.5331C54.0908 38.5331 53.9821 38.9728 53.9821 38.5331ZM54.1522 37.8492C54.1687 37.8329 54.2041 37.8747 54.2041 37.9003C54.2041 37.9096 54.2254 37.9213 54.2254 37.9213C54.2207 37.9166 53.9207 38.0795 54.1522 37.8492ZM54.4993 36.8232C54.4993 36.4301 54.7119 36.793 54.608 36.8232C54.608 36.8232 54.4993 37.2629 54.4993 36.8232ZM54.6694 35.9718C54.6859 35.9555 54.7213 35.9974 54.7213 36.023C54.7213 36.0323 54.7426 36.0439 54.7426 36.0439C54.7379 36.0393 54.4379 36.2021 54.6694 35.9718ZM54.8205 35.125C55.0118 35.3391 54.9976 34.8854 54.9764 35.6205L54.8205 35.125ZM55.0638 34.9366C55.0213 34.569 55.2409 31.0284 55.3235 30.8702C55.4416 31.9473 55.5621 34.1108 55.0638 34.9366ZM40.8279 46.2076L40.3107 46.3751C40.202 46.8962 39.7982 46.3798 39.7935 46.3751C38.9079 46.3751 38.53 46.6194 37.7105 46.7124C36.9902 46.7939 35.996 46.8241 35.3276 46.9265C34.1728 47.1009 31.6388 47.1312 30.791 46.5496C29.1496 46.4077 26.5377 44.7118 25.6308 44.7025C25.7867 45.6167 26.6038 46.4426 27.1422 47.187C24.4028 47.4824 22.0458 44.3652 20.107 42.9833L20.3809 43.7836C19.5685 43.6603 19.6252 43.0531 19.023 42.6297L18.7443 42.8089L18.05 42.1086C18.2365 43.8743 22.0388 47.2056 23.4935 48.2874C25.482 49.7669 29.7613 51.5023 32.1749 51.5023C32.5787 50.9812 32.6354 51.493 33.2305 51.6559C33.299 51.6768 33.5682 51.7024 33.6863 51.7233C36.0172 52.1374 38.0577 51.5047 39.7888 51.5047C38.8417 52.1537 37.2547 52.0955 35.996 52.2281C37.3067 52.8307 39.2739 51.8699 40.6531 51.8443C38.53 53.2982 31.993 52.6655 28.7741 51.6093C28.0586 51.3744 25.9047 50.4043 25.4371 50.3531L26.1149 50.9905C23.3117 50.3229 19.5047 46.6031 17.8587 44.4582C16.8739 43.1764 15.7545 41.3921 15.1121 39.8312C14.4697 38.2656 13.485 35.6834 13.485 33.9735L12.9678 33.927C13.1968 34.8761 13.237 36.0253 13.6266 37.5491C13.8959 38.6052 14.2265 39.9382 14.6823 40.8804C14.0824 40.7315 13.6101 39.2473 13.3669 38.6564C13.1803 38.1981 13.0669 37.8189 12.9016 37.4072C12.6678 36.8163 12.5804 36.4999 12.0892 36.3045C11.572 37.228 12.0113 38.5447 12.2971 39.3706C14.5666 45.9424 19.7834 51.9234 26.3983 54.1287C29.2842 55.0872 30.4603 55.257 33.5635 55.257C37.8688 55.257 43.2556 54.0938 46.8193 51.9513C51.9275 48.8736 55.2834 42.5111 56.2517 36.6837C56.6602 34.2248 56.6602 31.6007 56.2517 29.1371C54.8323 20.6065 48.8692 14.4208 40.6389 11.7781C38.7638 11.1756 35.552 10.4777 33.6084 10.5893C33.1361 9.97287 32.77 9.01676 32.1536 8.2072C30.8901 6.54853 27.6878 3.40568 25.7819 3.2312C26.1031 3.67553 27.3619 4.26641 27.9003 4.72702C29.2417 5.86925 32.7653 9.25404 33.018 10.5382C31.7805 10.6359 29.8746 10.4009 28.9111 10.8639C30.295 11.0127 31.5939 10.5987 33.1786 10.7824C33.717 11.2523 33.4832 11.2617 33.8729 11.578L33.7217 10.7824C34.2649 10.8545 34.7467 10.8685 35.2662 10.9453C35.8 11.0267 36.2251 11.2198 36.8296 11.2826C36.7304 11.8595 36.5037 11.6339 38.4261 12.3434C37.4885 12.4853 35.3654 11.9665 34.2673 11.9247C33.7501 11.9037 30.8287 11.9921 30.6776 12.9157C31.6766 13.6252 36.7895 13.1506 38.7544 14.1091C37.9609 14.1951 37.3138 14.0183 36.5155 13.9858C35.7126 13.9555 35.2261 13.7857 34.2626 13.8066C33.4809 13.8229 30.7201 14.1137 30.3045 14.6232C31.8891 14.7977 32.6354 14.5255 35.3229 14.8232C37.002 15.007 37.9703 14.8488 39.6329 15.691C40.4051 16.0841 40.6271 15.9213 41.1963 16.1958C41.6261 16.4051 43.6004 17.559 43.8697 17.8242C46.9161 20.8345 48.4441 21.9069 50.1162 26.1617C50.3759 26.8247 50.7538 27.1527 50.8837 27.6273L51.0962 31.2401C50.9097 32.4288 51.075 33.7618 50.7845 35.0366C50.4066 36.6953 49.4266 39.3845 48.2245 40.7012C48.2552 41.2177 48.208 40.5593 48.4276 41.2433C47.4428 41.6318 46.0494 43.3044 45.0457 44.0488C44.2735 44.6211 44.1247 45.0142 43.2485 45.3446C42.5897 45.5888 41.482 46.1657 40.8444 46.2169L40.8232 46.2076H40.8279Z" fill="#415970"/>
<path fill-rule="evenodd" clip-rule="evenodd" d="M15.0507 33.3409C15.216 33.178 15.5938 33.5549 15.2538 33.4316C15.2491 33.4316 14.8192 33.5688 15.0507 33.3409ZM14.0092 33.1734L14.5169 33.199C13.9478 33.506 14.2123 33.3013 14.0092 33.1734ZM14.0092 33.1734L13.5014 33.1478C14.0706 32.8407 13.8061 33.0454 14.0092 33.1734ZM13.1448 32.8314C13.1614 32.8151 13.1968 32.857 13.1968 32.8826C13.1968 32.8919 13.2181 32.9035 13.2181 32.9035C13.2133 32.8989 12.9134 33.0617 13.1448 32.8314ZM9.1655 30.7842L9.32609 30.8261L9.2269 30.9541L9.17022 30.7866H9.1655V30.7842ZM9.1655 30.7842L9.00491 30.7377L9.1041 30.6098L9.16078 30.7773L9.1655 30.7819V30.7842ZM8.47118 30.2748L8.63177 30.3167L8.53258 30.4446L8.4759 30.2771H8.47118V30.2748ZM8.30114 30.1073L8.14055 30.0608L8.23974 29.9328L8.29642 30.1003L8.30114 30.105V30.1073ZM4.84136 26.0153L5.00195 26.0572L4.90276 26.1851L4.84608 26.0176H4.84136V26.0153ZM4.84136 26.0153L4.68077 25.9688L4.77996 25.8408L4.83664 26.0083L4.84136 26.013V26.0153ZM4.4942 25.5058L4.65479 25.5477L4.5556 25.6756L4.49892 25.5082H4.4942V25.5058ZM4.14704 24.8219C4.16357 24.8056 4.199 24.8475 4.199 24.8731C4.199 24.8824 4.22025 24.894 4.22025 24.894C4.21553 24.8894 3.9156 25.0522 4.14704 24.8219ZM3.977 24.4799C3.99354 24.4636 4.02896 24.5055 4.02896 24.5311C4.02896 24.5404 4.05021 24.552 4.05021 24.552C4.04549 24.5474 3.74556 24.7102 3.977 24.4799ZM3.80697 24.1379C3.80697 23.7448 4.01951 24.1077 3.9156 24.1379C3.9156 24.1379 3.80697 24.5823 3.80697 24.1379ZM3.63693 23.6285C3.65346 23.6122 3.68889 23.6541 3.68889 23.6797C3.68889 23.689 3.71014 23.7006 3.71014 23.7006C3.70542 23.6959 3.40549 23.8588 3.63693 23.6285ZM33.0557 23.2865L33.0085 23.4447L32.8786 23.347L33.0486 23.2912L33.0534 23.2865H33.0557ZM3.46689 23.119C3.48342 23.1027 3.51885 23.1446 3.51885 23.1702C3.51885 23.1795 3.5401 23.1911 3.5401 23.1911C3.53538 23.1865 3.23545 23.3493 3.46689 23.119ZM6.40948 19.8785L6.3835 20.3786C6.07177 19.818 6.27959 20.0785 6.40948 19.8785ZM2.03811 16.8217L2.08062 19.5202C1.78541 18.9782 1.77597 17.3474 2.03811 16.8217ZM6.06232 19.1945C6.07885 19.1782 6.11428 19.2201 6.11428 19.2457C6.11428 19.255 6.13553 19.2666 6.13553 19.2666C6.13081 19.262 5.83088 19.4248 6.06232 19.1945ZM0.69198 14.2488C0.69198 13.8556 0.904526 14.2185 0.800615 14.2488C0.800615 14.2488 0.69198 14.6884 0.69198 14.2488ZM0.862017 13.5648C0.878548 13.5485 0.913973 13.5904 0.913973 13.616C0.913973 13.6253 0.935227 13.6369 0.935227 13.6369C0.930504 13.6323 0.630578 13.7951 0.862017 13.5648ZM7.61155 12.8809L7.56432 13.0391L7.43443 12.9414L7.60446 12.8855L7.60919 12.8809H7.61155ZM4.66896 8.95639L4.62173 9.11458L4.49184 9.01687L4.66188 8.96104L4.6666 8.95639H4.66896ZM4.66896 8.95639L4.71147 8.7982L4.84136 8.8959L4.67132 8.95174V8.95639H4.66896ZM3.28505 8.78889C3.30158 8.77261 3.337 8.81448 3.337 8.84007C3.337 8.84938 3.35826 8.86101 3.35826 8.86101C3.35353 8.85636 3.05361 9.0192 3.28505 8.78889ZM3.80224 8.27943L3.75501 8.43762L3.62512 8.33991L3.79516 8.28408L3.79988 8.27943H3.80224ZM4.48239 7.43498C4.62173 6.93482 4.50365 7.07672 4.99959 6.75104C4.86025 7.2512 4.97833 7.10929 4.48239 7.43498ZM5.34675 6.40907L5.33022 6.7208L5.00431 6.75104L5.35147 6.40907H5.34675ZM5.69391 6.0671L5.67738 6.37883L5.35147 6.40907L5.69863 6.0671H5.69391ZM5.69391 6.0671C6.02453 5.57159 6.50631 5.02724 7.07782 4.8737C6.74719 5.3692 6.26542 5.91356 5.69391 6.0671ZM7.07782 4.8737C7.42026 4.36889 7.87605 4.00598 8.46173 3.84779C8.18779 4.26188 7.53361 4.7504 7.07782 4.8737ZM8.46173 3.84779L8.50424 3.6896L8.63413 3.78731L8.4641 3.84314V3.84779H8.46173ZM12.963 33.862L13.4802 33.9085C14.3044 34.632 19.2922 34.8158 20.3998 34.297H20.5698C23.144 34.5971 28.8993 31.1378 30.883 28.5114C33.3793 25.2104 35.4528 21.3673 35.4528 16.9799C35.2402 17.3055 35.0064 19.1945 34.8624 19.811C34.5837 20.9951 34.5199 21.3626 33.9555 22.5002L33.495 22.5165L33.0345 23.2981C33.1077 22.4723 33.5847 21.5488 33.7689 20.6136C33.9815 19.5574 34.246 18.6851 33.7264 17.6685C32.7723 18.3361 32.7062 21.807 31.8253 22.7864C31.856 21.2603 33.1053 18.8479 32.4063 17.3567C31.993 17.9081 31.908 19.148 31.7285 19.9599C31.5419 20.7974 31.2774 21.6488 30.9869 22.47C29.9714 25.3267 27.2012 27.8275 24.45 29.1605C21.9325 30.3795 20.2652 30.1654 19.3843 30.8191C17.613 30.3446 17.1572 30.5632 16.8054 30.5283C16.4677 30.4935 16.5881 30.3957 16.0803 30.3446C15.1333 30.3702 15.6907 30.3446 15.4026 30.1259C15.0294 30.1259 15.3459 30.1724 15.216 29.9584C14.7342 30.1422 13.6526 29.6932 13.1378 29.428L12.5639 29.107C11.5271 28.5044 10.6273 28.0601 9.88107 27.1924C9.48196 26.7271 9.54336 26.7853 9.01672 26.8597C8.77347 25.5082 6.27723 23.1493 6.40476 20.93C6.44018 20.3065 6.83457 20.4717 6.38823 19.8947C6.38823 17.829 6.44018 15.1653 7.25258 13.4136L7.76978 12.9042H7.59974L7.76978 12.5622L7.93981 12.2202L8.28697 11.7108C8.48299 11.0012 9.21509 10.073 9.84565 9.66359L9.74174 9.29138C8.59635 9.36815 8.49243 9.83806 7.62808 9.97997C7.93273 8.14218 10.4573 6.6417 11.8955 5.51576L11.2366 5.33198L12.6206 4.55034L12.2734 4.46892L12.6206 4.37819L12.963 3.91991C10.4101 4.19441 7.19826 7.04183 5.55457 9.17972C2.56003 13.0833 2.50807 18.2431 2.28608 18.692L2.23885 16.6612C1.66497 16.2331 2.89066 12.9716 3.17169 12.2923C3.5708 11.3176 5.04682 9.12388 5.18143 8.64466L4.85553 8.5772C6.92195 6.44862 7.97288 4.95512 11.2933 3.40812C12.7174 2.74977 14.1533 2.36127 15.6694 2.09142C18.6333 1.56567 18.86 1.99372 21.2688 1.77969C20.1919 1.18183 17.384 1.23766 16.0473 1.43772C15.6482 1.49821 14.4981 1.63081 14.1887 1.6122C15.053 1.13298 17.6697 1.05621 18.1987 0.453692C17.2257 -0.653636 12.9299 0.595598 11.7019 1.0818C6.59132 3.11965 3.20947 5.95078 1.08873 11.0687C-0.843078 15.7469 -0.184184 24.1217 2.89774 27.439C4.4942 29.1535 5.18143 30.0049 7.23369 31.3519C8.70498 32.3173 11.3004 33.755 12.9795 33.8666L12.9701 33.8573L12.963 33.862Z" fill="#229BB5"/>
<path fill-rule="evenodd" clip-rule="evenodd" d="M12.5686 29.0813L13.1425 29.4023C13.1685 28.295 14.0706 25.7174 14.5004 24.6217C15.4474 22.2326 17.5516 19.0037 19.4102 17.1822C20.0006 16.6006 22.3434 14.5092 22.6575 14.0695C20.6312 14.2487 17.3887 18.35 16.2197 20.1715C15.4214 21.4161 14.5713 23.0957 14.1792 24.4682C13.9454 25.2847 13.0716 28.7486 12.5686 29.0766V29.0813ZM15.4073 30.1025C15.6978 30.3282 15.1381 30.3468 16.0851 30.3212C16.3543 29.0603 16.5668 27.7599 16.9707 26.534C17.2966 25.5336 18.1255 24.1309 18.3381 23.2725C17.0486 24.1797 15.9127 28.2485 15.9127 29.7536C15.7355 30.3398 16.0733 29.9281 15.4096 30.0955L15.4049 30.1002L15.4073 30.1025ZM17.1265 41.8737C16.7133 40.1848 15.8371 39.552 15.0648 35.5461C14.9964 35.1995 15.0814 35.353 14.9515 34.9808C14.713 34.2806 14.8948 34.8063 14.7035 34.5411C14.3658 35.1134 15.1806 37.9236 15.3931 38.4703C15.6883 39.231 16.4747 41.4201 17.1289 41.8784V41.8737H17.1265ZM27.4941 7.03242C26.1999 5.26674 22.1332 3.522 19.9251 3.69415L20.9713 3.96866C25.0262 4.9178 26.8872 6.94867 27.4941 7.03475V7.03009V7.03242ZM13.6668 3.14979L17.9602 2.67988C18.2389 2.70081 18.364 3.03813 19.2024 2.46586C17.5493 2.46586 14.857 2.33326 13.6644 3.14979H13.6668Z" fill="#415970"/>
<path fill-rule="evenodd" clip-rule="evenodd" d="M25.0852 2.80792C24.4783 1.96579 22.5063 1.37491 21.4648 1.48657C21.5782 1.57264 24.7239 2.72184 25.0852 2.80792Z" fill="#229BB5"/>
<path fill-rule="evenodd" clip-rule="evenodd" d="M27.3382 44.7723L24.764 42.767C24.9553 43.879 26.2141 44.5024 27.3382 44.7723ZM15.2207 29.9327C15.3907 29.6721 15.5773 28.3415 15.7025 27.8506C15.8796 27.162 16.1937 26.5293 16.2575 25.8407C15.5631 26.6107 15.2207 28.7788 15.2207 29.9327Z" fill="#415970"/>
<path fill-rule="evenodd" clip-rule="evenodd" d="M9.85985 9.62863L9.34265 10.6545L11.2485 8.94934C10.3416 9.02611 10.514 9.20989 9.86457 9.63328L9.85985 9.62863Z" fill="#229BB5"/>
<path fill-rule="evenodd" clip-rule="evenodd" d="M21.6231 38.6331C21.675 39.224 21.7931 39.5869 22.1403 40.0266C22.4189 39.5357 22.1048 38.9704 21.6231 38.6331ZM20.5863 34.2852H20.4163C20.1943 34.8971 20.1116 35.1925 20.7469 35.346L20.5863 34.2852ZM20.6288 28.5509C20.9453 28.1321 21.0681 27.525 21.0752 27.062C20.7233 27.4761 20.5674 27.8832 20.6288 28.5509ZM13.8439 7.27667C13.9525 7.51163 13.6006 7.75124 14.4083 7.50232C14.6208 7.43486 14.9161 7.21153 15.0341 7.12546L13.8439 7.28365V7.279V7.27667ZM39.7958 46.3077H40.313L40.8302 46.1402V45.9727C40.1524 45.9889 40.261 45.9006 39.7934 46.3146V46.31L39.7958 46.3077ZM30.798 46.4752L31.6482 46.4589L30.4508 46.1378L30.798 46.4752ZM23.7013 8.26536C23.3282 7.93967 23.3116 7.83266 22.8511 8.05133L23.7013 8.26536ZM30.4508 46.1378L29.4141 45.7959C29.8793 46.203 29.7778 46.1216 30.4508 46.1378ZM17.469 6.90446L18.501 6.85328L17.469 6.72533V6.90446ZM28.545 11.5082C27.8247 11.5082 28.2073 11.4478 27.8507 11.6757C28.571 11.6711 28.1884 11.7362 28.545 11.5082ZM22.8369 3.66622C22.4803 3.43592 22.8629 3.49873 22.1426 3.49873C22.4992 3.72903 22.1167 3.66622 22.8369 3.66622ZM16.2622 25.8384L16.6093 25.1591L16.2929 25.3522L16.2622 25.836V25.8384ZM22.1426 3.49175C21.9655 3.38009 22.2111 3.15909 21.6396 3.44988L22.1426 3.49175ZM12.6276 3.49175C12.7929 3.65459 13.1708 3.27773 12.8307 3.40102C12.826 3.40102 12.3915 3.26377 12.6276 3.49175ZM13.6691 3.14978L13.1614 3.17537C13.7305 3.48244 13.466 3.27773 13.6691 3.14978ZM7.78394 12.8761L7.95397 12.5342H7.78394V12.8761ZM7.95397 12.5342L8.1311 12.1922H7.95397V12.5342ZM8.30113 12.0247L8.47117 11.6827H8.30113V12.0247ZM12.6276 4.34551V4.51998L12.9748 4.43856L12.6276 4.34783V4.34551ZM34.8246 16.1027L34.9757 15.4397C34.9285 15.4746 34.8883 15.4816 34.8836 15.5421L34.8269 16.1027H34.8246ZM17.4713 42.56L17.5186 42.7135L17.6485 42.6158L17.4713 42.56ZM8.99545 10.9965L8.83486 11.043L8.93405 11.1663L8.99545 10.9988V10.9965ZM18.3404 23.2794L18.4963 23.2329L18.3971 23.1096L18.3404 23.2771V23.2794ZM21.6254 38.6331L21.5829 38.4749L21.453 38.5726L21.6231 38.6331H21.6254ZM27.5106 11.8479L27.3547 11.8944L27.4539 12.0177L27.5106 11.8502V11.8479ZM16.7817 24.6403L16.9376 24.5984L16.8384 24.4705L16.7817 24.638V24.6403ZM28.375 45.2864L28.4222 45.4399L28.5474 45.3422L28.3773 45.2864H28.375ZM24.0485 8.43983L24.0957 8.59337L24.2209 8.49566L24.0508 8.43983H24.0485ZM8.64829 11.5059L8.80416 11.464L8.70497 11.3361L8.64829 11.5036V11.5059ZM40.8326 45.9657L40.9931 45.9238L40.894 45.7959L40.8326 45.9634V45.9657ZM17.469 42.5576L17.4265 42.3994L17.2966 42.4971L17.4666 42.5576H17.469ZM26.6439 5.71106L26.6911 5.86459L26.8163 5.76689L26.6463 5.71106H26.6439Z" fill="#415970"/>
<path fill-rule="evenodd" clip-rule="evenodd" d="M11.2437 8.95173L11.4043 8.90521L11.3004 8.78191L11.2437 8.94941V8.95173ZM5.18848 8.60976L5.34434 8.56324L5.24516 8.43994L5.18848 8.60744V8.60976Z" fill="#229BB5"/>
<path fill-rule="evenodd" clip-rule="evenodd" d="M16.9518 24.3054C16.9683 24.3217 17.0037 24.2333 17.0037 24.2542C17.0037 24.2635 17.025 24.2333 17.025 24.2333C17.0202 24.2379 16.7203 24.0751 16.9518 24.3054ZM21.1059 26.862C21.1224 26.8783 21.1578 26.7899 21.1578 26.8108C21.1578 26.8201 21.1791 26.7899 21.1791 26.7899C21.1744 26.7945 20.8744 26.6317 21.1059 26.862ZM2.24591 15.9423C2.26244 15.9586 2.29786 15.8701 2.29786 15.8911C2.29786 15.9004 2.31912 15.8702 2.31912 15.8702C2.31439 15.8748 2.01447 15.712 2.24591 15.9423Z" fill="#415970"/>
</g>
<defs>
<clipPath id="clip0_107_533">
<rect width="87" height="66" fill="white"/>
</clipPath>
</defs>
</svg>
