<svg width="50" height="43" viewBox="0 0 50 43" fill="none" xmlns="http://www.w3.org/2000/svg">
<path d="M46.9457 39.9308C45.3593 38.3574 44.7911 36.3849 44.578 34.2715C44.2938 31.3831 44.649 28.5417 45.0989 25.7003C45.7618 21.4735 45.2409 17.411 43.4651 13.5599C40.3161 6.67947 35.0361 2.31172 27.5542 0.597489C23.3633 -0.365296 19.2199 -0.177436 15.2184 1.255C7.78386 3.90853 2.81169 8.95728 0.728108 16.6361C-0.621482 21.6144 -0.100588 26.4518 2.33815 30.9839C5.60558 37.0659 10.7198 40.7527 17.5151 42.2086C21.5165 43.0774 25.3996 42.7487 29.2116 41.4337C32.4316 40.33 35.2019 38.4749 37.5932 36.0562C37.9484 35.6804 38.2799 35.1873 38.7297 36.0562C40.837 40.236 44.4596 41.8798 48.9819 41.9033C49.2897 41.9033 49.6685 41.9503 50 41.5276C48.7925 41.1753 47.7744 40.7527 46.9457 39.9308ZM23.6001 37.1363C22.4163 37.5355 21.1851 37.5825 20.0012 37.2068C11.7853 34.6707 6.95517 26.7571 8.44682 18.3738C9.53596 12.3153 14.6976 6.9143 20.7589 5.55231C22.0374 5.27052 23.2923 5.27052 24.5235 5.71669C24.855 5.8341 24.8313 6.30375 24.4998 6.3742C24.192 6.44465 23.8606 6.53858 23.5528 6.60902C18.2728 7.78315 14.6739 10.9533 12.5429 15.8142C8.42314 25.2307 14.6976 33.0269 21.4218 35.7509C22.1321 36.0327 22.8188 36.3379 23.5764 36.5023C23.7422 36.5493 23.9789 36.5728 23.9789 36.7841C23.9789 37.0189 23.7659 37.0894 23.6001 37.1363ZM35.1308 20.6516C34.9888 25.9587 32.5737 30.209 28.7854 33.7549C27.9567 34.5298 26.9859 34.7176 25.8968 34.2715C21.8717 32.6042 18.841 30.0446 18.107 25.536C17.3257 20.6046 20.2853 15.0158 24.4762 12.9493C29.4483 10.4836 35.1782 13.8651 35.1308 19.5714C35.1308 19.9236 35.1308 20.2759 35.1308 20.6516Z" fill="#516FE9"/>
<path d="M23.9791 36.8082C23.9791 37.043 23.766 37.09 23.6003 37.137C22.4164 37.5362 21.1852 37.5831 20.0014 37.2074C11.7854 34.6713 6.95533 26.7577 8.44698 18.3744C9.53612 12.3159 14.6977 6.9149 20.759 5.55291C21.7061 5.34157 23.0447 5.06284 24.4016 5.55288C25.0172 5.67029 25.0172 6.44524 24.4016 6.58614L23.5529 6.58615C18.2729 7.76027 14.674 10.9304 12.5431 15.7913C8.4233 25.2313 14.6977 33.0275 21.422 35.7515C22.1323 36.0333 22.8189 36.3385 23.5766 36.5029C23.7423 36.5499 23.9554 36.5734 23.9791 36.8082Z" fill="white"/>
</svg>
