<svg width="66" height="32" viewBox="0 0 66 32" fill="none" xmlns="http://www.w3.org/2000/svg">
<path d="M32.5745 11.1808L29.7708 14.3509L28.6614 15.5905C28.7622 15.2451 28.0562 13.9852 27.0477 12.7456C26.6644 12.2782 26.2812 11.8108 25.8576 11.3637C24.486 9.9209 22.9933 8.53906 21.2586 7.27913C20.3912 6.64917 19.4836 6.03954 18.475 5.51118C17.9707 5.247 17.4463 5.00315 16.9017 4.75929C16.6193 4.65769 16.3369 4.55608 16.0545 4.45447C15.7519 4.37319 15.4695 4.27158 15.167 4.21062C14.0172 3.92612 12.5851 3.74323 11.0723 3.86516C9.59977 3.96676 8.02644 4.33255 6.55396 4.90154C6.97755 4.55608 7.40114 4.23094 7.86507 3.92612C8.83328 3.25552 9.90234 2.74748 11.0117 2.32074C12.0808 1.89399 13.2507 1.62981 14.4206 1.50789C16.7605 1.24371 19.181 1.73142 21.3796 2.6662C22.7714 3.25552 24.1632 4.04805 25.4138 4.92186C26.6846 5.79568 27.8142 6.79142 28.8025 7.70588C29.7909 8.62034 30.6381 9.47384 31.2836 10.0835C31.9291 10.6931 32.3728 11.0792 32.5745 11.1808Z" fill="#516FE9" stroke="#516FE9"/>
<path d="M39.5133 10.6525H38.8678C38.303 10.6525 38.061 10.6322 36.9314 10.7134L36.9718 10.0428V9.88027V9.57545C36.9718 9.35192 36.9516 9.10806 36.9314 8.88453C36.9112 8.66099 36.8911 8.41714 36.8507 8.1936L36.8104 7.88878L36.7902 7.82782L36.77 7.76686V7.72621L36.7499 7.74653L36.6692 7.84814C36.3666 8.1936 36.0641 8.53907 35.7615 8.86421C34.5109 10.2867 33.2603 11.6685 32.0299 13.0707C29.569 15.8547 27.1283 18.5778 24.728 21.2805C23.5177 22.642 22.3074 24.0036 20.8551 25.1416C20.4921 25.4261 20.1088 25.6902 19.7256 25.9341C19.3423 26.178 18.9187 26.3812 18.4951 26.5844C17.648 26.9502 16.7604 27.2347 15.8527 27.3769C12.222 27.9662 8.3693 26.8486 5.74707 24.2474C5.08143 23.5565 4.49647 22.7843 4.01237 21.9308C3.56861 21.0773 3.18536 20.1832 2.96348 19.2484C2.49955 17.3788 2.4592 15.3873 2.90297 13.5178C3.20553 12.1766 3.75015 10.8963 4.4763 9.79899C5.22263 8.70164 6.15049 7.78718 7.15904 7.07593C8.16759 6.36469 9.23665 5.87697 10.2855 5.53151C10.5478 5.45023 10.81 5.36894 11.0722 5.30798C11.3344 5.24701 11.5967 5.20637 11.8387 5.14541C12.343 5.08444 12.8271 4.98284 13.3112 4.98284C13.876 4.94219 14.4206 4.96252 14.9249 5.02348C14.4206 4.90155 13.9163 4.79995 13.3919 4.73898C11.6572 4.51545 9.88212 4.71866 8.14742 5.12509C7.50195 5.28766 6.81614 5.51119 6.23118 5.7144C5.94878 5.79569 5.62605 5.91762 5.34365 6.03954C4.4763 6.93368 3.72998 7.92943 3.12485 8.98613C2.56006 9.98188 2.07596 11.0386 1.73305 12.1359C1.41031 13.2333 1.16826 14.3306 1.06741 15.4686C0.865696 17.704 1.10775 19.9596 1.91459 21.9308C2.70126 23.902 4.11322 25.548 5.64622 26.8486C5.82776 27.0111 6.04964 27.1737 6.25135 27.3159C6.45306 27.4582 6.65477 27.6208 6.85648 27.7427C7.28007 28.0069 7.68349 28.2914 8.14742 28.4946C9.01477 28.9823 9.92247 29.3074 10.81 29.6123C12.6254 30.1609 14.4609 30.3641 16.1956 30.2422C19.0196 30.039 21.6418 28.8807 23.9615 27.3972C26.3013 25.9138 28.3991 24.1255 30.2952 22.2356C32.1912 20.3254 33.9259 18.2933 35.5194 16.2205C36.3263 15.1841 37.1129 14.1477 37.8794 13.091C38.2627 12.5627 38.6459 12.0547 39.009 11.5263L39.5536 10.7744C39.594 10.7338 39.6343 10.6728 39.6545 10.6525C39.6142 10.6525 39.5536 10.6525 39.5133 10.6525Z" fill="#FFB501" stroke="#FFB501"/>
<path d="M39.8964 20.9148L39.8762 21.0164L39.735 21.8089L39.5938 22.6014L39.5535 22.8047C39.5535 22.825 39.5535 22.825 39.5535 22.825L38.8273 23.0079L38.0608 23.2111L37.2943 23.4143L36.8304 23.5362L36.7497 23.4549L36.4875 23.1501C36.3059 22.9469 36.1244 22.7437 35.963 22.5405C35.5999 22.1341 35.2369 21.748 34.8334 21.3618C34.309 20.8335 33.5828 20.3051 33.2803 20.3458C33.8854 19.6549 34.4905 18.9639 35.0553 18.2527C35.5394 17.6634 36.0235 17.0537 36.4875 16.4441C36.548 16.6676 36.8102 17.0334 36.9716 17.3179C37.1733 17.6227 37.4355 17.9479 37.6775 18.273C38.3028 19.1265 38.9685 19.98 39.7148 20.7725L39.856 20.9148C39.8964 20.9148 39.8762 20.8945 39.8964 20.9148Z" fill="#FFB501" stroke="#FFB501"/>
<path d="M58.4743 3.68241C57.6675 3.41824 56.8405 3.23534 56.0134 3.15406C54.3998 2.97117 52.7861 3.09309 51.1926 3.45888C49.6394 3.82466 48.1266 4.39366 46.6945 5.08458C45.2623 5.77551 43.8907 6.56804 42.5594 7.42153C42.2367 7.64506 41.8938 7.84828 41.571 8.07181L40.7642 8.62049L40.6028 8.60017C40.502 8.60017 40.4213 8.57985 40.3204 8.55952C40.1389 8.5392 39.9573 8.49856 39.7556 8.45792C39.5539 8.41727 39.3724 8.39695 39.1707 8.35631L38.9085 8.33599L38.6664 6.97446L38.505 6.12097L38.4849 6.06L38.7067 5.81615C39.4732 5.0033 40.3406 4.25141 41.2886 3.62145C43.1645 2.36153 45.3027 1.48771 47.5416 1.16257C48.3485 1.04064 49.1755 1 50.0227 1C50.8497 1.02032 51.6969 1.12193 52.5037 1.26418C54.1174 1.569 55.6302 2.13799 56.8606 2.76795C57.4859 3.07277 58.0104 3.39791 58.4743 3.68241Z" fill="#516FE9" stroke="#516FE9" stroke-linejoin="round"/>
<path d="M64.7877 19.1267C64.4246 21.4027 63.5976 23.6584 62.1251 25.5279C61.8226 25.9343 61.4797 26.3001 61.1166 26.6659C60.6728 26.8082 60.108 26.9911 59.4424 27.1536C57.7884 27.6007 55.5696 27.9258 53.7542 27.8649C53.028 27.8445 52.2817 27.7836 51.5556 27.6413C51.253 27.5804 50.9303 27.5194 50.6277 27.4381C51.374 27.4991 52.2615 27.4788 53.1894 27.3162C54.0568 27.1943 54.9241 26.9504 55.7511 26.6659C57.1227 26.1376 58.4137 25.406 59.5433 24.4102C60.6527 23.4145 61.6209 22.1749 62.226 20.6914C62.5286 19.9599 62.7303 19.1877 62.8715 18.3951C62.9723 17.6026 63.053 16.7694 62.9925 15.9363C62.932 15.1031 62.811 14.2496 62.5487 13.4367C62.3067 12.6036 61.9839 11.7704 61.52 10.9982C60.7132 9.47409 59.281 7.92967 57.4455 6.73071C55.6301 5.53176 53.3709 4.67826 51.0109 4.49537C50.9302 4.49537 50.8294 4.49537 50.7487 4.47505C52.4834 3.98734 54.2786 3.82477 56.0739 4.0483C58.1515 4.29216 60.1887 5.12533 61.7016 6.60878C63.2345 8.09224 64.1422 10.1853 64.6062 12.3597C65.0499 14.5341 65.1306 16.8507 64.7877 19.1267Z" fill="#FFB501" stroke="#FFB501" stroke-linejoin="round"/>
<path d="M60.5109 27.2554C59.3209 28.3121 57.8887 29.1453 56.3759 29.7549C53.794 30.7507 50.6272 31.1368 47.2788 30.3646C45.6046 29.9785 43.8901 29.3079 42.2159 28.3528C41.3687 27.8854 40.5215 27.357 39.7147 26.7271C39.3112 26.4223 38.8877 26.0971 38.4842 25.772L38.343 25.65L38.3027 25.6094L38.2624 25.5688L38.2422 25.5484H38.2624C38.2825 25.5484 38.3027 25.5484 38.3229 25.5484H38.3632H38.4237C38.7666 25.4875 39.0894 25.4062 39.4323 25.3046C39.7752 25.203 40.0979 25.081 40.4408 24.9591C40.6022 24.8982 40.7837 24.8169 40.9451 24.7559L41.3283 24.5933L41.4494 24.5324L41.4897 24.512V24.4714L41.5099 24.4104L41.5704 24.1666L41.6309 23.8211L41.6713 23.5366C41.6914 23.3537 41.7318 23.1708 41.7519 22.988C41.7721 22.8457 41.7923 22.7035 41.8125 22.5612L41.8326 22.5002V22.4799L41.8528 22.5002L41.8931 22.5409L42.0343 22.6831C42.0948 22.7644 42.1755 22.8457 42.236 22.9067C42.3772 23.0489 42.5184 23.2115 42.6596 23.3537C43.8094 24.512 45.1407 25.5688 46.6333 26.4426C48.126 27.2961 49.78 27.987 51.5349 28.2918C53.8949 28.6982 56.4969 28.3934 58.4939 27.8651C59.2603 27.7025 59.9462 27.4586 60.5109 27.2554Z" fill="#516FE9" stroke="#516FE9" stroke-linejoin="round"/>
</svg>
