<svg width="45" height="46" viewBox="0 0 45 46" fill="none" xmlns="http://www.w3.org/2000/svg">
<path d="M44.0068 29.9106C43.1411 32.7725 41.7309 35.3452 39.8117 37.6365C37.9325 39.8817 35.7243 41.7193 33.1269 43.0972C30.8156 44.3228 28.3721 45.1133 25.7978 45.5285C25.4703 45.5823 25.2365 45.4915 25.0212 45.2393C23.9632 43.9999 22.8883 42.7758 21.8318 41.5348C21.5781 41.2365 21.289 40.9566 21.1152 40.629C21.146 40.3984 21.2952 40.2938 21.4166 40.1739C22.5331 39.0543 23.6557 37.9394 24.7675 36.8169C24.972 36.6108 25.2012 36.5093 25.4841 36.4401C27.9261 35.8419 30.0867 34.7393 31.8936 32.9462C33.3884 31.4638 34.5094 29.763 35.2353 27.7915C35.3475 27.484 35.366 27.1441 35.5551 26.8489C35.8119 26.8627 35.8458 27.0842 35.9227 27.2395C36.5424 28.4636 37.1529 29.6938 37.7711 30.9194C37.848 31.0732 37.8987 31.2439 38.0894 31.41C40.1193 30.6657 42.0954 29.6953 44.1883 28.9234C44.2775 29.3109 44.0976 29.6092 44.0068 29.9075V29.9106Z" fill="#BBE1ED"/>
<path d="M23.8584 45.5795C22.8649 46.1961 17.3781 45.458 14.384 44.2631C8.80951 42.0364 4.70053 38.2227 2.08936 32.7881C3.25347 30.9243 4.3007 29.0451 5.46635 27.292C5.69548 27.2228 5.82466 27.332 5.95998 27.3997C7.41627 28.1378 8.89256 28.839 10.3227 29.6279C10.5749 29.7663 10.7733 29.9401 10.9178 30.1923C11.3853 31.0089 11.9405 31.7716 12.5894 32.4467C14.0749 33.9937 15.7926 35.1947 17.8256 35.939C19.3803 36.5096 20.9858 36.7218 22.622 36.7894C22.7527 36.794 22.9049 36.751 23.0433 36.9555C21.93 38.1627 20.7013 39.2791 19.5202 40.537C20.975 42.2286 22.4144 43.9017 23.8584 45.581V45.5795Z" fill="#5165AF"/>
<path d="M13.4616 8.83367C13.1925 10.4591 12.9234 12.0861 12.6558 13.7116C12.5958 14.076 12.4621 14.3851 12.2099 14.6819C10.4983 16.7103 9.45567 19.0508 9.1312 21.685C8.88669 23.6534 9.06046 25.5972 9.70479 27.4856C9.754 27.6286 9.84012 27.7716 9.72632 28.0638C8.16393 27.3564 6.71532 26.4722 5.10525 25.7463C3.95345 27.6255 2.80779 29.4893 1.65598 31.3685C0.705626 30.4458 -0.210899 25.0082 0.0428373 21.6927C0.527242 15.3524 3.59206 10.1669 7.23817 6.87299C9.28651 7.31279 11.3518 7.82334 13.3555 8.30775C13.5108 8.51996 13.4878 8.67528 13.4616 8.8306V8.83367Z" fill="#FCB415"/>
<path d="M44.9664 24.5715C44.9203 25.4527 44.7634 26.3277 44.6543 27.2042C44.6235 27.4626 44.4359 27.5856 44.2191 27.6763C43.0965 28.1438 41.977 28.6144 40.8544 29.0803C40.1178 29.3863 39.3812 29.6877 38.6861 29.9738C38.457 29.8938 38.4216 29.7277 38.3539 29.5924C37.585 28.0746 36.8469 26.5383 36.0334 25.0436C35.9196 24.8345 35.8919 24.6176 35.9181 24.3885C36.1503 22.2694 35.7812 20.2411 34.9877 18.2804C34.3895 16.801 33.5606 15.4724 32.4626 14.3021C31.7599 13.5532 31.0186 12.8581 30.1667 12.283C30.0806 12.2261 30.0006 12.1584 29.9253 12.0862C29.8914 12.0539 29.8822 11.9985 29.833 11.8924C31.5999 11.6156 33.3361 11.3465 35.1507 11.062C34.9877 8.906 34.7862 6.78538 34.654 4.67861C34.9385 4.59557 35.0646 4.74012 35.2014 4.83239C36.3456 5.59513 37.4036 6.47782 38.3724 7.44202C39.7641 8.82757 40.9651 10.3792 41.9601 12.0846C43.2887 14.3606 44.1499 16.8056 44.6358 19.3845C44.9587 21.0961 45.0587 22.8307 44.968 24.5684L44.9664 24.5715Z" fill="#F05157"/>
<path d="M33.9234 9.93322C33.7327 10.1747 33.5574 10.1808 33.3836 10.207C31.6874 10.4638 29.9897 10.719 28.295 10.9912C28.0367 11.0327 27.8137 10.9758 27.5892 10.8836C25.71 10.1178 23.7524 9.7856 21.7333 9.90093C19.565 10.0224 17.5382 10.6514 15.6605 11.7447C15.1377 12.0492 14.6195 12.3614 14.1597 12.7781C13.9336 12.5844 14.0074 12.3706 14.0382 12.1784C14.2565 10.8251 14.4841 9.47496 14.7056 8.1217C14.7394 7.91718 14.7732 7.70804 14.6133 7.4543C12.5942 6.97605 10.5258 6.48857 8.42676 5.99186C10.0584 4.23724 14.7963 1.87211 18.7254 1.22931C25.0134 0.200526 30.6202 2.04434 33.3805 3.80512C33.6312 5.85038 33.7481 7.93409 33.9234 9.93322Z" fill="#3CC1CF"/>
</svg>
