<svg width="89" height="23" viewBox="0 0 89 23" fill="none" xmlns="http://www.w3.org/2000/svg">
<path d="M84.8547 0.273615C84.4855 0.387059 84.0879 0.642309 83.7755 0.95428C83.3779 1.35133 83.094 1.91856 83.0088 2.48578C82.9236 3.053 83.0088 3.67694 83.2643 4.2158C83.5199 4.75466 83.9459 5.20843 84.4571 5.52041C84.9683 5.83238 85.593 5.97418 86.1894 5.91746C86.7857 5.8891 87.3821 5.66221 87.8365 5.29352C88.3193 4.92482 88.6601 4.41433 88.8588 3.84711C89.228 2.6843 88.8588 1.3797 87.9217 0.585587C87.5525 0.273615 87.0413 0.0467271 86.6438 0.018366C86.2462 -0.038356 85.9622 0.0467271 85.9906 0.13181C85.9906 0.216893 86.2462 0.273615 86.5586 0.41542C86.8709 0.528865 87.2685 0.727392 87.6093 1.03936C87.8365 1.26625 88.0637 1.5215 88.2057 1.80511C88.3477 2.032 88.4329 2.31561 88.4613 2.57086C88.5181 2.85447 88.5181 3.10972 88.4613 3.39333C88.3761 3.93219 88.0921 4.47105 87.6377 4.83974C87.2117 5.20843 86.6154 5.46368 85.9906 5.46368C85.3658 5.46368 84.7127 5.23679 84.2299 4.78302C84.0027 4.55613 83.7755 4.27252 83.6335 3.93219C83.4915 3.59186 83.4063 3.1948 83.4347 2.79775C83.4631 1.97528 84.0027 1.15281 84.7695 0.727392C85.025 0.585587 85.309 0.500504 85.5362 0.443781C85.7634 0.387059 85.9622 0.358698 85.9906 0.273615C86.019 0.216893 85.877 0.160171 85.6498 0.160171C85.3942 0.13181 85.0818 0.188532 84.8547 0.273615Z" fill="#39395B"/>
<path d="M86.0455 2.03166C86.1023 2.06002 86.1307 2.06002 86.1591 2.08838C86.2159 2.1451 86.2159 2.20182 86.1875 2.28691C86.1875 2.37199 86.1591 2.40035 86.1023 2.42871C86.0455 2.45707 85.9887 2.45707 85.8751 2.45707H85.7615C85.7047 2.34363 85.7047 2.17346 85.7615 2.08838C85.7615 2.08838 85.7331 2.08838 85.8183 2.06002C85.8751 2.06002 85.9319 2.0033 85.9035 1.97494C85.8751 1.94657 85.8751 1.88985 85.8183 1.86149C85.7899 1.86149 85.7899 1.83313 85.7047 1.83313C85.6479 1.83313 85.5911 1.86149 85.5343 1.88985C85.5343 1.91821 85.5059 1.91821 85.5059 1.94657C85.4775 1.97494 85.4775 2.0033 85.4775 2.03166C85.4775 2.06002 85.4775 2.08838 85.4491 2.08838C85.4207 2.25855 85.4491 2.37199 85.5059 2.54216C85.5343 2.62724 85.6195 2.68396 85.7047 2.68396C85.7899 2.68396 85.8183 2.68396 85.8751 2.68396C85.9603 2.68396 86.1023 2.68396 86.2443 2.57052C86.3579 2.51379 86.4147 2.34363 86.4147 2.20182C86.4147 2.1451 86.3863 2.03166 86.3295 1.97494C86.2727 1.88985 86.1875 1.86149 86.1023 1.86149C86.0171 1.83313 85.9035 1.86149 85.9035 1.91821C85.9035 1.97494 85.9887 2.0033 86.0455 2.03166Z" fill="#39395B"/>
<path d="M87.0991 2.31502C87.1559 2.17322 87.1275 2.00305 87.0991 1.86125C87.0423 1.71944 86.9571 1.54928 86.8435 1.46419C86.6731 1.32239 86.4459 1.29403 86.2472 1.26567C86.0484 1.2373 85.8496 1.2373 85.6508 1.2373H85.3668C85.2532 1.2373 85.1964 1.2373 85.0544 1.2373C84.9976 1.2373 84.884 1.29403 84.8556 1.35075C84.7988 1.43583 84.7988 1.49255 84.7988 1.54928V1.83289C84.7988 2.627 84.7988 3.39274 84.7988 4.15849C84.7988 4.21521 84.7988 4.27193 84.8272 4.35702C84.8556 4.4421 84.9408 4.52718 84.9976 4.55555C85.0828 4.58391 85.1396 4.58391 85.1964 4.58391H85.3384C85.3952 4.58391 85.4804 4.58391 85.5656 4.52718C85.6508 4.47046 85.6792 4.35702 85.6792 4.3003C85.6792 4.15849 85.6792 4.10177 85.6792 3.98832V3.39274C85.6792 3.33602 85.6792 3.33602 85.6792 3.33602C85.6792 3.33602 85.7076 3.30766 85.736 3.30766C85.7928 3.2793 85.878 3.2793 85.9632 3.30766C86.1052 3.33602 86.2756 3.44947 86.304 3.56291V3.61963V3.70471L86.3323 3.84652C86.3323 3.9316 86.3607 4.04505 86.3607 4.13013C86.3607 4.21521 86.3607 4.35702 86.4743 4.49882C86.5879 4.64063 86.7583 4.61227 86.8435 4.61227H86.9855C87.0423 4.61227 87.1559 4.58391 87.2127 4.52718C87.2695 4.47046 87.2695 4.35702 87.2411 4.27193C87.2127 4.21521 87.2127 4.15849 87.1843 4.15849V4.04505L87.1559 3.9316L87.0991 3.70471C87.0707 3.56291 87.0423 3.39274 86.9855 3.25094C86.9287 3.10913 86.7867 3.02405 86.7015 2.99569C86.6163 2.96733 86.5595 2.96733 86.5595 2.99569C86.5595 3.05241 86.7299 3.10913 86.7867 3.33602C86.8151 3.44947 86.8151 3.56291 86.8435 3.76144C86.8719 3.9316 86.9003 4.13013 86.9003 4.3003L86.9287 4.38538C86.9287 4.41374 86.9287 4.41374 86.9287 4.41374H86.9003C86.7867 4.41374 86.6447 4.4421 86.5879 4.41374C86.5595 4.41374 86.5311 4.35702 86.5311 4.24357C86.5311 4.13013 86.5027 4.01669 86.5027 3.90324L86.4743 3.73307V3.64799C86.4743 3.61963 86.4743 3.59127 86.4459 3.53455C86.3891 3.39274 86.3039 3.30766 86.1904 3.22258C85.9916 3.08077 85.7076 3.02405 85.452 3.19422C85.3668 3.25094 85.3384 3.36438 85.3668 3.4211V3.59127C85.3668 3.70471 85.3668 3.81816 85.3668 3.9316C85.3668 4.04505 85.3668 4.15849 85.3668 4.27193C85.3668 4.32866 85.3668 4.35702 85.3668 4.35702C85.3668 4.35702 85.3384 4.38538 85.2816 4.38538C85.168 4.38538 85.026 4.38538 85.026 4.35702C84.9976 4.35702 84.9976 4.21521 84.9976 4.10177C84.9976 3.61963 84.9976 3.13749 84.9976 2.59863C84.9976 2.34338 84.9976 2.08814 84.9976 1.77616C84.9976 1.69108 84.9976 1.63436 84.9976 1.54928C84.9976 1.52091 84.9976 1.49255 84.9976 1.49255C84.9976 1.49255 84.9976 1.49255 85.026 1.46419C85.0544 1.46419 85.1396 1.46419 85.2248 1.46419C85.31 1.46419 85.3952 1.46419 85.452 1.46419C85.7644 1.46419 86.1052 1.43583 86.4175 1.49255C86.5595 1.52092 86.7015 1.57764 86.7867 1.69108C86.8719 1.80453 86.9287 1.94633 86.9287 2.08814C86.9571 2.45683 86.5311 2.79716 86.5311 2.85388C86.5595 2.96733 87.0139 2.71208 87.0991 2.31502Z" fill="#39395B"/>
<path d="M12.4953 4.6129C10.1667 7.61917 8.34915 10.2567 7.01443 12.4405C6.02048 14.1138 5.31052 15.5035 4.85614 16.6096C4.71415 16.9499 4.65735 17.2052 4.65735 17.3186C4.65735 17.5739 4.79934 17.7157 5.05493 17.7157C5.11173 17.7157 5.16852 17.7157 5.22532 17.7157C5.87849 17.659 6.50325 17.6022 7.04282 17.6022C7.412 17.6022 7.61079 17.7157 7.61079 17.9426C7.61079 18.1127 7.5256 18.2546 7.32681 18.2829C7.21322 18.3113 6.87243 18.3396 6.24767 18.3964C4.65735 18.4814 3.03864 18.8785 1.36313 19.6442C0.795157 19.8995 0.397579 20.0413 0.227188 20.0413C0.0851955 20.0413 0 19.9846 0 19.8428C0 19.5875 0.113594 19.389 0.340782 19.2755C0.709962 19.077 1.30633 18.7934 2.15828 18.4247L2.30028 18.368C2.89665 17.0067 3.46462 15.8155 3.97579 14.7945C4.94134 12.9227 5.93528 11.221 6.98603 9.66116C7.4972 8.89541 8.46275 7.47736 9.93947 5.43537C10.0247 5.29356 10.0815 5.20848 10.0815 5.1234C10.0815 4.98159 9.99627 4.89651 9.85427 4.89651C9.71228 4.89651 9.20111 4.98159 8.32076 5.1234C7.09962 5.32192 6.16247 5.49209 5.5661 5.66226C4.91294 6.54145 4.37337 7.39228 3.97579 8.24311C3.86219 8.47 3.7202 8.6118 3.52141 8.64016C3.23743 8.69689 3.12383 8.52672 3.18063 8.18639C3.23743 7.76097 3.7202 6.91014 4.57216 5.63389C5.25372 4.6129 5.96368 3.73371 6.70204 2.99632C7.07122 2.62763 7.32681 2.45746 7.4688 2.45746C7.72439 2.45746 7.83798 2.5709 7.83798 2.79779C7.83798 2.96796 7.63919 3.25157 7.24161 3.64862C6.90083 3.96059 6.75884 4.21584 6.75884 4.35765C6.75884 4.47109 6.81564 4.52781 6.95763 4.52781C7.07122 4.52781 7.4972 4.47109 8.26396 4.32929C11.4162 3.81879 14.2844 3.53518 16.8971 3.50682C17.2379 3.02468 17.4651 2.68435 17.5787 2.51418C17.8342 2.14549 18.0898 1.94696 18.2602 1.94696C18.4306 1.94696 18.5442 2.08877 18.5442 2.34401C18.5442 2.40074 18.2034 2.9396 17.5219 3.93223C17.1243 4.49945 16.7267 5.2652 16.3007 6.17275C16.1871 6.428 15.9316 7.08031 15.5056 8.15803C15.4204 8.41327 15.2784 8.52672 15.108 8.52672C14.8524 8.52672 14.7388 8.41327 14.7388 8.18639C14.7388 7.87442 15.1364 6.82506 15.9599 5.03831C16.0167 4.92487 16.0167 4.83979 16.0167 4.72634C16.0167 4.47109 15.7612 4.32929 15.25 4.32929C14.3412 4.44273 13.4041 4.49945 12.4953 4.6129Z" fill="#4D64C2"/>
<path d="M44.8127 12.4406C43.9323 13.9154 42.9952 15.7022 42.0296 17.8576C41.4616 19.1338 41.1777 19.8996 41.2345 20.1548C41.2629 20.3817 41.4332 20.4952 41.774 20.4952C41.8308 20.4952 42.2 20.4668 42.8816 20.4101C43.2792 20.3817 43.6199 20.3534 43.9323 20.3534C44.2731 20.3534 44.4151 20.4668 44.4151 20.6937C44.4151 20.8922 44.3015 21.0057 44.1027 21.0624C44.0459 21.0908 43.4779 21.1475 42.3988 21.2326C41.5468 21.2893 40.6381 21.4878 39.6441 21.7714C39.3602 21.8565 38.5934 22.1401 37.3439 22.6223C37.2019 22.679 37.0599 22.7073 36.9747 22.7073C36.7475 22.7073 36.6339 22.5939 36.6339 22.367C36.6339 22.1685 36.7475 22.0267 36.9463 21.9132C37.4859 21.658 38.1674 21.4027 38.9342 21.1475C39.7293 19.1906 40.5529 17.2904 41.4616 15.4753C40.4109 16.4112 39.275 17.262 37.997 18.0561C36.2363 19.1338 34.788 19.7011 33.6805 19.7011C32.8285 19.7011 32.1753 19.3891 31.7494 18.7935C31.3802 18.283 31.1814 17.6024 31.1814 16.7799C31.1814 15.3335 31.6642 13.7453 32.6581 12.0436C33.4533 10.6539 34.5892 9.32093 36.0659 8.04468C37.5427 6.76844 39.1614 5.80416 40.9789 5.1235C42.2284 4.66972 43.3927 4.44283 44.5287 4.44283C45.1819 4.44283 45.8066 4.52792 46.4314 4.66972C47.3685 3.19495 48.0217 2.4292 48.3341 2.4292C48.5613 2.4292 48.6465 2.54264 48.6465 2.76953C48.6465 2.88298 48.5897 2.99642 48.5045 3.13823C47.7093 4.13086 47.1129 5.01005 46.7154 5.71908C46.4598 6.20122 46.0338 7.10877 45.4942 8.41338C45.3806 8.66863 45.2386 8.78207 45.0399 8.78207C44.8127 8.78207 44.6991 8.66863 44.6991 8.44174C44.6991 8.27157 44.8127 7.90288 45.0683 7.33566C45.3806 6.62663 45.5226 6.20122 45.5226 6.03105C45.5226 5.52055 45.0683 5.2653 44.1311 5.2653C42.8248 5.2653 41.3481 5.74744 39.6725 6.74008C37.5711 7.98796 35.8955 9.54782 34.7028 11.3913C33.5953 13.0929 33.0273 14.7095 33.0273 16.1843C33.0273 16.8082 33.1409 17.2904 33.3965 17.6307C33.7089 18.0845 34.1632 18.283 34.7596 18.283C35.7252 18.283 37.1451 17.6307 39.0194 16.3545C40.4961 15.3335 41.6036 14.4543 42.3136 13.7169C42.4556 13.5467 42.5408 13.4049 42.5408 13.2631C42.5408 13.0929 42.4272 12.9795 42.2284 12.9795C41.8876 12.9795 41.0925 13.1497 39.7861 13.5184C39.0194 13.7453 38.5366 13.8303 38.3946 13.8303C38.139 13.8303 37.997 13.6885 37.997 13.4333C37.997 13.2348 38.1674 13.0929 38.4798 12.9795C39.4738 12.6675 40.6665 12.3556 42.0864 12.072C43.8471 11.7316 45.1535 11.5615 46.0054 11.5615C46.3462 11.5615 46.5166 11.6749 46.5166 11.9301C46.5166 12.1854 46.3178 12.3272 45.9202 12.3556C45.3806 12.3839 45.0115 12.4123 44.8127 12.4406Z" fill="#4D64C2"/>
<path d="M59.1828 10.6538C60.1199 10.4836 60.7163 10.3985 61.0287 10.3985C61.3127 10.3985 61.4831 10.512 61.4831 10.7389C61.4831 10.9374 61.3695 11.0792 61.1423 11.1359C61.0287 11.1643 60.7163 11.221 60.1767 11.2777C59.552 11.3628 59.1828 11.4479 59.0692 11.5897C58.9272 11.7315 58.7852 12.7241 58.6148 14.5392C58.4444 16.2976 58.3876 17.3186 58.4444 17.6306C58.5012 17.9142 58.6432 18.056 58.8988 18.056C58.9556 18.056 59.0124 18.056 59.0976 18.056C59.6088 17.9993 60.1199 17.9993 60.6595 17.9993C61.1991 17.9993 61.4547 18.1127 61.4547 18.368C61.4547 18.5949 61.2843 18.7083 60.9151 18.7367C59.694 18.8218 58.6148 18.9636 57.7061 19.1904C57.0529 19.3606 56.5133 19.5308 56.1158 19.6726L54.639 20.2682C54.497 20.3249 54.355 20.3532 54.2415 20.3532C54.0427 20.3532 53.9575 20.2682 53.9575 20.0696C53.9575 19.8427 54.0711 19.6726 54.2983 19.5591C54.9798 19.1904 55.8602 18.8501 56.9109 18.5098C56.9393 16.8365 57.1097 14.596 57.4789 11.7882C54.639 12.3271 52.6511 12.7525 51.572 13.0645C51.0892 13.6317 50.3509 14.596 49.3569 15.9856C48.9025 16.6096 48.6753 17.0066 48.6753 17.1485C48.6753 17.347 48.7889 17.4321 49.0445 17.4321C49.1297 17.4321 49.4989 17.4037 50.1521 17.347C50.4929 17.3186 50.8052 17.3186 51.0608 17.3186C51.43 17.3186 51.6004 17.4321 51.6004 17.6589C51.6004 17.8858 51.4016 17.9993 51.004 18.0276C49.7829 18.1127 48.7605 18.2545 47.9086 18.4531C47.1986 18.6232 46.6591 18.7934 46.3183 18.9352L44.8416 19.5591C44.6712 19.6442 44.5008 19.6726 44.3588 19.6726C44.2168 19.6726 44.1316 19.5591 44.1316 19.3606C44.1316 19.1904 44.2736 19.0203 44.5576 18.8501C45.2959 18.4814 46.0911 18.1411 46.9998 17.8291L47.1418 17.6306C48.5902 15.5602 49.6125 14.1705 50.1805 13.4332C50.0385 13.4615 49.4705 13.6033 48.5334 13.8869C48.3914 13.9437 48.2778 13.9437 48.1642 13.9437C47.9654 13.9437 47.8802 13.8302 47.8802 13.575C47.8802 13.4048 48.1358 13.2063 48.647 13.0645C49.0729 12.9227 49.5273 12.7809 50.0385 12.639C50.5497 12.4972 50.8904 12.4122 51.0324 12.3838L51.2312 12.1853C53.9575 9.09392 56.3713 6.54143 58.5012 4.52779C59.2112 3.84713 59.7508 3.36499 60.1199 3.10974C60.3471 2.93958 60.5459 2.85449 60.6879 2.85449C60.9719 2.85449 61.1139 2.9963 61.1139 3.27991C61.1139 3.39335 61.0571 3.59188 60.9719 3.84713C60.0063 6.31454 59.41 8.58342 59.1828 10.6538ZM57.5357 10.909C57.5925 10.3702 57.7629 9.49097 58.0468 8.27145C58.274 7.30717 58.4444 6.59815 58.5864 6.14437C58.6148 6.08765 58.6148 6.03093 58.6148 6.00257C58.6148 5.8324 58.5296 5.77568 58.3876 5.8324C58.2172 5.88912 57.1097 6.96684 55.065 9.12228C53.6167 10.6254 52.9067 11.4479 52.9067 11.5613C52.9067 11.7031 52.9635 11.7882 53.0771 11.7882C53.1623 11.7882 53.9291 11.6464 55.349 11.3344C55.917 11.221 56.6553 11.0792 57.5357 10.909Z" fill="#4D64C2"/>
<path d="M73.268 4.95337C72.0468 6.34306 70.8825 7.90292 69.7749 9.63294C69.6614 9.83147 69.6046 9.94491 69.6046 10.03C69.6046 10.1718 69.6897 10.2569 69.8885 10.2569C69.9453 10.2569 70.3145 10.2002 70.9677 10.1151C72.3308 9.94491 73.3248 9.85983 73.8643 9.83147C73.9495 9.71803 74.1483 9.46278 74.4323 9.06572C74.8867 8.41342 75.2275 8.10145 75.4262 8.10145C75.6534 8.10145 75.767 8.21489 75.767 8.44178C75.767 8.52686 75.7386 8.64031 75.6534 8.75375C75.625 8.78211 75.3694 9.1508 74.8867 9.83147C74.2619 10.739 73.6371 11.8735 72.984 13.2064C72.842 13.4617 72.7284 13.6035 72.5864 13.6035C72.3308 13.6035 72.1888 13.5184 72.1888 13.3199C72.1888 13.0646 72.3308 12.6676 72.6432 12.1004C72.984 11.4197 73.1544 11.0226 73.1544 10.9375C73.1544 10.7674 73.0408 10.6539 72.8136 10.6539C72.3308 10.6539 70.9961 10.8241 68.781 11.1644C67.8722 12.5541 67.1055 13.8587 66.5091 15.0215C65.856 16.2978 65.5152 17.1486 65.5152 17.5457C65.5152 17.8009 65.6572 17.9427 65.9696 17.9427C66.0831 17.9427 66.4523 17.9144 67.0203 17.8293C67.4463 17.7726 67.7871 17.7442 68.071 17.7442C68.3834 17.7442 68.5538 17.8576 68.5538 18.0845C68.5538 18.3114 68.355 18.4532 67.9574 18.5099C66.6227 18.6518 65.5152 18.8219 64.6348 19.0204C63.9249 19.1906 63.3853 19.3324 62.9593 19.5026C62.4765 19.7011 61.9654 19.8996 61.4542 20.0982C61.3122 20.1549 61.1702 20.1832 61.0566 20.1832C60.8862 20.1832 60.801 20.0982 60.801 19.8996C60.801 19.7011 60.8862 19.5877 61.0566 19.4742C61.3974 19.2473 62.1074 18.9637 63.2149 18.5667C63.7545 16.9501 64.578 15.135 65.7424 13.1781C66.9067 11.1928 68.1278 9.29261 69.4058 7.53423C70.1441 6.51323 70.5417 5.97437 70.5701 5.88929C70.6269 5.77584 70.6269 5.69076 70.5701 5.60568C70.5133 5.52059 70.4281 5.49223 70.2861 5.49223C70.1441 5.49223 69.8033 5.54895 69.2638 5.69076C68.6958 5.86093 68.2982 5.94601 68.1562 5.94601C67.9858 5.94601 67.8722 5.86093 67.8722 5.71912C67.8722 5.49223 67.9858 5.32207 68.1846 5.23698C69.1218 4.86829 70.5985 4.52796 72.6716 4.21599C74.9151 3.87565 77.1586 3.73385 79.402 3.73385C79.7428 3.22335 80.0268 2.79793 80.2824 2.51432C80.538 2.14563 80.7652 1.97546 80.9072 1.97546C81.1343 1.97546 81.2195 2.08891 81.2195 2.3158C81.2195 2.40088 80.9356 2.88302 80.3392 3.76221C79.686 4.78321 79.0612 6.00273 78.5217 7.42078C78.3797 7.73275 78.2377 7.87456 78.0389 7.78948C77.8969 7.73275 77.8117 7.61931 77.8117 7.44914C77.8117 7.16553 78.0673 6.42815 78.6069 5.2937C78.6921 5.09518 78.7489 4.95337 78.7489 4.86829C78.7489 4.6414 78.5501 4.52796 78.1809 4.52796C76.4202 4.58468 74.7731 4.69812 73.268 4.95337Z" fill="#4D64C2"/>
<path d="M18.0053 20.1551C18.488 20.5238 19.198 20.7506 19.8512 20.8074C21.5551 20.9208 23.3158 20.4954 24.8493 19.6446C26.3544 18.7937 27.6608 17.6026 28.6547 16.1562C28.8819 15.7875 29.1375 15.4471 29.3079 15.0501C29.3931 14.8515 29.5067 14.653 29.5919 14.4545L29.8474 13.8589C29.8758 13.7455 29.9326 13.6604 29.961 13.5469L30.0462 13.235L30.2166 12.611L30.3302 11.9587L30.387 11.6468C30.4154 11.5333 30.4154 11.4199 30.4154 11.3064C30.6426 9.5764 30.0746 7.56277 28.5695 6.39996C28.4275 6.28652 28.2571 6.17308 28.0867 6.08799C27.9163 6.00291 27.7176 5.91783 27.5472 5.8611C27.3484 5.80438 27.178 5.74766 27.0076 5.74766C26.8372 5.74766 26.6668 5.7193 26.4964 5.7193C26.326 5.7193 26.184 5.74766 26.0704 5.77602C25.9568 5.80438 25.8433 5.8611 25.7581 5.88947C25.5877 5.97455 25.5025 6.05963 25.5309 6.14471C25.5593 6.2298 25.6729 6.28652 25.8149 6.34324C25.9001 6.3716 25.9852 6.39996 26.0988 6.42832C26.2124 6.45669 26.326 6.48505 26.4396 6.51341C26.5532 6.54177 26.6952 6.59849 26.8088 6.62685C26.9508 6.65521 27.0644 6.7403 27.2064 6.79702C27.462 6.93882 27.746 7.08063 28.0015 7.30752C28.3707 7.61949 28.6547 7.98818 28.9103 8.38524C29.3079 9.0659 29.5351 9.88837 29.5067 10.7392C29.5067 11.6184 29.3079 12.4692 29.0239 13.3484C28.7115 14.1992 28.2571 15.0501 27.7176 15.8442C27.1496 16.6383 26.4396 17.3757 25.6161 18.0563C24.8209 18.6803 23.7702 19.3042 22.549 19.6729C22.2366 19.7296 21.9243 19.8431 21.6119 19.8998C21.4415 19.9282 21.2711 19.9565 21.1291 19.9565L20.8735 19.9849C20.7883 19.9849 20.7031 19.9849 20.6179 19.9849C20.2772 19.9849 19.9364 20.0133 19.624 19.9849C19.3116 19.9565 18.9992 19.8715 18.7152 19.7296C18.3461 19.5595 18.0053 19.3326 17.7781 19.1057C17.5225 18.8788 17.3521 18.6803 17.2101 18.7086C17.0965 18.7086 17.0965 18.9639 17.2385 19.2759C17.3521 19.5878 17.6929 19.9282 18.0053 20.1551Z" fill="#39395B"/>
<path d="M19.1124 17.914C18.6864 17.6871 18.3172 17.2617 18.0616 16.7796C17.7493 16.1273 17.5505 15.4183 17.4369 14.6809C17.3517 13.9718 17.3517 13.2345 17.4653 12.4971C17.5789 11.788 17.7777 11.079 18.09 10.4267C18.374 9.77441 18.7716 9.15047 19.226 8.58325C19.6804 8.01603 20.2199 7.50553 20.7879 7.05175C21.3559 6.59798 22.009 6.20092 22.6622 5.88895C23.3154 5.57698 24.0253 5.29337 24.7353 5.09484C25.4452 4.89632 26.1552 4.81123 26.8652 4.86796C27.4331 4.92468 28.0011 5.06648 28.4555 5.23665C28.9099 5.37845 29.2222 5.54862 29.3358 5.40682C29.4494 5.26501 29.3074 4.92468 28.8531 4.55598C28.4271 4.18729 27.6887 3.90368 26.8936 3.84696C26.3256 3.79024 25.786 3.84696 25.2465 3.9604C24.3661 4.15893 23.5426 4.44254 22.719 4.81123C21.8954 5.17993 21.1287 5.6337 20.3619 6.17256C19.9927 6.45617 19.6236 6.76814 19.2828 7.08012C18.942 7.42045 18.6012 7.78914 18.3172 8.1862C17.7209 8.9803 17.2097 9.91622 16.8973 10.9656C16.5565 11.9299 16.3577 13.1777 16.4997 14.5107C16.5849 15.163 16.7269 15.872 17.0109 16.5243C17.2665 17.1766 17.6641 17.8857 18.374 18.3394C18.8284 18.6514 19.4248 18.7932 19.8791 18.7081C20.3619 18.6231 20.6459 18.3394 20.6175 18.1976C20.5891 18.0842 20.3335 18.1409 20.0495 18.1693C19.7656 18.1409 19.368 18.0558 19.1124 17.914Z" fill="#39395B"/>
</svg>
