<svg width="74" height="65" viewBox="0 0 74 65" fill="none" xmlns="http://www.w3.org/2000/svg">
<path d="M37.2756 63.9901C57.2844 63.9901 73.5047 49.8548 73.5047 32.4179C73.5047 14.9811 57.2844 0.845703 37.2756 0.845703C17.2667 0.845703 1.04639 14.9811 1.04639 32.4179C1.04639 49.8548 17.2667 63.9901 37.2756 63.9901Z" fill="#F99C40"/>
<path d="M31.1916 21.5846C31.109 21.6392 30.9989 21.6665 30.8613 21.6937L28.769 21.8302L27.3375 21.9393L26.5941 21.9939C26.5391 21.9939 26.484 21.9666 26.429 21.8848C26.3739 21.8029 26.3464 21.7483 26.3464 21.6665C26.3464 21.6119 26.3739 21.5846 26.4014 21.5573C26.429 21.53 26.484 21.5027 26.5116 21.5027C26.5666 21.5027 26.5941 21.4754 26.5941 21.4754C26.5941 21.0934 26.5941 20.1656 26.5941 18.7194C26.5941 17.6551 26.5391 16.8365 26.4565 16.2361C26.3739 15.6358 26.3188 15.3356 26.3188 15.2811C26.3188 15.1719 26.3739 15.0901 26.4565 15.0355C26.5391 14.9809 26.6217 14.9536 26.7043 14.9536C26.7593 14.9536 26.8144 14.9809 26.8419 15.0082C26.8694 15.0355 26.897 15.1173 26.9245 15.1992C27.0071 15.4448 27.0622 15.9087 27.1172 16.5636C27.1723 17.2185 27.1723 17.928 27.1723 18.6375C27.1723 19.2651 27.1723 19.8109 27.1723 20.3566C27.1723 20.8751 27.1723 21.2299 27.1723 21.4209C27.2824 21.4209 27.4751 21.3936 27.7779 21.3936C28.0808 21.3663 28.3836 21.3663 28.6864 21.339C29.1544 21.2844 29.6775 21.2026 30.2831 21.1207C30.7511 21.0388 31.054 21.0115 31.1366 21.0115C31.2191 21.0115 31.2742 21.0388 31.3017 21.1207C31.3293 21.2026 31.3293 21.2844 31.3293 21.3936C31.3293 21.4482 31.2742 21.53 31.1916 21.5846Z" fill="white" stroke="white" stroke-width="0.957029" stroke-miterlimit="10"/>
<path d="M37.0279 19.538C37.0279 19.6744 36.9178 19.9473 36.6975 20.4112C36.4773 20.8478 36.1469 21.2571 35.734 21.6392C35.2935 22.0212 34.7705 22.2122 34.1373 22.2122C33.6142 22.2122 33.2013 22.0758 32.8434 21.7756C32.4855 21.4754 32.3203 21.0388 32.3203 20.4385C32.3203 19.8654 32.458 19.2924 32.7608 18.7466C33.0636 18.2009 33.4215 17.737 33.8895 17.3822C34.3575 17.0275 34.853 16.8638 35.3486 16.8638C35.6514 16.8638 35.8992 16.9183 36.0919 17.0548C36.2846 17.1639 36.3947 17.355 36.3947 17.5733C36.3947 17.8188 36.2295 18.0644 35.9267 18.31C35.5964 18.5556 35.1834 18.7739 34.6879 18.9377C34.1923 19.1287 33.6417 19.2651 33.1187 19.3197C33.0086 19.6471 32.981 19.9746 32.981 20.3021C32.981 20.7387 33.0911 21.0661 33.3114 21.2844C33.5316 21.53 33.862 21.6392 34.2749 21.6392C34.9081 21.6392 35.4036 21.4482 35.7891 21.0388C36.1745 20.6295 36.5048 20.1929 36.7526 19.6744C36.7801 19.6471 36.8077 19.5926 36.8352 19.5107C36.8627 19.4288 36.9178 19.3743 36.9453 19.3743C37.0004 19.3743 37.0279 19.4288 37.0279 19.538ZM35.6789 17.3822C35.5413 17.3277 35.4036 17.2731 35.2109 17.2731C34.9081 17.2731 34.6053 17.355 34.33 17.546C34.0547 17.737 33.8069 17.9553 33.6142 18.2009C33.4215 18.4465 33.3114 18.6921 33.2563 18.8831C33.6142 18.8558 34.0272 18.7466 34.4401 18.6102C34.853 18.4465 35.1834 18.2827 35.4862 18.119C35.7615 17.928 35.8992 17.7916 35.8992 17.6824C35.8716 17.546 35.8166 17.4368 35.6789 17.3822Z" fill="white" stroke="white" stroke-width="0.957029" stroke-miterlimit="10"/>
<path d="M43.0846 21.6392C43.1397 21.6938 43.1672 21.7484 43.1672 21.7757C43.1672 21.8575 43.1397 21.9667 43.0571 22.0758C42.9745 22.185 42.8919 22.2396 42.8093 22.2396C42.6717 22.2396 42.5615 22.1577 42.5065 22.0213C42.4239 21.8575 42.3964 21.6938 42.3964 21.4755C42.3964 21.3118 42.3964 20.766 42.4239 19.8928V19.4835C42.4239 19.3197 42.3688 19.1833 42.2863 19.1287C41.9284 19.6745 41.5705 20.1657 41.2676 20.575C40.9648 20.9843 40.5519 21.3663 40.0563 21.7211C39.5608 22.0758 39.0653 22.2668 38.5422 22.2668C38.2944 22.2668 38.0742 22.185 37.9365 22.0485C37.7989 21.9121 37.7163 21.7211 37.7163 21.4755C37.7163 21.1753 37.854 20.7933 38.1568 20.2748C38.4596 19.7564 38.8175 19.2379 39.258 18.7194C39.6985 18.2009 40.1665 17.7643 40.6069 17.4369C40.9098 17.2186 41.13 17.0821 41.3227 17.0003C41.4879 16.9184 41.6531 16.8911 41.7907 16.8911C41.9284 16.8911 42.066 16.9184 42.2037 17.0003C42.3413 17.0821 42.4514 17.164 42.5615 17.3004C42.6717 17.4369 42.6992 17.5733 42.6992 17.737C42.6992 17.9553 42.6441 18.1736 42.5065 18.392L42.6992 18.3374C42.7818 18.3374 42.8368 18.4465 42.8644 18.6375C42.8644 18.7467 42.8919 18.9923 42.8919 19.347C42.8919 19.7018 42.9194 20.0019 42.9194 20.2475C42.9194 20.4931 42.947 20.7114 42.947 20.957C42.947 21.1753 42.9745 21.3663 42.9745 21.5028C43.002 21.5301 43.0296 21.5846 43.0846 21.6392ZM39.9737 21.2299C40.3867 20.9297 40.7446 20.575 41.0474 20.193C41.3778 19.7836 41.7081 19.2925 42.0935 18.6921C42.2037 18.4738 42.2312 18.2282 42.2312 17.9826C42.2312 17.8189 42.1761 17.6825 42.0935 17.5733C41.9834 17.4642 41.8458 17.4096 41.6806 17.4096C41.4879 17.4096 41.2126 17.546 40.9098 17.7916C40.5519 18.0645 40.1665 18.4465 39.7535 18.9104C39.3406 19.3743 39.0102 19.8382 38.7624 20.2748C38.4871 20.7387 38.3495 21.0935 38.3495 21.3391C38.3495 21.5574 38.4596 21.6665 38.6799 21.6665C39.1479 21.6665 39.5883 21.5301 39.9737 21.2299Z" fill="white" stroke="white" stroke-width="0.957029" stroke-miterlimit="10"/>
<path d="M48.4255 22.4853C48.3429 22.5398 48.2603 22.5671 48.1227 22.5671C48.0401 22.5671 47.985 22.5398 47.9299 22.5126C47.8749 22.4853 47.8474 22.4307 47.8474 22.3761C47.8474 22.0759 47.8749 21.612 47.9299 20.9844C47.985 20.3022 48.0125 19.7565 48.0125 19.3199C48.0125 18.8832 47.985 18.5285 47.9575 18.2556C47.9299 17.9827 47.8749 17.8463 47.7648 17.8463C47.4895 17.8463 47.1866 18.1465 46.8563 18.7741C46.5259 19.4017 46.168 20.1931 45.7276 21.2027L45.5349 21.6393C45.5073 21.7212 45.4523 21.7758 45.3697 21.8031C45.2871 21.8576 45.2045 21.8576 45.1219 21.8576C45.0118 21.8576 44.9567 21.8576 44.9292 21.8304C44.9017 21.8031 44.8741 21.7758 44.8741 21.6939L44.764 20.7934L44.5713 19.2107C44.5162 18.5831 44.4337 18.0373 44.3786 17.5734C44.3511 17.4643 44.3511 17.3824 44.3511 17.3278C44.3511 17.2187 44.4061 17.1368 44.5163 17.055C44.6264 16.9731 44.7365 16.9458 44.8741 16.9458C44.9567 16.9458 45.0118 17.1095 45.0393 17.4643C45.0668 17.819 45.1219 18.3921 45.1494 19.1561L45.2045 19.7292C45.2596 20.466 45.3146 20.9298 45.3146 21.1209C45.3421 21.0663 45.3697 21.039 45.3697 20.9844C45.3972 20.9298 45.4247 20.8753 45.4523 20.7934C45.8927 19.7565 46.3057 18.9105 46.6911 18.2283C47.0765 17.5461 47.4344 17.1914 47.7923 17.1914C48.0401 17.1914 48.2052 17.3824 48.3154 17.7644C48.3979 18.1465 48.453 18.6377 48.4805 19.238C48.5081 19.8929 48.5081 20.8753 48.5081 22.1578C48.5356 22.3488 48.5081 22.4034 48.4255 22.4853Z" fill="white" stroke="white" stroke-width="0.957029" stroke-miterlimit="10"/>
<path d="M35.8442 34.4916C35.5689 34.8463 35.1835 35.1465 34.7155 35.3648C34.2199 35.5831 33.6693 35.6923 33.0637 35.6923C32.5406 35.6923 32.1277 35.665 31.8248 35.5831C31.522 35.5013 31.3568 35.3921 31.3568 35.2557C31.3568 35.1738 31.4119 35.0646 31.522 34.9009C31.6321 34.7372 31.7423 34.6553 31.7973 34.6553C31.9074 34.6553 31.935 34.6826 31.935 34.7099C31.935 34.7372 31.9074 34.7645 31.8799 34.7918C31.8524 34.8191 31.8248 34.8463 31.8248 34.8736C31.8248 34.9009 31.8799 34.9282 31.9625 34.9828C32.0726 35.0374 32.2103 35.0647 32.4305 35.0919C32.6507 35.1192 32.8985 35.1465 33.2013 35.1465C33.6693 35.1465 34.0823 35.0646 34.4677 34.9009C34.8256 34.7372 35.1009 34.5189 35.2936 34.2733C35.4863 34.0277 35.5964 33.7821 35.5964 33.5365C35.5964 33.2091 35.4312 32.9635 35.1009 32.7179C34.7705 32.4996 34.2199 32.2813 33.4766 32.063C32.7609 31.8447 32.2103 31.6809 31.8248 31.5445C31.4394 31.4081 31.1091 31.217 30.8613 31.026C30.6135 30.8077 30.5034 30.5621 30.5034 30.262C30.5034 29.8526 30.7512 29.4706 31.2467 29.0613C31.7423 28.6793 32.3754 28.3518 33.0912 28.1062C33.8345 27.8606 34.4952 27.7515 35.1284 27.7515C35.4588 27.7515 35.624 27.806 35.6515 27.9152C35.679 28.0243 35.679 28.1608 35.679 28.2972C35.679 28.4064 35.624 28.461 35.5414 28.461C35.5138 28.461 35.4588 28.461 35.4037 28.4337C35.3487 28.4064 35.2936 28.3791 35.2661 28.3791C35.211 28.3518 35.1559 28.3518 35.1009 28.3245C35.0458 28.2972 34.9357 28.2972 34.8256 28.2972C34.4126 28.2972 33.8896 28.4064 33.3115 28.5974C32.7333 28.7884 32.2103 29.034 31.7698 29.3342C31.3293 29.6343 31.1091 29.9072 31.1091 30.1801C31.1091 30.3984 31.2192 30.5894 31.4119 30.7531C31.6046 30.9169 31.8799 31.0533 32.2103 31.1625C32.5406 31.2716 33.0086 31.4081 33.6143 31.5718C34.4952 31.8174 35.1559 32.063 35.5689 32.3631C35.9818 32.6633 36.2021 33.018 36.2021 33.4274C36.2571 33.7821 36.1195 34.1369 35.8442 34.4916Z" fill="white" stroke="white" stroke-width="0.957029" stroke-miterlimit="10"/>
<path d="M37.7435 28.625C37.6059 28.625 37.4682 28.5704 37.3306 28.4612C37.1929 28.3521 37.1104 28.2702 37.1104 28.2156C37.1104 28.1338 37.1654 28.0519 37.248 27.9973C37.3306 27.9155 37.4132 27.8882 37.4958 27.8882C37.6059 27.9155 37.716 27.97 37.7986 28.0519C37.8537 28.1065 37.9362 28.1884 38.0188 28.2702C38.1014 28.3521 38.129 28.4339 38.129 28.4339C38.1565 28.5704 38.0188 28.625 37.7435 28.625ZM38.3492 35.5288C38.2941 35.5561 38.2115 35.5834 38.1014 35.5834C37.9913 35.5834 37.9087 35.4197 37.8537 35.0922C37.7986 34.7648 37.7435 34.1644 37.6885 33.2639C37.6609 32.6636 37.6334 32.0905 37.6059 31.5175C37.5784 30.9444 37.5784 30.5078 37.5508 30.2077C37.5508 30.1258 37.5784 30.0712 37.6059 30.0166C37.6334 29.9894 37.6885 29.9621 37.7711 29.9621C37.9638 29.9621 38.0739 30.0439 38.129 30.1804C38.184 30.3168 38.2115 30.5897 38.2115 30.9717V32.2543C38.2115 32.991 38.2391 33.5914 38.2941 34.028C38.2941 34.0553 38.3217 34.2736 38.4042 34.7375C38.4593 35.0376 38.4868 35.2559 38.4868 35.3651C38.4593 35.447 38.4043 35.5015 38.3492 35.5288Z" fill="white" stroke="white" stroke-width="0.957029" stroke-miterlimit="10"/>
<path d="M43.828 34.601C43.7454 34.792 43.6628 34.9558 43.5802 35.1195C43.4701 35.2559 43.3875 35.3378 43.3049 35.3378C43.1397 35.3378 42.9195 35.1468 42.6442 34.792C42.3689 34.4373 42.011 33.9461 41.5981 33.3185L41.4604 33.1002C41.2952 33.3731 41.1576 33.5914 41.075 33.7551C40.9649 33.9461 40.8823 34.1371 40.7722 34.3554C40.607 34.7102 40.5244 34.9012 40.5244 34.983C40.5244 35.0922 40.5795 35.1468 40.6896 35.1468C40.7171 35.1468 40.7446 35.1195 40.7997 35.0922C40.8547 35.0649 40.9098 35.0376 40.9098 35.0376C40.9373 35.0376 40.9924 35.0376 41.0199 35.0649C41.0475 35.0922 41.075 35.1195 41.075 35.1468C41.075 35.2013 41.0199 35.2559 40.8823 35.3651C40.7722 35.4742 40.6345 35.5561 40.4693 35.638C40.3317 35.7198 40.194 35.7471 40.1114 35.7471C40.0564 35.7471 40.0013 35.6925 39.9463 35.6107C39.8912 35.5015 39.8637 35.4197 39.8637 35.3105C39.8637 35.1195 39.9463 34.8466 40.139 34.4919C40.3317 34.1371 40.5795 33.6459 40.9649 33.0183L41.1576 32.6909C40.9924 32.3634 40.7722 31.9814 40.4969 31.4902C40.2216 30.999 39.9738 30.617 39.7811 30.3168C39.671 30.1258 39.5884 29.9348 39.5884 29.771C39.5884 29.6892 39.5884 29.6346 39.6159 29.6073C39.6434 29.58 39.671 29.5527 39.6985 29.5527C39.7811 29.5527 39.8361 29.58 39.9187 29.6619C40.0013 29.7437 40.0839 29.8529 40.2216 30.0166C40.5795 30.5351 40.9924 31.2446 41.4329 32.1451C41.4604 32.0905 41.5705 31.9541 41.7082 31.7085C41.9559 31.2992 42.2037 30.9171 42.4515 30.5897C42.6167 30.3714 42.7543 30.2349 42.8369 30.1531C42.9195 30.0712 43.0571 30.0439 43.2223 30.0439C43.4701 30.0439 43.5802 30.0985 43.5802 30.2076C43.5802 30.2349 43.5802 30.2622 43.5527 30.2895C43.5251 30.3168 43.4701 30.3441 43.3875 30.3714C43.3049 30.3987 43.2223 30.4805 43.1397 30.5624C43.0021 30.6988 42.7818 30.9444 42.5065 31.3537C42.2312 31.7631 41.9284 32.1724 41.6806 32.609C41.8458 32.9092 42.0661 33.2366 42.3138 33.5368C42.5616 33.8369 42.7543 34.1098 42.947 34.3008C43.1397 34.4919 43.2498 34.601 43.3049 34.601C43.415 34.601 43.4976 34.5191 43.5802 34.3281C43.6077 34.2736 43.6077 34.219 43.6353 34.1644C43.6628 34.1098 43.6903 34.0825 43.7454 34.0825C43.8555 34.0825 43.883 34.1098 43.883 34.1917C43.9381 34.2736 43.9105 34.41 43.828 34.601Z" fill="white" stroke="white" stroke-width="0.957029" stroke-miterlimit="10"/>
<path d="M27.1723 47.6718C26.897 48.0265 26.5116 48.3267 26.0436 48.545C25.5481 48.7633 24.9975 48.8724 24.3918 48.8724C23.8687 48.8724 23.4558 48.8452 23.153 48.7633C22.8501 48.6814 22.685 48.5723 22.685 48.4358C22.685 48.354 22.74 48.2448 22.8501 48.0811C22.9603 47.9174 23.0704 47.8355 23.1254 47.8355C23.2356 47.8355 23.2631 47.8628 23.2631 47.8901C23.2631 47.9174 23.2356 47.9447 23.208 47.9719C23.1805 47.9992 23.153 48.0265 23.153 48.0538C23.153 48.0811 23.208 48.1084 23.2906 48.163C23.4007 48.2175 23.5384 48.2448 23.7586 48.2721C23.9789 48.2994 24.2266 48.3267 24.5295 48.3267C24.9975 48.3267 25.4104 48.2448 25.7958 48.0811C26.1537 47.9174 26.429 47.6991 26.6217 47.4535C26.8144 47.2079 26.9245 46.9623 26.9245 46.7167C26.9245 46.3892 26.7594 46.1436 26.429 45.8981C26.0987 45.6798 25.5481 45.4614 24.8048 45.2431C24.089 45.0248 23.5384 44.8611 23.153 44.7247C22.7676 44.5882 22.4372 44.3972 22.1894 44.2062C21.9417 43.9879 21.8315 43.7423 21.8315 43.4421C21.8315 43.0328 22.0793 42.6508 22.5748 42.2415C23.0704 41.8594 23.7036 41.532 24.4193 41.2864C25.1626 41.0408 25.8234 40.9316 26.4565 40.9316C26.7869 40.9316 26.9521 40.9862 26.9796 41.0954C27.0071 41.2045 27.0071 41.341 27.0071 41.4774C27.0071 41.5866 26.9521 41.6411 26.8695 41.6411C26.842 41.6411 26.7869 41.6411 26.7318 41.6138C26.6768 41.5866 26.6217 41.5593 26.5942 41.5593C26.5391 41.532 26.4841 41.532 26.429 41.5047C26.374 41.4774 26.2638 41.4774 26.1537 41.4774C25.7408 41.4774 25.2177 41.5866 24.6396 41.7776C24.0615 41.9686 23.5384 42.2142 23.0979 42.5143C22.6574 42.8145 22.4372 43.0874 22.4372 43.3603C22.4372 43.5786 22.5473 43.7696 22.74 43.9333C22.9327 44.097 23.208 44.2335 23.5384 44.3426C23.8687 44.4518 24.3368 44.5882 24.9424 44.752C25.8234 44.9976 26.4841 45.2431 26.897 45.5433C27.31 45.8435 27.5302 46.1982 27.5302 46.6075C27.5853 46.935 27.4476 47.317 27.1723 47.6718Z" fill="white" stroke="white" stroke-width="0.957029" stroke-miterlimit="10"/>
<path d="M29.0717 41.8051C28.934 41.8051 28.7964 41.7506 28.6587 41.6414C28.5211 41.5323 28.4385 41.4504 28.4385 41.3958C28.4385 41.314 28.4935 41.2321 28.5761 41.1775C28.6587 41.0956 28.7413 41.0684 28.8239 41.0684C28.934 41.0956 29.0441 41.1502 29.1267 41.2321C29.1818 41.2867 29.2644 41.3685 29.347 41.4504C29.4295 41.5323 29.4571 41.6141 29.4571 41.6141C29.4846 41.7506 29.347 41.8051 29.0717 41.8051ZM29.6773 48.709C29.6223 48.7363 29.5397 48.7636 29.4295 48.7636C29.3194 48.7636 29.2368 48.5998 29.1818 48.2724C29.1267 47.9449 29.0717 47.3446 29.0166 46.4441C28.9891 45.8438 28.9615 45.2707 28.934 44.6977C28.9065 44.1246 28.9065 43.688 28.879 43.3878C28.879 43.306 28.9065 43.2514 28.934 43.1968C28.9615 43.1695 29.0166 43.1422 29.0992 43.1422C29.2919 43.1422 29.402 43.2241 29.4571 43.3605C29.5121 43.497 29.5397 43.7699 29.5397 44.1519V45.4344C29.5397 46.1712 29.5672 46.7715 29.6223 47.2082C29.6223 47.2354 29.6498 47.4538 29.7324 47.9176C29.7874 48.2178 29.815 48.4361 29.815 48.518C29.7874 48.5998 29.7324 48.6544 29.6773 48.709Z" fill="white" stroke="white" stroke-width="0.957029" stroke-miterlimit="10"/>
<path d="M36.3397 49.9367C36.0919 50.4006 35.7891 50.7827 35.4587 51.0828C35.1008 51.383 34.7429 51.6286 34.385 51.8196C34.0272 52.0106 33.6968 52.0925 33.4215 52.0925C33.2563 52.0925 33.1462 52.0652 33.0911 51.9833C33.0361 51.9015 32.981 51.8196 32.981 51.7378C32.981 51.6559 33.1737 51.5467 33.5316 51.4376C34.0822 51.2739 34.5778 51.001 35.0458 50.6189C35.4036 50.3188 35.6789 49.9913 35.8441 49.6093C36.0093 49.2273 36.0919 48.8452 36.0919 48.4632C36.0919 48.0266 36.0644 47.6173 36.0093 47.2625C35.9542 46.9078 35.8441 46.4439 35.734 45.9254C35.5964 45.3524 35.4862 44.8885 35.4312 44.4791C35.2935 44.8066 35.0733 45.2159 34.798 45.7071C34.5227 46.171 34.1648 46.6349 33.7794 47.0715C33.4215 47.4808 33.0636 47.8083 32.7608 47.9993C32.458 48.2176 32.1551 48.2995 31.8798 48.2995C31.6321 48.2995 31.4669 48.2176 31.3292 48.0539C31.2191 47.8901 31.1641 47.6446 31.1641 47.3444C31.1641 46.8532 31.3292 46.2529 31.6596 45.598C31.99 44.9158 32.4304 44.3427 32.926 43.8515C33.4215 43.3603 33.9446 43.1147 34.4401 43.1147C34.6053 43.1147 34.7429 43.1693 34.8255 43.2785C34.9081 43.3876 34.9632 43.5241 34.9632 43.6605C34.9632 43.8515 34.9081 43.9607 34.8255 43.9607C34.798 43.9607 34.7705 43.9334 34.7429 43.8788C34.7154 43.8242 34.6603 43.7697 34.6053 43.7424C34.5502 43.6878 34.4952 43.6878 34.4401 43.6878C34.0272 43.6878 33.6142 43.9061 33.1737 44.3154C32.7608 44.7247 32.4029 45.2159 32.1276 45.789C31.8523 46.3347 31.7147 46.7986 31.7147 47.1534C31.7147 47.3444 31.7422 47.4808 31.7972 47.59C31.8523 47.6991 31.9624 47.7264 32.0725 47.7264C32.2653 47.7264 32.513 47.6173 32.7883 47.4262C33.0636 47.2079 33.394 46.9078 33.7794 46.4712C34.1097 46.0891 34.4401 45.6252 34.7154 45.1068C34.9907 44.5883 35.2109 44.0971 35.3486 43.6332C35.3761 43.5786 35.4036 43.5514 35.4312 43.5241C35.4587 43.4968 35.5138 43.4695 35.5688 43.4695C35.6514 43.4695 35.7065 43.4968 35.7891 43.5241C35.8717 43.5514 35.8992 43.6059 35.8992 43.6605C35.8992 43.6878 35.8992 43.7151 35.8717 43.7424C35.8717 43.7697 35.8441 43.7969 35.8441 43.7969C35.8992 44.2063 36.0368 44.8339 36.2571 45.6798C36.4222 46.2802 36.5324 46.7713 36.615 47.1807C36.6975 47.59 36.7251 47.972 36.7251 48.3813C36.6975 48.9544 36.5874 49.4728 36.3397 49.9367Z" fill="white" stroke="white" stroke-width="0.957029" stroke-miterlimit="10"/>
<path d="M45.4245 48.627C45.3695 48.6815 45.2869 48.7088 45.1768 48.7088C45.0391 48.7088 44.9565 48.6543 44.9565 48.5178C44.9565 47.0443 44.9015 45.8982 44.7914 45.1341C44.6812 44.3427 44.5161 43.9607 44.2408 43.9607C43.8003 43.9607 43.1671 45.3524 42.3412 48.1085C42.3412 48.1904 42.3137 48.2722 42.2311 48.3268C42.176 48.3814 42.0934 48.4087 41.9833 48.4087C41.8457 48.4087 41.7631 48.3541 41.7631 48.2176C41.7631 47.9175 41.7906 47.4809 41.8181 46.8532C41.8457 46.171 41.8732 45.6253 41.8732 45.2433C41.8732 44.6975 41.8457 44.3155 41.8181 44.0699C41.7906 43.8516 41.708 43.7151 41.5704 43.7151C41.2951 43.7151 40.9372 44.179 40.5242 45.0795C40.1113 45.98 39.6708 47.0715 39.2028 48.2995L39.0927 48.5724C39.0652 48.6543 39.0101 48.7088 38.9551 48.7634C38.9 48.818 38.8174 48.8453 38.7623 48.8453C38.6522 48.8453 38.5972 48.8453 38.5696 48.818C38.5421 48.7907 38.5146 48.7634 38.5146 48.6815C38.487 48.3268 38.432 47.8356 38.4045 47.2353C38.3769 47.0715 38.3769 46.826 38.3494 46.4712C38.2668 45.2433 38.1842 44.3973 38.1292 43.9607C38.0741 43.5241 38.019 43.2785 38.019 43.2239C38.019 43.1694 38.0466 43.0875 38.1292 43.0056C38.1842 42.9238 38.2668 42.8965 38.3219 42.8965C38.4595 42.8965 38.5421 42.9784 38.6247 43.1421C38.6522 43.2239 38.7073 43.5514 38.7623 44.0972C38.8174 44.6429 38.8449 45.3524 38.8725 46.1983L38.9275 47.8629C39.368 46.6077 39.836 45.4888 40.304 44.4792C40.772 43.4695 41.2125 42.9511 41.5979 42.9511C41.8732 42.9511 42.0384 43.1148 42.1485 43.4695C42.2586 43.8243 42.2862 44.3155 42.2862 44.9977C42.2862 45.3524 42.2862 45.8436 42.2586 46.4985V46.9897C42.589 45.9527 42.9193 45.0795 43.2497 44.37C43.5801 43.6606 43.9104 43.3058 44.2408 43.3058C45.0667 43.3058 45.4796 44.9704 45.4796 48.2995C45.5071 48.4632 45.4796 48.5451 45.4245 48.627Z" fill="white" stroke="white" stroke-width="0.957029" stroke-miterlimit="10"/>
<path d="M52.0592 47.9449C52.1143 47.9995 52.1418 48.054 52.1418 48.0813C52.1418 48.1632 52.1143 48.2723 52.0317 48.3815C51.9491 48.4906 51.8665 48.5452 51.7839 48.5452C51.6463 48.5452 51.5362 48.4634 51.4811 48.3269C51.3985 48.1632 51.371 47.9995 51.371 47.7812C51.371 47.6174 51.371 47.0717 51.3985 46.1985V45.7891C51.3985 45.6254 51.3434 45.489 51.2609 45.4344C50.903 45.9802 50.5451 46.4713 50.2423 46.8807C49.9394 47.29 49.5265 47.672 49.0309 48.0268C48.5354 48.3815 48.0399 48.5725 47.5168 48.5725C47.269 48.5725 47.0488 48.4906 46.9112 48.3542C46.7735 48.2178 46.6909 48.0268 46.6909 47.7812C46.6909 47.481 46.8286 47.099 47.1314 46.5805C47.4342 46.062 47.7921 45.5435 48.2326 45.0251C48.6731 44.5066 49.1411 44.07 49.5815 43.7425C49.8844 43.5242 50.1046 43.3878 50.2973 43.3059C50.4625 43.2241 50.6277 43.1968 50.7653 43.1968C50.903 43.1968 51.0406 43.2241 51.1783 43.3059C51.3159 43.3878 51.426 43.4697 51.5362 43.6061C51.6463 43.7425 51.6738 43.879 51.6738 44.0427C51.6738 44.261 51.6187 44.4793 51.4811 44.6976L51.6738 44.643C51.7564 44.643 51.8115 44.7522 51.839 44.9432C51.839 45.0524 51.8665 45.298 51.8665 45.6527C51.8665 46.0074 51.894 46.3076 51.894 46.5532C51.894 46.7988 51.9216 47.0171 51.9216 47.2627C51.9216 47.481 51.9491 47.672 51.9491 47.8084C51.9766 47.8357 52.0042 47.8903 52.0592 47.9449ZM48.9484 47.5629C49.3613 47.2627 49.7192 46.9079 50.022 46.5259C50.3524 46.1166 50.6827 45.6254 51.0681 45.0251C51.1783 44.8068 51.2058 44.5612 51.2058 44.3156C51.2058 44.1519 51.1507 44.0154 51.0681 43.9063C50.9856 43.7971 50.8204 43.7425 50.6552 43.7425C50.4625 43.7425 50.1872 43.879 49.8844 44.1246C49.5265 44.3974 49.1411 44.7795 48.7281 45.2434C48.3152 45.7073 47.9848 46.1712 47.737 46.6078C47.4617 47.0717 47.3241 47.4264 47.3241 47.672C47.3241 47.8903 47.4342 47.9995 47.6545 47.9995C48.1225 47.9995 48.5354 47.8357 48.9484 47.5629Z" fill="white" stroke="white" stroke-width="0.957029" stroke-miterlimit="10"/>
</svg>
