<svg width="24" height="23" viewBox="0 0 24 23" fill="none" xmlns="http://www.w3.org/2000/svg">
<path d="M7.44247 7.42073H16.4672M7.44247 11.9331H14.211M18.7234 1.78026C19.621 1.78026 20.4818 2.13682 21.1165 2.77149C21.7511 3.40617 22.1077 4.26697 22.1077 5.16454V14.1893C22.1077 15.0869 21.7511 15.9477 21.1165 16.5823C20.4818 17.217 19.621 17.5736 18.7234 17.5736H13.0829L7.44247 20.9579V17.5736H5.18629C4.28872 17.5736 3.42791 17.217 2.79324 16.5823C2.15856 15.9477 1.802 15.0869 1.802 14.1893V5.16454C1.802 4.26697 2.15856 3.40617 2.79324 2.77149C3.42791 2.13682 4.28872 1.78026 5.18629 1.78026H18.7234Z" stroke="#696E7E" stroke-width="2.5" stroke-linecap="round" stroke-linejoin="round"/>
</svg>
