<svg width="499" height="355" viewBox="0 0 499 355" fill="none" xmlns="http://www.w3.org/2000/svg">
<path opacity="0.4" d="M475 0H24C10.7452 0 0 10.7452 0 24V331C0 344.255 10.7452 355 24 355H475C488.255 355 499 344.255 499 331V24C499 10.7452 488.255 0 475 0Z" fill="#DCE3FF"/>
<path opacity="0.19" d="M376.529 71.209H108.254C106.237 71.209 104.602 72.844 104.602 74.861V242.352C104.602 244.369 106.237 246.004 108.254 246.004H376.529C378.546 246.004 380.181 244.369 380.181 242.352V74.861C380.181 72.844 378.546 71.209 376.529 71.209Z" stroke="#516FE9" stroke-width="0.759" stroke-miterlimit="10"/>
<path d="M391.749 58H123.474C121.457 58 119.822 59.6351 119.822 61.652V229.144C119.822 231.161 121.457 232.796 123.474 232.796H391.749C393.766 232.796 395.401 231.161 395.401 229.144V61.652C395.401 59.6351 393.766 58 391.749 58Z" fill="#D6DDFB"/>
<path d="M145.122 68.653C145.122 69.3425 144.918 70.0164 144.535 70.5897C144.152 71.163 143.607 71.6098 142.97 71.8736C142.333 72.1375 141.632 72.2065 140.956 72.072C140.28 71.9375 139.659 71.6055 139.171 71.118C138.684 70.6304 138.352 70.0093 138.217 69.3331C138.083 68.6569 138.152 67.9559 138.415 67.319C138.679 66.682 139.126 66.1375 139.699 65.7545C140.273 65.3714 140.947 65.167 141.636 65.167C142.561 65.167 143.447 65.5343 144.101 66.188C144.755 66.8418 145.122 67.7285 145.122 68.653Z" fill="#516FE9"/>
<path opacity="0.41" d="M156.719 68.653C156.719 69.3425 156.515 70.0164 156.132 70.5897C155.749 71.163 155.204 71.6098 154.567 71.8736C153.93 72.1375 153.229 72.2065 152.553 72.072C151.877 71.9375 151.256 71.6055 150.768 71.118C150.281 70.6304 149.949 70.0093 149.814 69.3331C149.68 68.6569 149.749 67.9559 150.013 67.319C150.276 66.682 150.723 66.1375 151.296 65.7545C151.87 65.3714 152.544 65.167 153.233 65.167C154.158 65.167 155.044 65.5343 155.698 66.188C156.352 66.8418 156.719 67.7285 156.719 68.653Z" fill="#516FE9"/>
<path opacity="0.18" d="M168.319 68.653C168.319 69.3425 168.115 70.0164 167.732 70.5897C167.349 71.163 166.804 71.6098 166.167 71.8736C165.53 72.1375 164.829 72.2065 164.153 72.072C163.477 71.9375 162.856 71.6055 162.368 71.118C161.881 70.6304 161.549 70.0093 161.414 69.3331C161.28 68.6569 161.349 67.9559 161.613 67.319C161.876 66.682 162.323 66.1375 162.896 65.7545C163.47 65.3714 164.144 65.167 164.833 65.167C165.758 65.167 166.644 65.5343 167.298 66.188C167.952 66.8418 168.319 67.7285 168.319 68.653Z" fill="#516FE9"/>
<path d="M240.441 85.106H141.16C139.295 85.106 137.784 86.6175 137.784 88.482V219.769C137.784 221.633 139.295 223.145 141.16 223.145H240.441C242.305 223.145 243.817 221.633 243.817 219.769V88.482C243.817 86.6175 242.305 85.106 240.441 85.106Z" fill="white"/>
<path opacity="0.75" d="M228.647 178.007H152.955V180.632H228.647V178.007Z" fill="#DCE3FF"/>
<path opacity="0.75" d="M228.647 183.389H152.955V186.014H228.647V183.389Z" fill="#DCE3FF"/>
<path opacity="0.75" d="M228.647 188.77H152.955V191.395H228.647V188.77Z" fill="#DCE3FF"/>
<path opacity="0.75" d="M228.647 194.152H152.955V196.777H228.647V194.152Z" fill="#DCE3FF"/>
<path opacity="0.75" d="M228.647 199.533H152.955V202.158H228.647V199.533Z" fill="#DCE3FF"/>
<path opacity="0.75" d="M228.647 204.915H152.955V207.54H228.647V204.915Z" fill="#DCE3FF"/>
<path d="M186.674 158.691C202.003 158.691 214.43 146.264 214.43 130.935C214.43 115.606 202.003 103.179 186.674 103.179C171.345 103.179 158.918 115.606 158.918 130.935C158.918 146.264 171.345 158.691 186.674 158.691Z" fill="#516FE9"/>
<path d="M186.674 103.177V130.933L212.552 116.233L208.169 103.177H186.674Z" fill="white"/>
<path d="M213.401 112.156C210.98 107.891 207.471 104.343 203.232 101.876C198.993 99.4086 194.176 98.1091 189.271 98.11V125.866L213.401 112.156Z" fill="#F99C40"/>
<path d="M168.873 161.886H161.986V168.773H168.873V161.886Z" fill="#DCE3FF"/>
<path opacity="0.75" d="M184.416 164.898H171.389V168.773H184.416V164.898Z" fill="#DCE3FF"/>
<path d="M206.5 161.886H199.613V168.773H206.5V161.886Z" fill="#DCE3FF"/>
<path opacity="0.75" d="M222.043 164.898H209.016V168.773H222.043V164.898Z" fill="#DCE3FF"/>
<path d="M378.479 86.334H260.165C258.93 86.334 257.928 87.3355 257.928 88.571V159.356C257.928 160.591 258.93 161.593 260.165 161.593H378.479C379.715 161.593 380.716 160.591 380.716 159.356V88.571C380.716 87.3355 379.715 86.334 378.479 86.334Z" fill="white"/>
<path d="M282.433 133.271H344.056" stroke="#DCE3FF" stroke-width="0.722" stroke-miterlimit="10"/>
<path d="M271.643 140.205H344.056" stroke="#DCE3FF" stroke-width="0.722" stroke-miterlimit="10"/>
<path d="M271.643 147.323H286.278" stroke="#DCE3FF" stroke-width="0.722" stroke-miterlimit="10"/>
<path d="M290.014 147.323H344.056" stroke="#DCE3FF" stroke-width="0.722" stroke-miterlimit="10"/>
<path d="M271.643 133.271H278.193" stroke="#DCE3FF" stroke-width="0.722" stroke-miterlimit="10"/>
<path d="M303.656 125.978H344.055" stroke="#DCE3FF" stroke-width="0.722" stroke-miterlimit="10"/>
<path d="M271.643 125.978H299.697" stroke="#DCE3FF" stroke-width="0.722" stroke-miterlimit="10"/>
<path d="M325.271 117.738H344.055" stroke="#DCE3FF" stroke-width="0.722" stroke-miterlimit="10"/>
<path d="M306.586 117.738H322.631" stroke="#DCE3FF" stroke-width="0.722" stroke-miterlimit="10"/>
<path d="M321.146 110.026H344.055" stroke="#DCE3FF" stroke-width="0.722" stroke-miterlimit="10"/>
<path d="M306.586 110.026H318.011" stroke="#DCE3FF" stroke-width="0.722" stroke-miterlimit="10"/>
<path d="M332.518 101.711H344.056" stroke="#DCE3FF" stroke-width="0.722" stroke-miterlimit="10"/>
<path d="M306.031 101.711H328.571" stroke="#DCE3FF" stroke-width="0.722" stroke-miterlimit="10"/>
<path d="M300.363 108.01C300.363 110.796 299.537 113.519 297.989 115.835C296.442 118.151 294.242 119.957 291.668 121.023C289.095 122.089 286.262 122.368 283.53 121.824C280.798 121.281 278.288 119.939 276.319 117.97C274.349 116 273.007 113.49 272.464 110.758C271.92 108.026 272.199 105.194 273.265 102.62C274.331 100.046 276.137 97.8464 278.453 96.2988C280.769 94.7511 283.492 93.925 286.278 93.925C290.014 93.925 293.596 95.4089 296.238 98.0504C298.879 100.692 300.363 104.274 300.363 108.01Z" fill="#FF6868"/>
<path d="M282.944 103.647V112.378C282.928 112.526 282.953 112.676 283.016 112.811C283.08 112.947 283.179 113.061 283.304 113.143C283.429 113.225 283.574 113.271 283.723 113.276C283.872 113.281 284.02 113.244 284.149 113.17L290.791 108.804C290.916 108.713 291.017 108.594 291.086 108.456C291.156 108.318 291.193 108.166 291.193 108.012C291.193 107.858 291.156 107.706 291.086 107.568C291.017 107.43 290.916 107.311 290.791 107.22L284.149 102.854C284.019 102.78 283.872 102.743 283.722 102.748C283.573 102.753 283.428 102.799 283.303 102.881C283.179 102.963 283.079 103.078 283.016 103.213C282.952 103.348 282.927 103.499 282.944 103.647V103.647Z" stroke="white" stroke-width="0.722" stroke-miterlimit="10"/>
<path d="M305.771 170.694H260.382C259.406 170.694 258.614 171.486 258.614 172.462V221.046C258.614 222.022 259.406 222.814 260.382 222.814H305.771C306.747 222.814 307.539 222.022 307.539 221.046V172.462C307.539 171.486 306.747 170.694 305.771 170.694Z" fill="white"/>
<path d="M298.096 178.342H267.439C266.76 178.342 266.209 178.893 266.209 179.572V199.804C266.209 200.483 266.76 201.034 267.439 201.034H298.096C298.775 201.034 299.326 200.483 299.326 199.804V179.572C299.326 178.893 298.775 178.342 298.096 178.342Z" fill="#DCE3FF"/>
<path d="M266.209 206.36H299.326" stroke="#DCE3FF" stroke-width="1.4" stroke-miterlimit="10" stroke-linecap="round"/>
<path d="M266.209 210.365H283.204" stroke="#DCE3FF" stroke-width="1.4" stroke-miterlimit="10" stroke-linecap="round"/>
<path d="M266.209 214.371H290.967" stroke="#DCE3FF" stroke-width="1.4" stroke-miterlimit="10" stroke-linecap="round"/>
<path d="M278.643 185.322V194.053C278.627 194.201 278.651 194.351 278.715 194.486C278.778 194.622 278.878 194.736 279.003 194.818C279.127 194.9 279.272 194.946 279.422 194.951C279.571 194.956 279.718 194.919 279.848 194.845L286.49 190.479C286.614 190.388 286.716 190.269 286.785 190.131C286.855 189.993 286.891 189.841 286.891 189.687C286.891 189.533 286.855 189.381 286.785 189.243C286.716 189.105 286.614 188.986 286.49 188.895L279.848 184.529C279.718 184.455 279.571 184.418 279.421 184.423C279.272 184.428 279.127 184.474 279.002 184.556C278.877 184.638 278.778 184.753 278.714 184.888C278.651 185.023 278.626 185.174 278.643 185.322V185.322Z" stroke="white" stroke-width="0.722" stroke-miterlimit="10"/>
<path d="M362.771 170.694H317.382C316.406 170.694 315.614 171.486 315.614 172.462V221.046C315.614 222.022 316.406 222.814 317.382 222.814H362.771C363.747 222.814 364.539 222.022 364.539 221.046V172.462C364.539 171.486 363.747 170.694 362.771 170.694Z" fill="white"/>
<path d="M355.096 178.342H324.439C323.76 178.342 323.209 178.893 323.209 179.572V199.804C323.209 200.483 323.76 201.034 324.439 201.034H355.096C355.775 201.034 356.326 200.483 356.326 199.804V179.572C356.326 178.893 355.775 178.342 355.096 178.342Z" fill="#DCE3FF"/>
<path d="M323.209 206.36H356.326" stroke="#DCE3FF" stroke-width="1.4" stroke-miterlimit="10" stroke-linecap="round"/>
<path d="M323.209 210.365H340.204" stroke="#DCE3FF" stroke-width="1.4" stroke-miterlimit="10" stroke-linecap="round"/>
<path d="M323.209 214.371H347.967" stroke="#DCE3FF" stroke-width="1.4" stroke-miterlimit="10" stroke-linecap="round"/>
<path d="M335.952 185.322V194.053C335.935 194.201 335.96 194.351 336.024 194.486C336.087 194.622 336.187 194.736 336.312 194.818C336.436 194.9 336.581 194.946 336.731 194.951C336.88 194.956 337.027 194.919 337.157 194.845L343.799 190.479C343.923 190.388 344.025 190.269 344.094 190.131C344.164 189.993 344.2 189.841 344.2 189.687C344.2 189.533 344.164 189.381 344.094 189.243C344.025 189.105 343.923 188.986 343.799 188.895L337.157 184.529C337.027 184.455 336.88 184.418 336.73 184.423C336.581 184.428 336.436 184.474 336.311 184.556C336.186 184.638 336.087 184.753 336.023 184.888C335.96 185.023 335.935 185.174 335.952 185.322V185.322Z" stroke="white" stroke-width="0.722" stroke-miterlimit="10"/>
<path d="M186.391 230.489V240.789C186.391 241.829 186.804 242.827 187.54 243.562C188.275 244.298 189.273 244.711 190.313 244.711H193.187C194.185 244.71 195.144 244.328 195.869 243.642C196.594 242.957 197.03 242.021 197.087 241.025H200.734V232.598H197.11V230.488L186.391 230.489ZM199.918 240.212H197.109V233.412H199.918V240.212Z" fill="#F99C40"/>
<path d="M110.518 201.869C110.972 203.896 111.894 205.789 113.21 207.396C113.65 207.929 114.211 208.35 114.846 208.621C115.546 208.921 116.039 208.93 118.028 208.972C120.7 209.027 114.569 214.488 110.516 217.865C109.61 218.618 108.46 219.012 107.282 218.972C106.105 218.933 104.983 218.462 104.13 217.65C100.89 214.581 96.7302 210.021 99.7962 209.325C100.646 209.133 100.957 208.425 101.448 206.99C102.302 204.183 102.259 196.85 101.674 195.483" fill="#F4B5C7"/>
<path d="M119.341 182.953C120.176 185.617 118.518 188.353 118.041 191.104C117.857 193.015 117.795 194.935 117.854 196.854C117.879 197.815 117.715 198.772 117.369 199.67C117.024 200.568 116.505 201.388 115.842 202.085C114.542 203.101 112.918 203.611 111.27 203.52C109.356 203.517 107.467 203.086 105.741 202.26C104.015 201.433 102.496 200.231 101.294 198.741C100.092 197.252 99.2381 195.512 98.7947 193.651C98.3513 191.789 98.3297 189.851 98.7312 187.98C99.0336 186.637 99.5113 185.339 100.152 184.12C101.767 180.975 104.393 178.165 107.795 177.208C111.197 176.251 115.357 177.623 116.836 180.832" fill="#F9C4D1"/>
<path d="M112.303 174.991C112.558 174.711 112.943 174.811 113.265 174.965C115.194 175.883 116.737 178.322 117.107 181.039C117.281 181.909 117.179 182.812 116.814 183.621C116.573 184.006 116.237 184.321 115.838 184.538C111.209 187.371 105.269 185.109 100.867 188.508C100.7 185.949 101.186 183.389 102.28 181.069C103.256 179.04 104.642 177.235 106.35 175.769C107.665 174.621 109.31 173.669 110.82 174.504" fill="#0A1854"/>
<path d="M104.093 184.939C103.542 185.311 103.077 185.797 102.729 186.364C102.381 186.931 102.159 187.566 102.076 188.226C101.921 189.55 102.316 191.019 101.597 192.14C101.549 192.232 101.473 192.306 101.38 192.351C100.965 192.51 100.78 191.663 100.334 191.66C100.084 191.982 99.9065 192.354 99.8124 192.751C99.7184 193.148 99.7105 193.56 99.7892 193.96C99.9509 194.757 100.046 195.566 100.074 196.378C100.077 196.5 100.046 196.62 99.9852 196.725C99.8963 196.814 99.7844 196.876 99.6621 196.906C99.5397 196.935 99.4117 196.929 99.2922 196.89C97.7859 196.489 96.4948 195.517 95.6922 194.181C93.4883 190.943 92.5889 186.993 93.1742 183.12C93.2995 181.98 93.6623 180.88 94.2392 179.889C94.5312 179.396 94.923 178.97 95.3896 178.637C95.8561 178.305 96.3871 178.074 96.9483 177.959C96.9229 176.476 97.3985 175.027 98.2982 173.848C98.9971 173.18 99.8416 172.683 100.765 172.396C105.201 170.742 112.154 170.72 115.018 175.251C115.509 175.966 115.762 176.816 115.742 177.683C115.624 179.483 113.97 180.792 112.397 181.75C110.243 183.061 107.972 184.168 105.613 185.059" fill="#0A1854"/>
<path d="M99.1282 175.682C97.5009 174.269 95.5007 173.354 93.3672 173.048C92.0481 172.813 90.6914 172.903 89.4154 173.312C88.1394 173.721 86.9827 174.436 86.0462 175.394C84.4022 177.28 84.0052 179.961 82.5892 182.023C80.1892 185.513 75.4642 186.534 72.4182 189.472C71.4596 190.28 70.8585 191.433 70.7452 192.682C70.7292 194.221 71.8652 195.567 71.9882 197.101C72.2102 199.869 69.1462 202.109 69.4022 204.873C69.6242 207.273 72.2152 208.698 74.5762 209.167C78.1458 209.94 81.8765 209.283 84.9672 207.337C86.4834 206.347 87.7207 204.986 88.561 203.382C89.4013 201.778 89.8166 199.986 89.7672 198.176C89.6672 196.608 89.1772 195.07 89.2212 193.5C89.3012 190.669 91.1122 188.087 91.1032 185.256C91.1032 183.969 90.7412 182.565 91.4212 181.474C91.7544 181.008 92.1728 180.61 92.6542 180.3C94.0542 179.273 95.9202 178.213 97.3932 179.127" fill="#0A1854"/>
<path d="M115.334 176.707C116.364 176.253 117.524 176.194 118.594 176.539C119.665 176.885 120.571 177.611 121.141 178.581C121.617 179.613 121.888 180.727 121.941 181.862C122.141 182.663 122.159 183.499 121.996 184.308C121.833 185.117 121.492 185.88 120.998 186.542C120.105 187.98 119.033 189.142 118.14 190.576C118.634 188.484 118.606 186.302 118.059 184.223C117.572 182.135 115.646 180.405 114.208 178.815" fill="#0A1854"/>
<path d="M101.88 192.313C102.06 192.157 101.858 191.875 101.666 191.733C101.295 191.426 100.879 191.18 100.431 191.003C100.207 190.916 99.9648 190.882 99.7249 190.903C99.4849 190.925 99.2533 191.003 99.0482 191.129C98.695 191.422 98.463 191.835 98.3972 192.289C98.2373 193.073 98.2859 193.884 98.538 194.643C98.7902 195.402 99.2371 196.082 99.8342 196.614C100.063 196.84 100.337 197.016 100.638 197.129C100.939 197.242 101.26 197.29 101.581 197.271C101.739 197.253 101.891 197.203 102.029 197.125C102.167 197.047 102.288 196.942 102.384 196.816C102.481 196.69 102.551 196.546 102.59 196.392C102.63 196.239 102.638 196.079 102.614 195.922" fill="#F9C4D1"/>
<path d="M114.411 197.623C114.505 198.145 114.412 198.683 114.148 199.143C113.884 199.603 113.465 199.954 112.967 200.136C111.736 200.514 109.349 199.778 109.523 198.507C109.698 198.013 114.266 197.276 114.411 197.623Z" fill="#E588A7"/>
<path d="M112.185 193.129C112.344 193.673 113.17 193.744 113.406 194.261C113.454 194.387 113.472 194.523 113.457 194.657C113.442 194.792 113.396 194.92 113.321 195.033C113.17 195.257 112.974 195.447 112.746 195.592" stroke="#E588A7" stroke-width="1.663" stroke-miterlimit="10"/>
<path d="M116.744 188.89C116.338 188.356 115.774 188.27 115.365 189.424C115.108 190.149 115.107 191.543 116.111 191.655C117.648 191.826 117.407 189.761 116.744 188.89Z" fill="#8E5169"/>
<path d="M116.885 189.534C116.706 189.296 116.456 189.259 116.275 189.77C116.161 190.092 116.16 190.71 116.605 190.76C117.286 190.836 117.179 189.92 116.885 189.534Z" fill="white"/>
<path d="M113.68 186.911C114.163 186.363 114.817 185.994 115.536 185.864C115.818 185.79 116.115 185.797 116.392 185.886C116.669 185.975 116.916 186.14 117.102 186.364" stroke="#8E5169" stroke-miterlimit="10"/>
<path d="M107.392 189.42C106.939 188.857 106.308 188.768 105.847 189.989C105.557 190.758 105.547 192.231 106.675 192.346C108.395 192.522 108.131 190.34 107.392 189.42Z" fill="#8E5169"/>
<path d="M107.547 190.106C107.347 189.856 107.067 189.817 106.862 190.358C106.733 190.699 106.731 191.352 107.23 191.404C107.994 191.476 107.876 190.506 107.547 190.106Z" fill="white"/>
<path d="M108.728 187.279C107.894 187.08 107.019 187.133 106.215 187.432C105.411 187.73 104.713 188.26 104.209 188.954" stroke="#8E5169" stroke-miterlimit="10"/>
<path d="M108.941 195.043C108.948 194.793 108.886 194.545 108.763 194.327C108.64 194.109 108.459 193.928 108.241 193.805C107.752 193.511 107.203 193.331 106.635 193.279C106.066 193.227 105.493 193.304 104.959 193.505C104.728 193.575 104.518 193.7 104.348 193.871C104.177 194.041 104.051 194.25 103.98 194.481C103.924 194.772 103.955 195.074 104.067 195.348C104.253 195.866 104.602 196.309 105.061 196.611C105.521 196.914 106.066 197.059 106.615 197.025C107.164 196.991 107.687 196.78 108.105 196.424C108.524 196.067 108.816 195.584 108.937 195.048L108.941 195.043Z" fill="#F9AFC7"/>
<path d="M117.497 194.025C117.504 193.839 117.468 193.654 117.393 193.483C117.318 193.312 117.206 193.161 117.065 193.039C116.797 192.806 116.467 192.657 116.115 192.608C115.763 192.559 115.405 192.614 115.083 192.765C114.931 192.835 114.799 192.941 114.698 193.074C114.597 193.207 114.529 193.363 114.502 193.528C114.472 193.759 114.493 193.993 114.563 194.215C114.588 194.604 114.767 194.967 115.06 195.225C115.353 195.482 115.736 195.613 116.125 195.587C116.514 195.562 116.877 195.384 117.134 195.091C117.392 194.798 117.522 194.415 117.497 194.026V194.025Z" fill="#F9AFC7"/>
<path d="M73.6681 240.206C73.6681 240.206 68.7411 248.39 69.9451 253.679C71.1491 258.968 81.6001 263.752 97.5911 267.404C108.671 264.76 100.473 261.99 100.473 261.99L84.2581 252.923L86.5121 243.223L73.6681 240.206Z" fill="#F9C4D1"/>
<path d="M143.068 242.386C143.068 242.386 147.996 250.57 146.791 255.859C145.586 261.148 135.136 265.934 119.145 269.586C108.065 266.942 116.263 264.172 116.263 264.172L132.48 255.106L130.226 245.406L143.068 242.386Z" fill="#F9C4D1"/>
<path d="M100.217 209.135C103.475 216.268 112.557 216.112 115.007 208.724C115.007 208.724 118.825 209.072 121.365 213.517C125.01 223.257 127.676 233.336 129.321 243.605C131.336 258.966 127.684 262.996 127.684 262.996L118.984 265.262L87.5132 259.596C87.5132 259.596 84.7432 242.428 88.3942 228.536C92.0452 214.644 94.4432 214.312 100.217 209.135Z" fill="#516FE9"/>
<path d="M100.217 209.135C100.217 209.135 87.5172 208.79 82.7332 216.062C78.8932 221.897 72.6212 235.456 70.2932 240.584C69.9745 241.274 69.8699 242.044 69.9931 242.794C70.1163 243.543 70.4615 244.239 70.9842 244.791C72.9842 246.858 77.1082 249.535 84.8012 248.799C94.5692 241.59 95.8282 224.736 95.8282 224.736L100.217 209.135Z" fill="#516FE9"/>
<path d="M115.006 208.724C115.006 208.724 125.416 209.188 129.32 212.106C132.306 214.338 140.673 229.606 144.72 237.106C145.335 238.235 145.481 239.561 145.127 240.797C144.773 242.034 143.947 243.081 142.828 243.714C138.665 246.199 134.013 247.752 129.192 248.266C122.141 248.766 121.34 242.474 121.362 241.966C121.384 241.458 115.006 208.724 115.006 208.724Z" fill="#516FE9"/>
<path d="M90.9382 228.508C90.9382 228.508 85.2522 237.308 88.4002 245.241" stroke="white" stroke-miterlimit="10"/>
<path d="M125.171 228.508C125.171 228.508 130.857 237.308 127.709 245.241" stroke="white" stroke-miterlimit="10"/>
<path d="M89.6231 265.262C89.6231 265.262 57.3141 257.18 52.6141 271.399C47.9141 285.618 70.4221 296.699 113.73 295.523C115.402 292.333 114.114 284.443 114.114 284.443L108.806 270.166L89.6231 265.262Z" fill="#0A1854"/>
<path d="M128.402 265.262C128.402 265.262 160.71 257.18 165.411 271.399C170.112 285.618 147.602 296.699 104.295 295.523C102.623 292.333 103.911 284.443 103.911 284.443L109.222 270.165L128.402 265.262Z" fill="#0A1854"/>
<path d="M114.113 284.442C114.113 284.442 126.313 288.051 127.321 289.058C128.454 287.043 130.469 284.273 132.609 286.288C134.577 288.347 137.101 289.79 139.873 290.443C142.556 291.073 146.334 292.584 145.452 293.465C144.57 294.346 124.678 295.51 113.699 295.583C114.324 293.568 115.304 287.647 114.113 284.442Z" fill="#F9C4D1"/>
<path d="M80.3081 274.579C80.3081 274.579 99.3931 278.441 114.113 284.442" stroke="white" stroke-miterlimit="10" stroke-linecap="round"/>
<path d="M144.067 270.165C144.067 270.165 123.432 273.844 111.467 283.403" stroke="white" stroke-miterlimit="10" stroke-linecap="round"/>
<path d="M86.0931 240.396H133.598C134.235 240.396 134.845 240.649 135.295 241.099C135.745 241.549 135.998 242.159 135.998 242.796V275.586H83.6931V242.796C83.6931 242.159 83.946 241.549 84.3961 241.099C84.8461 240.649 85.4566 240.396 86.0931 240.396V240.396Z" fill="white"/>
<path d="M135.995 275.586H83.6931V277.223H135.995V275.586Z" fill="#EBEFFF"/>
<path d="M114.849 257.991C114.848 258.979 114.554 259.945 114.004 260.767C113.455 261.588 112.674 262.229 111.76 262.606C110.847 262.984 109.842 263.083 108.872 262.89C107.903 262.697 107.013 262.22 106.314 261.522C105.615 260.823 105.139 259.932 104.945 258.963C104.752 257.993 104.851 256.988 105.229 256.075C105.607 255.161 106.247 254.381 107.068 253.831C107.89 253.281 108.856 252.987 109.844 252.986C111.172 252.986 112.445 253.513 113.383 254.452C114.322 255.391 114.849 256.664 114.849 257.991Z" fill="#EBEFFF"/>
<path d="M208.92 246.317V295.142" stroke="#0A1854" stroke-width="2" stroke-miterlimit="10" stroke-linecap="round"/>
<path d="M226.69 246.752L237.993 295.608" stroke="#0A1854" stroke-width="2" stroke-miterlimit="10" stroke-linecap="round"/>
<path d="M191.15 246.752L179.847 295.608" stroke="#0A1854" stroke-width="2" stroke-miterlimit="10" stroke-linecap="round"/>
<path d="M242.736 248.059H176.225C175.98 248.059 175.737 248.011 175.51 247.917C175.283 247.823 175.077 247.686 174.904 247.512C174.73 247.339 174.592 247.133 174.498 246.906C174.404 246.679 174.356 246.436 174.356 246.191C174.356 245.946 174.404 245.702 174.498 245.476C174.592 245.249 174.73 245.043 174.903 244.869C175.077 244.696 175.283 244.558 175.51 244.464C175.737 244.37 175.98 244.322 176.225 244.322H242.736C243.232 244.322 243.707 244.519 244.058 244.869C244.408 245.22 244.605 245.695 244.605 246.191C244.605 246.687 244.408 247.162 244.057 247.512C243.707 247.862 243.232 248.059 242.736 248.059Z" fill="#040F3B"/>
<path d="M212.163 231.416C212.163 231.416 202.794 207.932 208.391 205.616C213.988 203.3 213.866 229.216 213.866 231.416C213.866 233.616 212.163 231.416 212.163 231.416Z" fill="#109F6F"/>
<path d="M215.937 231.417C215.937 231.417 208.393 180.556 217.276 179.339C226.159 178.122 219.83 228.617 218.127 232.389C215.57 232.142 215.937 231.417 215.937 231.417Z" fill="#16D594"/>
<path d="M220.437 232.388C220.437 232.388 221.897 196.008 228.346 196.372C234.795 196.736 221.902 232.388 221.902 232.388H220.437Z" fill="#109F6F"/>
<path d="M226.929 233.491L226.829 234.024L224.71 244.324H210.142L208.023 234.024L207.923 233.491H226.929Z" fill="#0A1854"/>
<g style="mix-blend-mode:multiply" opacity="0.3">
<path d="M226.929 233.491L226.829 234.024H208.029L207.929 233.491H226.929Z" fill="#0A1854"/>
</g>
<path d="M227.873 230.432H206.976C206.405 230.432 205.942 230.895 205.942 231.466V232.463C205.942 233.034 206.405 233.497 206.976 233.497H227.873C228.444 233.497 228.907 233.034 228.907 232.463V231.466C228.907 230.895 228.444 230.432 227.873 230.432Z" fill="#0A1854"/>
<path d="M265.577 288.113V297.803H314.811V288.113H265.577Z" fill="#516FE9"/>
<path d="M270.817 290.62V295.297H302.074V290.62H270.817Z" fill="#DEEAFA"/>
<path d="M266.577 268.732V278.423H315.811V268.732H266.577Z" fill="#516FE9"/>
<path d="M271.817 271.239V275.916H303.074V271.239H271.817Z" fill="#DEEAFA"/>
<path d="M257.577 278.423V288.114H306.811V278.423H257.577Z" fill="#F99C40"/>
<path d="M262.817 280.93V285.607H294.074V280.93H262.817Z" fill="#DEEAFA"/>
<path d="M392.908 280.353L394.567 297.509H369.679L380.779 287.215L380.651 280.49L392.908 280.353Z" fill="#F99C40"/>
<path d="M383.286 290.357C383.384 290.356 383.479 290.322 383.554 290.26C383.63 290.198 383.682 290.112 383.702 290.016C383.721 289.921 383.708 289.821 383.663 289.734C383.618 289.647 383.545 289.578 383.455 289.539L379.879 287.996C379.776 287.954 379.66 287.955 379.557 287.997C379.454 288.04 379.371 288.121 379.327 288.223C379.283 288.325 379.281 288.441 379.321 288.545C379.361 288.649 379.44 288.733 379.541 288.78L383.117 290.323C383.171 290.346 383.228 290.357 383.286 290.357Z" fill="#1B1B43"/>
<path d="M381.153 292.774C381.251 292.773 381.346 292.739 381.421 292.677C381.497 292.615 381.549 292.529 381.569 292.433C381.588 292.338 381.575 292.238 381.53 292.151C381.485 292.064 381.412 291.995 381.322 291.956L377.746 290.413C377.643 290.371 377.527 290.372 377.424 290.414C377.321 290.457 377.238 290.538 377.194 290.64C377.15 290.742 377.148 290.858 377.188 290.962C377.228 291.066 377.307 291.151 377.408 291.197L380.984 292.74C381.037 292.763 381.095 292.774 381.153 292.774Z" fill="#1B1B43"/>
<path d="M393.923 290.271C392.09 290.439 390.375 291.25 389.082 292.56C388.011 293.927 387.39 295.592 387.304 297.326C387.248 297.867 386.394 297.872 386.451 297.326C386.551 295.405 387.235 293.56 388.41 292.037C389.805 290.567 391.681 289.649 393.697 289.449C394.234 289.367 394.466 290.189 393.924 290.272L393.923 290.271Z" fill="#1B1B43"/>
<path d="M422.108 280.524L424.03 297.509H447.23L438.04 288.245L434.19 280.49L422.108 280.524Z" fill="#F99C40"/>
<path d="M434.461 290.214C434.519 290.214 434.577 290.202 434.63 290.179L438.206 288.636C438.307 288.589 438.386 288.505 438.426 288.401C438.466 288.297 438.464 288.181 438.42 288.079C438.376 287.977 438.293 287.896 438.19 287.853C438.087 287.811 437.972 287.81 437.868 287.852L434.292 289.395C434.203 289.434 434.129 289.503 434.084 289.59C434.039 289.677 434.026 289.777 434.046 289.873C434.065 289.968 434.117 290.054 434.193 290.116C434.269 290.178 434.363 290.212 434.461 290.213V290.214Z" fill="#1B1B43"/>
<path d="M436.594 292.632C436.652 292.632 436.71 292.62 436.763 292.597L440.339 291.054C440.44 291.007 440.52 290.923 440.559 290.819C440.599 290.715 440.597 290.599 440.553 290.497C440.509 290.395 440.426 290.314 440.323 290.271C440.22 290.229 440.105 290.228 440.001 290.27L436.425 291.813C436.335 291.852 436.261 291.921 436.216 292.008C436.17 292.095 436.156 292.195 436.176 292.291C436.196 292.387 436.249 292.474 436.325 292.536C436.401 292.598 436.496 292.632 436.594 292.632Z" fill="#1B1B43"/>
<path d="M423.553 289.523C425.569 289.723 427.446 290.642 428.84 292.111C430.016 293.634 430.699 295.479 430.799 297.4C430.856 297.945 429.999 297.942 429.946 297.4C429.86 295.666 429.239 294.001 428.167 292.634C426.874 291.324 425.159 290.514 423.326 290.346C422.785 290.264 423.015 289.446 423.553 289.523Z" fill="#1B1B43"/>
<path d="M417.134 164.924L440.746 284.47H418.539L390.966 156.003L417.134 164.924Z" fill="#0A1854"/>
<path d="M399.615 163.277L395.786 283.784H376.258L377.024 157.101L399.615 163.277Z" fill="#0A1854"/>
<path d="M380.109 161.768L413.873 166.16L413.05 107.691L385.6 106.868L380.109 161.768Z" fill="white"/>
<path d="M395.854 90.392V105.46C395.854 109.641 396.313 112.777 400.579 112.99C403.323 113.127 407.125 111.458 408.251 109.138C408.808 107.993 409.094 106.735 409.087 105.461V90.392H395.854Z" fill="#D28572"/>
<path d="M395.855 96.507V103.589C400.034 102.428 403.724 99.9433 406.37 96.507H395.855Z" fill="#925D4F"/>
<path d="M395.855 99.744C396.137 99.8314 396.425 99.8943 396.717 99.932C399.496 100.276 402.312 99.7423 404.772 98.405C406.429 97.5216 407.871 96.2835 408.995 94.779C409.029 94.741 409.06 94.7013 409.089 94.66C409.415 94.2195 409.711 93.7578 409.976 93.278L410.522 91.341L411.341 88.465L413.594 80.513L402.536 75.061C402.536 75.061 394.123 76.81 393.287 77.361C393.422 78.8674 393.456 80.3811 393.387 81.892C393.31 84.025 393.071 86.092 392.858 88.027C392.658 89.716 392.483 91.303 392.423 92.727C392.271 96.306 392.851 98.916 395.855 99.744Z" fill="#D28572"/>
<path d="M411.686 91.786C411.686 91.786 408.595 90.758 409.002 90.122C409.77 89.1103 410.228 87.8973 410.32 86.6302C410.412 85.3632 410.134 84.0968 409.519 82.985C409.135 82.328 407.083 81.797 406.392 81.545C405.529 81.2205 404.636 80.9814 403.726 80.831C402.411 80.618 401.067 80.6824 399.778 81.02C397.986 81.496 396.241 82.728 394.34 82.246C393.582 82.0742 392.881 81.7112 392.303 81.1915C391.726 80.6717 391.291 80.0126 391.04 79.277C390.863 78.3971 390.989 77.4834 391.397 76.684C393.727 71.745 399.38 71.429 403.927 71.862C405.708 71.9298 407.44 72.4561 408.958 73.3901C410.475 74.324 411.726 75.6339 412.588 77.193C412.738 77.563 412.923 77.9173 413.142 78.251C417.992 78.868 415.324 89.779 411.686 91.786Z" fill="#0A1854"/>
<path d="M410.484 95.162C412.26 95.162 413.7 93.6344 413.7 91.75C413.7 89.8656 412.26 88.338 410.484 88.338C408.708 88.338 407.268 89.8656 407.268 91.75C407.268 93.6344 408.708 95.162 410.484 95.162Z" fill="#D28572"/>
<path d="M409.427 81.921C409.312 84.781 409.121 87.804 409.27 90.667C409.316 91.542 409.589 91.448 409.919 91.077C410.385 90.4615 410.656 89.7201 410.695 88.949L411.137 84.383L409.427 81.921Z" fill="#1B1B43"/>
<path d="M400.996 87.601C400.996 88.229 401.36 88.739 401.81 88.739C402.26 88.739 402.624 88.23 402.624 87.601C402.624 86.972 402.26 86.463 401.81 86.463C401.36 86.463 400.996 86.969 400.996 87.601Z" fill="#1B1B43"/>
<path d="M396.119 87.382C396.119 88.01 396.483 88.52 396.933 88.52C397.383 88.52 397.747 88.01 397.747 87.382C397.747 86.754 397.383 86.244 396.933 86.244C396.483 86.244 396.119 86.753 396.119 87.382Z" fill="#1B1B43"/>
<path d="M398.746 93.097C398.797 93.0973 398.846 93.0796 398.885 93.047C398.924 93.0144 398.949 92.9689 398.958 92.9189C398.966 92.8689 398.956 92.8176 398.93 92.7742C398.904 92.7307 398.863 92.6981 398.815 92.682L398.765 92.665C398.302 92.5666 397.884 92.3211 397.572 91.965C397.431 91.724 397.551 91.398 397.95 90.938C398.637 90.2481 399.065 89.3426 399.161 88.374C399.162 88.346 399.158 88.318 399.148 88.2917C399.138 88.2655 399.123 88.2415 399.104 88.221C399.084 88.2005 399.061 88.184 399.036 88.1724C399.01 88.1608 398.983 88.1544 398.955 88.1535C398.927 88.1526 398.899 88.1572 398.872 88.167C398.846 88.1769 398.822 88.1919 398.802 88.2111C398.781 88.2302 398.765 88.2533 398.753 88.2788C398.742 88.3044 398.735 88.3319 398.734 88.36C398.638 89.2303 398.247 90.0417 397.627 90.66C397.412 90.907 396.842 91.56 397.203 92.182C397.562 92.6322 398.064 92.9459 398.626 93.071L398.676 93.088C398.699 93.0949 398.723 93.0979 398.746 93.097Z" fill="#925D4F"/>
<path d="M401.372 93.652L396.962 94.789C396.962 94.789 400.694 97.763 401.372 93.652Z" fill="white"/>
<path d="M404.455 86.066C404.26 85.7746 404.002 85.5306 403.7 85.352C403.391 85.1674 403.048 85.0473 402.691 84.999C402.337 84.9437 401.976 84.9701 401.633 85.076C401.291 85.1819 400.978 85.3645 400.717 85.61L400.869 85.91C401.19 85.874 401.477 85.835 401.759 85.822C402.034 85.8075 402.309 85.8155 402.582 85.846C402.858 85.8792 403.129 85.9374 403.394 86.02C403.669 86.099 403.941 86.211 404.241 86.32L404.455 86.066Z" fill="#1B1B43"/>
<path d="M395.61 85.692C395.899 85.637 396.156 85.554 396.404 85.492C396.633 85.4314 396.868 85.3922 397.104 85.375C397.326 85.3628 397.548 85.3787 397.766 85.422C397.995 85.466 398.233 85.544 398.511 85.622L398.722 85.364C398.556 85.0879 398.316 84.8643 398.028 84.719C397.725 84.5644 397.384 84.4978 397.044 84.527C396.72 84.5553 396.406 84.6546 396.124 84.818C395.861 84.9692 395.628 85.1683 395.437 85.405L395.61 85.692Z" fill="#1B1B43"/>
<path opacity="0.2" d="M406.409 89.8597C405.4 88.9335 403.832 89 402.906 90.0083C401.98 91.0165 402.046 92.5847 403.054 93.5109C404.063 94.4371 405.631 94.3706 406.557 93.3624C407.483 92.3541 407.417 90.7859 406.409 89.8597Z" fill="#BE443D"/>
<path opacity="0.2" d="M392.424 92.722C392.729 92.8536 393.057 92.9217 393.388 92.922C393.993 92.923 394.577 92.7034 395.031 92.3044C395.485 91.9054 395.777 91.3545 395.854 90.755C395.863 90.655 395.871 90.555 395.871 90.448V90.397C395.859 89.7471 395.591 89.1281 395.127 88.6733C394.663 88.2185 394.038 87.9641 393.388 87.965C393.21 87.9635 393.032 87.9836 392.859 88.025C392.663 89.71 392.484 91.297 392.424 92.722Z" fill="#BE443D"/>
<path d="M409.085 105.459C394.864 124.571 402.485 172.335 405.775 181.188L426.98 179.541L420.392 144.541L431.098 132.6L409.085 105.459Z" fill="#FFB147"/>
<path d="M404.455 144.027C403.293 140.448 405.874 136.345 410.305 131.984L413.059 137.912L404.455 144.027Z" fill="white"/>
<path d="M410.285 175.676C410.318 175.675 410.35 175.667 410.379 175.652C410.408 175.637 410.434 175.615 410.453 175.589C410.472 175.562 410.485 175.531 410.491 175.499C410.497 175.467 410.495 175.433 410.485 175.402C406.494 162.078 405.799 143.565 405.623 130.802C405.622 130.746 405.6 130.693 405.56 130.653C405.52 130.614 405.466 130.592 405.41 130.592C405.382 130.592 405.355 130.598 405.329 130.609C405.303 130.62 405.28 130.636 405.26 130.656C405.241 130.677 405.225 130.7 405.215 130.726C405.205 130.752 405.2 130.78 405.2 130.808C405.568 157.516 408.161 169.121 410.079 175.527C410.093 175.571 410.12 175.609 410.157 175.636C410.195 175.662 410.239 175.677 410.285 175.676Z" fill="white"/>
<path d="M397.556 131.854C397.413 130.3 397.834 128.747 398.742 127.478C399.306 126.822 401.342 127.478 402.459 128.011C402.513 128.036 401.108 121.611 401.695 121.138C401.834 121.018 402 120.934 402.179 120.892C402.358 120.851 402.544 120.854 402.722 120.9C402.9 120.946 403.063 121.035 403.199 121.159C403.335 121.283 403.438 121.437 403.501 121.61C404.024 122.789 404.483 123.995 404.878 125.223C405.43 126.963 406.43 128.528 407.778 129.759C408.925 130.749 410.239 131.351 410.805 132.859C411.131 133.984 411.183 135.171 410.956 136.32C410.837 137.615 410.53 138.887 410.043 140.093C409.847 140.698 409.426 141.206 408.868 141.511C408.103 141.666 407.307 141.535 406.632 141.143C405.115 140.555 403.582 140.016 402.032 139.527C400.714 139.166 399.522 138.445 398.59 137.445C397.681 136.372 397.713 135.175 397.641 133.845C397.606 133.225 397.561 132.545 397.556 131.854ZM409.172 137.714H409.154C409.239 137.818 409.248 137.821 409.171 137.714H409.172Z" fill="#D28572"/>
<path d="M401.255 130.837C401.333 130.837 401.409 130.809 401.468 130.757C401.527 130.705 401.564 130.633 401.573 130.555C401.583 130.477 401.563 130.399 401.519 130.335C401.474 130.27 401.407 130.224 401.331 130.206L398.131 129.424C398.049 129.404 397.962 129.417 397.889 129.461C397.816 129.505 397.764 129.576 397.744 129.659C397.724 129.741 397.737 129.829 397.781 129.901C397.826 129.974 397.897 130.026 397.979 130.046L401.179 130.828C401.204 130.834 401.23 130.837 401.255 130.837Z" fill="#925D4F"/>
<path d="M401.042 133.396C401.12 133.396 401.196 133.367 401.255 133.316C401.314 133.264 401.351 133.192 401.36 133.114C401.37 133.036 401.35 132.958 401.306 132.894C401.261 132.829 401.194 132.783 401.118 132.765L397.918 131.983C397.877 131.971 397.833 131.967 397.79 131.972C397.747 131.977 397.706 131.991 397.668 132.013C397.631 132.034 397.598 132.063 397.572 132.098C397.546 132.132 397.527 132.172 397.517 132.214C397.507 132.256 397.505 132.3 397.512 132.342C397.519 132.385 397.535 132.426 397.558 132.462C397.582 132.499 397.612 132.53 397.648 132.554C397.683 132.579 397.724 132.596 397.766 132.604L400.966 133.386C400.991 133.392 401.016 133.396 401.042 133.396Z" fill="#925D4F"/>
<path d="M401.114 136.099C401.192 136.099 401.268 136.071 401.327 136.019C401.386 135.967 401.423 135.895 401.432 135.817C401.442 135.739 401.422 135.661 401.378 135.597C401.333 135.532 401.266 135.486 401.19 135.468L397.99 134.686C397.908 134.666 397.821 134.679 397.748 134.723C397.675 134.767 397.623 134.839 397.603 134.921C397.583 135.003 397.596 135.091 397.64 135.163C397.685 135.236 397.756 135.288 397.838 135.308L401.038 136.09C401.063 136.096 401.089 136.099 401.114 136.099Z" fill="#925D4F"/>
<path d="M404.524 143.925C408.175 147.479 412.187 150.642 416.495 153.362C420.608 155.962 425.36 158.635 430.343 158.882C438.043 159.266 441.343 151.1 441.034 144.565C440.693 137.133 436.768 130.324 433.219 123.985C429.67 117.646 424.619 111.946 417.852 108.977C417.801 108.96 417.752 108.934 417.698 108.917L409.089 105.188V105.461C409.096 106.735 408.81 107.993 408.253 109.138L421.836 137.884L410.309 131.984C409.137 136.288 407.176 140.338 404.524 143.925Z" fill="#FFB147"/>
<path d="M429.519 141.574C429.566 141.574 429.612 141.557 429.649 141.528C429.686 141.499 429.712 141.458 429.724 141.413C429.735 141.367 429.731 141.319 429.712 141.275C429.693 141.232 429.66 141.197 429.619 141.174L410.582 131.406C410.557 131.393 410.53 131.385 410.502 131.383C410.474 131.381 410.446 131.384 410.419 131.393C410.392 131.401 410.368 131.415 410.346 131.433C410.325 131.451 410.307 131.474 410.295 131.498C410.282 131.523 410.274 131.551 410.272 131.579C410.269 131.607 410.273 131.635 410.281 131.661C410.29 131.688 410.304 131.713 410.322 131.734C410.34 131.756 410.362 131.773 410.387 131.786L429.423 141.554C429.453 141.568 429.486 141.575 429.519 141.574Z" fill="white"/>
<path d="M422.8 157.039C422.845 157.039 422.889 157.025 422.926 156.998C422.963 156.971 422.99 156.934 423.003 156.891C423.017 156.847 423.017 156.801 423.002 156.758C422.988 156.715 422.96 156.678 422.923 156.652L404.647 143.752C404.624 143.736 404.598 143.724 404.571 143.718C404.544 143.712 404.515 143.711 404.488 143.716C404.46 143.721 404.434 143.731 404.41 143.746C404.386 143.761 404.366 143.781 404.35 143.803C404.334 143.826 404.322 143.852 404.316 143.88C404.31 143.907 404.309 143.935 404.314 143.963C404.319 143.991 404.329 144.017 404.344 144.041C404.359 144.064 404.378 144.085 404.401 144.101L422.677 157.001C422.713 157.026 422.756 157.039 422.8 157.039Z" fill="white"/>
<path d="M424.292 138.694C424.321 138.694 424.349 138.688 424.375 138.677C424.401 138.666 424.424 138.65 424.444 138.63C424.464 138.611 424.479 138.587 424.49 138.561C424.501 138.535 424.506 138.507 424.506 138.479C424.506 138.451 424.5 138.424 424.489 138.398L419.05 125.493C419.028 125.441 418.986 125.4 418.934 125.378C418.882 125.357 418.823 125.357 418.771 125.379C418.719 125.402 418.677 125.443 418.656 125.496C418.635 125.548 418.635 125.607 418.657 125.659L424.096 138.564C424.112 138.603 424.14 138.635 424.175 138.658C424.209 138.682 424.25 138.694 424.292 138.694Z" fill="white"/>
<path d="M407.299 129.308C407.334 129.308 407.369 129.3 407.399 129.283C407.43 129.267 407.457 129.243 407.476 129.214L414.644 118.605L411.344 108.268C411.327 108.214 411.289 108.169 411.239 108.144C411.188 108.118 411.13 108.113 411.076 108.13C411.022 108.147 410.978 108.185 410.952 108.235C410.926 108.286 410.921 108.344 410.938 108.398L414.177 118.538L407.125 128.976C407.103 129.008 407.091 129.045 407.088 129.084C407.086 129.123 407.095 129.161 407.113 129.196C407.131 129.23 407.158 129.258 407.191 129.278C407.224 129.298 407.262 129.309 407.301 129.309L407.299 129.308Z" fill="white"/>
<path d="M317.829 108.851C318.06 111.131 320.165 110.714 321.164 112.568C322.374 114.811 325.664 117.184 328.278 115.568C329.665 114.676 330.702 113.334 331.217 111.768C331.976 109.539 329.807 106.404 328.643 104.721C327.514 103.089 324.75 102.587 322.875 102.567C322.178 102.639 321.508 102.874 320.919 103.253C320.33 103.632 319.839 104.144 319.484 104.748C318.725 105.981 317.684 107.428 317.829 108.851Z" fill="#D28572"/>
<path d="M316.934 108.6C316.561 109.483 317.567 110.228 318.949 110.812C320.331 111.396 321.567 111.598 321.94 110.712C322.34 109.761 321.307 109.084 319.925 108.499C318.543 107.914 317.422 107.443 316.934 108.6Z" fill="#D28572"/>
<path d="M320.547 106.683C318.849 105.965 317.258 105.89 316.994 106.515C316.73 107.139 317.893 108.228 319.591 108.945C321.289 109.662 322.88 109.738 323.144 109.113C323.408 108.488 322.245 107.4 320.547 106.683Z" fill="#D28572"/>
<path d="M322.657 106.674L324.11 105.782L308.226 79.9059L306.773 80.7982L322.657 106.674Z" fill="#0A1854"/>
<path d="M328.575 105.232C327.516 105.427 326.492 104.213 325.438 104.432C324 104.755 322.496 104.595 321.158 103.977C320.252 103.63 318.971 102.677 318.941 101.586C318.921 101.427 318.943 101.265 319.006 101.118C319.07 100.97 319.171 100.842 319.3 100.747C319.691 100.533 320.146 100.847 320.515 101.098C322.904 102.712 326.16 101.206 328.704 105.179L328.575 105.232Z" fill="#D28572"/>
<path d="M318.457 104.523C317.916 105.29 318.675 106.194 320.3 107.353C321.925 108.512 322.85 108.817 323.124 107.918C323.298 107.348 323.341 106.505 321.716 105.347C320.091 104.189 319.166 103.518 318.457 104.523Z" fill="#D28572"/>
<path d="M326.197 109.95C326.241 109.95 326.285 109.937 326.321 109.911C326.357 109.885 326.384 109.849 326.399 109.807C326.414 109.766 326.415 109.72 326.403 109.678C326.39 109.635 326.365 109.598 326.33 109.57C325.744 109.16 325.298 108.579 325.054 107.906C324.809 107.234 324.779 106.502 324.966 105.811C324.979 105.756 324.968 105.698 324.938 105.65C324.908 105.603 324.86 105.569 324.805 105.557C324.75 105.544 324.692 105.554 324.644 105.585C324.596 105.615 324.563 105.663 324.55 105.718C324.341 106.487 324.374 107.302 324.645 108.051C324.916 108.801 325.412 109.448 326.065 109.905C326.103 109.934 326.149 109.95 326.197 109.95Z" fill="#925D4F"/>
<path d="M322.342 107.809C322.496 107.813 322.648 107.781 322.787 107.716C322.926 107.651 323.048 107.554 323.142 107.433C323.202 107.348 323.245 107.252 323.269 107.151C323.292 107.05 323.295 106.945 323.277 106.842C323.264 106.753 323.233 106.667 323.185 106.59C323.138 106.514 323.076 106.447 323.002 106.395C322.956 106.363 322.898 106.351 322.842 106.361C322.787 106.372 322.738 106.404 322.706 106.451C322.674 106.497 322.662 106.555 322.672 106.61C322.682 106.666 322.715 106.715 322.761 106.747C322.788 106.767 322.811 106.792 322.828 106.82C322.845 106.849 322.856 106.88 322.861 106.913C322.877 107.006 322.856 107.102 322.802 107.18C322.737 107.257 322.653 107.316 322.558 107.351C322.463 107.386 322.361 107.396 322.261 107.38C321.754 107.282 321.259 107.126 320.787 106.916C320.764 106.9 320.738 106.889 320.711 106.883C320.684 106.877 320.655 106.876 320.628 106.881C320.572 106.891 320.523 106.923 320.49 106.969C320.458 107.015 320.445 107.073 320.455 107.128C320.465 107.184 320.497 107.234 320.543 107.266C321.074 107.518 321.636 107.699 322.214 107.804C322.257 107.808 322.3 107.81 322.342 107.809Z" fill="#925D4F"/>
<path d="M321.336 109.32C321.452 109.327 321.567 109.309 321.676 109.268C321.784 109.226 321.882 109.162 321.963 109.08C322.037 108.991 322.087 108.885 322.11 108.772C322.133 108.659 322.128 108.542 322.094 108.431C321.904 107.972 321.66 107.538 321.366 107.138C321.345 107.12 321.32 107.106 321.293 107.097C321.267 107.089 321.239 107.085 321.211 107.088C321.183 107.09 321.155 107.098 321.13 107.11C321.106 107.123 321.083 107.141 321.065 107.162C321.047 107.183 321.033 107.208 321.025 107.235C321.016 107.261 321.013 107.29 321.015 107.318C321.017 107.345 321.025 107.373 321.037 107.398C321.05 107.423 321.068 107.445 321.089 107.463C321.317 107.808 321.515 108.171 321.683 108.548C321.697 108.59 321.7 108.635 321.693 108.678C321.686 108.721 321.668 108.763 321.642 108.798C321.568 108.882 321.409 108.911 321.168 108.881C320.568 108.784 319.98 108.619 319.417 108.389C319.365 108.372 319.307 108.375 319.257 108.399C319.207 108.424 319.169 108.466 319.15 108.518C319.131 108.57 319.133 108.628 319.156 108.678C319.178 108.729 319.22 108.768 319.271 108.789C319.865 109.03 320.484 109.203 321.117 109.303C321.19 109.313 321.263 109.319 321.336 109.32Z" fill="#925D4F"/>
<path d="M320.312 111.15C320.503 111.15 320.693 111.131 320.88 111.095C320.988 111.081 321.091 111.039 321.179 110.973C321.266 110.908 321.335 110.822 321.38 110.722C321.627 110.082 320.733 109.099 320.352 108.833C320.329 108.817 320.303 108.806 320.276 108.8C320.248 108.794 320.22 108.793 320.193 108.798C320.137 108.808 320.087 108.84 320.055 108.886C320.023 108.932 320.01 108.99 320.02 109.045C320.03 109.101 320.062 109.151 320.108 109.183C320.464 109.431 321.108 110.246 320.982 110.568C320.961 110.598 320.933 110.624 320.901 110.642C320.869 110.661 320.833 110.672 320.796 110.675C320.386 110.76 319.961 110.733 319.565 110.598C319.538 110.586 319.509 110.58 319.48 110.58C319.451 110.579 319.422 110.585 319.395 110.597C319.368 110.608 319.343 110.625 319.323 110.647C319.303 110.668 319.288 110.693 319.278 110.721C319.268 110.749 319.264 110.778 319.266 110.807C319.268 110.836 319.276 110.865 319.29 110.891C319.303 110.917 319.322 110.94 319.345 110.958C319.367 110.977 319.394 110.99 319.422 110.998C319.708 111.099 320.009 111.151 320.312 111.15Z" fill="#925D4F"/>
<path d="M377.57 127.862L367.345 133.901C357.401 139.715 347.581 138.979 338.522 130.47L324.453 117.162L333.1 107.898C339.212 113.72 351.011 125.26 360.884 118.532L371.728 110.591C375.989 107.728 380.79 105.765 385.836 104.823L395.862 103.16C397.062 118.86 391.648 155.52 385.187 176.66L366.864 169.66C369.746 160.189 374.756 139.327 377.57 127.862Z" fill="#FFB147"/>
<path d="M375.018 139.334C375.067 139.334 375.114 139.317 375.152 139.286C375.19 139.256 375.216 139.213 375.226 139.165L379.492 119.327C379.498 119.3 379.499 119.271 379.494 119.244C379.489 119.216 379.478 119.19 379.463 119.166C379.448 119.143 379.428 119.122 379.405 119.107C379.382 119.091 379.356 119.079 379.329 119.073C379.301 119.068 379.273 119.067 379.245 119.072C379.218 119.077 379.192 119.088 379.168 119.103C379.144 119.118 379.124 119.138 379.108 119.161C379.092 119.184 379.081 119.21 379.075 119.237L374.809 139.075C374.803 139.106 374.803 139.138 374.811 139.169C374.818 139.2 374.832 139.229 374.852 139.254C374.872 139.278 374.898 139.298 374.926 139.312C374.955 139.326 374.986 139.333 375.018 139.333V139.334Z" fill="white"/>
<path d="M382.179 170.877C382.229 170.877 382.277 170.859 382.315 170.827C382.353 170.795 382.379 170.751 382.388 170.702L390.596 126.233L387.481 117.595L394.261 105.165C394.277 105.14 394.287 105.113 394.291 105.084C394.295 105.055 394.294 105.025 394.286 104.997C394.279 104.969 394.265 104.943 394.247 104.92C394.229 104.897 394.206 104.878 394.181 104.864C394.155 104.85 394.127 104.842 394.098 104.84C394.068 104.838 394.039 104.841 394.012 104.851C393.984 104.86 393.959 104.875 393.937 104.895C393.915 104.914 393.898 104.938 393.886 104.965L387.014 117.565L390.156 126.276L381.969 170.631C381.964 170.659 381.964 170.687 381.97 170.714C381.976 170.742 381.987 170.768 382.003 170.791C382.019 170.814 382.039 170.834 382.063 170.849C382.086 170.865 382.113 170.875 382.14 170.88C382.153 170.88 382.166 170.879 382.179 170.877Z" fill="white"/>
<path d="M328.519 117.932C328.548 117.932 328.576 117.926 328.603 117.915C328.629 117.903 328.653 117.887 328.673 117.866L334.788 111.466C334.827 111.425 334.849 111.37 334.847 111.314C334.846 111.257 334.822 111.203 334.781 111.164C334.74 111.125 334.685 111.104 334.629 111.105C334.572 111.106 334.518 111.13 334.479 111.171L328.364 117.571C328.335 117.601 328.316 117.639 328.309 117.68C328.302 117.721 328.306 117.764 328.323 117.802C328.339 117.84 328.366 117.873 328.401 117.896C328.436 117.919 328.476 117.932 328.518 117.932H328.519Z" fill="#1B1B43"/>
<path d="M408.721 143.387C408.769 143.387 408.816 143.371 408.853 143.341C411.019 141.641 412.44 138.941 413.197 135.109C413.208 135.054 413.197 134.996 413.165 134.949C413.134 134.902 413.085 134.87 413.03 134.859C412.974 134.848 412.917 134.859 412.87 134.89C412.823 134.922 412.79 134.971 412.779 135.026C412.043 138.757 410.673 141.367 408.59 143.005C408.555 143.032 408.529 143.07 408.517 143.113C408.504 143.155 408.505 143.201 408.52 143.243C408.534 143.285 408.562 143.321 408.598 143.347C408.634 143.372 408.678 143.386 408.722 143.386L408.721 143.387Z" fill="white"/>
<path d="M399.122 193.941C399.135 193.942 399.149 193.942 399.162 193.941C399.19 193.936 399.216 193.925 399.239 193.91C399.263 193.895 399.283 193.875 399.299 193.852C399.315 193.829 399.326 193.803 399.331 193.775C399.337 193.748 399.337 193.72 399.332 193.692L396.986 181.32C396.976 181.265 396.943 181.215 396.896 181.184C396.85 181.152 396.792 181.14 396.737 181.151C396.681 181.161 396.632 181.193 396.6 181.24C396.568 181.287 396.557 181.344 396.567 181.4L398.913 193.772C398.923 193.82 398.95 193.863 398.988 193.894C399.026 193.924 399.073 193.941 399.122 193.941Z" fill="white"/>
</svg>
