<svg width="499" height="355" viewBox="0 0 499 355" fill="none" xmlns="http://www.w3.org/2000/svg">
<path opacity="0.4" d="M475 0H24C10.7452 0 0 10.7452 0 24V331C0 344.255 10.7452 355 24 355H475C488.255 355 499 344.255 499 331V24C499 10.7452 488.255 0 475 0Z" fill="#DCE3FF"/>
<g opacity="0.4">
<path d="M434.7 258.388C452.363 225.019 454.224 181.626 432.387 150.827C418.167 130.771 395.492 117.845 371.738 111.504C322.283 98.304 267.003 112.834 228.449 146.504C216.449 156.988 205.343 169.546 190.236 174.625C178.7 178.503 166.195 177.517 154.028 177.803C138.008 178.18 121.835 180.922 107.389 187.857C92.943 194.792 80.309 206.191 73.759 220.814C64.059 242.464 68.886 268.487 80.931 288.926C85.7093 297.006 91.5254 304.425 98.231 310.994H388.681C407.429 296.56 423.679 279.208 434.7 258.388Z" fill="#DCE3FF"/>
</g>
<path opacity="0.4" d="M102.239 145.132C115.527 145.132 126.299 134.36 126.299 121.072C126.299 107.784 115.527 97.0121 102.239 97.0121C88.951 97.0121 78.179 107.784 78.179 121.072C78.179 134.36 88.951 145.132 102.239 145.132Z" fill="#DCE3FF"/>
<g opacity="0.49">
<path d="M415.857 162.051C414.793 162.051 413.73 161.978 412.675 161.834L412.752 161.266C414 161.436 415.259 161.503 416.517 161.466L416.534 162.039C416.307 162.048 416.081 162.051 415.857 162.051ZM420.375 161.611L420.264 161.048C421.499 160.805 422.712 160.459 423.889 160.015L424.089 160.551C422.883 161.006 421.641 161.361 420.376 161.611H420.375ZM408.903 160.993C407.671 160.608 406.473 160.122 405.322 159.538L405.581 159.027C406.703 159.596 407.871 160.071 409.072 160.446L408.903 160.993ZM427.581 158.893L427.293 158.398C428.38 157.763 429.413 157.039 430.38 156.233L430.746 156.673C429.753 157.5 428.693 158.243 427.576 158.893H427.581ZM402.036 157.51C401.103 156.819 400.222 156.059 399.401 155.238L399.13 154.963L399.541 154.563L399.805 154.831C400.607 155.632 401.467 156.373 402.377 157.048L402.036 157.51ZM433.5 153.963L433.066 153.589C433.888 152.636 434.629 151.616 435.282 150.54L435.772 150.84C435.103 151.941 434.343 152.985 433.5 153.96V153.963ZM396.679 151.973C395.946 150.91 395.303 149.788 394.757 148.618L395.277 148.376C395.809 149.517 396.436 150.611 397.15 151.647L396.679 151.973ZM437.493 147.373L436.96 147.161C437.424 145.991 437.79 144.785 438.054 143.554L438.615 143.674C438.344 144.936 437.968 146.173 437.492 147.373H437.493ZM393.424 144.987C393.081 143.742 392.841 142.471 392.708 141.187L393.278 141.128C393.409 142.379 393.644 143.616 393.978 144.828L393.424 144.987ZM439.108 139.842L438.536 139.815C438.552 139.469 438.56 139.123 438.56 138.776C438.56 137.865 438.506 136.954 438.397 136.049L438.966 135.98C439.078 136.909 439.134 137.844 439.134 138.78C439.133 139.133 439.124 139.487 439.107 139.842H439.108ZM393.2 137.361L392.628 137.326C392.708 136.038 392.894 134.759 393.185 133.502L393.743 133.632C393.46 134.858 393.278 136.105 393.199 137.361H393.2ZM437.637 132.361C437.282 131.153 436.827 129.977 436.276 128.845L436.792 128.594C437.358 129.753 437.826 130.957 438.192 132.194L437.637 132.361ZM394.897 130.048L394.368 129.828C394.864 128.637 395.46 127.489 396.147 126.397L396.632 126.702C395.961 127.765 395.381 128.883 394.896 130.043L394.897 130.048ZM434.349 125.606C433.617 124.582 432.802 123.619 431.912 122.729L432.312 122.323C433.225 123.236 434.061 124.222 434.812 125.272L434.349 125.606ZM398.899 123.691L398.471 123.309C398.771 122.976 399.08 122.647 399.401 122.324C399.994 121.731 400.618 121.171 401.27 120.644L401.63 121.09C400.994 121.604 400.385 122.151 399.806 122.729C399.493 123.038 399.189 123.358 398.898 123.686L398.899 123.691ZM429.641 120.739C428.642 119.974 427.581 119.294 426.468 118.705L426.737 118.198C427.877 118.801 428.966 119.499 429.99 120.283L429.641 120.739ZM404.751 118.976L404.47 118.476C405.596 117.846 406.772 117.31 407.987 116.876L408.181 117.416C406.996 117.838 405.848 118.358 404.749 118.971L404.751 118.976ZM423.002 117.228C421.807 116.834 420.581 116.539 419.337 116.347L419.425 115.781C420.7 115.977 421.957 116.278 423.182 116.681L423.002 117.228ZM411.823 116.44L411.723 115.876C412.993 115.648 414.28 115.525 415.57 115.509L415.577 116.082C414.318 116.096 413.061 116.214 411.821 116.435L411.823 116.44Z" fill="#516FE9"/>
<path d="M365.196 187.371L365.117 186.803C366.351 186.632 367.55 186.265 368.669 185.717L368.922 186.232C367.749 186.807 366.491 187.191 365.196 187.371ZM361.301 187.295C360.015 187.066 358.773 186.632 357.623 186.011L357.895 185.511C358.991 186.103 360.175 186.516 361.401 186.734L361.301 187.295ZM372.101 183.983L371.701 183.574L371.812 183.465C372.658 182.621 373.37 181.653 373.924 180.594L374.432 180.86C373.851 181.97 373.104 182.985 372.216 183.87L372.101 183.983ZM354.526 183.643C353.624 182.696 352.88 181.612 352.319 180.431L352.838 180.186C353.371 181.312 354.08 182.346 354.938 183.248L354.526 183.643ZM375.665 177.166L375.099 177.072C375.303 175.842 375.311 174.588 375.124 173.356L375.691 173.269C375.888 174.562 375.879 175.879 375.665 177.169V177.166ZM351.229 176.69C351.065 175.394 351.108 174.079 351.354 172.796L351.917 172.904C351.682 174.128 351.642 175.381 351.797 176.618L351.229 176.69ZM373.991 169.817C373.427 168.706 372.691 167.691 371.809 166.81L372.209 166.405C373.134 167.328 373.907 168.392 374.498 169.558L373.991 169.817ZM353.185 169.417L352.685 169.138C353.243 168.137 353.937 167.218 354.748 166.409C354.861 166.296 354.976 166.185 355.092 166.076L355.483 166.496C355.372 166.599 355.262 166.705 355.153 166.813C354.382 167.585 353.721 168.461 353.19 169.414L353.185 169.417ZM369.338 164.917C368.258 164.297 367.085 163.853 365.865 163.603L365.98 163.042C367.26 163.304 368.49 163.77 369.623 164.42L369.338 164.917ZM358.572 164.429L358.334 163.908C359.522 163.364 360.789 163.013 362.088 162.867L362.152 163.437C360.914 163.576 359.706 163.911 358.573 164.43L358.572 164.429Z" fill="#516FE9"/>
<path d="M408.787 201.304C407.357 201.304 405.959 200.88 404.77 200.085C403.581 199.291 402.654 198.162 402.107 196.84C401.559 195.519 401.416 194.065 401.695 192.662C401.974 191.26 402.663 189.971 403.674 188.96C404.685 187.949 405.974 187.26 407.377 186.981C408.779 186.702 410.233 186.845 411.554 187.392C412.876 187.94 414.005 188.867 414.799 190.056C415.594 191.245 416.018 192.643 416.018 194.073C416.016 195.99 415.253 197.828 413.898 199.184C412.542 200.539 410.704 201.302 408.787 201.304ZM408.787 187.416C407.471 187.416 406.183 187.807 405.089 188.538C403.994 189.269 403.141 190.309 402.637 191.526C402.133 192.742 402.001 194.08 402.258 195.372C402.515 196.663 403.149 197.849 404.08 198.78C405.011 199.711 406.197 200.345 407.488 200.602C408.78 200.859 410.118 200.727 411.335 200.223C412.551 199.719 413.591 198.866 414.322 197.772C415.054 196.677 415.444 195.39 415.444 194.073C415.441 192.309 414.739 190.617 413.491 189.37C412.243 188.123 410.552 187.421 408.787 187.419V187.416Z" fill="#516FE9"/>
<path d="M215.654 59.6421C214.224 59.6421 212.826 59.218 211.637 58.4234C210.448 57.6289 209.521 56.4995 208.974 55.1783C208.426 53.857 208.283 52.403 208.562 51.0004C208.841 49.5977 209.53 48.3092 210.541 47.298C211.552 46.2867 212.841 45.598 214.243 45.319C215.646 45.04 217.1 45.1832 218.421 45.7305C219.743 46.2778 220.872 47.2046 221.666 48.3937C222.461 49.5829 222.885 50.9809 222.885 52.4111C222.883 54.3282 222.12 56.1662 220.765 57.5218C219.409 58.8774 217.571 59.6399 215.654 59.6421ZM215.654 45.7541C214.337 45.7541 213.05 46.1446 211.955 46.8761C210.86 47.6077 210.007 48.6476 209.503 49.8641C208.999 51.0807 208.867 52.4194 209.124 53.711C209.381 55.0025 210.015 56.1888 210.946 57.12C211.877 58.0511 213.064 58.6852 214.355 58.9421C215.647 59.199 216.985 59.0672 218.202 58.5632C219.419 58.0593 220.458 57.206 221.19 56.1111C221.922 55.0161 222.312 53.7289 222.312 52.4121C222.311 50.6463 221.609 48.9531 220.361 47.7043C219.113 46.4554 217.42 45.7529 215.654 45.7511V45.7541Z" fill="#516FE9"/>
<path d="M57.8751 171.557C56.4449 171.557 55.0467 171.133 53.8575 170.339C52.6682 169.545 51.7412 168.415 51.1938 167.094C50.6463 165.773 50.503 164.319 50.7819 162.916C51.0608 161.513 51.7494 160.225 52.7606 159.213C53.7719 158.202 55.0603 157.513 56.463 157.234C57.8657 156.955 59.3197 157.098 60.641 157.645C61.9624 158.193 63.0918 159.12 63.8864 160.309C64.6809 161.498 65.1051 162.896 65.1051 164.326C65.103 166.243 64.3406 168.081 62.9852 169.437C61.6298 170.792 59.792 171.555 57.8751 171.557ZM57.8751 157.669C56.5582 157.669 55.2708 158.059 54.1758 158.791C53.0808 159.522 52.2273 160.562 51.7232 161.778C51.2191 162.995 51.0871 164.334 51.3439 165.625C51.6007 166.917 52.2347 168.103 53.1658 169.035C54.0969 169.966 55.2832 170.6 56.5748 170.857C57.8663 171.114 59.2051 170.982 60.4218 170.478C61.6384 169.974 62.6783 169.121 63.4099 168.026C64.1416 166.931 64.5321 165.644 64.5321 164.327C64.5302 162.562 63.8283 160.87 62.5803 159.622C61.3323 158.373 59.6401 157.671 57.8751 157.669Z" fill="#516FE9"/>
<path d="M389.678 94.5191L378.462 83.3041L389.678 72.0891L400.893 83.3041L389.678 94.5191ZM379.278 83.3041L389.678 93.7041L400.078 83.3041L389.678 72.9041L379.278 83.3041Z" fill="#516FE9"/>
<path d="M84.7632 118.177L82.0632 115.477L82.4682 115.072L85.1682 117.772L84.7632 118.177ZM87.8712 116.456L87.4662 116.051L90.1662 113.351L90.5712 113.756L87.8712 116.456ZM79.3582 112.771L76.6582 110.071L77.0632 109.666L79.7632 112.366L79.3582 112.771ZM93.2752 111.05L92.8702 110.645L95.5702 107.945L95.9752 108.35L93.2752 111.05ZM73.9532 107.366L71.2532 104.666L71.6582 104.261L74.3582 106.961L73.9532 107.366ZM98.6812 105.645L98.2762 105.24L100.976 102.54L101.382 102.945L98.6812 105.645ZM68.5492 101.961L65.8492 99.2611L66.2542 98.8561L68.9542 101.556L68.5492 101.961ZM104.086 100.24L103.681 99.8351L106.381 97.1351L106.786 97.5401L104.086 100.24ZM105.644 96.7991L102.944 94.0991L103.349 93.6941L106.049 96.3941L105.644 96.7991ZM65.5122 96.5561L65.1072 96.1511L67.8072 93.4511L68.2122 93.8561L65.5122 96.5561ZM100.239 91.3941L97.5392 88.6941L97.9442 88.2891L100.644 90.9891L100.239 91.3941ZM70.9172 91.1511L70.5122 90.7461L73.2122 88.0461L73.6172 88.4511L70.9172 91.1511ZM94.8322 85.9941L92.1322 83.2941L92.5372 82.8891L95.2372 85.5891L94.8322 85.9941ZM76.3202 85.7511L75.9152 85.3461L78.6152 82.6461L79.0202 83.0511L76.3202 85.7511ZM89.4272 80.5891L86.7272 77.8891L87.1322 77.4841L89.8322 80.1841L89.4272 80.5891ZM81.7272 80.3461L81.3222 79.9411L84.0222 77.2411L84.4272 77.6461L81.7272 80.3461Z" fill="#516FE9"/>
</g>
<path d="M84.8999 261.151H118.352L118.587 259.54H85.1349L84.8999 261.151Z" fill="#C3CEFC"/>
<path d="M86.9639 247.024H120.419L120.654 245.413H87.1989L86.9639 247.024Z" fill="#C3CEFC"/>
<path d="M89.0269 232.896H122.476L122.711 231.285H89.2618L89.0269 232.896Z" fill="#C3CEFC"/>
<path d="M91.0889 218.77H124.541L124.776 217.159H91.3239L91.0889 218.77Z" fill="#C3CEFC"/>
<path d="M93.391 203.032L93.156 204.643H126.608L126.843 203.032H93.391Z" fill="#C3CEFC"/>
<path d="M82.8369 275.277H116.289L116.524 273.666H83.0729L82.8369 275.277Z" fill="#C3CEFC"/>
<path d="M80.7739 289.404H114.226L114.461 287.793H81.0089L80.7739 289.404Z" fill="#C3CEFC"/>
<path d="M95.4479 188.905L95.2129 190.516H128.665L128.9 188.905H95.4479Z" fill="#C3CEFC"/>
<path d="M128.491 188.845L110.718 311.021L111.474 311.131L129.248 188.955L128.491 188.845Z" fill="#040F3B"/>
<path d="M95.0545 188.741L77.281 310.917L78.037 311.027L95.8105 188.851L95.0545 188.741Z" fill="#1B1B43"/>
<path d="M131.201 155.282L120.754 167.767L116.654 169.738L120.349 174.87L122.415 173.755C124.664 172.407 126.545 170.525 127.893 168.277L132.734 159.614L131.201 155.282Z" fill="#FFBC96"/>
<path d="M104.83 175.41L111.072 179.869L121.136 175.92L116.649 169.737L104.83 175.41Z" fill="#FF6868"/>
<path d="M208.246 100.069C206.265 101.199 204.614 102.828 203.457 104.793L188.863 79.093L110.274 123.727L154.912 202.327L184.112 185.744C183.938 188.305 184.518 190.86 185.781 193.094C189.831 200.226 199.855 202.181 208.181 197.455C216.507 192.729 219.958 183.119 215.908 175.987C214.636 173.757 212.739 171.95 210.45 170.787L233.507 157.687L218.849 131.878C221.13 131.891 223.374 131.307 225.359 130.185C232.491 126.134 234.446 116.111 229.719 107.785C224.992 99.459 215.378 96.018 208.246 100.069Z" fill="#516FE9"/>
<g opacity="0.6">
<path d="M224.035 109.914C215.152 112.461 204.827 121.691 195.353 116.107C190.987 113.534 189.2 108.707 191.814 104.177C193.702 101.223 195.969 98.5299 198.557 96.1661L198.299 95.7111C196.716 97.3541 195.149 99.0111 193.651 100.727C191.251 103.478 189.14 106.927 190.206 110.713C191.158 114.094 194.215 116.606 197.456 117.695C201.65 119.104 206.214 118.045 210.206 116.486C215.136 114.561 219.669 111.621 224.828 110.286C226.738 109.788 228.716 109.606 230.684 109.746C230.595 109.541 230.503 109.336 230.406 109.132C228.254 109.033 226.1 109.298 224.035 109.914Z" fill="white"/>
<path d="M219.719 131.584C210.649 132.935 200.007 136.652 197.135 146.435C194.57 155.172 201.275 163.205 208.998 166.367C211.048 167.193 213.202 167.734 215.398 167.973L216.251 167.489C214.197 167.322 212.172 166.896 210.224 166.222C201.944 163.306 194.582 154.691 198.031 145.564C201.389 136.677 210.454 133.852 219.107 132.348L218.843 131.884C220.377 131.888 221.899 131.625 223.343 131.109C222.117 131.262 220.903 131.408 219.719 131.584Z" fill="white"/>
<path d="M164.932 196.636L165.756 196.168C170.418 184.803 173.883 172.923 172.489 160.525C171.627 152.855 168.859 145.061 163.557 139.315C161.363 136.767 158.475 134.913 155.246 133.976C151.691 133.229 147.985 133.846 144.863 135.703C137.833 139.503 133.018 147.703 125.135 149.903L125.389 150.35C128.859 149.075 132.032 147.106 134.716 144.564C140.802 139.182 148.253 131.301 157.193 135.257C164.675 138.569 169.055 147.334 170.909 154.874C174.436 169.219 170.44 183.324 164.932 196.636Z" fill="white"/>
<path d="M152.213 111.019C150.173 114.579 146.621 117.35 143.346 119.719C139.73 122.329 135.799 124.473 131.646 126.099C126.325 128.184 120.031 129.499 115.737 133.358L116.016 133.849C118.758 131.332 122.385 129.93 125.879 128.725C130.262 127.354 134.51 125.586 138.571 123.444C142.365 121.325 145.881 118.744 149.038 115.759C151.232 113.667 153.359 111.171 153.955 108.108C154.208 106.699 154.17 105.253 153.845 103.858C153.519 102.464 152.913 101.151 152.062 99.999L151.481 100.329C153.644 103.456 154.406 107.192 152.213 111.019Z" fill="white"/>
</g>
<path d="M112.764 167.463C112.764 167.463 114.164 168.948 114.095 169.312C114.026 169.676 112.526 170.012 112.526 170.012L112.764 167.463Z" fill="#D28572"/>
<path d="M110.789 170.374H104.987V177.269H110.789V170.374Z" fill="#FFBC96"/>
<path d="M110.789 170.374V175.144C108.817 174.823 107.37 173.501 106.414 171.016L108.779 170.374H110.789Z" fill="#1B1B43"/>
<path d="M112.33 164.271C112.33 164.271 114.851 173.292 109.864 173.124C106.213 173.001 104.317 169.258 104.317 169.258L107.063 164.215L112.33 164.271Z" fill="#FFBC96"/>
<path d="M109.556 168.779C109.346 168.205 109.305 167.583 109.439 166.987C109.573 166.39 109.876 165.845 110.312 165.417C112.759 166.151 114.5 165.578 115.327 163.317C114.613 163.481 113.872 163.48 113.158 163.315C112.445 163.15 111.778 162.824 111.209 162.364C109.416 160.711 105.886 162.112 105.578 163.148C102.041 164.46 102.412 167.687 104.962 171.609C105.606 170.18 107.136 169.609 108.662 169.2L109.556 168.779Z" fill="#1B1B43"/>
<path d="M109.793 168.233C109.856 168.459 109.855 168.698 109.788 168.922C109.721 169.147 109.592 169.348 109.416 169.503C109.239 169.657 109.023 169.758 108.791 169.795C108.56 169.831 108.323 169.802 108.107 169.709C107.892 169.616 107.707 169.464 107.575 169.271C107.442 169.078 107.367 168.851 107.358 168.616C107.349 168.382 107.407 168.15 107.524 167.947C107.642 167.744 107.814 167.579 108.022 167.47C108.358 167.341 108.732 167.348 109.063 167.49C109.394 167.633 109.656 167.9 109.793 168.233Z" fill="#FFBC96"/>
<path d="M105.379 259.873H98.7073L99.2922 252.866H105.028L105.379 259.873Z" fill="#F99C40"/>
<path d="M98.5873 196.43C96.7033 199.286 96.4213 205.73 97.4403 208.915V254.905H106.485L109.033 201.399L98.5873 196.43Z" fill="#040F3B"/>
<path d="M111.523 236.313L109.347 240.189L118.696 245.438L116.178 239.346L117.618 236.675L112.618 233.93L111.523 236.313Z" fill="#FF6868"/>
<path d="M111.835 195.283L122.441 208.373C125.021 211.717 126.041 215.106 124.83 219.073L118.43 237.609L110.436 234.775L115.086 215.06C110.186 210.818 104.701 204.015 99.0981 196.683L111.835 195.283Z" fill="#040F3B"/>
<path d="M115.894 184.698C115.895 184.726 115.893 184.755 115.886 184.782C115.825 185.821 115.733 186.846 115.619 187.84C115.322 190.545 114.803 193.22 114.067 195.84C114.008 196.077 113.899 196.298 113.747 196.489C113.596 196.68 113.405 196.836 113.188 196.948C112.833 197.134 112.442 197.241 112.041 197.261C110.252 197.391 108.479 196.856 106.675 196.932C105.012 197.092 103.372 197.433 101.783 197.949C101.439 198.041 101.095 198.125 100.744 198.201C100.614 198.231 100.469 198.255 100.324 198.285C99.4734 198.475 98.589 198.454 97.7482 198.224C97.3247 198.095 96.9668 197.809 96.7482 197.424C96.1822 196.415 97.1232 195.016 97.4052 194.053C97.7772 192.779 98.0776 191.485 98.3052 190.178C98.7685 187.478 98.9505 184.737 98.8482 181.999C98.7828 180.276 99.3713 178.592 100.496 177.285C101.62 175.978 103.197 175.144 104.91 174.951C104.933 174.951 104.963 174.943 104.986 174.943C106.92 174.755 108.87 174.822 110.786 175.143C111.555 175.276 112.315 175.452 113.064 175.67H113.079C114.099 175.964 115.09 176.353 116.037 176.832C116.115 179.574 116.067 182.196 115.894 184.698Z" fill="#FF6868"/>
<path d="M115.886 184.667V184.782C115.825 185.821 115.733 186.846 115.619 187.839C115.06 187.483 114.592 187 114.254 186.431C113.915 185.861 113.714 185.22 113.667 184.559C113.659 184.521 115.886 184.667 115.886 184.667Z" fill="#1B1B43"/>
<path d="M123.939 177.893L131.139 176.81L138.3 169.636L141.586 172.669L134.709 180.697C133.625 181.96 132.09 182.75 130.431 182.897L119.483 183.876L123.939 177.893Z" fill="#FFBC96"/>
<path d="M138.297 169.637L139.14 166.857C139.14 166.857 139.414 163.445 139.856 163.824C140.298 164.203 140.572 166.794 140.572 166.794C140.572 166.794 142.341 162.181 143.037 162.181C143.733 162.181 142.51 166.689 142.51 166.689C142.51 166.689 144.41 167.279 144.532 168.627C144.604 169.395 141.583 172.671 141.583 172.671L137.918 172.924L138.297 169.637Z" fill="#FFBC96"/>
<path d="M113.069 175.675C116.645 176.609 120.269 177.349 123.924 177.894L123.207 184.964L111.507 184.534L113.069 175.675Z" fill="#FF6868"/>
<path d="M123.902 178.045C119.463 177.415 115.069 176.498 110.748 175.299L110.829 175.004C115.137 176.199 119.518 177.114 123.944 177.742L123.902 178.045Z" fill="white"/>
<path d="M387.629 234.54C386.577 234.994 385.672 235.73 385.012 236.667C384.688 237.137 384.473 237.674 384.384 238.238C384.295 238.802 384.333 239.379 384.496 239.926C384.884 240.615 385.144 241.367 385.265 242.148C385.176 242.82 384.848 243.437 384.341 243.887C383.837 244.332 383.416 244.863 383.097 245.455C382.946 245.756 382.904 246.099 382.978 246.428C383.051 246.756 383.237 247.048 383.502 247.255C383.716 247.383 384.002 247.455 384.102 247.681C384.245 248 383.929 248.317 383.692 248.574C383.319 248.978 383.083 249.491 383.019 250.038C382.956 250.585 383.067 251.137 383.338 251.617C383.608 252.096 384.024 252.477 384.525 252.705C385.027 252.933 385.587 252.996 386.126 252.885L402.1 246.692C402.873 245.821 402.577 244.457 402.1 243.397C401.994 243.135 401.849 242.891 401.669 242.673C401.442 242.444 401.18 242.251 400.893 242.102L399.202 241.107C398.936 240.981 398.71 240.785 398.546 240.541C398.22 239.941 398.698 239.069 398.237 238.565C397.917 238.215 397.321 238.274 396.969 237.956C396.617 237.638 396.649 237.063 396.559 236.583C396.234 234.842 393.806 234.089 392.423 233.883C390.796 233.598 389.12 233.827 387.629 234.54Z" fill="#040F3B"/>
<path d="M398.353 245.381L394.623 248.591L393.623 247.421L390.823 244.165L392.382 242.827L394.553 240.962L398.353 245.381Z" fill="#FFBC96"/>
<path d="M393.623 247.426L390.823 244.17L392.382 242.832L394.553 242.557C394.816 244.239 394.487 245.96 393.623 247.426Z" fill="#1B1B43"/>
<path d="M394.4 238.594C395.5 241.238 394.556 244.566 392.956 245.229C391.302 245.915 389.033 245.046 387.077 241.629C386.759 241.152 386.55 240.61 386.467 240.042C386.384 239.475 386.428 238.895 386.596 238.347C386.764 237.798 387.051 237.294 387.438 236.87C387.825 236.447 388.301 236.114 388.832 235.897C390.854 235.066 393.303 235.951 394.4 238.594Z" fill="#FFBC96"/>
<path d="M392.933 238.652C392.768 238.486 392.552 238.38 392.319 238.352C392.072 238.389 391.838 238.488 391.638 238.639C391.54 238.714 391.421 238.758 391.297 238.765C391.173 238.772 391.051 238.742 390.944 238.678C390.843 238.577 390.758 238.462 390.691 238.336C390.63 238.225 390.545 238.129 390.444 238.053C390.342 237.977 390.226 237.924 390.102 237.896C389.976 237.884 389.849 237.916 389.744 237.988C389.639 238.06 389.563 238.167 389.529 238.289C389.5 238.503 389.485 238.719 389.485 238.935C389.471 239.095 389.399 239.244 389.283 239.355C389.166 239.465 389.013 239.529 388.853 239.535C388.582 239.512 388.3 239.273 388.063 239.435C387.846 239.584 387.843 239.96 387.889 240.258C387.976 240.547 387.953 240.857 387.824 241.13C387.755 241.209 387.666 241.267 387.566 241.299C387.466 241.331 387.359 241.335 387.257 241.311C387.059 241.259 386.852 241.255 386.652 241.301C386.546 241.346 386.46 241.429 386.412 241.533C386.364 241.638 386.356 241.757 386.391 241.867C386.182 241.583 386.042 241.254 385.981 240.906C385.931 240.587 385.923 240.264 385.957 239.943C386.013 239.03 386.301 238.146 386.793 237.374C387.286 236.603 387.966 235.97 388.771 235.534C389.041 235.412 389.322 235.318 389.611 235.253C390.935 234.958 392.322 235.197 393.47 235.918C394.016 236.24 394.479 236.685 394.822 237.218C395.195 237.832 395.387 238.539 395.376 239.257C395.396 239.511 395.357 239.766 395.262 240.003C395.168 240.24 395.021 240.452 394.832 240.623C394.646 240.744 394.149 240.899 393.949 240.761C393.711 240.596 393.834 240.478 393.82 240.191C393.785 239.888 393.689 239.594 393.536 239.33C393.384 239.065 393.178 238.834 392.933 238.652Z" fill="#040F3B"/>
<path d="M394.366 241.193C395.153 241.193 395.791 240.555 395.791 239.768C395.791 238.981 395.153 238.343 394.366 238.343C393.579 238.343 392.941 238.981 392.941 239.768C392.941 240.555 393.579 241.193 394.366 241.193Z" fill="#FFBC96"/>
<path d="M402.101 305.887L402.448 311.351L391.875 311.376L396.621 306.802L396.372 303.778L402.05 303.263L402.101 305.887Z" fill="#F99C40"/>
<path d="M410.629 270.782L409.154 272.41L407.411 274.336L405.554 276.384L398.904 283.73L403.404 305.13H394.812L389.212 288.589C388.464 286.394 388.29 284.043 388.708 281.762C389.125 279.481 390.12 277.344 391.597 275.556L397.353 268.57L400.136 265.191L402.199 264.22L405.043 262.875L407.13 265.825L410.629 270.782Z" fill="#516FE9"/>
<path d="M409.154 272.409L405.554 276.384C404.519 274.397 405.138 271.558 406.622 270.511L409.154 272.409Z" fill="#1B1B43"/>
<path d="M433.391 301.156L436.611 305.584L427.697 311.27L429.254 304.865L427.423 302.445L431.942 298.969L433.391 301.156Z" fill="#F99C40"/>
<path d="M433.82 298.956L432.536 299.865L427.936 303.121L425.987 304.497L416.787 289.011C413.958 285.885 410.771 280.572 407.415 274.335C406.223 272.111 405.008 269.764 403.777 267.356C403.257 266.324 402.73 265.277 402.202 264.222C401.965 263.763 401.736 263.297 401.502 262.831L404.758 261.447L410.483 259.009L411.392 260.561L412.18 261.921L433.82 298.956Z" fill="#516FE9"/>
<path d="M412.173 261.917C410.583 263.53 406.052 267.703 403.61 268.441C401.568 269.011 399.415 269.054 397.352 268.567L400.134 265.188L402.198 264.217C401.961 263.758 401.732 263.292 401.498 262.826L404.754 261.442L411.389 260.555L412.173 261.917Z" fill="#040F3B"/>
<path d="M376.237 253.631C376.237 253.631 372.797 248.918 372.737 250C372.692 250.775 372.683 254 372.809 255.9C372.832 256.247 372.985 256.572 373.237 256.811C373.488 257.05 373.821 257.186 374.168 257.191L376.335 257.231L376.237 253.631Z" fill="#D28572"/>
<path d="M395.792 246.306L388.53 254.872L375.73 252.961L375.348 258.598L387.072 261.212C387.817 261.378 388.592 261.361 389.329 261.161C390.066 260.961 390.744 260.585 391.303 260.065L403.057 249.139L395.792 246.306Z" fill="#F99C40"/>
<path d="M400.983 266.685C400.663 266.799 400.324 266.847 399.985 266.827C399.646 266.807 399.314 266.719 399.01 266.568C398.706 266.418 398.435 266.208 398.213 265.951C397.991 265.694 397.823 265.395 397.719 265.072C397.405 264.162 397.008 263.172 396.58 262.137C395.892 260.455 395.128 258.644 394.531 256.825C393.255 252.942 392.731 249.013 395.303 246.193C395.735 245.698 396.283 245.318 396.898 245.086C397.513 244.854 398.175 244.778 398.827 244.863C400.784 245.169 403.734 246.797 406.838 252.743C407.628 254.267 408.73 255.609 410.071 256.68C411.105 257.393 411.976 258.317 412.624 259.393C413.427 261.411 405.325 265.095 400.983 266.685Z" fill="#F99C40"/>
<path d="M399.66 253.04C399.514 256.304 398.446 259.459 396.579 262.14C395.891 260.458 395.127 258.647 394.531 256.828L399.66 253.04Z" fill="#1B1B43"/>
<path d="M394.66 257.69C394.578 257.42 394.491 257.144 394.403 256.863C393.636 254.435 392.683 251.413 393.93 247.849L394.218 247.949C393.006 251.417 393.903 254.261 394.694 256.77C394.783 257.053 394.871 257.33 394.952 257.6L394.66 257.69Z" fill="white"/>
<path d="M376.205 257.611C376.205 257.611 372.574 252.324 372.511 253.411C372.38 255.457 372.481 257.51 372.811 259.533C372.86 259.869 373.021 260.179 373.268 260.414C373.514 260.648 373.832 260.792 374.17 260.824L376.337 260.864L376.205 257.611Z" fill="#FFBC96"/>
<path d="M398.754 246.655L388.531 258.503L375.731 256.592L375.349 262.229L387.073 264.843C387.819 265.01 388.593 264.992 389.33 264.792C390.067 264.592 390.745 264.216 391.304 263.696L403.058 252.77L398.754 246.655Z" fill="#F99C40"/>
<path d="M388.595 258.667L375.708 256.743L375.752 256.443L388.473 258.343L397.655 247.612L397.887 247.812L388.595 258.667Z" fill="white"/>
<path d="M372.742 220.99V311.377H282.355V281.761C284.335 282.893 286.575 283.491 288.855 283.496C297.055 283.496 303.707 275.745 303.707 266.183C303.707 256.621 297.057 248.862 288.855 248.862C286.574 248.866 284.333 249.467 282.355 250.605V220.986H314.841C314.007 219.241 313.574 217.332 313.572 215.398C313.572 207.198 321.323 200.546 330.893 200.546C340.463 200.546 348.214 207.196 348.214 215.398C348.213 217.332 347.779 219.241 346.945 220.986L372.742 220.99Z" fill="#FF6868"/>
<g opacity="0.6">
<path d="M303.5 263.338C303.529 263.538 303.553 263.744 303.576 263.948C310.7 265.795 319.481 270.507 325.6 263.88C327.979 261.303 329.22 257.811 329.935 254.436C330.891 249.787 331.194 245.028 330.835 240.296C330.379 235.701 329.497 231.158 328.198 226.726C326.88 221.68 326.156 216.494 328.819 211.748C331.375 207.194 335.405 204.468 339.991 202.767C339.761 202.645 339.528 202.528 339.291 202.415C336.69 203.425 334.287 204.883 332.191 206.725C329.49 209.039 327.578 212.138 326.721 215.59C325.689 220.215 327.108 224.895 328.305 229.339C329.766 234.554 330.463 239.952 330.376 245.367C330.259 250.094 329.705 255.126 327.741 259.483C325.703 264.002 321.911 267.026 316.779 266.792C312.167 266.578 307.929 264.457 303.5 263.338Z" fill="white"/>
<path d="M372.742 285.79C367.574 291.658 358.851 293.126 351.35 292.909C337.392 292.509 320.758 286.233 308.037 294.886C302.47 298.673 299.502 304.871 298.648 311.377H299.232C300.047 305.26 302.744 299.398 307.874 295.698C320.531 286.57 337.597 293.163 351.664 293.489C358.564 293.649 365.921 292.482 371.364 287.911C371.847 287.502 372.307 287.065 372.741 286.604L372.742 285.79Z" fill="white"/>
<path d="M366.842 220.989H366.099C365.979 221.182 365.856 221.374 365.74 221.57C358.215 234.309 359.657 250.677 368.403 262.384C369.823 264.284 371.392 266.284 372.745 268.358V267.189C371.515 265.453 370.166 263.789 368.898 262.095C365.416 257.577 363.052 252.3 361.996 246.694C360.94 241.089 361.224 235.313 362.824 229.838C363.722 226.707 365.076 223.726 366.842 220.989Z" fill="white"/>
</g>
<path d="M294.424 220.998L285.888 221.023L289.965 217.483L289.838 213.283L293.66 212.915L294.424 220.998Z" fill="#16D594"/>
<path d="M299.004 168.31C298.997 168.356 298.997 168.394 298.989 168.44C298.689 171.04 298.423 173.814 298.163 176.74C297.903 179.666 297.663 182.733 297.421 185.928C296.733 194.993 296.068 205.037 295.181 215.441H288.304C288.556 201.247 288.548 187.755 289.955 175.373C290.215 173.018 290.536 170.707 290.918 168.44C291.018 167.84 291.124 167.248 291.231 166.651L294.793 167.408L299.004 168.31Z" fill="#040F3B"/>
<path d="M311.024 220.998L302.478 221.024L305.886 217.229L304.994 212.898L309.071 212.675L311.024 220.998Z" fill="#16D594"/>
<path d="M310.855 215.441H303.723C301.529 206.398 299.267 196.561 297.423 185.936V185.928C296.88 182.871 296.384 179.747 295.933 176.557C295.558 173.897 295.207 171.191 294.909 168.439C294.863 168.095 294.825 167.751 294.794 167.407C294.764 167.139 294.733 166.864 294.702 166.589L304.102 167.289C304.125 167.679 304.156 168.061 304.186 168.443C304.386 171.233 304.637 173.969 304.927 176.668C306.368 189.995 308.784 202.394 310.855 215.441Z" fill="#040F3B"/>
<path d="M296.479 179.779L296.178 179.834L297.802 188.72L298.103 188.665L296.479 179.779Z" fill="#1B1B43"/>
<path d="M272.096 137.141C271.704 135.925 271.51 134.654 271.523 133.376H276.243L275.752 137.195L274.428 137.429L272.096 137.141Z" fill="#D28572"/>
<path d="M275.758 137.223L272.099 137.159L272.474 140.886C273.474 140.625 275.126 139.393 276.246 139.086L275.758 137.223Z" fill="#D28572"/>
<path d="M290.343 151.869L278.682 148.392L276.246 139.092C275.126 139.392 272.454 140.284 271.458 140.545L272.911 149.58C273.028 150.38 273.315 151.145 273.754 151.824C274.29 152.628 275.046 153.26 275.932 153.645L291.043 158.945L290.343 151.869Z" fill="#16D594"/>
<path d="M287.604 157.747L290.088 158.603L290.027 156.891L287.604 157.747Z" fill="#1B1B43"/>
<path d="M323.893 137.771C324.285 136.555 324.479 135.284 324.466 134.006H319.746L320.237 137.825L321.561 138.059L323.893 137.771Z" fill="#D28572"/>
<path d="M320.232 137.849L323.891 137.785L323.616 141.47C322.616 141.209 320.864 140.019 319.744 139.715L320.232 137.849Z" fill="#D28572"/>
<path d="M324.53 141.166L323.078 150.201C322.962 151.002 322.675 151.768 322.237 152.448C321.698 153.249 320.942 153.88 320.058 154.267L307.285 158.667L304.801 159.523L304.101 159.768L304.674 151.868L317.309 149.017L319.747 139.717C320.611 139.954 322.422 140.543 323.653 140.917C324.001 141.021 324.308 141.105 324.53 141.166Z" fill="#16D594"/>
<path d="M307.286 158.671L304.802 159.527L304.863 157.815L307.286 158.671Z" fill="#1B1B43"/>
<path d="M304.807 151.874C300.583 151.205 294.17 150.735 290.222 151.81L289.874 166.897C289.868 167.445 289.782 167.988 289.619 168.511C289.072 170.27 288.619 171.49 290.689 172.154C293.135 172.851 295.671 173.183 298.214 173.139C299.826 173.148 304.329 173.426 305.072 171.556C305.442 170.625 304.698 168.341 304.663 167.201C304.607 165.401 304.832 160.991 304.854 159.187C304.859 158.672 304.807 151.874 304.807 151.874Z" fill="#16D594"/>
<path d="M295.044 147.556H299.879V151.389C299.879 152.03 299.625 152.645 299.171 153.099C298.718 153.552 298.103 153.807 297.462 153.807C296.821 153.807 296.206 153.552 295.752 153.099C295.299 152.645 295.044 152.03 295.044 151.389V147.556Z" fill="#D28572"/>
<path d="M299.881 149.004C298.699 152.229 296.369 151.715 295.044 149.028L297.158 148.419L299.881 149.004Z" fill="#1B1B43"/>
<path d="M301.108 145.464C301.095 148.648 299.023 150.193 297.463 150.193C296.007 150.193 293.904 148.871 293.818 145.464C293.752 142.854 295.45 140.736 297.463 140.736C299.476 140.736 301.119 142.853 301.108 145.464Z" fill="#D28572"/>
<path d="M293.81 144.871C293.978 143.957 294.433 143.12 295.11 142.482C295.204 142.601 295.327 142.692 295.468 142.747C295.609 142.802 295.762 142.818 295.911 142.794C296.06 142.77 296.2 142.706 296.316 142.61C296.432 142.513 296.521 142.387 296.572 142.245C296.617 142.411 296.712 142.559 296.844 142.669C296.976 142.779 297.139 142.845 297.31 142.859C297.481 142.872 297.653 142.833 297.801 142.745C297.948 142.658 298.066 142.527 298.136 142.37C298.185 142.497 298.27 142.608 298.379 142.689C298.489 142.77 298.619 142.819 298.755 142.829C298.891 142.84 299.027 142.812 299.147 142.748C299.268 142.684 299.368 142.588 299.436 142.47C299.819 142.79 300.13 143.187 300.35 143.635C300.57 144.083 300.693 144.572 300.712 145.07L301.424 145.437C301.694 144.984 301.851 144.472 301.882 143.945C301.903 143.682 301.88 143.417 301.814 143.161C301.767 142.994 301.572 142.735 301.672 142.568C301.852 142.268 302.149 141.883 302.037 141.461C302.006 141.343 301.443 140.748 301.307 140.921C301.387 140.758 301.402 140.57 301.35 140.396C301.297 140.222 301.181 140.074 301.024 139.982C300.798 139.857 300.535 139.816 300.282 139.866C300.29 139.64 300.213 139.418 300.067 139.246C299.92 139.073 299.714 138.962 299.489 138.933C299.066 138.941 298.655 139.077 298.311 139.323C298.273 139.16 298.195 139.01 298.084 138.885C297.973 138.76 297.832 138.665 297.675 138.608C297.523 138.568 297.362 138.574 297.213 138.624C297.064 138.674 296.933 138.767 296.835 138.89C296.745 138.763 296.617 138.666 296.469 138.615C296.321 138.565 296.161 138.561 296.011 138.606C295.856 138.67 295.721 138.774 295.62 138.907C295.518 139.04 295.454 139.197 295.433 139.363C295.282 139.258 295.102 139.202 294.918 139.202C294.733 139.202 294.554 139.258 294.402 139.363C294.239 139.489 294.108 139.65 294.018 139.836C293.928 140.021 293.883 140.224 293.886 140.43C293.689 140.478 293.509 140.582 293.369 140.729C293.228 140.876 293.133 141.061 293.094 141.26C293.045 141.471 293.048 141.691 293.104 141.9C293.159 142.109 293.266 142.302 293.413 142.46C293.164 142.877 293.017 143.347 292.984 143.832C292.952 144.317 293.035 144.803 293.226 145.249L293.81 144.871Z" fill="#1B1B43"/>
<path d="M294.632 145.391C294.6 145.569 294.518 145.734 294.396 145.867C294.274 146 294.116 146.096 293.941 146.142C293.767 146.189 293.582 146.184 293.41 146.13C293.238 146.075 293.084 145.973 292.968 145.834C292.852 145.695 292.778 145.526 292.755 145.347C292.731 145.168 292.76 144.986 292.836 144.822C292.913 144.658 293.034 144.52 293.187 144.423C293.339 144.326 293.516 144.274 293.697 144.274C293.968 144.3 294.218 144.432 294.393 144.641C294.568 144.85 294.654 145.12 294.632 145.391Z" fill="#D28572"/>
<path d="M302.135 145.363C302.115 145.552 302.041 145.732 301.921 145.88C301.801 146.028 301.64 146.138 301.459 146.196C301.278 146.255 301.084 146.26 300.9 146.21C300.716 146.161 300.55 146.059 300.423 145.918C300.296 145.776 300.212 145.601 300.183 145.413C300.153 145.224 300.178 145.032 300.256 144.858C300.334 144.684 300.46 144.536 300.62 144.433C300.779 144.329 300.966 144.274 301.156 144.274C301.43 144.289 301.687 144.413 301.87 144.617C302.054 144.821 302.149 145.089 302.135 145.363Z" fill="#D28572"/>
<path d="M341.396 43.623V134.01H315.596C316.43 132.265 316.863 130.357 316.865 128.423C316.865 120.223 309.107 113.571 299.544 113.571C289.981 113.571 282.223 120.221 282.223 128.423C282.225 130.357 282.658 132.266 283.492 134.01H251.006V104.33C252.984 105.468 255.224 106.069 257.506 106.073C265.706 106.073 272.358 98.322 272.358 88.752C272.358 79.182 265.708 71.431 257.506 71.431C255.224 71.435 252.984 72.0359 251.006 73.174V43.623H341.396Z" fill="#F99C40"/>
<path opacity="0.6" d="M341.396 52.8231C336.943 51.1973 332.213 50.4634 327.476 50.6631C321.559 51.0282 315.881 53.1341 311.157 56.7161C306.416 60.4305 302.804 65.3928 300.726 71.0461C298.138 77.5811 296.811 84.5601 293.826 90.9461C291.209 96.4882 287.64 101.529 283.283 105.84C274.582 114.533 263.219 120.06 251.009 121.54V122.11C260.891 120.946 270.273 117.129 278.16 111.063C287.769 103.708 294.03 93.8631 297.613 82.4041C299.713 75.6821 301.467 68.6041 305.772 62.8821C309.905 57.451 315.778 53.6033 322.407 51.9821C328.927 50.3921 335.307 51.3341 341.396 53.4601V52.8231Z" fill="white"/>
<path d="M275.718 137.327C275.718 137.327 277.934 131.744 277.252 131.308C276.57 130.872 275.288 134.008 274.933 136.246L275.718 137.327Z" fill="#D28572"/>
<path d="M320.273 137.952C320.273 137.952 318.057 132.369 318.739 131.933C319.421 131.497 320.703 134.633 321.058 136.871L320.273 137.952Z" fill="#D28572"/>
<path d="M258.421 266.185C258.421 275.747 251.771 283.498 243.569 283.498C241.289 283.493 239.049 282.895 237.069 281.763V311.375H146.689V220.988H180.268C178.853 223.128 178.095 225.637 178.09 228.203C178.09 236.403 185.841 243.055 195.411 243.055C204.981 243.055 212.732 236.405 212.732 228.203C212.727 225.637 211.97 223.129 210.554 220.988H237.07V250.607C239.048 249.469 241.289 248.868 243.57 248.864C251.771 248.867 258.421 256.618 258.421 266.185Z" fill="#16D594"/>
<g opacity="0.65">
<path d="M187.273 299.016C187.014 291.516 185.724 283.787 178.601 279.792C166.292 272.892 153.115 281.709 146.692 292.61V293.667C148.976 289.313 152.226 285.54 156.192 282.634C162.316 278.198 170.303 276.421 177.341 279.781C185.111 283.491 186.45 291.532 186.709 299.334C186.842 303.347 186.889 307.362 186.892 311.377H187.467C187.467 307.256 187.416 303.135 187.273 299.016Z" fill="white"/>
<path d="M220.486 256.332C224.386 260.184 230.067 258.02 234.159 255.71C237.582 253.767 240.795 251.476 243.747 248.872C243.687 248.872 243.628 248.867 243.568 248.867C243.329 248.867 243.093 248.878 242.856 248.891C240.073 251.286 237.064 253.404 233.87 255.215C230.806 256.946 226.902 258.78 223.335 257.48C220.188 256.333 218.697 253.122 218.135 250.033C217.024 243.944 218.558 237.171 221.005 231.58C222.712 227.692 225.051 224.114 227.927 220.991H227.172C221.61 227.196 218.183 235.021 217.396 243.317C217.001 247.641 217.171 253.062 220.486 256.332Z" fill="white"/>
<path d="M249.173 282.221C249.389 282.118 249.602 282.01 249.812 281.896C246.516 278.395 242.257 275.948 237.571 274.865C234.375 274.12 231.03 274.34 227.959 275.497C224.888 276.654 222.229 278.696 220.319 281.365C215.768 287.488 215.177 295.327 217.019 302.552C217.797 305.6 218.89 308.559 220.281 311.38H220.995C219.428 308.315 218.224 305.077 217.408 301.733C215.747 294.614 216.557 286.898 221.268 281.073C225.931 275.308 233.218 273.68 240.098 276.212C243.525 277.531 246.622 279.582 249.173 282.221Z" fill="white"/>
<path d="M146.692 266.985V267.641C154.596 263.283 160.707 256.274 163.949 247.851C167.137 239.164 167.038 229.61 163.67 220.991H163.051C166.431 229.331 166.632 238.62 163.617 247.099C160.601 255.577 154.579 262.653 146.692 266.985Z" fill="white"/>
</g>
</svg>
