<svg width="165" height="42" viewBox="0 0 165 42" fill="none" xmlns="http://www.w3.org/2000/svg">
<g clip-path="url(#clip0_303_4531)">
<path d="M14.1136 29.0734C13.9801 29.0734 12.9561 27.6421 11.0416 24.8242C9.12714 22.0063 7.56885 19.5909 6.36675 17.5782C6.18866 17.3098 5.65439 16.3258 4.6749 14.7155C3.2947 12.3002 2.44878 10.8242 2.0926 10.3321L2.04807 13.3737L2.00355 16.3258C2.00355 18.2044 2.00355 20.2171 1.95903 22.4088C1.91451 24.6005 1.86998 26.3449 1.82546 27.5973C1.82546 27.9104 1.6919 28.2235 1.46928 28.4472C1.24667 28.7155 1.06858 28.8497 0.84597 28.8497C0.623358 28.8497 0.445268 28.7603 0.356223 28.5813C0.267179 28.4024 0.222656 28.0893 0.222656 27.5973C0.222656 27.2842 0.267179 26.3002 0.356223 24.69C0.534313 21.6484 0.66788 19.1436 0.66788 17.0861C0.66788 15.4759 0.66788 13.9104 0.712403 12.4344C0.756925 10.9583 0.756925 10.0638 0.756925 9.75068L0.801447 8.58774V8.49828C0.801447 8.22991 0.84597 7.96154 0.935015 7.82735C1.02406 7.64844 1.15763 7.55898 1.42476 7.55898H1.60285C1.82546 7.55898 2.31521 8.09572 3.02757 9.12448C3.73993 10.1532 4.63037 11.5845 5.74343 13.3737C5.96605 13.7315 6.23318 14.0893 6.45579 14.4472C6.6784 14.805 6.90102 15.1181 7.07911 15.4312C8.32573 17.3545 8.99357 18.3833 9.03809 18.4727C12.1547 23.2139 13.8465 25.9424 14.1136 26.6133C14.0691 26.3897 13.9801 25.8976 13.891 25.1373C13.802 24.3769 13.6684 23.3928 13.5794 22.1405C13.4903 20.8881 13.4458 19.6357 13.4458 18.3385C13.4458 16.0127 13.2677 12.9264 12.867 9.07975C12.778 7.82735 12.6889 7.02224 12.6889 6.75387C12.6889 5.76984 13.1787 5.27783 14.1136 5.27783C14.3363 5.27783 14.5143 5.5462 14.6034 6.08294C14.6924 6.61969 14.7815 7.7379 14.826 9.48231C14.8705 11.2267 14.8705 13.9999 14.8705 17.8018C14.8705 19.0095 14.915 20.1724 15.0041 21.3353C15.0931 22.4983 15.1377 23.527 15.2267 24.4216C15.3158 25.674 15.4048 26.5686 15.4048 27.2395L15.4493 28.6708C15.4048 28.8944 14.9596 29.0734 14.1136 29.0734Z" fill="#39395B" stroke="#39395B" stroke-width="0.957029" stroke-miterlimit="10"/>
<path d="M33.2139 19.4119C33.2139 19.9039 32.9022 20.9327 32.3234 22.5429C31.7446 24.1531 30.8542 25.6292 29.6966 27.0158C28.539 28.4023 27.0698 29.0733 25.3779 29.0733C23.9532 29.0733 22.7956 28.5365 21.8607 27.5078C20.9257 26.3896 20.4805 24.7793 20.4805 22.5876C20.4805 20.5301 20.8812 18.5174 21.6826 16.5046C22.484 14.4918 23.508 12.8369 24.7546 11.5845C26.0458 10.3321 27.3369 9.66113 28.7171 9.66113C29.5185 9.66113 30.2309 9.88477 30.7651 10.3321C31.3439 10.7793 31.6111 11.4055 31.6111 12.2107C31.6111 13.1499 31.1658 14.0445 30.3199 14.8944C29.474 15.7442 28.3164 16.5046 26.9362 17.1755C25.556 17.8464 24.1313 18.2937 22.6621 18.6068C22.3949 19.8145 22.2614 20.9774 22.2614 22.1404C22.2614 23.6611 22.573 24.8688 23.1518 25.6739C23.7751 26.5238 24.6211 26.9263 25.7341 26.9263C27.426 26.9263 28.8062 26.2107 29.8302 24.7793C30.8542 23.348 31.7446 21.6931 32.457 19.9039C32.5015 19.8145 32.5906 19.5908 32.6796 19.2777C32.7687 18.9646 32.9022 18.8305 32.9913 18.8305C33.1248 18.7857 33.2139 19.0094 33.2139 19.4119ZM29.563 11.6292C29.2069 11.4055 28.7616 11.2714 28.3164 11.2714C27.4705 11.2714 26.6691 11.5845 25.9122 12.2554C25.1553 12.9263 24.4875 13.6867 23.9977 14.626C23.4635 15.5653 23.1518 16.3704 22.9737 17.0861C23.9977 16.9519 25.0663 16.594 26.1793 16.0573C27.2924 15.5206 28.2274 14.8944 28.9842 14.2234C29.7411 13.5525 30.0973 13.0158 30.0973 12.6132C30.0973 12.2107 29.9192 11.8528 29.563 11.6292Z" fill="#39395B" stroke="#39395B" stroke-width="0.957029" stroke-miterlimit="10"/>
<path d="M49.9099 13.5528C49.5982 13.7765 49.0194 13.9554 48.1735 14.0896C46.17 14.4921 45.0124 14.7605 44.7898 14.8052L42.6527 15.2525C42.6527 16.6391 42.6527 18.0704 42.6972 19.5464C42.7418 21.0225 42.7863 22.3643 42.8308 23.4825C42.9198 25.0033 43.0534 26.1663 43.276 26.9714C43.4986 27.7765 43.6322 28.2238 43.6322 28.3579C43.6322 28.6263 43.4986 28.85 43.2315 29.0736C42.9644 29.2972 42.6972 29.4314 42.4746 29.4314C42.341 29.4314 42.252 29.3867 42.163 29.2972C42.0739 29.2078 41.9849 29.0736 41.9403 28.85C41.8068 28.4921 41.6732 27.8212 41.5842 26.7924C41.4506 25.8084 41.3616 24.6902 41.317 23.4825C41.2725 22.4091 41.1835 21.1567 41.1835 19.7254C41.1389 18.294 41.1389 16.9075 41.1389 15.5656C39.8923 15.7893 38.6457 16.1024 37.3545 16.4155C36.197 16.6838 35.4846 16.8627 35.262 16.8627C34.9949 16.8627 34.7722 16.7733 34.5051 16.5944C34.2825 16.4155 34.1489 16.1471 34.1489 15.834C34.1489 15.4762 34.238 15.2525 34.4606 15.1631C34.6387 15.0736 34.9949 14.9841 35.4401 14.9841C35.7517 14.9841 36.2415 14.8947 36.8648 14.7605C37.4881 14.6263 37.8888 14.5369 38.0669 14.4474C39.5361 14.0896 40.5156 13.8659 41.0499 13.7765C41.0499 13.2397 41.0499 12.5241 41.0054 11.6295C40.9609 10.4666 40.9609 9.52727 40.9609 8.90108C40.9609 7.87232 41.0054 7.06721 41.0499 6.53047C41.0944 5.949 41.228 5.45699 41.3616 5.0097C41.5396 4.47296 41.8513 4.20459 42.341 4.20459C42.5191 4.20459 42.6527 4.24932 42.7417 4.33878C42.7863 4.42823 42.8308 4.56242 42.8308 4.78606C42.8308 4.96497 42.7863 5.41226 42.6527 6.17264C42.5637 6.93302 42.4746 7.96178 42.4746 9.21417C42.4746 10.1982 42.4746 11.2717 42.5191 12.4794L42.5637 13.5528C43.5432 13.3739 45.5021 12.8819 48.3961 12.0768C48.5742 12.0321 48.7078 11.8532 48.8413 11.5401C48.9749 11.227 49.1085 11.048 49.1975 11.048C49.4201 11.048 49.6872 11.227 49.9544 11.5401C50.2215 11.8532 50.3106 12.211 50.3106 12.5241C50.3996 12.9714 50.2215 13.3292 49.9099 13.5528Z" fill="#39395B" stroke="#39395B" stroke-width="0.957029" stroke-miterlimit="10"/>
<path d="M71.4586 20.9327C70.8798 23.348 70.212 25.3161 69.4551 26.8368C68.6982 28.3576 68.0749 29.118 67.6297 29.118C66.9618 29.118 66.3385 28.3576 65.7597 26.8368C65.1809 25.3161 64.6912 23.4822 64.2905 21.3352C63.8898 19.1883 63.6672 17.2202 63.5781 15.4758C62.9993 16.8624 62.3315 18.3832 61.6637 20.1276C60.9958 21.8272 60.4616 23.3033 60.0609 24.511C59.4821 26.3895 58.9478 28.1787 58.5026 29.9678C58.5026 30.0126 58.4581 30.1467 58.4135 30.3257C58.369 30.5046 58.3245 30.6387 58.2354 30.7282C58.1464 30.8177 58.0574 30.8624 57.8793 30.8624C57.5676 30.8624 57.3005 30.7729 57.1224 30.594C56.9443 30.4151 56.8107 30.1467 56.6772 29.7889L56.41 28.1787C56.0093 25.5844 55.6086 23.1691 55.1634 20.8432C54.6737 18.4726 54.1839 16.4598 53.6942 14.9391C53.2044 13.3736 52.8037 12.6132 52.5366 12.6132C52.4475 12.6132 52.314 12.7026 52.1359 12.8816C51.9578 13.0605 51.7797 13.1947 51.6461 13.2841C51.5126 13.3736 51.379 13.4183 51.2454 13.3736C50.9783 13.1947 50.8447 13.0157 50.8447 12.8368C50.8447 12.6132 50.9783 12.3001 51.2454 11.8528C51.5126 11.4055 51.8242 11.003 52.1359 10.6451C52.4921 10.2873 52.7592 10.1084 53.0263 10.1084C53.2044 10.1084 53.3825 10.1531 53.5161 10.2873C53.6496 10.4215 53.8277 10.6004 53.9613 10.8241C54.2284 11.2713 54.6291 12.3001 55.1634 13.955C55.6531 15.61 56.1429 17.578 56.5436 19.9039L57.8793 26.7921C58.9033 23.4375 59.7937 20.6196 60.6397 18.4279C61.4856 16.1915 62.4205 13.9103 63.5336 11.495C63.9343 10.6004 64.3795 10.1531 64.8693 10.1531C65.1809 10.1531 65.4481 10.2873 65.6262 10.5557C65.8042 10.8241 65.9378 11.0477 65.9378 11.1819C65.9378 11.2713 65.8933 11.4055 65.7597 11.5397C65.6707 11.6739 65.5816 11.8081 65.4926 11.9423C65.3145 12.2106 65.1809 12.5685 65.0919 12.9263C65.0028 13.2841 64.9583 13.8656 64.9583 14.626C64.9583 15.5653 65.0919 16.9966 65.359 18.9199C65.6262 20.8432 66.0269 22.6324 66.4721 24.1979C66.9618 25.7633 67.4516 26.5237 67.9858 26.5237C68.2975 26.5237 68.6982 25.8528 69.188 24.5557C69.6777 23.2586 70.0784 21.6036 70.4346 19.6803C70.7908 17.757 70.9688 15.8784 70.9688 14.0892C70.9688 13.7314 70.8353 13.2841 70.5236 12.8368C70.301 12.4343 70.1674 12.1659 70.1674 11.987C70.1674 11.8081 70.2565 11.5844 70.4791 11.3161C70.7017 11.003 70.8798 10.8688 71.1024 10.8688C71.3696 10.8688 71.6367 11.1372 71.9038 11.7186C72.171 12.2554 72.26 12.8368 72.26 13.3736C72.349 15.9231 72.0374 18.4726 71.4586 20.9327Z" fill="#39395B" stroke="#39395B" stroke-width="0.957029" stroke-miterlimit="10"/>
<path d="M85.9282 24.2429C85.3049 25.5848 84.4144 26.7477 83.2123 27.687C82.0547 28.6263 80.7191 29.1183 79.2498 29.1183C77.7806 29.1183 76.712 28.6263 75.9997 27.6423C75.2873 26.6583 74.9312 25.4506 74.9312 24.0193C74.9312 22.7669 75.1092 21.2014 75.5099 19.3228C75.9106 17.4442 76.4449 15.7893 77.1573 14.3132C77.2018 14.2238 77.3799 13.8212 77.6915 13.1503C78.0032 12.4794 78.3594 11.9873 78.7601 11.6295C79.1608 11.2717 79.5615 11.0928 80.0067 11.0928C80.1848 11.0928 80.3629 11.1375 80.541 11.2717C80.7191 11.4059 80.8081 11.5401 80.8081 11.719C80.8081 11.7637 80.7636 11.8979 80.63 12.0768C80.4965 12.2557 80.4074 12.4346 80.3629 12.5241C79.606 13.5976 79.0272 14.671 78.5375 15.6998C77.9141 17.0417 77.4689 18.3835 77.1127 19.6806C76.7566 20.9778 76.623 22.4091 76.623 23.9746C76.623 26.0321 77.6915 27.1056 79.7841 27.1056C80.7636 27.1056 81.6986 26.7477 82.5445 26.0768C83.3904 25.4059 84.0582 24.556 84.548 23.572C85.0377 22.588 85.3049 21.6934 85.3049 20.8883C85.3049 19.949 85.0377 19.1886 84.548 18.473C84.0582 17.802 83.3459 17.0864 82.4554 16.326C81.8766 15.834 81.4759 15.4314 81.2088 15.1183C80.9417 14.8052 80.8081 14.5369 80.8081 14.3132C80.8081 14.0001 80.9862 13.7318 81.3869 13.5528C81.7431 13.3739 82.1883 13.2397 82.7226 13.2397C82.9897 13.2397 83.2123 13.2397 83.3014 13.2845C83.3904 13.3292 83.4349 13.4187 83.4349 13.5081C83.4349 13.5528 83.3904 13.6423 83.3014 13.7765C83.2123 13.9107 83.1678 14.0001 83.1678 14.0896C83.1678 14.179 83.3904 14.4474 83.8356 14.8947C84.7261 15.7445 85.4384 16.6391 86.0172 17.5337C86.596 18.4282 86.9077 19.457 86.9077 20.6647C86.9077 21.7381 86.596 22.9011 85.9282 24.2429Z" fill="#39395B" stroke="#39395B" stroke-width="0.957029" stroke-miterlimit="10"/>
<path d="M100.443 13.0609C100.176 13.374 99.9529 13.5082 99.7303 13.5082C99.5967 13.5082 99.4186 13.4187 99.2851 13.2845C99.1515 13.1056 98.9734 12.882 98.7953 12.6136C98.6618 12.3452 98.4391 12.1216 98.172 11.9427C97.9049 11.7638 97.6823 11.6743 97.4151 11.6743C96.7918 11.6743 95.9459 12.6583 94.8328 14.6711C93.7643 16.6839 92.6958 19.1887 91.6717 22.2749C91.6717 22.9011 91.7163 23.6615 91.8053 24.5561C91.8498 25.4954 91.8944 26.1663 91.9389 26.6136L92.0279 28.1791C92.0279 28.5369 91.9834 28.85 91.8498 29.1631C91.7163 29.4315 91.4937 29.5657 91.1375 29.5657C90.7813 29.5657 90.5142 28.9842 90.4251 27.7765C90.3361 26.5689 90.247 24.8245 90.247 22.5433C90.247 21.9618 90.2025 21.1567 90.2025 20.0385C90.2025 18.965 90.158 17.6679 90.1135 16.1919C90.0689 13.9107 90.0244 12.3005 90.0244 11.3612C90.0244 10.735 90.3361 10.4666 90.9594 10.4666C91.3156 10.4666 91.5382 10.6455 91.6272 11.0481C91.7163 11.4507 91.7608 12.1663 91.7608 13.2398V19.5018C92.4286 17.489 93.141 15.7446 93.8979 14.2685C94.6547 12.7925 95.4116 11.6743 96.1685 10.9139C96.8809 10.1535 97.5487 9.75098 98.1275 9.75098C98.6172 9.75098 99.0625 9.88516 99.5077 10.1535C99.9529 10.4219 100.309 10.735 100.576 11.1376C100.843 11.5401 100.977 11.9427 100.977 12.3005C100.843 12.5241 100.71 12.7925 100.443 13.0609Z" fill="#39395B" stroke="#39395B" stroke-width="0.957029" stroke-miterlimit="10"/>
<path d="M117.673 13.0159C117.361 13.4185 117.094 13.6421 116.827 13.6421C116.649 13.6421 116.471 13.5527 116.248 13.329C116.025 13.1054 115.892 13.0159 115.803 13.0159C115.224 13.0159 114.289 13.508 112.998 14.492C111.707 15.476 110.371 16.5942 109.035 17.9361C107.655 19.2332 106.631 20.3514 105.919 21.2907L105.963 22.0064C107.611 22.9457 109.481 23.9297 111.529 24.9584C113.577 25.9872 115.001 26.6134 115.758 26.7923C116.07 26.837 116.381 26.8818 116.693 26.9265C117.005 26.9712 117.227 26.9712 117.361 26.9712C117.539 26.9712 117.717 26.9712 117.851 27.0159C117.984 27.0607 118.029 27.1054 118.029 27.1949C118.029 27.5079 117.806 27.821 117.406 28.1341C117.005 28.4472 116.381 28.6262 115.58 28.6262C114.868 28.6262 113.888 28.3131 112.642 27.6421C111.395 27.0159 109.926 26.1661 108.234 25.0926L106.141 23.8849C106.408 27.2396 106.587 29.0734 106.587 29.3865C106.587 29.6549 106.453 29.9233 106.23 30.1022C106.008 30.2811 105.741 30.3706 105.429 30.3706C105.251 30.3706 105.117 30.0575 104.984 29.4313C104.895 28.8051 104.761 27.5527 104.583 25.6741L104.36 23.2587C104.093 23.1246 103.871 22.9457 103.648 22.6773C103.47 22.4089 103.336 22.1853 103.336 22.0064C103.336 21.6933 103.559 21.3354 104.004 20.8881C104.004 19.4568 103.915 17.4441 103.826 14.8051C103.737 12.1661 103.648 10.2428 103.604 9.03511L103.425 3.57824C103.425 2.86258 103.515 2.19166 103.648 1.69964C103.782 1.1629 104.138 0.894531 104.672 0.894531C104.85 0.894531 104.984 0.93926 105.073 1.02872C105.117 1.11817 105.162 1.29709 105.162 1.56546C105.162 2.77313 105.251 5.59102 105.384 9.9744C105.518 14.3578 105.652 17.4888 105.741 19.3674C110.638 13.7763 114.2 11.0032 116.471 11.0032C116.916 11.0032 117.316 11.0926 117.628 11.3163C117.94 11.4952 118.118 11.7188 118.118 11.9425C118.118 12.2556 117.984 12.6134 117.673 13.0159Z" fill="#39395B" stroke="#39395B" stroke-width="0.957029" stroke-miterlimit="10"/>
<path d="M120.166 4.78576C119.81 4.78576 119.409 4.60684 119.053 4.24902C118.652 3.89119 118.474 3.57809 118.474 3.35445C118.474 3.08608 118.608 2.77298 118.83 2.50461C119.053 2.23624 119.276 2.10205 119.543 2.10205C119.854 2.23624 120.166 2.45988 120.344 2.72825C120.522 2.95189 120.7 3.22026 120.923 3.53336C121.145 3.89119 121.235 4.0701 121.235 4.15956C121.235 4.56211 120.878 4.78576 120.166 4.78576ZM121.769 29.5653C121.591 29.6995 121.368 29.7889 121.145 29.7442C120.834 29.6995 120.611 29.118 120.478 27.9551C120.344 26.7921 120.166 24.6005 120.032 21.38C119.943 19.233 119.854 17.1755 119.81 15.118C119.765 13.0605 119.721 11.495 119.676 10.4215C119.676 10.1532 119.721 9.92953 119.81 9.75061C119.899 9.61643 120.032 9.52697 120.255 9.52697C120.745 9.52697 121.056 9.79534 121.19 10.2874C121.324 10.7794 121.368 11.7634 121.368 13.15L121.324 17.8017C121.324 20.4407 121.368 22.5877 121.502 24.1979C121.502 24.2874 121.591 25.1372 121.813 26.7027C121.947 27.8209 122.036 28.5366 122.036 28.8944C122.08 29.2522 121.991 29.4311 121.769 29.5653Z" fill="#39395B" stroke="#39395B" stroke-width="0.957029" stroke-miterlimit="10"/>
<path d="M137.173 29.9231C136.951 30.1467 136.684 30.2362 136.372 30.2362C136.149 30.2362 135.971 30.1915 135.793 30.0573C135.66 29.9231 135.571 29.7889 135.571 29.5653C135.571 28.4918 135.615 26.8368 135.749 24.5557C135.882 22.1403 135.927 20.1276 135.927 18.5173C135.927 16.9518 135.882 15.6995 135.793 14.7154C135.704 13.7314 135.526 13.2394 135.259 13.2394C134.502 13.2394 133.701 14.3576 132.81 16.5493C131.92 18.7857 130.896 21.6931 129.783 25.3161L129.293 26.8816C129.204 27.1499 129.07 27.3736 128.848 27.5078C128.625 27.6867 128.447 27.7314 128.224 27.7314C127.957 27.7314 127.779 27.6867 127.69 27.6419C127.601 27.5972 127.557 27.4183 127.512 27.1499L127.245 23.9295L126.755 18.249C126.622 15.9678 126.399 13.9998 126.176 12.3448C126.132 11.9423 126.087 11.6292 126.087 11.4503C126.087 11.0477 126.221 10.7346 126.533 10.4662C126.8 10.1979 127.156 10.1084 127.512 10.1084C127.735 10.1084 127.868 10.7346 128.002 11.987C128.091 13.2394 128.224 15.2969 128.314 18.1148L128.447 20.217C128.625 22.856 128.714 24.5557 128.759 25.2713C128.803 25.0924 128.892 24.9582 128.937 24.7346C128.981 24.5557 129.07 24.332 129.159 24.0637C130.362 20.3959 131.475 17.3097 132.499 14.8496C133.523 12.3895 134.547 11.1819 135.526 11.1819C136.194 11.1819 136.684 11.8528 136.906 13.2394C137.173 14.626 137.307 16.3704 137.396 18.5621C137.441 20.9327 137.485 24.4662 137.485 29.0285C137.53 29.4311 137.396 29.6995 137.173 29.9231Z" fill="#39395B" stroke="#39395B" stroke-width="0.957029" stroke-miterlimit="10"/>
<path d="M154.983 34.0381C154.315 35.7378 153.513 37.0797 152.578 38.1531C151.643 39.2266 150.664 40.1212 149.64 40.7921C148.616 41.463 147.726 41.7761 147.013 41.7761C146.612 41.7761 146.301 41.642 146.123 41.4183C145.945 41.15 145.856 40.8816 145.856 40.5238C145.856 40.2107 146.345 39.8528 147.325 39.4055C148.794 38.8241 150.174 37.84 151.465 36.4982C152.445 35.4694 153.157 34.2618 153.647 32.9199C154.092 31.5781 154.359 30.1915 154.359 28.8049C154.359 27.2394 154.27 25.7634 154.092 24.4662C153.914 23.1691 153.691 21.5589 153.335 19.6356C152.935 17.6228 152.667 15.8784 152.534 14.4918C152.178 15.6995 151.599 17.1755 150.798 18.8752C150.041 20.5749 149.106 22.2298 148.037 23.7953C147.013 25.2714 146.123 26.3896 145.277 27.15C144.475 27.8656 143.674 28.2682 142.873 28.2682C142.205 28.2682 141.715 27.9551 141.403 27.3289C141.092 26.7027 140.914 25.8528 140.914 24.7793C140.914 22.9902 141.359 20.888 142.294 18.4726C143.229 16.0573 144.386 13.9998 145.767 12.2554C147.147 10.511 148.527 9.66113 149.863 9.66113C150.308 9.66113 150.664 9.84005 150.931 10.2426C151.198 10.6452 151.287 11.0924 151.287 11.6739C151.287 12.3896 151.154 12.7474 150.931 12.7474C150.887 12.7474 150.798 12.6579 150.664 12.4343C150.575 12.2554 150.441 12.0765 150.308 11.8976C150.174 11.7186 150.041 11.6739 149.863 11.6739C148.75 11.6739 147.592 12.4343 146.479 13.9103C145.366 15.3864 144.386 17.1755 143.629 19.1883C142.873 21.2011 142.516 22.856 142.516 24.1531C142.516 24.8688 142.605 25.3608 142.784 25.6739C142.962 25.987 143.184 26.1659 143.54 26.1659C144.075 26.1659 144.698 25.8081 145.455 25.0477C146.212 24.3321 147.102 23.1691 148.126 21.5589C149.061 20.1723 149.907 18.5621 150.619 16.6835C151.376 14.8496 151.955 13.0605 152.356 11.4055C152.4 11.2266 152.489 11.1372 152.578 11.003C152.667 10.9135 152.801 10.8241 152.935 10.8241C153.113 10.8241 153.335 10.9135 153.558 11.0477C153.781 11.1819 153.87 11.3608 153.87 11.495C153.87 11.5845 153.87 11.7186 153.825 11.8528C153.781 11.987 153.781 12.0317 153.736 12.0765C153.87 13.5078 154.27 15.7889 154.805 18.8305C155.205 20.9774 155.517 22.8113 155.74 24.2426C155.962 25.7186 156.051 27.1052 156.051 28.5365C156.007 30.5046 155.65 32.3832 154.983 34.0381Z" fill="#39395B" stroke="#39395B" stroke-width="0.957029" stroke-miterlimit="10"/>
<path d="M158.544 0.447146C157.965 0.62606 157.342 1.02862 156.852 1.52063C156.229 2.14683 155.784 3.0414 155.65 3.93596C155.517 4.83053 155.65 5.81456 156.051 6.6644C156.452 7.51424 157.119 8.22989 157.921 8.72191C158.722 9.21392 159.702 9.43756 160.637 9.3481C161.572 9.30338 162.507 8.94555 163.219 8.36408C163.976 7.78261 164.51 6.9775 164.822 6.08293C165.401 4.24906 164.822 2.19155 163.353 0.939159C162.774 0.447146 161.972 0.0893187 161.349 0.0445902C160.726 -0.0448666 160.281 0.0893187 160.325 0.223504C160.325 0.357689 160.726 0.447146 161.215 0.670788C161.705 0.849702 162.329 1.1628 162.863 1.65481C163.219 2.01264 163.575 2.4152 163.798 2.86248C164.02 3.22031 164.154 3.66759 164.198 4.07015C164.288 4.51743 164.288 4.91999 164.198 5.36727C164.065 6.21711 163.62 7.06695 162.907 7.64842C162.239 8.22989 161.305 8.63245 160.325 8.63245C159.346 8.63245 158.322 8.27462 157.565 7.55897C157.208 7.20114 156.852 6.75385 156.63 6.21711C156.407 5.68037 156.273 5.05417 156.318 4.42798C156.363 3.13085 157.208 1.83373 158.411 1.1628C158.811 0.939159 159.256 0.804974 159.613 0.715517C159.969 0.62606 160.281 0.581331 160.325 0.447146C160.37 0.357689 160.147 0.268232 159.791 0.268232C159.346 0.223504 158.9 0.312961 158.544 0.447146Z" fill="#39395B"/>
<path d="M160.414 3.22033C160.503 3.26505 160.547 3.26505 160.592 3.30978C160.681 3.39924 160.681 3.4887 160.636 3.62288C160.636 3.75707 160.592 3.8018 160.503 3.84652C160.414 3.89125 160.325 3.89125 160.147 3.89125H159.969C159.88 3.71234 159.88 3.44397 159.969 3.30978C159.969 3.30978 159.924 3.30978 160.058 3.26505C160.147 3.26505 160.236 3.1756 160.191 3.13087C160.147 3.08614 160.147 2.99668 160.058 2.95195C160.013 2.95195 160.013 2.90723 159.88 2.90723C159.791 2.90723 159.702 2.95195 159.612 2.99668C159.612 3.04141 159.568 3.04141 159.568 3.08614C159.523 3.13087 159.523 3.1756 159.523 3.22033C159.523 3.26505 159.523 3.30978 159.479 3.30978C159.434 3.57815 159.479 3.75707 159.568 4.02544C159.612 4.15962 159.746 4.24908 159.88 4.24908C160.013 4.24908 160.058 4.24908 160.147 4.24908C160.28 4.24908 160.503 4.24908 160.726 4.07017C160.904 3.98071 160.993 3.71234 160.993 3.4887C160.993 3.39924 160.948 3.22033 160.859 3.13087C160.77 2.99668 160.636 2.95195 160.503 2.95195C160.369 2.90723 160.191 2.95196 160.191 3.04141C160.191 3.13087 160.325 3.1756 160.414 3.22033Z" fill="#39395B"/>
<path d="M162.061 3.66745C162.15 3.44381 162.106 3.17544 162.061 2.9518C161.972 2.72816 161.839 2.45979 161.661 2.3256C161.394 2.10196 161.037 2.05723 160.726 2.0125C160.414 1.96777 160.102 1.96777 159.791 1.96777H159.346C159.167 1.96777 159.078 1.96777 158.856 1.96777C158.767 1.96777 158.589 2.05723 158.544 2.14669C158.455 2.28087 158.455 2.37033 158.455 2.45979V2.90707C158.455 4.15947 158.455 5.36713 158.455 6.5748C158.455 6.66426 158.455 6.75372 158.5 6.8879C158.544 7.02209 158.678 7.15627 158.767 7.201C158.9 7.24573 158.989 7.24573 159.078 7.24573H159.301C159.39 7.24573 159.524 7.24573 159.657 7.15627C159.791 7.06681 159.835 6.8879 159.835 6.79844C159.835 6.5748 159.835 6.48535 159.835 6.30643V5.36713C159.835 5.27768 159.835 5.27768 159.835 5.27768C159.835 5.27768 159.88 5.23295 159.924 5.23295C160.013 5.18822 160.147 5.18822 160.28 5.23295C160.503 5.27768 160.77 5.45659 160.815 5.63551V5.72496V5.85915L160.859 6.08279C160.859 6.21698 160.904 6.39589 160.904 6.53007C160.904 6.66426 160.904 6.8879 161.082 7.11154C161.26 7.33519 161.527 7.29046 161.661 7.29046H161.883C161.972 7.29046 162.15 7.24573 162.239 7.15627C162.329 7.06681 162.329 6.8879 162.284 6.75372C162.239 6.66426 162.239 6.5748 162.195 6.5748V6.39589L162.15 6.21697L162.061 5.85915C162.017 5.63551 161.972 5.36713 161.883 5.14349C161.794 4.91985 161.572 4.78566 161.438 4.74094C161.305 4.69621 161.215 4.69621 161.215 4.74094C161.215 4.83039 161.483 4.91985 161.572 5.27768C161.616 5.45659 161.616 5.6355 161.661 5.9486C161.705 6.21697 161.75 6.53007 161.75 6.79844L161.794 6.93263C161.794 6.97736 161.794 6.97736 161.794 6.97736H161.75C161.572 6.97736 161.349 7.02209 161.26 6.97736C161.215 6.97736 161.171 6.8879 161.171 6.70899C161.171 6.53007 161.126 6.35116 161.126 6.17225L161.171 5.81442V5.68023C161.171 5.6355 161.171 5.59078 161.126 5.50132C161.037 5.27768 160.904 5.14349 160.726 5.00931C160.414 4.78566 159.969 4.69621 159.568 4.96458C159.435 5.05404 159.39 5.23295 159.435 5.32241V5.59078C159.435 5.76969 159.435 5.9486 159.435 6.12752C159.435 6.30643 159.435 6.48535 159.435 6.66426C159.435 6.75372 159.435 6.79844 159.435 6.79844C159.435 6.79844 159.39 6.84317 159.301 6.84317C159.123 6.84317 158.9 6.84317 158.9 6.79844C158.856 6.79844 158.856 6.5748 158.856 6.39589C158.856 5.6355 158.856 4.87512 158.856 4.02528C158.856 3.62273 158.856 3.22017 158.856 2.72816C158.856 2.59397 158.856 2.50451 158.856 2.37033C158.856 2.3256 158.856 2.28087 158.856 2.28087C158.856 2.28087 158.856 2.28087 158.9 2.23614C158.945 2.23614 159.078 2.23614 159.212 2.23614C159.346 2.23614 159.479 2.23614 159.568 2.23614C160.058 2.23614 160.592 2.19142 161.082 2.28087C161.305 2.3256 161.527 2.41506 161.661 2.59397C161.794 2.77289 161.883 2.99653 161.883 3.22017C161.928 3.80164 161.26 4.33838 161.26 4.42784C161.215 4.69621 161.883 4.29365 162.061 3.66745Z" fill="#39395B"/>
</g>
<defs>
<clipPath id="clip0_303_4531">
<rect width="165" height="42" fill="white"/>
</clipPath>
</defs>
</svg>
