<svg width="38" height="45" viewBox="0 0 38 45" fill="none" xmlns="http://www.w3.org/2000/svg">
<g clip-path="url(#clip0_113_723)">
<path d="M19.1082 41.2559C11.6328 36.3259 6.17723 30.0059 4.17624 21.2209C3.64767 18.9041 3.40227 16.5689 3.38339 14.1966C3.36451 12.1393 3.38339 10.1006 3.38339 8.04334C3.38339 7.89507 3.40227 7.7468 3.42114 7.56146C4.38389 7.50586 5.34663 7.54293 6.29049 7.48733C10.6889 7.20932 14.8985 6.2641 18.7495 4.05858C18.9383 3.94737 19.0704 3.92884 19.2592 4.04004C23.8275 6.67184 28.83 7.61706 34.059 7.57999C34.2289 7.57999 34.3988 7.57999 34.5121 7.57999C34.6442 7.72827 34.6253 7.87653 34.6253 7.98774C34.6064 10.6195 34.682 13.2699 34.5498 15.9017C34.2289 22.9074 31.6805 29.0606 27.0366 34.3984C25.0357 36.6966 22.6382 38.5129 20.2408 40.3662C19.8633 40.6813 19.448 40.9964 19.1082 41.2559Z" fill="#545AE8"/>
<path d="M24.7485 36.9194C25.6735 36.1225 26.6174 35.1958 27.4857 34.1764C28.3541 33.1756 29.1847 32.0821 29.902 30.9886C31.8464 28.0788 33.2999 24.8354 34.0928 21.4252C34.4892 19.7201 34.7346 17.9964 34.8479 16.2357C34.9611 14.4936 34.9611 12.7514 34.9611 11.0277V8.43302V8.11794V7.95114V7.89554V7.8214C34.9611 7.7658 34.9423 7.7102 34.9423 7.67313C34.9234 7.58046 34.8668 7.4878 34.8101 7.41366C34.7724 7.37659 34.7535 7.33953 34.7157 7.30246L34.5836 7.26539C34.5458 7.24686 34.4892 7.24686 34.4326 7.24686H34.2816H34.1117C33.6775 7.24686 33.2433 7.24686 32.8091 7.22832C31.9408 7.20979 31.0724 7.13565 30.2041 7.06152C29.3357 6.96885 28.4674 6.85765 27.6179 6.69084C26.7684 6.52404 25.9189 6.3387 25.0883 6.09776C24.673 5.98656 24.2577 5.83829 23.8424 5.70855L23.2383 5.48615C23.0307 5.41201 22.823 5.33788 22.6343 5.24521C21.8225 4.93013 21.0486 4.55946 20.2746 4.15172L19.7083 3.83664L19.5573 3.76251L19.4818 3.72544C19.444 3.70691 19.4062 3.68837 19.3685 3.66984C19.293 3.63277 19.1797 3.61424 19.0853 3.5957C18.9721 3.5957 18.8777 3.61424 18.7833 3.6513C18.7078 3.68837 18.6323 3.72544 18.5756 3.74397L18.4246 3.81811L18.1415 3.96638C17.9527 4.07758 17.7639 4.17025 17.5751 4.26292C16.0461 5.05987 14.4038 5.65295 12.7237 6.09776C11.0436 6.54257 9.30689 6.82058 7.57018 6.98738C7.136 7.02445 6.70183 7.06152 6.26765 7.09859C5.83347 7.11712 5.39929 7.13565 4.96511 7.13565L4.30441 7.15419H3.96462L3.45493 7.22832H3.11514C3.09626 7.22832 3.07738 7.22832 3.07738 7.22832V7.26539V7.33953L3.05851 7.50633L3.02075 8.02528V8.67396V13.8819C3.02075 15.6241 3.13402 17.3848 3.3983 19.1085C3.53044 19.9796 3.70033 20.8321 3.90799 21.6847L4.24778 22.9635L4.6442 24.2238C5.21052 25.8918 5.90898 27.5043 6.75846 29.0426C7.60793 30.5809 8.60843 32.045 9.72219 33.4165C10.5905 34.5286 11.6288 35.6035 12.6671 36.6044C13.1956 37.0862 13.7053 37.5681 14.2339 37.9944C14.4981 38.2168 14.7436 38.4207 14.989 38.6245C15.2344 38.8099 15.4798 39.0137 15.7252 39.1805C16.1971 39.5512 16.6502 39.8663 17.0466 40.1443C17.2542 40.274 17.443 40.4038 17.6129 40.5335C17.8017 40.6447 17.9527 40.7559 18.1037 40.8486C18.7078 41.2193 19.0665 41.3861 19.0665 41.3305C19.0853 41.1822 17.8772 40.3111 16.1216 38.8655C15.8951 38.6801 15.6685 38.4948 15.442 38.2909C15.1966 38.0871 14.9701 37.8647 14.7247 37.6608C14.4793 37.4384 14.215 37.216 13.9696 36.975C13.7242 36.7341 13.4599 36.4932 13.1956 36.2337C12.9313 35.9927 12.6859 35.7147 12.4216 35.4367C12.1574 35.1587 11.8931 34.8992 11.6288 34.6027C11.3645 34.3062 11.1002 34.0096 10.836 33.7131C10.5905 33.398 10.3263 33.0829 10.0809 32.7679C9.89209 32.5455 9.74107 32.3231 9.57117 32.1006L9.06149 31.4149C8.74057 30.9516 8.43854 30.4697 8.11762 30.0063C7.83446 29.5245 7.5513 29.0426 7.26814 28.5422L6.8906 27.8008C6.75846 27.5413 6.62632 27.3004 6.51305 27.0409C5.70133 25.3544 5.07838 23.5936 4.62532 21.7588C4.13451 19.9425 3.87023 18.0706 3.75697 16.1616C3.70033 15.2164 3.68146 14.2526 3.68146 13.2889C3.68146 12.3251 3.68146 11.3428 3.68146 10.3605C3.68146 9.87865 3.68146 9.37824 3.68146 8.89636C3.68146 8.45155 3.66258 7.7102 3.71921 7.87701H3.98349H4.36104C4.60644 7.87701 4.87073 7.87701 5.11613 7.85847C5.62582 7.85847 6.15438 7.83994 6.66407 7.78434C8.70282 7.599 10.7793 7.30246 12.8369 6.76498C14.8946 6.2275 16.9144 5.43055 18.821 4.33705C18.9532 4.26292 18.9909 4.24439 19.0098 4.24439C19.0287 4.24439 19.0476 4.26292 19.0853 4.28145L19.2552 4.37412C19.5006 4.50386 19.746 4.63359 19.9726 4.76333C20.218 4.89307 20.4634 5.00427 20.7088 5.13401C20.9542 5.26374 21.2185 5.35641 21.4639 5.48615C22.4832 5.93096 23.5592 6.32017 24.6353 6.63524C26.825 7.28392 29.1469 7.63607 31.5066 7.7658C32.0729 7.80287 32.6581 7.8214 33.2433 7.8214C33.5453 7.8214 33.8285 7.8214 34.1305 7.8214H34.2438C34.2627 7.8214 34.2816 7.8214 34.2816 7.83994C34.2816 7.85847 34.2816 7.87701 34.2816 7.87701V8.08088C34.2816 9.28557 34.2816 10.5273 34.2816 11.8062C34.2816 13.085 34.2627 14.4009 34.206 15.7539C34.1305 17.0883 33.9984 18.4598 33.753 19.8498C33.2622 22.6114 32.3372 25.3914 30.9592 28.0047C30.2796 29.3206 29.4867 30.5809 28.5995 31.8041C28.3918 32.1192 28.1464 32.4157 27.9199 32.7123L27.5801 33.1571L27.2214 33.5833C26.7495 34.1764 26.2398 34.7324 25.7113 35.2699C24.371 36.6229 22.7475 37.9573 21.4261 39.0137C20.1047 40.0702 19.1231 40.8857 18.9909 41.1081C18.8966 41.2749 19.7272 40.7003 20.8787 39.8663C22.0868 39.0508 23.5781 37.9203 24.7485 36.9194Z" fill="#545AE8"/>
<path d="M13.1719 18.0331V29.5611H24.8947V18.0331H13.1719ZM19.7601 24.2234C19.8733 24.9091 19.9677 25.5949 20.0621 26.3547H17.9856C18.08 25.6134 18.1555 24.9091 18.2499 24.2048C18.2876 23.9454 18.2499 23.7785 18.0422 23.5747C17.4759 23.0001 17.4948 22.1661 18.0422 21.6472C18.5708 21.1468 19.3825 21.1468 19.9299 21.6286C20.4963 22.1476 20.534 22.9816 19.9677 23.5561C19.7412 23.76 19.7223 23.9454 19.7601 24.2234Z" fill="#545AE8"/>
<path d="M20.1763 23.5015C20.4217 23.2606 20.5916 22.8528 20.5727 22.4636C20.5539 21.9447 20.2518 21.4443 19.7799 21.1663C19.5534 21.0365 19.2702 20.9624 18.987 20.9438C18.7039 20.9438 18.4207 20.9994 18.1753 21.1292C17.6845 21.3887 17.3258 21.8891 17.2692 22.4636C17.2503 22.7416 17.307 23.0382 17.4202 23.2791C17.4769 23.4088 17.5524 23.52 17.6467 23.6312C17.6845 23.6868 17.7411 23.7424 17.7789 23.7795C17.8166 23.8166 17.8355 23.8351 17.8544 23.8722C17.8922 23.9278 17.8922 23.9463 17.8922 24.0019C17.8922 24.0205 17.8922 24.0575 17.8922 24.1131L17.8733 24.2799L17.7978 24.9471L17.5901 26.6337V26.6708V26.6893H17.609H17.6279H17.7034H17.8733H18.2131H18.6472H19.3268H20.3273H20.4028H20.4406H20.4595V26.6708L20.4406 26.504L20.4028 26.1704L20.3273 25.707C20.2329 25.0027 20.0442 24.1502 19.7988 24.2058C19.5722 24.2614 19.5345 25.0213 19.6289 25.8368L19.6477 25.948V25.9665V25.985C19.6477 25.985 19.6477 25.985 19.6289 25.985H19.5345H19.3457L18.9682 26.0036C18.836 26.0036 18.7228 26.0036 18.5906 26.0036H18.4018H18.3641C18.3452 26.0036 18.3641 26.0036 18.3452 26.0036H18.3263H18.2886H18.2697V25.985V25.948V25.9294L18.2886 25.8368C18.3263 25.5958 18.3452 25.3364 18.383 25.0769C18.4207 24.8174 18.4396 24.5579 18.4773 24.2985L18.4962 24.0946C18.4962 24.0205 18.5151 23.9278 18.4962 23.8166C18.4773 23.7239 18.4396 23.6127 18.4018 23.52C18.3452 23.4274 18.2886 23.3718 18.2319 23.2976C18.062 23.1308 17.9488 22.9455 17.8922 22.7231C17.8544 22.5007 17.8733 22.2597 17.9677 22.0559C18.0809 21.852 18.2697 21.6667 18.5151 21.574C18.7605 21.4628 19.0625 21.4628 19.3268 21.5555C19.5911 21.6481 19.8176 21.8705 19.9309 22.1485C20.0442 22.4265 20.0253 22.7416 19.8743 23.0011C19.8365 23.0752 19.761 23.1679 19.7044 23.242C19.61 23.3347 19.4967 23.5015 19.459 23.6498C19.4212 23.8166 19.4401 23.9463 19.4778 24.039C19.5156 24.1317 19.5534 24.1687 19.61 24.1873C19.7044 24.2058 19.7044 24.0575 19.761 23.8907C19.7988 23.8166 19.8365 23.7239 19.912 23.6683C19.9498 23.6312 19.9875 23.6127 20.0253 23.5756C20.1008 23.5756 20.1386 23.5386 20.1763 23.5015Z" fill="white"/>
<path d="M16.1745 18.1634C17.2128 18.2005 18.3832 18.219 19.4969 18.2375L24.6127 18.3117V18.3858V18.7379V19.4608L24.5938 20.9064L24.5749 23.7977L24.5561 29.2095C20.875 29.2095 17.2128 29.2095 13.5317 29.2095V23.0748C13.5317 20.7396 13.4751 17.9595 13.2297 18.0151C13.0031 18.0707 12.8521 20.4801 12.8333 23.2046C12.8333 24.1498 12.8333 25.1136 12.8333 26.0588C12.8333 26.6333 12.8521 27.2079 12.8521 27.801C12.8521 28.4867 12.871 29.1725 12.871 29.8582C14.8342 29.8582 16.8164 29.8397 18.8551 29.8397C20.8939 29.8397 22.9892 29.8397 25.1979 29.8397C25.1979 28.0048 25.179 26.0773 25.179 24.0757C25.179 22.3706 25.1979 20.406 25.1979 17.7186C22.9892 17.7186 19.9689 17.7001 16.9485 17.6815C15.3251 17.6815 13.3807 17.7001 13.173 17.8854C13.022 18.0707 14.872 18.1078 16.1745 18.1634Z" fill="white"/>
<path d="M23.8379 17.5136C23.2904 17.5136 22.7807 17.5136 22.2144 17.5136C22.2144 16.9761 22.2144 16.4572 22.2144 15.9568C22.1955 14.1775 20.7797 12.7875 19.0053 12.7875C17.2119 12.7875 15.815 14.1775 15.7961 15.9568C15.7961 16.4757 15.7961 16.9761 15.7961 17.5136C15.2298 17.5136 14.739 17.5136 14.2293 17.5136C13.7951 14.678 14.8712 12.4724 17.3063 11.5272C20.3078 10.3781 23.6113 12.4724 23.8379 15.6417C23.8756 16.2533 23.8379 16.8649 23.8379 17.5136Z" fill="#545AE8"/>
<path d="M23.9148 15.309C23.8581 14.5306 23.5372 13.678 23.0275 12.9923C22.6877 12.5475 22.2913 12.1397 21.8005 11.8061C21.3286 11.4911 20.8 11.2316 20.2337 11.0833C20.1015 11.0462 19.9505 11.0277 19.8184 10.9906L19.6107 10.9536C19.5352 10.935 19.4597 10.935 19.3842 10.935C19.2332 10.935 19.101 10.9165 18.95 10.9165L18.5347 10.935C17.9495 10.9906 17.3832 11.1389 16.8546 11.3798C16.3261 11.6208 15.8353 11.9359 15.4011 12.3251C14.9669 12.7143 14.6271 13.1962 14.3628 13.7151C13.8343 14.753 13.7399 15.9392 13.8343 17.0512L13.9098 17.6813L13.9287 17.774C13.9287 17.8111 13.9287 17.8481 13.9664 17.8481H14.1552H14.5516H15.3822H16.1562V17.0882V16.2728C16.1562 16.143 16.1562 15.9948 16.1562 15.8836C16.1751 15.7724 16.1562 15.6426 16.1939 15.5314L16.2128 15.3461L16.2506 15.1793C16.2694 15.0681 16.3261 14.9569 16.3638 14.8457C16.5526 14.4009 16.8546 14.0116 17.2322 13.7151C17.421 13.5668 17.6286 13.4556 17.8551 13.3444C18.0817 13.2518 18.3082 13.1776 18.5536 13.1591C18.799 13.122 19.0444 13.122 19.2898 13.1406C19.5352 13.1776 19.7806 13.2147 20.0072 13.3074C20.4602 13.4742 20.8755 13.7707 21.1964 14.1228C21.4985 14.4935 21.725 14.9383 21.8194 15.4202C21.8382 15.5129 21.8571 15.6055 21.8571 15.7168C21.8571 15.8094 21.876 15.9021 21.876 16.0133C21.876 16.2357 21.876 16.4581 21.8949 16.6805C21.8949 16.94 21.9138 17.1995 21.9138 17.4404C21.9138 17.5331 21.9138 17.6257 21.9138 17.7184V17.7925C21.9138 17.8111 21.9138 17.8111 21.9138 17.8296H21.9515C22.0081 17.8296 22.0459 17.8296 22.1025 17.8296C22.2724 17.8296 22.4423 17.8111 22.6122 17.8111C23.3484 17.774 23.877 17.6999 23.8392 17.5701C23.8204 17.4589 23.3484 17.3663 22.6311 17.2921C22.6122 17.2921 22.5745 17.2921 22.5745 17.2921H22.5556L22.5178 17.2736C22.5178 17.2736 22.499 17.2736 22.499 17.2551L22.5178 17.218L22.5367 17.1809C22.5367 17.1809 22.5367 17.1439 22.5367 17.1253V17.0512C22.5367 16.94 22.5556 16.8288 22.5556 16.7176C22.5556 16.4952 22.5745 16.2542 22.5745 16.0133C22.5745 15.8836 22.5745 15.7538 22.5556 15.6055C22.5367 15.4758 22.5178 15.3275 22.499 15.1978C22.3479 14.4379 21.8949 13.7151 21.2719 13.2332C20.2337 12.4177 18.7424 12.2695 17.5342 12.8255C17.2322 12.9552 16.949 13.1591 16.7036 13.363C16.4582 13.5854 16.2317 13.8448 16.0618 14.1228C15.7031 14.6789 15.5332 15.3646 15.5332 16.0318C15.5332 16.3469 15.5332 16.662 15.5332 16.977C15.5332 17.0697 15.5332 17.1439 15.5332 17.2365C15.5332 17.2551 15.5144 17.2551 15.4955 17.2551H15.4011C15.1179 17.2551 14.8348 17.2551 14.5327 17.2551C14.5139 17.2551 14.495 17.2551 14.495 17.2365V17.1809C14.4761 17.0141 14.4572 16.8658 14.4572 16.699C14.4195 16.0689 14.4761 15.4017 14.646 14.7715C14.8159 14.1414 15.1368 13.5483 15.5899 13.0294C16.024 12.5475 16.6281 12.1397 17.3455 11.8432C17.5153 11.7691 17.7041 11.732 17.8929 11.6579C18.0817 11.6023 18.2893 11.5837 18.4781 11.5467C18.6857 11.5281 18.8745 11.5096 19.0822 11.5096C19.1765 11.5096 19.2898 11.5281 19.3842 11.5281L19.5352 11.5467L19.6862 11.5837C20.5168 11.7135 21.3286 12.0656 21.9893 12.6587L22.2347 12.8811L22.4423 13.122L22.5556 13.2518C22.5933 13.2888 22.6122 13.3444 22.65 13.3815L22.8387 13.6595C23.0653 14.0302 23.254 14.4379 23.3484 14.8642C23.4239 15.1237 23.4428 15.4202 23.4995 15.6982C23.5183 15.9948 23.5372 16.2728 23.5372 16.5322C23.5561 17.0512 23.5938 17.4404 23.6882 17.5145C23.7637 17.5701 23.8204 17.2551 23.877 16.8288C23.9336 16.3654 23.9714 15.7909 23.9148 15.309Z" fill="white"/>
<path d="M25.843 39.6623C26.9379 38.6985 28.0705 37.605 29.0899 36.4003C30.1282 35.1956 31.1098 33.8983 31.9781 32.6009C34.3 29.1351 36.0179 25.2615 36.9618 21.1841C37.4337 19.1639 37.7357 17.0881 37.849 15.0124C37.9811 12.9366 37.9811 10.8608 37.9811 8.80354V5.7084V5.31919V5.13386C37.9811 5.05972 37.9811 4.98558 37.9622 4.85585C37.9434 4.72611 37.8867 4.61491 37.8112 4.52224C37.7735 4.48517 37.7357 4.42957 37.698 4.3925L37.5281 4.37397H37.0184C36.4898 4.37397 35.9801 4.37397 35.4516 4.35544C34.4133 4.3369 33.3562 4.26277 32.3179 4.15156C31.2797 4.04036 30.2414 3.89209 29.2221 3.70675C28.2027 3.50288 27.1833 3.28048 26.1828 2.98394C25.6731 2.8542 25.1823 2.66886 24.6915 2.52059L23.9742 2.22405L23.6155 2.09432L23.2568 1.94605C22.2941 1.57537 21.3502 1.11203 20.4252 0.648682L19.7457 0.278007L19.5758 0.185338L19.4814 0.129736C19.4436 0.111203 19.4059 0.0926689 19.3492 0.0741351C19.2548 0.0370675 19.1416 0 19.0283 0C18.9151 0 18.7829 0.0185338 18.7074 0.0556013C18.613 0.0926689 18.5375 0.129736 18.4809 0.166804L18.311 0.259473L17.9712 0.444811C17.7447 0.574547 17.5181 0.68575 17.2916 0.815486C15.4416 1.76071 13.4973 2.48353 11.4774 3.021C9.45753 3.53995 7.3999 3.89209 5.30452 4.07743C4.77596 4.13303 4.26627 4.1701 3.7377 4.20717C3.22802 4.24423 2.69945 4.24423 2.17089 4.26277H1.39692L1.0005 4.2813L0.509687 4.29984L0.113264 4.31837C0.0943865 4.31837 0.0755092 4.31837 0.0755092 4.3369V4.3925V4.48517L0.0566319 4.67051L0 5.20799V5.98641V12.1952C0 14.271 0.132141 16.3653 0.453055 18.4226C0.622951 19.4605 0.811724 20.4798 1.07601 21.4992L1.47243 23.0189L1.94436 24.5202C2.62394 26.5033 3.45455 28.4308 4.47392 30.2657C5.49329 32.1005 6.68256 33.8427 8.00397 35.4736C9.04223 36.8081 10.2881 38.0869 11.4963 39.2731C12.1192 39.8476 12.7233 40.4222 13.3462 40.9411C13.6483 41.2006 13.9503 41.46 14.2524 41.701C14.5544 41.9419 14.8376 42.1643 15.1207 42.3682C15.687 42.813 16.2156 43.1837 16.7064 43.5173C16.9518 43.6841 17.1783 43.8324 17.386 43.9806C17.5936 44.1104 17.8013 44.2401 17.9712 44.3513C18.6885 44.7961 19.1038 45.0185 19.1038 44.9444C19.1227 44.7961 17.6503 43.7582 15.536 42.0346C15.2717 41.8122 15.0075 41.5898 14.7243 41.3488C14.4411 41.1079 14.158 40.8484 13.8559 40.589C13.5728 40.3295 13.2519 40.07 12.9498 39.7735C12.6478 39.4769 12.3458 39.1989 12.0248 38.8839C11.7039 38.5873 11.4019 38.2537 11.081 37.9386C10.7601 37.605 10.4391 37.29 10.1371 36.9378C9.83507 36.5857 9.51416 36.2335 9.19324 35.8814C8.89121 35.5107 8.58917 35.14 8.28713 34.7694C8.06061 34.5099 7.87183 34.2319 7.66418 33.9539L7.06011 33.1384C6.96572 33.0087 6.87134 32.8604 6.77695 32.7121L6.49379 32.2858L5.94635 31.4333C5.60656 30.8587 5.26677 30.2656 4.92697 29.6911L4.47392 28.8015C4.3229 28.5049 4.15301 28.2084 4.02086 27.8933C3.05812 25.8731 2.32191 23.7603 1.75559 21.5733C1.17039 19.4049 0.849478 17.1623 0.717337 14.8826C0.660705 13.7521 0.641828 12.603 0.660705 11.4539C0.660705 10.3048 0.660705 9.13715 0.660705 7.96952C0.660705 7.37644 0.660705 6.80189 0.660705 6.20881C0.660705 5.91227 0.660705 5.61573 0.660705 5.31919C0.660705 5.24506 0.660705 5.17092 0.660705 5.09679L0.679583 4.94852V4.91145C0.679583 4.91145 0.69846 4.91145 0.717337 4.91145L1.07601 4.89292H1.51018C1.81222 4.89292 2.11426 4.89292 2.41629 4.87438C3.02037 4.87438 3.64332 4.85585 4.24739 4.80025C6.70144 4.63344 9.17437 4.2813 11.6284 3.63262C14.0825 3.00247 16.4988 2.03871 18.764 0.741351C18.9151 0.648682 18.9906 0.630148 19.0283 0.630148C19.0472 0.630148 19.1038 0.648682 19.1416 0.667216L19.3492 0.778418C19.6324 0.926689 19.9344 1.09349 20.2176 1.24176C20.5196 1.39003 20.8028 1.5383 21.1048 1.68657C21.4069 1.83484 21.7089 1.96458 22.0109 2.09432C23.238 2.6318 24.5027 3.09514 25.8053 3.46582C28.4103 4.24423 31.1664 4.67051 33.998 4.81878C34.6776 4.85585 35.3572 4.87438 36.0745 4.89292C36.4332 4.89292 36.7919 4.89292 37.1505 4.89292H37.3393H37.3582L37.377 4.91145V4.92998V4.94852C37.377 4.96705 37.377 4.98558 37.377 5.00412V5.26359C37.3582 6.69069 37.377 8.19193 37.377 9.7117C37.377 11.25 37.3582 12.8254 37.2827 14.4193C37.2072 16.0317 37.0373 17.6627 36.7352 19.3122C36.15 22.6112 35.0363 25.9287 33.3939 29.0795C32.5822 30.6549 31.6195 32.1746 30.5623 33.6203C30.2981 33.9909 30.0149 34.3431 29.7506 34.6952L29.3353 35.2327L28.9011 35.7516C28.3348 36.4559 27.7307 37.1231 27.0889 37.7533C26.2961 38.5688 25.4088 39.3657 24.5216 40.1256C23.6344 40.8855 22.7471 41.5898 21.9732 42.2199C20.3875 43.4802 19.2171 44.444 19.0472 44.6849C18.9151 44.8888 19.8967 44.1845 21.2936 43.1652C22.6905 42.2385 24.465 40.8855 25.843 39.6623Z" fill="#545AE8"/>
</g>
<defs>
<clipPath id="clip0_113_723">
<rect width="38" height="45" fill="white"/>
</clipPath>
</defs>
</svg>
