<svg width="75" height="19" viewBox="0 0 75 19" fill="none" xmlns="http://www.w3.org/2000/svg">
<g clip-path="url(#clip0_113_682)">
<path d="M6.41345 13.152C6.35274 13.152 5.88728 12.5045 5.01707 11.2297C4.14686 9.95495 3.43854 8.8623 2.89213 7.95176C2.81118 7.83035 2.56833 7.3852 2.12311 6.65677C1.49575 5.56411 1.11124 4.89638 0.949338 4.6738L0.929101 6.04974L0.908863 7.3852C0.908863 8.23504 0.908863 9.14558 0.888626 10.1371C0.868388 11.1285 0.848151 11.9177 0.827914 12.4842C0.827914 12.6259 0.767201 12.7675 0.666014 12.8687C0.564827 12.9901 0.483877 13.0508 0.38269 13.0508C0.281502 13.0508 0.200553 13.0103 0.160078 12.9294C0.119603 12.8485 0.0993652 12.7068 0.0993652 12.4842C0.0993652 12.3426 0.119603 11.8974 0.160078 11.169C0.241027 9.79308 0.30174 8.65996 0.30174 7.72918C0.30174 7.00075 0.30174 6.29255 0.321977 5.62482C0.342215 4.95708 0.342215 4.5524 0.342215 4.41076L0.362452 3.88467V3.8442C0.362452 3.72279 0.38269 3.60139 0.423164 3.54068C0.463639 3.45975 0.524352 3.41928 0.645777 3.41928H0.726726C0.827914 3.41928 1.05053 3.66209 1.37432 4.12748C1.69812 4.59287 2.10287 5.24036 2.60881 6.04974C2.71 6.21161 2.83142 6.37348 2.93261 6.53536C3.0338 6.69723 3.13498 6.83887 3.21593 6.98051C3.78258 7.85059 4.08614 8.31598 4.10638 8.35645C5.523 10.5013 6.29203 11.7356 6.41345 12.0391C6.39321 11.9379 6.35274 11.7153 6.31226 11.3714C6.27179 11.0274 6.21108 10.5822 6.1706 10.0157C6.13013 9.4491 6.10989 8.88254 6.10989 8.29574C6.10989 7.24356 6.02894 5.84739 5.8468 4.10724C5.80633 3.54068 5.76585 3.17647 5.76585 3.05506C5.76585 2.60991 5.98846 2.38733 6.41345 2.38733C6.51464 2.38733 6.59559 2.50873 6.63606 2.75155C6.67654 2.99436 6.71701 3.50022 6.73725 4.28935C6.75749 5.07849 6.75749 6.33302 6.75749 8.05293C6.75749 8.59926 6.77772 9.12535 6.8182 9.65144C6.85868 10.1775 6.87891 10.6429 6.91939 11.0476C6.95986 11.6142 7.00034 12.0189 7.00034 12.3224L7.02057 12.9699C7.00034 13.071 6.79796 13.152 6.41345 13.152Z" fill="#0A1854" stroke="#0A1854" stroke-width="0.957029" stroke-miterlimit="10"/>
<path d="M15.0953 8.78119C15.0953 9.00377 14.9536 9.46916 14.6905 10.1976C14.4274 10.926 14.0227 11.5938 13.4965 12.221C12.9704 12.8483 12.3025 13.1518 11.5335 13.1518C10.8859 13.1518 10.3597 12.909 9.93473 12.4436C9.50975 11.9377 9.30737 11.2093 9.30737 10.2178C9.30737 9.28705 9.48951 8.37651 9.85378 7.46596C10.2181 6.55542 10.6835 5.80675 11.2502 5.24019C11.8371 4.67363 12.4239 4.37012 13.0513 4.37012C13.4156 4.37012 13.7394 4.47129 13.9822 4.67363C14.2453 4.87597 14.3667 5.15925 14.3667 5.52347C14.3667 5.94839 14.1644 6.35308 13.7798 6.73753C13.3953 7.12198 12.8692 7.46596 12.2418 7.76948C11.6144 8.07299 10.9668 8.27533 10.299 8.41697C10.1776 8.9633 10.1169 9.48939 10.1169 10.0155C10.1169 10.7034 10.2585 11.2498 10.5216 11.614C10.8049 11.9984 11.1895 12.1806 11.6954 12.1806C12.4644 12.1806 13.0918 11.8568 13.5572 11.2093C14.0227 10.5618 14.4274 9.81314 14.7512 9.00377C14.7715 8.9633 14.812 8.86213 14.8524 8.72049C14.8929 8.57885 14.9536 8.51815 14.9941 8.51815C15.0548 8.49791 15.0953 8.59908 15.0953 8.78119ZM13.4358 5.26043C13.2739 5.15925 13.0715 5.09855 12.8692 5.09855C12.4847 5.09855 12.1204 5.24019 11.7763 5.54371C11.4323 5.84722 11.1287 6.1912 10.9061 6.61612C10.6633 7.04104 10.5216 7.40526 10.4407 7.72901C10.9061 7.66831 11.3918 7.50643 11.8978 7.26362C12.4037 7.02081 12.8287 6.73753 13.1727 6.43401C13.5168 6.1305 13.6787 5.88769 13.6787 5.70558C13.6787 5.52347 13.5977 5.3616 13.4358 5.26043Z" fill="#0A1854" stroke="#0A1854" stroke-width="0.957029" stroke-miterlimit="10"/>
<path d="M22.6824 6.13033C22.5407 6.23151 22.2776 6.31244 21.8931 6.37315C20.9824 6.55525 20.4562 6.67666 20.3551 6.69689L19.3837 6.89924C19.3837 7.5265 19.3837 8.174 19.4039 8.84173C19.4241 9.50946 19.4444 10.1165 19.4646 10.6223C19.5051 11.3103 19.5658 11.8364 19.667 12.2006C19.7682 12.5648 19.8289 12.7672 19.8289 12.8279C19.8289 12.9493 19.7682 13.0505 19.6468 13.1516C19.5253 13.2528 19.4039 13.3135 19.3027 13.3135C19.242 13.3135 19.2015 13.2933 19.1611 13.2528C19.1206 13.2123 19.0801 13.1516 19.0599 13.0505C18.9992 12.8886 18.9384 12.5851 18.898 12.1197C18.8373 11.6745 18.7968 11.1687 18.7765 10.6223C18.7563 10.1367 18.7158 9.57016 18.7158 8.92267C18.6956 8.27517 18.6956 7.64791 18.6956 7.04088C18.1289 7.14205 17.5623 7.28369 16.9754 7.42533C16.4492 7.54673 16.1254 7.62767 16.0242 7.62767C15.9028 7.62767 15.8016 7.5872 15.6802 7.50627C15.579 7.42533 15.5183 7.30392 15.5183 7.16228C15.5183 7.00041 15.5588 6.89924 15.66 6.85877C15.7409 6.8183 15.9028 6.77783 16.1052 6.77783C16.2469 6.77783 16.4695 6.73736 16.7528 6.67666C17.0361 6.61596 17.2183 6.57549 17.2992 6.53502C17.967 6.37315 18.4123 6.27197 18.6551 6.23151C18.6551 5.98869 18.6551 5.66495 18.6349 5.26026C18.6146 4.73417 18.6146 4.30925 18.6146 4.02597C18.6146 3.56058 18.6349 3.19636 18.6551 2.95355C18.6754 2.6905 18.7361 2.46793 18.7968 2.26558C18.8777 2.02277 19.0194 1.90137 19.242 1.90137C19.323 1.90137 19.3837 1.9216 19.4241 1.96207C19.4444 2.00254 19.4646 2.06324 19.4646 2.16441C19.4646 2.24535 19.4444 2.44769 19.3837 2.79168C19.3432 3.13566 19.3027 3.60105 19.3027 4.16761C19.3027 4.61276 19.3027 5.09839 19.323 5.64471L19.3432 6.13033C19.7884 6.0494 20.6789 5.82682 21.9943 5.4626C22.0752 5.44237 22.136 5.36143 22.1967 5.21979C22.2574 5.07815 22.3181 4.99721 22.3586 4.99721C22.4598 4.99721 22.5812 5.07815 22.7026 5.21979C22.824 5.36143 22.8645 5.52331 22.8645 5.66495C22.905 5.86729 22.824 6.02916 22.6824 6.13033Z" fill="#0A1854" stroke="#0A1854" stroke-width="0.957029" stroke-miterlimit="10"/>
<path d="M32.4808 9.46994C32.2177 10.5626 31.9141 11.4529 31.5701 12.1409C31.2261 12.8288 30.9427 13.1728 30.7404 13.1728C30.4368 13.1728 30.1535 12.8288 29.8904 12.1409C29.6273 11.4529 29.4047 10.6233 29.2225 9.65205C29.0404 8.6808 28.9392 7.79049 28.8988 7.00136C28.6357 7.62862 28.3321 8.31659 28.0285 9.10572C27.725 9.87463 27.4821 10.5424 27.3 11.0887C27.0369 11.9385 26.7941 12.7479 26.5917 13.5573C26.5917 13.5775 26.5714 13.6382 26.5512 13.7191C26.531 13.8001 26.5107 13.8608 26.4703 13.9013C26.4298 13.9417 26.3893 13.962 26.3084 13.962C26.1667 13.962 26.0453 13.9215 25.9643 13.8405C25.8834 13.7596 25.8227 13.6382 25.7619 13.4763L25.6405 12.7479C25.4584 11.5743 25.2762 10.4817 25.0739 9.42947C24.8513 8.35705 24.6286 7.44651 24.406 6.75855C24.1834 6.05035 24.0013 5.70636 23.8799 5.70636C23.8394 5.70636 23.7787 5.74683 23.6977 5.82777C23.6168 5.90871 23.5358 5.96941 23.4751 6.00988C23.4144 6.05035 23.3537 6.07058 23.293 6.05035C23.1716 5.96941 23.1108 5.88847 23.1108 5.80753C23.1108 5.70636 23.1716 5.56472 23.293 5.36238C23.4144 5.16004 23.5561 4.97793 23.6977 4.81605C23.8596 4.65418 23.9811 4.57324 24.1025 4.57324C24.1834 4.57324 24.2644 4.59348 24.3251 4.65418C24.3858 4.71488 24.4667 4.79582 24.5275 4.89699C24.6489 5.09933 24.831 5.56472 25.0739 6.31339C25.2965 7.06206 25.5191 7.95237 25.7012 9.00455L26.3084 12.1206C26.7738 10.6031 27.1786 9.3283 27.5631 8.33682C27.9476 7.32511 28.3726 6.29316 28.8785 5.20051C29.0607 4.79582 29.263 4.59348 29.4856 4.59348C29.6273 4.59348 29.7487 4.65418 29.8297 4.77559C29.9106 4.89699 29.9713 4.99816 29.9713 5.05887C29.9713 5.09933 29.9511 5.16004 29.8904 5.22074C29.8499 5.28144 29.8094 5.34215 29.769 5.40285C29.688 5.52425 29.6273 5.68613 29.5868 5.848C29.5463 6.00988 29.5261 6.27292 29.5261 6.61691C29.5261 7.04183 29.5868 7.68932 29.7083 8.5594C29.8297 9.42947 30.0118 10.2388 30.2142 10.947C30.4368 11.6552 30.6594 11.9992 30.9023 11.9992C31.0439 11.9992 31.2261 11.6957 31.4487 11.1089C31.6713 10.5221 31.8534 9.77346 32.0153 8.90338C32.1772 8.03331 32.2582 7.18347 32.2582 6.37409C32.2582 6.21222 32.1975 6.00988 32.0558 5.80753C31.9546 5.62543 31.8939 5.50402 31.8939 5.42308C31.8939 5.34215 31.9344 5.24097 32.0356 5.11957C32.1367 4.97793 32.2177 4.91722 32.3189 4.91722C32.4403 4.91722 32.5617 5.03863 32.6832 5.30168C32.8046 5.54449 32.8451 5.80753 32.8451 6.05035C32.8855 7.2037 32.7439 8.35705 32.4808 9.46994Z" fill="#0A1854" stroke="#0A1854" stroke-width="0.957029" stroke-miterlimit="10"/>
<path d="M39.0541 10.9674C38.7707 11.5745 38.366 12.1006 37.8196 12.5255C37.2934 12.9504 36.6863 13.173 36.0185 13.173C35.3506 13.173 34.8649 12.9504 34.5411 12.5052C34.2173 12.0601 34.0554 11.5138 34.0554 10.8663C34.0554 10.2997 34.1364 9.5915 34.3185 8.74166C34.5006 7.89182 34.7435 7.14316 35.0673 6.47542C35.0875 6.43496 35.1685 6.25285 35.3101 5.94933C35.4518 5.64582 35.6137 5.42324 35.7958 5.26137C35.978 5.09949 36.1601 5.01855 36.3625 5.01855C36.4434 5.01855 36.5244 5.03879 36.6053 5.09949C36.6863 5.1602 36.7268 5.2209 36.7268 5.30184C36.7268 5.32207 36.7065 5.38277 36.6458 5.46371C36.5851 5.54465 36.5446 5.62558 36.5244 5.66605C36.1804 6.15168 35.9173 6.6373 35.6947 7.10269C35.4113 7.70972 35.209 8.31674 35.0471 8.90354C34.8852 9.49033 34.8244 10.1378 34.8244 10.846C34.8244 11.7768 35.3101 12.2624 36.2613 12.2624C36.7065 12.2624 37.1315 12.1006 37.516 11.797C37.9005 11.4935 38.2041 11.1091 38.4267 10.6639C38.6493 10.2188 38.7707 9.81408 38.7707 9.44986C38.7707 9.02494 38.6493 8.68096 38.4267 8.35721C38.2041 8.0537 37.8803 7.72995 37.4755 7.38597C37.2125 7.16339 37.0303 6.98128 36.9089 6.83964C36.7875 6.698 36.7268 6.5766 36.7268 6.47542C36.7268 6.33378 36.8077 6.21238 36.9899 6.13144C37.1518 6.0505 37.3541 5.9898 37.597 5.9898C37.7184 5.9898 37.8196 5.9898 37.8601 6.01004C37.9005 6.03027 37.9208 6.07074 37.9208 6.11121C37.9208 6.13144 37.9005 6.17191 37.8601 6.23261C37.8196 6.29332 37.7993 6.33378 37.7993 6.37425C37.7993 6.41472 37.9005 6.53613 38.1029 6.73847C38.5077 7.12292 38.8315 7.52761 39.0945 7.93229C39.3576 8.33698 39.4993 8.80237 39.4993 9.34869C39.4993 9.83432 39.3576 10.3604 39.0541 10.9674Z" fill="#0A1854" stroke="#0A1854" stroke-width="0.957029" stroke-miterlimit="10"/>
<path d="M45.6516 5.9081C45.5302 6.04974 45.429 6.11045 45.3278 6.11045C45.2671 6.11045 45.1861 6.06998 45.1254 6.00928C45.0647 5.92834 44.9837 5.82717 44.9028 5.70576C44.8421 5.58436 44.7409 5.48318 44.6195 5.40225C44.498 5.32131 44.3969 5.28084 44.2754 5.28084C43.9921 5.28084 43.6076 5.726 43.1017 6.63654C42.616 7.54708 42.1303 8.6802 41.6648 10.0764C41.6648 10.3596 41.685 10.7036 41.7255 11.1083C41.7458 11.5332 41.766 11.8368 41.7862 12.0391L41.8267 12.7473C41.8267 12.9092 41.8065 13.0508 41.7458 13.1924C41.685 13.3139 41.5839 13.3746 41.422 13.3746C41.2601 13.3746 41.1386 13.1115 41.0982 12.5652C41.0577 12.0189 41.0172 11.2297 41.0172 10.1978C41.0172 9.93473 40.997 9.57051 40.997 9.06465C40.997 8.57903 40.9767 7.99224 40.9565 7.3245C40.9363 6.29256 40.916 5.56412 40.916 5.1392C40.916 4.85592 41.0577 4.73452 41.341 4.73452C41.5029 4.73452 41.6041 4.81545 41.6446 4.99756C41.685 5.17967 41.7053 5.50342 41.7053 5.98904V8.82184C42.0088 7.9113 42.3326 7.12216 42.6767 6.45443C43.0207 5.7867 43.3647 5.28084 43.7088 4.93686C44.0326 4.59288 44.3361 4.41077 44.5992 4.41077C44.8218 4.41077 45.0242 4.47147 45.2266 4.59288C45.429 4.71428 45.5909 4.85592 45.7123 5.03803C45.8337 5.22014 45.8944 5.40225 45.8944 5.56412C45.8337 5.66529 45.773 5.7867 45.6516 5.9081Z" fill="#0A1854" stroke="#0A1854" stroke-width="0.957029" stroke-miterlimit="10"/>
<path d="M53.4837 5.88816C53.3421 6.07026 53.2207 6.17144 53.0992 6.17144C53.0183 6.17144 52.9373 6.13097 52.8361 6.0298C52.735 5.92862 52.6742 5.88816 52.6338 5.88816C52.3707 5.88816 51.9457 6.11073 51.3588 6.55589C50.7719 7.00104 50.1648 7.5069 49.5577 8.11393C48.9303 8.70072 48.4649 9.20658 48.1411 9.6315L48.1613 9.95525C48.9101 10.3802 49.7601 10.8253 50.691 11.2907C51.6219 11.7561 52.2695 12.0394 52.6135 12.1203C52.7552 12.1406 52.8969 12.1608 53.0385 12.181C53.1802 12.2013 53.2814 12.2013 53.3421 12.2013C53.423 12.2013 53.504 12.2013 53.5647 12.2215C53.6254 12.2417 53.6456 12.262 53.6456 12.3024C53.6456 12.4441 53.5445 12.5857 53.3623 12.7273C53.1802 12.869 52.8969 12.9499 52.5326 12.9499C52.2088 12.9499 51.7636 12.8083 51.1969 12.5048C50.6303 12.2215 49.9624 11.837 49.1934 11.3514L48.2422 10.8051C48.3637 12.3227 48.4446 13.1523 48.4446 13.2939C48.4446 13.4153 48.3839 13.5367 48.2827 13.6177C48.1815 13.6986 48.0601 13.7391 47.9184 13.7391C47.8375 13.7391 47.7768 13.5974 47.7161 13.3141C47.6756 13.0309 47.6149 12.4643 47.5339 11.6145L47.4327 10.5218C47.3113 10.4611 47.2101 10.3802 47.1089 10.2588C47.028 10.1374 46.9673 10.0362 46.9673 9.95525C46.9673 9.81361 47.0685 9.65173 47.2708 9.44939C47.2708 8.80189 47.2304 7.89135 47.1899 6.69753C47.1494 5.5037 47.1089 4.63363 47.0887 4.0873L47.0078 1.61872C47.0078 1.29497 47.0482 0.991458 47.1089 0.76888C47.1697 0.526069 47.3316 0.404663 47.5744 0.404663C47.6554 0.404663 47.7161 0.424897 47.7565 0.465366C47.7768 0.505835 47.797 0.586772 47.797 0.708177C47.797 1.2545 47.8375 2.52926 47.8982 4.51222C47.9589 6.49518 48.0196 7.91158 48.0601 8.76143C50.2862 6.23214 51.9052 4.97761 52.9373 4.97761C53.1397 4.97761 53.3218 5.01808 53.4635 5.11925C53.6052 5.20019 53.6861 5.30136 53.6861 5.40253C53.6861 5.54417 53.6254 5.70605 53.4837 5.88816Z" fill="#0A1854" stroke="#0A1854" stroke-width="0.957029" stroke-miterlimit="10"/>
<path d="M54.6184 2.16474C54.4565 2.16474 54.2743 2.0838 54.1124 1.92193C53.9303 1.76006 53.8494 1.61842 53.8494 1.51724C53.8494 1.39584 53.9101 1.2542 54.0113 1.13279C54.1124 1.01139 54.2136 0.950684 54.3351 0.950684C54.4767 1.01139 54.6184 1.11256 54.6993 1.23396C54.7803 1.33514 54.8612 1.45654 54.9624 1.59818C55.0636 1.76006 55.1041 1.84099 55.1041 1.88146C55.1041 2.06357 54.9422 2.16474 54.6184 2.16474ZM55.3469 13.3745C55.266 13.4352 55.1648 13.4757 55.0636 13.4555C54.922 13.4352 54.8208 13.1722 54.7601 12.6461C54.6993 12.12 54.6184 11.1285 54.5577 9.67166C54.5172 8.70042 54.4767 7.76964 54.4565 6.83886C54.4363 5.90808 54.416 5.19988 54.3958 4.71426C54.3958 4.59286 54.416 4.49168 54.4565 4.41075C54.497 4.35004 54.5577 4.30958 54.6589 4.30958C54.8815 4.30958 55.0231 4.43098 55.0839 4.65356C55.1446 4.87614 55.1648 5.32129 55.1648 5.94855L55.1446 8.05292C55.1446 9.24674 55.1648 10.218 55.2255 10.9464C55.2255 10.9869 55.266 11.3713 55.3672 12.0795C55.4279 12.5854 55.4684 12.9091 55.4684 13.071C55.4886 13.2329 55.4481 13.3138 55.3469 13.3745Z" fill="#0A1854" stroke="#0A1854" stroke-width="0.957029" stroke-miterlimit="10"/>
<path d="M62.3472 13.537C62.246 13.6382 62.1246 13.6787 61.983 13.6787C61.8818 13.6787 61.8008 13.6584 61.7199 13.5977C61.6592 13.537 61.6187 13.4763 61.6187 13.3752C61.6187 12.8895 61.6389 12.1409 61.6996 11.1089C61.7603 10.0163 61.7806 9.10572 61.7806 8.37729C61.7806 7.66909 61.7603 7.10253 61.7199 6.65737C61.6794 6.21222 61.5984 5.98964 61.477 5.98964C61.133 5.98964 60.7687 6.4955 60.364 7.48698C59.9592 8.49869 59.4937 9.81392 58.9878 11.4529L58.7652 12.1611C58.7247 12.2825 58.664 12.3837 58.5628 12.4444C58.4616 12.5253 58.3807 12.5456 58.2795 12.5456C58.1581 12.5456 58.0771 12.5253 58.0366 12.5051C57.9962 12.4848 57.9759 12.4039 57.9557 12.2825L57.8343 10.8256L57.6117 8.25588C57.551 7.22393 57.4498 6.33363 57.3486 5.58496C57.3283 5.40285 57.3081 5.26121 57.3081 5.18027C57.3081 4.99816 57.3688 4.85652 57.5105 4.73512C57.6319 4.61371 57.7938 4.57324 57.9557 4.57324C58.0569 4.57324 58.1176 4.85652 58.1783 5.42308C58.2188 5.98964 58.2795 6.92042 58.32 8.19518L58.3807 9.14619C58.4616 10.34 58.5021 11.1089 58.5224 11.4327C58.5426 11.3517 58.5831 11.291 58.6033 11.1899C58.6235 11.1089 58.664 11.0077 58.7045 10.8863C59.2509 9.22713 59.7568 7.83096 60.2223 6.71808C60.6878 5.60519 61.1532 5.05887 61.5984 5.05887C61.902 5.05887 62.1246 5.36238 62.2258 5.98964C62.3472 6.61691 62.4079 7.40604 62.4484 8.39752C62.4687 9.46994 62.4889 11.0685 62.4889 13.1323C62.5091 13.3145 62.4484 13.4359 62.3472 13.537Z" fill="#0A1854" stroke="#0A1854" stroke-width="0.957029" stroke-miterlimit="10"/>
<path d="M70.4434 15.3978C70.1398 16.1667 69.7755 16.7737 69.3506 17.2594C68.9256 17.745 68.4803 18.1497 68.0149 18.4532C67.5494 18.7567 67.1447 18.8983 66.8209 18.8983C66.6387 18.8983 66.4971 18.8376 66.4161 18.7365C66.3352 18.6151 66.2947 18.4937 66.2947 18.3318C66.2947 18.1901 66.5173 18.0283 66.9625 17.8259C67.6304 17.5629 68.2577 17.1177 68.8446 16.5107C69.2898 16.0453 69.6136 15.499 69.8363 14.8919C70.0386 14.2849 70.1601 13.6577 70.1601 13.0304C70.1601 12.3222 70.1196 11.6545 70.0386 11.0677C69.9577 10.4809 69.8565 9.75244 69.6946 8.88236C69.5125 7.97182 69.391 7.18268 69.3303 6.55542C69.1684 7.10175 68.9053 7.76948 68.5411 8.53838C68.197 9.30728 67.772 10.056 67.2863 10.7642C66.8209 11.4319 66.4161 11.9377 66.0316 12.2817C65.6673 12.6055 65.3031 12.7876 64.9388 12.7876C64.6352 12.7876 64.4126 12.6459 64.271 12.3627C64.1293 12.0794 64.0483 11.6949 64.0483 11.2093C64.0483 10.3999 64.2507 9.44892 64.6757 8.35627C65.1007 7.26362 65.6269 6.33284 66.2542 5.54371C66.8816 4.75457 67.5089 4.37012 68.1161 4.37012C68.3184 4.37012 68.4803 4.45105 68.6018 4.63316C68.7232 4.81527 68.7637 5.01761 68.7637 5.28066C68.7637 5.60441 68.703 5.76628 68.6018 5.76628C68.5815 5.76628 68.5411 5.72581 68.4803 5.62464C68.4399 5.54371 68.3792 5.46277 68.3184 5.38183C68.2577 5.30089 68.197 5.28066 68.1161 5.28066C67.6101 5.28066 67.084 5.62464 66.578 6.29237C66.0721 6.96011 65.6269 7.76948 65.2828 8.68002C64.9388 9.59056 64.7769 10.3392 64.7769 10.926C64.7769 11.2498 64.8174 11.4724 64.8983 11.614C64.9793 11.7556 65.0804 11.8366 65.2423 11.8366C65.4852 11.8366 65.7685 11.6747 66.1126 11.3307C66.4566 11.007 66.8613 10.4809 67.3268 9.75244C67.7518 9.12518 68.1363 8.39674 68.4601 7.5469C68.8041 6.71729 69.0672 5.90792 69.2494 5.15925C69.2696 5.07832 69.3101 5.03785 69.3506 4.97715C69.391 4.93668 69.4517 4.89621 69.5125 4.89621C69.5934 4.89621 69.6946 4.93668 69.7958 4.99738C69.897 5.05808 69.9374 5.13902 69.9374 5.19972C69.9374 5.24019 69.9374 5.30089 69.9172 5.3616C69.897 5.4223 69.897 5.44253 69.8767 5.46277C69.9374 6.11027 70.1196 7.14221 70.3624 8.51815C70.5446 9.48939 70.6862 10.319 70.7874 10.9665C70.8886 11.6342 70.9291 12.2615 70.9291 12.909C70.9088 13.7993 70.7469 14.6491 70.4434 15.3978Z" fill="#0A1854" stroke="#0A1854" stroke-width="0.957029" stroke-miterlimit="10"/>
<path d="M72.0626 0.202292C71.7995 0.283229 71.5162 0.465338 71.2935 0.687915C71.0102 0.971195 70.8078 1.37588 70.7471 1.78057C70.6864 2.18525 70.7471 2.63041 70.9293 3.01486C71.1114 3.39931 71.415 3.72306 71.7792 3.94564C72.1435 4.16821 72.5887 4.26938 73.0137 4.22892C73.4387 4.20868 73.8637 4.04681 74.1875 3.78376C74.5315 3.52072 74.7744 3.1565 74.916 2.75181C75.1791 1.92221 74.916 0.991429 74.2482 0.424869C73.9851 0.202292 73.6208 0.0404177 73.3375 0.0201834C73.0542 -0.0202852 72.8518 0.0404177 72.8721 0.101121C72.8721 0.161823 73.0542 0.202292 73.2768 0.303463C73.4994 0.384401 73.7827 0.526041 74.0256 0.748618C74.1875 0.910492 74.3494 1.0926 74.4506 1.29494C74.5518 1.45682 74.6125 1.65916 74.6327 1.84127C74.6732 2.04361 74.6732 2.22572 74.6327 2.42806C74.572 2.81252 74.3696 3.19697 74.0458 3.46001C73.7423 3.72306 73.3173 3.90517 72.8721 3.90517C72.4268 3.90517 71.9614 3.74329 71.6173 3.41954C71.4554 3.25767 71.2935 3.05533 71.1924 2.81252C71.0912 2.5697 71.0305 2.28642 71.0507 2.00314C71.0709 1.41635 71.4554 0.829555 72.0019 0.526041C72.184 0.424869 72.3864 0.364166 72.5483 0.323698C72.7102 0.283229 72.8518 0.262995 72.8721 0.202292C72.8923 0.161823 72.7911 0.121355 72.6292 0.121355C72.4268 0.101121 72.2245 0.141589 72.0626 0.202292Z" fill="#0A1854"/>
<path d="M72.9151 1.45634C72.9556 1.47657 72.9758 1.47657 72.9961 1.49681C73.0365 1.53727 73.0365 1.57774 73.0163 1.63845C73.0163 1.69915 72.9961 1.71938 72.9556 1.73962C72.9151 1.75985 72.8746 1.75985 72.7937 1.75985H72.7127C72.6722 1.67891 72.6722 1.55751 72.7127 1.49681C72.7127 1.49681 72.6925 1.49681 72.7532 1.47657C72.7937 1.47657 72.8341 1.4361 72.8139 1.41587C72.7937 1.39563 72.7937 1.35517 72.7532 1.33493C72.733 1.33493 72.733 1.3147 72.6723 1.3147C72.6318 1.3147 72.5913 1.33493 72.5508 1.35517C72.5508 1.3754 72.5306 1.3754 72.5306 1.39563C72.5104 1.41587 72.5104 1.4361 72.5104 1.45634C72.5104 1.47657 72.5104 1.49681 72.4901 1.49681C72.4699 1.61821 72.4901 1.69915 72.5306 1.82055C72.5508 1.88126 72.6115 1.92173 72.6723 1.92173C72.733 1.92173 72.7532 1.92173 72.7937 1.92173C72.8544 1.92173 72.9556 1.92173 73.0568 1.84079C73.1377 1.80032 73.1782 1.67891 73.1782 1.57774C73.1782 1.53727 73.1579 1.45634 73.1175 1.41587C73.077 1.35517 73.0163 1.33493 72.9556 1.33493C72.8949 1.3147 72.8139 1.33493 72.8139 1.3754C72.8139 1.41587 72.8746 1.4361 72.9151 1.45634Z" fill="#0A1854"/>
<path d="M73.6634 1.65953C73.7039 1.55836 73.6836 1.43695 73.6634 1.33578C73.6229 1.23461 73.5622 1.1132 73.4813 1.0525C73.3598 0.951328 73.1979 0.931094 73.0563 0.910859C72.9146 0.890625 72.773 0.890625 72.6313 0.890625H72.4289C72.348 0.890625 72.3075 0.890625 72.2063 0.890625C72.1658 0.890625 72.0849 0.931094 72.0646 0.971562C72.0242 1.03227 72.0242 1.07273 72.0242 1.1132V1.31555C72.0242 1.88211 72.0242 2.42843 72.0242 2.97476C72.0242 3.01523 72.0242 3.05569 72.0444 3.1164C72.0646 3.1771 72.1254 3.2378 72.1658 3.25804C72.2265 3.27827 72.267 3.27827 72.3075 3.27827H72.4087C72.4492 3.27827 72.5099 3.27827 72.5706 3.2378C72.6313 3.19733 72.6515 3.1164 72.6515 3.07593C72.6515 2.97476 72.6515 2.93429 72.6515 2.85335V2.42843C72.6515 2.38796 72.6515 2.38796 72.6515 2.38796C72.6515 2.38796 72.6718 2.36773 72.692 2.36773C72.7325 2.34749 72.7932 2.34749 72.8539 2.36773C72.9551 2.38796 73.0765 2.4689 73.0968 2.54984V2.59031V2.65101L73.117 2.75218C73.117 2.81288 73.1372 2.89382 73.1372 2.95452C73.1372 3.01523 73.1372 3.1164 73.2182 3.21757C73.2991 3.31874 73.4206 3.29851 73.4813 3.29851H73.5825C73.6229 3.29851 73.7039 3.27827 73.7444 3.2378C73.7848 3.19733 73.7848 3.1164 73.7646 3.05569C73.7444 3.01523 73.7444 2.97476 73.7241 2.97476V2.89382L73.7039 2.81288L73.6634 2.65101C73.6432 2.54984 73.6229 2.42843 73.5825 2.32726C73.542 2.22609 73.4408 2.16539 73.3801 2.14515C73.3194 2.12492 73.2789 2.12492 73.2789 2.14515C73.2789 2.18562 73.4003 2.22609 73.4408 2.38796C73.461 2.4689 73.461 2.54984 73.4813 2.69148C73.5015 2.81288 73.5217 2.95452 73.5217 3.07593L73.542 3.13663C73.542 3.15687 73.542 3.15687 73.542 3.15687H73.5217C73.4408 3.15687 73.3396 3.1771 73.2991 3.15687C73.2789 3.15687 73.2587 3.1164 73.2587 3.03546C73.2587 2.95452 73.2384 2.87359 73.2384 2.79265L73.2587 2.63077V2.57007C73.2587 2.54984 73.2587 2.5296 73.2384 2.48913C73.1979 2.38796 73.1372 2.32726 73.0563 2.26656C72.9146 2.16539 72.7122 2.12492 72.5301 2.24632C72.4694 2.28679 72.4492 2.36773 72.4694 2.4082V2.5296C72.4694 2.61054 72.4694 2.69148 72.4694 2.77241C72.4694 2.85335 72.4694 2.93429 72.4694 3.01523C72.4694 3.05569 72.4694 3.07593 72.4694 3.07593C72.4694 3.07593 72.4492 3.09616 72.4087 3.09616C72.3277 3.09616 72.2265 3.09616 72.2265 3.07593C72.2063 3.07593 72.2063 2.97476 72.2063 2.89382C72.2063 2.54984 72.2063 2.20585 72.2063 1.8214C72.2063 1.63929 72.2063 1.45719 72.2063 1.23461C72.2063 1.17391 72.2063 1.13344 72.2063 1.07273C72.2063 1.0525 72.2063 1.03227 72.2063 1.03227C72.2063 1.03227 72.2063 1.03227 72.2265 1.01203C72.2468 1.01203 72.3075 1.01203 72.3682 1.01203C72.4289 1.01203 72.4896 1.01203 72.5301 1.01203C72.7527 1.01203 72.9956 0.991796 73.2182 1.03227C73.3194 1.0525 73.4206 1.09297 73.4813 1.17391C73.542 1.25484 73.5825 1.35601 73.5825 1.45719C73.6027 1.72023 73.2991 1.96304 73.2991 2.00351C73.2789 2.12492 73.5825 1.94281 73.6634 1.65953Z" fill="#0A1854"/>
</g>
<defs>
<clipPath id="clip0_113_682">
<rect width="75" height="19" fill="white"/>
</clipPath>
</defs>
</svg>
