<svg width="42" height="42" viewBox="0 0 42 42" fill="none" xmlns="http://www.w3.org/2000/svg">
<g clip-path="url(#clip0_113_671)">
<path d="M30.7284 21.0228C34.3165 21.0228 37.8165 21.0228 41.3605 21.0228C41.3605 22.1466 41.3605 23.2043 41.3605 24.3722C40.6561 24.3722 39.9957 24.3501 39.3354 24.3722C36.4077 24.4603 34.4486 27.2809 35.3951 30.0353C35.5932 30.6083 35.9014 31.1151 36.3196 31.5117C36.8039 31.9745 37.3322 32.4372 37.7725 32.8559C36.0995 34.5306 34.5366 36.1172 32.8857 37.7699C32.5335 37.3732 32.1152 36.9325 31.697 36.4918C30.3762 35.1476 28.6593 34.795 26.9863 35.5002C25.3574 36.1833 24.4328 37.5936 24.4108 39.4446C24.4108 40.0616 24.4108 40.7006 24.4108 41.3617C22.1215 41.3617 19.9203 41.3617 17.653 41.3617C17.5209 40.6786 17.6089 40.0175 17.5869 39.3564C17.5429 37.263 16.2222 35.6324 14.175 35.2358C12.7882 34.9493 11.5335 35.3019 10.4989 36.2935C9.99259 36.7783 9.55234 37.3292 9.11209 37.8139C7.43913 36.1392 5.85423 34.5747 4.26932 32.9661C4.62152 32.4813 5.1058 32.0847 5.54605 31.6439C6.84479 30.3218 7.197 28.6691 6.51461 26.9724C5.85423 25.3417 4.37939 24.3501 2.53033 24.3281C1.91398 24.3281 1.27561 24.3942 0.615234 24.284C0.615234 22.0584 0.615234 19.8549 0.615234 17.6072C1.31964 17.497 2.00203 17.5632 2.68442 17.5632C4.4014 17.5411 5.87624 16.5495 6.51461 14.8968C7.17498 13.2221 6.86681 11.7237 5.65612 10.4016C5.30391 10.0269 4.9297 9.67438 4.5775 9.29977C4.46744 9.18959 4.31335 9.07942 4.29134 8.96924C5.87624 7.38267 7.46115 5.81813 9.15611 4.12139C9.59637 4.60617 10.0586 5.1791 10.5869 5.68592C11.7536 6.76567 13.1184 7.05213 14.6152 6.58938C16.1561 6.1046 17.1467 5.09096 17.5209 3.50439C17.697 2.82128 17.5869 2.09411 17.6089 1.38896C17.6089 1.12454 17.5649 0.860108 17.697 0.551608C18.7536 0.507537 19.8322 0.507537 20.9549 0.551608C20.9549 4.09935 20.9549 7.62506 20.9549 11.1948C17.2788 11.3932 14.3951 13.0018 12.5461 16.219C11.3794 18.2242 11.0932 20.4058 11.4674 22.6754C12.1939 27.0826 16.1561 30.5201 20.6907 30.6744C22.4517 30.7405 24.1247 30.3438 25.6876 29.4845C27.2284 28.6471 28.4391 27.4572 29.3637 25.9808C30.2442 24.5044 30.6624 22.8517 30.7284 21.0228Z" fill="#545AE8"/>
<path d="M22.6965 3.50484C22.5864 3.06412 22.5644 1.2572 22.6965 0.618164C26.8348 0.926664 30.5549 2.38102 33.7688 4.98123C38.3254 8.63915 40.8128 13.3989 41.3851 19.1722C40.8788 19.3485 39.0298 19.3705 38.4795 19.2383C36.9386 10.2478 31.6996 5.00326 22.6965 3.50484Z" fill="#139F7F"/>
<path d="M22.6502 9.21199C22.6062 8.24242 22.6062 7.31693 22.6502 6.28125C25.5559 6.54568 28.0873 7.62543 30.3106 9.41032C33.4364 11.9224 35.1974 15.2057 35.7477 19.2382C34.7131 19.3704 33.7445 19.3043 32.798 19.2823C31.6093 13.6852 28.2634 10.3358 22.6502 9.21199Z" fill="#139F7F"/>
<path d="M22.6523 19.2805C22.6523 16.8565 22.6523 14.4767 22.6523 12.1189C25.1398 11.4578 29.8945 16.1294 29.9385 19.2805C27.5391 19.2805 25.1398 19.2805 22.6523 19.2805Z" fill="#139F7F"/>
</g>
<defs>
<clipPath id="clip0_113_671">
<rect width="42" height="42" fill="white"/>
</clipPath>
</defs>
</svg>
