<svg width="57" height="68" viewBox="0 0 57 68" fill="none" xmlns="http://www.w3.org/2000/svg">
<g clip-path="url(#clip0_303_4556)">
<path d="M28.6559 62.3423C17.4428 54.8926 9.2595 45.3423 6.25801 32.0672C5.46516 28.5664 5.09705 25.0375 5.06874 21.4527C5.04042 18.344 5.06874 15.2632 5.06874 12.1545C5.06874 11.9305 5.09705 11.7064 5.12537 11.4263C6.56948 11.3423 8.0136 11.3983 9.42939 11.3143C16.027 10.8942 22.3415 9.46588 28.1179 6.13309C28.4011 5.96505 28.5993 5.93705 28.8825 6.10509C35.7349 10.082 43.2386 11.5104 51.0821 11.4543C51.337 11.4543 51.5918 11.4543 51.7617 11.4543C51.9599 11.6784 51.9316 11.9024 51.9316 12.0705C51.9033 16.0474 52.0166 20.0524 51.8184 24.0293C51.337 34.6158 47.5143 43.914 40.5486 51.9799C37.5471 55.4527 33.951 58.1973 30.3549 60.998C29.7886 61.4741 29.1656 61.9502 28.6559 62.3423Z" fill="#516FE9"/>
<path d="M37.1224 55.789C38.5099 54.5847 39.9257 53.1843 41.2282 51.644C42.5308 50.1316 43.7767 48.4792 44.8527 46.8269C47.7692 42.4298 49.9495 37.5287 51.1388 32.3754C51.7334 29.7988 52.1016 27.1942 52.2715 24.5336C52.4413 21.901 52.4413 19.2684 52.4413 16.6637V12.7428V12.2667V12.0147V11.9306V11.8186C52.4413 11.7346 52.413 11.6506 52.413 11.5946C52.3847 11.4545 52.2998 11.3145 52.2148 11.2025C52.1582 11.1465 52.1299 11.0904 52.0732 11.0344L51.875 10.9784C51.8184 10.9504 51.7334 10.9504 51.6485 10.9504H51.422H51.1671C50.5159 10.9504 49.8646 10.9504 49.2133 10.9224C47.9108 10.8944 46.6083 10.7824 45.3057 10.6703C44.0032 10.5303 42.7007 10.3623 41.4264 10.1102C40.1522 9.85815 38.878 9.57808 37.6321 9.214C37.0091 9.04596 36.3862 8.8219 35.7633 8.62586L34.8571 8.28978C34.5457 8.17775 34.2342 8.06573 33.951 7.92569C32.7334 7.44958 31.5725 6.88945 30.4115 6.2733L29.5621 5.79719L29.3355 5.68516L29.2223 5.62915C29.1656 5.60115 29.109 5.57314 29.0524 5.54513C28.9391 5.48912 28.7692 5.46111 28.6276 5.43311C28.4577 5.43311 28.3162 5.46111 28.1746 5.51713C28.0613 5.57314 27.948 5.62915 27.8631 5.65716L27.6366 5.76918L27.2118 5.99324C26.9287 6.16128 26.6455 6.30131 26.3624 6.44134C24.0688 7.64563 21.6053 8.54184 19.0852 9.214C16.565 9.88615 13.96 10.3063 11.3549 10.5583C10.7036 10.6143 10.0524 10.6703 9.4011 10.7264C8.74984 10.7544 8.09857 10.7824 7.4473 10.7824L6.45625 10.8104H5.94656L5.18203 10.9224H4.67234C4.64403 10.9224 4.61571 10.9224 4.61571 10.9224V10.9784V11.0904L4.58739 11.3425L4.53076 12.1267V13.1069V20.9768C4.53076 23.6094 4.70066 26.27 5.09708 28.8746C5.29529 30.1909 5.55014 31.4792 5.86161 32.7675L6.3713 34.7L6.96593 36.6044C7.81541 39.125 8.8631 41.5616 10.1373 43.8862C11.4115 46.2107 12.9123 48.4232 14.5829 50.4957C15.8855 52.1761 17.4428 53.8005 19.0002 55.3128C19.7931 56.041 20.5576 56.7692 21.3504 57.4133C21.7469 57.7494 22.115 58.0575 22.4831 58.3656C22.8512 58.6456 23.2193 58.9537 23.5874 59.2058C24.2953 59.7659 24.9749 60.242 25.5695 60.6621C25.881 60.8582 26.1641 61.0542 26.419 61.2502C26.7021 61.4183 26.9287 61.5863 27.1552 61.7264C28.0613 62.2865 28.5993 62.5385 28.5993 62.4545C28.6276 62.2305 26.8154 60.9142 24.182 58.7297C23.8422 58.4496 23.5024 58.1695 23.1627 57.8615C22.7945 57.5534 22.4548 57.2173 22.0866 56.9092C21.7185 56.5731 21.3221 56.2371 20.954 55.873C20.5859 55.5089 20.1895 55.1448 19.7931 54.7527C19.3966 54.3886 19.0285 53.9685 18.6321 53.5484C18.2357 53.1283 17.8393 52.7362 17.4428 52.2881C17.0464 51.84 16.65 51.3919 16.2536 50.9438C15.8855 50.4677 15.489 49.9916 15.1209 49.5155C14.8378 49.1794 14.6112 48.8433 14.3564 48.5072L13.5919 47.471C13.1105 46.7708 12.6574 46.0427 12.1761 45.3425C11.7513 44.6143 11.3266 43.8862 10.9018 43.13L10.3355 42.0097C10.1373 41.6176 9.93911 41.2535 9.76921 40.8614C8.55163 38.3128 7.6172 35.6522 6.93762 32.8796C6.2014 30.1349 5.80498 27.3063 5.63508 24.4216C5.55014 22.9932 5.52182 21.5369 5.52182 20.0806C5.52182 18.6242 5.52182 17.1399 5.52182 15.6555C5.52182 14.9273 5.52182 14.1712 5.52182 13.443C5.52182 12.7708 5.4935 11.6506 5.57845 11.9026H5.97488H6.54119C6.9093 11.9026 7.30572 11.9026 7.67383 11.8746C8.43836 11.8746 9.23121 11.8466 9.99574 11.7626C13.0539 11.4825 16.1686 11.0344 19.2551 10.2222C22.3415 9.41004 25.3713 8.20576 28.2312 6.55337C28.4294 6.44134 28.486 6.41334 28.5144 6.41334C28.5427 6.41334 28.571 6.44134 28.6276 6.46935L28.8825 6.60938C29.2506 6.80543 29.6187 7.00147 29.9585 7.19752C30.3266 7.39357 30.6947 7.56161 31.0628 7.75765C31.4309 7.9537 31.8273 8.09373 32.1954 8.28978C33.7245 8.96194 35.3385 9.55007 36.9525 10.0262C40.2372 11.0064 43.72 11.5385 47.2595 11.7346C48.109 11.7906 48.9868 11.8186 49.8646 11.8186C50.3176 11.8186 50.7424 11.8186 51.1954 11.8186H51.3653C51.3937 11.8186 51.422 11.8186 51.422 11.8466C51.422 11.8746 51.422 11.9026 51.422 11.9026V12.2107C51.422 14.0311 51.422 15.9076 51.422 17.84C51.422 19.7725 51.3937 21.7609 51.3087 23.8054C51.1954 25.8219 50.9972 27.8944 50.6291 29.9949C49.8929 34.1679 48.5054 38.3689 46.4384 42.3178C45.419 44.3063 44.2297 46.2107 42.8989 48.0591C42.5874 48.5353 42.2193 48.9834 41.8795 49.4315L41.3698 50.1036L40.8318 50.7478C40.1239 51.644 39.3594 52.4842 38.5665 53.2964C36.5561 55.3409 34.1209 57.3573 32.1388 58.9537C30.1567 60.5501 28.6843 61.7824 28.4861 62.1185C28.3445 62.3705 29.5904 61.5023 31.3176 60.242C33.1299 59.0097 35.3668 57.3013 37.1224 55.789Z" fill="#516FE9"/>
<path d="M19.7646 27.2505V44.6706H37.3488V27.2505H19.7646ZM29.6469 36.6047C29.8168 37.6409 29.9584 38.6772 30.1 39.8254H26.9852C27.1268 38.7052 27.2401 37.6409 27.3816 36.5767C27.4383 36.1846 27.3816 35.9325 27.0702 35.6245C26.2207 34.7563 26.249 33.496 27.0702 32.7118C27.863 31.9556 29.0806 31.9556 29.9018 32.6838C30.7512 33.4679 30.8079 34.7282 29.9584 35.5965C29.6186 35.9045 29.5903 36.1846 29.6469 36.6047Z" fill="#516FE9"/>
<path d="M30.2698 35.5124C30.6379 35.1483 30.8928 34.5321 30.8645 33.944C30.8361 33.1598 30.3831 32.4036 29.6752 31.9835C29.3354 31.7875 28.9107 31.6755 28.4859 31.6475C28.0612 31.6475 27.6364 31.7315 27.2683 31.9275C26.5321 32.3196 25.9941 33.0758 25.9092 33.944C25.8809 34.3641 25.9658 34.8122 26.1357 35.1763C26.2207 35.3723 26.3339 35.5404 26.4755 35.7084C26.5321 35.7924 26.6171 35.8765 26.6737 35.9325C26.7303 35.9885 26.7587 36.0165 26.787 36.0725C26.8436 36.1565 26.8436 36.1845 26.8436 36.2685C26.8436 36.2966 26.8436 36.3526 26.8436 36.4366L26.8153 36.6886L26.702 37.6969L26.3905 40.2455V40.3015V40.3295H26.4189H26.4472H26.5604H26.8153H27.325H27.9762H28.9956H30.4964H30.6096H30.6663H30.6946V40.3015L30.6663 40.0494L30.6096 39.5453L30.4964 38.8452C30.3548 37.7809 30.0716 36.4926 29.7035 36.5766C29.3637 36.6606 29.3071 37.8089 29.4487 39.0412L29.477 39.2092V39.2372V39.2653C29.477 39.2653 29.477 39.2653 29.4487 39.2653H29.3071H29.0239L28.4576 39.2933C28.2594 39.2933 28.0895 39.2933 27.8913 39.2933H27.6081H27.5515C27.5232 39.2933 27.5515 39.2933 27.5232 39.2933H27.4949H27.4382H27.4099V39.2653V39.2092V39.1812L27.4382 39.0412C27.4949 38.6771 27.5232 38.285 27.5798 37.8929C27.6364 37.5008 27.6648 37.1087 27.7214 36.7167L27.7497 36.4086C27.7497 36.2966 27.778 36.1565 27.7497 35.9885C27.7214 35.8484 27.6648 35.6804 27.6081 35.5404C27.5232 35.4003 27.4382 35.3163 27.3533 35.2043C27.0984 34.9522 26.9285 34.6722 26.8436 34.3361C26.787 34 26.8153 33.6359 26.9569 33.3279C27.1268 33.0198 27.4099 32.7397 27.778 32.5997C28.1461 32.4316 28.5992 32.4316 28.9956 32.5717C29.392 32.7117 29.7318 33.0478 29.9017 33.4679C30.0716 33.888 30.0433 34.3641 29.8168 34.7562C29.7601 34.8682 29.6469 35.0083 29.5619 35.1203C29.4204 35.2603 29.2505 35.5124 29.1938 35.7364C29.1372 35.9885 29.1655 36.1845 29.2221 36.3246C29.2788 36.4646 29.3354 36.5206 29.4204 36.5486C29.5619 36.5766 29.5619 36.3526 29.6469 36.1005C29.7035 35.9885 29.7601 35.8484 29.8734 35.7644C29.93 35.7084 29.9867 35.6804 30.0433 35.6244C30.1566 35.6244 30.2132 35.5684 30.2698 35.5124Z" fill="white"/>
<path d="M24.2668 27.4464C25.8242 27.5024 27.5798 27.5305 29.2504 27.5585L36.924 27.6705V27.7825V28.3146V29.4069L36.8957 31.5914L36.8674 35.9604L36.8391 44.1384C31.3175 44.1384 25.8242 44.1384 20.3026 44.1384V34.8682C20.3026 31.3393 20.2176 27.1384 19.8495 27.2224C19.5097 27.3064 19.2832 30.9473 19.2549 35.0642C19.2549 36.4926 19.2549 37.9489 19.2549 39.3772C19.2549 40.2454 19.2832 41.1136 19.2832 42.0099C19.2832 43.0461 19.3115 44.0823 19.3115 45.1186C22.2564 45.1186 25.2295 45.0906 28.2877 45.0906C31.3458 45.0906 34.4889 45.0906 37.8018 45.0906C37.8018 42.3179 37.7735 39.4052 37.7735 36.3805C37.7735 33.8039 37.8018 30.8352 37.8018 26.7743C34.4889 26.7743 29.9583 26.7463 25.4278 26.7183C22.9926 26.7183 20.076 26.7463 19.7646 27.0263C19.538 27.3064 22.313 27.3624 24.2668 27.4464Z" fill="white"/>
<path d="M35.7629 26.466C34.9417 26.466 34.1772 26.466 33.3277 26.466C33.3277 25.6539 33.3277 24.8697 33.3277 24.1135C33.2994 21.4249 31.1757 19.3244 28.514 19.3244C25.824 19.3244 23.7286 21.4249 23.7003 24.1135C23.7003 24.8977 23.7003 25.6539 23.7003 26.466C22.8508 26.466 22.1146 26.466 21.3501 26.466C20.6988 22.181 22.3128 18.8483 25.9656 17.4199C30.4678 15.6835 35.4231 18.8483 35.7629 23.6374C35.8195 24.5616 35.7629 25.4858 35.7629 26.466Z" fill="#516FE9"/>
<path d="M35.8762 23.1332C35.7912 21.9569 35.3098 20.6686 34.5453 19.6323C34.0356 18.9602 33.441 18.344 32.7048 17.8399C31.9969 17.3638 31.204 16.9717 30.3545 16.7477C30.1563 16.6917 29.9298 16.6636 29.7316 16.6076L29.4201 16.5516C29.3069 16.5236 29.1936 16.5236 29.0803 16.5236C28.8538 16.5236 28.6556 16.4956 28.4291 16.4956L27.8061 16.5236C26.9283 16.6076 26.0788 16.8317 25.286 17.1958C24.4931 17.5599 23.7569 18.036 23.1057 18.6241C22.4544 19.2122 21.9447 19.9404 21.5483 20.7246C20.7554 22.293 20.6139 24.0854 20.7554 25.7658L20.8687 26.718L20.897 26.858C20.897 26.9141 20.897 26.9701 20.9537 26.9701H21.2368H21.8314H23.0773H24.2383V25.8218V24.5895C24.2383 24.3935 24.2383 24.1694 24.2383 24.0014C24.2666 23.8333 24.2383 23.6373 24.2949 23.4692L24.3233 23.1892L24.3799 22.9371C24.4082 22.7691 24.4931 22.601 24.5498 22.433C24.8329 21.7608 25.286 21.1727 25.8523 20.7246C26.1355 20.5005 26.4469 20.3325 26.7867 20.1645C27.1265 20.0244 27.4663 19.9124 27.8344 19.8844C28.2025 19.8284 28.5706 19.8284 28.9387 19.8564C29.3069 19.9124 29.675 19.9684 30.0148 20.1085C30.6943 20.3605 31.3173 20.8086 31.7987 21.3407C32.2517 21.9009 32.5915 22.573 32.7331 23.3012C32.7614 23.4412 32.7897 23.5813 32.7897 23.7493C32.7897 23.8893 32.818 24.0294 32.818 24.1974C32.818 24.5335 32.818 24.8696 32.8463 25.2057C32.8463 25.5977 32.8747 25.9898 32.8747 26.3539C32.8747 26.494 32.8747 26.634 32.8747 26.774V26.886C32.8747 26.9141 32.8747 26.9141 32.8747 26.9421H32.9313C33.0162 26.9421 33.0729 26.9421 33.1578 26.9421C33.4127 26.9421 33.6675 26.9141 33.9224 26.9141C35.0267 26.858 35.8195 26.746 35.7629 26.55C35.7346 26.3819 35.0267 26.2419 33.9507 26.1299C33.9224 26.1299 33.8657 26.1299 33.8657 26.1299H33.8374L33.7808 26.1019C33.7808 26.1019 33.7525 26.1019 33.7525 26.0739L33.7808 26.0178L33.8091 25.9618C33.8091 25.9618 33.8091 25.9058 33.8091 25.8778V25.7658C33.8091 25.5977 33.8374 25.4297 33.8374 25.2617C33.8374 24.9256 33.8657 24.5615 33.8657 24.1974C33.8657 24.0014 33.8657 23.8053 33.8374 23.5813C33.8091 23.3852 33.7808 23.1612 33.7525 22.9651C33.5259 21.8169 32.8463 20.7246 31.9119 19.9964C30.3545 18.7641 28.1176 18.5401 26.3054 19.3803C25.8523 19.5763 25.4276 19.8844 25.0595 20.1925C24.6914 20.5286 24.3516 20.9206 24.0967 21.3407C23.5587 22.1809 23.3039 23.2172 23.3039 24.2254C23.3039 24.7015 23.3039 25.1776 23.3039 25.6538C23.3039 25.7938 23.3039 25.9058 23.3039 26.0459C23.3039 26.0739 23.2756 26.0739 23.2472 26.0739H23.1057C22.6809 26.0739 22.2562 26.0739 21.8031 26.0739C21.7748 26.0739 21.7465 26.0739 21.7465 26.0459V25.9618C21.7182 25.7098 21.6899 25.4857 21.6899 25.2337C21.6332 24.2814 21.7182 23.2732 21.973 22.321C22.2279 21.3688 22.7092 20.4725 23.3888 19.6884C24.0401 18.9602 24.9462 18.344 26.0222 17.8959C26.2771 17.7839 26.5602 17.7279 26.8434 17.6159C27.1265 17.5318 27.438 17.5038 27.7212 17.4478C28.0326 17.4198 28.3158 17.3918 28.6273 17.3918C28.7689 17.3918 28.9387 17.4198 29.0803 17.4198L29.3069 17.4478L29.5334 17.5038C30.7793 17.6999 31.9969 18.232 32.9879 19.1282L33.356 19.4643L33.6675 19.8284L33.8374 20.0244C33.894 20.0804 33.9224 20.1645 33.979 20.2205L34.2621 20.6406C34.6019 21.2007 34.8851 21.8169 35.0267 22.461C35.1399 22.8531 35.1683 23.3012 35.2532 23.7213C35.2815 24.1694 35.3098 24.5895 35.3098 24.9816C35.3382 25.7658 35.3948 26.3539 35.5364 26.466C35.6496 26.55 35.7346 26.0739 35.8195 25.4297C35.9045 24.7295 35.9611 23.8613 35.8762 23.1332Z" fill="white"/>
<path d="M38.7645 59.9341C40.4069 58.4778 42.1058 56.8254 43.6349 55.0049C45.1923 53.1845 46.6647 51.2241 47.9672 49.2636C51.4501 44.0264 54.0268 38.173 55.4426 32.0115C56.1505 28.9588 56.6036 25.8221 56.7735 22.6853C56.9717 19.5486 56.9717 16.4119 56.9717 13.3031V8.62603V8.03789V7.75783C56.9717 7.6458 56.9717 7.53377 56.9434 7.33773C56.9151 7.14168 56.8301 6.97364 56.7168 6.83361C56.6602 6.77759 56.6036 6.69358 56.5469 6.63756L56.2921 6.60956H55.5276C54.7347 6.60956 53.9702 6.60956 53.1773 6.58155C51.62 6.55354 50.0343 6.44152 48.4769 6.27348C46.9195 6.10544 45.3621 5.88138 43.8331 5.60132C42.304 5.29325 40.775 4.95717 39.2742 4.50906C38.5097 4.31301 37.7735 4.03295 37.0373 3.8089L35.9613 3.36079L35.4232 3.16474L34.8852 2.94069C33.4411 2.38056 32.0253 1.6804 30.6379 0.980231L29.6185 0.420099L29.3636 0.280066L29.2221 0.196046C29.1654 0.16804 29.1088 0.140033 29.0238 0.112026C28.8823 0.0560132 28.7124 0 28.5425 0C28.3726 0 28.1744 0.0280066 28.0611 0.0840198C27.9195 0.140033 27.8063 0.196046 27.7213 0.252059L27.4665 0.392092L26.9568 0.672158C26.617 0.868204 26.2772 1.03624 25.9374 1.23229C23.1624 2.66063 20.2459 3.75288 17.2161 4.56507C14.1863 5.34926 11.0999 5.88138 7.95678 6.16145C7.16393 6.24547 6.3994 6.30148 5.60656 6.3575C4.84203 6.41351 4.04918 6.41351 3.25633 6.44152H2.09538L1.50075 6.46952L0.764531 6.49753L0.169896 6.52554C0.14158 6.52554 0.113264 6.52554 0.113264 6.55354V6.63756V6.7776L0.0849478 7.05766L0 7.86985V9.04613V18.4283C0 21.5651 0.198212 24.7298 0.679583 27.8386C0.934426 29.4069 1.21759 30.9473 1.61401 32.4876L2.20864 34.7842L2.91654 37.0527C3.93592 40.0494 5.18182 42.9621 6.71088 45.7348C8.23994 48.5074 10.0238 51.14 12.006 53.6046C13.5633 55.6211 15.4322 57.5535 17.2444 59.346C18.1788 60.2142 19.0849 61.0824 20.0194 61.8666C20.4724 62.2586 20.9255 62.6507 21.3785 63.0148C21.8316 63.3789 22.2563 63.715 22.6811 64.0231C23.5306 64.6952 24.3234 65.2554 25.0596 65.7595C25.4277 66.0115 25.7675 66.2356 26.079 66.4596C26.3905 66.6557 26.7019 66.8517 26.9568 67.0198C28.0328 67.6919 28.6557 68.028 28.6557 67.916C28.6841 67.6919 26.4754 66.1236 23.304 63.5189C22.9076 63.1829 22.5112 62.8468 22.0864 62.4827C21.6617 62.1186 21.237 61.7265 20.7839 61.3344C20.3592 60.9423 19.8778 60.5502 19.4247 60.1021C18.9717 59.654 18.5186 59.2339 18.0373 58.7578C17.5559 58.3097 17.1028 57.8056 16.6215 57.3295C16.1401 56.8254 15.6587 56.3493 15.2057 55.8171C14.7526 55.285 14.2712 54.7529 13.7899 54.2208C13.3368 53.6606 12.8838 53.1005 12.4307 52.5404C12.0909 52.1483 11.8077 51.7282 11.4963 51.3081L10.5902 50.0758C10.4486 49.8797 10.307 49.6557 10.1654 49.4316L9.74069 48.7875L8.91952 47.4992C8.40984 46.631 7.90015 45.7348 7.39046 44.8666L6.71088 43.5222C6.48435 43.0741 6.22951 42.626 6.0313 42.1499C4.58718 39.0972 3.48286 35.9044 2.63338 32.5997C1.75559 29.3229 1.27422 25.9341 1.07601 22.4893C0.991058 20.7809 0.962742 19.0445 0.991058 17.3081C0.991058 15.5717 0.991058 13.8072 0.991058 12.0428C0.991058 11.1466 0.991058 10.2784 0.991058 9.38221C0.991058 8.9341 0.991058 8.486 0.991058 8.03789C0.991058 7.92586 0.991058 7.81384 0.991058 7.70181L1.01937 7.47776V7.42175C1.01937 7.42175 1.04769 7.42175 1.07601 7.42175L1.61401 7.39374H2.26528C2.71833 7.39374 3.17139 7.39374 3.62444 7.36573C4.53055 7.36573 5.46498 7.33773 6.37109 7.25371C10.0522 7.00165 13.7616 6.46952 17.4426 5.48929C21.1237 4.53707 24.7481 3.08072 28.1461 1.12026C28.3726 0.980231 28.4858 0.952224 28.5425 0.952224C28.5708 0.952224 28.6557 0.980231 28.7124 1.00824L29.0238 1.17628C29.4486 1.40033 29.9016 1.65239 30.3264 1.87644C30.7794 2.10049 31.2042 2.32455 31.6572 2.5486C32.1103 2.77265 32.5633 2.9687 33.0164 3.16474C34.8569 3.97694 36.7541 4.6771 38.7079 5.23723C42.6155 6.41351 46.7496 7.05766 50.997 7.28171C52.0164 7.33773 53.0358 7.36573 54.1118 7.39374C54.6498 7.39374 55.1878 7.39374 55.7258 7.39374H56.0089H56.0373L56.0656 7.42175V7.44975V7.47776C56.0656 7.50577 56.0656 7.53377 56.0656 7.56178V7.95387C56.0373 10.1104 56.0656 12.3789 56.0656 14.6755C56.0656 17 56.0373 19.3806 55.924 21.7891C55.8107 24.2257 55.5559 26.6903 55.1028 29.1829C54.225 34.168 52.5544 39.1812 50.0909 43.9423C48.8733 46.3229 47.4292 48.6194 45.8435 50.804C45.4471 51.3641 45.0224 51.8962 44.6259 52.4283L44.003 53.2405L43.3517 54.0247C42.5022 55.089 41.5961 56.0972 40.6334 57.0494C39.4441 58.2817 38.1133 59.486 36.7824 60.6343C35.4516 61.7825 34.1207 62.8468 32.9598 63.799C30.5812 65.7035 28.8256 67.1598 28.5708 67.5239C28.3726 67.832 29.845 66.7677 31.9404 65.2273C34.0358 63.827 36.6975 61.7825 38.7645 59.9341Z" fill="#516FE9"/>
</g>
<defs>
<clipPath id="clip0_303_4556">
<rect width="57" height="68" fill="white"/>
</clipPath>
</defs>
</svg>
