<svg width="76" height="48" viewBox="0 0 76 48" fill="none" xmlns="http://www.w3.org/2000/svg">
<g clip-path="url(#clip0_303_4469)">
<path d="M37.9859 47.2401C30.7276 47.2401 23.4976 47.2401 16.2393 47.2401C13.2456 47.2401 10.4214 46.5926 7.82311 45.0724C4.547 43.158 2.06168 40.568 1.12969 36.7955C0.536598 34.4026 0.677809 31.9814 1.49684 29.6448C2.68301 26.3509 4.65997 23.6483 7.59717 21.6776C8.33147 21.199 9.09401 20.8049 9.91304 20.4952C10.2237 20.3826 10.4496 20.2137 10.4214 19.8196C10.3649 17.2014 10.9298 14.724 11.9465 12.331C13.867 7.93921 17.0019 4.70168 21.3229 2.61839C23.667 1.49229 26.1524 0.872939 28.7789 0.788482C31.9703 0.704024 34.9922 1.26707 37.8729 2.6747C41.6856 4.56092 44.5663 7.40432 46.515 11.1768C46.9104 11.9369 46.9104 11.9369 47.6165 11.5146C51.0621 9.4876 55.9197 10.0788 58.8004 12.8377C60.5797 14.5269 61.7094 16.5539 61.9071 19.0031C61.9353 19.3691 62.1048 19.5943 62.5284 19.6788C68.7135 20.8612 72.8369 24.521 74.7856 30.4049C76.2542 34.8811 75.1527 38.9633 71.8201 42.3697C69.2783 44.9879 66.1717 46.4518 62.6131 47.0712C61.7376 47.2119 60.8339 47.2401 59.9584 47.2401C52.6154 47.2401 45.3006 47.2401 37.9859 47.2401Z" fill="#FFB501"/>
<path d="M32.3941 29.8138C32.4224 28.6313 32.3941 27.3082 32.5071 26.0413C32.5353 25.619 32.5918 25.2249 32.6483 24.8026V24.7463V24.7181L32.6766 24.6618C32.6766 24.6337 32.7048 24.6055 32.733 24.5774C32.7895 24.5211 32.846 24.4929 32.9307 24.5211C32.9872 24.5492 33.0437 24.5774 33.1002 24.6337C33.2132 24.7463 33.3544 24.8589 33.4956 25.0278C33.8063 25.3657 34.1734 25.6753 34.597 25.9287C35.4161 26.4355 36.4045 26.7451 37.4213 26.6325C37.9296 26.5762 38.438 26.4355 38.8899 26.2102C39.37 25.985 39.7654 25.619 40.1043 25.2249C40.7539 24.4085 41.008 23.395 41.121 22.4941C41.2057 21.5651 41.1775 20.6642 41.0928 19.7915C41.008 18.9187 40.8386 17.9897 40.4432 17.0888C40.2455 16.6384 39.9913 16.2161 39.6524 15.822C39.3135 15.4278 38.9181 15.09 38.4662 14.8366C38.0144 14.5833 37.506 14.3862 36.9694 14.3299C36.4328 14.2736 35.8397 14.3017 35.3031 14.5269C34.7665 14.724 34.3429 15.0618 34.0039 15.3997C33.8345 15.5686 33.665 15.7375 33.5238 15.9064L33.2979 16.1598L33.072 16.4132C32.9307 16.6102 32.7895 16.7791 32.6766 16.9481L32.6483 17.0044L32.6766 7.48882C32.7048 4.75803 32.5636 1.49234 32.027 1.5768C31.5186 1.63311 31.1515 4.44835 31.1232 7.62959C31.095 8.75569 31.095 9.85363 31.1232 10.9797C31.1797 12.8096 31.1797 14.6677 31.208 16.5539C31.208 17.2859 31.208 18.046 31.208 18.778C31.208 18.975 31.208 19.2284 31.208 19.4255L31.2362 19.9885C31.2644 20.3545 31.2644 20.7486 31.2927 21.1146V21.2554C31.2927 21.2835 31.2927 21.3117 31.2927 21.3117L31.3492 21.2554L31.5469 21.0302L31.914 20.5797C32.14 20.2701 32.3941 19.9604 32.6201 19.6507C32.8743 19.341 33.1284 18.9469 33.3826 18.5809C33.6086 18.2712 33.8063 17.9616 34.0322 17.6519L34.2299 17.3703L34.3429 17.2296L34.4558 17.0888C34.597 16.8918 34.7665 16.7228 34.9077 16.5539C35.2184 16.2161 35.529 15.9627 35.8962 15.822C36.574 15.5404 37.4495 15.7657 38.1556 16.3006C38.8334 16.8355 39.2853 17.68 39.5112 18.6372C39.6242 19.1158 39.7089 19.6225 39.7654 20.1574C39.8219 20.6923 39.8501 21.2272 39.8501 21.7621C39.8219 22.7475 39.5959 23.8736 38.8899 24.5492C38.551 24.8871 38.0708 25.1123 37.5342 25.1967C36.9976 25.2812 36.4328 25.2249 35.8962 24.9997C35.6138 24.8871 35.3596 24.7463 35.1336 24.5774C35.0207 24.4929 34.8795 24.4085 34.7665 24.2959C34.71 24.2396 34.6535 24.1833 34.597 24.1269L34.4276 23.958C34.3711 23.8736 34.2864 23.8173 34.2016 23.7328C34.1734 23.7047 34.1169 23.6484 34.0887 23.6202C34.0322 23.5921 34.0039 23.5639 33.9475 23.5076C33.665 23.3105 33.3544 23.1416 33.0437 23.1416C32.733 23.1135 32.3941 23.2261 32.14 23.395C31.8858 23.592 31.7163 23.9017 31.6316 24.2396C31.5469 24.6337 31.5469 24.7463 31.5186 24.9434C31.4904 25.1404 31.4904 25.3094 31.4621 25.5064C31.4339 25.8724 31.4057 26.2665 31.4057 26.6325C31.3774 27.3926 31.4057 28.1528 31.4339 28.8847C31.4621 29.8137 31.5469 30.8554 31.6316 31.6718C31.7446 32.4882 31.8575 33.0794 32.0552 33.192C32.2247 33.2765 32.3377 32.7979 32.4224 32.0941C32.3659 31.4466 32.3659 30.5457 32.3941 29.8138Z" fill="white"/>
<path d="M36.4888 33.6989C37.1949 33.7271 37.9574 33.7271 38.72 33.7552C39.1154 33.7834 39.4825 33.7834 39.8779 33.8116C40.0756 33.8397 40.2733 33.8397 40.4428 33.8679L40.7252 33.896L40.8664 33.9242C40.8946 33.9242 40.9229 33.9242 40.9229 33.9523C41.0358 33.9805 41.1206 34.0368 41.1488 34.1212C41.1771 34.2057 41.1488 34.3183 41.0923 34.4028L41.0358 34.4591C41.0076 34.4872 40.9794 34.5435 40.9229 34.5717C40.8381 34.6561 40.7534 34.7406 40.6687 34.825C40.471 35.0221 40.2733 35.2192 40.0756 35.4444C39.7085 35.8948 39.426 36.4016 39.2283 36.9365C39.0306 37.4995 38.9459 38.0907 39.0024 38.6819C39.0589 39.2731 39.2283 39.8643 39.5672 40.3992C39.9062 40.9341 40.358 41.3564 40.8946 41.6661C41.4312 41.9758 41.9961 42.1447 42.5609 42.2573C43.1258 42.3699 43.6624 42.3981 44.2272 42.3981C44.7638 42.3981 45.3004 42.3699 45.837 42.3136C46.3736 42.2573 46.9102 42.1728 47.4751 42.0321C48.0117 41.8913 48.5765 41.6943 49.0849 41.3846C49.2261 41.3283 49.3391 41.2157 49.452 41.1594C49.565 41.0749 49.7062 40.9904 49.8192 40.8778C50.0451 40.6808 50.2711 40.4555 50.4405 40.2022C50.8077 39.7236 51.0901 39.1605 51.2313 38.513C51.2878 38.2033 51.316 37.8655 51.316 37.5277C51.2878 37.1899 51.2031 36.852 51.0901 36.5423C50.8359 35.923 50.4123 35.4444 49.9886 35.0503C49.791 34.8532 49.565 34.6843 49.3673 34.5154L49.1979 34.3746L49.0284 34.2338L48.6895 34.0086L48.5765 33.9242H48.746H49.5085H55.6653L67.9507 33.9523C71.2551 33.9805 75.1808 33.8397 75.096 33.3048C75.0113 32.7981 71.6222 32.4321 67.7813 32.4039C66.4257 32.3758 65.0983 32.3758 63.7426 32.4039C59.2804 32.4884 54.7898 32.5165 50.0451 32.4884C49.3673 32.4884 48.6895 32.4884 47.9834 32.4884C47.4468 32.4884 46.882 32.4884 46.3171 32.4884C45.8088 32.5165 45.3569 32.5447 44.8768 32.5447L44.5096 32.5728H44.3402C44.3119 32.5728 44.2837 32.5728 44.2555 32.5728L44.3402 32.6291L44.9333 33.0796C45.3004 33.3611 45.6958 33.6708 46.1195 33.9805C46.5713 34.2901 47.0514 34.628 47.5033 34.9377L47.9834 35.2755C48.0964 35.3599 48.2376 35.4444 48.3224 35.5289C48.8025 35.923 49.2543 36.289 49.5368 36.7113C49.8192 37.1335 49.9039 37.584 49.8192 38.0907C49.7345 38.5975 49.4803 39.1042 49.0849 39.5265C48.8872 39.7236 48.6895 39.9206 48.4353 40.0614C48.1811 40.2303 47.927 40.3429 47.6445 40.4555C47.1079 40.6526 46.4866 40.7934 45.8088 40.8778C45.131 40.9623 44.3967 40.9904 43.7189 40.9623C43.0128 40.9341 42.3067 40.8215 41.7137 40.54C41.1206 40.2585 40.6687 39.7799 40.4428 39.1605C40.3298 38.8509 40.2733 38.513 40.2733 38.1752C40.2733 37.8374 40.358 37.4995 40.471 37.1617C40.584 36.8239 40.7817 36.5142 41.0076 36.2045C41.1206 36.0638 41.2335 35.923 41.3747 35.7822C41.4877 35.6696 41.6854 35.4725 41.8549 35.2755L41.9114 35.191L41.9961 35.0784C42.0526 34.994 42.109 34.9095 42.1655 34.825C42.2785 34.6561 42.335 34.4591 42.3632 34.262C42.4197 33.8679 42.2785 33.4737 41.9961 33.1922C41.8549 33.0514 41.6854 32.9388 41.4877 32.8544C41.403 32.8262 41.29 32.7981 41.1771 32.7699C41.0923 32.7418 40.9511 32.7136 40.8946 32.7136C40.6405 32.6855 40.4145 32.6573 40.1886 32.6573C39.2566 32.5728 38.3528 32.5728 37.4208 32.601C36.2629 32.6291 35.0202 32.7136 34.06 32.8262C33.0715 32.9388 32.3655 33.0514 32.2242 33.2767C32.1113 33.4456 32.7044 33.5582 33.5516 33.6145C34.4836 33.6989 35.5851 33.6989 36.4888 33.6989Z" fill="white"/>
<path d="M4.68831 33.6707C5.84624 33.7833 7.17363 33.8396 8.41629 33.924C9.88489 34.0085 11.3535 34.0929 12.8221 34.1211C13.5564 34.1493 14.2907 34.1493 15.0532 34.1211C15.4204 34.1211 15.8158 34.0929 16.2112 34.0648C16.2676 34.0648 16.3524 34.0366 16.4371 34.0366C16.5218 34.0085 16.6066 34.0085 16.6913 33.9803C16.8607 33.924 17.0019 33.8677 17.1432 33.7833C17.3973 33.6144 17.595 33.3328 17.6798 33.0232C17.7645 32.7135 17.6798 32.3756 17.5385 32.066C17.5103 31.9815 17.4538 31.9252 17.3973 31.8407C17.3691 31.8126 17.3409 31.7563 17.3126 31.7281L17.2561 31.6437C17.1714 31.5592 17.1149 31.4748 17.0302 31.3903C16.9455 31.3059 16.889 31.2495 16.8042 31.1651C16.7478 31.1088 16.6913 31.0525 16.6348 30.9962C16.5218 30.8836 16.4371 30.771 16.3241 30.6302C15.957 30.1234 15.7028 29.5604 15.6463 28.9692C15.5898 28.4061 15.7028 27.7868 15.9852 27.3364C16.2676 26.8578 16.6913 26.5199 17.2561 26.2947C17.821 26.0695 18.4705 25.985 19.1484 25.985C19.4873 25.985 19.8262 25.985 20.1933 26.0132C20.5605 26.0413 20.8994 26.0695 21.2383 26.1258C22.5939 26.2947 23.8648 26.7451 24.5426 27.7023C24.8815 28.1809 25.0792 28.744 25.0228 29.2507C24.9945 29.5041 24.938 29.7293 24.7968 29.9545C24.6556 30.1798 24.4579 30.405 24.232 30.6302C24.119 30.7428 23.9778 30.8554 23.8648 30.968C23.7236 31.0806 23.5824 31.1932 23.4694 31.3059C23.3282 31.4185 23.187 31.5029 23.0458 31.6155L22.2268 32.1786C21.9161 32.3756 21.6337 32.6009 21.3513 32.7979C21.0688 32.995 20.8147 33.1921 20.5605 33.3891L19.0919 34.5434H23.7236L26.1524 34.5152C28.8355 34.4871 32.0268 34.3463 31.9421 33.8114C31.8856 33.3047 29.0896 32.9387 25.983 32.9668H24.3449H23.9495H23.8648H23.8366C23.8083 32.9668 23.7801 32.995 23.7236 32.995C23.6671 32.995 23.7236 32.9387 23.8083 32.8824L24.2885 32.5164C24.3732 32.4601 24.4862 32.3475 24.5709 32.2912L24.8251 32.066C25.164 31.7563 25.5311 31.4466 25.8418 31.0243C26.1524 30.602 26.4066 30.0671 26.4631 29.5041C26.5478 28.941 26.4631 28.378 26.2654 27.8994C26.096 27.3927 25.8135 26.9422 25.4746 26.5481C25.3052 26.351 25.1075 26.1539 24.9098 25.985C24.6838 25.8161 24.4862 25.6754 24.2602 25.5346C23.3565 25.0278 22.3397 24.7745 21.3795 24.6619C20.8994 24.6056 20.4193 24.5493 19.9109 24.5493C19.4025 24.5211 18.8942 24.5211 18.3858 24.5774C17.8492 24.6337 17.3126 24.7463 16.8042 24.9434C16.2676 25.1405 15.7593 25.4783 15.3357 25.9287C14.912 26.3792 14.6014 26.9422 14.4601 27.5053C14.2907 28.0965 14.2907 28.7158 14.3754 29.307C14.4884 29.9264 14.7143 30.5176 15.0532 31.0806C15.2227 31.3622 15.4204 31.6155 15.6463 31.8689C15.7028 31.9252 15.7593 31.9815 15.8158 32.066L15.9852 32.2349C16.07 32.3193 16.1547 32.432 16.2394 32.5164C16.2676 32.5727 16.2959 32.629 16.2676 32.6572C16.2676 32.6853 16.2394 32.6853 16.2112 32.7135H16.1829H16.0982C15.5051 32.7698 14.8273 32.7979 14.1777 32.7979C11.4947 32.8261 8.5575 32.7135 5.64855 32.629C3.8128 32.5727 1.6099 32.5446 1.38396 32.9668C1.12978 33.3328 3.21971 33.5017 4.68831 33.6707Z" fill="white"/>
</g>
<defs>
<clipPath id="clip0_303_4469">
<rect width="76" height="48" fill="white"/>
</clipPath>
</defs>
</svg>
