<svg width="56" height="56" viewBox="0 0 56 56" fill="none" xmlns="http://www.w3.org/2000/svg">
<g clip-path="url(#clip0_303_4519)">
<path d="M40.9727 28.0294C45.7568 28.0294 50.4235 28.0294 55.1488 28.0294C55.1488 29.5278 55.1488 30.9381 55.1488 32.4953C54.2096 32.4953 53.3291 32.4659 52.4486 32.4953C48.545 32.6128 45.9329 36.3735 47.1949 40.0461C47.4591 40.81 47.87 41.4858 48.4276 42.0147C49.0733 42.6317 49.7778 43.2487 50.3648 43.8069C48.1341 46.0398 46.0503 48.1553 43.849 50.3588C43.3794 49.83 42.8218 49.2424 42.2641 48.6547C40.5031 46.8625 38.2138 46.3924 35.9832 47.3326C33.8113 48.2434 32.5786 50.1238 32.5492 52.5918C32.5492 53.4145 32.5492 54.2665 32.5492 55.1479C29.4968 55.1479 26.5618 55.1479 23.5388 55.1479C23.3627 54.2371 23.4801 53.3557 23.4507 52.4743C23.392 49.6831 21.631 47.5089 18.9014 46.98C17.0524 46.5981 15.3794 47.0682 14 48.3903C13.3249 49.0367 12.7379 49.7712 12.1509 50.4176C9.92031 48.1847 7.8071 46.0986 5.69389 43.9538C6.1635 43.3074 6.8092 42.7786 7.3962 42.191C9.12786 40.4281 9.59746 38.2245 8.68761 35.9622C7.8071 33.788 5.84065 32.4659 3.37524 32.4365C2.55343 32.4365 1.70228 32.5246 0.821777 32.3777C0.821777 29.4103 0.821777 26.4722 0.821777 23.4753C1.76098 23.3284 2.67083 23.4166 3.58069 23.4166C5.87 23.3872 7.83645 22.065 8.68761 19.8615C9.56811 17.6285 9.15721 15.6306 7.54295 13.8678C7.07335 13.3683 6.5744 12.8982 6.1048 12.3987C5.95805 12.2518 5.7526 12.1049 5.72325 11.958C7.83645 9.84258 9.94966 7.75654 12.2096 5.49421C12.7966 6.14059 13.413 6.90449 14.1174 7.58025C15.6729 9.01991 17.4926 9.40187 19.4884 8.78487C21.543 8.13849 22.8637 6.78697 23.3627 4.67154C23.5975 3.76073 23.4507 2.79116 23.4801 1.85098C23.4801 1.4984 23.4214 1.14583 23.5975 0.734501C25.0063 0.675739 26.4444 0.675739 27.9413 0.734501C27.9413 5.46483 27.9413 10.1658 27.9413 14.9255C23.0398 15.1899 19.1949 17.3347 16.7295 21.6243C15.174 24.298 14.7924 27.2067 15.2914 30.2329C16.2599 36.1091 21.5429 40.6925 27.5891 40.8982C29.9371 40.9863 32.1677 40.4575 34.2515 39.3116C36.3061 38.1951 37.9203 36.6086 39.153 34.6401C40.327 32.6715 40.8847 30.468 40.9727 28.0294Z" fill="#516FE9"/>
<path d="M30.26 4.67165C30.1132 4.08403 30.0839 1.6748 30.26 0.822754C35.7778 1.23409 40.738 3.17323 45.0231 6.64017C51.0986 11.5174 54.4151 17.8637 55.1782 25.5615C54.5032 25.7965 52.0378 25.8259 51.304 25.6496C49.2495 13.6622 42.2642 6.66955 30.26 4.67165Z" fill="#16D594"/>
<path d="M30.2013 12.2812C30.1426 10.9884 30.1426 9.75444 30.2013 8.37354C34.0755 8.72611 37.4507 10.1658 40.4151 12.5456C44.5828 15.895 46.9308 20.2728 47.6646 25.6495C46.2851 25.8258 44.9937 25.7376 43.7317 25.7083C42.1467 18.2455 37.6855 13.7796 30.2013 12.2812Z" fill="#16D594"/>
<path d="M30.2012 25.7083C30.2012 22.4764 30.2012 19.3032 30.2012 16.1595C33.5177 15.278 39.8574 21.5068 39.9161 25.7083C36.7169 25.7083 33.5177 25.7083 30.2012 25.7083Z" fill="#16D594"/>
</g>
<defs>
<clipPath id="clip0_303_4519">
<rect width="56" height="56" fill="white"/>
</clipPath>
</defs>
</svg>
