<svg width="51" height="36" viewBox="0 0 51 36" fill="none" xmlns="http://www.w3.org/2000/svg">
<g clip-path="url(#clip0_113_648)">
<path d="M18.0158 17.6981C23.6172 17.6006 29.2186 17.5032 34.82 17.3862C35.9559 17.3667 37.0527 17.1133 38.0907 16.6456C38.4041 16.5091 38.4237 16.3727 38.267 16.0998C37.6794 15.1252 37.4052 14.0337 37.3856 12.9422C37.3465 10.9542 37.9144 9.122 39.1091 7.50424C39.2267 7.34831 39.3246 7.27035 39.5204 7.40678C40.9502 8.28388 42.2036 9.35589 43.0066 10.8567C43.2416 11.305 43.4767 11.7728 43.5354 12.2796C43.5746 12.7473 43.8488 12.9228 44.2992 12.7863C44.9064 12.6109 45.5331 12.6499 46.1403 12.6694C47.6091 12.7084 49.0193 12.9617 50.214 13.9168C50.3315 14.0143 50.5274 14.0143 50.3903 14.2871C49.9202 15.2812 49.4306 16.2947 48.6276 17.0938C47.6679 18.0489 46.4732 18.5947 45.1414 18.8091C44.4363 18.926 43.7117 18.9845 43.0066 19.043C42.7324 19.0624 42.6541 19.2184 42.5953 19.4133C42.1057 20.6217 41.5377 21.7717 40.8718 22.8827C40.0688 24.2276 39.1483 25.4945 38.1299 26.7029C36.8764 28.1843 35.4075 29.4317 33.8407 30.5622C32.5285 31.4977 31.138 32.2774 29.6495 32.9206C27.6518 33.7977 25.5953 34.4214 23.4605 34.8307C22.0896 35.1036 20.699 35.318 19.2889 35.357C18.4467 35.3765 17.6241 35.5324 16.7624 35.4934C13.7267 35.396 10.7693 35.0061 8.04694 33.5638C5.95131 32.4528 4.2474 30.913 2.95477 28.9249C1.56422 26.8004 0.800394 24.4615 0.467444 21.9666C0.310762 20.8361 0.252007 19.6862 0.389103 18.5557C0.447859 18.1464 0.584956 17.9904 1.03542 17.9904C6.71514 17.893 12.3753 17.7955 18.0158 17.6981Z" fill="#545AE8"/>
<path d="M24.9673 0.585744C25.6723 0.566253 26.3774 0.566253 27.0825 0.546761C27.3567 0.52727 27.4742 0.605235 27.4742 0.897601C27.4742 2.22299 27.5133 3.52889 27.5525 4.85429C27.5525 5.16614 27.435 5.22462 27.1608 5.22462C25.7115 5.24411 24.2622 5.2636 22.8129 5.30258C22.4799 5.32207 22.4212 5.18564 22.4016 4.89327C22.382 3.60686 22.3624 2.32045 22.3232 1.03404C22.3232 0.722181 22.382 0.605235 22.7149 0.605235C23.4788 0.624726 24.223 0.585744 24.9673 0.585744Z" fill="#139F7F"/>
<path d="M12.7115 6.45215C13.4166 6.43266 14.1217 6.43266 14.8267 6.41317C15.1597 6.39368 15.2772 6.47164 15.2772 6.82248C15.2772 8.06991 15.2968 9.31734 15.336 10.5843C15.3555 10.9351 15.2185 11.0131 14.8855 11.0131C13.4754 11.0326 12.0652 11.052 10.6551 11.091C10.3221 11.091 10.2046 11.0131 10.2046 10.6622C10.2046 9.41479 10.185 8.16736 10.1459 6.90045C10.1263 6.54961 10.2634 6.47164 10.5963 6.47164C11.2818 6.49113 12.0065 6.47164 12.7115 6.45215Z" fill="#139F7F"/>
<path d="M25.0679 10.837C24.3628 10.8565 23.6578 10.8565 22.9527 10.876C22.6589 10.8955 22.5218 10.8175 22.5218 10.4862C22.5218 9.21924 22.4827 7.95232 22.4435 6.6854C22.4239 6.35405 22.561 6.27608 22.8548 6.27608C24.2845 6.25659 25.7142 6.2371 27.1439 6.19812C27.4377 6.19812 27.5748 6.25659 27.5748 6.58794C27.5748 7.85486 27.5944 9.12178 27.6532 10.3887C27.6727 10.72 27.5357 10.798 27.2419 10.798C26.5172 10.798 25.7926 10.8175 25.0679 10.837Z" fill="#139F7F"/>
<path d="M6.71134 12.223C7.41641 12.2035 8.12148 12.2035 8.82655 12.1841C9.12033 12.1646 9.25743 12.2425 9.25743 12.5739C9.25743 13.8408 9.27701 15.1077 9.33577 16.3746C9.35535 16.706 9.21825 16.7839 8.92448 16.7839C7.49475 16.8034 6.06503 16.8229 4.63531 16.8619C4.28277 16.8814 4.20443 16.745 4.20443 16.4136C4.20443 15.1857 4.18485 13.9383 4.12609 12.7103C4.1065 12.34 4.2436 12.2425 4.59614 12.2425C5.3012 12.262 6.00627 12.2425 6.71134 12.223Z" fill="#139F7F"/>
<path d="M12.828 12.1249C13.5331 12.1054 14.2382 12.1054 14.9432 12.0859C15.237 12.0664 15.3741 12.1444 15.3741 12.4757C15.3741 13.7427 15.4133 15.0096 15.4525 16.2765C15.4721 16.6078 15.335 16.6858 15.0412 16.6858C13.6115 16.7053 12.1817 16.7248 10.752 16.7638C10.3995 16.7833 10.3211 16.6273 10.3211 16.3155C10.3211 15.0875 10.3015 13.8401 10.2428 12.6122C10.2232 12.2418 10.3603 12.1444 10.7128 12.1444C11.4179 12.1639 12.123 12.1249 12.828 12.1249Z" fill="#139F7F"/>
<path d="M25.1648 16.4912C24.4598 16.5107 23.7547 16.5107 23.0496 16.5302C22.7558 16.5496 22.6188 16.4717 22.6188 16.1403C22.6188 14.8734 22.5796 13.6065 22.5404 12.3396C22.5208 12.0082 22.6579 11.9303 22.9517 11.9303C24.3814 11.9108 25.8111 11.8913 27.2409 11.8523C27.5347 11.8523 27.6717 11.9108 27.6717 12.2421C27.6717 13.509 27.6913 14.776 27.7501 16.0429C27.7697 16.3742 27.6326 16.4522 27.3388 16.4522C26.6141 16.4522 25.8895 16.4912 25.1648 16.4912Z" fill="#139F7F"/>
<path d="M31.2937 16.3745C30.569 16.394 29.8444 16.394 29.1197 16.4135C28.8259 16.4329 28.728 16.316 28.728 16.0431C28.7084 14.7567 28.6888 13.4703 28.6497 12.1839C28.6497 11.911 28.728 11.8331 29.0022 11.8136C30.4711 11.7941 31.94 11.7746 33.3893 11.7356C33.6831 11.7356 33.781 11.8331 33.781 12.1254C33.8006 13.4118 33.8202 14.6982 33.8593 15.9846C33.8593 16.2575 33.781 16.355 33.5068 16.355C32.7821 16.355 32.0379 16.3745 31.2937 16.3745Z" fill="#139F7F"/>
<path d="M18.8785 6.35402C19.564 6.33453 20.2495 6.33453 20.9545 6.31504C21.2483 6.29555 21.3854 6.37351 21.3854 6.70486C21.3854 7.97178 21.405 9.2387 21.4442 10.5056C21.4637 10.837 21.3266 10.9149 21.0329 10.9149C19.6423 10.9344 18.2322 10.9539 16.8416 10.9929C16.5478 10.9929 16.4107 10.9344 16.4107 10.6031C16.4107 9.33615 16.3716 8.06924 16.3324 6.80232C16.3128 6.47097 16.4499 6.393 16.7437 6.393C17.4683 6.37351 18.1734 6.35402 18.8785 6.35402Z" fill="#139F7F"/>
<path d="M18.9913 16.608C18.3254 16.6275 17.6399 16.6275 16.974 16.647C16.6607 16.6665 16.504 16.5885 16.504 16.2377C16.504 14.9902 16.4844 13.7233 16.4452 12.4759C16.4257 12.125 16.5823 12.0471 16.8957 12.0471C18.2667 12.0276 19.6572 12.0081 21.0282 11.9691C21.3416 11.9691 21.4786 12.0276 21.4982 12.3784C21.4982 13.6259 21.5178 14.8928 21.557 16.1402C21.5766 16.491 21.4395 16.569 21.1065 16.569C20.4015 16.569 19.6964 16.5885 18.9913 16.608Z" fill="#139F7F"/>
</g>
<defs>
<clipPath id="clip0_113_648">
<rect width="51" height="36" fill="white"/>
</clipPath>
</defs>
</svg>
