<svg width="44" height="42" viewBox="0 0 44 42" fill="none" xmlns="http://www.w3.org/2000/svg">
<g clip-path="url(#clip0_113_710)">
<path d="M21.8286 0.347489C28.1527 0.347489 34.4767 0.347489 40.8008 0.347489C42.7363 0.347489 43.6562 1.27695 43.6562 3.25205C43.6562 12.1981 43.6562 21.1248 43.6562 30.0709C43.6562 31.9879 42.7363 32.9173 40.8583 32.9173C36.7381 32.9173 32.6178 32.9367 28.4976 32.9173C27.7119 32.9173 27.3286 33.111 27.0987 33.963C25.9489 38.3198 27.9227 38.7458 30.9506 39.075C32.0813 39.2106 33.2502 39.2299 34.3809 39.2299C35.6457 39.2299 35.09 40.1787 35.205 40.7597C35.3199 41.4374 34.9942 41.6504 34.3234 41.631C25.5081 41.6117 16.6928 41.6117 7.87742 41.631C7.16837 41.631 6.86175 41.3987 6.9384 40.6822C6.99589 40.0432 6.67011 39.2687 7.85826 39.1912C9.75547 39.0556 11.691 39.2106 13.5691 38.7071C16.0604 38.0487 17.0952 35.5895 15.8304 33.3046C15.5621 32.8205 15.1405 32.9173 14.7381 32.9173C10.8095 32.898 6.88091 32.9173 2.95234 32.9173C1.03596 32.9173 0.288574 32.1622 0.288574 30.2258C0.288574 21.1635 0.288574 12.1013 0.288574 3.01969C0.288574 1.10268 1.05512 0.328125 2.95234 0.328125C9.25722 0.347489 15.5429 0.347489 21.8286 0.347489ZM21.867 29.7804C27.7311 29.7804 33.6144 29.761 39.4785 29.7998C40.3025 29.7998 40.5708 29.5868 40.5516 28.7154C40.5133 20.6213 40.5133 12.5273 40.5516 4.43324C40.5516 3.58124 40.2834 3.31014 39.4785 3.31014C27.7694 3.32951 16.0604 3.32951 4.33213 3.31014C3.48892 3.31014 3.16314 3.56187 3.1823 4.47197C3.22063 12.5079 3.22063 20.5245 3.1823 28.5605C3.1823 29.5674 3.50809 29.7998 4.44711 29.7804C10.2537 29.761 16.0604 29.7804 21.867 29.7804Z" fill="#545AE8"/>
<path d="M14.9102 11.8299C17.0565 10.5712 19.0879 9.37067 21.1192 8.17012C21.3683 8.01521 21.5791 8.01521 21.8283 8.15075C23.8213 9.33194 25.8143 10.4938 27.9607 11.7524C25.8143 13.0498 23.8021 14.2697 21.8091 15.4896C21.3683 15.7607 21.0809 15.4509 20.7743 15.2766C18.8579 14.1729 16.9798 13.0498 14.9102 11.8299Z" fill="#F65535"/>
<path d="M20.641 24.7277C18.4947 23.4691 16.5592 22.3266 14.6045 21.1841C14.2595 20.9905 14.1062 20.7194 14.1062 20.3321C14.1062 18.2409 14.1254 16.1496 14.1062 14.0583C14.1062 13.3612 14.3553 13.3999 14.8344 13.6904C16.5592 14.7166 18.2839 15.7429 20.0278 16.7498C20.3344 16.9241 20.641 17.079 20.641 17.5244C20.641 19.8674 20.641 22.1911 20.641 24.7277Z" fill="#19BDC0"/>
<path d="M22.3438 24.7254C22.3438 22.2081 22.3438 19.8651 22.3438 17.5221C22.3438 17.1348 22.5929 16.9606 22.8803 16.7863C24.6626 15.7406 26.464 14.695 28.2462 13.63C28.7828 13.3008 28.8978 13.4944 28.8786 14.0366C28.8594 16.1279 28.8786 18.2192 28.8786 20.3105C28.8786 20.6203 28.8594 20.8914 28.572 21.0657C26.5406 22.2662 24.5284 23.4668 22.3438 24.7254Z" fill="#FBBE40"/>
</g>
<defs>
<clipPath id="clip0_113_710">
<rect width="44" height="42" fill="white"/>
</clipPath>
</defs>
</svg>
