<svg width="56" height="53" viewBox="0 0 56 53" fill="none" xmlns="http://www.w3.org/2000/svg">
<g clip-path="url(#clip0_303_4485)">
<path d="M27.7804 0.439963C35.8291 0.439963 43.8779 0.439963 51.9267 0.439963C54.3901 0.439963 55.5608 1.61285 55.5608 4.10525C55.5608 15.3943 55.5608 26.659 55.5608 37.948C55.5608 40.3671 54.3901 41.54 51.9999 41.54C46.756 41.54 41.5121 41.5644 36.2682 41.54C35.2682 41.54 34.7804 41.7844 34.4877 42.8595C33.0243 48.3574 35.5365 48.895 39.3901 49.3104C40.8291 49.4815 42.3169 49.5059 43.756 49.5059C45.3657 49.5059 44.6584 50.7032 44.8047 51.4363C44.9511 52.2915 44.5365 52.5603 43.6828 52.5359C32.4633 52.5114 21.2438 52.5114 10.0243 52.5359C9.12182 52.5359 8.73158 52.2426 8.82914 51.3385C8.90231 50.5322 8.48767 49.5548 9.99987 49.457C12.4145 49.286 14.8779 49.4815 17.2682 48.8461C20.4389 48.0153 21.756 44.9121 20.1462 42.0287C19.8047 41.4178 19.2682 41.54 18.756 41.54C13.756 41.5156 8.75597 41.54 3.75597 41.54C1.31694 41.54 0.365723 40.587 0.365723 38.1435C0.365723 26.7078 0.365723 15.2721 0.365723 3.81202C0.365723 1.39294 1.34133 0.415527 3.75597 0.415527C11.7804 0.439963 19.7804 0.439963 27.7804 0.439963ZM27.8291 37.5815C35.2926 37.5815 42.7804 37.5571 50.2438 37.6059C51.2926 37.6059 51.634 37.3372 51.6096 36.2376C51.5608 26.0236 51.5608 15.8097 51.6096 5.59579C51.6096 4.52064 51.2682 4.17855 50.2438 4.17855C35.3413 4.20299 20.4389 4.20299 5.51206 4.17855C4.43889 4.17855 4.02426 4.49621 4.04865 5.64467C4.09743 15.7853 4.09743 25.9015 4.04865 36.0421C4.04865 37.3127 4.46328 37.6059 5.65841 37.5815C13.0486 37.5571 20.4389 37.5815 27.8291 37.5815Z" fill="#516FE9"/>
<path d="M18.9756 14.9302C21.7073 13.3419 24.2927 11.8269 26.878 10.3119C27.1951 10.1164 27.4634 10.1164 27.7805 10.2875C30.317 11.778 32.8536 13.2442 35.5853 14.8324C32.8536 16.4696 30.2927 18.009 27.7561 19.5484C27.1951 19.8905 26.8292 19.4996 26.439 19.2797C24 17.8868 21.6097 16.4696 18.9756 14.9302Z" fill="#FF4F54"/>
<path d="M26.2682 31.204C23.5365 29.6157 21.0731 28.174 18.5853 26.7323C18.1463 26.488 17.9512 26.1459 17.9512 25.6572C17.9512 23.0182 17.9756 20.3792 17.9512 17.7402C17.9512 16.8605 18.2682 16.9094 18.878 17.2759C21.0731 18.571 23.2682 19.866 25.4878 21.1367C25.878 21.3566 26.2682 21.5521 26.2682 22.1141C26.2682 25.0707 26.2682 28.003 26.2682 31.204Z" fill="#01CFD9"/>
<path d="M28.439 31.204C28.439 28.0275 28.439 25.0708 28.439 22.1141C28.439 21.6254 28.756 21.4055 29.1219 21.1856C31.3902 19.8661 33.6829 18.5466 35.9512 17.2027C36.6341 16.7873 36.7804 17.0316 36.756 17.7158C36.7316 20.3548 36.756 22.9938 36.756 25.6328C36.756 26.0238 36.7316 26.3659 36.3658 26.5858C33.7804 28.1008 31.2195 29.6157 28.439 31.204Z" fill="#FFB501"/>
</g>
<defs>
<clipPath id="clip0_303_4485">
<rect width="56" height="53" fill="white"/>
</clipPath>
</defs>
</svg>
