<svg width="74" height="53" viewBox="0 0 74 53" fill="none" xmlns="http://www.w3.org/2000/svg">
<g clip-path="url(#clip0_303_4497)">
<path d="M26.1446 26.0549C34.2721 25.9115 42.3996 25.768 50.5271 25.5958C52.1753 25.5671 53.7667 25.1941 55.2728 24.5054C55.7275 24.3045 55.7559 24.1037 55.5286 23.7019C54.6761 22.2672 54.2782 20.6602 54.2498 19.0533C54.193 16.1264 55.0171 13.4291 56.7506 11.0474C56.9211 10.8178 57.0632 10.703 57.3473 10.9039C59.4218 12.1952 61.2406 13.7734 62.4057 15.9829C62.7467 16.6429 63.0877 17.3316 63.173 18.0777C63.2298 18.7664 63.6277 19.0246 64.2813 18.8237C65.1622 18.5655 66.0716 18.6229 66.9526 18.6516C69.0839 18.709 71.13 19.082 72.8635 20.4881C73.034 20.6315 73.3182 20.6315 73.1192 21.0333C72.4372 22.4967 71.7268 23.9889 70.5616 25.1654C69.1692 26.5714 67.4357 27.3749 65.5033 27.6906C64.4802 27.8627 63.4288 27.9488 62.4057 28.0349C62.0079 28.0636 61.8942 28.2932 61.8089 28.5801C61.0985 30.3592 60.2744 32.0522 59.3082 33.6879C58.143 35.6678 56.8074 37.533 55.3297 39.3121C53.5109 41.4929 51.3796 43.3294 49.1062 44.9938C47.2022 46.3711 45.1845 47.5189 43.0248 48.4659C40.1261 49.7571 37.1423 50.6754 34.0447 51.278C32.0555 51.6797 30.0378 51.9954 27.9917 52.0528C26.7698 52.0815 25.5762 52.311 24.3258 52.2536C19.9211 52.1102 15.63 51.5363 11.6799 49.4128C8.6392 47.7772 6.16685 45.5103 4.29127 42.5834C2.2736 39.4556 1.16531 36.0122 0.682207 32.3392C0.454864 30.6749 0.369611 28.9818 0.568535 27.3175C0.653789 26.7149 0.852714 26.4854 1.50632 26.4854C9.74749 26.3419 17.9602 26.1984 26.1446 26.0549Z" fill="#516FE9"/>
<path d="M36.2329 0.860853C37.2559 0.832158 38.279 0.832158 39.302 0.803462C39.6999 0.774767 39.8704 0.889548 39.8704 1.31998C39.8704 3.27125 39.9272 5.19383 39.984 7.1451C39.984 7.60422 39.8135 7.69031 39.4157 7.69031C37.3128 7.719 35.2098 7.7477 33.1069 7.80509C32.6238 7.83378 32.5386 7.63292 32.5102 7.20249C32.4817 5.30861 32.4533 3.41472 32.3965 1.52084C32.3965 1.06172 32.4817 0.889548 32.9648 0.889548C34.0731 0.918243 35.153 0.860853 36.2329 0.860853Z" fill="#16D594"/>
<path d="M18.4432 9.49799C19.4662 9.46929 20.4892 9.46929 21.5123 9.4406C21.9954 9.4119 22.1659 9.52668 22.1659 10.0432C22.1659 11.8797 22.1943 13.7162 22.2511 15.5814C22.2796 16.0979 22.0806 16.2127 21.5975 16.2127C19.5515 16.2414 17.5054 16.2701 15.4593 16.3274C14.9762 16.3274 14.8057 16.2127 14.8057 15.6961C14.8057 13.8597 14.7773 12.0232 14.7204 10.158C14.692 9.64147 14.8909 9.52668 15.374 9.52668C16.3687 9.55538 17.4201 9.52668 18.4432 9.49799Z" fill="#16D594"/>
<path d="M36.3751 15.9545C35.3521 15.9831 34.329 15.9831 33.306 16.0118C32.8797 16.0405 32.6808 15.9258 32.6808 15.4379C32.6808 13.5728 32.624 11.7076 32.5671 9.84238C32.5387 9.35456 32.7376 9.23978 33.1639 9.23978C35.2384 9.21109 37.3129 9.18239 39.3874 9.125C39.8137 9.125 40.0126 9.21109 40.0126 9.6989C40.0126 11.5641 40.041 13.4293 40.1263 15.2945C40.1547 15.7823 39.9558 15.8971 39.5295 15.8971C38.478 15.8971 37.4266 15.9258 36.3751 15.9545Z" fill="#16D594"/>
<path d="M9.74745 17.9917C10.7705 17.963 11.7935 17.963 12.8166 17.9343C13.2428 17.9056 13.4418 18.0204 13.4418 18.5082C13.4418 20.3734 13.4702 22.2386 13.5554 24.1037C13.5839 24.5916 13.3849 24.7063 12.9587 24.7063C10.8842 24.735 8.80966 24.7637 6.73516 24.8211C6.22364 24.8498 6.10997 24.6489 6.10997 24.1611C6.10997 22.3533 6.08155 20.5168 5.9963 18.709C5.96788 18.1638 6.1668 18.0204 6.67832 18.0204C7.70137 18.0491 8.72441 18.0204 9.74745 17.9917Z" fill="#16D594"/>
<path d="M18.6137 17.8481C19.6367 17.8194 20.6597 17.8194 21.6828 17.7907C22.1091 17.762 22.308 17.8768 22.308 18.3646C22.308 20.2298 22.3648 22.095 22.4216 23.9602C22.4501 24.448 22.2511 24.5628 21.8249 24.5628C19.7504 24.5915 17.6759 24.6202 15.6014 24.6776C15.0899 24.7063 14.9762 24.4767 14.9762 24.0176C14.9762 22.2098 14.9478 20.3733 14.8625 18.5655C14.8341 18.0203 15.033 17.8768 15.5445 17.8768C16.5676 17.9055 17.5906 17.8481 18.6137 17.8481Z" fill="#16D594"/>
<path d="M36.5172 24.2762C35.4942 24.3049 34.4711 24.3049 33.4481 24.3336C33.0218 24.3623 32.8229 24.2475 32.8229 23.7597C32.8229 21.8945 32.766 20.0293 32.7092 18.1642C32.6808 17.6763 32.8797 17.5616 33.306 17.5616C35.3805 17.5329 37.455 17.5042 39.5295 17.4468C39.9558 17.4468 40.1547 17.5329 40.1547 18.0207C40.1547 19.8859 40.1831 21.7511 40.2683 23.6162C40.2968 24.1041 40.0978 24.2188 39.6716 24.2188C38.6201 24.2188 37.5687 24.2762 36.5172 24.2762Z" fill="#16D594"/>
<path d="M45.4121 24.1039C44.3606 24.1326 43.3092 24.1326 42.2577 24.1613C41.8314 24.19 41.6894 24.0178 41.6894 23.6161C41.6609 21.7222 41.6325 19.8283 41.5757 17.9344C41.5757 17.5327 41.6894 17.4179 42.0872 17.3892C44.2185 17.3605 46.3499 17.3318 48.4528 17.2744C48.8791 17.2744 49.0212 17.4179 49.0212 17.8483C49.0496 19.7422 49.078 21.6361 49.1348 23.53C49.1348 23.9317 49.0212 24.0752 48.6233 24.0752C47.5718 24.0752 46.492 24.1039 45.4121 24.1039Z" fill="#16D594"/>
<path d="M27.3947 9.35446C28.3894 9.32576 29.384 9.32576 30.407 9.29707C30.8333 9.26837 31.0322 9.38315 31.0322 9.87097C31.0322 11.7362 31.0606 13.6013 31.1175 15.4665C31.1459 15.9543 30.947 16.0691 30.5207 16.0691C28.503 16.0978 26.4569 16.1265 24.4393 16.1839C24.013 16.1839 23.8141 16.0978 23.8141 15.61C23.8141 13.7448 23.7573 11.8796 23.7004 10.0144C23.672 9.52663 23.8709 9.41185 24.2972 9.41185C25.3487 9.38315 26.3717 9.35446 27.3947 9.35446Z" fill="#16D594"/>
<path d="M27.5653 24.4481C26.5991 24.4768 25.6045 24.4768 24.6383 24.5055C24.1836 24.5342 23.9563 24.4194 23.9563 23.9029C23.9563 22.0664 23.9279 20.2012 23.871 18.3647C23.8426 17.8482 24.07 17.7334 24.5246 17.7334C26.5139 17.7047 28.5315 17.676 30.5208 17.6187C30.9755 17.6187 31.1744 17.7047 31.2028 18.2213C31.2028 20.0577 31.2312 21.9229 31.2881 23.7594C31.3165 24.2759 31.1176 24.3907 30.6345 24.3907C29.6114 24.3907 28.5884 24.4194 27.5653 24.4481Z" fill="#16D594"/>
</g>
<defs>
<clipPath id="clip0_303_4497">
<rect width="74" height="53" fill="white"/>
</clipPath>
</defs>
</svg>
