<svg width="54" height="34" viewBox="0 0 54 34" fill="none" xmlns="http://www.w3.org/2000/svg">
<g clip-path="url(#clip0_113_630)">
<path d="M26.9059 33.4624C21.7646 33.4624 16.6433 33.4624 11.5021 33.4624C9.38155 33.4624 7.38105 33.0037 5.5406 31.9269C3.22002 30.5709 1.45958 28.7363 0.799421 26.0641C0.379317 24.3691 0.479342 22.6542 1.05949 20.999C1.89969 18.6659 3.30004 16.7515 5.38056 15.3556C5.90068 15.0166 6.44082 14.7375 7.02096 14.5181C7.24102 14.4383 7.40106 14.3187 7.38105 14.0395C7.34104 12.185 7.74114 10.4301 8.46132 8.73511C9.82166 5.62426 12.0422 3.33101 15.103 1.85535C16.7634 1.05769 18.5238 0.618983 20.3843 0.559159C22.6448 0.499335 24.7854 0.898162 26.8259 1.89523C29.5265 3.2313 31.567 5.24538 32.9474 7.91752C33.2274 8.45593 33.2275 8.45593 33.7276 8.15681C36.1682 6.72104 39.609 7.1398 41.6495 9.09406C42.9098 10.2905 43.71 11.7263 43.8501 13.4612C43.8701 13.7204 43.9901 13.88 44.2902 13.9398C48.6713 14.7773 51.592 17.3697 52.9723 21.5375C54.0126 24.7081 53.2324 27.5996 50.8718 30.0125C49.0714 31.8671 46.8708 32.904 44.3502 33.3427C43.73 33.4424 43.0899 33.4624 42.4697 33.4624C37.2685 33.4624 32.0872 33.4624 26.9059 33.4624Z" fill="#FBBE40"/>
<path d="M22.9455 21.1173C22.9655 20.2798 22.9455 19.3425 23.0255 18.4452C23.0455 18.146 23.0855 17.8669 23.1255 17.5677V17.5279V17.5079L23.1455 17.468C23.1455 17.4481 23.1656 17.4282 23.1856 17.4082C23.2256 17.3683 23.2656 17.3484 23.3256 17.3683C23.3656 17.3883 23.4056 17.4082 23.4456 17.4481C23.5256 17.5279 23.6257 17.6076 23.7257 17.7273C23.9457 17.9666 24.2058 18.1859 24.5059 18.3654C25.086 18.7243 25.7862 18.9437 26.5064 18.8639C26.8665 18.824 27.2266 18.7243 27.5466 18.5648C27.8867 18.4053 28.1668 18.146 28.4069 17.8669C28.867 17.2886 29.047 16.5707 29.127 15.9325C29.187 15.2745 29.167 14.6364 29.107 14.0182C29.047 13.4 28.927 12.7419 28.6469 12.1038C28.5069 11.7847 28.3268 11.4856 28.0868 11.2064C27.8467 10.9273 27.5666 10.688 27.2466 10.5085C26.9265 10.329 26.5664 10.1894 26.1863 10.1496C25.8062 10.1097 25.3861 10.1296 25.006 10.2891C24.6259 10.4287 24.3258 10.668 24.0858 10.9073C23.9658 11.027 23.8457 11.1466 23.7457 11.2663L23.5857 11.4457L23.4256 11.6252C23.3256 11.7648 23.2256 11.8845 23.1455 12.0041L23.1255 12.044L23.1455 5.30381C23.1656 3.3695 23.0655 1.0563 22.6854 1.11613C22.3253 1.15601 22.0653 3.15014 22.0453 5.40352C22.0253 6.20117 22.0253 6.97888 22.0453 7.77654C22.0853 9.07273 22.0853 10.3889 22.1053 11.7249C22.1053 12.2434 22.1053 12.7818 22.1053 13.3003C22.1053 13.4399 22.1053 13.6194 22.1053 13.7589L22.1253 14.1578C22.1453 14.417 22.1453 14.6962 22.1653 14.9554V15.0551C22.1653 15.0751 22.1653 15.095 22.1653 15.095L22.2053 15.0551L22.3454 14.8956L22.6054 14.5765C22.7655 14.3572 22.9455 14.1378 23.1055 13.9185C23.2856 13.6991 23.4656 13.4199 23.6457 13.1607C23.8057 12.9413 23.9457 12.722 24.1058 12.5026L24.2458 12.3032L24.3258 12.2035L24.4059 12.1038C24.5059 11.9642 24.6259 11.8446 24.7259 11.7249C24.946 11.4856 25.1661 11.3062 25.4261 11.2064C25.9062 11.007 26.5264 11.1666 27.0265 11.5455C27.5066 11.9243 27.8267 12.5226 27.9867 13.2006C28.0668 13.5396 28.1268 13.8985 28.1668 14.2774C28.2068 14.6563 28.2268 15.0352 28.2268 15.4141C28.2068 16.112 28.0468 16.9097 27.5466 17.3883C27.3066 17.6276 26.9665 17.7871 26.5864 17.8469C26.2063 17.9067 25.8062 17.8669 25.4261 17.7073C25.2261 17.6276 25.046 17.5279 24.886 17.4082C24.806 17.3484 24.7059 17.2886 24.6259 17.2088C24.5859 17.1689 24.5459 17.129 24.5059 17.0891L24.3859 16.9695C24.3458 16.9097 24.2858 16.8698 24.2258 16.81C24.2058 16.79 24.1658 16.7501 24.1458 16.7302C24.1058 16.7103 24.0858 16.6903 24.0458 16.6504C23.8457 16.5108 23.6257 16.3912 23.4056 16.3912C23.1856 16.3713 22.9455 16.451 22.7655 16.5707C22.5854 16.7103 22.4654 16.9296 22.4054 17.1689C22.3454 17.4481 22.3454 17.5279 22.3253 17.6674C22.3053 17.807 22.3053 17.9267 22.2853 18.0663C22.2653 18.3255 22.2453 18.6047 22.2453 18.8639C22.2253 19.4023 22.2453 19.9408 22.2653 20.4592C22.2853 21.1173 22.3454 21.8551 22.4054 22.4334C22.4854 23.0117 22.5654 23.4305 22.7054 23.5103C22.8255 23.5701 22.9055 23.2311 22.9655 22.7325C22.9255 22.2739 22.9255 21.6358 22.9455 21.1173Z" fill="white"/>
<path d="M25.8464 23.87C26.3466 23.8899 26.8867 23.8899 27.4268 23.9099C27.7069 23.9298 27.967 23.9298 28.247 23.9498C28.3871 23.9697 28.5271 23.9697 28.6471 23.9897L28.8472 24.0096L28.9472 24.0295C28.9672 24.0295 28.9872 24.0295 28.9872 24.0495C29.0672 24.0694 29.1273 24.1093 29.1473 24.1691C29.1673 24.2289 29.1473 24.3087 29.1072 24.3685L29.0672 24.4084C29.0472 24.4284 29.0272 24.4682 28.9872 24.4882C28.9272 24.548 28.8672 24.6078 28.8072 24.6677C28.6671 24.8072 28.5271 24.9468 28.3871 25.1064C28.127 25.4254 27.927 25.7844 27.7869 26.1633C27.6469 26.5621 27.5869 26.9809 27.6269 27.3996C27.6669 27.8184 27.7869 28.2372 28.027 28.616C28.267 28.9949 28.5871 29.294 28.9672 29.5134C29.3473 29.7328 29.7474 29.8524 30.1475 29.9322C30.5476 30.0119 30.9277 30.0319 31.3278 30.0319C31.7079 30.0319 32.088 30.0119 32.4681 29.9721C32.8482 29.9322 33.2283 29.8723 33.6284 29.7726C34.0085 29.6729 34.4086 29.5333 34.7687 29.314C34.8687 29.2741 34.9487 29.1943 35.0287 29.1545C35.1087 29.0946 35.2088 29.0348 35.2888 28.955C35.4488 28.8155 35.6089 28.6559 35.7289 28.4765C35.989 28.1375 36.189 27.7386 36.289 27.28C36.329 27.0606 36.349 26.8213 36.349 26.582C36.329 26.3427 36.269 26.1034 36.189 25.8841C36.009 25.4454 35.7089 25.1064 35.4088 24.8272C35.2688 24.6876 35.1087 24.5679 34.9687 24.4483L34.8487 24.3486L34.7286 24.2489L34.4886 24.0894L34.4086 24.0295H34.5286H35.0687H39.4298L48.132 24.0495C50.4725 24.0694 53.2532 23.9697 53.1932 23.5908C53.1332 23.2319 50.7326 22.9726 48.0119 22.9527C47.0517 22.9328 46.1115 22.9328 45.1512 22.9527C41.9904 23.0125 38.8097 23.0325 35.4488 23.0125C34.9687 23.0125 34.4886 23.0125 33.9885 23.0125C33.6084 23.0125 33.2083 23.0125 32.8082 23.0125C32.4481 23.0325 32.128 23.0524 31.7879 23.0524L31.5278 23.0723H31.4078C31.3878 23.0723 31.3678 23.0723 31.3478 23.0723L31.4078 23.1122L31.8279 23.4313C32.088 23.6307 32.3681 23.8501 32.6681 24.0694C32.9882 24.2888 33.3283 24.5281 33.6484 24.7474L33.9885 24.9867C34.0685 25.0465 34.1685 25.1064 34.2285 25.1662C34.5686 25.4454 34.8887 25.7046 35.0887 26.0037C35.2888 26.3028 35.3488 26.6219 35.2888 26.9809C35.2288 27.3398 35.0487 27.6987 34.7687 27.9979C34.6286 28.1375 34.4886 28.277 34.3085 28.3767C34.1285 28.4964 33.9484 28.5762 33.7484 28.6559C33.3683 28.7955 32.9282 28.8952 32.4481 28.955C31.968 29.0149 31.4478 29.0348 30.9677 29.0149C30.4676 28.9949 29.9675 28.9152 29.5474 28.7158C29.1273 28.5163 28.8072 28.1773 28.6471 27.7386C28.5671 27.5193 28.5271 27.28 28.5271 27.0407C28.5271 26.8014 28.5871 26.5621 28.6671 26.3228C28.7472 26.0835 28.8872 25.8641 29.0472 25.6448C29.1273 25.5451 29.2073 25.4454 29.3073 25.3457C29.3873 25.2659 29.5274 25.1263 29.6474 24.9867L29.6874 24.9269L29.7474 24.8471C29.7874 24.7873 29.8274 24.7275 29.8674 24.6677C29.9475 24.548 29.9875 24.4084 30.0075 24.2688C30.0475 23.9897 29.9475 23.7105 29.7474 23.5111C29.6474 23.4114 29.5273 23.3316 29.3873 23.2718C29.3273 23.2518 29.2473 23.2319 29.1673 23.2119C29.1072 23.192 29.0072 23.1721 28.9672 23.1721C28.7872 23.1521 28.6271 23.1322 28.4671 23.1322C27.8069 23.0723 27.1668 23.0723 26.5066 23.0923C25.6864 23.1122 24.8062 23.1721 24.126 23.2518C23.4258 23.3316 22.9257 23.4114 22.8257 23.5709C22.7457 23.6905 23.1658 23.7703 23.7659 23.8102C24.4261 23.87 25.2063 23.87 25.8464 23.87Z" fill="white"/>
<path d="M3.31847 23.8503C4.13867 23.9301 5.0789 23.97 5.95912 24.0298C6.99938 24.0896 8.03963 24.1494 9.07989 24.1694C9.60002 24.1893 10.1201 24.1893 10.6603 24.1694C10.9203 24.1694 11.2004 24.1494 11.4805 24.1295C11.5205 24.1295 11.5805 24.1096 11.6405 24.1096C11.7005 24.0896 11.7606 24.0896 11.8206 24.0697C11.9406 24.0298 12.0406 23.9899 12.1406 23.9301C12.3207 23.8104 12.4607 23.611 12.5207 23.3917C12.5808 23.1723 12.5207 22.933 12.4207 22.7137C12.4007 22.6538 12.3607 22.614 12.3207 22.5541C12.3007 22.5342 12.2807 22.4943 12.2607 22.4744L12.2207 22.4145C12.1607 22.3547 12.1206 22.2949 12.0606 22.2351C12.0006 22.1752 11.9606 22.1354 11.9006 22.0755C11.8606 22.0357 11.8206 21.9958 11.7806 21.9559C11.7005 21.8761 11.6405 21.7964 11.5605 21.6967C11.3004 21.3377 11.1204 20.9389 11.0804 20.5201C11.0404 20.1213 11.1204 19.6826 11.3204 19.3635C11.5205 19.0245 11.8206 18.7852 12.2207 18.6257C12.6208 18.4662 13.0809 18.4063 13.561 18.4063C13.8011 18.4063 14.0411 18.4063 14.3012 18.4263C14.5612 18.4462 14.8013 18.4662 15.0414 18.506C16.0016 18.6257 16.9018 18.9447 17.3819 19.6228C17.622 19.9618 17.762 20.3606 17.722 20.7195C17.702 20.899 17.662 21.0585 17.562 21.2181C17.462 21.3776 17.3219 21.5371 17.1619 21.6967C17.0819 21.7764 16.9818 21.8562 16.9018 21.9359C16.8018 22.0157 16.7018 22.0955 16.6218 22.1752C16.5217 22.255 16.4217 22.3148 16.3217 22.3946L15.7415 22.7934C15.5215 22.933 15.3214 23.0925 15.1214 23.2321C14.9213 23.3717 14.7413 23.5113 14.5612 23.6509L13.521 24.4685H16.8018L18.5222 24.4486C20.4227 24.4286 22.6833 24.3289 22.6232 23.95C22.5832 23.5911 20.6027 23.3318 18.4022 23.3518H17.2419H16.9618H16.9018H16.8818C16.8618 23.3518 16.8418 23.3717 16.8018 23.3717C16.7618 23.3717 16.8018 23.3318 16.8618 23.292L17.2019 23.0327C17.2619 22.9928 17.3419 22.9131 17.402 22.8732L17.582 22.7137C17.8221 22.4943 18.0821 22.2749 18.3022 21.9758C18.5222 21.6767 18.7023 21.2978 18.7423 20.899C18.8023 20.5002 18.7423 20.1013 18.6022 19.7623C18.4822 19.4034 18.2822 19.0843 18.0421 18.8052C17.9221 18.6656 17.782 18.526 17.642 18.4063C17.482 18.2867 17.3419 18.187 17.1819 18.0873C16.5417 17.7283 15.8216 17.5488 15.1414 17.4691C14.8013 17.4292 14.4612 17.3893 14.1011 17.3893C13.741 17.3694 13.381 17.3694 13.0209 17.4093C12.6408 17.4491 12.2607 17.5289 11.9006 17.6685C11.5205 17.8081 11.1604 18.0474 10.8603 18.3664C10.5603 18.6855 10.3402 19.0843 10.2402 19.4832C10.1201 19.9019 10.1201 20.3406 10.1802 20.7594C10.2602 21.1981 10.4202 21.6169 10.6603 22.0157C10.7803 22.2151 10.9203 22.3946 11.0804 22.5741C11.1204 22.614 11.1604 22.6538 11.2004 22.7137L11.3204 22.8333C11.3805 22.8931 11.4405 22.9729 11.5005 23.0327C11.5205 23.0726 11.5405 23.1125 11.5205 23.1324C11.5205 23.1524 11.5005 23.1524 11.4805 23.1723H11.4605H11.4005C10.9804 23.2122 10.5002 23.2321 10.0401 23.2321C8.13966 23.2521 6.05914 23.1723 3.99863 23.1125C2.69831 23.0726 1.13793 23.0527 0.977886 23.3518C0.797842 23.611 2.27821 23.7307 3.31847 23.8503Z" fill="white"/>
</g>
<defs>
<clipPath id="clip0_113_630">
<rect width="53.8333" height="34" fill="white"/>
</clipPath>
</defs>
</svg>
