<svg width="57" height="70" viewBox="0 0 57 70" fill="none" xmlns="http://www.w3.org/2000/svg">
<g clip-path="url(#clip0_303_4200)">
<path d="M34.2988 18.1997C33.1236 17.0681 31.206 16.1252 29.2576 15.7794C29.1339 15.6537 28.9792 15.5279 28.8246 15.4651C28.2679 15.2136 27.773 15.0879 27.1545 15.1822C26.7834 15.2451 26.4741 15.3393 26.1648 15.4965C26.1339 15.4965 25.9174 15.5908 25.8246 15.6537C25.7627 15.6851 25.639 15.7165 25.6081 15.7165C25.4535 15.748 25.2988 15.7794 25.1132 15.8423C24.5565 16.0309 24.1236 16.3138 23.6596 16.6909C23.5359 16.7852 23.4431 16.911 23.3813 17.0053C23.3194 17.0367 23.2576 17.0996 23.2267 17.131C23.1648 17.1624 23.1029 17.2253 23.0411 17.2882C22.8555 17.3825 22.67 17.5396 22.5153 17.6968C21.1236 17.6968 20.4431 19.2998 20.6596 20.4943C21.0308 22.7574 23.7834 24.3605 25.7937 24.6748C27.7421 24.9891 30.4947 25.0205 31.4535 23.0403C32.9998 22.5374 34.4844 21.7516 34.8864 20.3685C35.072 19.6142 34.8555 18.7341 34.2988 18.1997Z" fill="#FFB501"/>
<path d="M34.2988 18.1997C33.1236 17.0681 31.206 16.1252 29.2576 15.7794C29.1339 15.6537 28.9792 15.5279 28.8246 15.4651C28.2679 15.2136 27.773 15.0879 27.1545 15.1822C26.7834 15.2451 26.4741 15.3393 26.1648 15.4965C26.1339 15.4965 25.9174 15.5908 25.8246 15.6537C25.7627 15.6851 25.639 15.7165 25.6081 15.7165C25.4535 15.748 25.2988 15.7794 25.1132 15.8423C24.5565 16.0309 24.1236 16.3138 23.6596 16.6909C23.5359 16.7852 23.4431 16.911 23.3813 17.0053C23.3194 17.0367 23.2576 17.0996 23.2267 17.131C23.1648 17.1624 23.1029 17.2253 23.0411 17.2882C22.8555 17.3825 22.67 17.5396 22.5153 17.6968C21.1236 17.6968 20.4431 19.2998 20.6596 20.4943C21.0308 22.7574 23.7834 24.3605 25.7937 24.6748C27.7421 24.9891 30.4947 25.0205 31.4535 23.0403C32.9998 22.5374 34.4844 21.7516 34.8864 20.3685C35.072 19.6142 34.8555 18.7341 34.2988 18.1997Z" fill="#FFB501"/>
<path d="M17.8451 54.6927C16.2987 51.8637 13.1131 46.9288 9.30902 47.9033C7.14407 48.469 5.96881 50.7322 4.11314 51.8009C3.46366 52.1781 2.65953 52.2724 2.07191 53.0896C1.54613 53.8754 1.42242 54.8184 1.20593 55.6985C1.05129 56.4214 1.23685 57.0501 1.57706 57.5216C-0.216754 59.7218 0.339947 64.0595 3.18531 64.9711C4.51521 65.4111 5.96881 65.1282 7.32964 65.474C9.12345 65.914 10.7936 66.7313 12.5564 67.2656C15.4946 68.2086 20.1338 68.743 21.3709 64.9711C22.5461 61.4821 19.4224 57.6159 17.8451 54.6927Z" fill="#FFB501"/>
<path d="M54.8968 57.0814C54.4947 56.1698 53.8452 55.3526 53.5978 54.3468C53.3504 53.2466 53.1339 52.0522 52.4535 51.1407C52.4226 51.0149 52.4226 50.8892 52.3916 50.7635C52.2988 50.3863 52.1133 50.072 51.8349 49.7891C51.6803 49.6633 51.5566 49.569 51.4019 49.4433C51.0617 49.2547 50.6906 49.129 50.3195 49.129H50.2576C49.9483 49.129 49.67 49.1918 49.4226 49.3176C49.3607 49.349 49.2679 49.3804 49.2061 49.4119C48.6803 49.3176 48.1236 49.2547 47.6287 49.1918C46.1133 49.0347 44.8762 49.349 43.8555 49.9777C44.3813 47.4316 40.3916 46.3944 39.6184 49.0347C38.6906 52.2094 37.7937 55.384 36.9896 58.5901C36.2782 61.3562 34.7318 65.1595 37.4535 67.3284C38.1339 67.8941 38.938 68.2085 39.804 68.3656C40.1442 68.7742 40.67 69.0257 41.3504 69.0257C42.1236 69.0257 42.6803 68.6799 43.0205 68.2085C44.1339 67.9256 45.1854 67.4541 46.0514 66.8254C47.2885 65.9453 48.3401 64.9081 49.6391 64.1222C50.8762 63.3679 52.2988 62.9592 53.4122 62.1106C53.8762 61.7648 54.2782 61.3248 54.5875 60.8533C56.0102 60.2246 56.1339 57.9929 54.8968 57.0814Z" fill="#FFB501"/>
<path d="M17.8451 54.6927C16.2987 51.8637 13.1131 46.9288 9.30902 47.9033C7.14407 48.469 5.96881 50.7322 4.11314 51.8009C3.46366 52.1781 2.65953 52.2724 2.07191 53.0896C1.54613 53.8754 1.42242 54.8184 1.20593 55.6985C1.05129 56.4214 1.23685 57.0501 1.57706 57.5216C-0.216754 59.7218 0.339947 64.0595 3.18531 64.9711C4.51521 65.4111 5.96881 65.1282 7.32964 65.474C9.12345 65.914 10.7936 66.7313 12.5564 67.2656C15.4946 68.2086 20.1338 68.743 21.3709 64.9711C22.5461 61.4821 19.4224 57.6159 17.8451 54.6927Z" fill="#FFB501"/>
<path d="M54.8968 57.0814C54.4947 56.1698 53.8452 55.3526 53.5978 54.3468C53.3504 53.2466 53.1339 52.0522 52.4535 51.1407C52.4226 51.0149 52.4226 50.8892 52.3916 50.7635C52.2988 50.3863 52.1133 50.072 51.8349 49.7891C51.6803 49.6633 51.5566 49.569 51.4019 49.4433C51.0617 49.2547 50.6906 49.129 50.3195 49.129H50.2576C49.9483 49.129 49.67 49.1918 49.4226 49.3176C49.3607 49.349 49.2679 49.3804 49.2061 49.4119C48.6803 49.3176 48.1236 49.2547 47.6287 49.1918C46.1133 49.0347 44.8762 49.349 43.8555 49.9777C44.3813 47.4316 40.3916 46.3944 39.6184 49.0347C38.6906 52.2094 37.7937 55.384 36.9896 58.5901C36.2782 61.3562 34.7318 65.1595 37.4535 67.3284C38.1339 67.8941 38.938 68.2085 39.804 68.3656C40.1442 68.7742 40.67 69.0257 41.3504 69.0257C42.1236 69.0257 42.6803 68.6799 43.0205 68.2085C44.1339 67.9256 45.1854 67.4541 46.0514 66.8254C47.2885 65.9453 48.3401 64.9081 49.6391 64.1222C50.8762 63.3679 52.2988 62.9592 53.4122 62.1106C53.8762 61.7648 54.2782 61.3248 54.5875 60.8533C56.0102 60.2246 56.1339 57.9929 54.8968 57.0814Z" fill="#FFB501"/>
<path d="M51.2474 48.689C52.7319 49.2862 53.2886 50.5121 53.5979 51.8951C53.6907 52.3037 53.8144 52.7123 53.9072 53.1524C54.0928 54.0639 54.4639 54.8812 55.1134 55.5727C55.6701 56.1699 56.1649 56.8614 56.4742 57.6472C57.0309 58.9988 56.7835 60.0047 55.701 60.9476C55.1752 61.4191 54.5567 61.7649 53.9072 62.0792C53.0412 62.5193 52.1443 62.9907 51.2783 63.4308C49.9484 64.1223 48.8041 65.0653 47.8144 66.2283C46.6082 67.6427 45.1856 68.7429 43.4227 69.3401C40.299 70.4088 37.2371 69.2772 36.0309 66.0083C35.9381 65.7568 35.7835 65.6625 35.5361 65.6939C34.0825 65.7568 32.6598 65.5368 31.2371 65.3167C29.1959 64.971 27.1546 65.191 25.1443 65.5996C24.2474 65.7882 23.3505 66.0083 22.4227 66.0397C22.2371 66.0397 22.1134 66.0711 22.0206 66.2597C20.567 68.8057 18.2474 69.1829 15.6804 68.9C14.3196 68.7429 13.0206 68.3657 11.8453 67.7056C9.89689 66.6369 7.7938 66.2912 5.65978 66.0397C4.67009 65.9454 3.71132 65.8197 2.75256 65.5682C0.835036 65.0339 0.123695 63.9337 0.34019 61.9535C0.371118 61.5763 0.432974 61.1677 0.556685 60.8219C1.11339 59.5017 0.989675 58.1502 0.77318 56.7986C0.711324 56.4842 0.680396 56.2013 0.649469 55.887C0.463901 53.9382 1.2371 52.4609 3.06184 51.8637C4.85565 51.2979 6.15462 50.2606 7.17524 48.7204C7.63916 48.0289 7.88658 47.4631 7.85565 46.583C7.70101 43.4083 8.62885 40.4537 9.92782 37.6248C11.567 34.0729 13.7629 30.8982 16.1752 27.8493C18.6185 24.7689 19.6392 21.2485 19.5154 17.3194C19.4227 14.9934 19.1443 12.636 19.3608 10.2786C19.4845 8.86411 19.701 7.44965 20.1959 6.09806C21.1856 3.45774 23.0103 1.72895 25.6392 0.91171C27.835 0.220197 30.0618 0.1259 32.3196 0.534521C35.5979 1.06887 37.7319 3.14341 38.8763 6.28665C39.866 8.98984 40.0515 11.8188 40.0825 14.6477C40.0825 16.125 40.0515 17.5709 40.1134 19.0482C40.2371 21.4056 41.2886 23.4173 42.6185 25.3033C43.8557 27.0635 45.2783 28.6665 46.5464 30.4268C48.5876 33.2557 50.3505 36.2732 51.3093 39.6993C52.1134 42.5597 52.2062 45.3886 51.3711 48.2489C51.3093 48.3747 51.2783 48.5004 51.2474 48.689ZM16.0515 32.187C15.9897 32.1555 15.9587 32.1241 15.8969 32.0927C15.6804 32.4384 15.4639 32.8156 15.2474 33.1614C13.8866 35.5188 12.6495 37.9391 12.1546 40.6737C11.5051 44.2256 12.6495 46.9288 15.6495 48.909C15.9278 49.0976 16.2371 49.2862 16.5154 49.4748C17.9691 50.4806 19.3299 51.5493 20.4433 52.9638C21.0618 53.7496 21.6185 54.5669 21.7732 55.6041C21.9587 56.7043 21.433 57.5215 20.3505 57.8044C20.1031 57.8673 19.8557 57.8987 19.5464 57.9616C20.0103 58.5902 20.4433 59.1874 20.8763 59.7846C21.1546 60.1618 21.3402 60.5704 21.7732 60.8219C22.6082 61.3248 23.4742 61.7963 24.433 62.0792C28.8247 63.4308 32.7835 62.2678 36.4639 59.7846C36.5876 59.6903 36.7113 59.596 36.7732 59.4074C37.1443 58.0873 37.5773 56.7986 37.6392 55.4155C37.7319 53.561 37.7938 51.7065 38.3196 49.9149C38.7216 48.5004 39.402 47.2745 40.8247 46.6773C41.0722 46.583 41.1031 46.363 41.134 46.143C41.4433 44.6342 42.3093 44.0056 43.7938 44.1942C45.0618 44.3513 46.2371 44.8542 47.3196 45.5143C48.433 46.143 49.4845 46.8345 49.2371 48.3747C49.6701 48.5318 49.7938 48.3118 49.8557 47.966C49.9794 47.0231 49.5773 46.3001 48.9278 45.7029C48.1546 44.9485 47.2268 44.4142 46.2371 43.9741C45.8041 43.7855 45.6185 43.5969 45.7423 43.0626C45.866 42.6225 45.8969 42.1196 45.8969 41.6796C45.835 37.4362 43.9484 34.0101 41.1031 31.0554C41.0103 30.9611 40.8866 30.7725 40.701 30.9611C40.7629 31.3697 41.0722 31.5583 41.3196 31.8412C43.6392 34.4501 45 37.4676 44.8144 41.0509C44.7835 41.8053 44.6288 42.5282 44.2886 43.1883C44.0103 43.1569 43.7938 43.094 43.5773 43.094C43.0515 43.094 42.835 42.9054 42.7423 42.3396C42.2474 39.9193 41.4433 37.5933 40.299 35.3931C38.134 31.1811 36.3711 26.7806 35.0103 22.2229C34.9484 21.9714 34.9175 21.6571 34.701 21.3742C34.0825 22.1286 33.3711 22.6944 32.5051 23.0401C31.6082 23.3859 30.7732 23.8574 29.9381 24.3603C27.433 25.9005 25.4845 25.7119 23.3196 23.7631C22.7938 23.2916 22.2062 22.8515 21.4948 22.5058C21.3402 24.0145 21.0618 25.3976 20.6598 26.812C19.7938 29.8924 18.4948 32.7842 17.134 35.6445C15.9897 38.0963 15.0309 40.5794 14.6289 43.2826C14.5051 44.1313 14.4124 45.0114 14.3196 45.8915C14.0721 45.7658 14.0103 45.5772 13.9175 45.3886C12.8969 43.5969 12.7423 41.6796 13.0825 39.6993C13.3917 37.8134 14.1031 36.116 15 34.4501C15.433 33.6643 15.835 32.9728 16.0515 32.187ZM16.7629 68.0514C17.0412 68.0514 17.3196 68.0199 17.5979 68.0199C21.1237 67.7056 22.6701 64.7824 20.9691 61.6077C20.4433 60.6019 19.7319 59.6903 19.0515 58.8102C18.0928 57.5529 17.0412 56.3899 16.299 54.9755C15.4639 53.3724 14.5979 51.8008 13.7319 50.1977C13.299 49.4119 12.7113 48.7833 12 48.2804C10.6392 47.3688 9.30926 47.526 8.22679 48.7519C7.82473 49.2233 7.42266 49.7263 7.08246 50.2606C6.40205 51.2664 5.50514 51.9265 4.36081 52.2723C3.92782 52.398 3.49483 52.5552 3.06184 52.7752C2.04122 53.2781 1.51545 54.0954 1.51545 55.2584C1.51545 55.887 1.60823 56.5157 1.70101 57.1443C1.91751 58.3702 1.94844 59.5646 1.48452 60.759C1.32988 61.1362 1.26803 61.5449 1.20617 61.9535C0.958747 63.4622 1.48452 64.2795 2.93813 64.6881C3.74225 64.9081 4.54638 65.0024 5.38143 65.0967C7.88658 65.3167 10.299 65.8197 12.5258 67.0455C13.8247 67.6742 15.2783 67.9885 16.7629 68.0514ZM41.0103 47.5889C40.0825 48.0603 39.6495 48.8147 39.3402 49.6634C38.9691 50.6692 38.7835 51.7694 38.7526 52.8381C38.6598 55.6356 38.1649 58.3387 37.299 60.9791C37.0206 61.8277 36.866 62.7079 36.7423 63.6194C36.3402 66.9512 38.9072 69.3715 42.1546 68.7429C44.1959 68.3343 45.8041 67.2027 47.134 65.6311C48.3093 64.2166 49.7319 63.1479 51.3402 62.3621C52.268 61.8906 53.1959 61.482 54.0928 60.9791C56.134 59.8475 56.4433 58.8102 54.9897 56.9872C53.7835 55.447 52.9794 53.8125 52.6701 51.9265C52.6392 51.8008 52.5773 51.6436 52.5464 51.5179C52.0515 49.9777 51.1856 49.3805 49.5773 49.3491C49.0206 49.3491 48.5567 49.4434 48.1237 49.8834C47.4742 50.5435 46.6392 51.015 45.7732 51.3293C43.6392 52.1466 42.0618 51.3607 41.3505 49.1605C41.2268 48.6576 41.134 48.1546 41.0103 47.5889ZM27.1237 15.4021C25.7938 15.4021 24.835 15.7478 24.0618 16.4393C23.134 17.2566 22.1752 18.0109 21.1856 18.7653C20.5051 19.2997 20.3814 19.9598 20.7835 20.777C21.0618 21.3428 21.5258 21.8143 22.0515 22.1286C22.8557 22.6315 23.5979 23.2287 24.2783 23.8888C25.1443 24.6746 26.1649 24.9261 27.3093 24.8318C28.1752 24.7375 28.9484 24.4232 29.6598 23.9517C30.4948 23.4173 31.3299 22.9144 32.2577 22.5687C32.9072 22.3486 33.4639 21.94 33.9588 21.4371C35.3196 20.0855 35.0722 18.671 33.3402 17.8852C33.0928 17.7595 32.8144 17.6338 32.567 17.5709C31.5155 17.2251 30.5258 16.7851 29.567 16.1879C28.7629 15.6849 27.866 15.4021 27.1237 15.4021ZM32.134 16.8479C32.5979 17.0365 33.0309 17.1937 33.4639 17.3823C33.7113 17.508 33.866 17.4137 34.0206 17.1937C35.3196 15.4021 35.0412 12.1331 33.4021 10.6558C32.1959 9.52419 30.6185 9.52419 29.4433 10.6558C28.299 11.7559 27.9278 13.1704 28.0206 14.7105C28.0206 14.8677 28.0515 14.9934 28.2062 15.0563C28.701 15.2135 29.2268 15.3706 29.7835 15.5592C29.7526 14.6791 29.8144 13.9247 30.2474 13.2332C30.8969 12.2274 31.9484 12.2588 32.4742 13.3275C33.0309 14.5534 33 15.7164 32.134 16.8479ZM24.2474 15.6221C24.6495 15.4649 24.9897 15.3078 25.3608 15.1506C25.5773 15.0563 25.6082 14.8991 25.6082 14.7105C25.6082 13.5475 25.3917 12.4474 24.6804 11.473C23.6289 10.09 22.1443 10.1843 21.2474 11.693C20.3505 13.2332 20.4742 15.7792 21.5567 17.1937C21.6495 17.3194 21.7423 17.4766 21.9278 17.508C22.2062 17.3509 22.4845 17.1623 22.701 16.8794C21.9897 16.0307 21.8041 15.0563 22.0515 13.9876C22.1752 13.5161 22.3608 13.0446 22.9175 13.0132C23.4742 12.9818 23.6907 13.4218 23.9072 13.8619C24.1856 14.4277 24.1856 14.9934 24.2474 15.6221Z" fill="#39395B"/>
<path d="M24.1236 14.0506C24.0927 13.9249 24.0309 13.7991 23.969 13.642C23.9071 13.5163 23.8453 13.3905 23.7216 13.2648C23.6288 13.1391 23.4742 13.0133 23.3195 12.9819C23.1649 12.919 22.9793 12.919 22.8247 12.9505C22.5463 12.9819 22.3298 13.1705 22.1752 13.422C22.0515 13.642 21.9587 13.862 21.9278 14.1135C21.804 14.5535 21.7731 15.0564 21.835 15.5279C21.8968 15.9994 22.0824 16.4709 22.3607 16.8481L22.4226 16.911L22.3298 16.9738C22.268 17.0367 22.1752 17.0996 22.0824 17.1624L21.9587 17.2253C21.9278 17.2567 21.9587 17.2253 21.9278 17.2253C21.9278 17.2253 21.9278 17.2567 21.835 17.131C21.7422 17.0367 21.6803 16.911 21.6185 16.8167C21.5566 16.7224 21.4948 16.5966 21.4329 16.4709C21.3711 16.3452 21.3401 16.2509 21.2783 16.1251C21.0927 15.6537 20.9999 15.1193 20.9381 14.6164C20.8453 13.5791 21.0309 12.5104 21.5876 11.6617C21.7113 11.4417 21.8968 11.2531 22.0824 11.1274C22.268 10.9702 22.4535 10.8759 22.67 10.8131C23.103 10.7188 23.5669 10.8445 23.9381 11.1274C24.3092 11.4103 24.6185 11.8503 24.835 12.3218C25.0515 12.7933 25.1752 13.2962 25.237 13.7991C25.268 14.082 25.2989 14.3964 25.2989 14.7107C25.2989 14.7736 25.2989 14.805 25.2989 14.8364C25.2989 14.8678 25.2989 14.8678 25.268 14.8678C25.268 14.8678 25.1752 14.9307 25.1133 14.9307C25.0515 14.9621 24.9896 14.9936 24.9278 15.025C24.4638 15.245 24.1546 15.4651 24.2164 15.5279C24.2783 15.6222 24.5876 15.5594 25.0824 15.4336C25.1443 15.4022 25.2061 15.4022 25.268 15.3708L25.3607 15.4022C25.3917 15.4022 25.4226 15.3708 25.4845 15.3708C25.5772 15.3393 25.701 15.245 25.7628 15.1193C25.8247 14.9936 25.8556 14.8993 25.8556 14.7736C25.8865 14.4278 25.8556 14.082 25.8247 13.7048C25.7628 13.1705 25.6391 12.6361 25.3917 12.1647C25.2061 11.756 24.9587 11.3789 24.6494 11.0645C24.3401 10.7502 23.9381 10.4673 23.4742 10.3416C23.0102 10.2159 22.4845 10.3101 22.0824 10.5616C21.6494 10.8131 21.3401 11.1903 21.0927 11.5674C20.5979 12.3847 20.4123 13.3591 20.4432 14.3335C20.4741 15.3079 20.7216 16.3452 21.3401 17.2567C21.3711 17.2881 21.402 17.3196 21.4329 17.3824C21.4638 17.4139 21.4948 17.4767 21.5257 17.5082C21.5566 17.571 21.5876 17.6025 21.7113 17.6968C21.804 17.7596 21.9278 17.7911 22.0515 17.8225C22.1443 17.7911 22.237 17.7282 22.2989 17.6968C22.3607 17.6653 22.3917 17.6339 22.4535 17.6025C22.5463 17.5396 22.67 17.4453 22.7628 17.3824L22.8556 17.2881L22.9793 17.1624L23.103 17.0367L23.1339 17.0053C23.1339 17.0053 23.1339 16.9738 23.103 16.9738L23.0412 16.911C22.9793 16.8167 22.9174 16.7224 22.8556 16.6281C22.8247 16.5652 22.7937 16.5338 22.7628 16.4709C22.5154 16.0623 22.3298 15.5908 22.3298 15.0564C22.3298 14.805 22.3607 14.5221 22.4226 14.2706C22.4845 13.9877 22.5772 13.7363 22.701 13.5791C22.7628 13.4848 22.8556 13.4534 22.9484 13.422C23.0412 13.3905 23.1649 13.3905 23.2577 13.422C23.4432 13.4534 23.5979 13.642 23.7216 13.9249C23.8144 14.1135 23.9071 14.2706 23.9381 14.4592C23.9999 14.6478 24.0309 14.8364 24.0618 15.025C24.1236 15.3708 24.1546 15.6537 24.2473 15.7165C24.3092 15.748 24.3401 15.5279 24.3711 15.2136C24.2473 14.805 24.2164 14.3649 24.1236 14.0506Z" fill="#39395B"/>
<path d="M32.9379 15.1822C33.0307 14.5222 32.8452 13.7363 32.5049 13.1077C32.3812 12.9191 32.2266 12.7305 32.041 12.5733C31.8555 12.4162 31.608 12.3533 31.3606 12.3533C30.8348 12.3533 30.4019 12.6676 30.1544 13.0448C29.8761 13.422 29.6905 13.8621 29.6287 14.3021C29.5977 14.5222 29.5668 14.7422 29.5668 14.9622V15.1194V15.1822V15.2137H29.5359L29.3812 15.1822L28.8864 15.0251L28.3915 14.8679L28.3297 14.8365C28.2988 14.8365 28.3297 14.805 28.2988 14.8365C28.2678 14.8679 28.2678 14.8679 28.3297 14.8365C28.3297 14.8365 28.3297 14.7736 28.3297 14.7107C28.2988 14.0192 28.3606 13.3592 28.5462 12.6991C28.7318 12.0704 29.072 11.4732 29.5359 11.0017C29.9998 10.5302 30.5565 10.1845 31.1751 10.1216C31.7936 10.0587 32.4122 10.2473 32.9379 10.656C33.4637 11.0332 33.8348 11.5989 34.1132 12.1962C34.3606 12.8248 34.5153 13.4849 34.5462 14.145C34.5771 14.805 34.4843 15.4966 34.2678 16.1252C34.1751 16.4395 33.9895 16.7539 33.8039 17.0367C33.773 17.0996 33.7111 17.131 33.7111 17.131C33.7111 17.131 33.7111 17.131 33.6493 17.131C33.4946 17.0682 33.34 17.0367 33.2163 16.9739C32.6287 16.7853 32.2266 16.6596 32.1957 16.7539C32.1647 16.8482 32.5049 17.0682 33.0307 17.3511C33.1544 17.4139 33.2781 17.4768 33.4637 17.5711C33.5565 17.6025 33.7111 17.6654 33.8967 17.6025C34.0513 17.5397 34.1441 17.4454 34.2369 17.3511C34.4843 17.0053 34.7317 16.6281 34.8555 16.1881C35.072 15.5909 35.1647 14.9308 35.1647 14.3021C35.1338 13.2649 34.8864 12.1962 34.3297 11.2846C34.0513 10.8131 33.6802 10.4045 33.2163 10.0902C32.7833 9.77586 32.2266 9.55583 31.6699 9.49297C31.1132 9.46153 30.4946 9.58726 29.9998 9.90159C29.474 10.1845 29.072 10.6245 28.7318 11.096C28.3915 11.5989 28.1441 12.1647 27.9895 12.7619C27.8348 13.3592 27.8348 13.9878 27.8658 14.6164C27.8658 14.6793 27.8658 14.7736 27.8967 14.8993C27.9276 15.0251 28.0513 15.1508 28.175 15.1822C28.3297 15.2451 28.4843 15.2765 28.639 15.3394C29.041 15.4651 29.5049 15.6223 30.0926 15.8109C30.0926 15.6223 30.0926 15.4023 30.0926 15.1822C30.0926 15.1194 30.0926 15.0251 30.0926 14.9622C30.0926 14.8993 30.0926 14.8365 30.0926 14.805C30.0926 14.585 30.1235 14.3336 30.1854 14.1135C30.2781 13.6735 30.5256 13.1706 30.8967 12.8877C31.0823 12.7619 31.2988 12.6676 31.5153 12.6991C31.7318 12.7305 31.9173 12.8562 32.072 13.0448C32.1029 13.1077 32.1338 13.1391 32.1957 13.202L32.2885 13.3592C32.3503 13.4849 32.4122 13.6106 32.4431 13.7363C32.5359 13.9878 32.5977 14.2707 32.6287 14.5536C32.6596 15.0251 32.5668 15.4966 32.4122 15.8737C32.2575 16.2509 32.072 16.5338 32.1029 16.6281C32.1338 16.691 32.3194 16.5338 32.5359 16.2195C32.6596 16.0623 32.7524 15.8737 32.8452 15.6537C32.8761 15.5909 32.907 15.3708 32.9379 15.1822Z" fill="#39395B"/>
<path d="M29.2576 16.1565C29.9071 16.5965 30.7112 17.0366 31.5154 17.3824C32.0411 17.6024 32.5978 17.791 33.0927 18.011C33.5875 18.231 34.0515 18.5139 34.3607 18.9225C34.67 19.3312 34.7009 19.8655 34.4844 20.3056C34.2679 20.7771 33.9277 21.1857 33.4948 21.5314C33.0927 21.8772 32.6288 22.1601 32.1339 22.3172C31.5772 22.5058 31.0515 22.7573 30.5566 23.0402C30.0618 23.3231 29.5669 23.6688 29.103 23.9203C28.6391 24.1718 28.1133 24.3604 27.5875 24.4546C27.0618 24.5489 26.5051 24.5489 26.0102 24.4232C25.4844 24.3289 25.0205 24.0775 24.6185 23.7631C24.2164 23.4174 23.7834 23.0088 23.3195 22.663C23.103 22.4744 22.8556 22.3172 22.6082 22.1601C22.4844 22.0658 22.3607 22.0029 22.237 21.9086C22.1133 21.8458 22.0205 21.7515 21.8968 21.6886C21.4948 21.3743 21.1236 20.9656 20.9381 20.4942C20.7216 20.0227 20.7834 19.5512 21.1236 19.2054C21.2783 19.0483 21.5257 18.8597 21.7422 18.7025L22.4226 18.1682C22.8556 17.8224 23.3195 17.4452 23.7525 17.0995C23.9381 16.9423 24.0927 16.7851 24.2783 16.628C24.4329 16.4708 24.6185 16.3451 24.804 16.2508C25.1752 16.0308 25.5463 15.8736 25.9174 15.7793C26.6288 15.5907 27.1545 15.5593 27.1236 15.465C27.0927 15.3707 26.6288 15.2449 25.8556 15.3392C25.4844 15.4021 25.0205 15.5278 24.5875 15.7479C24.371 15.8736 24.1545 16.0308 23.9381 16.1879C23.7525 16.3451 23.536 16.5337 23.3504 16.6908C22.7937 17.1623 22.2061 17.6338 21.6185 18.0739L21.2473 18.3568C21.1236 18.4511 20.9999 18.5454 20.8762 18.6711C20.6288 18.9225 20.4123 19.2369 20.3195 19.6141C20.2576 19.9912 20.3504 20.3684 20.4741 20.6828C20.6288 20.9971 20.7834 21.28 21.0308 21.5314C21.2473 21.7829 21.4948 22.0029 21.7731 22.1915C22.0515 22.3801 22.2989 22.5373 22.5772 22.7259C23.103 23.1031 23.5669 23.5117 24.0618 23.9517C24.5566 24.4232 25.2061 24.8004 25.9174 24.9261C26.6288 25.0833 27.3401 25.0519 28.0515 24.8633C28.7628 24.7061 29.4432 24.3289 30.0308 23.9203C30.6494 23.5431 31.2679 23.1659 31.9484 22.883C32.103 22.8202 32.2576 22.7573 32.4741 22.6944C32.6597 22.6316 32.8453 22.5373 33.0308 22.443C33.402 22.2544 33.7422 21.9715 34.0515 21.6886C34.3607 21.3743 34.67 21.0285 34.8865 20.5885C35.103 20.1484 35.1958 19.5826 35.0102 19.0483C34.8246 18.5454 34.4226 18.1367 33.9896 17.8853C33.5566 17.6024 33.0927 17.4452 32.6288 17.2566C31.7319 16.9423 30.835 16.5651 29.9999 16.0622C29.7525 15.905 29.4432 15.7164 29.1339 15.5907C28.8246 15.465 28.5154 15.3392 28.237 15.2764C27.6803 15.1507 27.2164 15.1821 27.1545 15.2449C27.0927 15.3078 27.4329 15.3392 27.8659 15.465C28.2989 15.6536 28.8556 15.905 29.2576 16.1565Z" fill="#39395B"/>
<path d="M42.8969 51.3607C43.2371 51.5493 43.6083 51.675 44.0103 51.7064C44.4124 51.7379 44.8145 51.7064 45.2165 51.6121C46.0206 51.4236 46.7629 51.0778 47.4433 50.6377C47.6598 50.4806 47.8763 50.3234 48.0928 50.1348C48.3093 49.9462 48.4639 49.7576 48.6804 49.6633C49.0825 49.4433 49.6083 49.4747 50.1031 49.5062C50.598 49.569 51.0619 49.7262 51.433 50.0091C51.8041 50.292 52.0516 50.732 52.2371 51.2035C52.299 51.3293 52.3299 51.4236 52.3608 51.5807C52.3918 51.7064 52.4536 51.8322 52.4536 51.9265C52.4846 52.2094 52.5464 52.4608 52.6083 52.7123C52.732 53.2466 52.8866 53.7496 53.1031 54.2525C53.5052 55.2583 54.0928 56.2013 54.7423 57.05C55.0516 57.4586 55.3608 57.8672 55.5155 58.3073C55.6701 58.7473 55.6392 59.1874 55.3608 59.5645C55.0825 59.9417 54.6804 60.2246 54.2474 60.5075C54.0309 60.6333 53.8145 60.759 53.567 60.8847L52.8557 61.2305L51.4639 61.922C51 62.142 50.5052 62.3935 50.0722 62.6764C49.1753 63.2421 48.3093 63.9022 47.567 64.688C47.1959 65.0652 46.8557 65.5053 46.4846 65.851C46.1444 66.2282 45.7423 66.574 45.3402 66.8883C44.5361 67.517 43.6392 67.9884 42.6495 68.2713C42.4021 68.3342 42.1547 68.3971 41.9072 68.4285L41.5361 68.4914C41.4124 68.5228 41.2887 68.4914 41.165 68.5228C40.9175 68.5542 40.6701 68.4914 40.4227 68.4914C40.299 68.4599 40.1753 68.4285 40.0516 68.4285L39.866 68.3971L39.6804 68.3342C39.2165 68.177 38.7835 67.957 38.4124 67.6427C38.2268 67.4855 38.0413 67.2969 37.8866 67.1398C37.732 66.9512 37.5773 66.7626 37.4846 66.5425C37.3608 66.3225 37.2681 66.1025 37.1753 65.8825C37.1134 65.631 37.0206 65.411 36.9897 65.1595C36.8969 64.6566 36.9279 64.1537 36.9588 63.6508C37.0206 63.1164 37.1134 62.6135 37.2062 62.1106C37.299 61.6077 37.4846 61.1362 37.6392 60.6018C38.2887 58.5587 38.6907 56.4527 38.8763 54.3153C38.9072 53.8753 38.9382 53.4352 38.9382 52.9952C38.9382 52.5551 38.9691 52.1465 39.0309 51.7379C39.1547 50.9206 39.3712 50.1348 39.6186 49.4747C39.866 48.8461 40.2062 48.3746 40.5155 48.1231C40.7938 47.8403 41.0103 47.746 40.9485 47.6831C40.9175 47.6517 40.6701 47.7145 40.3299 47.9346C39.9897 48.1546 39.5567 48.5946 39.2474 49.2547C38.9382 49.9148 38.6907 50.7006 38.5361 51.6121C38.4742 52.0522 38.4124 52.5551 38.4124 53.0266C38.3815 53.4981 38.3505 53.9696 38.3196 54.4725C38.1959 55.8555 37.9794 57.2071 37.6701 58.5587C37.5464 59.1245 37.3918 59.6588 37.2371 60.2246C37.1444 60.5075 37.0825 60.759 36.9897 61.0419C36.8969 61.3248 36.8351 61.6077 36.7423 61.8905C36.6186 62.4563 36.5258 63.0535 36.4639 63.6508C36.4021 64.248 36.4021 64.8766 36.5567 65.4738C36.8351 66.6683 37.5464 67.8313 38.6289 68.4599C39.1547 68.7743 39.7732 68.9943 40.3918 69.0886C41.0103 69.1829 41.6598 69.12 42.2784 69.0257C43.5155 68.7743 44.6907 68.2085 45.6804 67.4227C46.1753 67.014 46.6701 66.574 47.1031 66.1025C47.5361 65.5996 47.9382 65.1595 48.4021 64.7195C49.3299 63.8708 50.4124 63.1478 51.6186 62.5506C52.2062 62.2363 52.8248 61.922 53.4433 61.6077C54.0619 61.2933 54.6804 60.979 55.2681 60.5075C55.5464 60.2875 55.7938 60.0046 55.9794 59.6274C56.165 59.2502 56.165 58.8102 56.0722 58.4016C55.8557 57.6157 55.299 56.9871 54.866 56.3899C53.9691 55.164 53.2578 53.6553 52.9794 51.9893C52.9794 51.895 52.9485 51.7379 52.8866 51.6436L52.7938 51.3293C52.732 51.1092 52.6392 50.8892 52.5155 50.7006C52.299 50.292 51.9897 49.8834 51.5877 49.6005C51.1856 49.3176 50.6907 49.1919 50.2268 49.129C49.9794 49.0976 49.7629 49.0976 49.5155 49.0976C49.2681 49.0976 49.0206 49.129 48.7732 49.1919C48.5258 49.2861 48.2784 49.4119 48.0928 49.6005L47.8454 49.8519C47.7526 49.9148 47.6907 50.0091 47.598 50.072C47.2578 50.3549 46.8866 50.5749 46.4846 50.7635C45.6804 51.1407 44.8454 51.455 44.0103 51.3607C43.4846 51.2978 42.9897 51.1092 42.5876 50.732C42.1856 50.3548 41.9382 49.8834 41.7526 49.4433C41.567 49.0033 41.4433 48.5632 41.3505 48.2489C41.2578 47.9346 41.165 47.7145 41.134 47.6517C41.1031 47.5888 41.1031 47.746 41.134 47.966C41.165 48.2174 41.2268 48.5946 41.3196 49.0033C41.4433 49.4119 41.598 49.9148 41.8454 50.3548C42.0928 50.732 42.4639 51.1407 42.8969 51.3607Z" fill="#39395B"/>
<path d="M12.8349 67.014C12.2163 66.6682 11.5359 66.3225 10.8246 66.0396C10.1132 65.7567 9.34005 65.5367 8.59778 65.3481C7.60809 65.128 6.58747 64.9709 5.59778 64.8451C4.60809 64.7508 3.58747 64.6251 2.69057 64.3108C2.25758 64.1536 1.85551 63.8707 1.63902 63.4935C1.42252 63.1164 1.3916 62.6134 1.45345 62.142C1.48438 61.8905 1.51531 61.639 1.57716 61.419C1.63902 61.1675 1.70087 60.979 1.79366 60.7275C1.97923 60.2246 2.10294 59.6902 2.13386 59.1559C2.16479 58.6215 2.13386 58.0872 2.07201 57.5528C2.01015 57.0185 1.88644 56.547 1.85551 56.0441C1.82459 55.5411 1.79366 55.0382 1.88644 54.5982C1.97923 54.1581 2.22665 53.7495 2.56685 53.4352C2.90706 53.1209 3.34005 52.9323 3.80397 52.7437C4.02046 52.6494 4.26789 52.5865 4.51531 52.4922C4.76273 52.3979 5.01015 52.3036 5.25758 52.2093C5.75242 51.9893 6.18541 51.675 6.58747 51.2978C6.77304 51.1092 6.95861 50.9206 7.14417 50.7006C7.23696 50.6063 7.29881 50.4805 7.3916 50.3862L7.60809 50.0719C7.88644 49.6633 8.19572 49.2547 8.53593 48.9089C8.8452 48.5632 9.21634 48.2488 9.64933 48.0917C10.0823 47.9345 10.5153 47.9345 10.9483 48.0288C11.3813 48.1545 11.7833 48.3746 12.1854 48.6889C12.5565 48.9718 12.8968 49.3175 13.206 49.7261C13.3607 49.9147 13.4844 50.1348 13.6081 50.3548L13.9792 51.0149L15.4328 53.7181L16.1751 55.0697C16.4225 55.5411 16.7009 55.9812 17.0102 56.3898C17.5978 57.2385 18.2782 58.0243 18.8967 58.8415C19.5153 59.6588 20.1339 60.4446 20.6287 61.3247C20.7524 61.5447 20.8761 61.7648 20.9689 61.9848C21.0308 62.1105 21.0617 62.2048 21.1236 62.3305L21.2473 62.6763C21.34 62.8963 21.371 63.1478 21.4328 63.3678L21.4638 63.7136L21.4947 63.9022V64.0908C21.4947 64.8451 21.2782 65.6624 20.7833 66.2596C20.3194 66.8568 19.6699 67.2654 19.0514 67.4855C18.4328 67.7055 17.8761 67.7998 17.4741 67.8627C17.072 67.9255 16.8555 67.9569 16.8864 68.0198C16.9174 68.0827 17.1339 68.1141 17.5359 68.1141C17.9071 68.1455 18.4947 68.1141 19.1442 67.9255C19.7937 67.7369 20.5669 67.3597 21.1545 66.6368C21.773 65.9453 22.1132 64.908 22.0823 63.9022C22.0514 63.1792 21.8349 62.4877 21.5565 61.8591C21.2782 61.199 20.8761 60.6332 20.505 60.0988C19.8555 59.1873 19.1442 58.3072 18.4638 57.4585C17.7524 56.5784 17.1029 55.6983 16.5772 54.7239C16.0514 53.7181 15.4947 52.7122 14.938 51.7064C14.6596 51.2035 14.3813 50.7006 14.1029 50.1662C13.8246 49.6319 13.4535 49.1289 12.9895 48.7203C12.5565 48.3117 12.0308 47.9345 11.4431 47.683C10.8555 47.463 10.1442 47.4002 9.52562 47.6516C8.90706 47.8716 8.38129 48.3431 8.01015 48.846C7.60809 49.3175 7.23696 49.8519 6.89675 50.3548C6.52562 50.8263 6.09263 51.2663 5.56685 51.5807C5.31943 51.7378 5.04108 51.8636 4.7318 51.9893C4.45345 52.0836 4.11325 52.1779 3.80397 52.3036C3.49469 52.4293 3.18541 52.5551 2.87613 52.7122C2.56685 52.9008 2.2885 53.1208 2.04108 53.4037C1.54624 53.9695 1.3916 54.7553 1.42252 55.4468C1.42252 56.1069 1.54624 56.8299 1.66995 57.5214C1.76273 58.2129 1.82459 58.9358 1.70087 59.6588C1.63902 60.0045 1.54624 60.3817 1.3916 60.7275C1.23696 61.1361 1.1751 61.5447 1.11325 61.9219C1.05139 62.3305 1.02046 62.7706 1.11325 63.2107C1.1751 63.4307 1.23696 63.6507 1.36067 63.8707C1.48438 64.0593 1.63902 64.2479 1.82459 64.4051C2.19572 64.688 2.62871 64.8766 3.03077 64.9709C3.43283 65.0966 3.86582 65.1595 4.29881 65.2223C5.16479 65.3481 5.99984 65.3795 6.86582 65.5367C8.56685 65.7881 10.2679 66.1967 11.8452 66.9511C12.0926 67.0768 12.3401 67.2026 12.5875 67.3283C12.8349 67.454 13.1132 67.5798 13.3916 67.7055C13.9483 67.9255 14.4741 68.0513 14.9689 68.1455C15.9586 68.3341 16.7009 68.3027 16.8555 68.2084C16.9792 68.1455 16.3916 68.1141 15.5565 67.957C14.6287 67.7369 13.6081 67.4226 12.8349 67.014Z" fill="#39395B"/>
<path d="M13.268 43.9112C13.3608 44.1626 13.4536 44.4141 13.5464 44.6656L13.7319 45.0427L13.9484 45.4514C14.0412 45.64 14.134 45.7343 14.2577 45.8286C14.3196 45.86 14.3814 45.9229 14.4742 45.9543C14.5051 45.8914 14.5051 45.8286 14.5361 45.7657L14.567 45.6714V45.6085V45.5457L14.5979 45.2628L14.6598 44.7913C14.7216 44.2255 14.7835 43.6912 14.8763 43.1254C14.9691 42.5596 15.0928 42.0252 15.2165 41.4595C15.7732 39.2277 16.701 37.0903 17.6598 35.0472C18.6804 32.9098 19.6392 30.7096 20.4124 28.4464C20.7835 27.3149 21.1546 26.1833 21.3711 24.9889C21.4948 24.3916 21.5876 23.7944 21.6804 23.2286L21.7113 22.8829C21.7113 22.8515 21.7113 22.7886 21.7423 22.82C21.7423 22.82 22.0825 23.0086 22.299 23.1658C22.7629 23.4801 23.1959 23.8887 23.6598 24.2659C24.1237 24.6431 24.6495 24.9889 25.2062 25.2089C25.7629 25.4604 26.3814 25.5861 27 25.5546C27.6185 25.5546 28.2371 25.3975 28.7938 25.1775C29.0722 25.0517 29.3505 24.926 29.6289 24.8003C29.8763 24.6431 30.1546 24.4859 30.402 24.3602C30.8969 24.0459 31.3917 23.763 31.9175 23.543C32.1959 23.4172 32.4433 23.3229 32.7216 23.1972C33 23.0715 33.2783 22.9458 33.5567 22.7886C33.8041 22.6314 34.0515 22.4428 34.299 22.2228C34.4227 22.1285 34.5154 22.0028 34.6392 21.9085L34.7319 21.8142L34.7629 21.8456V21.8771L34.7938 21.9399C34.8247 22.0971 34.8866 22.3485 34.9484 22.5371C35.0722 22.9143 35.1649 23.2915 35.2886 23.6687C35.5361 24.4231 35.7835 25.1775 36.0309 25.9318C36.5567 27.4406 37.1134 28.9179 37.7319 30.3952C38.3505 31.8726 39 33.287 39.7113 34.7329C40.0825 35.4559 40.4227 36.1474 40.7629 36.8389C41.0722 37.5618 41.3814 38.2848 41.6289 39.0077C41.8763 39.7621 42.0928 40.485 42.2783 41.2709C42.3711 41.648 42.4639 42.0252 42.5258 42.4339C42.5876 42.6539 42.6185 42.8739 42.835 43.0939C42.9278 43.1882 43.0825 43.2825 43.2062 43.314C43.3299 43.3454 43.4536 43.3768 43.5773 43.3768H43.7319C43.7629 43.3768 43.8247 43.3768 43.8557 43.3768C43.9484 43.3768 44.0412 43.4083 44.134 43.4397L44.4124 43.5026L44.567 43.534L44.6289 43.4083C44.6598 43.314 44.7216 43.2511 44.7526 43.1568L44.8144 42.9996C44.9691 42.591 45.0618 42.1824 45.1237 41.7738C45.2474 40.9565 45.2165 40.1393 45.1546 39.322C45.0309 37.6876 44.5361 36.1159 43.7629 34.7015C43.3917 33.9785 42.9278 33.3185 42.4639 32.6584C42.2165 32.3441 41.9691 32.0297 41.6907 31.7154C41.567 31.5582 41.3814 31.4011 41.2886 31.2753C41.1649 31.1496 41.1031 31.0239 41.1031 30.9296L41.0103 31.1811C40.9794 31.1496 40.9794 31.0868 40.9794 31.0868C40.9794 31.0868 40.9794 31.1182 40.9484 31.1182C40.9484 31.1182 40.9484 31.1496 40.9175 31.1496C40.9175 31.1496 40.8866 31.1811 40.9175 31.1811C40.9175 31.1811 41.0412 31.3068 41.1031 31.3696L41.5051 31.8097C41.7835 32.124 42.0309 32.4069 42.2783 32.7212C42.7732 33.3499 43.268 34.01 43.6701 34.7015C44.5051 36.0845 45.1237 37.5933 45.433 39.1649C45.5876 39.9507 45.6804 40.7679 45.6804 41.5537C45.6804 41.9624 45.6804 42.3396 45.6185 42.7167C45.5876 42.811 45.5876 42.9053 45.5567 42.9996C45.5258 43.1254 45.4948 43.2511 45.4948 43.3768C45.4948 43.534 45.5258 43.6912 45.6495 43.8169C45.7423 43.9426 45.866 44.0369 45.9588 44.0998C46.1752 44.2255 46.3608 44.2884 46.5154 44.3827C46.701 44.477 46.8866 44.5713 47.0412 44.6656C47.3814 44.8542 47.7216 45.0742 48.0309 45.2942C48.6495 45.7657 49.268 46.3 49.5154 46.9601C49.5773 47.1173 49.6082 47.3059 49.6392 47.4945C49.6392 47.5888 49.6392 47.6831 49.6392 47.7774V47.9345C49.6392 47.4945 49.4845 46.9916 49.2371 46.6144C48.9587 46.2372 48.6185 45.9543 48.2783 45.7028C47.567 45.2313 46.8557 44.8542 46.0825 44.5084C45.3093 44.1941 44.5051 43.9426 43.6392 43.8798C43.2062 43.8483 42.7423 43.8797 42.3093 44.0683C42.0928 44.1626 41.9072 44.2884 41.7216 44.4455C41.567 44.6027 41.4124 44.7913 41.2886 45.0113C41.1649 45.1999 41.1031 45.4199 41.0103 45.64C40.9794 45.7343 40.9484 45.86 40.9175 45.9543L40.8557 46.2372C40.8247 46.3315 40.8247 46.3629 40.7938 46.3629C40.7938 46.3629 40.7629 46.3943 40.7319 46.3943L40.6082 46.4572C40.4227 46.5515 40.2371 46.6458 40.0515 46.7715C39.3093 47.243 38.7835 47.9974 38.4433 48.7832C38.1031 49.569 37.9175 50.3863 37.7629 51.2349C37.6082 52.0522 37.5464 52.9009 37.4845 53.7181L37.4227 54.944C37.3917 55.3526 37.3917 55.7612 37.3299 56.1384C37.2062 56.9242 36.9897 57.71 36.7732 58.4958L36.6185 59.093L36.5876 59.2502L36.5567 59.3131C36.5567 59.3445 36.5567 59.3445 36.5567 59.3445C36.5258 59.3759 36.4948 59.4388 36.4639 59.4702C36.402 59.5017 36.3093 59.5645 36.2474 59.6274L36 59.7846C35.8453 59.9103 35.6598 60.0046 35.4742 60.0989C34.7938 60.5075 34.0825 60.8847 33.3402 61.199C32.5979 61.5133 31.8557 61.7648 31.0825 61.9534C29.5361 62.3306 27.9278 62.3934 26.3814 62.1734C25.6082 62.0477 24.8041 61.8591 24.0928 61.5762C23.3505 61.2933 22.6392 60.9161 21.9897 60.5075C21.7113 60.3503 21.5258 60.0046 21.2783 59.6588L20.5361 58.653L20.1649 58.1501L20.134 58.0872L20.3814 58.0243C20.567 57.9929 20.8144 57.93 21 57.8357C21.433 57.6471 21.8041 57.3014 21.9897 56.8613C22.2062 56.4213 22.2062 55.9184 22.1134 55.4783C21.9587 54.5982 21.5258 53.8124 21.0309 53.1523C20.0412 51.8007 18.7732 50.6692 17.4433 49.7262C16.9794 49.3804 16.5155 49.0661 16.0515 48.7832C15.8041 48.626 15.5876 48.4689 15.3711 48.3117C15.1546 48.1546 14.9381 47.966 14.7216 47.7774C13.8866 47.0544 13.2062 46.1429 12.8041 45.137C12.402 44.1312 12.2783 43.0311 12.3402 41.9624C12.402 40.9251 12.6185 39.8878 12.8969 38.9763C13.4536 37.1218 14.2268 35.5502 14.8144 34.3872C15.433 33.2242 15.8969 32.4383 16.0206 32.0926L15.8969 32.124C16.0206 32.1869 16.0825 32.1869 16.0825 32.1869C16.0825 32.1555 16.0206 32.124 15.9587 32.0612C15.7423 32.3441 15.2474 33.0356 14.6289 34.1043C14.0103 35.173 13.2062 36.6503 12.5567 38.5048C12.2474 39.4478 11.9691 40.4536 11.8453 41.5852C11.7216 42.7168 11.7835 43.9426 12.2165 45.1056C12.6185 46.3 13.4227 47.3687 14.3814 48.2489C14.8763 48.6889 15.433 49.0661 15.9587 49.4119C16.5155 49.7576 17.0412 50.1348 17.5361 50.5434C18.3093 51.1406 19.0515 51.7693 19.701 52.4922C20.3505 53.2152 20.9691 53.9696 21.3093 54.8497C21.4639 55.2897 21.5876 55.7612 21.5567 56.1698C21.5258 56.6099 21.3093 56.9556 20.9691 57.2071C20.8144 57.3328 20.5979 57.4271 20.3814 57.4586C20.2886 57.49 20.1649 57.5214 20.0412 57.5214L19.4227 57.6471L19.0515 57.71L19.268 57.9929L19.6392 58.5273L20.0722 59.1245L20.6598 59.9103C20.8453 60.1617 21 60.4446 21.2783 60.7275C21.4021 60.8533 21.5876 60.979 21.7113 61.0733L22.1443 61.3247C22.4227 61.4819 22.7319 61.6391 23.0103 61.7962C23.5979 62.0791 24.2474 62.3306 24.8969 62.4563C25.5464 62.6449 26.1959 62.7392 26.8453 62.8335C28.1752 62.9592 29.5051 62.8964 30.8041 62.6135C32.1031 62.3306 33.3402 61.8277 34.5464 61.2304C35.134 60.9161 35.7216 60.6018 36.2783 60.2246C36.433 60.1303 36.5567 60.0674 36.7113 59.9417C36.8041 59.8788 36.866 59.816 36.9278 59.6903C36.9897 59.596 37.0206 59.4388 37.0515 59.3759L37.3299 58.4015C37.5154 57.7414 37.6701 57.1128 37.7938 56.4213C37.8557 56.0755 37.8866 55.7298 37.9175 55.384L37.9794 54.3782C38.0412 53.0266 38.1649 51.7064 38.4742 50.3863C38.6289 49.7262 38.8453 49.0975 39.1546 48.5317C39.4639 47.966 39.8969 47.463 40.4227 47.1173C40.5464 47.023 40.701 46.9601 40.8247 46.8973L40.9175 46.8344C40.9484 46.803 41.0103 46.7715 41.0722 46.7401C41.1649 46.6772 41.2577 46.5515 41.3196 46.4258C41.4124 46.2057 41.4124 46.0486 41.4433 45.8914C41.4742 45.7343 41.5361 45.5771 41.5979 45.4514C41.8144 44.8542 42.3093 44.4455 42.9278 44.3512C43.5464 44.2569 44.2268 44.3827 44.8453 44.5398C45.4948 44.7284 46.1134 44.9799 46.701 45.2942C47.2886 45.6085 47.9072 45.9543 48.402 46.3943C48.6495 46.6144 48.835 46.8658 48.9587 47.1487C49.0206 47.3059 49.0515 47.4316 49.0825 47.5888C49.0825 47.6831 49.1134 47.7459 49.0825 47.8402C49.0825 47.9031 49.0825 47.9974 49.0825 48.0917V48.1546C49.0825 48.186 49.0825 48.186 49.0825 48.186L49.1134 48.2489L49.1443 48.406V48.4375C49.1443 48.4375 49.1443 48.4689 49.1752 48.4689L49.268 48.5003C49.3917 48.5317 49.5154 48.5632 49.6392 48.5317C49.9175 48.5003 50.0722 48.2803 50.134 47.9345C50.1649 47.8402 50.1649 47.8088 50.1649 47.7459C50.1649 47.6831 50.1649 47.6516 50.1649 47.5888C50.1649 47.4945 50.1649 47.4002 50.1649 47.3059C50.1649 47.1173 50.1031 46.9287 50.0412 46.7401C49.7938 45.9857 49.2062 45.4199 48.6495 44.9799C48.0618 44.5084 47.4433 44.1626 46.7938 43.8169C46.4845 43.6597 46.0825 43.5026 46.0206 43.3454C45.9897 43.2825 45.9897 43.1568 46.0206 42.9996C46.0825 42.811 46.1134 42.6225 46.1134 42.4339C46.1443 42.0567 46.1752 41.6795 46.1443 41.3023L46.1134 40.7365L46.0515 40.1707C45.9587 39.4163 45.835 38.6934 45.6495 37.9705C45.2474 36.5246 44.6289 35.1415 43.7938 33.8842C43.3917 33.2556 42.9587 32.6269 42.4639 32.0612C42.2165 31.7783 41.9691 31.4954 41.7216 31.2125L41.3196 30.8039L41.2268 30.7096C41.1959 30.6781 41.134 30.6153 41.0722 30.5838C41.0103 30.521 40.8557 30.521 40.7629 30.5524C40.6701 30.5838 40.6082 30.6467 40.5464 30.6781L40.4536 30.7724V30.8982C40.4845 31.1496 40.6082 31.3696 40.7629 31.5268C40.9175 31.684 41.0412 31.8097 41.1649 31.9354C41.4124 32.2183 41.6598 32.5012 41.8763 32.8155C42.3402 33.4128 42.7732 34.0414 43.1134 34.7015C43.8557 36.0216 44.3505 37.5304 44.5051 39.0706C44.5979 39.8564 44.5979 40.6422 44.5051 41.428C44.4742 41.8052 44.3814 42.1824 44.2577 42.5596C44.2268 42.591 44.2268 42.6539 44.1959 42.6853L44.1649 42.7482L44.134 42.7796C44.134 42.811 44.134 42.811 44.1031 42.811L43.8866 42.7796C43.7938 42.7482 43.6701 42.7482 43.5464 42.7482C43.3608 42.7482 43.2062 42.7167 43.1134 42.6539C43.0206 42.591 42.9587 42.4339 42.9278 42.2453C42.835 41.8681 42.7732 41.428 42.6495 41.0508C42.4639 40.2336 42.2165 39.4478 41.9381 38.662C41.5361 37.4675 41.0103 36.2417 40.3608 35.0158C39.7423 33.7899 39.1237 32.5012 38.5051 31.1182C37.8866 29.7037 37.268 28.195 36.6804 26.5605C36.3711 25.7432 36.0928 24.8631 35.7835 23.983C35.6289 23.543 35.5051 23.0715 35.3505 22.6C35.2886 22.38 35.1959 22.0971 35.1649 21.9085L35.134 21.7199C35.134 21.6885 35.1031 21.6256 35.1031 21.5627C35.0722 21.4999 35.0722 21.4684 35.0412 21.4056C34.9794 21.3113 34.9484 21.217 34.8866 21.1541L34.7938 21.0284C34.7629 20.9969 34.7319 20.9341 34.701 20.9341L34.4227 21.2798C34.3608 21.3427 34.3299 21.4056 34.268 21.437L34.1752 21.5313C34.0515 21.657 33.9587 21.7513 33.835 21.8456C33.5876 22.0656 33.3402 22.2542 33.0618 22.4114C32.9381 22.5057 32.7835 22.5686 32.6289 22.6314C32.4742 22.6943 32.3196 22.7572 32.1649 22.82C31.8247 22.9458 31.5154 23.1029 31.2062 23.2601C30.8969 23.4172 30.5876 23.6058 30.2783 23.7944C30.1237 23.8887 29.9691 23.983 29.8144 24.0773C29.6598 24.1716 29.5051 24.2659 29.3505 24.3288C28.7319 24.6745 28.0515 24.926 27.3711 25.0203C26.6598 25.1146 25.9484 25.0203 25.299 24.706C24.6185 24.4231 24 23.983 23.4433 23.4487C23.134 23.1658 22.8247 22.9143 22.4845 22.6943L22.268 22.5686L22.1443 22.4743L21.9587 22.38C21.8041 22.2857 21.6185 22.1914 21.4639 22.1285L21.3402 22.0656C21.3402 22.0971 21.3402 22.1599 21.3093 22.1914L21.2783 22.4743C21.2165 22.9458 21.2165 23.0401 21.1856 23.2601L21.0928 23.8573C21.0309 24.2659 20.9381 24.6745 20.8763 25.0517C20.1649 28.2578 18.835 31.4639 17.3505 34.6072C16.6082 36.1788 15.866 37.8133 15.3093 39.5106C15.0309 40.3593 14.7835 41.2394 14.5979 42.1195C14.4124 42.9996 14.3196 43.9112 14.2268 44.7913L14.1959 45.0427V45.0742L14.1031 44.917C14.0103 44.7284 13.9175 44.5398 13.8557 44.3512C13.5464 43.5969 13.3608 42.7796 13.299 41.9624C13.2062 40.3279 13.5464 38.6934 14.0103 37.3418C14.4742 35.9902 15.0618 34.8586 15.4948 33.9785C15.9278 33.0984 16.1443 32.4698 16.1752 32.2498C16.1752 32.0926 16.0825 32.4383 15.7732 33.067C15.4639 33.6956 14.9072 34.6072 14.3814 35.7073C13.8557 36.8389 13.3299 38.1905 13.0825 39.6364C12.8041 41.1137 12.835 42.6225 13.268 43.9112Z" fill="#39395B"/>
<path d="M49.7936 35.5187C48.773 33.4128 47.4121 31.3382 45.8967 29.3266C44.3503 27.3149 42.6492 25.3975 41.5049 23.1972C41.1338 22.4743 40.7936 21.7199 40.608 20.9341C40.3915 20.1483 40.2987 19.331 40.2678 18.5138C40.2059 16.8479 40.2987 15.182 40.2678 13.516C40.2369 11.8501 40.1132 10.1528 39.742 8.51829C39.4018 6.88381 38.8451 5.24932 37.9173 3.83486C37.4534 3.14335 36.8657 2.48327 36.2163 1.94892C35.5668 1.41457 34.7936 1.00594 34.0204 0.69162C33.2163 0.377296 32.4121 0.220134 31.5771 0.125836C30.7111 0.000106576 29.8761 -0.0313259 29.041 0.000106571C28.2059 0.031539 27.3709 0.157269 26.5668 0.345863C25.7626 0.534458 24.9585 0.785917 24.1853 1.16311C23.4121 1.5403 22.7008 2.01178 22.0822 2.609C21.4637 3.20621 20.9379 3.89773 20.5358 4.65211C19.7008 6.16086 19.2987 7.85821 19.1132 9.52413C18.8967 11.1901 18.9585 12.8874 19.0513 14.5533C19.175 16.1878 19.3297 17.8537 19.175 19.4882C19.0513 21.1227 18.6492 22.7258 17.9998 24.2345C17.6905 24.9889 17.2884 25.7118 16.8554 26.3719C16.4224 27.0634 15.8967 27.6921 15.4018 28.3522C14.3812 29.6723 13.3915 31.0239 12.4946 32.4069C11.5977 33.8214 10.7626 35.2673 10.0204 36.776C9.27811 38.2848 8.62863 39.825 8.19564 41.4595C7.73172 43.094 7.51522 44.7913 7.60801 46.4887C7.63894 46.8659 7.57708 47.243 7.45337 47.5888C7.32966 47.9346 7.11316 48.2803 6.86574 48.5946C6.40182 49.2547 5.87605 49.8519 5.22656 50.3234C4.60801 50.7949 3.89667 51.1721 3.12347 51.4236C2.72141 51.5493 2.31935 51.7064 1.94821 51.9579C1.57708 52.2094 1.23687 52.5237 0.989451 52.9009C0.463678 53.6553 0.309038 54.5982 0.370894 55.4783C0.370894 55.6984 0.401822 55.9184 0.43275 56.1384L0.525533 56.7671C0.587389 57.1757 0.649245 57.5843 0.680172 57.9929C0.742028 58.8102 0.680172 59.596 0.43275 60.3504C0.401822 60.4447 0.370894 60.539 0.339966 60.6333C0.278111 60.759 0.247183 60.8533 0.216255 60.979C0.154399 61.199 0.123471 61.4191 0.0925435 61.6391C0.0306878 62.0477 -0.000240009 62.4878 0.0306878 62.9593C0.0616157 63.3993 0.185327 63.8708 0.43275 64.2794C0.680172 64.688 1.02038 65.0338 1.39151 65.2538C1.76265 65.5053 2.16471 65.6624 2.5977 65.7882C2.99976 65.9139 3.43275 66.0082 3.83481 66.0711C4.66986 66.2282 5.47399 66.2911 6.27811 66.3854C7.08223 66.4797 7.88636 66.6054 8.65955 66.794C9.43275 66.9826 10.2059 67.2341 10.9482 67.5484C11.3193 67.7056 11.6596 67.8941 12.0307 68.1142C12.4018 68.3028 12.8039 68.4599 13.2059 68.6171C14.0101 68.9 14.8451 69.0886 15.6802 69.1829C16.5152 69.2772 17.3503 69.3086 18.2163 69.1829C19.0513 69.0886 19.9173 68.7743 20.6286 68.3028C20.9688 68.0513 21.309 67.7684 21.5874 67.4227C21.742 67.2655 21.8657 67.0769 21.9895 66.9197L22.2987 66.4168C22.3297 66.3854 22.3297 66.3854 22.3915 66.3854C22.4534 66.3854 22.5771 66.3854 22.6699 66.354C22.8864 66.354 23.1029 66.3225 23.2884 66.2911C23.6905 66.2282 24.1235 66.1654 24.5255 66.0711C25.3297 65.9139 26.1338 65.7567 26.9379 65.6624C27.742 65.5681 28.5462 65.5053 29.3503 65.5053C29.7523 65.5053 30.1544 65.5367 30.5565 65.5682C30.9585 65.5996 31.3606 65.6939 31.7626 65.7567C32.5668 65.8825 33.4018 66.0082 34.2369 66.0396C34.6389 66.0711 35.0719 66.0711 35.5049 66.0711C35.6286 66.0711 35.6905 66.0711 35.7214 66.0711C35.7523 66.0711 35.7523 66.0711 35.7833 66.1339C35.7833 66.1654 35.8142 66.1968 35.8142 66.2282L35.8761 66.3854L35.9998 66.6997C36.34 67.4855 36.8657 68.2399 37.5152 68.8057C38.1647 69.3715 38.9688 69.7801 39.8039 69.9687C41.5049 70.3773 43.2678 69.9687 44.7523 69.2143C45.4946 68.8371 46.2059 68.3342 46.8554 67.7684C47.1647 67.4855 47.474 67.2026 47.7523 66.8883C48.0307 66.574 48.2781 66.2597 48.5874 65.9768C49.4843 65.0338 50.5668 64.248 51.773 63.6822C52.3915 63.3679 52.9791 63.0536 53.5977 62.7392C54.1853 62.4249 54.8039 62.142 55.3915 61.7334C55.9482 61.3248 56.5049 60.8533 56.8142 60.1618C56.9688 59.816 57.0616 59.4703 57.0616 59.0931C57.0616 58.7473 56.9998 58.4016 56.876 58.0558C56.6596 57.4272 56.3503 56.8614 55.9791 56.3584C55.7936 56.107 55.608 55.887 55.3915 55.6355C55.2059 55.4155 55.0204 55.2269 54.8657 55.0069C54.5565 54.5668 54.3709 54.0953 54.2163 53.5924C54.0925 53.0895 53.9688 52.618 53.876 52.1779C53.6596 51.2664 53.3812 50.4492 52.9482 49.9148C52.5462 49.349 52.0513 49.0661 51.742 48.909C51.4328 48.7518 51.2472 48.7204 51.2781 48.7518C51.309 48.7832 51.4637 48.8775 51.773 49.0661C52.0513 49.2547 52.4534 49.569 52.7936 50.1034C53.1338 50.6063 53.3812 51.3293 53.5358 52.2094C53.6286 52.6494 53.7214 53.0895 53.8451 53.5924C53.9688 54.0953 54.1544 54.5982 54.4328 55.1012C54.5874 55.3526 54.742 55.5726 54.9276 55.7927C55.1132 56.0127 55.2987 56.2013 55.4534 56.4527C55.7936 56.9242 56.1029 57.4272 56.2884 57.9929C56.5049 58.5587 56.5977 59.1874 56.3812 59.7217C56.1647 60.2875 55.7008 60.759 55.175 61.1362C54.6492 61.5448 54.0307 61.8277 53.3812 62.1734C52.7317 62.4878 52.0822 62.8335 51.4328 63.1793C50.0719 63.8394 48.8039 64.8138 47.7523 66.0082C47.041 66.8254 46.2987 67.5798 45.4018 68.1456C44.5358 68.7114 43.5462 69.1829 42.5565 69.4029C41.5358 69.6229 40.4843 69.6229 39.5255 69.3086C39.0307 69.1514 38.5977 68.9 38.1647 68.6171C37.7626 68.3342 37.3915 67.9256 37.0822 67.5484C36.8348 67.2026 36.6183 66.8254 36.4637 66.4168L36.34 66.1025C36.309 66.0082 36.2472 65.8196 36.0925 65.6939C35.9379 65.5367 35.7214 65.5367 35.5977 65.5367H35.2575C34.3915 65.5681 33.4946 65.4738 32.6286 65.3481C32.1956 65.2853 31.7626 65.2224 31.2987 65.1595C30.8348 65.0967 30.4018 65.0338 29.9379 65.0024C29.0101 64.9395 28.1132 65.0024 27.2163 65.0967C26.3193 65.191 25.4224 65.3481 24.5255 65.5367C24.0925 65.631 23.6596 65.7253 23.2266 65.7882C23.0101 65.8196 22.7936 65.851 22.5771 65.851H22.4224C22.3606 65.851 22.2678 65.851 22.2059 65.8825C22.1132 65.9139 22.0204 65.9453 21.9585 66.0082C21.8967 66.0711 21.8348 66.1654 21.8039 66.1968C21.3709 66.9512 20.7833 67.6427 20.041 68.0513C19.6699 68.2713 19.2678 68.4285 18.8348 68.5542C18.4018 68.6485 17.9688 68.7114 17.5358 68.7428C15.773 68.8057 13.9482 68.4914 12.34 67.7056C11.9379 67.517 11.5358 67.2655 11.1029 67.0769C10.6699 66.8883 10.2369 66.7311 9.77296 66.574C8.87605 66.2911 7.94821 66.1025 7.02038 65.9768C6.09254 65.851 5.16471 65.7567 4.2678 65.631C3.37089 65.5053 2.44306 65.3167 1.70079 64.8452C1.32966 64.5937 1.02038 64.3109 0.834812 63.9022C0.649245 63.525 0.587389 63.085 0.587389 62.6135C0.587389 62.3935 0.618317 62.1734 0.618317 61.922C0.649245 61.6705 0.680172 61.4505 0.7111 61.2305C0.742028 61.1362 0.772956 61.0104 0.803884 60.9161C0.834812 60.8219 0.896667 60.6961 0.927595 60.5704C1.02038 60.3189 1.08223 60.0989 1.11316 59.8474C1.29873 58.8416 1.20595 57.8358 1.05131 56.8614C1.02038 56.6099 0.989451 56.3899 0.958523 56.1384C0.927595 55.887 0.896667 55.6669 0.896667 55.4469C0.896667 54.9754 0.927595 54.5039 1.08223 54.0953C1.32966 53.2152 2.041 52.5237 2.87605 52.1779L3.55646 51.9265C3.80388 51.8322 4.02038 51.7379 4.23687 51.6436C4.70079 51.4236 5.13378 51.1721 5.53584 50.8578C6.33997 50.2291 7.02038 49.4433 7.57708 48.5946C7.85543 48.1546 8.07193 47.6517 8.13378 47.0859C8.16471 46.5201 8.10285 46.0486 8.13378 45.5457C8.16471 43.5654 8.65955 41.5852 9.37089 39.6678C10.7626 35.8331 12.9895 32.2812 15.5874 28.9179C16.2369 28.1007 16.9173 27.252 17.474 26.309C18.0307 25.3661 18.5255 24.3917 18.8657 23.323C19.2369 22.2857 19.4843 21.1856 19.608 20.0854C19.7317 18.9853 19.7626 17.8537 19.7008 16.7222C19.608 14.5848 19.3606 12.3845 19.5771 10.0899C19.6699 8.95835 19.8554 7.79535 20.1956 6.66378C20.5358 5.56365 21.0616 4.46351 21.8348 3.55197C22.5771 2.64043 23.5977 1.91748 24.7111 1.41457C25.8245 0.943079 27.0616 0.628755 28.3297 0.503025C29.5977 0.377296 30.8657 0.408728 32.1338 0.628755C32.7523 0.754485 33.4018 0.911647 33.9895 1.13167C34.5771 1.38313 35.1647 1.69746 35.6905 2.07465C36.742 2.86046 37.5771 3.92916 38.1647 5.12359C38.7523 6.34946 39.1544 7.66962 39.4018 9.02121C39.6492 10.3728 39.773 11.7873 39.8039 13.2017C39.8657 14.6162 39.8039 16.0306 39.8039 17.4765C39.8039 18.1995 39.8039 18.9224 39.8967 19.6768C39.9895 20.3997 40.175 21.1227 40.4224 21.8142C40.9173 23.1972 41.7214 24.4545 42.5565 25.649C43.3915 26.8434 44.3193 27.9435 45.2163 29.0751C46.1132 30.2067 46.9482 31.3697 47.7214 32.5955C48.7111 34.1043 49.608 35.8016 50.2884 37.499C50.9688 39.1963 51.4328 40.9566 51.5874 42.5282C51.773 44.0998 51.6802 45.5143 51.4946 46.5515C51.34 47.5888 51.1235 48.2803 51.1235 48.5318C51.1235 48.7204 51.2163 48.3432 51.4637 47.5888C51.6802 46.8344 51.9276 45.7029 51.9585 44.3198C51.9895 42.9368 51.8348 41.3652 51.4328 39.825C51.0307 38.3477 50.4431 36.8389 49.7936 35.5187Z" fill="#39395B"/>
<path d="M25.1441 17.131C25.175 17.1624 25.2059 17.131 25.2369 17.131C25.5461 17.1624 25.7317 17.0367 26.0101 17.0367C26.0719 17.0367 26.1338 16.9738 26.1338 16.7852C26.1338 16.5966 26.0719 16.4709 26.0101 16.4395C25.9791 16.4395 25.9482 16.4395 25.9173 16.4395C25.7317 16.5338 25.5461 16.5023 25.3606 16.628C25.2678 16.6595 25.1131 16.6909 24.9894 16.7538C24.9585 16.7852 24.8967 16.8166 24.9894 16.9424C25.0513 17.0995 25.1131 17.0995 25.1441 17.131Z" fill="#39395B"/>
<path d="M29.3502 17.0366C29.3502 17.0052 29.3192 16.9738 29.3192 16.9423C29.1337 16.5651 28.7316 16.4708 28.3605 16.3765C28.2986 16.3451 28.1749 16.3765 28.144 16.5966C28.113 16.7852 28.144 16.9109 28.2058 16.9423C28.2368 16.9423 28.2368 16.9738 28.2677 16.9738C28.4532 16.9423 28.6079 17.068 28.7935 17.1309C28.8862 17.1938 28.979 17.2881 29.0718 17.3824C29.1027 17.4138 29.1646 17.4138 29.2574 17.3195C29.3811 17.1623 29.3502 17.0995 29.3502 17.0366Z" fill="#39395B"/>
<path d="M32.1959 19.7081C31.9175 19.8338 31.6701 20.0538 31.3918 20.211C30.7114 20.651 30 21.0596 29.2887 21.374C28.5773 21.6883 27.8041 21.9398 27.0619 22.0026C25.5773 22.1598 24 21.6254 22.9175 20.5253C22.7011 20.3053 22.4846 20.0538 22.2681 19.8966C22.0516 19.7395 21.866 19.6138 21.6804 19.7395C21.5258 19.8338 21.4949 20.0852 21.5567 20.3996C21.6495 20.7139 21.8351 21.0911 22.1444 21.374C22.2371 21.4997 22.3608 21.594 22.4846 21.6883C22.6083 21.7826 22.732 21.8769 22.8557 21.9712C23.7217 22.5055 24.6495 22.8827 25.7011 23.0399C26.7526 23.1971 27.8969 23.0399 28.9794 22.5684C29.5052 22.3798 30.1237 22.0969 30.7423 21.7197C31.3608 21.3425 31.9794 20.9025 32.567 20.431C32.9382 20.1167 33.3402 19.7395 33.1856 19.4566C33 19.2366 32.5361 19.5195 32.1959 19.7081Z" fill="#39395B"/>
</g>
<defs>
<clipPath id="clip0_303_4200">
<rect width="57" height="70" fill="white"/>
</clipPath>
</defs>
</svg>
