<svg width="58" height="59" viewBox="0 0 58 59" fill="none" xmlns="http://www.w3.org/2000/svg">
<g clip-path="url(#clip0_303_4190)">
<path d="M41.6526 30.4385C46.5701 30.4385 51.461 30.4385 56.3785 30.4385C57.4949 30.4385 57.5215 30.4653 57.5215 31.5648C57.5215 40.2003 57.5215 48.8358 57.5215 57.4712C57.5215 58.5708 57.4683 58.5976 56.4317 58.4635C46.7296 57.0153 37.0274 55.5939 27.3253 54.1457C25.7305 53.9044 25.7305 53.9044 25.7305 52.2953C25.7305 45.4567 25.7305 38.6448 25.7305 31.8062C25.7305 30.4921 25.7305 30.4921 27.0064 30.4921C31.8973 30.4385 36.7616 30.4385 41.6526 30.4385Z" fill="#516FE9"/>
<path d="M41.5994 28.2663C36.7616 28.2663 31.8973 28.2663 27.0595 28.2663C25.757 28.2663 25.757 28.2663 25.757 26.9522C25.757 20.0331 25.757 13.114 25.7305 6.19496C25.7305 5.36359 25.9431 5.01496 26.8203 4.88087C36.7882 3.43268 46.7296 1.9845 56.6975 0.509502C57.6544 0.375411 57.5215 0.965411 57.5215 1.52859C57.5215 7.8845 57.5215 14.2404 57.5215 20.5963C57.5215 22.7954 57.4949 24.9945 57.5481 27.1668C57.5746 28.0518 57.2291 28.2663 56.4317 28.2663C51.461 28.2395 46.5169 28.2663 41.5994 28.2663Z" fill="#516FE9"/>
<path d="M12.0147 30.4384C15.4968 30.4384 18.979 30.4653 22.4611 30.4116C23.2851 30.4116 23.5775 30.653 23.5775 31.5112C23.5509 38.4839 23.5509 45.4566 23.5509 52.4293C23.5509 53.4484 23.4446 53.5289 22.4345 53.3948C15.4703 52.3489 8.50601 51.303 1.51518 50.2839C0.744327 50.1766 0.478516 49.8816 0.478516 49.1039C0.505097 43.2307 0.505097 37.3575 0.478516 31.4843C0.478516 30.6798 0.744327 30.4116 1.54176 30.4116C5.05047 30.4653 8.5326 30.4384 12.0147 30.4384Z" fill="#516FE9"/>
<path d="M12.0677 28.2665C8.5856 28.2665 5.10348 28.2397 1.62135 28.2933C0.797335 28.2933 0.478361 28.052 0.504943 27.1938C0.531524 21.3743 0.531524 15.5815 0.504943 9.7888C0.504943 9.01108 0.797335 8.71608 1.54161 8.6088C8.55902 7.58971 15.5499 6.57062 22.5673 5.52471C23.3381 5.41744 23.6039 5.63199 23.6039 6.43653C23.5774 13.3556 23.5774 20.2747 23.6039 27.1938C23.6039 28.0788 23.285 28.2933 22.4875 28.2933C18.9788 28.2397 15.5233 28.2665 12.0677 28.2665Z" fill="#516FE9"/>
</g>
<defs>
<clipPath id="clip0_303_4190">
<rect width="58" height="59" fill="white"/>
</clipPath>
</defs>
</svg>
