<svg width="44" height="45" viewBox="0 0 44 45" fill="none" xmlns="http://www.w3.org/2000/svg">
<path d="M30.6738 21.3416C34.0978 21.3416 37.5034 21.3416 40.9275 21.3416C41.7048 21.3416 41.7233 21.3603 41.7233 22.1301C41.7233 28.1754 41.7233 34.2207 41.7233 40.266C41.7233 41.0358 41.6863 41.0545 40.9645 40.9607C34.2089 39.9469 27.4533 38.9518 20.6977 37.938C19.5872 37.769 19.5872 37.769 19.5872 36.6426C19.5872 31.8551 19.5872 27.0865 19.5872 22.299C19.5872 21.3791 19.5872 21.3791 20.4756 21.3791C23.8811 21.3416 27.2682 21.3416 30.6738 21.3416Z" fill="#516FE9"/>
<path d="M30.6367 19.8202C27.2682 19.8202 23.8811 19.8202 20.5126 19.8202C19.6057 19.8202 19.6057 19.8202 19.6057 18.9003C19.6057 14.0565 19.6057 9.21277 19.5872 4.369C19.5872 3.787 19.7352 3.54293 20.346 3.44906C27.2867 2.43525 34.2089 1.42144 41.1496 0.388855C41.8159 0.294983 41.7233 0.708017 41.7233 1.10228C41.7233 5.55178 41.7233 10.0013 41.7233 14.4508C41.7233 15.9903 41.7048 17.5298 41.7418 19.0505C41.7604 19.67 41.5197 19.8202 40.9645 19.8202C37.5034 19.8015 34.0608 19.8202 30.6367 19.8202Z" fill="#516FE9"/>
<path d="M10.0327 21.3412C12.4573 21.3412 14.8819 21.3599 17.3065 21.3224C17.8803 21.3224 18.0839 21.4914 18.0839 22.0921C18.0654 26.9734 18.0654 31.8548 18.0654 36.7361C18.0654 37.4495 17.9914 37.5058 17.288 37.4119C12.4388 36.6798 7.58957 35.9476 2.72183 35.2341C2.18509 35.159 2 34.9525 2 34.4081C2.01851 30.2965 2.01851 26.1849 2 22.0734C2 21.5101 2.18509 21.3224 2.74034 21.3224C5.18346 21.3599 7.60808 21.3412 10.0327 21.3412Z" fill="#516FE9"/>
<path d="M10.0686 19.8196C7.64401 19.8196 5.21939 19.8008 2.79478 19.8384C2.22101 19.8384 1.99891 19.6694 2.01742 19.0686C2.03593 14.9946 2.03593 10.9394 2.01742 6.88414C2.01742 6.33968 2.22101 6.13317 2.73925 6.05807C7.6255 5.34465 12.4932 4.63122 17.3795 3.89903C17.9162 3.82393 18.1013 3.97412 18.1013 4.53735C18.0828 9.38112 18.0828 14.2249 18.1013 19.0686C18.1013 19.6882 17.8792 19.8384 17.324 19.8384C14.8808 19.8008 12.4747 19.8196 10.0686 19.8196Z" fill="#516FE9"/>
</svg>
