<svg width="38" height="47" viewBox="0 0 38 47" fill="none" xmlns="http://www.w3.org/2000/svg">
<g clip-path="url(#clip0_113_573)">
<path d="M22.864 12.2181C22.0805 11.4584 20.8022 10.8252 19.5032 10.5931C19.4207 10.5087 19.3176 10.4243 19.2145 10.382C18.8434 10.2132 18.5135 10.1288 18.1011 10.1921C17.8537 10.2343 17.6475 10.2976 17.4413 10.4031C17.4207 10.4031 17.2764 10.4665 17.2145 10.5087C17.1733 10.5298 17.0908 10.5509 17.0702 10.5509C16.9671 10.572 16.864 10.5931 16.7403 10.6353C16.3692 10.7619 16.0805 10.9519 15.7712 11.2051C15.6887 11.2684 15.6269 11.3529 15.5857 11.4162C15.5444 11.4373 15.5032 11.4795 15.4826 11.5006C15.4413 11.5217 15.4001 11.5639 15.3589 11.6061C15.2351 11.6694 15.1114 11.7749 15.0083 11.8805C14.0805 11.8805 13.6269 12.9568 13.7712 13.7588C14.0186 15.2783 15.8537 16.3547 17.1939 16.5657C18.4929 16.7767 20.3279 16.7979 20.9671 15.4683C21.998 15.1306 22.9877 14.603 23.2558 13.6744C23.3795 13.1679 23.2351 12.5769 22.864 12.2181Z" fill="#FBBE40"/>
<path d="M22.864 12.2181C22.0805 11.4584 20.8022 10.8252 19.5032 10.5931C19.4207 10.5087 19.3176 10.4243 19.2145 10.382C18.8434 10.2132 18.5135 10.1288 18.1011 10.1921C17.8537 10.2343 17.6475 10.2976 17.4413 10.4031C17.4207 10.4031 17.2764 10.4665 17.2145 10.5087C17.1733 10.5298 17.0908 10.5509 17.0702 10.5509C16.9671 10.572 16.864 10.5931 16.7403 10.6353C16.3692 10.7619 16.0805 10.9519 15.7712 11.2051C15.6887 11.2684 15.6269 11.3529 15.5857 11.4162C15.5444 11.4373 15.5032 11.4795 15.4826 11.5006C15.4413 11.5217 15.4001 11.5639 15.3589 11.6061C15.2351 11.6694 15.1114 11.7749 15.0083 11.8805C14.0805 11.8805 13.6269 12.9568 13.7712 13.7588C14.0186 15.2783 15.8537 16.3547 17.1939 16.5657C18.4929 16.7767 20.3279 16.7979 20.9671 15.4683C21.998 15.1306 22.9877 14.603 23.2558 13.6744C23.3795 13.1679 23.2351 12.5769 22.864 12.2181Z" fill="#FBBE40"/>
<path d="M11.8969 36.7219C10.866 34.8224 8.74226 31.509 6.20618 32.1633C4.76288 32.5431 3.97937 34.0627 2.74226 34.7802C2.30927 35.0335 1.77319 35.0968 1.38143 35.6455C1.03092 36.1731 0.948444 36.8063 0.804114 37.3972C0.701021 37.8826 0.824732 38.3047 1.05154 38.6213C-0.14434 40.0986 0.226794 43.011 2.1237 43.6231C3.0103 43.9185 3.97937 43.7286 4.88659 43.9607C6.08246 44.2562 7.19587 44.8049 8.37112 45.1637C10.3299 45.7968 13.4227 46.1556 14.2474 43.6231C15.0309 41.2805 12.9484 38.6846 11.8969 36.7219Z" fill="#FBBE40"/>
<path d="M36.5992 38.3261C36.3311 37.7141 35.8981 37.1653 35.7332 36.49C35.5682 35.7513 35.4239 34.9494 34.9703 34.3373C34.9497 34.2529 34.9497 34.1685 34.9291 34.0841C34.8672 33.8308 34.7435 33.6198 34.5579 33.4298C34.4548 33.3454 34.3724 33.2821 34.2693 33.1977C34.0425 33.071 33.795 32.9866 33.5476 32.9866H33.5064C33.3002 32.9866 33.1146 33.0288 32.9497 33.1133C32.9084 33.1344 32.8466 33.1555 32.8053 33.1766C32.4548 33.1133 32.0837 33.071 31.7538 33.0288C30.7435 32.9233 29.9187 33.1344 29.2383 33.5564C29.5888 31.847 26.9291 31.1505 26.4136 32.9233C25.795 35.0549 25.1971 37.1864 24.661 39.3391C24.1868 41.1963 23.1559 43.75 24.9703 45.2062C25.4239 45.5861 25.96 45.7971 26.5373 45.9027C26.7641 46.177 27.1146 46.3459 27.5682 46.3459C28.0837 46.3459 28.4548 46.1137 28.6816 45.7971C29.4239 45.6072 30.1249 45.2906 30.7022 44.8685C31.527 44.2776 32.228 43.5811 33.094 43.0535C33.9187 42.547 34.8672 42.2727 35.6095 41.7028C35.9187 41.4707 36.1868 41.1752 36.393 40.8587C37.3414 40.4366 37.4239 38.9381 36.5992 38.3261Z" fill="#FBBE40"/>
<path d="M11.8969 36.7219C10.866 34.8224 8.74226 31.509 6.20618 32.1633C4.76288 32.5431 3.97937 34.0627 2.74226 34.7802C2.30927 35.0335 1.77319 35.0968 1.38143 35.6455C1.03092 36.1731 0.948444 36.8063 0.804114 37.3972C0.701021 37.8826 0.824732 38.3047 1.05154 38.6213C-0.14434 40.0986 0.226794 43.011 2.1237 43.6231C3.0103 43.9185 3.97937 43.7286 4.88659 43.9607C6.08246 44.2562 7.19587 44.8049 8.37112 45.1637C10.3299 45.7968 13.4227 46.1556 14.2474 43.6231C15.0309 41.2805 12.9484 38.6846 11.8969 36.7219Z" fill="#FBBE40"/>
<path d="M36.5992 38.3261C36.3311 37.7141 35.8981 37.1653 35.7332 36.49C35.5682 35.7513 35.4239 34.9494 34.9703 34.3373C34.9497 34.2529 34.9497 34.1685 34.9291 34.0841C34.8672 33.8308 34.7435 33.6198 34.5579 33.4298C34.4548 33.3454 34.3724 33.2821 34.2693 33.1977C34.0425 33.071 33.795 32.9866 33.5476 32.9866H33.5064C33.3002 32.9866 33.1146 33.0288 32.9497 33.1133C32.9084 33.1344 32.8466 33.1555 32.8053 33.1766C32.4548 33.1133 32.0837 33.071 31.7538 33.0288C30.7435 32.9233 29.9187 33.1344 29.2383 33.5564C29.5888 31.847 26.9291 31.1505 26.4136 32.9233C25.795 35.0549 25.1971 37.1864 24.661 39.3391C24.1868 41.1963 23.1559 43.75 24.9703 45.2062C25.4239 45.5861 25.96 45.7971 26.5373 45.9027C26.7641 46.177 27.1146 46.3459 27.5682 46.3459C28.0837 46.3459 28.4548 46.1137 28.6816 45.7971C29.4239 45.6072 30.1249 45.2906 30.7022 44.8685C31.527 44.2776 32.228 43.5811 33.094 43.0535C33.9187 42.547 34.8672 42.2727 35.6095 41.7028C35.9187 41.4707 36.1868 41.1752 36.393 40.8587C37.3414 40.4366 37.4239 38.9381 36.5992 38.3261Z" fill="#FBBE40"/>
<path d="M34.1611 32.6895C35.1508 33.0905 35.5219 33.9136 35.7281 34.8422C35.79 35.1166 35.8725 35.3909 35.9343 35.6864C36.058 36.2984 36.3054 36.8472 36.7384 37.3115C37.1096 37.7125 37.4395 38.1768 37.6457 38.7044C38.0168 39.6119 37.8518 40.2872 37.1302 40.9204C36.7797 41.2369 36.3673 41.4691 35.9343 41.6801C35.357 41.9756 34.7591 42.2922 34.1817 42.5876C33.2951 43.0519 32.5322 43.6851 31.8725 44.4659C31.0683 45.4156 30.1199 46.1543 28.9446 46.5553C26.8621 47.2729 24.8209 46.5131 24.0168 44.3182C23.9549 44.1494 23.8518 44.086 23.6869 44.1072C22.7178 44.1494 21.7694 44.0016 20.8209 43.8539C19.4601 43.6217 18.0993 43.7695 16.7591 44.0438C16.1611 44.1705 15.5632 44.3182 14.9446 44.3393C14.8209 44.3393 14.7384 44.3604 14.6766 44.487C13.7075 46.1965 12.1611 46.4498 10.4498 46.2598C9.54256 46.1543 8.67658 45.901 7.89307 45.4578C6.5941 44.7403 5.19204 44.5081 3.76936 44.3393C3.10957 44.276 2.47039 44.1916 1.83122 44.0227C0.552866 43.664 0.0786387 42.9253 0.222969 41.5957C0.243587 41.3424 0.284824 41.0681 0.367298 40.8359C0.738433 39.9495 0.655958 39.042 0.511628 38.1345C0.470391 37.9235 0.449773 37.7336 0.429154 37.5225C0.305443 36.214 0.820907 35.2221 2.0374 34.8211C3.23328 34.4412 4.09926 33.7448 4.77967 32.7107C5.08895 32.2464 5.2539 31.8665 5.23328 31.2755C5.13019 29.144 5.74874 27.1601 6.61472 25.2607C7.7075 22.8759 9.17142 20.7443 10.7797 18.6972C12.4085 16.6289 13.0889 14.2652 13.0065 11.6271C12.9446 10.0654 12.7591 8.48254 12.9034 6.89969C12.9859 5.94999 13.1302 5.00028 13.4601 4.09278C14.1199 2.31999 15.3364 1.15924 17.0889 0.610516C18.5529 0.146214 20.0374 0.0829004 21.5426 0.357261C23.7281 0.716039 25.1508 2.10894 25.9137 4.21941C26.5735 6.03441 26.6972 7.93382 26.7178 9.83324C26.7178 10.8252 26.6972 11.796 26.7384 12.7879C26.8209 14.3707 27.5219 15.7214 28.4085 16.9877C29.2333 18.1696 30.1817 19.2459 31.0271 20.4278C32.3879 22.3272 33.5632 24.3532 34.2024 26.6536C34.7384 28.5741 34.8003 30.4736 34.2436 32.3941C34.2024 32.4785 34.1817 32.5629 34.1611 32.6895ZM10.6972 21.6096C10.656 21.5885 10.6353 21.5674 10.5941 21.5463C10.4498 21.7785 10.3054 22.0317 10.1611 22.2639C9.2539 23.8467 8.42915 25.4718 8.09926 27.3079C7.66627 29.6927 8.42915 31.5077 10.4292 32.8373C10.6147 32.9639 10.8209 33.0905 11.0065 33.2172C11.9755 33.8925 12.8828 34.6101 13.625 35.5598C14.0374 36.0874 14.4085 36.6361 14.5116 37.3326C14.6353 38.0712 14.2848 38.6199 13.5632 38.8099C13.3982 38.8521 13.2333 38.8732 13.0271 38.9154C13.3364 39.3375 13.625 39.7385 13.9137 40.1395C14.0993 40.3927 14.223 40.6671 14.5116 40.8359C15.0683 41.1736 15.6457 41.4902 16.2848 41.6801C19.2127 42.5876 21.8518 41.8067 24.3054 40.1395C24.3879 40.0762 24.4704 40.0129 24.5116 39.8862C24.7591 38.9998 25.0477 38.1345 25.0889 37.2059C25.1508 35.9608 25.192 34.7156 25.5426 33.5126C25.8106 32.5629 26.2642 31.7398 27.2127 31.3389C27.3776 31.2755 27.3982 31.1278 27.4188 30.9801C27.625 29.9671 28.2024 29.545 29.192 29.6716C30.0374 29.7771 30.8209 30.1148 31.5426 30.558C32.2848 30.9801 32.9859 31.4444 32.8209 32.4785C33.1096 32.584 33.192 32.4363 33.2333 32.2041C33.3158 31.571 33.0477 31.0856 32.6147 30.6846C32.0993 30.1781 31.4807 29.8193 30.8209 29.5239C30.5322 29.3972 30.4085 29.2706 30.491 28.9118C30.5735 28.6164 30.5941 28.2787 30.5941 27.9832C30.5529 25.1341 29.2951 22.8337 27.3982 20.8499C27.3364 20.7865 27.2539 20.6599 27.1302 20.7865C27.1714 21.0609 27.3776 21.1875 27.5426 21.3775C29.0889 23.1292 29.9962 25.1552 29.8725 27.5611C29.8518 28.0676 29.7487 28.553 29.5219 28.9962C29.3364 28.9751 29.192 28.9329 29.0477 28.9329C28.6972 28.9329 28.5529 28.8063 28.491 28.4264C28.1611 26.8014 27.625 25.2396 26.8621 23.7623C25.4188 20.9343 24.2436 17.9796 23.3364 14.9195C23.2951 14.7506 23.2745 14.5396 23.1302 14.3496C22.7178 14.8561 22.2436 15.236 21.6663 15.4682C21.0683 15.7003 20.5116 16.0169 19.9549 16.3546C18.2848 17.3887 16.9859 17.2621 15.5426 15.9536C15.192 15.637 14.8003 15.3415 14.3261 15.1094C14.223 16.1224 14.0374 17.051 13.7694 18.0007C13.192 20.069 12.3261 22.0106 11.4188 23.9311C10.656 25.5773 10.0168 27.2446 9.74874 29.0596C9.66627 29.6294 9.60441 30.2203 9.54256 30.8112C9.37761 30.7268 9.33637 30.6002 9.27452 30.4736C8.5941 29.2706 8.49101 27.9832 8.71781 26.6536C8.924 25.3874 9.39823 24.2477 9.99617 23.1292C10.2848 22.6015 10.5529 22.1372 10.6972 21.6096ZM11.1714 45.69C11.357 45.69 11.5426 45.6689 11.7281 45.6689C14.0786 45.4578 15.1096 43.4951 13.9755 41.3636C13.625 40.6882 13.1508 40.0762 12.6972 39.4852C12.058 38.6411 11.357 37.8602 10.8621 36.9105C10.3054 35.8341 9.72812 34.7789 9.1508 33.7026C8.86214 33.175 8.47039 32.7529 7.99616 32.4152C7.08895 31.8032 6.20235 31.9087 5.4807 32.7318C5.21266 33.0483 4.94462 33.386 4.71781 33.7448C4.26421 34.4201 3.66627 34.8633 2.90338 35.0955C2.61472 35.1799 2.32606 35.2854 2.0374 35.4331C1.35699 35.7708 1.00647 36.3195 1.00647 37.1004C1.00647 37.5225 1.06833 37.9446 1.13019 38.3667C1.27452 39.1898 1.29513 39.9918 0.985855 40.7937C0.882762 41.047 0.841525 41.3213 0.800288 41.5957C0.63534 42.6087 0.985855 43.1574 1.95493 43.4318C2.49101 43.5795 3.02709 43.6429 3.58379 43.7062C5.2539 43.8539 6.86214 44.1916 8.34668 45.0147C9.21266 45.4367 10.1817 45.6478 11.1714 45.69ZM27.3364 31.9509C26.7178 32.2675 26.4292 32.774 26.223 33.3438C25.9755 34.0191 25.8518 34.7578 25.8312 35.4754C25.7694 37.3537 25.4395 39.1687 24.8621 40.9415C24.6766 41.5113 24.5735 42.1022 24.491 42.7142C24.223 44.9513 25.9343 46.5764 28.0993 46.1543C29.4601 45.8799 30.5322 45.1202 31.4188 44.0649C32.2024 43.1152 33.1508 42.3977 34.223 41.8701C34.8415 41.5535 35.4601 41.2791 36.058 40.9415C37.4188 40.1817 37.625 39.4852 36.656 38.2612C35.8518 37.227 35.3158 36.1296 35.1096 34.8633C35.089 34.7789 35.0477 34.6734 35.0271 34.589C34.6972 33.5548 34.1199 33.1539 33.0477 33.1327C32.6766 33.1327 32.3673 33.1961 32.0786 33.4915C31.6457 33.9347 31.0889 34.2513 30.5116 34.4623C29.0889 35.0111 28.0374 34.4834 27.5632 33.0061C27.4807 32.6684 27.4188 32.3308 27.3364 31.9509ZM18.0786 10.3397C17.192 10.3397 16.5529 10.5719 16.0374 11.0362C15.4188 11.5849 14.7797 12.0914 14.1199 12.5979C13.6663 12.9567 13.5838 13.3999 13.8518 13.9486C14.0374 14.3285 14.3467 14.6451 14.6972 14.8561C15.2333 15.1938 15.7281 15.5948 16.1817 16.038C16.7591 16.5656 17.4395 16.7345 18.2024 16.6711C18.7797 16.6078 19.2951 16.3968 19.7694 16.0802C20.3261 15.7214 20.8828 15.3838 21.5013 15.1516C21.9343 15.0039 22.3054 14.7295 22.6353 14.3918C23.5426 13.4843 23.3776 12.5346 22.223 12.007C22.058 11.9226 21.8725 11.8382 21.7075 11.796C21.0065 11.5638 20.3467 11.2684 19.7075 10.8674C19.1714 10.5297 18.5735 10.3397 18.0786 10.3397ZM21.4188 11.3106C21.7281 11.4372 22.0168 11.5427 22.3054 11.6693C22.4704 11.7538 22.5735 11.6904 22.6766 11.5427C23.5426 10.3398 23.357 8.14487 22.2642 7.15295C21.4601 6.39318 20.4085 6.39318 19.625 7.15295C18.8621 7.89161 18.6147 8.84132 18.6766 9.87545C18.6766 9.98097 18.6972 10.0654 18.8003 10.1076C19.1302 10.2131 19.4807 10.3186 19.8518 10.4453C19.8312 9.85434 19.8725 9.34783 20.1611 8.88353C20.5941 8.20818 21.2951 8.22929 21.6457 8.94685C22.0168 9.76993 21.9962 10.5508 21.4188 11.3106ZM16.1611 10.4875C16.4292 10.382 16.656 10.2764 16.9034 10.1709C17.0477 10.1076 17.0683 10.0021 17.0683 9.87545C17.0683 9.09458 16.924 8.35592 16.4498 7.70167C15.7487 6.77307 14.7591 6.83638 14.1611 7.8494C13.5632 8.88353 13.6456 10.593 14.3673 11.5427C14.4292 11.6271 14.491 11.7327 14.6147 11.7538C14.8003 11.6482 14.9859 11.5216 15.1302 11.3317C14.656 10.7618 14.5322 10.1076 14.6972 9.39004C14.7797 9.07347 14.9034 8.7569 15.2745 8.7358C15.6456 8.71469 15.79 9.01016 15.9343 9.30562C16.1199 9.68551 16.1199 10.0654 16.1611 10.4875Z" fill="#0A1854"/>
<path d="M16.0808 9.43334C16.0602 9.34892 16.0189 9.2645 15.9777 9.15898C15.9365 9.07456 15.8952 8.99014 15.8128 8.90572C15.7509 8.8213 15.6478 8.73688 15.5447 8.71578C15.4416 8.67357 15.3179 8.67357 15.2148 8.69468C15.0292 8.71578 14.8849 8.84241 14.7818 9.01124C14.6994 9.15898 14.6375 9.30671 14.6169 9.47555C14.5344 9.77101 14.5138 10.1087 14.555 10.4253C14.5963 10.7418 14.72 11.0584 14.9055 11.3116L14.9468 11.3539L14.8849 11.3961C14.8437 11.4383 14.7818 11.4805 14.72 11.5227L14.6375 11.5649C14.6169 11.586 14.6375 11.5649 14.6169 11.5649C14.6169 11.5649 14.6169 11.586 14.555 11.5016C14.4932 11.4383 14.4519 11.3539 14.4107 11.2905C14.3695 11.2272 14.3282 11.1428 14.287 11.0584C14.2457 10.974 14.2251 10.9107 14.1839 10.8262C14.0602 10.5097 13.9983 10.1509 13.9571 9.81322C13.8952 9.11677 14.0189 8.39921 14.3901 7.82939C14.4725 7.68165 14.5963 7.55503 14.72 7.47061C14.8437 7.36508 14.9674 7.30177 15.1117 7.25956C15.4004 7.19625 15.7097 7.28067 15.9571 7.47061C16.2045 7.66055 16.4107 7.95601 16.555 8.27258C16.6994 8.58915 16.7818 8.92683 16.8231 9.2645C16.8437 9.45444 16.8643 9.66549 16.8643 9.87653C16.8643 9.91874 16.8643 9.93985 16.8643 9.96095C16.8643 9.98206 16.8643 9.98206 16.8437 9.98206C16.8437 9.98206 16.7818 10.0243 16.7406 10.0243C16.6994 10.0454 16.6581 10.0665 16.6169 10.0876C16.3076 10.2353 16.1014 10.383 16.1427 10.4253C16.1839 10.4886 16.3901 10.4464 16.72 10.3619C16.7612 10.3408 16.8024 10.3408 16.8437 10.3197L16.9055 10.3408C16.9262 10.3408 16.9468 10.3197 16.988 10.3197C17.0499 10.2986 17.1323 10.2353 17.1736 10.1509C17.2148 10.0665 17.2354 10.0032 17.2354 9.91874C17.2561 9.68659 17.2354 9.45444 17.2148 9.20119C17.1736 8.84241 17.0911 8.48363 16.9262 8.16706C16.8024 7.8927 16.6375 7.63944 16.4313 7.4284C16.2251 7.21735 15.9571 7.02741 15.6478 6.94299C15.3385 6.85857 14.988 6.92189 14.72 7.09072C14.4313 7.25956 14.2251 7.51282 14.0602 7.76607C13.7303 8.31479 13.6066 8.96903 13.6272 9.62328C13.6478 10.2775 13.8128 10.974 14.2251 11.586C14.2457 11.6071 14.2664 11.6282 14.287 11.6704C14.3076 11.6915 14.3282 11.7337 14.3488 11.7548C14.3695 11.7971 14.3901 11.8182 14.4725 11.8815C14.5344 11.9237 14.6169 11.9448 14.6994 11.9659C14.7612 11.9448 14.8231 11.9026 14.8643 11.8815C14.9055 11.8604 14.9262 11.8393 14.9674 11.8182C15.0292 11.776 15.1117 11.7126 15.1736 11.6704L15.2354 11.6071L15.3179 11.5227L15.4004 11.4383L15.421 11.4172C15.421 11.4172 15.421 11.3961 15.4004 11.3961L15.3591 11.3539C15.3179 11.2905 15.2767 11.2272 15.2354 11.1639C15.2148 11.1217 15.1942 11.1006 15.1736 11.0584C15.0086 10.784 14.8849 10.4675 14.8849 10.1087C14.8849 9.93985 14.9055 9.74991 14.9468 9.58107C14.988 9.39113 15.0499 9.22229 15.1323 9.11677C15.1736 9.05345 15.2354 9.03235 15.2973 9.01124C15.3591 8.99014 15.4416 8.99014 15.5035 9.01124C15.6272 9.03235 15.7303 9.15898 15.8128 9.34892C15.8746 9.47555 15.9365 9.58107 15.9571 9.7077C15.9983 9.83432 16.0189 9.96095 16.0396 10.0876C16.0808 10.3197 16.1014 10.5097 16.1633 10.5519C16.2045 10.573 16.2251 10.4253 16.2457 10.2142C16.1633 9.93985 16.1427 9.64438 16.0808 9.43334Z" fill="#0A1854"/>
<path d="M21.9547 10.1938C22.0166 9.75061 21.8929 9.223 21.6661 8.8009C21.5836 8.67428 21.4805 8.54765 21.3568 8.44213C21.2331 8.3366 21.0681 8.29439 20.9032 8.29439C20.5527 8.29439 20.264 8.50544 20.099 8.75869C19.9135 9.01195 19.7898 9.30742 19.7485 9.60288C19.7279 9.75061 19.7073 9.89834 19.7073 10.0461V10.1516V10.1938V10.2149H19.6867L19.5836 10.1938L19.2537 10.0883L18.9238 9.98276L18.8826 9.96166C18.8619 9.96166 18.8826 9.94055 18.8619 9.96166C18.8413 9.98276 18.8413 9.98276 18.8826 9.96166C18.8826 9.96166 18.8826 9.91945 18.8826 9.87724C18.8619 9.41294 18.9032 8.96974 19.0269 8.52654C19.1506 8.10445 19.3774 7.70346 19.6867 7.38689C19.996 7.07032 20.3671 6.83817 20.7795 6.79596C21.1918 6.75376 21.6042 6.88038 21.9547 7.15474C22.3052 7.408 22.5527 7.78788 22.7382 8.18887C22.9032 8.61096 23.0063 9.05416 23.0269 9.49736C23.0475 9.94055 22.9856 10.4049 22.8413 10.8269C22.7795 11.038 22.6557 11.249 22.532 11.439C22.5114 11.4812 22.4702 11.5023 22.4702 11.5023C22.4702 11.5023 22.4702 11.5023 22.4289 11.5023C22.3259 11.4601 22.2228 11.439 22.1403 11.3968C21.7485 11.2701 21.4805 11.1857 21.4599 11.249C21.4393 11.3124 21.6661 11.4601 22.0166 11.65C22.099 11.6922 22.1815 11.7344 22.3052 11.7978C22.3671 11.8189 22.4702 11.8611 22.5939 11.8189C22.697 11.7767 22.7588 11.7133 22.8207 11.65C22.9856 11.4179 23.1506 11.1646 23.2331 10.8692C23.3774 10.4682 23.4393 10.025 23.4393 9.60288C23.4186 8.90643 23.2537 8.18887 22.8826 7.57684C22.697 7.26027 22.4496 6.98591 22.1403 6.77486C21.8516 6.56381 21.4805 6.41608 21.1094 6.37387C20.7382 6.35277 20.3259 6.43719 19.996 6.64823C19.6454 6.83817 19.3774 7.13364 19.1506 7.45021C18.9238 7.78788 18.7588 8.16777 18.6557 8.56875C18.5527 8.96974 18.5527 9.39183 18.5733 9.81393C18.5733 9.85614 18.5733 9.91945 18.5939 10.0039C18.6145 10.0883 18.697 10.1727 18.7795 10.1938C18.8826 10.236 18.9856 10.2571 19.0887 10.2993C19.3568 10.3838 19.6661 10.4893 20.0578 10.6159C20.0578 10.4893 20.0578 10.3415 20.0578 10.1938C20.0578 10.1516 20.0578 10.0883 20.0578 10.0461C20.0578 10.0039 20.0578 9.96166 20.0578 9.94055C20.0578 9.79282 20.0784 9.62398 20.1197 9.47625C20.1815 9.18079 20.3465 8.84311 20.5939 8.65317C20.7176 8.56875 20.8619 8.50544 21.0063 8.52654C21.1506 8.54765 21.2743 8.63207 21.3774 8.75869C21.398 8.8009 21.4186 8.82201 21.4599 8.86422L21.5217 8.96974C21.563 9.05416 21.6042 9.13858 21.6248 9.223C21.6867 9.39183 21.7279 9.58178 21.7485 9.77172C21.7692 10.0883 21.7073 10.4049 21.6042 10.6581C21.5011 10.9114 21.3774 11.1013 21.398 11.1646C21.4186 11.2068 21.5423 11.1013 21.6867 10.8903C21.7692 10.7847 21.831 10.6581 21.8929 10.5104C21.9135 10.4682 21.9341 10.3204 21.9547 10.1938Z" fill="#0A1854"/>
<path d="M19.5031 10.8463C19.9361 11.1418 20.4722 11.4372 21.0083 11.6694C21.3588 11.8171 21.7299 11.9437 22.0598 12.0915C22.3897 12.2392 22.699 12.4291 22.9052 12.7035C23.1114 12.9779 23.132 13.3366 22.9877 13.6321C22.8433 13.9487 22.6165 14.223 22.3279 14.4552C22.0598 14.6873 21.7506 14.8773 21.4207 14.9828C21.0495 15.1094 20.699 15.2783 20.3691 15.4682C20.0392 15.6581 19.7093 15.8903 19.4 16.0591C19.0908 16.228 18.7403 16.3546 18.3897 16.4179C18.0392 16.4812 17.6681 16.4812 17.3382 16.3968C16.9877 16.3335 16.6784 16.1647 16.4104 15.9536C16.1423 15.7215 15.8537 15.4471 15.5444 15.215C15.4 15.0883 15.2351 14.9828 15.0701 14.8773C14.9877 14.814 14.9052 14.7718 14.8227 14.7084C14.7403 14.6662 14.6784 14.6029 14.5959 14.5607C14.3279 14.3497 14.0805 14.0753 13.9567 13.7587C13.8124 13.4422 13.8537 13.1256 14.0805 12.8934C14.1836 12.7879 14.3485 12.6613 14.4928 12.5558L14.9464 12.197C15.2351 11.9648 15.5444 11.7116 15.833 11.4794C15.9567 11.3739 16.0598 11.2684 16.1836 11.1629C16.2866 11.0573 16.4104 10.9729 16.5341 10.9096C16.7815 10.7619 17.0289 10.6564 17.2763 10.593C17.7506 10.4664 18.1011 10.4453 18.0805 10.382C18.0598 10.3187 17.7506 10.2343 17.2351 10.2976C16.9877 10.3398 16.6784 10.4242 16.3897 10.5719C16.2454 10.6564 16.1011 10.7619 15.9567 10.8674C15.833 10.9729 15.6887 11.0995 15.565 11.2051C15.1939 11.5216 14.8021 11.8382 14.4104 12.1337L14.1629 12.3236C14.0805 12.3869 13.998 12.4502 13.9155 12.5347C13.7506 12.7035 13.6062 12.9145 13.5444 13.1678C13.5031 13.4211 13.565 13.6743 13.6475 13.8854C13.7506 14.0964 13.8537 14.2863 14.0186 14.4552C14.1629 14.624 14.3279 14.7718 14.5134 14.8984C14.699 15.025 14.864 15.1305 15.0495 15.2572C15.4 15.5104 15.7093 15.7848 16.0392 16.0802C16.3691 16.3968 16.8021 16.6501 17.2763 16.7345C17.7506 16.84 18.2248 16.8189 18.699 16.6923C19.1732 16.5868 19.6269 16.3335 20.0186 16.0591C20.431 15.8059 20.8433 15.5526 21.297 15.3627C21.4 15.3205 21.5031 15.2783 21.6475 15.2361C21.7712 15.1938 21.8949 15.1305 22.0186 15.0672C22.266 14.9406 22.4928 14.7506 22.699 14.5607C22.9052 14.3497 23.1114 14.1175 23.2557 13.822C23.4 13.5266 23.4619 13.1467 23.3382 12.7879C23.2145 12.4502 22.9464 12.1759 22.6578 12.007C22.3691 11.8171 22.0598 11.7116 21.7506 11.585C21.1526 11.3739 20.5547 11.1207 19.998 10.783C19.833 10.6775 19.6269 10.5508 19.4207 10.4664C19.2145 10.382 19.0083 10.2976 18.8227 10.2554C18.4516 10.1709 18.1423 10.1921 18.1011 10.2343C18.0598 10.2765 18.2866 10.2976 18.5753 10.382C18.864 10.5086 19.2351 10.6775 19.5031 10.8463Z" fill="#0A1854"/>
<path d="M28.5957 34.4843C28.8225 34.611 29.0699 34.6954 29.3379 34.7165C29.606 34.7376 29.874 34.7165 30.1421 34.6532C30.6781 34.5266 31.173 34.2944 31.6266 33.9989C31.7709 33.8934 31.9153 33.7879 32.0596 33.6613C32.2039 33.5346 32.307 33.408 32.4513 33.3447C32.7194 33.197 33.0699 33.2181 33.3998 33.2392C33.7297 33.2814 34.039 33.3869 34.2864 33.5768C34.5338 33.7668 34.6988 34.0622 34.8225 34.3788C34.8637 34.4632 34.8843 34.5266 34.905 34.6321C34.9256 34.7165 34.9668 34.8009 34.9668 34.8642C34.9874 35.0542 35.0287 35.223 35.0699 35.3918C35.1524 35.7506 35.2555 36.0883 35.3998 36.426C35.6678 37.1013 36.0596 37.7345 36.4926 38.3043C36.6988 38.5786 36.905 38.853 37.008 39.1485C37.1111 39.4439 37.0905 39.7394 36.905 39.9927C36.7194 40.2459 36.4513 40.4358 36.1627 40.6258C36.0184 40.7102 35.874 40.7946 35.7091 40.879L35.2348 41.1112L34.307 41.5755C33.9977 41.7232 33.6678 41.8921 33.3792 42.082C32.7812 42.4619 32.2039 42.9051 31.7091 43.4327C31.4617 43.686 31.2348 43.9814 30.9874 44.2136C30.7606 44.4668 30.4926 44.699 30.2245 44.91C29.6885 45.3321 29.0905 45.6487 28.4307 45.8386C28.2658 45.8808 28.1008 45.923 27.9359 45.9442L27.6885 45.9864C27.606 46.0075 27.5235 45.9864 27.441 46.0075C27.2761 46.0286 27.1111 45.9864 26.9462 45.9864C26.8637 45.9653 26.7812 45.9442 26.6988 45.9442L26.5751 45.9231L26.4513 45.8808C26.1421 45.7753 25.8534 45.6276 25.606 45.4165C25.4823 45.311 25.3586 45.1844 25.2555 45.0789C25.1524 44.9522 25.0493 44.8256 24.9874 44.6779C24.905 44.5301 24.8431 44.3824 24.7812 44.2347C24.74 44.0658 24.6781 43.9181 24.6575 43.7493C24.5957 43.4116 24.6163 43.0739 24.6369 42.7363C24.6781 42.3775 24.74 42.0398 24.8019 41.7021C24.8637 41.3645 24.9874 41.0479 25.0905 40.6891C25.5235 39.3173 25.7915 37.9033 25.9153 36.4682C25.9359 36.1727 25.9565 35.8772 25.9565 35.5818C25.9565 35.2863 25.9771 35.012 26.0184 34.7376C26.1008 34.1889 26.2452 33.6613 26.4101 33.2181C26.5751 32.796 26.8019 32.4794 27.008 32.3106C27.1936 32.1206 27.3379 32.0573 27.2967 32.0151C27.2761 31.994 27.1111 32.0362 26.8843 32.1839C26.6575 32.3317 26.3689 32.6271 26.1627 33.0703C25.9565 33.5135 25.7915 34.0411 25.6885 34.6532C25.6472 34.9486 25.606 35.2863 25.606 35.6029C25.5854 35.9195 25.5647 36.236 25.5441 36.5737C25.4617 37.5023 25.3173 38.4098 25.1111 39.3173C25.0287 39.6972 24.9256 40.056 24.8225 40.4358C24.7606 40.6258 24.7194 40.7946 24.6575 40.9846C24.5957 41.1745 24.5544 41.3644 24.4926 41.5544C24.4101 41.9343 24.3483 42.3353 24.307 42.7363C24.2658 43.1372 24.2658 43.5593 24.3689 43.9603C24.5544 44.7623 25.0287 45.5432 25.7503 45.9653C26.1008 46.1763 26.5132 46.324 26.9256 46.3874C27.3379 46.4507 27.7709 46.4085 28.1833 46.3451C29.008 46.1763 29.7915 45.7964 30.4513 45.2688C30.7812 44.9944 31.1111 44.699 31.3998 44.3824C31.6885 44.0447 31.9565 43.7493 32.2658 43.4538C32.8843 42.884 33.606 42.3986 34.4101 41.9976C34.8019 41.7865 35.2142 41.5755 35.6266 41.3645C36.039 41.1534 36.4513 40.9424 36.8431 40.6258C37.0287 40.4781 37.1936 40.2881 37.3173 40.0349C37.441 39.7816 37.441 39.4861 37.3792 39.2118C37.2348 38.6842 36.8637 38.2621 36.5751 37.8611C35.9771 37.038 35.5029 36.025 35.3173 34.9064C35.3173 34.8431 35.2967 34.7376 35.2555 34.6743L35.1936 34.4632C35.1524 34.3155 35.0905 34.1678 35.008 34.0411C34.8637 33.7668 34.6575 33.4924 34.3895 33.3025C34.1214 33.1125 33.7915 33.0281 33.4823 32.9859C33.3173 32.9648 33.173 32.9648 33.008 32.9648C32.8431 32.9648 32.6781 32.9859 32.5132 33.0281C32.3482 33.0914 32.1833 33.1759 32.0596 33.3025L31.8946 33.4713C31.8328 33.5135 31.7915 33.5768 31.7297 33.6191C31.5029 33.809 31.2555 33.9567 30.9874 34.0834C30.4513 34.3366 29.8946 34.5477 29.3379 34.4843C28.9874 34.4421 28.6575 34.3155 28.3895 34.0622C28.1214 33.809 27.9565 33.4924 27.8328 33.197C27.7091 32.9015 27.6266 32.606 27.5647 32.395C27.5029 32.1839 27.441 32.0362 27.4204 31.994C27.3998 31.9518 27.3998 32.0573 27.4204 32.205C27.441 32.3739 27.4823 32.6271 27.5441 32.9015C27.6266 33.1759 27.7297 33.5135 27.8946 33.809C28.0596 34.0622 28.307 34.3366 28.5957 34.4843Z" fill="#0A1854"/>
<path d="M8.55147 44.9948C8.1391 44.7626 7.68549 44.5305 7.21126 44.3406C6.73704 44.1506 6.22157 44.0029 5.72673 43.8762C5.06693 43.7285 4.38652 43.623 3.72673 43.5386C3.06693 43.4753 2.38652 43.3908 1.78858 43.1798C1.49992 43.0743 1.23188 42.8843 1.08755 42.6311C0.943223 42.3778 0.922604 42.0401 0.963841 41.7236C0.98446 41.5547 1.00508 41.3859 1.04632 41.2382C1.08755 41.0693 1.12879 40.9427 1.19065 40.7739C1.31436 40.4362 1.39683 40.0774 1.41745 39.7186C1.43807 39.3599 1.41745 39.0011 1.37621 38.6423C1.33498 38.2835 1.2525 37.967 1.23188 37.6293C1.21126 37.2916 1.19065 36.9539 1.2525 36.6585C1.31436 36.363 1.47931 36.0886 1.70611 35.8776C1.93291 35.6665 2.22157 35.5399 2.53085 35.4133C2.67518 35.35 2.84013 35.3078 3.00508 35.2445C3.17003 35.1811 3.33498 35.1178 3.49992 35.0545C3.82982 34.9068 4.11848 34.6957 4.38652 34.4425C4.51023 34.3159 4.63394 34.1892 4.75766 34.0415C4.81951 33.9782 4.86075 33.8938 4.9226 33.8304L5.06693 33.6194C5.2525 33.345 5.45869 33.0707 5.68549 32.8385C5.89168 32.6064 6.1391 32.3953 6.42776 32.2898C6.71642 32.1843 7.00508 32.1843 7.29374 32.2476C7.5824 32.332 7.85044 32.4797 8.11848 32.6908C8.3659 32.8807 8.59271 33.1129 8.79889 33.3872C8.90199 33.5139 8.98446 33.6616 9.06693 33.8093L9.31436 34.2525L10.2834 36.0675L10.7783 36.975C10.9432 37.2916 11.1288 37.5871 11.335 37.8614C11.7267 38.4313 12.1803 38.9589 12.5927 39.5076C13.0051 40.0563 13.4174 40.5839 13.7473 41.1749C13.8298 41.3226 13.9123 41.4703 13.9742 41.6181C14.0154 41.7025 14.036 41.7658 14.0772 41.8502L14.1597 42.0824C14.2216 42.2301 14.2422 42.3989 14.2834 42.5467L14.304 42.7788L14.3247 42.9054V43.0321C14.3247 43.5386 14.1803 44.0873 13.8504 44.4883C13.5412 44.8893 13.1082 45.1636 12.6958 45.3114C12.2834 45.4591 11.9123 45.5224 11.6443 45.5646C11.3762 45.6068 11.2319 45.6279 11.2525 45.6701C11.2731 45.7123 11.4174 45.7335 11.6855 45.7335C11.9329 45.7546 12.3247 45.7335 12.7577 45.6068C13.1906 45.4802 13.7061 45.2269 14.0979 44.7415C14.5102 44.2772 14.737 43.5808 14.7164 42.9054C14.6958 42.42 14.5515 41.9557 14.3659 41.5336C14.1803 41.0904 13.9123 40.7106 13.6649 40.3518C13.2319 39.7397 12.7577 39.1488 12.304 38.579C11.8298 37.9881 11.3968 37.3971 11.0463 36.7429C10.6958 36.0675 10.3247 35.3922 9.95353 34.7168C9.76796 34.3792 9.5824 34.0415 9.39683 33.6827C9.21126 33.3239 8.96384 32.9863 8.65456 32.7119C8.3659 32.4375 8.01539 32.1843 7.62364 32.0154C7.23188 31.8677 6.75766 31.8255 6.34528 31.9943C5.93291 32.1421 5.5824 32.4586 5.33497 32.7963C5.06693 33.1129 4.81951 33.4717 4.59271 33.8093C4.34528 34.1259 4.05662 34.4214 3.70611 34.6324C3.54116 34.7379 3.35559 34.8224 3.14941 34.9068C2.96384 34.9701 2.73704 35.0334 2.53085 35.1178C2.32467 35.2022 2.11848 35.2867 1.91229 35.3922C1.70611 35.5188 1.52054 35.6665 1.35559 35.8565C1.0257 36.2364 0.922604 36.764 0.943223 37.2283C0.943223 37.6715 1.0257 38.1569 1.10817 38.6212C1.17003 39.0855 1.21126 39.5709 1.12879 40.0563C1.08755 40.2885 1.0257 40.5417 0.922604 40.7739C0.819511 41.0482 0.778274 41.3226 0.737037 41.5758C0.6958 41.8502 0.675181 42.1457 0.737037 42.4411C0.778274 42.5889 0.819511 42.7366 0.901986 42.8843C0.98446 43.011 1.08755 43.1376 1.21126 43.2431C1.45869 43.4331 1.74735 43.5597 2.01539 43.623C2.28343 43.7074 2.57209 43.7496 2.86075 43.7918C3.43807 43.8762 3.99477 43.8974 4.57209 44.0029C5.70611 44.1717 6.84013 44.4461 7.89168 44.9526C8.05662 45.037 8.22157 45.1214 8.38652 45.2058C8.55147 45.2903 8.73704 45.3747 8.9226 45.4591C9.29374 45.6068 9.64425 45.6912 9.97415 45.7546C10.6339 45.8812 11.1288 45.8601 11.2319 45.7968C11.3144 45.7546 10.9226 45.7335 10.3659 45.6279C9.74735 45.4802 9.06693 45.2692 8.55147 44.9948Z" fill="#0A1854"/>
<path d="M8.84023 29.4829C8.90208 29.6517 8.96394 29.8206 9.02579 29.9894L9.1495 30.2427L9.29383 30.517C9.35569 30.6437 9.41754 30.707 9.50002 30.7703C9.54126 30.7914 9.58249 30.8336 9.64435 30.8547C9.66497 30.8125 9.66497 30.7703 9.68559 30.7281L9.7062 30.6648V30.6226V30.5803L9.72682 30.3904L9.76806 30.0738C9.8093 29.6939 9.85053 29.3352 9.91239 28.9553C9.97425 28.5754 10.0567 28.2166 10.1392 27.8367C10.5103 26.3383 11.1289 24.9032 11.7681 23.5314C12.4485 22.0963 13.0876 20.619 13.6031 19.0994C13.8505 18.3397 14.098 17.5799 14.2423 16.7779C14.3248 16.3769 14.3866 15.9759 14.4485 15.5961L14.4691 15.3639C14.4691 15.3428 14.4691 15.3006 14.4897 15.3217C14.4897 15.3217 14.7165 15.4483 14.8608 15.5538C15.1701 15.7649 15.4588 16.0393 15.7681 16.2925C16.0773 16.5458 16.4279 16.7779 16.799 16.9256C17.1701 17.0945 17.5825 17.1789 17.9949 17.1578C18.4072 17.1578 18.8196 17.0523 19.1907 16.9045C19.3763 16.8201 19.5619 16.7357 19.7474 16.6513C19.9124 16.5458 20.098 16.4402 20.2629 16.3558C20.5928 16.1448 20.9227 15.9548 21.2732 15.8071C21.4588 15.7227 21.6237 15.6594 21.8093 15.575C21.9949 15.4905 22.1804 15.4061 22.366 15.3006C22.5309 15.1951 22.6959 15.0684 22.8608 14.9207C22.9433 14.8574 23.0052 14.773 23.0876 14.7097L23.1495 14.6464L23.1701 14.6675V14.6886L23.1907 14.7308C23.2114 14.8363 23.2526 15.0051 23.2938 15.1318C23.3763 15.385 23.4382 15.6383 23.5206 15.8915C23.6856 16.398 23.8505 16.9045 24.0155 17.4111C24.366 18.4241 24.7371 19.416 25.1495 20.4079C25.5619 21.3998 25.9949 22.3495 26.4691 23.3204C26.7165 23.8058 26.9433 24.2701 27.1701 24.7344C27.3763 25.2198 27.5825 25.7052 27.7474 26.1906C27.9124 26.6971 28.0567 27.1825 28.1804 27.7101C28.2423 27.9634 28.3041 28.2166 28.3454 28.491C28.3866 28.6387 28.4072 28.7864 28.5516 28.9342C28.6134 28.9975 28.7165 29.0608 28.799 29.0819C28.8815 29.103 28.9639 29.1241 29.0464 29.1241H29.1495C29.1701 29.1241 29.2114 29.1241 29.232 29.1241C29.2938 29.1241 29.3557 29.1452 29.4175 29.1663L29.6031 29.2085L29.7062 29.2296L29.7474 29.1452C29.7681 29.0819 29.8093 29.0397 29.8299 28.9764L29.8712 28.8709C29.9742 28.5965 30.0361 28.3221 30.0773 28.0478C30.1598 27.4991 30.1392 26.9503 30.098 26.4016C30.0155 25.3042 29.6856 24.249 29.1701 23.2992C28.9227 22.8138 28.6134 22.3706 28.3041 21.9274C28.1392 21.7164 27.9742 21.5054 27.7887 21.2943C27.7062 21.1888 27.5825 21.0833 27.5206 20.9988C27.4382 20.9144 27.3969 20.83 27.3969 20.7667L27.3351 20.9355C27.3145 20.9144 27.3145 20.8722 27.3145 20.8722C27.3145 20.8722 27.3145 20.8933 27.2938 20.8933C27.2938 20.8933 27.2938 20.9144 27.2732 20.9144C27.2732 20.9144 27.2526 20.9355 27.2732 20.9355C27.2732 20.9355 27.3557 21.0199 27.3969 21.0622L27.665 21.3576C27.8505 21.5687 28.0155 21.7586 28.1804 21.9697C28.5103 22.3917 28.8402 22.8349 29.1083 23.2992C29.665 24.2278 30.0773 25.2409 30.2835 26.2961C30.3866 26.8237 30.4485 27.3724 30.4485 27.9001C30.4485 28.1744 30.4485 28.4277 30.4072 28.6809C30.3866 28.7442 30.3866 28.8076 30.366 28.8709C30.3454 28.9553 30.3248 29.0397 30.3248 29.1241C30.3248 29.2296 30.3454 29.3352 30.4279 29.4196C30.4897 29.504 30.5722 29.5673 30.634 29.6095C30.7784 29.6939 30.9021 29.7362 31.0052 29.7995C31.1289 29.8628 31.2526 29.9261 31.3557 29.9894C31.5825 30.116 31.8093 30.2638 32.0155 30.4115C32.4279 30.7281 32.8402 31.0869 33.0052 31.53C33.0464 31.6356 33.067 31.7622 33.0876 31.8888C33.0876 31.9521 33.0876 32.0155 33.0876 32.0788V32.1843C33.0876 31.8888 32.9846 31.5512 32.8196 31.2979C32.634 31.0446 32.4072 30.8547 32.1804 30.6859C31.7062 30.3693 31.232 30.116 30.7165 29.8839C30.201 29.6728 29.665 29.504 29.0876 29.4618C28.799 29.4407 28.4897 29.4618 28.201 29.5884C28.0567 29.6517 27.933 29.7362 27.8093 29.8417C27.7062 29.9472 27.6031 30.0738 27.5206 30.2216C27.4382 30.3482 27.3969 30.4959 27.3351 30.6437C27.3145 30.707 27.2938 30.7914 27.2732 30.8547L27.232 31.0446C27.2114 31.108 27.2114 31.1291 27.1907 31.1291C27.1907 31.1291 27.1701 31.1502 27.1495 31.1502L27.067 31.1924C26.9433 31.2557 26.8196 31.319 26.6959 31.4034C26.201 31.72 25.8505 32.2265 25.6237 32.7541C25.3969 33.2817 25.2732 33.8305 25.1701 34.4003C25.067 34.949 25.0258 35.5188 24.9846 36.0675L24.9433 36.8906C24.9227 37.165 24.9227 37.4393 24.8815 37.6926C24.799 38.2202 24.6547 38.7478 24.5103 39.2754L24.4072 39.6764L24.3866 39.782L24.366 39.8242C24.366 39.8453 24.366 39.8453 24.366 39.8453C24.3454 39.8664 24.3248 39.9086 24.3041 39.9297C24.2629 39.9508 24.201 39.993 24.1598 40.0352L23.9949 40.1407C23.8918 40.2252 23.7681 40.2885 23.6443 40.3518C23.1907 40.6261 22.7165 40.8794 22.2217 41.0904C21.7268 41.3015 21.232 41.4703 20.7165 41.597C19.6856 41.8502 18.6134 41.8924 17.5825 41.7447C17.067 41.6603 16.5309 41.5336 16.0567 41.3437C15.5619 41.1538 15.0876 40.9005 14.6547 40.6261C14.4691 40.5206 14.3454 40.2885 14.1804 40.0563L13.6856 39.381L13.4382 39.0433L13.4175 39.0011L13.5825 38.9589C13.7062 38.9378 13.8712 38.8956 13.9949 38.8323C14.2835 38.7056 14.5309 38.4735 14.6547 38.178C14.799 37.8825 14.799 37.5449 14.7371 37.2494C14.634 36.6585 14.3454 36.1309 14.0155 35.6877C13.3557 34.7802 12.5103 34.0204 11.6237 33.3873C11.3145 33.1551 11.0052 32.9441 10.6959 32.7541C10.5309 32.6486 10.3866 32.5431 10.2423 32.4375C10.098 32.332 9.95363 32.2054 9.8093 32.0788C9.2526 31.5934 8.79899 30.9813 8.53095 30.306C8.26291 29.6306 8.18043 28.892 8.22167 28.1744C8.26291 27.478 8.40724 26.7815 8.5928 26.1695C8.96394 24.9243 9.4794 23.8691 9.87115 23.0882C10.2835 22.3073 10.5928 21.7797 10.6753 21.5476L10.5928 21.5687C10.6753 21.6109 10.7165 21.6109 10.7165 21.6109C10.7165 21.5898 10.6753 21.5687 10.634 21.5265C10.4897 21.7164 10.1598 22.1807 9.74744 22.8983C9.33507 23.6158 8.79899 24.6077 8.366 25.8529C8.15981 26.486 7.97425 27.1614 7.89177 27.9212C7.8093 28.6809 7.85053 29.504 8.13919 30.2849C8.40724 31.0869 8.94332 31.8044 9.58249 32.3953C9.91239 32.6908 10.2835 32.9441 10.634 33.1762C11.0052 33.4084 11.3557 33.6616 11.6856 33.936C12.2011 34.337 12.6959 34.7591 13.1289 35.2445C13.5619 35.7299 13.9742 36.2364 14.2011 36.8273C14.3041 37.1228 14.3866 37.4393 14.366 37.7137C14.3454 38.0092 14.2011 38.2413 13.9742 38.4102C13.8712 38.4946 13.7268 38.5579 13.5825 38.579C13.5206 38.6001 13.4382 38.6212 13.3557 38.6212L12.9433 38.7056L12.6959 38.7478L12.8402 38.9378L13.0876 39.2966L13.3763 39.6975L13.7681 40.2252C13.8918 40.394 13.9949 40.5839 14.1804 40.7739C14.2629 40.8583 14.3866 40.9427 14.4691 41.006L14.7578 41.1749C14.9433 41.2804 15.1495 41.3859 15.3351 41.4914C15.7268 41.6814 16.1598 41.8502 16.5928 41.9346C17.0258 42.0613 17.4588 42.1246 17.8918 42.1879C18.7784 42.2723 19.665 42.2301 20.5309 42.0402C21.3969 41.8502 22.2217 41.5125 23.0258 41.1116C23.4175 40.9005 23.8093 40.6895 24.1804 40.4362C24.2835 40.3729 24.366 40.3307 24.4691 40.2463C24.5309 40.2041 24.5722 40.1618 24.6134 40.0774C24.6547 40.0141 24.6753 39.9086 24.6959 39.8664L24.8815 39.2121C25.0052 38.7689 25.1083 38.3468 25.1907 37.8825C25.232 37.6504 25.2526 37.4182 25.2732 37.1861L25.3145 36.5107C25.3557 35.6032 25.4382 34.7168 25.6443 33.8305C25.7474 33.3873 25.8918 32.9652 26.098 32.5853C26.3041 32.2054 26.5928 31.8677 26.9433 31.6356C27.0258 31.5723 27.1289 31.53 27.2114 31.4878L27.2732 31.4456C27.2938 31.4245 27.3351 31.4034 27.3763 31.3823C27.4382 31.3401 27.5 31.2557 27.5413 31.1713C27.6031 31.0235 27.6031 30.918 27.6237 30.8125C27.6443 30.707 27.6856 30.6014 27.7268 30.517C27.8712 30.116 28.201 29.8417 28.6134 29.7784C29.0258 29.7151 29.4794 29.7995 29.8918 29.905C30.3248 30.0316 30.7371 30.2005 31.1289 30.4115C31.5206 30.6226 31.933 30.8547 32.2629 31.1502C32.4279 31.2979 32.5516 31.4667 32.634 31.6567C32.6753 31.7622 32.6959 31.8466 32.7165 31.9521C32.7165 32.0155 32.7371 32.0577 32.7165 32.121C32.7165 32.1632 32.7165 32.2265 32.7165 32.2898V32.332C32.7165 32.3531 32.7165 32.3531 32.7165 32.3531L32.7371 32.3953L32.7577 32.5009V32.522C32.7577 32.522 32.7578 32.5431 32.7784 32.5431L32.8402 32.5642C32.9227 32.5853 33.0052 32.6064 33.0876 32.5853C33.2732 32.5642 33.3763 32.4164 33.4175 32.1843C33.4382 32.121 33.4382 32.0999 33.4382 32.0577C33.4382 32.0155 33.4382 31.9944 33.4382 31.9521C33.4382 31.8888 33.4382 31.8255 33.4382 31.7622C33.4382 31.6356 33.3969 31.5089 33.3557 31.3823C33.1907 30.8758 32.799 30.4959 32.4279 30.2005C32.0361 29.8839 31.6237 29.6517 31.1907 29.4196C30.9846 29.3141 30.7165 29.2085 30.6753 29.103C30.6547 29.0608 30.6547 28.9764 30.6753 28.8709C30.7165 28.7442 30.7371 28.6176 30.7371 28.491C30.7578 28.2377 30.7784 27.9845 30.7577 27.7312L30.7371 27.3513L30.6959 26.9715C30.634 26.4649 30.5516 25.9795 30.4279 25.4941C30.1598 24.5233 29.7474 23.5947 29.1907 22.7505C28.9227 22.3284 28.634 21.9063 28.3041 21.5265C28.1392 21.3365 27.9742 21.1466 27.8093 20.9566L27.5413 20.6823L27.4794 20.619C27.4588 20.5979 27.4175 20.5556 27.3763 20.5345C27.3351 20.4923 27.232 20.4923 27.1701 20.5134C27.1083 20.5345 27.067 20.5767 27.0258 20.5979L26.9639 20.6612V20.7456C26.9846 20.9144 27.067 21.0622 27.1701 21.1677C27.2732 21.2732 27.3557 21.3576 27.4382 21.442C27.6031 21.632 27.7681 21.8219 27.9124 22.033C28.2217 22.434 28.5103 22.856 28.7371 23.2992C29.232 24.1856 29.5619 25.1987 29.665 26.2328C29.7268 26.7604 29.7268 27.288 29.665 27.8156C29.6443 28.0689 29.5825 28.3221 29.5 28.5754C29.4794 28.5965 29.4794 28.6387 29.4588 28.6598L29.4382 28.702L29.4175 28.7231C29.4175 28.7442 29.4175 28.7442 29.3969 28.7442L29.2526 28.7231C29.1907 28.702 29.1083 28.702 29.0258 28.702C28.9021 28.702 28.799 28.6809 28.7371 28.6387C28.6753 28.5965 28.634 28.491 28.6134 28.3644C28.5516 28.1111 28.5103 27.8156 28.4279 27.5624C28.3041 27.0137 28.1392 26.486 27.9536 25.9584C27.6856 25.1565 27.3351 24.3334 26.9021 23.5103C26.4897 22.6872 26.0773 21.8219 25.665 20.8933C25.2526 19.9436 24.8402 18.9306 24.4485 17.8331C24.2423 17.2844 24.0567 16.6935 23.8505 16.1026C23.7474 15.8071 23.665 15.4905 23.5619 15.174C23.5206 15.0262 23.4588 14.8363 23.4382 14.7097L23.4175 14.583C23.4175 14.5619 23.3969 14.5197 23.3969 14.4775C23.3763 14.4353 23.3763 14.4142 23.3557 14.372C23.3145 14.3087 23.2938 14.2454 23.2526 14.2032L23.1907 14.1187C23.1701 14.0976 23.1495 14.0554 23.1289 14.0554L22.9433 14.2876C22.9021 14.3298 22.8815 14.372 22.8402 14.3931L22.7784 14.4564C22.6959 14.5408 22.634 14.6041 22.5516 14.6675C22.3866 14.8152 22.2217 14.9418 22.0361 15.0473C21.9536 15.1107 21.8505 15.1529 21.7474 15.1951C21.6443 15.2373 21.5413 15.2795 21.4382 15.3217C21.2114 15.4061 21.0052 15.5116 20.799 15.6172C20.5928 15.7227 20.3866 15.8493 20.1804 15.9759C20.0773 16.0393 19.9742 16.1026 19.8712 16.1659C19.7681 16.2292 19.665 16.2925 19.5619 16.3347C19.1495 16.5669 18.6959 16.7357 18.2423 16.799C17.7681 16.8623 17.2938 16.799 16.8608 16.588C16.4072 16.398 15.9949 16.1026 15.6237 15.7438C15.4175 15.5538 15.2114 15.385 14.9846 15.2373L14.8402 15.1529L14.7578 15.0895L14.634 15.0262C14.5309 14.9629 14.4072 14.8996 14.3041 14.8574L14.2217 14.8152C14.2217 14.8363 14.2217 14.8785 14.2011 14.8996L14.1804 15.0895C14.1392 15.4061 14.1392 15.4694 14.1186 15.6172L14.0567 16.0182C14.0155 16.2925 13.9536 16.5669 13.9124 16.8201C13.4382 18.9728 12.5516 21.1255 11.5619 23.2359C11.067 24.2912 10.5722 25.3886 10.2011 26.5283C10.0155 27.0981 9.85053 27.689 9.72682 28.2799C9.60311 28.8709 9.54126 29.4829 9.4794 30.0738L9.45878 30.2427V30.2638L9.39693 30.1582C9.33507 30.0316 9.27321 29.905 9.23198 29.7784C9.02579 29.2719 8.90208 28.7231 8.86084 28.1744C8.79899 27.077 9.02579 25.9795 9.33507 25.072C9.64435 24.1645 10.0361 23.4048 10.3248 22.8138C10.6134 22.2229 10.7578 21.8008 10.7784 21.6531C10.7784 21.5476 10.7165 21.7797 10.5103 22.2018C10.3041 22.6239 9.93301 23.2359 9.58249 23.9746C9.23198 24.7344 8.88146 25.6419 8.71651 26.6127C8.53095 27.6046 8.55157 28.6176 8.84023 29.4829Z" fill="#0A1854"/>
<path d="M33.1938 23.848C32.5134 22.434 31.6062 21.0411 30.5959 19.6904C29.565 18.3397 28.431 17.0523 27.6681 15.575C27.4206 15.0896 27.1938 14.583 27.0701 14.0554C26.9258 13.5278 26.8639 12.9791 26.8433 12.4304C26.8021 11.3118 26.8639 10.1933 26.8433 9.07473C26.8227 7.95618 26.7402 6.81653 26.4928 5.71909C26.266 4.62165 25.8949 3.52421 25.2763 2.5745C24.967 2.1102 24.5753 1.667 24.1423 1.30823C23.7093 0.949447 23.1938 0.675087 22.6784 0.46404C22.1423 0.252994 21.6062 0.147471 21.0495 0.084157C20.4722 -0.000261519 19.9155 -0.0213662 19.3588 -0.000261522C18.8021 0.0208431 18.2454 0.105262 17.7093 0.231889C17.1732 0.358517 16.6371 0.527354 16.1217 0.78061C15.6062 1.03387 15.132 1.35043 14.7196 1.75142C14.3072 2.15241 13.9567 2.61671 13.6887 3.12322C13.132 4.13625 12.8639 5.2759 12.7402 6.39444C12.5959 7.51299 12.6371 8.65264 12.699 9.77118C12.7815 10.8686 12.8846 11.9872 12.7815 13.0846C12.699 14.182 12.431 15.2584 11.998 16.2714C11.7918 16.7779 11.5237 17.2633 11.2351 17.7065C10.9464 18.1708 10.5959 18.5929 10.266 19.0361C9.5856 19.9225 8.9258 20.83 8.32787 21.7586C7.72993 22.7083 7.17323 23.6791 6.67838 24.6922C6.18354 25.7052 5.75055 26.7393 5.46189 27.8367C5.15261 28.9342 5.00828 30.0738 5.07013 31.2135C5.09075 31.4667 5.04951 31.72 4.96704 31.9521C4.88457 32.1843 4.74024 32.4165 4.57529 32.6275C4.26601 33.0707 3.91549 33.4717 3.4825 33.7883C3.07013 34.1048 2.59591 34.3581 2.08044 34.5269C1.8124 34.6113 1.54436 34.7169 1.29694 34.8857C1.04951 35.0545 0.822711 35.2656 0.657762 35.5188C0.307247 36.0253 0.204154 36.6585 0.245391 37.2494C0.245391 37.3971 0.266009 37.5449 0.286628 37.6926L0.348484 38.1147C0.389721 38.3891 0.430958 38.6634 0.451577 38.9378C0.492814 39.4865 0.451576 40.0141 0.286628 40.5206C0.266009 40.5839 0.245391 40.6473 0.224772 40.7106C0.183535 40.795 0.162917 40.8583 0.142298 40.9427C0.101061 41.0905 0.0804425 41.2382 0.0598239 41.3859C0.0185868 41.6603 -0.00203175 41.9557 0.0185868 42.2723C0.0392054 42.5678 0.12168 42.8843 0.286628 43.1587C0.451576 43.4331 0.678381 43.6652 0.925803 43.813C1.17323 43.9818 1.44127 44.0873 1.72993 44.1717C1.99797 44.2561 2.28663 44.3195 2.55467 44.3617C3.11137 44.4672 3.64745 44.5094 4.18354 44.5727C4.71962 44.636 5.2557 44.7204 5.77116 44.8471C6.28663 44.9737 6.80209 45.1425 7.29694 45.3536C7.54436 45.4591 7.77116 45.5857 8.01859 45.7335C8.26601 45.8601 8.53405 45.9656 8.80209 46.0711C9.33817 46.2611 9.89488 46.3877 10.4516 46.451C11.0083 46.5143 11.565 46.5354 12.1423 46.451C12.699 46.3877 13.2763 46.1767 13.7505 45.8601C13.9773 45.6913 14.2042 45.5013 14.3897 45.2692C14.4928 45.1636 14.5753 45.037 14.6578 44.9315L14.8639 44.5938C14.8846 44.5727 14.8846 44.5727 14.9258 44.5727C14.967 44.5727 15.0495 44.5727 15.1114 44.5516C15.2557 44.5516 15.4 44.5305 15.5237 44.5094C15.7918 44.4672 16.0804 44.425 16.3485 44.3617C16.8846 44.2561 17.4206 44.1506 17.9567 44.0873C18.4928 44.024 19.0289 43.9818 19.565 43.9818C19.833 43.9818 20.1011 44.0029 20.3691 44.024C20.6371 44.0451 20.9052 44.1084 21.1732 44.1506C21.7093 44.235 22.266 44.3195 22.8227 44.3406C23.0908 44.3617 23.3794 44.3617 23.6681 44.3617C23.7505 44.3617 23.7918 44.3617 23.8124 44.3617C23.833 44.3617 23.833 44.3617 23.8536 44.4039C23.8536 44.425 23.8743 44.4461 23.8743 44.4672L23.9155 44.5727L23.998 44.7838C24.2248 45.3114 24.5753 45.8179 25.0083 46.1978C25.4413 46.5777 25.9773 46.852 26.534 46.9786C27.6681 47.253 28.8433 46.9786 29.833 46.4721C30.3279 46.2189 30.8021 45.8812 31.2351 45.5013C31.4413 45.3114 31.6474 45.1214 31.833 44.9104C32.0186 44.6993 32.1835 44.4883 32.3897 44.2984C32.9877 43.6652 33.7093 43.1376 34.5134 42.7577C34.9258 42.5467 35.3176 42.3356 35.7299 42.1246C36.1217 41.9135 36.534 41.7236 36.9258 41.4492C37.2969 41.1749 37.6681 40.8583 37.8743 40.394C37.9773 40.1618 38.0392 39.9297 38.0392 39.6764C38.0392 39.4443 37.998 39.2121 37.9155 38.98C37.7712 38.5579 37.565 38.178 37.3176 37.8403C37.1938 37.6715 37.0701 37.5238 36.9258 37.3549C36.8021 37.2072 36.6784 37.0806 36.5753 36.9328C36.3691 36.6374 36.2454 36.3208 36.1423 35.9831C36.0598 35.6455 35.9773 35.3289 35.9155 35.0334C35.7712 34.4214 35.5856 33.8727 35.2969 33.5139C35.0289 33.134 34.699 32.9441 34.4928 32.8385C34.2866 32.733 34.1629 32.7119 34.1835 32.733C34.2042 32.7541 34.3072 32.8174 34.5134 32.9441C34.699 33.0707 34.967 33.2817 35.1938 33.6405C35.4206 33.9782 35.5856 34.4636 35.6887 35.0545C35.7505 35.35 35.8124 35.6455 35.8949 35.9831C35.9773 36.3208 36.1011 36.6585 36.2866 36.9962C36.3897 37.165 36.4928 37.3127 36.6165 37.4605C36.7402 37.6082 36.8639 37.7348 36.967 37.9037C37.1938 38.2202 37.4 38.5579 37.5237 38.9378C37.6681 39.3177 37.7299 39.7398 37.5856 40.0985C37.4413 40.4784 37.132 40.795 36.7815 41.0482C36.431 41.3226 36.0186 41.5125 35.5856 41.7447C35.1526 41.9557 34.7196 42.1879 34.2866 42.42C33.3794 42.8632 32.534 43.5175 31.833 44.3195C31.3588 44.8682 30.8639 45.3747 30.266 45.7546C29.6887 46.1345 29.0289 46.451 28.3691 46.5988C27.6887 46.7465 26.9877 46.7465 26.3485 46.5354C26.0186 46.4299 25.7299 46.2611 25.4413 46.0711C25.1732 45.8812 24.9258 45.6068 24.7196 45.3536C24.5547 45.1214 24.4103 44.8682 24.3072 44.5938L24.2248 44.3828C24.2042 44.3195 24.1629 44.1928 24.0598 44.1084C23.9567 44.0029 23.8124 44.0029 23.7299 44.0029H23.5031C22.9258 44.024 22.3279 43.9607 21.7505 43.8763C21.4619 43.8341 21.1732 43.7918 20.8639 43.7496C20.5547 43.7074 20.266 43.6652 19.9567 43.6441C19.3382 43.6019 18.7402 43.6441 18.1423 43.7074C17.5444 43.7707 16.9464 43.8763 16.3485 44.0029C16.0598 44.0662 15.7712 44.1295 15.4825 44.1717C15.3382 44.1928 15.1938 44.2139 15.0495 44.2139H14.9464C14.9052 44.2139 14.8433 44.2139 14.8021 44.235C14.7402 44.2561 14.6784 44.2773 14.6371 44.3195C14.5959 44.3617 14.5547 44.425 14.5341 44.4461C14.2454 44.9526 13.8536 45.4169 13.3588 45.6913C13.1114 45.839 12.8433 45.9445 12.5547 46.0289C12.266 46.0923 11.9774 46.1345 11.6887 46.1556C10.5134 46.1978 9.29694 45.9867 8.22477 45.4591C7.95673 45.3325 7.68869 45.1636 7.40003 45.037C7.11137 44.9104 6.82271 44.8049 6.51343 44.6993C5.91549 44.5094 5.29694 44.3828 4.67838 44.2984C4.05982 44.2139 3.44127 44.1506 2.84333 44.0662C2.24539 43.9818 1.62683 43.8552 1.13199 43.5386C0.884566 43.3698 0.678381 43.1798 0.554669 42.9055C0.430958 42.6522 0.389721 42.3567 0.389721 42.0402C0.389721 41.8924 0.410339 41.7447 0.410339 41.5759C0.430958 41.407 0.451576 41.2593 0.472195 41.1116C0.492814 41.0482 0.513432 40.9638 0.534051 40.9005C0.554669 40.8372 0.595906 40.7528 0.616525 40.6684C0.678381 40.4995 0.719618 40.3518 0.740236 40.183C0.863948 39.5076 0.802092 38.8323 0.698999 38.178C0.678381 38.0092 0.657762 37.8614 0.637143 37.6926C0.616525 37.5238 0.595906 37.376 0.595906 37.2283C0.595906 36.9117 0.616525 36.5952 0.719618 36.3208C0.884566 35.7299 1.35879 35.2656 1.91549 35.0334L2.3691 34.8646C2.53405 34.8013 2.67838 34.738 2.82271 34.6746C3.13199 34.5269 3.42065 34.3581 3.68869 34.147C4.22477 33.7249 4.67838 33.1973 5.04951 32.6275C5.23508 32.332 5.37941 31.9944 5.42065 31.6145C5.44127 31.2346 5.40003 30.918 5.42065 30.5803C5.44127 29.2508 5.77116 27.9212 6.24539 26.6338C7.17323 24.059 8.65776 21.6742 10.3897 19.416C10.8227 18.8673 11.2763 18.2975 11.6475 17.6643C12.0186 17.0312 12.3485 16.3769 12.5753 15.6594C12.8227 14.9629 12.9877 14.2243 13.0701 13.4856C13.1526 12.7469 13.1732 11.9872 13.132 11.2274C13.0701 9.79229 12.9052 8.31496 13.0495 6.77432C13.1114 6.01456 13.2351 5.23369 13.4619 4.47392C13.6887 3.73526 14.0392 2.9966 14.5547 2.38456C15.0495 1.77253 15.7299 1.28712 16.4722 0.949447C17.2145 0.632877 18.0392 0.421831 18.8846 0.337413C19.7299 0.252994 20.5753 0.274099 21.4206 0.421831C21.833 0.50625 22.266 0.611773 22.6578 0.759505C23.0495 0.928342 23.4413 1.13939 23.7918 1.39264C24.4928 1.92026 25.0495 2.63782 25.4413 3.43979C25.833 4.26287 26.1011 5.14927 26.266 6.05677C26.431 6.96427 26.5134 7.91397 26.534 8.86368C26.5753 9.81339 26.534 10.7631 26.534 11.7339C26.534 12.2193 26.534 12.7047 26.5959 13.2112C26.6578 13.6966 26.7815 14.1821 26.9464 14.6464C27.2763 15.575 27.8124 16.4191 28.3691 17.2211C28.9258 18.0231 29.5444 18.7618 30.1423 19.5215C30.7402 20.2813 31.2969 21.0622 31.8124 21.8852C32.4722 22.8983 33.0701 24.0379 33.5237 25.1776C33.9773 26.3172 34.2866 27.4991 34.3897 28.5543C34.5134 29.6095 34.4516 30.5592 34.3279 31.2557C34.2248 31.9521 34.0804 32.4165 34.0804 32.5853C34.0804 32.7119 34.1423 32.4587 34.3072 31.9521C34.4516 31.4456 34.6165 30.6859 34.6371 29.7573C34.6578 28.8287 34.5547 27.7734 34.2866 26.7393C34.0186 25.7474 33.6268 24.7344 33.1938 23.848Z" fill="#0A1854"/>
<path d="M16.7608 11.5009C16.7814 11.522 16.802 11.5009 16.8226 11.5009C17.0288 11.522 17.1525 11.4376 17.3381 11.4376C17.3793 11.4376 17.4206 11.3954 17.4206 11.2688C17.4206 11.1421 17.3793 11.0577 17.3381 11.0366C17.3175 11.0366 17.2968 11.0366 17.2762 11.0366C17.1525 11.0999 17.0288 11.0788 16.9051 11.1632C16.8432 11.1844 16.7401 11.2055 16.6577 11.2477C16.6371 11.2688 16.5958 11.2899 16.6577 11.3743C16.6989 11.4798 16.7401 11.4798 16.7608 11.5009Z" fill="#0A1854"/>
<path d="M19.5622 11.4395C19.5622 11.4184 19.5416 11.3973 19.5416 11.3762C19.4179 11.1229 19.1498 11.0596 18.9024 10.9963C18.8612 10.9752 18.7787 10.9963 18.7581 11.144C18.7375 11.2707 18.7581 11.3551 18.7993 11.3762C18.8199 11.3762 18.8199 11.3973 18.8406 11.3973C18.9643 11.3762 19.0674 11.4606 19.1911 11.5028C19.2529 11.545 19.3148 11.6083 19.3766 11.6717C19.3973 11.6928 19.4385 11.6928 19.5004 11.6294C19.5828 11.5239 19.5622 11.4817 19.5622 11.4395Z" fill="#0A1854"/>
<path d="M21.4618 13.2315C21.2763 13.316 21.1113 13.4637 20.9257 13.5692C20.4721 13.8647 19.9979 14.139 19.5237 14.3501C19.0494 14.5611 18.534 14.73 18.0391 14.7722C17.0494 14.8777 15.9979 14.5189 15.2763 13.7803C15.1319 13.6325 14.9876 13.4637 14.8433 13.3582C14.6989 13.2527 14.5752 13.1682 14.4515 13.2527C14.3484 13.316 14.3278 13.4848 14.369 13.6959C14.4309 13.9069 14.5546 14.1602 14.7608 14.3501C14.8226 14.4345 14.9051 14.4978 14.9876 14.5611C15.0701 14.6245 15.1525 14.6878 15.235 14.7511C15.8123 15.1099 16.4309 15.3631 17.1319 15.4686C17.833 15.5742 18.5958 15.4686 19.3175 15.1521C19.668 15.0254 20.0804 14.8355 20.4927 14.5822C20.9051 14.329 21.3175 14.0335 21.7092 13.717C21.9567 13.5059 22.2247 13.2527 22.1216 13.0627C21.9979 12.915 21.6886 13.1049 21.4618 13.2315Z" fill="#0A1854"/>
</g>
<defs>
<clipPath id="clip0_113_573">
<rect width="38" height="47" fill="white"/>
</clipPath>
</defs>
</svg>
