<svg width="364" height="335" viewBox="0 0 364 335" fill="none" xmlns="http://www.w3.org/2000/svg">
<path d="M127 159L213 159" stroke="#535AE8" stroke-width="1.5"/>
<path d="M205 166L211.494 159.004L205 152L210.514 152L217 159.004L210.514 166L205 166Z" fill="#535AE8"/>
<path d="M290 90L296.996 96.4939L304 90V95.5137L296.996 102L290 95.5137V90Z" fill="#535AE8"/>
<path d="M297 98L297 69C297 60.7157 290.284 54 282 54L237 54" stroke="#535AE8" stroke-width="1.2"/>
<path d="M74 90L67.0041 96.4939L60 90V95.5137L67.0041 102L74 95.5137V90Z" fill="#535AE8"/>
<path d="M67 98L67 69C67 60.7157 73.7157 54 82 54L127 54" stroke="#535AE8" stroke-width="1.2"/>
<path d="M74 228L67.0041 221.506L60 228L60 222.486L67.0041 216L74 222.486L74 228Z" fill="#535AE8"/>
<path d="M67 220L67 249C67 257.284 73.7157 264 82 264L127 264" stroke="#535AE8" stroke-width="1.2"/>
<path d="M290 228L296.996 221.506L304 228L304 222.486L296.996 216L290 222.486L290 228Z" fill="#535AE8"/>
<path d="M297 220L297 249C297 257.284 290.284 264 282 264L237 264" stroke="#535AE8" stroke-width="1.2"/>
<g opacity="0.71" filter="url(#filter0_d_133_263)">
<rect x="127" y="7" width="110" height="94" rx="14" fill="white"/>
<rect x="127" y="7" width="110" height="94" rx="14" stroke="#535AE8" stroke-width="0.5" stroke-miterlimit="10"/>
</g>
<path d="M159.847 87V79.388H160.925L163.741 85.68L166.557 79.388H167.624V87H166.623V81.324L164.093 87H163.389L160.848 81.313V87H159.847ZM175.042 83.975C175.042 85.889 173.667 87.099 171.951 87.099C170.246 87.099 168.948 85.889 168.948 83.975C168.948 82.072 170.29 80.873 171.995 80.873C173.711 80.873 175.042 82.072 175.042 83.975ZM169.971 83.975C169.971 85.504 170.906 86.219 171.951 86.219C172.996 86.219 174.019 85.504 174.019 83.975C174.019 82.457 173.018 81.742 171.984 81.742C170.928 81.742 169.971 82.457 169.971 83.975ZM175.984 83.964C175.984 82.083 177.227 80.873 178.855 80.873C179.801 80.873 180.67 81.357 181.088 82.05V78.86H182.1V87H181.088V85.867C180.725 86.538 179.944 87.099 178.844 87.099C177.227 87.099 175.984 85.834 175.984 83.964ZM181.088 83.975C181.088 82.578 180.142 81.742 179.042 81.742C177.942 81.742 177.007 82.545 177.007 83.964C177.007 85.383 177.942 86.219 179.042 86.219C180.142 86.219 181.088 85.394 181.088 83.975ZM189.137 80.972V87H188.136V86.109C187.751 86.736 187.014 87.088 186.211 87.088C184.825 87.088 183.736 86.23 183.736 84.503V80.972H184.726V84.371C184.726 85.592 185.397 86.219 186.409 86.219C187.443 86.219 188.136 85.581 188.136 84.283V80.972H189.137ZM190.827 87V78.86H191.828V87H190.827ZM196.098 81.72C195.119 81.72 194.304 82.369 194.195 83.546H198.001C198.012 82.369 197.132 81.72 196.098 81.72ZM198.914 85.141C198.606 86.241 197.638 87.099 196.142 87.099C194.426 87.099 193.161 85.889 193.161 83.975C193.161 82.072 194.382 80.873 196.142 80.873C197.891 80.873 199.035 82.105 199.035 83.755C199.035 83.975 199.024 84.151 199.002 84.36H194.184C194.261 85.581 195.119 86.252 196.142 86.252C197.044 86.252 197.616 85.79 197.836 85.141H198.914ZM204.69 85.361C204.69 86.351 203.821 87.099 202.49 87.099C201.082 87.099 200.092 86.329 200.026 85.229H201.06C201.115 85.812 201.632 86.252 202.479 86.252C203.271 86.252 203.711 85.856 203.711 85.361C203.711 84.019 200.147 84.8 200.147 82.556C200.147 81.632 201.016 80.873 202.358 80.873C203.689 80.873 204.569 81.588 204.635 82.765H203.634C203.59 82.16 203.128 81.72 202.325 81.72C201.588 81.72 201.148 82.072 201.148 82.556C201.148 83.986 204.646 83.205 204.69 85.361Z" fill="#767E9F"/>
<g opacity="0.71" filter="url(#filter1_d_133_263)">
<rect x="237" y="112" width="110" height="94" rx="14" fill="white"/>
<rect x="237" y="112" width="110" height="94" rx="14" stroke="#535AE8" stroke-width="0.5" stroke-miterlimit="10"/>
</g>
<path d="M286.753 193V189.524H282.848V193H281.847V185.333H282.848V188.699H286.753V185.333H287.754V193H286.753ZM293.808 190.844C293.808 189.997 293.17 189.469 292.191 189.469H290.453V192.175H292.224C293.214 192.175 293.808 191.68 293.808 190.844ZM293.61 187.401C293.61 186.642 293.093 186.158 292.114 186.158H290.453V188.644H292.136C293.071 188.644 293.61 188.182 293.61 187.401ZM294.809 190.943C294.809 192.098 293.896 193 292.312 193H289.452V185.333H292.202C293.819 185.333 294.633 186.213 294.633 187.28C294.633 188.248 294.028 188.809 293.291 189.051C294.127 189.194 294.809 189.997 294.809 190.943ZM303.525 189.161C303.525 191.46 301.842 193.077 299.675 193.077C297.519 193.077 295.825 191.46 295.825 189.161C295.825 186.862 297.519 185.245 299.675 185.245C301.842 185.245 303.525 186.862 303.525 189.161ZM296.848 189.161C296.848 191.031 298.058 192.208 299.675 192.208C301.292 192.208 302.502 191.031 302.502 189.161C302.502 187.28 301.292 186.114 299.675 186.114C298.058 186.114 296.848 187.28 296.848 189.161Z" fill="#767E9F"/>
<path d="M292 124C306.911 124 319 136.089 319 151C319 165.911 306.911 178 292 178C277.089 178 265 165.911 265 151C265 136.089 277.089 124 292 124Z" fill="#F0F8FF"/>
<path d="M309.965 151.035C309.884 150.181 309.878 149.392 309.977 148.538C310.029 148.079 309.553 147.696 309.135 147.696C308.636 147.696 308.345 148.091 308.293 148.538C308.183 149.467 308.223 150.326 308.305 151.256C308.38 152.15 308.078 153.021 308.258 153.903C308.473 154.966 310.099 154.519 309.884 153.456C309.803 153.067 309.971 152.637 310.006 152.248C310.041 151.842 310.012 151.441 309.971 151.035H309.965Z" fill="#88C1D7"/>
<path d="M305.39 149.426C305.39 151.987 305.39 154.542 305.39 157.19C300.286 157.666 295.89 159.57 292.128 162.746C285.369 158.496 283.366 157.666 278.61 157.219C278.61 154.646 278.61 152.034 278.61 149.421" fill="#F7AEBC"/>
<path d="M278.523 152.306C278.512 153.317 278.494 154.42 278.477 155.483L278.465 156.545V157.108L278.46 157.329C278.442 157.381 278.506 157.364 278.535 157.37L278.645 157.381L278.97 157.416C279.673 157.492 280.37 157.596 281.061 157.712C282.443 157.968 283.778 158.386 285.056 158.966C286.339 159.535 287.564 160.232 288.778 160.952C289.381 161.312 289.985 161.678 290.589 162.05L291.489 162.613L292.006 162.932C292.157 163.124 292.302 162.868 292.418 162.804L292.621 162.636C294.793 160.854 297.272 159.454 299.932 158.554C301.261 158.101 302.632 157.782 304.019 157.573C304.368 157.515 304.716 157.474 305.065 157.439L305.436 157.399L305.564 157.387C305.564 157.387 305.616 157.387 305.622 157.37V156.481V154.356C305.622 152.08 305.581 149.357 305.43 149.421C305.279 149.473 305.187 151.83 305.175 154.484C305.175 155.32 305.175 156.15 305.175 156.981L304.71 157.039C304.519 157.062 304.327 157.085 304.136 157.12C303.752 157.178 303.369 157.242 302.986 157.317C302.22 157.463 301.459 157.66 300.698 157.875C299.183 158.334 297.679 158.926 296.227 159.721C295.496 160.104 294.787 160.552 294.079 161.028C293.73 161.272 293.376 161.515 293.039 161.783C292.865 161.91 292.691 162.044 292.529 162.183L292.128 162.508C291.419 162.073 290.699 161.626 289.968 161.173C289.19 160.708 288.394 160.232 287.558 159.779C285.985 158.903 284.022 157.921 281.723 157.451C281.154 157.335 280.567 157.23 279.969 157.161C279.673 157.12 279.371 157.085 279.069 157.056L278.843 157.033H278.825V156.743C278.825 155.523 278.831 154.286 278.837 153.044C278.837 151.488 278.825 149.624 278.709 149.432C278.605 149.281 278.57 151.058 278.535 152.301L278.523 152.306Z" fill="#3A395B"/>
<path d="M271.236 146.268C273.385 145.118 275.748 144.549 278.012 143.736C282.297 142.203 286.623 140.786 290.949 139.375C291.495 139.195 292.017 139.033 292.767 139.294C296.756 140.693 300.768 142.035 304.78 143.37C306.127 143.817 307.468 144.264 308.816 144.706C310.052 145.118 311.318 145.455 312.491 146.03C312.996 146.279 312.706 146.721 312.305 146.854C305.79 149.078 299.27 151.284 292.749 153.485C292.314 153.63 291.884 153.677 291.39 153.508C284.777 151.226 278.157 148.979 271.532 146.732C271.346 146.668 271.219 146.633 271.236 146.419" fill="#BBBDBF"/>
<path d="M276.398 148.48C278.239 149.125 280.312 149.844 282.28 150.535L290.148 153.27L291.129 153.613C291.443 153.735 291.849 153.839 292.226 153.793C292.616 153.758 292.946 153.613 293.272 153.508L294.259 153.177L298.207 151.854L306.104 149.194L310.052 147.859L312.027 147.191C312.195 147.127 312.334 147.104 312.549 146.994C312.729 146.883 312.926 146.732 312.979 146.425C312.996 146.274 312.932 146.105 312.839 146.012C312.752 145.914 312.642 145.855 312.555 145.815C312.392 145.739 312.236 145.664 312.073 145.594C310.766 145.043 309.419 144.7 308.113 144.241L304.159 142.923L296.262 140.246L294.288 139.579L293.301 139.242C292.981 139.143 292.639 138.986 292.25 138.952C291.867 138.911 291.477 138.981 291.135 139.085C290.792 139.19 290.473 139.306 290.142 139.416L288.168 140.084L280.259 142.749C279.203 143.109 278.099 143.486 277.031 143.852C275.968 144.212 274.935 144.543 274.046 144.874C272.264 145.519 271.132 146.215 271.225 146.25C271.306 146.297 272.363 145.768 274.093 145.211C274.97 144.938 275.992 144.619 277.095 144.27C278.21 143.899 279.412 143.498 280.648 143.092C282.379 142.511 284.109 141.925 285.828 141.344C287.256 140.856 288.685 140.368 290.125 139.875C290.85 139.66 291.565 139.283 292.244 139.375C292.581 139.416 292.935 139.573 293.306 139.689L294.398 140.061C297.319 141.048 300.286 142.052 303.334 143.086C304.861 143.597 306.406 144.114 307.979 144.636C308.763 144.903 309.565 145.153 310.366 145.408C310.766 145.536 311.161 145.675 311.55 145.826C311.742 145.902 311.939 145.983 312.131 146.07L312.416 146.204C312.491 146.239 312.549 146.291 312.567 146.326C312.607 146.378 312.537 146.529 312.387 146.616C312.265 146.692 312.015 146.755 311.823 146.825C311.417 146.965 311.005 147.104 310.592 147.243C309.768 147.522 308.932 147.806 308.09 148.091C306.406 148.666 304.687 149.246 302.934 149.844C301.256 150.408 299.421 151.029 297.47 151.685C296.494 152.016 295.49 152.353 294.456 152.701C293.939 152.875 293.423 153.05 292.894 153.23C292.377 153.433 291.884 153.491 291.379 153.288C287.088 151.819 282.489 150.239 277.885 148.666C276.439 148.178 274.854 147.644 273.57 147.214C272.932 147.005 272.368 146.825 271.945 146.703C271.747 146.645 271.579 146.599 271.428 146.558C271.346 146.535 271.341 146.483 271.323 146.442C271.312 146.407 271.294 146.43 271.288 146.488C271.277 146.552 271.329 146.645 271.492 146.697C271.794 146.819 272.246 146.988 272.781 147.185C273.866 147.574 275.254 148.074 276.398 148.486V148.48Z" fill="#3A395B"/>
<path d="M310.203 157.701C310.366 158.194 310.529 158.688 310.691 159.175C310.836 159.623 311.063 160.099 311.121 160.563C311.225 161.359 310.836 162.044 310.192 162.497C309.454 163.014 308.705 162.909 307.933 162.381C307.347 161.98 306.975 161.388 307.039 160.662C307.085 160.122 307.225 159.599 307.387 159.083C307.532 158.612 307.649 158.101 307.939 157.701" fill="#88C1D7"/>
<path d="M307.509 158.415C307.393 158.682 307.306 158.984 307.195 159.274C307.062 159.657 306.946 160.058 306.882 160.47C306.801 160.883 306.853 161.376 307.074 161.765C307.288 162.16 307.637 162.468 308.003 162.688C308.368 162.915 308.804 163.083 309.274 163.066C309.744 163.048 310.174 162.828 310.505 162.549C310.842 162.27 311.121 161.893 311.26 161.457C311.399 161.028 311.376 160.546 311.254 160.134C311.138 159.715 310.975 159.355 310.859 158.972C310.656 158.351 310.377 157.625 310.232 157.689C310.099 157.753 310.215 158.421 310.447 159.141C310.523 159.402 310.627 159.657 310.714 159.895C310.877 160.296 310.981 160.691 310.917 161.092C310.859 161.492 310.639 161.864 310.314 162.154C309.988 162.445 309.588 162.665 309.141 162.642C308.699 162.63 308.241 162.398 307.846 162.085C307.48 161.783 307.166 161.266 307.236 160.668C307.294 160.029 307.515 159.379 307.73 158.694C307.846 158.264 308.066 157.852 308.014 157.741C307.95 157.637 307.637 158.055 307.509 158.397V158.415Z" fill="#3A395B"/>
<path d="M309.884 153.706C309.925 153.572 309.942 153.421 309.971 153.276C310.25 151.732 310.192 150.141 310.052 148.579C310.023 148.265 309.936 147.894 309.785 147.923C309.64 147.952 309.582 148.277 309.611 148.643C309.617 148.77 309.629 148.898 309.646 149.02C309.768 149.85 309.762 150.71 309.756 151.743C309.733 152.237 309.675 152.91 309.599 153.584C309.576 153.793 309.559 154.048 309.675 154.089C309.774 154.124 309.838 153.88 309.89 153.717L309.884 153.706Z" fill="#3A395B"/>
<path d="M308.426 153.723C308.438 153.601 308.426 153.462 308.426 153.328C308.426 151.941 308.49 150.553 308.484 149.13C308.484 148.846 308.426 148.503 308.275 148.521C308.124 148.538 308.043 148.828 308.037 149.154C308.037 149.27 308.037 149.38 308.037 149.496C308.095 150.257 308.014 151.029 308.043 151.976C308.037 152.428 308.043 153.05 308.113 153.677C308.136 153.874 308.188 154.107 308.31 154.107C308.415 154.107 308.415 153.886 308.421 153.729L308.426 153.723Z" fill="#3A395B"/>
<path d="M309.901 154.24C310.232 154.617 310.691 154.89 310.807 155.442C310.987 156.278 310.447 157.381 309.75 157.55C308.421 157.869 307.631 157.474 307.341 156.348C307.091 155.367 307.73 154.385 308.85 154.101C309.088 154.043 309.35 154.089 309.599 154.089" fill="#E6E7E8"/>
<path d="M308.891 154.002C308.636 154.037 308.369 154.135 308.13 154.269C307.492 154.606 307.016 155.361 307.109 156.139C307.155 156.522 307.277 156.87 307.498 157.201C307.724 157.526 308.096 157.759 308.479 157.834C308.862 157.91 309.24 157.886 309.594 157.817C309.756 157.788 309.977 157.741 310.157 157.619C310.331 157.509 310.47 157.364 310.587 157.213C310.819 156.905 310.964 156.551 311.034 156.179C311.098 155.814 311.092 155.401 310.894 155.03C310.743 154.739 310.488 154.519 310.302 154.385C310.116 154.252 309.983 154.17 309.925 154.223C309.872 154.275 309.925 154.432 310.064 154.617C310.198 154.809 310.395 155.024 310.511 155.262C310.587 155.43 310.616 155.616 310.621 155.814C310.633 156.145 310.534 156.493 310.366 156.789C310.186 157.091 309.942 157.341 309.594 157.387C309.222 157.468 308.827 157.503 308.461 157.399C308.096 157.306 307.8 157.033 307.631 156.644C307.474 156.266 307.393 155.779 307.608 155.314C307.811 154.855 308.264 154.478 308.792 154.327C308.961 154.263 309.094 154.263 309.274 154.257C309.437 154.252 309.576 154.223 309.599 154.165C309.629 154.083 309.222 153.979 308.885 153.99L308.891 154.002Z" fill="#3A395B"/>
<g opacity="0.71" filter="url(#filter2_d_133_263)">
<rect x="17" y="112" width="110" height="94" rx="14" fill="white"/>
<rect x="17" y="112" width="110" height="94" rx="14" stroke="#535AE8" stroke-width="0.5" stroke-miterlimit="10"/>
</g>
<path d="M60.847 193V185.388H61.925L64.741 191.68L67.557 185.388H68.624V193H67.623V187.324L65.093 193H64.389L61.848 187.313V193H60.847ZM74.6776 190.844C74.6776 189.997 74.0396 189.469 73.0606 189.469H71.3226V192.175H73.0936C74.0836 192.175 74.6776 191.68 74.6776 190.844ZM74.4796 187.401C74.4796 186.642 73.9626 186.158 72.9836 186.158H71.3226V188.644H73.0056C73.9406 188.644 74.4796 188.182 74.4796 187.401ZM75.6786 190.943C75.6786 192.098 74.7656 193 73.1816 193H70.3216V185.333H73.0716C74.6886 185.333 75.5026 186.213 75.5026 187.28C75.5026 188.248 74.8976 188.809 74.1606 189.051C74.9966 189.194 75.6786 189.997 75.6786 190.943ZM84.3937 189.161C84.3937 191.46 82.7107 193.077 80.5437 193.077C78.3877 193.077 76.6937 191.46 76.6937 189.161C76.6937 186.862 78.3877 185.245 80.5437 185.245C82.7107 185.245 84.3937 186.862 84.3937 189.161ZM77.7167 189.161C77.7167 191.031 78.9267 192.208 80.5437 192.208C82.1607 192.208 83.3707 191.031 83.3707 189.161C83.3707 187.28 82.1607 186.114 80.5437 186.114C78.9267 186.114 77.7167 187.28 77.7167 189.161Z" fill="#767E9F"/>
<path d="M72 124C86.911 124 99 136.089 99 151C99 165.911 86.911 178 72 178C57.089 178 45 165.911 45 151C45 136.089 57.089 124 72 124Z" fill="#F0F8FF"/>
<path d="M67.0297 142.854C64.9452 142.865 62.8607 142.871 60.7703 142.877C59.5394 142.877 58.3084 142.883 57.0832 142.877C56.8045 142.877 56.5665 142.912 56.3865 143.15C55.3703 144.508 54.3019 145.826 53.3671 147.232C52.9781 147.812 52.7168 148.492 52.7284 149.299C52.7865 153.485 52.7574 157.677 52.7516 161.864C52.7516 162.683 52.8503 162.775 53.6632 162.775C57.3503 162.77 61.0432 162.799 64.7303 162.752C65.5723 162.741 66.4084 162.851 67.2445 162.764C68.5336 162.63 69.8168 162.892 71.0942 162.764C72.4181 162.636 73.7361 162.897 75.0484 162.764C75.9078 162.677 76.7613 162.787 77.6148 162.781C81.9116 162.764 86.2084 162.77 90.5052 162.781C91.1787 162.781 91.26 162.7 91.26 162.026C91.2484 157.782 91.231 153.543 91.2774 149.299C91.289 148.497 91.0394 147.812 90.6445 147.226C89.6981 145.826 88.6355 144.503 87.6194 143.144C87.4394 142.906 87.2013 142.871 86.9226 142.871C83.7871 142.877 80.6458 142.871 77.5103 142.871C77.3303 142.871 77.1561 142.854 76.9761 142.848" fill="#BBBDBF"/>
<path d="M83.4446 142.958C84.5594 142.964 85.7381 142.976 86.9459 142.981C87.091 142.981 87.2304 142.999 87.3407 143.051C87.4568 143.103 87.5265 143.202 87.6194 143.336L88.1652 144.067C88.531 144.555 88.8968 145.037 89.2568 145.513C89.7272 146.146 90.1975 146.796 90.6214 147.452C91.0394 148.114 91.173 148.869 91.1265 149.659L91.0975 154.426L91.0743 159.199L91.0627 161.585V162.177C91.0568 162.375 91.022 162.537 90.9581 162.537C90.8652 162.584 90.6446 162.584 90.4588 162.584H89.8607L80.3149 162.572H77.9285C77.1388 162.59 76.3607 162.503 75.5362 162.52C75.1181 162.532 74.7349 162.59 74.3459 162.59C73.9568 162.596 73.562 162.578 73.1672 162.561C72.3833 162.514 71.5414 162.491 70.7633 162.578C69.991 162.619 69.2014 162.537 68.3943 162.52C67.9936 162.508 67.5814 162.52 67.1749 162.561C66.7917 162.596 66.4027 162.596 66.0078 162.578C65.2181 162.532 64.3994 162.543 63.6097 162.543H61.2233L56.4504 162.561H54.0639H53.4717C53.2859 162.561 53.0827 162.532 53.0362 162.479C52.9839 162.45 52.9491 162.259 52.9433 162.073V161.486L52.9201 151.935V149.548C52.8678 148.77 53.0652 148.039 53.4891 147.4C54.3601 146.088 55.353 144.845 56.3168 143.574C56.4039 143.457 56.5259 143.283 56.5898 143.219C56.6652 143.144 56.7639 143.109 56.9033 143.097C57.1878 143.086 57.5478 143.097 57.8672 143.097C58.5233 143.097 59.1794 143.097 59.8297 143.097C61.1188 143.086 62.3556 143.068 63.4356 143.057C65.5839 143.022 67.082 142.97 67.0123 142.894C66.9543 142.825 65.6014 142.772 63.5168 142.737C62.4659 142.726 61.2407 142.714 59.911 142.697C59.2433 142.697 58.5465 142.685 57.8323 142.679C57.6523 142.679 57.4723 142.679 57.2923 142.679C57.1181 142.679 56.9265 142.662 56.6943 142.714C56.4678 142.749 56.2297 142.964 56.1427 143.115L55.8059 143.556C55.173 144.386 54.5285 145.211 53.9072 146.059C53.5994 146.488 53.2975 146.901 53.013 147.371C52.7401 147.841 52.5543 148.381 52.5078 148.933C52.5194 152.399 52.5252 155.877 52.5368 159.408C52.5368 160.29 52.5427 161.179 52.5485 162.073C52.5485 162.189 52.5601 162.305 52.5833 162.439C52.6065 162.561 52.6762 162.735 52.8214 162.834C53.1117 162.996 53.3439 162.956 53.5762 162.973C54.0233 162.973 54.4704 162.973 54.9233 162.973C56.7233 162.973 58.5407 162.967 60.3814 162.961C61.3046 162.961 62.2278 162.961 63.1627 162.956C64.1033 162.956 65.0323 162.932 65.9788 162.985C66.4491 163.002 66.9543 162.996 67.4246 162.944C67.8891 162.909 68.3652 162.921 68.8414 162.944C69.3233 162.967 69.8052 162.996 70.2988 162.996C70.7981 163.002 71.2917 162.926 71.762 162.926C72.7259 162.915 73.7188 163.043 74.7407 162.979C75.7336 162.851 76.7149 162.979 77.7543 162.979C79.7923 162.979 81.871 162.979 83.9904 162.973C86.0168 162.973 88.2349 162.973 90.5981 162.973C90.7549 162.967 90.9117 162.973 91.1091 162.886C91.2078 162.839 91.3007 162.729 91.3356 162.63C91.3762 162.532 91.382 162.445 91.3936 162.363C91.4168 162.038 91.3994 161.748 91.4052 161.44C91.4052 160.836 91.4052 160.221 91.4052 159.599C91.4052 158.357 91.411 157.079 91.4168 155.785C91.4168 154.49 91.4227 153.166 91.4285 151.825C91.4285 151.157 91.4285 150.483 91.4285 149.804C91.4285 149.473 91.4459 149.119 91.3936 148.759C91.3472 148.405 91.2427 148.05 91.0917 147.725C90.9465 147.394 90.7317 147.098 90.5401 146.819L89.9362 145.972C89.5297 145.414 89.1059 144.863 88.6878 144.311L88.0607 143.481L87.7472 143.063C87.6368 142.888 87.3988 142.743 87.1956 142.714C86.9807 142.679 86.8123 142.697 86.6381 142.691H86.1156H85.0704C81.5749 142.679 77.3827 142.726 76.953 142.79C76.6046 142.929 80.6052 142.935 83.3981 142.976L83.4446 142.958Z" fill="#3A395B"/>
<path d="M72.0869 136.559C72.534 136.321 73.074 136.397 73.5559 136.542C74.0379 136.687 74.5082 136.902 75.0134 136.919C75.4198 136.937 75.9076 136.768 76.163 136.455C76.2095 136.403 76.2966 136.432 76.2966 136.501C76.2734 137.245 76.285 137.883 76.2501 138.65C76.2501 138.656 76.2501 138.667 76.2501 138.673C76.105 139.103 75.6056 139.213 75.1411 139.213C74.7463 139.213 74.3514 139.126 73.9798 138.981C73.4224 138.766 72.6676 138.539 72.0869 138.847" fill="#F7AEBC"/>
<path d="M72.7722 138.783C73.0044 138.812 73.2657 138.87 73.5096 138.952C73.7418 139.027 73.9567 139.143 74.2064 139.23C74.456 139.312 74.7115 139.37 74.9786 139.393C75.2457 139.41 75.5128 139.405 75.7915 139.323C76.0644 139.236 76.3664 139.062 76.4593 138.661C76.4709 138.237 76.4825 137.819 76.4941 137.396L76.5057 136.699C76.5057 136.6 76.5231 136.478 76.4941 136.403C76.4651 136.327 76.4418 136.304 76.3838 136.257C76.3199 136.211 76.2328 136.199 76.198 136.211C76.1573 136.211 76.076 136.234 75.9947 136.316C75.7799 136.525 75.7393 136.519 75.6405 136.577C75.5476 136.623 75.4431 136.652 75.3386 136.676C75.1296 136.722 74.9264 136.71 74.6999 136.67C74.2586 136.588 73.8173 136.379 73.318 136.263C73.0276 136.194 72.6793 136.182 72.418 136.263C72.1567 136.339 72.0231 136.478 72.0638 136.536C72.1044 136.594 72.2554 136.571 72.4644 136.577C72.6734 136.577 72.9522 136.612 73.2541 136.687C73.4631 136.739 73.6722 136.815 73.8928 136.885C74.2354 136.983 74.5954 137.099 74.996 137.111C75.1993 137.111 75.4025 137.082 75.5941 137.024C75.6928 136.995 75.7857 136.954 75.8786 136.908C75.9251 136.885 75.9715 136.856 76.0122 136.826L76.0586 136.792C76.0586 136.792 76.0818 136.757 76.0993 136.768C76.1109 136.78 76.0993 136.803 76.0993 136.821C76.0993 136.995 76.0935 137.169 76.0876 137.349C76.0818 137.761 76.076 138.185 76.0702 138.638C76.0702 138.638 76.0354 138.743 76.0005 138.777C75.7915 139.045 75.2225 139.091 74.7115 139.004C74.4444 138.957 74.1889 138.876 73.9044 138.76C73.6141 138.65 73.3064 138.557 72.9754 138.522C72.7664 138.499 72.5283 138.51 72.3425 138.574C72.1567 138.632 72.0405 138.737 72.0464 138.795C72.0522 138.847 72.1567 138.824 72.3018 138.806C72.4412 138.789 72.627 138.783 72.7722 138.801V138.783Z" fill="#3A395B"/>
<path d="M78.474 162.613C78.4566 162.381 78.4217 162.148 78.4217 161.916C78.4217 157.213 78.4217 152.504 78.4217 147.801C78.4217 147.528 78.3869 147.319 78.1605 147.098C76.3082 145.275 74.485 143.434 72.6443 141.599C72.0695 141.03 72.0056 141.013 71.4192 141.553C70.6992 142.221 70.0256 142.935 69.3289 143.632C68.2256 144.735 67.1282 145.856 66.0076 146.941C65.6824 147.255 65.5779 147.586 65.5779 148.021C65.5895 152.655 65.5837 157.288 65.5895 161.928C65.5895 162.16 65.6243 162.392 65.6418 162.625" fill="#E6E7E8"/>
<path d="M65.6651 159.518C65.6767 158.438 65.6942 157.248 65.7058 156.104C65.7174 154.583 65.7348 153.061 65.7464 151.546L65.758 149.264V148.126C65.7522 147.748 65.8103 147.435 66.0309 147.185L69.2593 143.986L70.8793 142.383C71.1522 142.122 71.4135 141.838 71.6922 141.588C71.82 141.466 71.9884 141.356 72.0232 141.367C72.0696 141.361 72.2322 141.489 72.3542 141.617L75.5884 144.834L77.2084 146.442L78.0155 147.243C78.1258 147.354 78.1838 147.464 78.2013 147.621C78.2187 147.772 78.2013 147.981 78.2071 148.167V157.3C78.2071 159.745 78.2303 162.677 78.4393 162.607C78.509 162.572 78.4974 161.934 78.5555 160.935C78.5961 159.936 78.6193 158.589 78.6251 157.167C78.6251 156.168 78.6251 155.163 78.6251 154.17C78.6135 152.516 78.6077 150.855 78.5961 149.171C78.5961 148.747 78.5961 148.323 78.5961 147.899C78.5961 147.696 78.6019 147.423 78.4567 147.185C78.3058 146.947 78.1374 146.837 77.9922 146.674C77.3826 146.07 76.7671 145.455 76.14 144.834C75.5187 144.212 74.8858 143.579 74.2413 142.941C73.9219 142.621 73.5967 142.296 73.2716 141.971L72.778 141.483C72.598 141.327 72.4761 141.141 72.1742 141.001C72 140.926 71.7909 141.001 71.6864 141.077C71.5703 141.152 71.4774 141.234 71.3845 141.315C71.2045 141.478 71.0419 141.652 70.8735 141.814C70.5367 142.151 70.1942 142.494 69.8458 142.836C69.1548 143.527 68.4522 144.23 67.738 144.944C67.3955 145.287 67.0355 145.641 66.658 146.012C66.4722 146.198 66.2806 146.384 66.089 146.581C65.909 146.767 65.6593 146.97 65.5258 147.278C65.3864 147.574 65.3864 147.917 65.3922 148.196C65.3922 148.486 65.3922 148.782 65.3922 149.078C65.3922 149.67 65.3922 150.28 65.3922 150.901C65.3922 153.387 65.3864 156.046 65.3806 158.711C65.3806 160.383 65.3806 162.387 65.5548 162.596C65.6187 162.671 65.5896 162.236 65.6071 161.608C65.6245 160.964 65.6477 160.168 65.6651 159.507V159.518Z" fill="#3A395B"/>
<path d="M81.4704 148.091C81.6911 148.114 81.9408 148.12 82.1788 148.132C84.7162 148.271 87.2478 148.207 89.7911 148.219C90.0524 148.219 90.3485 148.19 90.5691 148.114C90.7898 148.039 90.9175 147.934 90.8885 147.87C90.8188 147.754 90.3369 147.818 89.762 147.795C89.5588 147.795 89.344 147.795 89.1408 147.795C87.7646 147.847 86.3595 147.812 84.6698 147.835C83.8627 147.824 82.7479 147.812 81.6388 147.801C81.2846 147.801 80.884 147.783 80.8317 147.894C80.7911 147.986 81.1917 148.044 81.4704 148.079V148.091Z" fill="#3A395B"/>
<path d="M62.5411 147.928C62.3205 147.905 62.0708 147.899 61.8386 147.888C59.3244 147.748 56.8102 147.818 54.2902 147.806C54.0231 147.806 53.7966 147.818 53.6108 147.777C53.425 147.748 53.2799 147.708 53.2508 147.777C53.2218 147.841 53.3031 147.969 53.5063 148.079C53.7037 148.201 54.0463 148.236 54.3192 148.23C54.5282 148.23 54.7315 148.23 54.9405 148.23C56.305 148.172 57.6986 148.213 59.3766 148.184C60.1779 148.196 61.2811 148.207 62.3786 148.219C62.7153 148.219 63.145 148.213 63.1915 148.074C63.1973 148.021 63.1044 148.01 62.9766 147.992C62.8489 147.969 62.6805 147.952 62.5411 147.934V147.928Z" fill="#3A395B"/>
<path d="M75.9076 162.613C75.8031 161.939 75.867 161.26 75.8554 160.581C75.8437 159.617 75.8554 158.653 75.8554 157.695C75.8554 157.126 75.7334 157.01 75.1644 156.998C74.6302 156.992 74.0902 157.027 73.5618 156.992C72.7954 156.94 72.0405 157.132 71.2566 157.021C70.5076 156.917 69.7296 157.01 68.9631 156.998C68.2896 156.986 68.156 157.126 68.156 157.805C68.1676 159.39 68.156 160.975 68.156 162.566" fill="#88C1D7"/>
<path d="M68.2315 161.376C68.2547 160.97 68.2605 160.511 68.2721 160.075C68.2837 159.489 68.3012 158.908 68.3128 158.334C68.3244 158.049 68.3128 157.735 68.3418 157.492C68.3592 157.364 68.3999 157.283 68.4579 157.253C68.5218 157.213 68.6495 157.195 68.7831 157.195C69.3521 157.213 69.956 157.172 70.5134 157.184C70.8037 157.184 71.0592 157.213 71.3612 157.253C71.6689 157.283 71.9708 157.277 72.267 157.253C72.5631 157.236 72.8476 157.207 73.1263 157.201L73.9799 157.213H74.8566C75.1353 157.213 75.4895 157.213 75.5534 157.288C75.6347 157.352 75.6289 157.706 75.6289 157.979V158.85V160.592C75.6289 161.051 75.6115 161.568 75.6579 161.968C75.6986 162.369 75.7973 162.642 75.8612 162.619C75.9308 162.595 75.9424 162.346 75.9715 161.974C75.9947 161.603 76.047 161.092 76.047 160.54C76.047 160.157 76.047 159.779 76.047 159.396C76.0353 158.752 76.0237 158.119 76.0063 157.474C75.9947 157.387 75.9831 157.288 75.9425 157.184C75.9018 157.079 75.8031 156.969 75.6986 156.917C75.4837 156.818 75.3095 156.83 75.1354 156.824C74.8102 156.824 74.4792 156.824 74.1483 156.824C73.8057 156.824 73.4631 156.818 73.1147 156.812C72.7605 156.824 72.4063 156.859 72.0579 156.876C71.6979 156.899 71.3844 156.876 70.9895 156.824C70.6063 156.795 70.2173 156.801 69.8341 156.824C69.6483 156.824 69.4566 156.83 69.2592 156.835C69.0618 156.835 68.8586 156.824 68.6147 156.847C68.4986 156.864 68.3592 156.882 68.2199 156.981C68.0805 157.085 68.0166 157.248 67.9934 157.375C67.947 157.643 67.9644 157.869 67.9586 158.107C67.9586 159.053 67.947 160.07 67.9412 161.086C67.9412 161.724 67.9528 162.491 68.0631 162.566C68.1618 162.63 68.1908 161.899 68.2257 161.388L68.2315 161.376Z" fill="#3A395B"/>
<path d="M72.0813 162.218C72.1046 162.102 72.1104 161.968 72.122 161.841C72.2613 160.494 72.1975 159.146 72.2091 157.799C72.2091 157.526 72.1742 157.207 72.0291 157.213C71.8897 157.219 71.7968 157.497 71.791 157.817C71.791 157.927 71.791 158.037 71.791 158.148C71.8491 158.879 71.8084 159.623 71.8317 160.523C71.8201 160.952 71.8084 161.539 71.7968 162.131C71.7968 162.317 71.8084 162.537 71.9188 162.561C72.0175 162.578 72.0465 162.369 72.0813 162.218Z" fill="#3A395B"/>
<path d="M72.0753 140.786C72.0986 140.67 72.0986 140.537 72.1102 140.409C72.267 139.056 72.2902 137.68 72.2437 136.298C72.2379 136.019 72.1799 135.688 72.0347 135.706C71.8953 135.723 71.8199 136.008 71.8257 136.327C71.8257 136.437 71.8257 136.548 71.8373 136.658C71.907 137.395 71.8605 138.15 71.8547 139.062C71.8373 139.503 71.7734 140.084 71.7908 140.705C71.7908 140.897 71.8082 141.129 71.9244 141.141C72.0231 141.146 72.0521 140.932 72.0811 140.781L72.0753 140.786Z" fill="#3A395B"/>
<path d="M73.7651 151.221C73.3703 151.261 73.2774 151.517 73.2832 151.865C73.289 152.51 73.2774 153.148 73.2832 153.793C73.289 154.269 73.4457 154.42 73.9219 154.432C74.4038 154.443 74.8857 154.432 75.3677 154.432C75.6987 154.432 75.8496 154.281 75.8496 153.95C75.8496 153.201 75.8496 152.452 75.8496 151.703C75.8496 151.372 75.6987 151.215 75.3677 151.221C74.8509 151.221 74.3341 151.221 73.8174 151.221" fill="#F7AEBC"/>
<path d="M74.5083 151.302C74.7405 151.325 75.0134 151.331 75.2631 151.343C75.4373 151.343 75.5766 151.366 75.6347 151.441C75.6986 151.511 75.6986 151.639 75.687 151.813C75.6753 152.155 75.6695 152.492 75.6579 152.823C75.6579 153.166 75.6463 153.503 75.6405 153.833C75.6347 154.205 75.6231 154.211 75.2573 154.211H74.247C73.9044 154.211 73.556 154.217 73.5328 154.06C73.4631 153.857 73.4979 153.45 73.4863 153.131V152.121C73.4863 151.836 73.4631 151.575 73.5444 151.482C73.6083 151.372 73.7824 151.319 73.7592 151.244C73.7534 151.192 73.585 151.087 73.3179 151.255C73.1902 151.348 73.1147 151.523 73.0857 151.685C73.0566 151.859 73.0624 151.999 73.0566 152.161C73.0566 152.382 73.0566 152.603 73.0566 152.823C73.0741 153.195 73.0741 153.543 73.0973 153.95C73.1089 154.054 73.1321 154.17 73.196 154.292C73.2599 154.414 73.3876 154.513 73.5095 154.548C73.7476 154.629 73.9508 154.606 74.1424 154.612C74.5315 154.612 74.9321 154.612 75.3502 154.612C75.4663 154.612 75.6057 154.6 75.745 154.519C75.8902 154.437 75.9715 154.275 75.9947 154.141C76.0179 153.996 76.0063 153.886 76.0063 153.781C76.0063 153.671 76.0063 153.561 76.0063 153.45C76.0063 153.021 76.0179 152.51 76.0237 151.964C76.0237 151.824 76.0412 151.703 76.0063 151.505C75.9889 151.319 75.7973 151.093 75.5941 151.058C75.3908 151.012 75.2515 151.035 75.1063 151.029H74.665C74.2934 151.023 73.8521 151.035 73.8057 151.145C73.7708 151.244 74.1947 151.273 74.4908 151.308L74.5083 151.302Z" fill="#3A395B"/>
<path d="M68.6323 151.221C68.2374 151.261 68.1446 151.517 68.1504 151.865C68.1562 152.51 68.1446 153.148 68.1504 153.793C68.1562 154.269 68.3129 154.42 68.7891 154.432C69.2362 154.443 69.6775 154.432 70.1245 154.432C70.5252 154.432 70.7168 154.246 70.7168 153.845C70.7168 153.166 70.7168 152.492 70.7168 151.813C70.7168 151.412 70.531 151.221 70.1245 151.221C69.6426 151.221 69.1607 151.221 68.6787 151.221" fill="#F7AEBC"/>
<path d="M69.3695 151.302C69.6018 151.325 69.8689 151.331 70.1185 151.343C70.4553 151.343 70.5831 151.517 70.554 151.836C70.5424 152.179 70.5366 152.51 70.525 152.841C70.525 153.177 70.5134 153.514 70.5076 153.845C70.496 154.147 70.4089 154.223 70.0895 154.217H69.085C68.7366 154.217 68.4172 154.217 68.3998 154.054C68.3592 153.95 68.3592 153.799 68.3592 153.624V153.125V152.121C68.3592 151.836 68.3418 151.581 68.4172 151.488C68.4811 151.377 68.6553 151.325 68.6321 151.25C68.6263 151.197 68.4579 151.093 68.1966 151.255C68.0688 151.348 67.9934 151.517 67.9643 151.679C67.9353 151.848 67.9411 151.993 67.9353 152.15C67.9353 152.37 67.9353 152.591 67.9353 152.812C67.9469 153.195 67.9585 153.561 67.9701 153.926C67.9818 154.031 67.9992 154.141 68.0572 154.263C68.1095 154.385 68.2314 154.49 68.3534 154.536C68.5914 154.629 68.7947 154.606 68.9863 154.612C69.3753 154.612 69.7818 154.612 70.194 154.612C70.3159 154.612 70.4437 154.583 70.5772 154.507C70.705 154.432 70.8037 154.298 70.8443 154.164C70.9198 153.886 70.8734 153.683 70.885 153.456C70.885 153.032 70.8966 152.527 70.9024 151.981C70.9024 151.854 70.9198 151.697 70.8676 151.511C70.8269 151.331 70.6643 151.139 70.4727 151.081C70.2869 151.012 70.1069 151.029 69.9734 151.023H69.5379C69.1721 151.017 68.7308 151.029 68.6843 151.139C68.6495 151.238 69.0676 151.267 69.3637 151.302H69.3695Z" fill="#3A395B"/>
<path d="M71.6284 144.805C70.978 145.043 70.4264 145.391 70.1826 146.088C69.7819 147.249 70.4787 148.219 71.309 148.538C72.4471 148.979 73.5155 148.271 73.8174 147.371C74.2935 145.972 73.2251 144.828 72 144.805C71.8955 144.805 71.7851 144.805 71.6806 144.805" fill="#88C1D7"/>
<path d="M72.4295 144.944C72.6675 145.031 72.9288 145.159 73.132 145.333C73.4049 145.565 73.5965 145.873 73.6953 146.204C73.7824 146.541 73.7649 146.895 73.6604 147.226C73.4688 147.882 72.8475 148.387 72.174 148.445C71.5004 148.515 70.8036 148.143 70.4785 147.539C70.1417 146.959 70.2404 146.146 70.6759 145.635C71.0185 145.211 71.7037 144.961 71.634 144.828C71.6049 144.764 71.4307 144.758 71.1753 144.834C70.9256 144.909 70.5888 145.077 70.3275 145.391C70.1475 145.606 70.014 145.861 69.9501 146.128C69.834 146.564 69.8398 147.052 70.0198 147.481C70.194 147.911 70.5075 148.288 70.914 148.538C71.3262 148.788 71.8314 148.904 72.3424 148.817C72.8475 148.73 73.3353 148.439 73.6662 147.998C73.9914 147.586 74.2004 146.941 74.0727 146.268C73.9449 145.588 73.3991 144.973 72.7082 144.729C72.4933 144.648 72.2378 144.607 72.0404 144.619C71.8488 144.63 71.7153 144.665 71.6862 144.717C71.6456 144.822 72.1333 144.822 72.4353 144.938L72.4295 144.944Z" fill="#3A395B"/>
<path d="M82.6259 150.599C81.4414 150.64 81.0872 150.896 81.0988 151.244C81.1162 151.888 81.0814 152.527 81.1104 153.172C81.1337 153.648 81.5982 153.799 83.0266 153.81C84.3621 153.822 85.6975 153.81 87.033 153.81C88.235 153.81 88.8098 153.625 88.7982 153.224C88.7866 152.545 88.7866 151.871 88.7982 151.192C88.804 150.791 88.235 150.599 87.033 150.599C85.593 150.599 84.0659 150.599 82.6259 150.599Z" fill="#D0D2D3"/>
<path d="M83.9323 150.681C84.3794 150.704 84.8904 150.71 85.3723 150.721C86.0226 150.739 86.6613 150.75 87.2942 150.768C87.6078 150.779 87.9213 150.808 88.2058 150.884C88.3452 150.919 88.4787 150.983 88.5484 151.052C88.5833 151.087 88.5949 151.116 88.6007 151.157C88.6007 151.174 88.6007 151.296 88.6007 151.366C88.6007 151.999 88.5891 152.632 88.5833 153.259C88.5833 153.381 88.2639 153.508 87.9736 153.543C87.6775 153.59 87.3581 153.595 87.0446 153.595H83.1891C82.8697 153.595 82.5504 153.595 82.2426 153.566C81.9407 153.543 81.6039 153.503 81.4297 153.375C81.3484 153.311 81.3252 153.259 81.3194 153.114V152.632L81.3136 151.668C81.3136 151.54 81.3136 151.406 81.3136 151.273C81.3136 151.157 81.3194 151.139 81.3775 151.075C81.4994 150.959 81.7433 150.884 81.9407 150.837C82.3471 150.745 82.6491 150.704 82.6316 150.628C82.62 150.565 82.3413 150.495 81.9058 150.524C81.6852 150.547 81.4181 150.559 81.1278 150.774C80.9768 150.866 80.8781 151.134 80.9013 151.296C80.9013 151.441 80.9013 151.592 80.9013 151.743C80.9013 152.167 80.9071 152.585 80.9129 153.015C80.9129 153.102 80.9129 153.177 80.9362 153.305C80.9594 153.421 81.0233 153.549 81.1104 153.636C81.2962 153.816 81.4994 153.857 81.6852 153.903C82.0568 153.979 82.4168 153.985 82.7768 153.996C83.491 153.996 84.2168 153.996 84.96 153.996C85.7033 153.996 86.4697 153.996 87.2652 153.996C87.6717 153.979 88.0839 153.973 88.5194 153.81C88.6297 153.764 88.74 153.706 88.8387 153.601C88.9433 153.503 88.9897 153.305 88.9781 153.195C88.9781 152.986 88.9781 152.777 88.9781 152.562C88.9781 152.155 88.9781 151.708 88.9839 151.232C89.0013 151.087 88.9142 150.872 88.7865 150.774C88.6588 150.669 88.5252 150.617 88.3916 150.57C88.1246 150.489 87.8575 150.46 87.5904 150.443C86.5162 150.408 85.4129 150.425 84.2807 150.414C83.5723 150.414 82.7304 150.425 82.6433 150.535C82.5736 150.634 83.3807 150.663 83.9439 150.698L83.9323 150.681Z" fill="#3A395B"/>
<path d="M83.7813 153.387C83.8046 153.323 83.7987 153.253 83.8104 153.189C83.8974 152.498 83.88 151.807 83.8858 151.093C83.8858 150.948 83.8452 150.779 83.7 150.791C83.5607 150.797 83.4736 150.948 83.4678 151.105C83.4678 151.163 83.4678 151.221 83.4678 151.273C83.5258 151.65 83.4678 152.039 83.4968 152.51C83.4852 152.736 83.4794 153.05 83.4968 153.363C83.4968 153.462 83.5316 153.578 83.642 153.578C83.7407 153.578 83.7581 153.462 83.7813 153.381V153.387Z" fill="#3A395B"/>
<path d="M86.3477 153.387C86.371 153.323 86.3652 153.253 86.3768 153.189C86.4639 152.498 86.4464 151.807 86.4522 151.093C86.4522 150.948 86.4116 150.779 86.2664 150.791C86.1271 150.797 86.04 150.948 86.0342 151.105C86.0342 151.163 86.0342 151.221 86.0342 151.273C86.0922 151.65 86.0342 152.039 86.0632 152.51C86.0516 152.736 86.0458 153.05 86.0632 153.363C86.0632 153.462 86.0981 153.578 86.2084 153.578C86.3071 153.578 86.3245 153.462 86.3477 153.381V153.387Z" fill="#3A395B"/>
<path d="M56.8449 150.599C55.6604 150.64 55.3062 150.896 55.3178 151.244C55.3352 151.888 55.3004 152.527 55.3294 153.172C55.3527 153.648 55.8172 153.799 57.2456 153.81C58.5811 153.822 59.9165 153.81 61.252 153.81C62.454 153.81 63.0288 153.625 63.0172 153.224C63.0056 152.545 63.0056 151.871 63.0172 151.192C63.023 150.791 62.454 150.599 61.252 150.599C59.812 150.599 58.2849 150.599 56.8449 150.599Z" fill="#D0D2D3"/>
<path d="M58.1515 150.681C58.5986 150.704 59.1096 150.71 59.5915 150.721C60.2419 150.739 60.8806 150.75 61.5135 150.768C61.827 150.779 62.1406 150.808 62.4251 150.884C62.5644 150.919 62.698 150.983 62.7677 151.052C62.8025 151.087 62.8141 151.116 62.8199 151.157C62.8199 151.174 62.8199 151.296 62.8199 151.366C62.8199 151.999 62.8083 152.632 62.8025 153.259C62.8025 153.381 62.4831 153.508 62.1928 153.543C61.8967 153.59 61.5773 153.595 61.2638 153.595H57.4083C57.089 153.595 56.7696 153.595 56.4619 153.566C56.1599 153.543 55.8232 153.503 55.649 153.375C55.5677 153.311 55.5444 153.259 55.5386 153.114V152.632L55.5328 151.668C55.5328 151.54 55.5328 151.406 55.5328 151.273C55.5328 151.157 55.5386 151.139 55.5967 151.075C55.7186 150.959 55.9625 150.884 56.1599 150.837C56.5664 150.745 56.8683 150.704 56.8509 150.628C56.8393 150.565 56.5606 150.495 56.1251 150.524C55.9044 150.547 55.6373 150.559 55.347 150.774C55.1961 150.866 55.0973 151.134 55.1206 151.296C55.1206 151.441 55.1206 151.592 55.1206 151.743C55.1206 152.167 55.1264 152.585 55.1322 153.015C55.1322 153.102 55.1322 153.177 55.1554 153.305C55.1786 153.421 55.2425 153.549 55.3296 153.636C55.5154 153.816 55.7186 153.857 55.9044 153.903C56.2761 153.979 56.6361 153.985 56.9961 153.996C57.7102 153.996 58.4361 153.996 59.1793 153.996C59.9225 153.996 60.689 153.996 61.4844 153.996C61.8909 153.979 62.3032 153.973 62.7386 153.81C62.849 153.764 62.9593 153.706 63.058 153.601C63.1625 153.503 63.209 153.305 63.1973 153.195C63.1973 152.986 63.1973 152.777 63.1973 152.562C63.1973 152.155 63.1973 151.708 63.2032 151.232C63.2206 151.087 63.1335 150.872 63.0057 150.774C62.878 150.669 62.7444 150.617 62.6109 150.57C62.3438 150.489 62.0767 150.46 61.8096 150.443C60.7354 150.408 59.6322 150.425 58.4999 150.414C57.7915 150.414 56.9496 150.425 56.8625 150.535C56.7928 150.634 57.5999 150.663 58.1632 150.698L58.1515 150.681Z" fill="#3A395B"/>
<path d="M58.0006 153.387C58.0238 153.323 58.018 153.253 58.0296 153.189C58.1167 152.498 58.0993 151.807 58.1051 151.093C58.1051 150.948 58.0644 150.779 57.9193 150.791C57.7799 150.797 57.6928 150.948 57.687 151.105C57.687 151.163 57.687 151.221 57.687 151.273C57.7451 151.65 57.687 152.039 57.716 152.51C57.7044 152.736 57.6986 153.05 57.716 153.363C57.716 153.462 57.7509 153.578 57.8612 153.578C57.9599 153.578 57.9773 153.462 58.0006 153.381V153.387Z" fill="#3A395B"/>
<path d="M60.5672 153.387C60.5904 153.323 60.5846 153.253 60.5962 153.189C60.6833 152.498 60.6659 151.807 60.6717 151.093C60.6717 150.948 60.6311 150.779 60.4859 150.791C60.3466 150.797 60.2595 150.948 60.2537 151.105C60.2537 151.163 60.2537 151.221 60.2537 151.273C60.3117 151.65 60.2537 152.039 60.2827 152.51C60.2711 152.736 60.2653 153.05 60.2827 153.363C60.2827 153.462 60.3175 153.578 60.4279 153.578C60.5266 153.578 60.544 153.462 60.5672 153.381V153.387Z" fill="#3A395B"/>
<path d="M82.6259 156.272C81.4414 156.313 81.0872 156.568 81.0988 156.917C81.1162 157.561 81.0814 158.2 81.1104 158.845C81.1337 159.321 81.5982 159.472 83.0266 159.483C84.3621 159.495 85.6975 159.483 87.033 159.483C88.235 159.483 88.8098 159.297 88.7982 158.897C88.7866 158.217 88.7866 157.544 88.7982 156.865C88.804 156.464 88.235 156.272 87.033 156.272C85.593 156.272 84.0659 156.272 82.6259 156.272Z" fill="#D0D2D3"/>
<path d="M83.9323 156.354C84.3794 156.377 84.8904 156.383 85.3723 156.394C86.0226 156.412 86.6613 156.423 87.2942 156.441C87.6078 156.452 87.9213 156.481 88.2058 156.557C88.3452 156.592 88.4787 156.655 88.5484 156.725C88.5833 156.76 88.5949 156.789 88.6007 156.83C88.6007 156.847 88.6007 156.969 88.6007 157.039C88.6007 157.672 88.5891 158.305 88.5833 158.932C88.5833 159.054 88.2639 159.181 87.9736 159.216C87.6775 159.263 87.3581 159.268 87.0446 159.268H83.1891C82.8697 159.268 82.5504 159.268 82.2426 159.239C81.9407 159.216 81.6039 159.175 81.4297 159.048C81.3484 158.984 81.3252 158.932 81.3194 158.786V158.305L81.3136 157.341C81.3136 157.213 81.3136 157.079 81.3136 156.946C81.3136 156.83 81.3194 156.812 81.3775 156.748C81.4994 156.632 81.7433 156.557 81.9407 156.51C82.3471 156.417 82.6491 156.377 82.6316 156.301C82.62 156.237 82.3413 156.168 81.9058 156.197C81.6852 156.22 81.4181 156.232 81.1278 156.446C80.9768 156.539 80.8781 156.806 80.9013 156.969C80.9013 157.114 80.9013 157.265 80.9013 157.416C80.9013 157.84 80.9071 158.258 80.9129 158.688C80.9129 158.775 80.9129 158.85 80.9362 158.978C80.9594 159.094 81.0233 159.222 81.1104 159.309C81.2962 159.489 81.4994 159.53 81.6852 159.576C82.0568 159.652 82.4168 159.657 82.7768 159.669C83.491 159.669 84.2168 159.669 84.96 159.669C85.7033 159.669 86.4697 159.669 87.2652 159.669C87.6717 159.652 88.0839 159.646 88.5194 159.483C88.6297 159.437 88.74 159.379 88.8387 159.274C88.9433 159.176 88.9897 158.978 88.9781 158.868C88.9781 158.659 88.9781 158.45 88.9781 158.235C88.9781 157.828 88.9781 157.381 88.9839 156.905C89.0013 156.76 88.9142 156.545 88.7865 156.446C88.6588 156.342 88.5252 156.29 88.3916 156.243C88.1246 156.162 87.8575 156.133 87.5904 156.115C86.5162 156.081 85.4129 156.098 84.2807 156.086C83.5723 156.086 82.7304 156.098 82.6433 156.208C82.5736 156.307 83.3807 156.336 83.9439 156.371L83.9323 156.354Z" fill="#3A395B"/>
<path d="M83.7813 159.065C83.8046 159.001 83.7987 158.932 83.8104 158.868C83.8974 158.177 83.88 157.486 83.8858 156.772C83.8858 156.626 83.8452 156.458 83.7 156.47C83.5607 156.475 83.4736 156.626 83.4678 156.783C83.4678 156.841 83.4678 156.899 83.4678 156.952C83.5258 157.329 83.4678 157.718 83.4968 158.188C83.4852 158.415 83.4794 158.728 83.4968 159.042C83.4968 159.141 83.5316 159.257 83.642 159.257C83.7407 159.257 83.7581 159.141 83.7813 159.059V159.065Z" fill="#3A395B"/>
<path d="M86.3477 159.065C86.371 159.001 86.3652 158.932 86.3768 158.868C86.4639 158.177 86.4464 157.486 86.4522 156.772C86.4522 156.626 86.4116 156.458 86.2664 156.47C86.1271 156.475 86.04 156.626 86.0342 156.783C86.0342 156.841 86.0342 156.899 86.0342 156.952C86.0922 157.329 86.0342 157.718 86.0632 158.188C86.0516 158.415 86.0458 158.728 86.0632 159.042C86.0632 159.141 86.0981 159.257 86.2084 159.257C86.3071 159.257 86.3245 159.141 86.3477 159.059V159.065Z" fill="#3A395B"/>
<path d="M56.8449 156.272C55.6604 156.313 55.3062 156.568 55.3178 156.917C55.3352 157.561 55.3004 158.2 55.3294 158.845C55.3527 159.321 55.8172 159.472 57.2456 159.483C58.5811 159.495 59.9165 159.483 61.252 159.483C62.454 159.483 63.0288 159.297 63.0172 158.897C63.0056 158.217 63.0056 157.544 63.0172 156.865C63.023 156.464 62.454 156.272 61.252 156.272C59.812 156.272 58.2849 156.272 56.8449 156.272Z" fill="#D0D2D3"/>
<path d="M58.1515 156.354C58.5986 156.377 59.1096 156.383 59.5915 156.394C60.2419 156.412 60.8806 156.423 61.5135 156.441C61.827 156.452 62.1406 156.481 62.4251 156.557C62.5644 156.592 62.698 156.655 62.7677 156.725C62.8025 156.76 62.8141 156.789 62.8199 156.83C62.8199 156.847 62.8199 156.969 62.8199 157.039C62.8199 157.672 62.8083 158.305 62.8025 158.932C62.8025 159.054 62.4831 159.181 62.1928 159.216C61.8967 159.263 61.5773 159.268 61.2638 159.268H57.4083C57.089 159.268 56.7696 159.268 56.4619 159.239C56.1599 159.216 55.8232 159.175 55.649 159.048C55.5677 158.984 55.5444 158.932 55.5386 158.786V158.305L55.5328 157.341C55.5328 157.213 55.5328 157.079 55.5328 156.946C55.5328 156.83 55.5386 156.812 55.5967 156.748C55.7186 156.632 55.9625 156.557 56.1599 156.51C56.5664 156.417 56.8683 156.377 56.8509 156.301C56.8393 156.237 56.5606 156.168 56.1251 156.197C55.9044 156.22 55.6373 156.232 55.347 156.446C55.1961 156.539 55.0973 156.806 55.1206 156.969C55.1206 157.114 55.1206 157.265 55.1206 157.416C55.1206 157.84 55.1264 158.258 55.1322 158.688C55.1322 158.775 55.1322 158.85 55.1554 158.978C55.1786 159.094 55.2425 159.222 55.3296 159.309C55.5154 159.489 55.7186 159.53 55.9044 159.576C56.2761 159.652 56.6361 159.657 56.9961 159.669C57.7102 159.669 58.4361 159.669 59.1793 159.669C59.9225 159.669 60.689 159.669 61.4844 159.669C61.8909 159.652 62.3032 159.646 62.7386 159.483C62.849 159.437 62.9593 159.379 63.058 159.274C63.1625 159.176 63.209 158.978 63.1973 158.868C63.1973 158.659 63.1973 158.45 63.1973 158.235C63.1973 157.828 63.1973 157.381 63.2032 156.905C63.2206 156.76 63.1335 156.545 63.0057 156.446C62.878 156.342 62.7444 156.29 62.6109 156.243C62.3438 156.162 62.0767 156.133 61.8096 156.115C60.7354 156.081 59.6322 156.098 58.4999 156.086C57.7915 156.086 56.9496 156.098 56.8625 156.208C56.7928 156.307 57.5999 156.336 58.1632 156.371L58.1515 156.354Z" fill="#3A395B"/>
<path d="M58.0006 159.065C58.0238 159.001 58.018 158.932 58.0296 158.868C58.1167 158.177 58.0993 157.486 58.1051 156.772C58.1051 156.626 58.0644 156.458 57.9193 156.47C57.7799 156.475 57.6928 156.626 57.687 156.783C57.687 156.841 57.687 156.899 57.687 156.952C57.7451 157.329 57.687 157.718 57.716 158.188C57.7044 158.415 57.6986 158.728 57.716 159.042C57.716 159.141 57.7509 159.257 57.8612 159.257C57.9599 159.257 57.9773 159.141 58.0006 159.059V159.065Z" fill="#3A395B"/>
<path d="M60.5672 159.065C60.5904 159.001 60.5846 158.932 60.5962 158.868C60.6833 158.177 60.6659 157.486 60.6717 156.772C60.6717 156.626 60.6311 156.458 60.4859 156.47C60.3466 156.475 60.2595 156.626 60.2537 156.783C60.2537 156.841 60.2537 156.899 60.2537 156.952C60.3117 157.329 60.2537 157.718 60.2827 158.188C60.2711 158.415 60.2653 158.728 60.2827 159.042C60.2827 159.141 60.3175 159.257 60.4279 159.257C60.5266 159.257 60.544 159.141 60.5672 159.059V159.065Z" fill="#3A395B"/>
<g opacity="0.71" filter="url(#filter3_d_133_263)">
<rect x="127" y="214" width="110" height="94" rx="14" fill="white"/>
<rect x="127" y="214" width="110" height="94" rx="14" stroke="#535AE8" stroke-width="0.5" stroke-miterlimit="10"/>
</g>
<path d="M149.473 291.161C149.473 288.862 151.156 287.234 153.301 287.234C154.962 287.234 156.282 288.07 156.854 289.555H155.655C155.237 288.631 154.423 288.114 153.301 288.114C151.695 288.114 150.496 289.28 150.496 291.161C150.496 293.031 151.695 294.197 153.301 294.197C154.423 294.197 155.237 293.68 155.655 292.767H156.854C156.282 294.241 154.962 295.066 153.301 295.066C151.156 295.066 149.473 293.46 149.473 291.161ZM160.907 289.72C159.928 289.72 159.114 290.369 159.004 291.546H162.81C162.821 290.369 161.941 289.72 160.907 289.72ZM163.723 293.141C163.415 294.241 162.447 295.099 160.951 295.099C159.235 295.099 157.97 293.889 157.97 291.975C157.97 290.072 159.191 288.873 160.951 288.873C162.7 288.873 163.844 290.105 163.844 291.755C163.844 291.975 163.833 292.151 163.811 292.36H158.993C159.07 293.581 159.928 294.252 160.951 294.252C161.853 294.252 162.425 293.79 162.645 293.141H163.723ZM166.166 291.722V295H165.165V288.972H166.166V289.951C166.507 289.28 167.156 288.862 168.113 288.862V289.896H167.849C166.892 289.896 166.166 290.325 166.166 291.722ZM169.489 293.35V289.797H168.708V288.972H169.489V287.454H170.49V288.972H172.063V289.797H170.49V293.35C170.49 293.944 170.71 294.153 171.326 294.153H172.063V295H171.161C170.094 295 169.489 294.56 169.489 293.35ZM173.276 295V288.972H174.277V295H173.276ZM173.793 287.993C173.408 287.993 173.111 287.696 173.111 287.311C173.111 286.926 173.408 286.629 173.793 286.629C174.156 286.629 174.453 286.926 174.453 287.311C174.453 287.696 174.156 287.993 173.793 287.993ZM176.17 295V289.797H175.389V288.972H176.17V288.543C176.17 287.201 176.83 286.596 178.37 286.596V287.432C177.468 287.432 177.171 287.762 177.171 288.543V288.972H178.436V289.797H177.171V295H176.17ZM179.603 295V288.972H180.604V295H179.603ZM180.12 287.993C179.735 287.993 179.438 287.696 179.438 287.311C179.438 286.926 179.735 286.629 180.12 286.629C180.483 286.629 180.78 286.926 180.78 287.311C180.78 287.696 180.483 287.993 180.12 287.993ZM181.936 291.975C181.936 290.083 183.157 288.873 184.873 288.873C186.369 288.873 187.348 289.643 187.656 290.908H186.578C186.369 290.182 185.764 289.72 184.873 289.72C183.773 289.72 182.959 290.501 182.959 291.975C182.959 293.471 183.773 294.252 184.873 294.252C185.764 294.252 186.358 293.823 186.578 293.064H187.656C187.348 294.263 186.369 295.099 184.873 295.099C183.157 295.099 181.936 293.889 181.936 291.975ZM188.618 291.964C188.618 290.083 189.861 288.873 191.478 288.873C192.6 288.873 193.37 289.445 193.722 290.072V288.972H194.734V295H193.722V293.878C193.359 294.527 192.578 295.099 191.467 295.099C189.861 295.099 188.618 293.834 188.618 291.964ZM193.722 291.975C193.722 290.578 192.776 289.742 191.676 289.742C190.576 289.742 189.641 290.545 189.641 291.964C189.641 293.383 190.576 294.219 191.676 294.219C192.776 294.219 193.722 293.394 193.722 291.975ZM196.645 293.35V289.797H195.864V288.972H196.645V287.454H197.646V288.972H199.219V289.797H197.646V293.35C197.646 293.944 197.866 294.153 198.482 294.153H199.219V295H198.317C197.25 295 196.645 294.56 196.645 293.35ZM202.995 289.72C202.016 289.72 201.202 290.369 201.092 291.546H204.898C204.909 290.369 204.029 289.72 202.995 289.72ZM205.811 293.141C205.503 294.241 204.535 295.099 203.039 295.099C201.323 295.099 200.058 293.889 200.058 291.975C200.058 290.072 201.279 288.873 203.039 288.873C204.788 288.873 205.932 290.105 205.932 291.755C205.932 291.975 205.921 292.151 205.899 292.36H201.081C201.158 293.581 202.016 294.252 203.039 294.252C203.941 294.252 204.513 293.79 204.733 293.141H205.811ZM211.664 295V291.59C211.664 290.358 210.993 289.731 209.981 289.731C208.958 289.731 208.254 290.369 208.254 291.667V295H207.253V288.972H208.254V289.83C208.65 289.203 209.376 288.862 210.19 288.862C211.587 288.862 212.654 289.72 212.654 291.447V295H211.664Z" fill="#767E9F"/>
<path d="M182 225C196.911 225 209 237.089 209 252C209 266.911 196.911 279 182 279C167.089 279 155 266.911 155 252C155 237.089 167.089 225 182 225Z" fill="#F0F8FF"/>
<path d="M199.82 252.099C199.884 250.752 199.971 249.399 200.075 248.052C200.186 246.652 200.395 245.241 200.377 243.836C200.377 243.377 200.203 242.925 199.924 242.559C200.099 242.257 200.197 241.914 200.18 241.548C200.128 240.422 199.257 239.435 198.078 239.446C189.746 239.539 181.408 239.528 173.075 239.4C170.706 239.365 168.337 239.319 165.968 239.266C164.871 239.243 163.82 240.248 163.866 241.368C163.884 241.711 163.971 242.03 164.116 242.315C164.07 242.483 164.046 242.663 164.058 242.849C164.058 242.959 164.075 243.064 164.099 243.168C164.093 243.25 164.093 243.337 164.099 243.424C164.151 244.161 164.168 244.905 164.122 245.642C164.104 245.967 164.075 246.292 164.035 246.612C164.035 246.6 163.983 246.908 163.977 246.943C163.942 247.134 163.907 247.332 163.872 247.523C163.733 248.354 163.582 249.213 163.634 250.061C163.663 250.49 163.733 250.92 163.791 251.344C163.797 251.408 163.803 251.448 163.808 251.472C163.808 251.483 163.808 251.501 163.808 251.524C163.82 251.721 163.843 251.925 163.855 252.122C164.012 255.199 163.872 258.317 163.866 261.395C163.866 262.492 164.836 263.543 165.968 263.497C166.363 263.479 166.729 263.363 167.048 263.172C167.06 263.172 167.072 263.172 167.083 263.166C167.089 263.166 167.159 263.148 167.217 263.131C167.269 263.125 167.327 263.114 167.339 263.114C167.582 263.102 167.821 263.102 168.064 263.114C168.593 263.119 169.121 263.137 169.644 263.148C170.753 263.172 171.862 263.195 172.971 263.218C175.108 263.265 177.239 263.305 179.375 263.352L192.306 263.625C193.537 263.648 194.768 263.683 195.999 263.7C197.329 263.717 198.554 263.474 199.564 262.545C200.337 261.836 200.372 260.472 199.681 259.694C199.663 257.162 199.71 254.63 199.832 252.105L199.82 252.099Z" fill="#E6E7E8"/>
<path d="M194.879 267.149C194.612 266.568 194.455 266.017 194.281 265.413C193.805 263.741 191.743 264.24 190.861 265.349C190.739 265.314 190.6 265.326 190.478 265.39C190.431 265.07 190.28 264.78 189.996 264.559C189.636 264.281 189.148 264.211 188.73 264.374C188.608 264.281 188.463 264.211 188.306 264.176C187.609 264.019 186.918 264.385 186.709 265.082C186.674 265.204 186.634 265.332 186.599 265.454C186.372 265.663 186.129 265.848 185.896 266.046C185.403 266.458 185.432 267.277 185.798 267.747C186.152 268.206 186.779 268.374 187.313 268.159C187.499 268.461 187.812 268.694 188.143 268.781C188.132 269.036 188.289 269.303 188.62 269.303C189.009 269.303 189.16 268.932 189.072 268.641C189.461 268.421 189.694 268.014 189.746 267.515C189.723 267.765 189.798 267.289 189.816 267.236C189.833 267.184 189.851 267.126 189.874 267.074C189.874 267.068 189.897 267.027 189.932 266.963C190.06 266.772 190.199 266.574 190.303 266.365C190.576 267.312 191.099 268.229 191.488 269.118C191.633 269.454 192.185 269.425 192.341 269.118C192.458 268.885 192.556 268.612 192.707 268.403C192.974 268.032 193.323 268.119 193.718 268.194C194.107 268.27 194.56 268.438 194.867 268.09C195.105 267.817 195.024 267.457 194.891 267.155L194.879 267.149Z" fill="#88C1D7"/>
<path d="M195.587 260.849C195.512 260.704 195.39 260.599 195.326 260.472C195.378 260.141 195.407 259.815 195.401 259.496C195.401 259.397 195.396 259.304 195.384 259.206C195.512 259.078 195.57 258.886 195.535 258.712C195.552 258.701 195.57 258.689 195.581 258.677C195.715 258.561 195.75 258.364 195.709 258.195C195.61 257.766 195.169 257.754 194.826 257.615C194.635 257.324 194.397 257.075 194.112 256.872C194.089 256.825 194.072 256.773 194.06 256.732C194.019 256.517 194.17 256.308 194.095 256.076C193.915 255.495 193.294 255.612 192.823 255.588C192.121 255.548 191.662 255.344 191.134 255.014C191.035 254.752 190.745 254.648 190.506 254.706C190.292 254.717 190.1 254.897 190.048 255.112C190.001 255.112 189.955 255.112 189.903 255.112C189.386 255.205 188.869 255.298 188.352 255.397C188.056 255.455 187.766 255.501 187.539 255.716C187.255 255.983 187.197 256.326 187.098 256.68C186.97 257.127 186.773 257.406 186.372 257.632C185.768 257.975 185.379 258.375 185.803 259.061C186.036 259.432 186.186 259.781 186.059 260.234C185.954 260.594 185.658 260.866 185.658 261.261C185.658 261.981 186.337 262.126 186.79 262.475C186.889 262.661 187.005 262.829 187.156 262.992C187.365 263.671 187.11 264.321 188.056 264.362C188.439 264.379 188.863 264.292 189.235 264.403C189.665 264.53 189.908 264.983 190.344 265.123C190.942 265.314 191.331 264.826 191.633 264.368C191.645 264.368 191.65 264.368 191.662 264.368C192.138 264.333 192.614 264.304 193.085 264.269C193.421 264.246 193.781 264.257 193.996 263.955C194.182 263.694 194.159 263.369 194.205 263.067V263.055C194.31 262.934 194.408 262.806 194.501 262.661C194.612 262.492 194.71 262.312 194.803 262.126C194.856 262.08 194.902 262.034 194.96 261.981C195.012 261.97 195.065 261.964 195.105 261.952C195.349 261.894 195.576 261.813 195.68 261.563C195.779 261.325 195.697 261.058 195.587 260.843V260.849Z" fill="#F7AEBC"/>
<path d="M193.201 259.746C193.189 259.438 193.125 259.148 193.015 258.887C192.835 258.288 192.446 257.754 191.9 257.441C191.192 257.028 190.297 257.098 189.607 257.505C189.467 257.551 189.328 257.603 189.194 257.673C188.422 258.062 187.899 258.881 187.899 259.752C187.899 260.588 188.364 261.163 188.898 261.737C189.055 261.9 189.241 262.028 189.444 262.121C189.647 262.283 189.879 262.411 190.152 262.486C191.041 262.73 191.888 262.336 192.539 261.743C193.102 261.226 193.224 260.477 193.201 259.752V259.746Z" fill="#88C1D7"/>
<path d="M178.516 263.23C176.176 263.218 173.522 263.207 171.014 263.189L165.997 263.172C165.579 263.183 165.208 263.131 164.877 262.922C164.551 262.725 164.308 262.411 164.197 262.051C164.139 261.871 164.122 261.679 164.122 261.488V260.861L164.128 259.607L164.162 249.573L164.174 244.556V242.048C164.186 241.636 164.162 241.2 164.203 240.823C164.255 240.445 164.395 240.091 164.673 239.882C165.231 239.441 166.142 239.615 166.973 239.58H169.481H174.504H194.588H197.097C197.921 239.603 198.827 239.452 199.332 239.981C199.849 240.486 199.686 241.392 199.715 242.222V244.73L199.704 254.776C199.704 256.123 199.704 257.528 199.704 258.887C199.704 259.566 199.71 260.228 199.715 260.867C199.71 261.511 199.791 262.121 199.524 262.539C199.274 262.968 198.78 263.125 198.351 263.148C197.898 263.166 197.491 263.178 197.155 263.189C196.487 263.218 196.115 263.247 196.15 263.288C196.179 263.328 196.551 263.357 197.19 263.392C197.509 263.404 197.892 263.421 198.339 263.433C198.78 263.433 199.384 263.311 199.762 262.8C199.948 262.556 200.04 262.243 200.075 261.929C200.104 261.604 200.093 261.314 200.104 260.994C200.11 260.356 200.122 259.682 200.128 258.979C200.133 257.568 200.145 256.047 200.151 254.479C200.151 252.279 200.151 250.078 200.151 247.889C200.151 246.072 200.139 244.248 200.133 242.419V241.037C200.116 240.556 199.982 240.016 199.582 239.644C199.181 239.272 198.647 239.168 198.165 239.162H196.771C193.061 239.162 189.287 239.162 185.414 239.168C181.541 239.168 177.558 239.168 173.435 239.168C171.374 239.168 169.272 239.168 167.13 239.168C166.59 239.168 166.067 239.156 165.498 239.179C165.213 239.203 164.917 239.267 164.644 239.412C164.371 239.557 164.133 239.783 164 240.062C163.715 240.619 163.768 241.229 163.762 241.763C163.762 242.315 163.762 242.872 163.762 243.43C163.756 247.692 163.744 252.755 163.733 258.213C163.733 258.898 163.733 259.583 163.733 260.28C163.733 260.628 163.733 260.977 163.733 261.325C163.721 261.668 163.756 262.097 163.936 262.44C164.267 263.166 165.097 263.596 165.864 263.555C166.578 263.555 167.292 263.555 168.012 263.555C170.892 263.555 173.819 263.555 176.751 263.555C180.432 263.555 184.833 263.537 185.292 263.416C185.646 263.311 181.448 263.282 178.51 263.247L178.516 263.23Z" fill="#3A395B"/>
<path d="M169.719 247.802C170.335 247.831 171.037 247.837 171.699 247.848C178.76 247.999 185.838 247.93 192.91 247.941C194.333 247.941 196.028 247.901 195.994 247.744C195.959 247.593 194.49 247.494 192.835 247.483C192.254 247.483 191.674 247.483 191.093 247.483C187.255 247.541 183.341 247.5 178.626 247.529C176.374 247.517 173.279 247.5 170.184 247.488C169.214 247.488 168.047 247.5 167.931 247.622C167.838 247.726 168.947 247.761 169.725 247.796L169.719 247.802Z" fill="#3A395B"/>
<path d="M169.789 250.676C170.399 250.705 171.101 250.711 171.758 250.723C178.778 250.873 185.815 250.804 192.847 250.815C194.257 250.815 195.947 250.775 195.912 250.618C195.878 250.467 194.42 250.368 192.771 250.357C192.196 250.357 191.616 250.357 191.041 250.357C187.22 250.415 183.336 250.374 178.644 250.403C176.403 250.392 173.331 250.374 170.254 250.363C169.29 250.363 168.134 250.374 168.012 250.496C167.919 250.601 169.023 250.635 169.795 250.67L169.789 250.676Z" fill="#3A395B"/>
<path d="M174.725 244.516C175.09 244.545 175.503 244.55 175.898 244.562C180.067 244.713 184.247 244.643 188.428 244.655C189.27 244.655 190.269 244.614 190.245 244.457C190.228 244.306 189.357 244.208 188.376 244.196C188.033 244.196 187.69 244.196 187.348 244.196C185.078 244.254 182.772 244.214 179.985 244.243C178.656 244.231 176.827 244.214 174.998 244.202C174.423 244.202 173.738 244.214 173.668 244.336C173.61 244.44 174.266 244.475 174.725 244.51V244.516Z" fill="#3A395B"/>
<path d="M188.253 264.182C188.062 264.217 187.876 264.246 187.713 264.182C187.557 264.124 187.464 263.967 187.429 263.781C187.394 263.601 187.406 263.369 187.353 263.143C187.301 262.922 187.208 262.701 187.069 262.521C186.883 262.277 186.628 262.103 186.36 261.975C186.093 261.859 185.85 261.761 185.751 261.581C185.652 261.424 185.739 261.18 185.879 260.959C186.006 260.756 186.215 260.472 186.268 260.158C186.413 259.484 185.954 258.927 185.78 258.492C185.739 258.37 185.739 258.329 185.78 258.283C185.826 258.219 185.937 258.143 186.047 258.079C186.268 257.946 186.54 257.824 186.784 257.638C187.028 257.458 187.249 257.197 187.359 256.889C187.481 256.593 187.446 256.221 187.493 256.041C187.545 255.826 187.684 255.675 187.876 255.635C188.079 255.577 188.271 255.681 188.602 255.763C188.91 255.832 189.275 255.792 189.566 255.629C189.85 255.478 190.071 255.228 190.251 255.048C190.437 254.857 190.651 254.7 190.744 254.746C190.89 254.781 191.11 254.996 191.29 255.188C191.493 255.403 191.749 255.612 192.062 255.722C192.37 255.832 192.707 255.838 193.009 255.78C193.288 255.728 193.572 255.664 193.74 255.699C193.81 255.722 193.828 255.734 193.868 255.832C193.903 255.925 193.92 256.053 193.932 256.181C193.955 256.448 193.979 256.773 194.118 257.069C194.251 257.377 194.513 257.626 194.791 257.766C195.082 257.917 195.337 257.975 195.506 258.114C195.587 258.184 195.622 258.236 195.628 258.306C195.628 258.381 195.604 258.492 195.558 258.602C195.511 258.718 195.448 258.828 195.378 258.95C195.302 259.084 195.233 259.229 195.186 259.38C195.088 259.682 195.082 260.024 195.157 260.332C195.239 260.652 195.395 260.895 195.494 261.139C195.546 261.255 195.593 261.383 195.599 261.459C195.599 261.523 195.593 261.546 195.494 261.627C195.314 261.766 195.053 261.888 194.803 262.034C194.548 262.184 194.275 262.394 194.124 262.701C193.955 262.997 193.961 263.357 193.926 263.59C193.891 263.851 193.81 264.054 193.665 264.095C193.537 264.147 193.317 264.135 193.102 264.101C192.887 264.077 192.672 264.002 192.399 263.99C192.266 263.99 192.103 264.002 191.952 264.089C191.79 264.205 191.772 264.257 191.685 264.321C191.534 264.449 191.371 264.565 191.22 264.681C191.069 264.792 190.919 264.914 190.808 265.018C190.733 265.088 190.64 265.117 190.559 265.111C190.39 265.099 190.309 265.001 190.28 265.041C190.257 265.059 190.286 265.221 190.529 265.308C190.646 265.349 190.82 265.343 190.977 265.244C191.104 265.157 191.232 265.076 191.395 264.983C191.551 264.89 191.726 264.786 191.906 264.652L192.039 264.548C192.086 264.507 192.138 264.461 192.15 264.455C192.196 264.426 192.266 264.414 192.359 264.42C192.544 264.432 192.782 264.513 193.055 264.554C193.311 264.583 193.613 264.652 193.961 264.461C194.205 264.31 194.292 264.054 194.344 263.863C194.391 263.665 194.408 263.456 194.426 263.294C194.46 262.98 194.611 262.73 194.879 262.539C195.088 262.382 195.378 262.26 195.651 262.074C195.779 261.981 195.97 261.871 196.034 261.604C196.075 261.348 195.988 261.186 195.929 261.035C195.808 260.733 195.639 260.472 195.581 260.222C195.511 259.961 195.535 259.688 195.633 259.432C195.72 259.188 195.941 258.927 196.034 258.567C196.086 258.393 196.075 258.132 195.935 257.952C195.802 257.783 195.633 257.696 195.482 257.621C195.151 257.481 194.908 257.4 194.71 257.203C194.519 257.017 194.431 256.744 194.391 256.448C194.373 256.303 194.368 256.134 194.339 255.954C194.304 255.786 194.275 255.565 194.054 255.397C193.833 255.252 193.619 255.275 193.444 255.292C193.27 255.31 193.09 255.35 192.939 255.379C192.637 255.437 192.335 255.414 192.074 255.281C191.801 255.153 191.61 254.909 191.337 254.654C191.197 254.537 191.052 254.392 190.797 254.346C190.524 254.305 190.315 254.456 190.175 254.572C189.873 254.822 189.676 255.112 189.409 255.269C189.148 255.432 188.84 255.449 188.515 255.344C188.364 255.292 188.12 255.223 187.905 255.252C187.679 255.275 187.452 255.385 187.301 255.565C187.162 255.739 187.086 255.954 187.069 256.169C187.057 256.39 187.057 256.529 187.005 256.697C186.924 257.028 186.668 257.29 186.337 257.487C186.175 257.586 185.977 257.679 185.786 257.801C185.687 257.865 185.588 257.928 185.49 258.039C185.385 258.143 185.321 258.358 185.362 258.503C185.513 259.032 185.815 259.334 185.884 259.734C185.919 259.926 185.908 260.117 185.838 260.297C185.774 260.483 185.635 260.646 185.507 260.884C185.397 261.104 185.257 261.406 185.402 261.743C185.565 262.057 185.838 262.173 186.07 262.272C186.494 262.434 186.842 262.701 186.976 263.102C187.011 263.201 187.034 263.305 187.051 263.415L187.086 263.781C187.11 263.921 187.144 264.066 187.231 264.211C187.313 264.35 187.464 264.478 187.626 264.53C187.829 264.6 188.027 264.577 188.207 264.542C188.364 264.507 188.497 264.478 188.642 264.472C188.927 264.449 189.188 264.495 189.409 264.583C189.844 264.774 190.094 265.099 190.187 265.117C190.257 265.14 190.129 264.832 189.769 264.536C189.589 264.391 189.339 264.263 189.066 264.217C188.793 264.164 188.509 264.182 188.259 264.223L188.253 264.182Z" fill="#3A395B"/>
<path d="M168.825 253.545C169.133 253.574 169.487 253.579 169.824 253.591C173.377 253.742 176.937 253.672 180.49 253.684C181.204 253.684 182.058 253.643 182.041 253.487C182.023 253.336 181.286 253.237 180.45 253.225C180.159 253.225 179.863 253.225 179.573 253.225C177.639 253.283 175.677 253.243 173.302 253.272C172.17 253.26 170.613 253.243 169.057 253.231C168.57 253.231 167.983 253.243 167.925 253.365C167.879 253.469 168.436 253.504 168.825 253.539V253.545Z" fill="#3A395B"/>
<path d="M193.276 260.123C193.212 260.425 193.131 260.774 192.968 261.058C192.55 261.813 191.737 262.336 190.895 262.365C190.053 262.411 189.206 261.993 188.712 261.331C188.224 260.663 188.126 259.711 188.445 258.945C188.788 258.19 189.508 257.563 190.344 257.481C191.017 257.383 191.859 257.597 191.883 257.435C191.912 257.307 191.18 256.918 190.239 257.034C189.914 257.075 189.595 257.174 189.31 257.342C188.84 257.621 188.474 258.021 188.195 258.486C187.922 258.968 187.801 259.525 187.835 260.088C187.87 260.652 188.068 261.232 188.462 261.697C188.852 262.161 189.392 262.521 190.03 262.672C190.623 262.835 191.418 262.812 192.126 262.405C192.823 262.028 193.41 261.267 193.543 260.414C193.648 259.885 193.578 259.252 193.456 259.206C193.346 259.165 193.363 259.746 193.276 260.129V260.123Z" fill="#3A395B"/>
<path d="M175.229 256.97C175.619 257.046 176.054 257.168 176.315 257.481C176.675 257.882 176.849 258.445 176.797 258.968C176.768 259.479 176.368 259.908 175.92 260.187C175.694 260.326 175.444 260.425 175.2 260.454C174.962 260.472 174.701 260.419 174.475 260.309C174.01 260.088 173.638 259.659 173.493 259.171C173.412 258.933 173.424 258.677 173.406 258.358C173.383 258.068 173.366 257.679 173.029 257.394C172.866 257.266 172.675 257.214 172.506 257.203C172.332 257.185 172.152 257.191 171.966 257.266C171.577 257.417 171.403 257.818 171.351 258.12C171.322 258.277 171.304 258.434 171.298 258.59C171.298 258.724 171.269 258.817 171.223 258.881C171.177 258.939 171.113 258.974 171.008 258.985C170.886 258.997 170.817 258.979 170.776 258.939C170.753 258.915 170.729 258.881 170.712 258.834C170.689 258.788 170.683 258.735 170.642 258.631C170.567 258.445 170.422 258.294 170.277 258.201C170.201 258.155 170.143 258.12 169.992 258.056C169.853 258.056 169.708 258.12 169.632 258.172C169.458 258.294 169.365 258.451 169.289 258.579C169.168 258.794 169.063 258.944 168.941 258.974C168.831 258.985 168.924 259.014 168.831 258.956C168.778 258.91 168.726 258.84 168.686 258.759C168.598 258.602 168.506 258.422 168.389 258.335C168.279 258.242 168.192 258.236 168.18 258.271C168.163 258.306 168.204 258.37 168.239 258.463C168.279 258.555 168.308 258.695 168.366 258.886C168.401 258.979 168.442 259.095 168.535 259.206C168.575 259.264 168.633 259.31 168.732 259.374C168.773 259.415 168.837 259.386 168.895 259.397C168.935 259.397 168.976 259.397 169.017 259.386C169.185 259.363 169.353 259.246 169.458 259.125C169.562 259.003 169.632 258.875 169.702 258.764C169.748 258.689 169.795 258.625 169.841 258.584C169.888 258.544 169.94 258.521 169.922 258.526C169.893 258.509 169.986 258.555 170.044 258.596C170.102 258.637 170.149 258.683 170.184 258.73C170.219 258.782 170.224 258.794 170.253 258.892C170.282 258.985 170.323 259.078 170.393 259.171C170.538 259.374 170.828 259.438 171.008 259.409C171.2 259.403 171.444 259.305 171.571 259.107C171.699 258.921 171.717 258.689 171.717 258.544C171.734 258.242 171.786 257.928 171.949 257.754C172.088 257.586 172.425 257.568 172.663 257.661C172.884 257.743 172.953 258.033 172.971 258.37C172.988 258.689 172.977 259.107 173.145 259.467C173.441 260.187 174.138 260.797 175.015 260.843C175.444 260.866 175.874 260.686 176.251 260.431C176.623 260.164 176.995 259.804 177.134 259.252C177.244 258.73 177.151 258.178 176.89 257.69C176.757 257.446 176.582 257.226 176.356 257.046C176.129 256.86 175.828 256.761 175.578 256.709C175.253 256.628 174.846 256.604 174.539 256.709C174.231 256.808 174.057 256.994 174.062 257.063C174.068 257.127 174.225 257.04 174.451 256.976C174.678 256.906 174.98 256.901 175.224 256.953L175.229 256.97Z" fill="#3A395B"/>
<path d="M178.737 242.547C178.9 242.576 179.085 242.582 179.26 242.594C181.118 242.744 182.982 242.675 184.84 242.686C185.211 242.686 185.658 242.646 185.652 242.489C185.647 242.338 185.258 242.239 184.822 242.228C184.671 242.228 184.514 242.228 184.363 242.228C183.353 242.286 182.325 242.245 181.083 242.274C180.491 242.263 179.678 242.245 178.859 242.234C178.603 242.234 178.296 242.245 178.267 242.367C178.243 242.472 178.534 242.506 178.737 242.541V242.547Z" fill="#3A395B"/>
<path d="M190.669 267.248C190.75 267.556 190.808 267.77 190.872 268.026C190.913 268.206 190.954 268.38 190.994 268.548C191.023 268.717 191.081 268.932 191.186 269.106C191.29 269.28 191.441 269.466 191.691 269.547C191.935 269.628 192.214 269.547 192.388 269.39C192.742 269.094 192.835 268.676 193.009 268.438C193.177 268.183 193.398 268.136 193.712 268.223C193.863 268.264 194.019 268.334 194.182 268.409L194.315 268.467C194.374 268.49 194.437 268.508 194.501 268.514C194.629 268.531 194.768 268.514 194.885 268.461C195.123 268.363 195.303 268.13 195.337 267.869C195.355 267.741 195.337 267.602 195.291 267.486L195.186 267.23L194.35 265.227C194.13 264.687 193.822 264.06 193.683 264.136C193.549 264.205 193.683 264.803 193.938 265.43C194.025 265.651 194.118 265.872 194.211 266.087C194.374 266.458 194.536 266.812 194.693 267.172L194.809 267.451C194.85 267.544 194.896 267.648 194.902 267.701C194.931 267.823 194.867 267.968 194.757 268.043C194.629 268.119 194.53 268.125 194.339 268.026C194.141 267.939 193.926 267.84 193.677 267.794C193.433 267.741 193.108 267.765 192.875 267.956C192.643 268.142 192.539 268.392 192.434 268.612C192.341 268.816 192.219 269.019 192.057 269.129C191.894 269.234 191.714 269.205 191.563 269.013C191.406 268.827 191.36 268.566 191.279 268.247C191.197 267.945 191.11 267.637 191.006 267.329C190.942 267.137 190.861 266.928 190.762 266.766C190.675 266.603 190.535 266.487 190.466 266.51C190.402 266.551 190.588 266.94 190.652 267.254L190.669 267.248Z" fill="#3A395B"/>
<path d="M186.79 264.588C186.628 264.809 186.471 265.082 186.314 265.337C186.111 265.674 185.914 266.023 185.739 266.383C185.652 266.563 185.571 266.748 185.501 266.946C185.437 267.132 185.362 267.364 185.403 267.619C185.437 267.863 185.583 268.113 185.826 268.247C186.082 268.392 186.361 268.345 186.558 268.299C186.761 268.252 186.947 268.188 187.098 268.183C187.249 268.165 187.377 268.206 187.505 268.293C187.632 268.386 187.743 268.496 187.812 268.647C187.888 268.792 187.986 269.054 188.219 269.21C188.416 269.35 188.706 269.46 189.014 269.315C189.316 269.147 189.363 268.856 189.426 268.694L190.332 266.534C190.582 265.953 190.837 265.239 190.686 265.192C190.541 265.146 190.193 265.709 189.903 266.388C189.798 266.626 189.694 266.865 189.601 267.103C189.438 267.509 189.281 267.904 189.125 268.305C189.084 268.397 189.032 268.519 189.003 268.624C188.968 268.728 188.939 268.816 188.898 268.874C188.828 268.978 188.701 268.99 188.538 268.903C188.375 268.821 188.312 268.688 188.201 268.456C188.079 268.212 187.882 268.008 187.626 267.869C187.365 267.718 187.017 267.747 186.773 267.823C186.523 267.886 186.279 267.974 186.105 267.933C185.948 267.892 185.797 267.712 185.797 267.492C185.797 267.283 185.914 266.975 186.03 266.696C186.279 266.121 186.616 265.523 186.959 264.937C187.174 264.565 187.429 264.118 187.354 264.008C187.284 263.921 186.999 264.321 186.796 264.606L186.79 264.588Z" fill="#3A395B"/>
<path d="M182 17C196.911 17 209 29.089 209 44C209 58.911 196.911 71 182 71C167.089 71 155 58.911 155 44C155 29.089 167.089 17 182 17Z" fill="#F0F8FF"/>
<path d="M188.131 29.5071C188.062 29.5071 187.998 29.5129 187.934 29.5245C187.841 29.5013 187.742 29.4955 187.638 29.5071C187.551 29.3097 187.377 29.1413 187.092 29.0775C186.372 28.9149 185.664 28.7233 184.973 28.4736C184.706 28.3749 184.369 28.2704 184.044 28.1368C183.637 27.8697 183.271 27.5387 182.906 27.2078C182.801 27.1091 182.662 27.0452 182.522 27.0162C182.342 26.7955 182.052 26.6736 181.686 26.7955C181.303 26.9291 180.943 27.1207 180.595 27.3355C180.391 27.1962 180.136 27.1381 179.898 27.2194C179.538 27.3355 179.23 27.5213 178.946 27.7362C178.887 27.7768 178.829 27.8174 178.777 27.8639C178.411 28.1426 178.051 28.4387 177.627 28.6478C177.407 28.7523 177.279 28.9671 177.233 29.1994C176.675 29.4258 176.106 29.6291 175.526 29.8091C175.52 29.8091 175.508 29.8091 175.502 29.8033C174.428 29.542 173.969 31.1968 175.044 31.4581C176.187 31.7368 177.32 32.0562 178.44 32.4104C179.23 32.9039 180.014 33.4033 180.809 33.8794C181.646 34.3787 182.093 34.3497 182.923 33.8213C184.526 32.8052 186.041 31.6265 187.928 31.2026C187.998 31.22 188.067 31.2316 188.149 31.2316C189.252 31.2316 189.258 29.5129 188.149 29.5129L188.131 29.5071Z" fill="white"/>
<path d="M182.023 35.1103C181.913 34.489 181.89 34.431 181.443 34.6574C181.425 34.6458 181.408 34.6342 181.384 34.6284C181.297 34.5936 181.21 34.5587 181.123 34.5239C181.054 34.4136 180.955 34.309 180.815 34.2278C179.3 33.3626 177.767 32.5381 176.205 31.76C175.95 31.6323 175.706 31.6381 175.497 31.7252C175.462 31.7019 175.427 31.6845 175.392 31.6671C175.375 31.6555 175.357 31.6497 175.34 31.6439C175.224 30.6278 173.598 30.6452 173.633 31.7252C173.72 34.611 173.807 37.4968 173.888 40.3826C173.906 40.8877 174.272 41.1607 174.661 41.2013C176.658 42.1013 179.23 42.8039 180.688 44.4994C181.146 45.0336 181.762 44.6619 181.965 44.1103C182.47 42.7574 182.087 41.091 182.157 39.6684C182.232 38.1761 182.279 36.5968 182.017 35.1219L182.023 35.1103Z" fill="#F7AEBC"/>
<path d="M188.869 30.8658C187.864 31.1039 186.97 31.5568 186.105 32.1142C185.211 32.6949 184.299 33.5368 183.266 33.8387C182.987 33.92 182.813 34.1 182.726 34.3091C182.308 34.3207 181.907 34.5936 181.924 35.1336C181.977 36.6317 182.029 38.1355 182.081 39.6336C182.104 40.2665 182.122 40.8994 182.145 41.5323C182.157 41.8865 182.168 42.2465 182.18 42.6007C182.186 42.8271 182.023 43.4542 182.279 43.1523C181.831 43.6807 182.041 44.331 182.656 44.5865C182.668 44.5865 182.679 44.5981 182.691 44.6039C183.126 44.7839 183.579 44.4181 183.73 44.0407C183.928 44.0407 184.137 43.9768 184.322 43.8026C184.979 43.1871 185.67 42.6297 186.43 42.1594C186.581 42.0665 186.75 41.9562 186.935 41.84C187.417 41.6484 187.899 41.4742 188.399 41.3233C188.875 41.1781 189.316 41.12 189.577 40.6555C189.751 40.3536 189.722 39.9181 189.479 39.6568C189.502 39.5697 189.513 39.4652 189.502 39.3607C189.45 38.931 189.438 38.5362 189.45 38.1007C189.455 37.9381 189.421 37.8046 189.362 37.6884C189.362 37.0787 189.391 36.4749 189.432 35.871C189.513 34.6342 189.676 33.4149 189.902 32.2013C189.92 32.1084 189.92 32.0213 189.908 31.94C190.019 31.3942 189.577 30.7091 188.857 30.8775L188.869 30.8658Z" fill="#88C1D7"/>
<path d="M174.324 40.8703C174.353 40.6264 174.353 40.3535 174.359 40.0922C174.469 37.3284 174.324 34.5703 174.272 31.8064C174.26 31.249 174.196 30.5871 174.01 30.6103C173.83 30.6277 173.726 31.2026 173.732 31.8529C173.732 32.0793 173.732 32.3058 173.749 32.5322C173.859 34.0303 173.848 35.5574 173.923 37.398C173.929 38.2806 173.941 39.4884 173.958 40.6961C173.958 41.0735 173.993 41.5322 174.138 41.5729C174.266 41.6077 174.295 41.1722 174.33 40.8703H174.324Z" fill="#3A395B"/>
<path d="M182.215 44.3252C182.244 44.0813 182.244 43.8084 182.25 43.5471C182.36 40.7833 182.215 38.0252 182.163 35.2613C182.151 34.7039 182.087 34.042 181.901 34.0652C181.721 34.0826 181.617 34.6575 181.623 35.3078C181.623 35.5342 181.623 35.7607 181.64 35.9871C181.75 37.4852 181.739 39.0123 181.814 40.8529C181.82 41.7355 181.832 42.9433 181.849 44.151C181.849 44.5284 181.884 44.9871 182.029 45.0278C182.157 45.0626 182.186 44.6271 182.221 44.3252H182.215Z" fill="#3A395B"/>
<path d="M189.891 40.7078C189.92 40.4639 189.92 40.191 189.925 39.9297C190.036 37.1659 189.891 34.4078 189.838 31.6439C189.827 31.0865 189.763 30.4246 189.577 30.4478C189.397 30.4652 189.293 31.0401 189.298 31.6904C189.298 31.9168 189.298 32.1433 189.316 32.3697C189.426 33.8678 189.414 35.3949 189.49 37.2355C189.496 38.1181 189.507 39.3259 189.525 40.5336C189.525 40.911 189.56 41.3697 189.705 41.4104C189.833 41.4452 189.862 41.0097 189.896 40.7078H189.891Z" fill="#3A395B"/>
<path d="M181.089 26.5691C180.909 26.6329 180.723 26.7316 180.543 26.8129C178.603 27.6955 176.786 28.8104 174.916 29.8381C174.539 30.0471 174.121 30.3375 174.22 30.4942C174.318 30.6452 174.76 30.5349 175.201 30.2968C175.358 30.2155 175.509 30.1284 175.659 30.0413C176.635 29.4142 177.68 28.88 178.905 28.16C179.503 27.8407 180.328 27.3994 181.147 26.9581C181.402 26.8187 181.704 26.6329 181.663 26.4878C181.629 26.3658 181.315 26.4878 181.089 26.5691Z" fill="#3A395B"/>
<path d="M188.758 30.651C188.578 30.7149 188.393 30.8136 188.213 30.8949C186.273 31.7775 184.456 32.8923 182.586 33.92C182.209 34.1291 181.791 34.4194 181.889 34.5762C181.988 34.7271 182.429 34.6168 182.871 34.3787C183.027 34.2975 183.178 34.2104 183.329 34.1233C184.305 33.4962 185.35 32.962 186.575 32.242C187.173 31.9226 187.998 31.4813 188.817 31.04C189.072 30.9007 189.374 30.7149 189.333 30.5697C189.298 30.4478 188.985 30.5697 188.758 30.651Z" fill="#3A395B"/>
<path d="M188.758 41.062C188.578 41.1258 188.393 41.2245 188.213 41.3058C186.273 42.1884 184.456 43.3032 182.586 44.331C182.209 44.54 181.791 44.8303 181.889 44.9871C181.988 45.1381 182.429 45.0278 182.871 44.7897C183.027 44.7084 183.178 44.6213 183.329 44.5342C184.305 43.9071 185.35 43.3729 186.575 42.6529C187.173 42.3336 187.998 41.8923 188.817 41.451C189.072 41.3116 189.374 41.1258 189.333 40.9807C189.298 40.8587 188.985 40.9807 188.758 41.062Z" fill="#3A395B"/>
<path d="M181.46 34.2393C181.303 34.1232 181.111 34.0245 180.931 33.9142C179.05 32.7819 177.047 31.8819 175.09 30.8948C174.695 30.6974 174.202 30.5058 174.132 30.68C174.062 30.8484 174.417 31.1561 174.875 31.3942C175.032 31.4813 175.195 31.5626 175.357 31.6322C176.455 32.0968 177.517 32.6774 178.847 33.2987C179.468 33.6181 180.316 34.0652 181.17 34.5006C181.437 34.64 181.768 34.7852 181.866 34.669C181.948 34.5703 181.657 34.3787 181.46 34.2335V34.2393Z" fill="#3A395B"/>
<path d="M181.46 44.5459C181.303 44.4297 181.111 44.331 180.931 44.2207C179.05 43.0884 177.047 42.1884 175.09 41.2013C174.695 41.0039 174.202 40.8123 174.132 40.9865C174.062 41.1549 174.417 41.4626 174.875 41.7007C175.032 41.7878 175.195 41.8691 175.357 41.9388C176.455 42.4033 177.517 42.9839 178.847 43.6052C179.468 43.9246 180.316 44.3717 181.17 44.8072C181.437 44.9465 181.768 45.0917 181.866 44.9755C181.948 44.8768 181.657 44.6852 181.46 44.5401V44.5459Z" fill="#3A395B"/>
<path d="M189.136 30.1052C188.979 29.989 188.787 29.8903 188.607 29.78C186.726 28.6477 184.723 27.7477 182.766 26.7606C182.371 26.5632 181.878 26.3716 181.808 26.5458C181.738 26.7142 182.093 27.0219 182.551 27.26C182.708 27.3471 182.871 27.4284 183.033 27.4981C184.131 27.9626 185.193 28.5432 186.523 29.1645C187.144 29.4839 187.992 29.931 188.846 30.3664C189.113 30.5058 189.444 30.651 189.542 30.5348C189.624 30.4361 189.333 30.2445 189.136 30.0994V30.1052Z" fill="#3A395B"/>
<path d="M180.572 43.7562C180.502 43.7562 180.438 43.762 180.374 43.7736C180.281 43.7503 180.183 43.7445 180.078 43.7562C179.991 43.5587 179.817 43.3904 179.532 43.3265C178.812 43.1639 178.104 42.9723 177.413 42.7226C177.146 42.6239 176.809 42.5194 176.484 42.3858C176.077 42.1187 175.712 41.7878 175.346 41.4568C175.241 41.3581 175.102 41.2942 174.963 41.2652C174.783 41.0445 174.492 40.9226 174.126 41.0445C173.743 41.1781 173.383 41.3697 173.035 41.5845C172.832 41.4452 172.576 41.3871 172.338 41.4684C171.978 41.5845 171.67 41.7704 171.386 41.9852C171.328 42.0258 171.27 42.0665 171.217 42.1129C170.852 42.3916 170.492 42.6878 170.068 42.8968C169.847 43.0013 169.719 43.2162 169.673 43.4484C169.115 43.6749 168.546 43.8781 167.966 44.0581C167.96 44.0581 167.948 44.0581 167.943 44.0523C166.868 43.791 166.41 45.4458 167.484 45.7071C168.628 45.9858 169.76 46.3052 170.881 46.6594C171.67 47.1529 172.454 47.6523 173.25 48.1284C174.086 48.6278 174.533 48.5987 175.363 48.0703C176.966 47.0542 178.481 45.8755 180.368 45.4516C180.438 45.4691 180.508 45.4807 180.589 45.4807C181.692 45.4807 181.698 43.762 180.589 43.762L180.572 43.7562Z" fill="white"/>
<path d="M174.458 49.3594C174.347 48.7381 174.324 48.6801 173.877 48.9065C173.859 48.8949 173.842 48.8833 173.819 48.8775C173.732 48.8426 173.645 48.8078 173.558 48.773C173.488 48.6626 173.389 48.5581 173.25 48.4768C171.734 47.6117 170.201 46.7872 168.639 46.0091C168.384 45.8813 168.14 45.8872 167.931 45.9743C167.896 45.951 167.861 45.9336 167.827 45.9162C167.809 45.9046 167.792 45.8988 167.774 45.893C167.658 44.8768 166.032 44.8943 166.067 45.9743C166.154 48.8601 166.241 51.7459 166.323 54.6317C166.34 55.1368 166.706 55.4097 167.095 55.4504C169.092 56.3504 171.665 57.053 173.122 58.7484C173.581 59.2826 174.196 58.911 174.399 58.3594C174.905 57.0065 174.521 55.3401 174.591 53.9175C174.667 52.4252 174.713 50.8459 174.452 49.371L174.458 49.3594Z" fill="#F7AEBC"/>
<path d="M181.309 45.1148C180.305 45.3529 179.41 45.8058 178.545 46.3632C177.651 46.9439 176.739 47.7858 175.706 48.0877C175.427 48.169 175.253 48.349 175.166 48.5581C174.748 48.5697 174.347 48.8426 174.365 49.3826C174.417 50.8806 174.469 52.3845 174.521 53.8826C174.545 54.5155 174.562 55.1484 174.585 55.7813C174.597 56.1355 174.608 56.4955 174.62 56.8497C174.626 57.0761 174.463 57.7032 174.719 57.4013C174.272 57.9297 174.481 58.58 175.096 58.8355C175.108 58.8355 175.119 58.8471 175.131 58.8529C175.566 59.0329 176.019 58.6671 176.17 58.2897C176.368 58.2897 176.577 58.2258 176.763 58.0516C177.419 57.4361 178.11 56.8787 178.87 56.4084C179.021 56.3155 179.19 56.2052 179.376 56.089C179.857 55.8974 180.339 55.7232 180.839 55.5723C181.315 55.4271 181.756 55.369 182.017 54.9045C182.192 54.6026 182.163 54.1671 181.919 53.9058C181.942 53.8187 181.954 53.7142 181.942 53.6097C181.89 53.18 181.878 52.7852 181.89 52.3497C181.896 52.1871 181.861 52.0536 181.803 51.9374C181.803 51.3278 181.832 50.7239 181.872 50.12C181.954 48.8832 182.116 47.6639 182.343 46.4503C182.36 46.3574 182.36 46.2703 182.348 46.189C182.459 45.6432 182.017 44.9581 181.297 45.1265L181.309 45.1148Z" fill="#88C1D7"/>
<path d="M166.758 55.1194C166.787 54.8756 166.787 54.6027 166.793 54.3414C166.903 51.5775 166.758 48.8194 166.706 46.0556C166.694 45.4982 166.63 44.8362 166.444 44.8595C166.264 44.8769 166.16 45.4517 166.166 46.102C166.166 46.3285 166.166 46.5549 166.183 46.7814C166.294 48.2794 166.282 49.8065 166.357 51.6472C166.363 52.5298 166.375 53.7375 166.392 54.9453C166.392 55.3227 166.427 55.7814 166.572 55.822C166.7 55.8569 166.729 55.4214 166.764 55.1194H166.758Z" fill="#3A395B"/>
<path d="M174.655 58.5742C174.684 58.3303 174.684 58.0574 174.69 57.7961C174.8 55.0323 174.655 52.2742 174.603 49.5103C174.591 48.9529 174.527 48.291 174.341 48.3142C174.161 48.3316 174.057 48.9065 174.063 49.5568C174.063 49.7832 174.063 50.0097 174.08 50.2361C174.19 51.7342 174.179 53.2613 174.254 55.1019C174.26 55.9845 174.272 57.1923 174.289 58.4C174.289 58.7774 174.324 59.2361 174.469 59.2768C174.597 59.3116 174.626 58.8761 174.661 58.5742H174.655Z" fill="#3A395B"/>
<path d="M182.325 54.9568C182.354 54.7129 182.354 54.44 182.36 54.1787C182.47 51.4149 182.325 48.6568 182.273 45.8929C182.261 45.3355 182.197 44.6736 182.012 44.6968C181.832 44.7142 181.727 45.289 181.733 45.9394C181.733 46.1658 181.733 46.3923 181.75 46.6187C181.861 48.1168 181.849 49.6439 181.925 51.4845C181.93 52.3671 181.942 53.5749 181.959 54.7826C181.959 55.16 181.994 55.6187 182.139 55.6594C182.267 55.6942 182.296 55.2587 182.331 54.9568H182.325Z" fill="#3A395B"/>
<path d="M173.522 40.8181C173.342 40.8819 173.157 40.9806 172.977 41.0619C171.037 41.9445 169.22 43.0593 167.35 44.0871C166.973 44.2961 166.555 44.5864 166.653 44.7432C166.752 44.8942 167.193 44.7839 167.635 44.5458C167.791 44.4645 167.942 44.3774 168.093 44.2903C169.069 43.6632 170.114 43.129 171.339 42.409C171.937 42.0897 172.762 41.6484 173.58 41.2071C173.836 41.0677 174.138 40.8819 174.097 40.7368C174.062 40.6148 173.749 40.7368 173.522 40.8181Z" fill="#3A395B"/>
<path d="M181.199 44.9C181.019 44.9639 180.833 45.0626 180.653 45.1439C178.713 46.0265 176.896 47.1413 175.026 48.1691C174.649 48.3781 174.231 48.6684 174.33 48.8252C174.428 48.9762 174.87 48.8658 175.311 48.6278C175.468 48.5465 175.619 48.4594 175.77 48.3723C176.745 47.7452 177.79 47.211 179.015 46.491C179.613 46.1716 180.438 45.7303 181.257 45.2891C181.512 45.1497 181.814 44.9639 181.773 44.8187C181.739 44.6968 181.425 44.8187 181.199 44.9Z" fill="#3A395B"/>
<path d="M181.199 55.3168C181.019 55.3807 180.833 55.4794 180.653 55.5607C178.713 56.4433 176.896 57.5581 175.026 58.5858C174.649 58.7949 174.231 59.0852 174.33 59.242C174.428 59.3929 174.87 59.2826 175.311 59.0445C175.468 58.9633 175.619 58.8762 175.77 58.7891C176.745 58.162 177.79 57.6278 179.015 56.9078C179.613 56.5884 180.438 56.1471 181.257 55.7058C181.512 55.5665 181.814 55.3807 181.773 55.2355C181.739 55.1136 181.425 55.2355 181.199 55.3168Z" fill="#3A395B"/>
<path d="M173.9 48.4942C173.744 48.3781 173.552 48.2794 173.372 48.1691C171.491 47.0368 169.488 46.1368 167.531 45.1497C167.136 44.9523 166.642 44.7607 166.573 44.9349C166.503 45.1033 166.857 45.411 167.316 45.6491C167.473 45.7362 167.635 45.8175 167.798 45.8871C168.895 46.3516 169.958 46.9323 171.288 47.5536C171.909 47.8729 172.757 48.32 173.61 48.7555C173.877 48.8949 174.208 49.04 174.307 48.9239C174.388 48.8252 174.098 48.6336 173.9 48.4884V48.4942Z" fill="#3A395B"/>
<path d="M173.9 58.7949C173.744 58.6788 173.552 58.5801 173.372 58.4698C171.491 57.3375 169.488 56.4375 167.531 55.4504C167.136 55.253 166.642 55.0614 166.573 55.2356C166.503 55.404 166.857 55.7117 167.316 55.9498C167.473 56.0369 167.635 56.1181 167.798 56.1878C168.895 56.6523 169.958 57.233 171.288 57.8543C171.909 58.1736 172.757 58.6207 173.61 59.0562C173.877 59.1956 174.208 59.3407 174.307 59.2246C174.388 59.1259 174.098 58.9343 173.9 58.7891V58.7949Z" fill="#3A395B"/>
<path d="M181.57 44.3542C181.414 44.2381 181.222 44.1394 181.042 44.029C179.161 42.8968 177.158 41.9968 175.201 41.0097C174.806 40.8123 174.312 40.6207 174.243 40.7949C174.173 40.9632 174.527 41.271 174.986 41.509C175.143 41.5961 175.305 41.6774 175.468 41.7471C176.565 42.2116 177.628 42.7923 178.958 43.4136C179.579 43.7329 180.427 44.18 181.28 44.6155C181.547 44.7549 181.878 44.9 181.977 44.7839C182.058 44.6852 181.768 44.4936 181.57 44.3484V44.3542Z" fill="#3A395B"/>
<path d="M196.133 43.7562C196.063 43.7562 195.999 43.762 195.935 43.7736C195.842 43.7503 195.744 43.7445 195.639 43.7562C195.552 43.5587 195.378 43.3904 195.093 43.3265C194.373 43.1639 193.665 42.9723 192.974 42.7226C192.707 42.6239 192.37 42.5194 192.045 42.3858C191.638 42.1187 191.273 41.7878 190.907 41.4568C190.802 41.3581 190.663 41.2942 190.524 41.2652C190.344 41.0445 190.053 40.9226 189.687 41.0445C189.304 41.1781 188.944 41.3697 188.596 41.5845C188.393 41.4452 188.137 41.3871 187.899 41.4684C187.539 41.5845 187.231 41.7704 186.947 41.9852C186.889 42.0258 186.831 42.0665 186.778 42.1129C186.413 42.3916 186.053 42.6878 185.629 42.8968C185.408 43.0013 185.28 43.2162 185.234 43.4484C184.676 43.6749 184.107 43.8781 183.527 44.0581C183.521 44.0581 183.509 44.0581 183.504 44.0523C182.429 43.791 181.971 45.4458 183.045 45.7071C184.189 45.9858 185.321 46.3052 186.442 46.6594C187.231 47.1529 188.015 47.6523 188.811 48.1284C189.647 48.6278 190.094 48.5987 190.924 48.0703C192.527 47.0542 194.042 45.8755 195.929 45.4516C195.999 45.4691 196.069 45.4807 196.15 45.4807C197.253 45.4807 197.259 43.762 196.15 43.762L196.133 43.7562Z" fill="white"/>
<path d="M190.024 49.3594C189.914 48.7381 189.891 48.6801 189.444 48.9065C189.426 48.8949 189.409 48.8833 189.386 48.8775C189.299 48.8426 189.212 48.8078 189.124 48.773C189.055 48.6626 188.956 48.5581 188.817 48.4768C187.301 47.6117 185.768 46.7872 184.206 46.0091C183.951 45.8813 183.707 45.8872 183.498 45.9743C183.463 45.951 183.428 45.9336 183.393 45.9162C183.376 45.9046 183.359 45.8988 183.341 45.893C183.225 44.8768 181.599 44.8943 181.634 45.9743C181.721 48.8601 181.808 51.7459 181.89 54.6317C181.907 55.1368 182.273 55.4097 182.662 55.4504C184.659 56.3504 187.232 57.053 188.689 58.7484C189.148 59.2826 189.763 58.911 189.966 58.3594C190.472 57.0065 190.088 55.3401 190.158 53.9175C190.233 52.4252 190.28 50.8459 190.019 49.371L190.024 49.3594Z" fill="#F7AEBC"/>
<path d="M196.871 45.1148C195.866 45.3529 194.972 45.8058 194.107 46.3632C193.213 46.9439 192.301 47.7858 191.267 48.0877C190.989 48.169 190.814 48.349 190.727 48.5581C190.309 48.5697 189.909 48.8426 189.926 49.3826C189.978 50.8806 190.031 52.3845 190.083 53.8826C190.106 54.5155 190.123 55.1484 190.147 55.7813C190.158 56.1355 190.17 56.4955 190.182 56.8497C190.187 57.0761 190.025 57.7032 190.28 57.4013C189.833 57.9297 190.042 58.58 190.658 58.8355C190.669 58.8355 190.681 58.8471 190.693 58.8529C191.128 59.0329 191.581 58.6671 191.732 58.2897C191.929 58.2897 192.138 58.2258 192.324 58.0516C192.98 57.4361 193.671 56.8787 194.432 56.4084C194.583 56.3155 194.751 56.2052 194.937 56.089C195.419 55.8974 195.901 55.7232 196.4 55.5723C196.876 55.4271 197.318 55.369 197.579 54.9045C197.753 54.6026 197.724 54.1671 197.48 53.9058C197.503 53.8187 197.515 53.7142 197.503 53.6097C197.451 53.18 197.44 52.7852 197.451 52.3497C197.457 52.1871 197.422 52.0536 197.364 51.9374C197.364 51.3278 197.393 50.7239 197.434 50.12C197.515 48.8832 197.678 47.6639 197.904 46.4503C197.922 46.3574 197.922 46.2703 197.91 46.189C198.02 45.6432 197.579 44.9581 196.859 45.1265L196.871 45.1148Z" fill="#88C1D7"/>
<path d="M182.325 55.1194C182.354 54.8756 182.354 54.6027 182.36 54.3414C182.47 51.5775 182.325 48.8194 182.273 46.0556C182.261 45.4982 182.197 44.8362 182.012 44.8595C181.832 44.8769 181.727 45.4517 181.733 46.102C181.733 46.3285 181.733 46.5549 181.75 46.7814C181.861 48.2794 181.849 49.8065 181.925 51.6472C181.93 52.5298 181.942 53.7375 181.959 54.9453C181.959 55.3227 181.994 55.7814 182.139 55.822C182.267 55.8569 182.296 55.4214 182.331 55.1194H182.325Z" fill="#3A395B"/>
<path d="M190.222 58.5742C190.251 58.3303 190.251 58.0574 190.257 57.7961C190.367 55.0323 190.222 52.2742 190.17 49.5103C190.158 48.9529 190.094 48.291 189.908 48.3142C189.728 48.3316 189.624 48.9065 189.63 49.5568C189.63 49.7832 189.63 50.0097 189.647 50.2361C189.757 51.7342 189.746 53.2613 189.821 55.1019C189.827 55.9845 189.839 57.1923 189.856 58.4C189.856 58.7774 189.891 59.2361 190.036 59.2768C190.164 59.3116 190.193 58.8761 190.228 58.5742H190.222Z" fill="#3A395B"/>
<path d="M197.892 54.9568C197.921 54.7129 197.921 54.44 197.927 54.1787C198.037 51.4149 197.892 48.6568 197.84 45.8929C197.828 45.3355 197.764 44.6736 197.579 44.6968C197.399 44.7142 197.294 45.289 197.3 45.9394C197.3 46.1658 197.3 46.3923 197.317 46.6187C197.428 48.1168 197.416 49.6439 197.491 51.4845C197.497 52.3671 197.509 53.5749 197.526 54.7826C197.526 55.16 197.561 55.6187 197.706 55.6594C197.834 55.6942 197.863 55.2587 197.898 54.9568H197.892Z" fill="#3A395B"/>
<path d="M189.09 40.8181C188.91 40.8819 188.724 40.9806 188.544 41.0619C186.605 41.9445 184.787 43.0593 182.918 44.0871C182.54 44.2961 182.122 44.5864 182.221 44.7432C182.32 44.8942 182.761 44.7839 183.202 44.5458C183.359 44.4645 183.51 44.3774 183.661 44.2903C184.636 43.6632 185.682 43.129 186.907 42.409C187.505 42.0897 188.329 41.6484 189.148 41.2071C189.404 41.0677 189.7 40.8819 189.665 40.7368C189.63 40.6148 189.316 40.7368 189.09 40.8181Z" fill="#3A395B"/>
<path d="M196.76 44.9C196.58 44.9639 196.394 45.0626 196.214 45.1439C194.275 46.0265 192.458 47.1413 190.588 48.1691C190.21 48.3781 189.792 48.6684 189.891 48.8252C189.99 48.9762 190.431 48.8658 190.872 48.6278C191.029 48.5465 191.18 48.4594 191.331 48.3723C192.307 47.7452 193.352 47.211 194.577 46.491C195.175 46.1716 196 45.7303 196.818 45.2891C197.074 45.1497 197.376 44.9639 197.335 44.8187C197.3 44.6968 196.987 44.8187 196.76 44.9Z" fill="#3A395B"/>
<path d="M196.76 55.3168C196.58 55.3807 196.394 55.4794 196.214 55.5607C194.275 56.4433 192.458 57.5581 190.588 58.5858C190.21 58.7949 189.792 59.0852 189.891 59.242C189.99 59.3929 190.431 59.2826 190.872 59.0445C191.029 58.9633 191.18 58.8762 191.331 58.7891C192.307 58.162 193.352 57.6278 194.577 56.9078C195.175 56.5884 196 56.1471 196.818 55.7058C197.074 55.5665 197.376 55.3807 197.335 55.2355C197.3 55.1136 196.987 55.2355 196.76 55.3168Z" fill="#3A395B"/>
<path d="M189.467 48.4942C189.31 48.3781 189.119 48.2794 188.939 48.1691C187.057 47.0368 185.054 46.1368 183.097 45.1497C182.703 44.9523 182.209 44.7607 182.139 44.9349C182.07 45.1033 182.424 45.411 182.883 45.6491C183.039 45.7362 183.202 45.8175 183.365 45.8871C184.462 46.3516 185.525 46.9323 186.854 47.5536C187.476 47.8729 188.323 48.32 189.177 48.7555C189.444 48.8949 189.775 49.04 189.874 48.9239C189.955 48.8252 189.665 48.6336 189.467 48.4884V48.4942Z" fill="#3A395B"/>
<path d="M189.467 58.7949C189.31 58.6788 189.119 58.5801 188.939 58.4698C187.057 57.3375 185.054 56.4375 183.097 55.4504C182.703 55.253 182.209 55.0614 182.139 55.2356C182.07 55.404 182.424 55.7117 182.883 55.9498C183.039 56.0369 183.202 56.1181 183.365 56.1878C184.462 56.6523 185.525 57.233 186.854 57.8543C187.476 58.1736 188.323 58.6207 189.177 59.0562C189.444 59.1956 189.775 59.3407 189.874 59.2246C189.955 59.1259 189.665 58.9343 189.467 58.7891V58.7949Z" fill="#3A395B"/>
<path d="M197.138 44.3542C196.981 44.2381 196.789 44.1394 196.609 44.029C194.728 42.8968 192.725 41.9968 190.768 41.0097C190.373 40.8123 189.88 40.6207 189.81 40.7949C189.74 40.9632 190.095 41.271 190.553 41.509C190.71 41.5961 190.873 41.6774 191.035 41.7471C192.133 42.2116 193.195 42.7923 194.525 43.4136C195.146 43.7329 195.994 44.18 196.847 44.6155C197.115 44.7549 197.446 44.9 197.544 44.7839C197.626 44.6852 197.335 44.4936 197.138 44.3484V44.3542Z" fill="#3A395B"/>
<defs>
<filter id="filter0_d_133_263" x="110.75" y="0.75" width="142.5" height="126.5" filterUnits="userSpaceOnUse" color-interpolation-filters="sRGB">
<feFlood flood-opacity="0" result="BackgroundImageFix"/>
<feColorMatrix in="SourceAlpha" type="matrix" values="0 0 0 0 0 0 0 0 0 0 0 0 0 0 0 0 0 0 127 0" result="hardAlpha"/>
<feOffset dy="10"/>
<feGaussianBlur stdDeviation="8"/>
<feComposite in2="hardAlpha" operator="out"/>
<feColorMatrix type="matrix" values="0 0 0 0 0.00680556 0 0 0 0 0.0275901 0 0 0 0 0.116667 0 0 0 0.1 0"/>
<feBlend mode="normal" in2="BackgroundImageFix" result="effect1_dropShadow_133_263"/>
<feBlend mode="normal" in="SourceGraphic" in2="effect1_dropShadow_133_263" result="shape"/>
</filter>
<filter id="filter1_d_133_263" x="220.75" y="105.75" width="142.5" height="126.5" filterUnits="userSpaceOnUse" color-interpolation-filters="sRGB">
<feFlood flood-opacity="0" result="BackgroundImageFix"/>
<feColorMatrix in="SourceAlpha" type="matrix" values="0 0 0 0 0 0 0 0 0 0 0 0 0 0 0 0 0 0 127 0" result="hardAlpha"/>
<feOffset dy="10"/>
<feGaussianBlur stdDeviation="8"/>
<feComposite in2="hardAlpha" operator="out"/>
<feColorMatrix type="matrix" values="0 0 0 0 0.00680556 0 0 0 0 0.0275901 0 0 0 0 0.116667 0 0 0 0.1 0"/>
<feBlend mode="normal" in2="BackgroundImageFix" result="effect1_dropShadow_133_263"/>
<feBlend mode="normal" in="SourceGraphic" in2="effect1_dropShadow_133_263" result="shape"/>
</filter>
<filter id="filter2_d_133_263" x="0.75" y="105.75" width="142.5" height="126.5" filterUnits="userSpaceOnUse" color-interpolation-filters="sRGB">
<feFlood flood-opacity="0" result="BackgroundImageFix"/>
<feColorMatrix in="SourceAlpha" type="matrix" values="0 0 0 0 0 0 0 0 0 0 0 0 0 0 0 0 0 0 127 0" result="hardAlpha"/>
<feOffset dy="10"/>
<feGaussianBlur stdDeviation="8"/>
<feComposite in2="hardAlpha" operator="out"/>
<feColorMatrix type="matrix" values="0 0 0 0 0.00680556 0 0 0 0 0.0275901 0 0 0 0 0.116667 0 0 0 0.1 0"/>
<feBlend mode="normal" in2="BackgroundImageFix" result="effect1_dropShadow_133_263"/>
<feBlend mode="normal" in="SourceGraphic" in2="effect1_dropShadow_133_263" result="shape"/>
</filter>
<filter id="filter3_d_133_263" x="110.75" y="207.75" width="142.5" height="126.5" filterUnits="userSpaceOnUse" color-interpolation-filters="sRGB">
<feFlood flood-opacity="0" result="BackgroundImageFix"/>
<feColorMatrix in="SourceAlpha" type="matrix" values="0 0 0 0 0 0 0 0 0 0 0 0 0 0 0 0 0 0 127 0" result="hardAlpha"/>
<feOffset dy="10"/>
<feGaussianBlur stdDeviation="8"/>
<feComposite in2="hardAlpha" operator="out"/>
<feColorMatrix type="matrix" values="0 0 0 0 0.00680556 0 0 0 0 0.0275901 0 0 0 0 0.116667 0 0 0 0.1 0"/>
<feBlend mode="normal" in2="BackgroundImageFix" result="effect1_dropShadow_133_263"/>
<feBlend mode="normal" in="SourceGraphic" in2="effect1_dropShadow_133_263" result="shape"/>
</filter>
</defs>
</svg>
