<svg width="1161" height="470" viewBox="0 0 1161 470" fill="none" xmlns="http://www.w3.org/2000/svg">
<g opacity="0.71" filter="url(#filter0_d_125_1645)">
<path d="M749.4 7H413.3C405.955 7 400 12.9546 400 20.3V125.56C400 132.905 405.955 138.86 413.3 138.86H749.4C756.745 138.86 762.7 132.905 762.7 125.56V20.3C762.7 12.9546 756.745 7 749.4 7Z" fill="white"/>
<path d="M749.4 7H413.3C405.955 7 400 12.9546 400 20.3V125.56C400 132.905 405.955 138.86 413.3 138.86H749.4C756.745 138.86 762.7 132.905 762.7 125.56V20.3C762.7 12.9546 756.745 7 749.4 7Z" stroke="#535AE8" stroke-width="0.5" stroke-miterlimit="10"/>
</g>
<path d="M591.888 80V63.392H594.24L600.384 77.12L606.528 63.392H608.856V80H606.672V67.616L601.152 80H599.616L594.072 67.592V80H591.888ZM625.04 73.4C625.04 77.576 622.04 80.216 618.296 80.216C614.576 80.216 611.744 77.576 611.744 73.4C611.744 69.248 614.672 66.632 618.392 66.632C622.136 66.632 625.04 69.248 625.04 73.4ZM613.976 73.4C613.976 76.736 616.016 78.296 618.296 78.296C620.576 78.296 622.808 76.736 622.808 73.4C622.808 70.088 620.624 68.528 618.368 68.528C616.064 68.528 613.976 70.088 613.976 73.4ZM627.095 73.376C627.095 69.272 629.807 66.632 633.359 66.632C635.423 66.632 637.319 67.688 638.231 69.2V62.24H640.439V80H638.231V77.528C637.439 78.992 635.735 80.216 633.335 80.216C629.807 80.216 627.095 77.456 627.095 73.376ZM638.231 73.4C638.231 70.352 636.167 68.528 633.767 68.528C631.367 68.528 629.327 70.28 629.327 73.376C629.327 76.472 631.367 78.296 633.767 78.296C636.167 78.296 638.231 76.496 638.231 73.4ZM655.794 66.848V80H653.61V78.056C652.77 79.424 651.162 80.192 649.41 80.192C646.386 80.192 644.01 78.32 644.01 74.552V66.848H646.17V74.264C646.17 76.928 647.634 78.296 649.842 78.296C652.098 78.296 653.61 76.904 653.61 74.072V66.848H655.794ZM659.482 80V62.24H661.666V80H659.482ZM670.98 68.48C668.844 68.48 667.068 69.896 666.828 72.464H675.132C675.156 69.896 673.236 68.48 670.98 68.48ZM677.124 75.944C676.452 78.344 674.34 80.216 671.076 80.216C667.332 80.216 664.572 77.576 664.572 73.4C664.572 69.248 667.236 66.632 671.076 66.632C674.892 66.632 677.388 69.32 677.388 72.92C677.388 73.4 677.364 73.784 677.316 74.24H666.804C666.972 76.904 668.844 78.368 671.076 78.368C673.044 78.368 674.292 77.36 674.772 75.944H677.124ZM689.727 76.424C689.727 78.584 687.831 80.216 684.927 80.216C681.855 80.216 679.695 78.536 679.551 76.136H681.807C681.927 77.408 683.055 78.368 684.903 78.368C686.631 78.368 687.591 77.504 687.591 76.424C687.591 73.496 679.815 75.2 679.815 70.304C679.815 68.288 681.711 66.632 684.639 66.632C687.543 66.632 689.463 68.192 689.607 70.76H687.423C687.327 69.44 686.319 68.48 684.567 68.48C682.959 68.48 681.999 69.248 681.999 70.304C681.999 73.424 689.631 71.72 689.727 76.424Z" fill="#767E9F"/>
<path d="M517.5 26C543.18 26 564 46.82 564 72.5C564 98.18 543.18 119 517.5 119C491.82 119 471 98.18 471 72.5C471 46.82 491.82 26 517.5 26Z" fill="#F0F8FF"/>
<path d="M528.06 47.54C527.94 47.54 527.83 47.55 527.72 47.57C527.56 47.53 527.39 47.52 527.21 47.54C527.06 47.2 526.76 46.91 526.27 46.8C525.03 46.52 523.81 46.19 522.62 45.76C522.16 45.59 521.58 45.41 521.02 45.18C520.32 44.72 519.69 44.15 519.06 43.58C518.88 43.41 518.64 43.3 518.4 43.25C518.09 42.87 517.59 42.66 516.96 42.87C516.3 43.1 515.68 43.43 515.08 43.8C514.73 43.56 514.29 43.46 513.88 43.6C513.26 43.8 512.73 44.12 512.24 44.49C512.14 44.56 512.04 44.63 511.95 44.71C511.32 45.19 510.7 45.7 509.97 46.06C509.59 46.24 509.37 46.61 509.29 47.01C508.33 47.4 507.35 47.75 506.35 48.06C506.34 48.06 506.32 48.06 506.31 48.05C504.46 47.6 503.67 50.45 505.52 50.9C507.49 51.38 509.44 51.93 511.37 52.54C512.73 53.39 514.08 54.25 515.45 55.07C516.89 55.93 517.66 55.88 519.09 54.97C521.85 53.22 524.46 51.19 527.71 50.46C527.83 50.49 527.95 50.51 528.09 50.51C529.99 50.51 530 47.55 528.09 47.55L528.06 47.54Z" fill="white"/>
<path d="M517.54 57.19C517.35 56.12 517.31 56.02 516.54 56.41C516.51 56.39 516.48 56.37 516.44 56.36C516.29 56.3 516.14 56.24 515.99 56.18C515.87 55.99 515.7 55.8101 515.46 55.6701C512.85 54.1801 510.21 52.76 507.52 51.42C507.08 51.2 506.66 51.21 506.3 51.36C506.24 51.32 506.18 51.29 506.12 51.26C506.09 51.24 506.06 51.23 506.03 51.22C505.83 49.47 503.03 49.5 503.09 51.36C503.24 56.33 503.39 61.3 503.53 66.27C503.56 67.14 504.19 67.61 504.86 67.68C508.3 69.23 512.73 70.44 515.24 73.36C516.03 74.28 517.09 73.64 517.44 72.69C518.31 70.36 517.65 67.49 517.77 65.04C517.9 62.47 517.98 59.75 517.53 57.21L517.54 57.19Z" fill="#F7AEBC"/>
<path d="M529.33 49.8801C527.6 50.2901 526.06 51.0701 524.57 52.0301C523.03 53.0301 521.46 54.48 519.68 55C519.2 55.14 518.9 55.4501 518.75 55.8101C518.03 55.8301 517.34 56.3001 517.37 57.2301C517.46 59.8101 517.55 62.4001 517.64 64.9801C517.68 66.0701 517.71 67.16 517.75 68.25C517.77 68.86 517.79 69.4801 517.81 70.0901C517.82 70.4801 517.54 71.5601 517.98 71.0401C517.21 71.9501 517.57 73.0701 518.63 73.5101C518.65 73.5101 518.67 73.5301 518.69 73.5401C519.44 73.8501 520.22 73.2201 520.48 72.5701C520.82 72.5701 521.18 72.4601 521.5 72.1601C522.63 71.1001 523.82 70.14 525.13 69.33C525.39 69.17 525.68 68.9801 526 68.7801C526.83 68.4501 527.66 68.1501 528.52 67.8901C529.34 67.6401 530.1 67.5401 530.55 66.7401C530.85 66.2201 530.8 65.4701 530.38 65.0201C530.42 64.8701 530.44 64.6901 530.42 64.5101C530.33 63.7701 530.31 63.0901 530.33 62.3401C530.34 62.0601 530.28 61.8301 530.18 61.6301C530.18 60.5801 530.23 59.54 530.3 58.5C530.44 56.37 530.72 54.2701 531.11 52.1801C531.14 52.0201 531.14 51.8701 531.12 51.7301C531.31 50.7901 530.55 49.6101 529.31 49.9001L529.33 49.8801Z" fill="#88C1D7"/>
<path d="M504.28 67.11C504.33 66.69 504.33 66.22 504.34 65.77C504.53 61.01 504.28 56.26 504.19 51.5C504.17 50.54 504.06 49.4 503.74 49.44C503.43 49.47 503.25 50.46 503.26 51.58C503.26 51.97 503.26 52.36 503.29 52.75C503.48 55.33 503.46 57.96 503.59 61.13C503.6 62.65 503.62 64.73 503.65 66.81C503.65 67.46 503.71 68.25 503.96 68.32C504.18 68.38 504.23 67.63 504.29 67.11H504.28Z" fill="#3A395B"/>
<path d="M517.87 73.0601C517.92 72.6401 517.92 72.17 517.93 71.72C518.12 66.96 517.87 62.2101 517.78 57.4501C517.76 56.4901 517.65 55.3501 517.33 55.3901C517.02 55.4201 516.84 56.4101 516.85 57.5301C516.85 57.9201 516.85 58.3101 516.88 58.7001C517.07 61.2801 517.05 63.91 517.18 67.08C517.19 68.6 517.21 70.6801 517.24 72.7601C517.24 73.4101 517.3 74.2001 517.55 74.2701C517.77 74.3301 517.82 73.5801 517.88 73.0601H517.87Z" fill="#3A395B"/>
<path d="M531.09 66.8301C531.14 66.4101 531.14 65.9401 531.15 65.4901C531.34 60.7301 531.09 55.9801 531 51.2201C530.98 50.2601 530.87 49.1201 530.55 49.1601C530.24 49.1901 530.06 50.1801 530.07 51.3001C530.07 51.6901 530.07 52.0801 530.1 52.4701C530.29 55.0501 530.27 57.6801 530.4 60.8501C530.41 62.3701 530.43 64.4501 530.46 66.5301C530.46 67.1801 530.52 67.9701 530.77 68.0401C530.99 68.1001 531.04 67.3501 531.1 66.8301H531.09Z" fill="#3A395B"/>
<path d="M515.93 42.4801C515.62 42.5901 515.3 42.7601 514.99 42.9001C511.65 44.4201 508.52 46.3401 505.3 48.1101C504.65 48.4701 503.93 48.9701 504.1 49.2401C504.27 49.5001 505.03 49.3101 505.79 48.9001C506.06 48.7601 506.32 48.6101 506.58 48.4601C508.26 47.3801 510.06 46.4601 512.17 45.2201C513.2 44.6701 514.62 43.9101 516.03 43.1501C516.47 42.9101 516.99 42.5901 516.92 42.3401C516.86 42.1301 516.32 42.3401 515.93 42.4801Z" fill="#3A395B"/>
<path d="M529.14 49.5101C528.83 49.6201 528.51 49.7901 528.2 49.9301C524.86 51.4501 521.73 53.3701 518.51 55.1401C517.86 55.5001 517.14 56.0001 517.31 56.2701C517.48 56.5301 518.24 56.3401 519 55.9301C519.27 55.7901 519.53 55.6401 519.79 55.4901C521.47 54.4101 523.27 53.4901 525.38 52.2501C526.41 51.7001 527.83 50.9401 529.24 50.1801C529.68 49.9401 530.2 49.6201 530.13 49.3701C530.07 49.1601 529.53 49.3701 529.14 49.5101Z" fill="#3A395B"/>
<path d="M529.14 67.44C528.83 67.55 528.51 67.72 528.2 67.86C524.86 69.38 521.73 71.3 518.51 73.07C517.86 73.43 517.14 73.93 517.31 74.2C517.48 74.46 518.24 74.27 519 73.86C519.27 73.72 519.53 73.57 519.79 73.42C521.47 72.34 523.27 71.42 525.38 70.18C526.41 69.63 527.83 68.87 529.24 68.11C529.68 67.87 530.2 67.55 530.13 67.3C530.07 67.09 529.53 67.3 529.14 67.44Z" fill="#3A395B"/>
<path d="M516.57 55.6901C516.3 55.4901 515.97 55.3201 515.66 55.1301C512.42 53.1801 508.97 51.6301 505.6 49.9301C504.92 49.5901 504.07 49.2601 503.95 49.5601C503.83 49.8501 504.44 50.3801 505.23 50.7901C505.5 50.9401 505.78 51.0801 506.06 51.2001C507.95 52.0001 509.78 53.0001 512.07 54.0701C513.14 54.6201 514.6 55.3901 516.07 56.1401C516.53 56.3801 517.1 56.6301 517.27 56.4301C517.41 56.2601 516.91 55.9301 516.57 55.6801V55.6901Z" fill="#3A395B"/>
<path d="M516.57 73.4401C516.3 73.2401 515.97 73.0701 515.66 72.8801C512.42 70.9301 508.97 69.3801 505.6 67.6801C504.92 67.3401 504.07 67.0101 503.95 67.3101C503.83 67.6001 504.44 68.1301 505.23 68.5401C505.5 68.6901 505.78 68.8301 506.06 68.9501C507.95 69.7501 509.78 70.7501 512.07 71.8201C513.14 72.3701 514.6 73.1401 516.07 73.8901C516.53 74.1301 517.1 74.3801 517.27 74.1801C517.41 74.0101 516.91 73.6801 516.57 73.4301V73.4401Z" fill="#3A395B"/>
<path d="M529.79 48.57C529.52 48.37 529.19 48.2 528.88 48.01C525.64 46.06 522.19 44.51 518.82 42.81C518.14 42.47 517.29 42.14 517.17 42.44C517.05 42.73 517.66 43.26 518.45 43.67C518.72 43.82 519 43.96 519.28 44.08C521.17 44.88 523 45.88 525.29 46.95C526.36 47.5 527.82 48.27 529.29 49.02C529.75 49.26 530.32 49.51 530.49 49.31C530.63 49.14 530.13 48.81 529.79 48.56V48.57Z" fill="#3A395B"/>
<path d="M515.04 72.0801C514.92 72.0801 514.81 72.0901 514.7 72.1101C514.54 72.0701 514.37 72.0601 514.19 72.0801C514.04 71.7401 513.74 71.4501 513.25 71.3401C512.01 71.0601 510.79 70.7301 509.6 70.3001C509.14 70.1301 508.56 69.9501 508 69.7201C507.3 69.2601 506.67 68.6901 506.04 68.1201C505.86 67.9501 505.62 67.8401 505.38 67.7901C505.07 67.4101 504.57 67.2001 503.94 67.4101C503.28 67.6401 502.66 67.9701 502.06 68.3401C501.71 68.1001 501.27 68.0001 500.86 68.1401C500.24 68.3401 499.71 68.6601 499.22 69.0301C499.12 69.1001 499.02 69.1701 498.93 69.2501C498.3 69.7301 497.68 70.2401 496.95 70.6001C496.57 70.7801 496.35 71.1501 496.27 71.5501C495.31 71.9401 494.33 72.2901 493.33 72.6001C493.32 72.6001 493.3 72.6001 493.29 72.5901C491.44 72.1401 490.65 74.9901 492.5 75.4401C494.47 75.9201 496.42 76.4701 498.35 77.0801C499.71 77.9301 501.06 78.7901 502.43 79.6101C503.87 80.4701 504.64 80.4201 506.07 79.5101C508.83 77.7601 511.44 75.7301 514.69 75.0001C514.81 75.0301 514.93 75.0501 515.07 75.0501C516.97 75.0501 516.98 72.0901 515.07 72.0901L515.04 72.0801Z" fill="white"/>
<path d="M504.51 81.7301C504.32 80.6601 504.28 80.5601 503.51 80.9501C503.48 80.9301 503.45 80.9101 503.41 80.9001C503.26 80.8401 503.11 80.7801 502.96 80.7201C502.84 80.5301 502.67 80.3501 502.43 80.2101C499.82 78.7201 497.18 77.3001 494.49 75.9601C494.05 75.7401 493.63 75.7501 493.27 75.9001C493.21 75.8601 493.15 75.8301 493.09 75.8001C493.06 75.7801 493.03 75.7701 493 75.7601C492.8 74.0101 490 74.0401 490.06 75.9001C490.21 80.8701 490.36 85.8401 490.5 90.8101C490.53 91.6801 491.16 92.1501 491.83 92.2201C495.27 93.7701 499.7 94.9801 502.21 97.9001C503 98.8201 504.06 98.1801 504.41 97.2301C505.28 94.9001 504.62 92.0301 504.74 89.5801C504.87 87.0101 504.95 84.2901 504.5 81.7501L504.51 81.7301Z" fill="#F7AEBC"/>
<path d="M516.31 74.42C514.58 74.83 513.04 75.61 511.55 76.57C510.01 77.57 508.44 79.02 506.66 79.54C506.18 79.68 505.88 79.99 505.73 80.35C505.01 80.37 504.32 80.84 504.35 81.77C504.44 84.35 504.53 86.94 504.62 89.52C504.66 90.61 504.69 91.7 504.73 92.79C504.75 93.4 504.77 94.02 504.79 94.63C504.8 95.02 504.52 96.1 504.96 95.58C504.19 96.49 504.55 97.61 505.61 98.05C505.63 98.05 505.65 98.07 505.67 98.08C506.42 98.39 507.2 97.76 507.46 97.11C507.8 97.11 508.16 97 508.48 96.7C509.61 95.64 510.8 94.68 512.11 93.87C512.37 93.71 512.66 93.52 512.98 93.32C513.81 92.99 514.64 92.69 515.5 92.43C516.32 92.18 517.08 92.08 517.53 91.28C517.83 90.76 517.78 90.01 517.36 89.56C517.4 89.41 517.42 89.23 517.4 89.05C517.31 88.31 517.29 87.63 517.31 86.88C517.32 86.6 517.26 86.37 517.16 86.17C517.16 85.12 517.21 84.08 517.28 83.04C517.42 80.91 517.7 78.81 518.09 76.72C518.12 76.56 518.12 76.41 518.1 76.27C518.29 75.33 517.53 74.15 516.29 74.44L516.31 74.42Z" fill="#88C1D7"/>
<path d="M491.25 91.65C491.3 91.23 491.3 90.76 491.31 90.31C491.5 85.55 491.25 80.8 491.16 76.04C491.14 75.08 491.03 73.94 490.71 73.98C490.4 74.01 490.22 75 490.23 76.12C490.23 76.51 490.23 76.9 490.26 77.29C490.45 79.87 490.43 82.5 490.56 85.67C490.57 87.19 490.59 89.27 490.62 91.35C490.62 92 490.68 92.79 490.93 92.86C491.15 92.92 491.2 92.17 491.26 91.65H491.25Z" fill="#3A395B"/>
<path d="M504.85 97.6C504.9 97.18 504.9 96.71 504.91 96.26C505.1 91.5 504.85 86.75 504.76 81.99C504.74 81.03 504.63 79.89 504.31 79.93C504 79.96 503.82 80.95 503.83 82.07C503.83 82.46 503.83 82.85 503.86 83.24C504.05 85.82 504.03 88.45 504.16 91.62C504.17 93.14 504.19 95.22 504.22 97.3C504.22 97.95 504.28 98.74 504.53 98.81C504.75 98.87 504.8 98.12 504.86 97.6H504.85Z" fill="#3A395B"/>
<path d="M518.06 91.37C518.11 90.95 518.11 90.48 518.12 90.03C518.31 85.27 518.06 80.52 517.97 75.76C517.95 74.8 517.84 73.66 517.52 73.7C517.21 73.73 517.03 74.72 517.04 75.84C517.04 76.23 517.04 76.62 517.07 77.01C517.26 79.59 517.24 82.22 517.37 85.39C517.38 86.91 517.4 88.99 517.43 91.07C517.43 91.72 517.49 92.51 517.74 92.58C517.96 92.64 518.01 91.89 518.07 91.37H518.06Z" fill="#3A395B"/>
<path d="M502.9 67.02C502.59 67.13 502.27 67.3 501.96 67.44C498.62 68.96 495.49 70.88 492.27 72.65C491.62 73.01 490.9 73.51 491.07 73.78C491.24 74.04 492 73.85 492.76 73.44C493.03 73.3 493.29 73.15 493.55 73C495.23 71.92 497.03 71 499.14 69.76C500.17 69.21 501.59 68.45 503 67.69C503.44 67.45 503.96 67.13 503.89 66.88C503.83 66.67 503.29 66.88 502.9 67.02Z" fill="#3A395B"/>
<path d="M516.12 74.05C515.81 74.16 515.49 74.33 515.18 74.47C511.84 75.99 508.71 77.91 505.49 79.68C504.84 80.04 504.12 80.54 504.29 80.81C504.46 81.07 505.22 80.88 505.98 80.47C506.25 80.33 506.51 80.18 506.77 80.03C508.45 78.95 510.25 78.03 512.36 76.79C513.39 76.24 514.81 75.48 516.22 74.72C516.66 74.48 517.18 74.16 517.11 73.91C517.05 73.7 516.51 73.91 516.12 74.05Z" fill="#3A395B"/>
<path d="M516.12 91.9901C515.81 92.1001 515.49 92.2701 515.18 92.4101C511.84 93.9301 508.71 95.8501 505.49 97.6201C504.84 97.9801 504.12 98.4801 504.29 98.7501C504.46 99.0101 505.22 98.8201 505.98 98.4101C506.25 98.2701 506.51 98.1201 506.77 97.9701C508.45 96.8901 510.25 95.9701 512.36 94.7301C513.39 94.1801 514.81 93.4201 516.22 92.6601C516.66 92.4201 517.18 92.1001 517.11 91.8501C517.05 91.6401 516.51 91.8501 516.12 91.9901Z" fill="#3A395B"/>
<path d="M503.55 80.24C503.28 80.04 502.95 79.87 502.64 79.68C499.4 77.73 495.95 76.18 492.58 74.48C491.9 74.14 491.05 73.81 490.93 74.11C490.81 74.4 491.42 74.93 492.21 75.34C492.48 75.49 492.76 75.63 493.04 75.75C494.93 76.55 496.76 77.55 499.05 78.62C500.12 79.17 501.58 79.94 503.05 80.69C503.51 80.93 504.08 81.18 504.25 80.98C504.39 80.81 503.89 80.48 503.55 80.23V80.24Z" fill="#3A395B"/>
<path d="M503.55 97.9801C503.28 97.7801 502.95 97.6101 502.64 97.4201C499.4 95.4701 495.95 93.9201 492.58 92.2201C491.9 91.8801 491.05 91.5501 490.93 91.8501C490.81 92.1401 491.42 92.6701 492.21 93.0801C492.48 93.2301 492.76 93.3701 493.04 93.4901C494.93 94.2901 496.76 95.2901 499.05 96.3601C500.12 96.9101 501.58 97.6801 503.05 98.4301C503.51 98.6701 504.08 98.9201 504.25 98.7201C504.39 98.5501 503.89 98.2201 503.55 97.9701V97.9801Z" fill="#3A395B"/>
<path d="M516.76 73.11C516.49 72.91 516.16 72.74 515.85 72.55C512.61 70.6 509.16 69.05 505.79 67.35C505.11 67.01 504.26 66.68 504.14 66.98C504.02 67.27 504.63 67.8 505.42 68.21C505.69 68.36 505.97 68.5 506.25 68.62C508.14 69.42 509.97 70.42 512.26 71.49C513.33 72.04 514.79 72.81 516.26 73.56C516.72 73.8 517.29 74.05 517.46 73.85C517.6 73.68 517.1 73.35 516.76 73.1V73.11Z" fill="#3A395B"/>
<path d="M541.84 72.0801C541.72 72.0801 541.61 72.0901 541.5 72.1101C541.34 72.0701 541.17 72.0601 540.99 72.0801C540.84 71.7401 540.54 71.4501 540.05 71.3401C538.81 71.0601 537.59 70.7301 536.4 70.3001C535.94 70.1301 535.36 69.9501 534.8 69.7201C534.1 69.2601 533.47 68.6901 532.84 68.1201C532.66 67.9501 532.42 67.8401 532.18 67.7901C531.87 67.4101 531.37 67.2001 530.74 67.4101C530.08 67.6401 529.46 67.9701 528.86 68.3401C528.51 68.1001 528.07 68.0001 527.66 68.1401C527.04 68.3401 526.51 68.6601 526.02 69.0301C525.92 69.1001 525.82 69.1701 525.73 69.2501C525.1 69.7301 524.48 70.2401 523.75 70.6001C523.37 70.7801 523.15 71.1501 523.07 71.5501C522.11 71.9401 521.13 72.2901 520.13 72.6001C520.12 72.6001 520.1 72.6001 520.09 72.5901C518.24 72.1401 517.45 74.9901 519.3 75.4401C521.27 75.9201 523.22 76.4701 525.15 77.0801C526.51 77.9301 527.86 78.7901 529.23 79.6101C530.67 80.4701 531.44 80.4201 532.87 79.5101C535.63 77.7601 538.24 75.7301 541.49 75.0001C541.61 75.0301 541.73 75.0501 541.87 75.0501C543.77 75.0501 543.78 72.0901 541.87 72.0901L541.84 72.0801Z" fill="white"/>
<path d="M531.32 81.7301C531.13 80.6601 531.09 80.5601 530.32 80.9501C530.29 80.9301 530.26 80.9101 530.22 80.9001C530.07 80.8401 529.92 80.7801 529.77 80.7201C529.65 80.5301 529.48 80.3501 529.24 80.2101C526.63 78.7201 523.99 77.3001 521.3 75.9601C520.86 75.7401 520.44 75.7501 520.08 75.9001C520.02 75.8601 519.96 75.8301 519.9 75.8001C519.87 75.7801 519.84 75.7701 519.81 75.7601C519.61 74.0101 516.81 74.0401 516.87 75.9001C517.02 80.8701 517.17 85.8401 517.31 90.8101C517.34 91.6801 517.97 92.1501 518.64 92.2201C522.08 93.7701 526.51 94.9801 529.02 97.9001C529.81 98.8201 530.87 98.1801 531.22 97.2301C532.09 94.9001 531.43 92.0301 531.55 89.5801C531.68 87.0101 531.76 84.2901 531.31 81.7501L531.32 81.7301Z" fill="#F7AEBC"/>
<path d="M543.11 74.42C541.38 74.83 539.84 75.61 538.35 76.57C536.81 77.57 535.24 79.02 533.46 79.54C532.98 79.68 532.68 79.99 532.53 80.35C531.81 80.37 531.12 80.84 531.15 81.77C531.24 84.35 531.33 86.94 531.42 89.52C531.46 90.61 531.49 91.7 531.53 92.79C531.55 93.4 531.57 94.02 531.59 94.63C531.6 95.02 531.32 96.1 531.76 95.58C530.99 96.49 531.35 97.61 532.41 98.05C532.43 98.05 532.45 98.07 532.47 98.08C533.22 98.39 534 97.76 534.26 97.11C534.6 97.11 534.96 97 535.28 96.7C536.41 95.64 537.6 94.68 538.91 93.87C539.17 93.71 539.46 93.52 539.78 93.32C540.61 92.99 541.44 92.69 542.3 92.43C543.12 92.18 543.88 92.08 544.33 91.28C544.63 90.76 544.58 90.01 544.16 89.56C544.2 89.41 544.22 89.23 544.2 89.05C544.11 88.31 544.09 87.63 544.11 86.88C544.12 86.6 544.06 86.37 543.96 86.17C543.96 85.12 544.01 84.08 544.08 83.04C544.22 80.91 544.5 78.81 544.89 76.72C544.92 76.56 544.92 76.41 544.9 76.27C545.09 75.33 544.33 74.15 543.09 74.44L543.11 74.42Z" fill="#88C1D7"/>
<path d="M518.06 91.65C518.11 91.23 518.11 90.76 518.12 90.31C518.31 85.55 518.06 80.8 517.97 76.04C517.95 75.08 517.84 73.94 517.52 73.98C517.21 74.01 517.03 75 517.04 76.12C517.04 76.51 517.04 76.9 517.07 77.29C517.26 79.87 517.24 82.5 517.37 85.67C517.38 87.19 517.4 89.27 517.43 91.35C517.43 92 517.49 92.79 517.74 92.86C517.96 92.92 518.01 92.17 518.07 91.65H518.06Z" fill="#3A395B"/>
<path d="M531.66 97.6C531.71 97.18 531.71 96.71 531.72 96.26C531.91 91.5 531.66 86.75 531.57 81.99C531.55 81.03 531.44 79.89 531.12 79.93C530.81 79.96 530.63 80.95 530.64 82.07C530.64 82.46 530.64 82.85 530.67 83.24C530.86 85.82 530.84 88.45 530.97 91.62C530.98 93.14 531 95.22 531.03 97.3C531.03 97.95 531.09 98.74 531.34 98.81C531.56 98.87 531.61 98.12 531.67 97.6H531.66Z" fill="#3A395B"/>
<path d="M544.87 91.37C544.92 90.95 544.92 90.48 544.93 90.03C545.12 85.27 544.87 80.52 544.78 75.76C544.76 74.8 544.65 73.66 544.33 73.7C544.02 73.73 543.84 74.72 543.85 75.84C543.85 76.23 543.85 76.62 543.88 77.01C544.07 79.59 544.05 82.22 544.18 85.39C544.19 86.91 544.21 88.99 544.24 91.07C544.24 91.72 544.3 92.51 544.55 92.58C544.77 92.64 544.82 91.89 544.88 91.37H544.87Z" fill="#3A395B"/>
<path d="M529.71 67.02C529.4 67.13 529.08 67.3 528.77 67.44C525.43 68.96 522.3 70.88 519.08 72.65C518.43 73.01 517.71 73.51 517.88 73.78C518.05 74.04 518.81 73.85 519.57 73.44C519.84 73.3 520.1 73.15 520.36 73C522.04 71.92 523.84 71 525.95 69.76C526.98 69.21 528.4 68.45 529.81 67.69C530.25 67.45 530.76 67.13 530.7 66.88C530.64 66.67 530.1 66.88 529.71 67.02Z" fill="#3A395B"/>
<path d="M542.92 74.05C542.61 74.16 542.29 74.33 541.98 74.47C538.64 75.99 535.51 77.91 532.29 79.68C531.64 80.04 530.92 80.54 531.09 80.81C531.26 81.07 532.02 80.88 532.78 80.47C533.05 80.33 533.31 80.18 533.57 80.03C535.25 78.95 537.05 78.03 539.16 76.79C540.19 76.24 541.61 75.48 543.02 74.72C543.46 74.48 543.98 74.16 543.91 73.91C543.85 73.7 543.31 73.91 542.92 74.05Z" fill="#3A395B"/>
<path d="M542.92 91.9901C542.61 92.1001 542.29 92.2701 541.98 92.4101C538.64 93.9301 535.51 95.8501 532.29 97.6201C531.64 97.9801 530.92 98.4801 531.09 98.7501C531.26 99.0101 532.02 98.8201 532.78 98.4101C533.05 98.2701 533.31 98.1201 533.57 97.9701C535.25 96.8901 537.05 95.9701 539.16 94.7301C540.19 94.1801 541.61 93.4201 543.02 92.6601C543.46 92.4201 543.98 92.1001 543.91 91.8501C543.85 91.6401 543.31 91.8501 542.92 91.9901Z" fill="#3A395B"/>
<path d="M530.36 80.24C530.09 80.04 529.76 79.87 529.45 79.68C526.21 77.73 522.76 76.18 519.39 74.48C518.71 74.14 517.86 73.81 517.74 74.11C517.62 74.4 518.23 74.93 519.02 75.34C519.29 75.49 519.57 75.63 519.85 75.75C521.74 76.55 523.57 77.55 525.86 78.62C526.93 79.17 528.39 79.94 529.86 80.69C530.32 80.93 530.89 81.18 531.06 80.98C531.2 80.81 530.7 80.48 530.36 80.23V80.24Z" fill="#3A395B"/>
<path d="M530.36 97.9801C530.09 97.7801 529.76 97.6101 529.45 97.4201C526.21 95.4701 522.76 93.9201 519.39 92.2201C518.71 91.8801 517.86 91.5501 517.74 91.8501C517.62 92.1401 518.23 92.6701 519.02 93.0801C519.29 93.2301 519.57 93.3701 519.85 93.4901C521.74 94.2901 523.57 95.2901 525.86 96.3601C526.93 96.9101 528.39 97.6801 529.86 98.4301C530.32 98.6701 530.89 98.9201 531.06 98.7201C531.2 98.5501 530.7 98.2201 530.36 97.9701V97.9801Z" fill="#3A395B"/>
<path d="M543.57 73.11C543.3 72.91 542.97 72.74 542.66 72.55C539.42 70.6 535.97 69.05 532.6 67.35C531.92 67.01 531.07 66.68 530.95 66.98C530.83 67.27 531.44 67.8 532.23 68.21C532.5 68.36 532.78 68.5 533.06 68.62C534.95 69.42 536.78 70.42 539.07 71.49C540.14 72.04 541.6 72.81 543.07 73.56C543.53 73.8 544.1 74.05 544.27 73.85C544.41 73.68 543.91 73.35 543.57 73.1V73.11Z" fill="#3A395B"/>
<g opacity="0.71" filter="url(#filter1_d_125_1645)">
<path d="M749.4 311H413.3C405.955 311 400 316.955 400 324.3V429.56C400 436.905 405.955 442.86 413.3 442.86H749.4C756.745 442.86 762.7 436.905 762.7 429.56V324.3C762.7 316.955 756.745 311 749.4 311Z" fill="white"/>
<path d="M749.4 311H413.3C405.955 311 400 316.955 400 324.3V429.56C400 436.905 405.955 442.86 413.3 442.86H749.4C756.745 442.86 762.7 436.905 762.7 429.56V324.3C762.7 316.955 756.745 311 749.4 311Z" stroke="#535AE8" stroke-width="0.5" stroke-miterlimit="10"/>
</g>
<path d="M570.212 375.624C570.212 370.608 573.884 367.056 578.564 367.056C582.188 367.056 585.068 368.88 586.316 372.12H583.7C582.788 370.104 581.012 368.976 578.564 368.976C575.06 368.976 572.444 371.52 572.444 375.624C572.444 379.704 575.06 382.248 578.564 382.248C581.012 382.248 582.788 381.12 583.7 379.128H586.316C585.068 382.344 582.188 384.144 578.564 384.144C573.884 384.144 570.212 380.64 570.212 375.624ZM595.159 372.48C593.023 372.48 591.247 373.896 591.007 376.464H599.311C599.335 373.896 597.415 372.48 595.159 372.48ZM601.303 379.944C600.631 382.344 598.519 384.216 595.255 384.216C591.511 384.216 588.751 381.576 588.751 377.4C588.751 373.248 591.415 370.632 595.255 370.632C599.071 370.632 601.567 373.32 601.567 376.92C601.567 377.4 601.543 377.784 601.495 378.24H590.983C591.151 380.904 593.023 382.368 595.255 382.368C597.223 382.368 598.471 381.36 598.951 379.944H601.303ZM606.634 376.848V384H604.45V370.848H606.634V372.984C607.378 371.52 608.794 370.608 610.882 370.608V372.864H610.306C608.218 372.864 606.634 373.8 606.634 376.848ZM613.883 380.4V372.648H612.179V370.848H613.883V367.536H616.067V370.848H619.499V372.648H616.067V380.4C616.067 381.696 616.547 382.152 617.891 382.152H619.499V384H617.531C615.203 384 613.883 383.04 613.883 380.4ZM622.145 384V370.848H624.329V384H622.145ZM623.273 368.712C622.433 368.712 621.785 368.064 621.785 367.224C621.785 366.384 622.433 365.736 623.273 365.736C624.065 365.736 624.713 366.384 624.713 367.224C624.713 368.064 624.065 368.712 623.273 368.712ZM628.459 384V372.648H626.755V370.848H628.459V369.912C628.459 366.984 629.899 365.664 633.259 365.664V367.488C631.291 367.488 630.643 368.208 630.643 369.912V370.848H633.403V372.648H630.643V384H628.459ZM635.95 384V370.848H638.134V384H635.95ZM637.078 368.712C636.238 368.712 635.59 368.064 635.59 367.224C635.59 366.384 636.238 365.736 637.078 365.736C637.87 365.736 638.518 366.384 638.518 367.224C638.518 368.064 637.87 368.712 637.078 368.712ZM641.04 377.4C641.04 373.272 643.704 370.632 647.448 370.632C650.712 370.632 652.848 372.312 653.52 375.072H651.168C650.712 373.488 649.392 372.48 647.448 372.48C645.048 372.48 643.272 374.184 643.272 377.4C643.272 380.664 645.048 382.368 647.448 382.368C649.392 382.368 650.688 381.432 651.168 379.776H653.52C652.848 382.392 650.712 384.216 647.448 384.216C643.704 384.216 641.04 381.576 641.04 377.4ZM655.618 377.376C655.618 373.272 658.33 370.632 661.858 370.632C664.306 370.632 665.986 371.88 666.754 373.248V370.848H668.962V384H666.754V381.552C665.962 382.968 664.258 384.216 661.834 384.216C658.33 384.216 655.618 381.456 655.618 377.376ZM666.754 377.4C666.754 374.352 664.69 372.528 662.29 372.528C659.89 372.528 657.85 374.28 657.85 377.376C657.85 380.472 659.89 382.296 662.29 382.296C664.69 382.296 666.754 380.496 666.754 377.4ZM673.133 380.4V372.648H671.429V370.848H673.133V367.536H675.317V370.848H678.749V372.648H675.317V380.4C675.317 381.696 675.797 382.152 677.141 382.152H678.749V384H676.781C674.453 384 673.133 383.04 673.133 380.4ZM686.987 372.48C684.851 372.48 683.075 373.896 682.835 376.464H691.139C691.163 373.896 689.243 372.48 686.987 372.48ZM693.131 379.944C692.459 382.344 690.347 384.216 687.083 384.216C683.339 384.216 680.579 381.576 680.579 377.4C680.579 373.248 683.243 370.632 687.083 370.632C690.899 370.632 693.395 373.32 693.395 376.92C693.395 377.4 693.371 377.784 693.323 378.24H682.811C682.979 380.904 684.851 382.368 687.083 382.368C689.051 382.368 690.299 381.36 690.779 379.944H693.131ZM705.902 384V376.56C705.902 373.872 704.438 372.504 702.23 372.504C699.998 372.504 698.462 373.896 698.462 376.728V384H696.278V370.848H698.462V372.72C699.326 371.352 700.91 370.608 702.686 370.608C705.734 370.608 708.062 372.48 708.062 376.248V384H705.902Z" fill="#767E9F"/>
<path d="M498.5 330C524.18 330 545 350.82 545 376.5C545 402.18 524.18 423 498.5 423C472.82 423 452 402.18 452 376.5C452 350.82 472.82 330 498.5 330Z" fill="#F0F8FF"/>
<path d="M529.19 376.67C529.3 374.35 529.45 372.02 529.63 369.7C529.82 367.29 530.18 364.86 530.15 362.44C530.15 361.65 529.85 360.87 529.37 360.24C529.67 359.72 529.84 359.13 529.81 358.5C529.72 356.56 528.22 354.86 526.19 354.88C511.84 355.04 497.48 355.02 483.13 354.8C479.05 354.74 474.97 354.66 470.89 354.57C469 354.53 467.19 356.26 467.27 358.19C467.3 358.78 467.45 359.33 467.7 359.82C467.62 360.11 467.58 360.42 467.6 360.74C467.6 360.93 467.63 361.11 467.67 361.29C467.66 361.43 467.66 361.58 467.67 361.73C467.76 363 467.79 364.28 467.71 365.55C467.68 366.11 467.63 366.67 467.56 367.22C467.56 367.2 467.47 367.73 467.46 367.79C467.4 368.12 467.34 368.46 467.28 368.79C467.04 370.22 466.78 371.7 466.87 373.16C466.92 373.9 467.04 374.64 467.14 375.37C467.15 375.48 467.16 375.55 467.17 375.59C467.17 375.61 467.17 375.64 467.17 375.68C467.19 376.02 467.23 376.37 467.25 376.71C467.52 382.01 467.28 387.38 467.27 392.68C467.27 394.57 468.94 396.38 470.89 396.3C471.57 396.27 472.2 396.07 472.75 395.74C472.77 395.74 472.79 395.74 472.81 395.73C472.82 395.73 472.94 395.7 473.04 395.67C473.13 395.66 473.23 395.64 473.25 395.64C473.67 395.62 474.08 395.62 474.5 395.64C475.41 395.65 476.32 395.68 477.22 395.7C479.13 395.74 481.04 395.78 482.95 395.82C486.63 395.9 490.3 395.97 493.98 396.05L516.25 396.52C518.37 396.56 520.49 396.62 522.61 396.65C524.9 396.68 527.01 396.26 528.75 394.66C530.08 393.44 530.14 391.09 528.95 389.75C528.92 385.39 529 381.03 529.21 376.68L529.19 376.67Z" fill="#E6E7E8"/>
<path d="M520.68 402.59C520.22 401.59 519.95 400.64 519.65 399.6C518.83 396.72 515.28 397.58 513.76 399.49C513.55 399.43 513.31 399.45 513.1 399.56C513.02 399.01 512.76 398.51 512.27 398.13C511.65 397.65 510.81 397.53 510.09 397.81C509.88 397.65 509.63 397.53 509.36 397.47C508.16 397.2 506.97 397.83 506.61 399.03C506.55 399.24 506.48 399.46 506.42 399.67C506.03 400.03 505.61 400.35 505.21 400.69C504.36 401.4 504.41 402.81 505.04 403.62C505.65 404.41 506.73 404.7 507.65 404.33C507.97 404.85 508.51 405.25 509.08 405.4C509.06 405.84 509.33 406.3 509.9 406.3C510.57 406.3 510.83 405.66 510.68 405.16C511.35 404.78 511.75 404.08 511.84 403.22C511.8 403.65 511.93 402.83 511.96 402.74C511.99 402.65 512.02 402.55 512.06 402.46C512.06 402.45 512.1 402.38 512.16 402.27C512.38 401.94 512.62 401.6 512.8 401.24C513.27 402.87 514.17 404.45 514.84 405.98C515.09 406.56 516.04 406.51 516.31 405.98C516.51 405.58 516.68 405.11 516.94 404.75C517.4 404.11 518 404.26 518.68 404.39C519.35 404.52 520.13 404.81 520.66 404.21C521.07 403.74 520.93 403.12 520.7 402.6L520.68 402.59Z" fill="#88C1D7"/>
<path d="M521.9 391.74C521.77 391.49 521.56 391.31 521.45 391.09C521.54 390.52 521.59 389.96 521.58 389.41C521.58 389.24 521.57 389.08 521.55 388.91C521.77 388.69 521.87 388.36 521.81 388.06C521.84 388.04 521.87 388.02 521.89 388C522.12 387.8 522.18 387.46 522.11 387.17C521.94 386.43 521.18 386.41 520.59 386.17C520.26 385.67 519.85 385.24 519.36 384.89C519.32 384.81 519.29 384.72 519.27 384.65C519.2 384.28 519.46 383.92 519.33 383.52C519.02 382.52 517.95 382.72 517.14 382.68C515.93 382.61 515.14 382.26 514.23 381.69C514.06 381.24 513.56 381.06 513.15 381.16C512.78 381.18 512.45 381.49 512.36 381.86C512.28 381.86 512.2 381.86 512.11 381.86C511.22 382.02 510.33 382.18 509.44 382.35C508.93 382.45 508.43 382.53 508.04 382.9C507.55 383.36 507.45 383.95 507.28 384.56C507.06 385.33 506.72 385.81 506.03 386.2C504.99 386.79 504.32 387.48 505.05 388.66C505.45 389.3 505.71 389.9 505.49 390.68C505.31 391.3 504.8 391.77 504.8 392.45C504.8 393.69 505.97 393.94 506.75 394.54C506.92 394.86 507.12 395.15 507.38 395.43C507.74 396.6 507.3 397.72 508.93 397.79C509.59 397.82 510.32 397.67 510.96 397.86C511.7 398.08 512.12 398.86 512.87 399.1C513.9 399.43 514.57 398.59 515.09 397.8C515.11 397.8 515.12 397.8 515.14 397.8C515.96 397.74 516.78 397.69 517.59 397.63C518.17 397.59 518.79 397.61 519.16 397.09C519.48 396.64 519.44 396.08 519.52 395.56V395.54C519.7 395.33 519.87 395.11 520.03 394.86C520.22 394.57 520.39 394.26 520.55 393.94C520.64 393.86 520.72 393.78 520.82 393.69C520.91 393.67 521 393.66 521.07 393.64C521.49 393.54 521.88 393.4 522.06 392.97C522.23 392.56 522.09 392.1 521.9 391.73V391.74Z" fill="#F7AEBC"/>
<path d="M517.79 389.84C517.77 389.31 517.66 388.81 517.47 388.36C517.16 387.33 516.49 386.41 515.55 385.87C514.33 385.16 512.79 385.28 511.6 385.98C511.36 386.06 511.12 386.15 510.89 386.27C509.56 386.94 508.66 388.35 508.66 389.85C508.66 391.29 509.46 392.28 510.38 393.27C510.65 393.55 510.97 393.77 511.32 393.93C511.67 394.21 512.07 394.43 512.54 394.56C514.07 394.98 515.53 394.3 516.65 393.28C517.62 392.39 517.83 391.1 517.79 389.85V389.84Z" fill="#88C1D7"/>
<path d="M492.5 395.84C488.47 395.82 483.9 395.8 479.58 395.77L470.94 395.74C470.22 395.76 469.58 395.67 469.01 395.31C468.45 394.97 468.03 394.43 467.84 393.81C467.74 393.5 467.71 393.17 467.71 392.84V391.76L467.72 389.6L467.78 372.32L467.8 363.68V359.36C467.82 358.65 467.78 357.9 467.85 357.25C467.94 356.6 468.18 355.99 468.66 355.63C469.62 354.87 471.19 355.17 472.62 355.11H476.94H485.59H520.18H524.5C525.92 355.15 527.48 354.89 528.35 355.8C529.24 356.67 528.96 358.23 529.01 359.66V363.98L528.99 381.28C528.99 383.6 528.99 386.02 528.99 388.36C528.99 389.53 529 390.67 529.01 391.77C529 392.88 529.14 393.93 528.68 394.65C528.25 395.39 527.4 395.66 526.66 395.7C525.88 395.73 525.18 395.75 524.6 395.77C523.45 395.82 522.81 395.87 522.87 395.94C522.92 396.01 523.56 396.06 524.66 396.12C525.21 396.14 525.87 396.17 526.64 396.19C527.4 396.19 528.44 395.98 529.09 395.1C529.41 394.68 529.57 394.14 529.63 393.6C529.68 393.04 529.66 392.54 529.68 391.99C529.69 390.89 529.71 389.73 529.72 388.52C529.73 386.09 529.75 383.47 529.76 380.77C529.76 376.98 529.76 373.19 529.76 369.42C529.76 366.29 529.74 363.15 529.73 360V357.62C529.7 356.79 529.47 355.86 528.78 355.22C528.09 354.58 527.17 354.4 526.34 354.39H523.94C517.55 354.39 511.05 354.39 504.38 354.4C497.71 354.4 490.85 354.4 483.75 354.4C480.2 354.4 476.58 354.4 472.89 354.4C471.96 354.4 471.06 354.38 470.08 354.42C469.59 354.46 469.08 354.57 468.61 354.82C468.14 355.07 467.73 355.46 467.5 355.94C467.01 356.9 467.1 357.95 467.09 358.87C467.09 359.82 467.09 360.78 467.09 361.74C467.08 369.08 467.06 377.8 467.04 387.2C467.04 388.38 467.04 389.56 467.04 390.76C467.04 391.36 467.04 391.96 467.04 392.56C467.02 393.15 467.08 393.89 467.39 394.48C467.96 395.73 469.39 396.47 470.71 396.4C471.94 396.4 473.17 396.4 474.41 396.4C479.37 396.4 484.41 396.4 489.46 396.4C495.8 396.4 503.38 396.37 504.17 396.16C504.78 395.98 497.55 395.93 492.49 395.87L492.5 395.84Z" fill="#3A395B"/>
<path d="M477.35 369.27C478.41 369.32 479.62 369.33 480.76 369.35C492.92 369.61 505.11 369.49 517.29 369.51C519.74 369.51 522.66 369.44 522.6 369.17C522.54 368.91 520.01 368.74 517.16 368.72C516.16 368.72 515.16 368.72 514.16 368.72C507.55 368.82 500.81 368.75 492.69 368.8C488.81 368.78 483.48 368.75 478.15 368.73C476.48 368.73 474.47 368.75 474.27 368.96C474.11 369.14 476.02 369.2 477.36 369.26L477.35 369.27Z" fill="#3A395B"/>
<path d="M477.47 374.22C478.52 374.27 479.73 374.28 480.86 374.3C492.95 374.56 505.07 374.44 517.18 374.46C519.61 374.46 522.52 374.39 522.46 374.12C522.4 373.86 519.89 373.69 517.05 373.67C516.06 373.67 515.06 373.67 514.07 373.67C507.49 373.77 500.8 373.7 492.72 373.75C488.86 373.73 483.57 373.7 478.27 373.68C476.61 373.68 474.62 373.7 474.41 373.91C474.25 374.09 476.15 374.15 477.48 374.21L477.47 374.22Z" fill="#3A395B"/>
<path d="M485.97 363.61C486.6 363.66 487.31 363.67 487.99 363.69C495.17 363.95 502.37 363.83 509.57 363.85C511.02 363.85 512.74 363.78 512.7 363.51C512.67 363.25 511.17 363.08 509.48 363.06C508.89 363.06 508.3 363.06 507.71 363.06C503.8 363.16 499.83 363.09 495.03 363.14C492.74 363.12 489.59 363.09 486.44 363.07C485.45 363.07 484.27 363.09 484.15 363.3C484.05 363.48 485.18 363.54 485.97 363.6V363.61Z" fill="#3A395B"/>
<path d="M509.27 397.48C508.94 397.54 508.62 397.59 508.34 397.48C508.07 397.38 507.91 397.11 507.85 396.79C507.79 396.48 507.81 396.08 507.72 395.69C507.63 395.31 507.47 394.93 507.23 394.62C506.91 394.2 506.47 393.9 506.01 393.68C505.55 393.48 505.13 393.31 504.96 393C504.79 392.73 504.94 392.31 505.18 391.93C505.4 391.58 505.76 391.09 505.85 390.55C506.1 389.39 505.31 388.43 505.01 387.68C504.94 387.47 504.94 387.4 505.01 387.32C505.09 387.21 505.28 387.08 505.47 386.97C505.85 386.74 506.32 386.53 506.74 386.21C507.16 385.9 507.54 385.45 507.73 384.92C507.94 384.41 507.88 383.77 507.96 383.46C508.05 383.09 508.29 382.83 508.62 382.76C508.97 382.66 509.3 382.84 509.87 382.98C510.4 383.1 511.03 383.03 511.53 382.75C512.02 382.49 512.4 382.06 512.71 381.75C513.03 381.42 513.4 381.15 513.56 381.23C513.81 381.29 514.19 381.66 514.5 381.99C514.85 382.36 515.29 382.72 515.83 382.91C516.36 383.1 516.94 383.11 517.46 383.01C517.94 382.92 518.43 382.81 518.72 382.87C518.84 382.91 518.87 382.93 518.94 383.1C519 383.26 519.03 383.48 519.05 383.7C519.09 384.16 519.13 384.72 519.37 385.23C519.6 385.76 520.05 386.19 520.53 386.43C521.03 386.69 521.47 386.79 521.76 387.03C521.9 387.15 521.96 387.24 521.97 387.36C521.97 387.49 521.93 387.68 521.85 387.87C521.77 388.07 521.66 388.26 521.54 388.47C521.41 388.7 521.29 388.95 521.21 389.21C521.04 389.73 521.03 390.32 521.16 390.85C521.3 391.4 521.57 391.82 521.74 392.24C521.83 392.44 521.91 392.66 521.92 392.79C521.92 392.9 521.91 392.94 521.74 393.08C521.43 393.32 520.98 393.53 520.55 393.78C520.11 394.04 519.64 394.4 519.38 394.93C519.09 395.44 519.1 396.06 519.04 396.46C518.98 396.91 518.84 397.26 518.59 397.33C518.37 397.42 517.99 397.4 517.62 397.34C517.25 397.3 516.88 397.17 516.41 397.15C516.18 397.15 515.9 397.17 515.64 397.32C515.36 397.52 515.33 397.61 515.18 397.72C514.92 397.94 514.64 398.14 514.38 398.34C514.12 398.53 513.86 398.74 513.67 398.92C513.54 399.04 513.38 399.09 513.24 399.08C512.95 399.06 512.81 398.89 512.76 398.96C512.72 398.99 512.77 399.27 513.19 399.42C513.39 399.49 513.69 399.48 513.96 399.31C514.18 399.16 514.4 399.02 514.68 398.86C514.95 398.7 515.25 398.52 515.56 398.29L515.79 398.11C515.87 398.04 515.96 397.96 515.98 397.95C516.06 397.9 516.18 397.88 516.34 397.89C516.66 397.91 517.07 398.05 517.54 398.12C517.98 398.17 518.5 398.29 519.1 397.96C519.52 397.7 519.67 397.26 519.76 396.93C519.84 396.59 519.87 396.23 519.9 395.95C519.96 395.41 520.22 394.98 520.68 394.65C521.04 394.38 521.54 394.17 522.01 393.85C522.23 393.69 522.56 393.5 522.67 393.04C522.74 392.6 522.59 392.32 522.49 392.06C522.28 391.54 521.99 391.09 521.89 390.66C521.77 390.21 521.81 389.74 521.98 389.3C522.13 388.88 522.51 388.43 522.67 387.81C522.76 387.51 522.74 387.06 522.5 386.75C522.27 386.46 521.98 386.31 521.72 386.18C521.15 385.94 520.73 385.8 520.39 385.46C520.06 385.14 519.91 384.67 519.84 384.16C519.81 383.91 519.8 383.62 519.75 383.31C519.69 383.02 519.64 382.64 519.26 382.35C518.88 382.1 518.51 382.14 518.21 382.17C517.91 382.2 517.6 382.27 517.34 382.32C516.82 382.42 516.3 382.38 515.85 382.15C515.38 381.93 515.05 381.51 514.58 381.07C514.34 380.87 514.09 380.62 513.65 380.54C513.18 380.47 512.82 380.73 512.58 380.93C512.06 381.36 511.72 381.86 511.26 382.13C510.81 382.41 510.28 382.44 509.72 382.26C509.46 382.17 509.04 382.05 508.67 382.1C508.28 382.14 507.89 382.33 507.63 382.64C507.39 382.94 507.26 383.31 507.23 383.68C507.21 384.06 507.21 384.3 507.12 384.59C506.98 385.16 506.54 385.61 505.97 385.95C505.69 386.12 505.35 386.28 505.02 386.49C504.85 386.6 504.68 386.71 504.51 386.9C504.33 387.08 504.22 387.45 504.29 387.7C504.55 388.61 505.07 389.13 505.19 389.82C505.25 390.15 505.23 390.48 505.11 390.79C505 391.11 504.76 391.39 504.54 391.8C504.35 392.18 504.11 392.7 504.36 393.28C504.64 393.82 505.11 394.02 505.51 394.19C506.24 394.47 506.84 394.93 507.07 395.62C507.13 395.79 507.17 395.97 507.2 396.16L507.26 396.79C507.3 397.03 507.36 397.28 507.51 397.53C507.65 397.77 507.91 397.99 508.19 398.08C508.54 398.2 508.88 398.16 509.19 398.1C509.46 398.04 509.69 397.99 509.94 397.98C510.43 397.94 510.88 398.02 511.26 398.17C512.01 398.5 512.44 399.06 512.6 399.09C512.72 399.13 512.5 398.6 511.88 398.09C511.57 397.84 511.14 397.62 510.67 397.54C510.2 397.45 509.71 397.48 509.28 397.55L509.27 397.48Z" fill="#3A395B"/>
<path d="M475.81 379.16C476.34 379.21 476.95 379.22 477.53 379.24C483.65 379.5 489.78 379.38 495.9 379.4C497.13 379.4 498.6 379.33 498.57 379.06C498.54 378.8 497.27 378.63 495.83 378.61C495.33 378.61 494.82 378.61 494.32 378.61C490.99 378.71 487.61 378.64 483.52 378.69C481.57 378.67 478.89 378.64 476.21 378.62C475.37 378.62 474.36 378.64 474.26 378.85C474.18 379.03 475.14 379.09 475.81 379.15V379.16Z" fill="#3A395B"/>
<path d="M517.92 390.49C517.81 391.01 517.67 391.61 517.39 392.1C516.67 393.4 515.27 394.3 513.82 394.35C512.37 394.43 510.91 393.71 510.06 392.57C509.22 391.42 509.05 389.78 509.6 388.46C510.19 387.16 511.43 386.08 512.87 385.94C514.03 385.77 515.48 386.14 515.52 385.86C515.57 385.64 514.31 384.97 512.69 385.17C512.13 385.24 511.58 385.41 511.09 385.7C510.28 386.18 509.65 386.87 509.17 387.67C508.7 388.5 508.49 389.46 508.55 390.43C508.61 391.4 508.95 392.4 509.63 393.2C510.3 394 511.23 394.62 512.33 394.88C513.35 395.16 514.72 395.12 515.94 394.42C517.14 393.77 518.15 392.46 518.38 390.99C518.56 390.08 518.44 388.99 518.23 388.91C518.04 388.84 518.07 389.84 517.92 390.5V390.49Z" fill="#3A395B"/>
<path d="M486.84 385.06C487.51 385.19 488.26 385.4 488.71 385.94C489.33 386.63 489.63 387.6 489.54 388.5C489.49 389.38 488.8 390.12 488.03 390.6C487.64 390.84 487.21 391.01 486.79 391.06C486.38 391.09 485.93 391 485.54 390.81C484.74 390.43 484.1 389.69 483.85 388.85C483.71 388.44 483.73 388 483.7 387.45C483.66 386.95 483.63 386.28 483.05 385.79C482.77 385.57 482.44 385.48 482.15 385.46C481.85 385.43 481.54 385.44 481.22 385.57C480.55 385.83 480.25 386.52 480.16 387.04C480.11 387.31 480.08 387.58 480.07 387.85C480.07 388.08 480.02 388.24 479.94 388.35C479.86 388.45 479.75 388.51 479.57 388.53C479.36 388.55 479.24 388.52 479.17 388.45C479.13 388.41 479.09 388.35 479.06 388.27C479.02 388.19 479.01 388.1 478.94 387.92C478.81 387.6 478.56 387.34 478.31 387.18C478.18 387.1 478.08 387.04 477.82 386.93C477.58 386.93 477.33 387.04 477.2 387.13C476.9 387.34 476.74 387.61 476.61 387.83C476.4 388.2 476.22 388.46 476.01 388.51C475.82 388.53 475.98 388.58 475.82 388.48C475.73 388.4 475.64 388.28 475.57 388.14C475.42 387.87 475.26 387.56 475.06 387.41C474.87 387.25 474.72 387.24 474.7 387.3C474.67 387.36 474.74 387.47 474.8 387.63C474.87 387.79 474.92 388.03 475.02 388.36C475.08 388.52 475.15 388.72 475.31 388.91C475.38 389.01 475.48 389.09 475.65 389.2C475.72 389.27 475.83 389.22 475.93 389.24C476 389.24 476.07 389.24 476.14 389.22C476.43 389.18 476.72 388.98 476.9 388.77C477.08 388.56 477.2 388.34 477.32 388.15C477.4 388.02 477.48 387.91 477.56 387.84C477.64 387.77 477.73 387.73 477.7 387.74C477.65 387.71 477.81 387.79 477.91 387.86C478.01 387.93 478.09 388.01 478.15 388.09C478.21 388.18 478.22 388.2 478.27 388.37C478.32 388.53 478.39 388.69 478.51 388.85C478.76 389.2 479.26 389.31 479.57 389.26C479.9 389.25 480.32 389.08 480.54 388.74C480.76 388.42 480.79 388.02 480.79 387.77C480.82 387.25 480.91 386.71 481.19 386.41C481.43 386.12 482.01 386.09 482.42 386.25C482.8 386.39 482.92 386.89 482.95 387.47C482.98 388.02 482.96 388.74 483.25 389.36C483.76 390.6 484.96 391.65 486.47 391.73C487.21 391.77 487.95 391.46 488.6 391.02C489.24 390.56 489.88 389.94 490.12 388.99C490.31 388.09 490.15 387.14 489.7 386.3C489.47 385.88 489.17 385.5 488.78 385.19C488.39 384.87 487.87 384.7 487.44 384.61C486.88 384.47 486.18 384.43 485.65 384.61C485.12 384.78 484.82 385.1 484.83 385.22C484.84 385.33 485.11 385.18 485.5 385.07C485.89 384.95 486.41 384.94 486.83 385.03L486.84 385.06Z" fill="#3A395B"/>
<path d="M492.88 360.22C493.16 360.27 493.48 360.28 493.78 360.3C496.98 360.56 500.19 360.44 503.39 360.46C504.03 360.46 504.8 360.39 504.79 360.12C504.78 359.86 504.11 359.69 503.36 359.67C503.1 359.67 502.83 359.67 502.57 359.67C500.83 359.77 499.06 359.7 496.92 359.75C495.9 359.73 494.5 359.7 493.09 359.68C492.65 359.68 492.12 359.7 492.07 359.91C492.03 360.09 492.53 360.15 492.88 360.21V360.22Z" fill="#3A395B"/>
<path d="M513.43 402.76C513.57 403.29 513.67 403.66 513.78 404.1C513.85 404.41 513.92 404.71 513.99 405C514.04 405.29 514.14 405.66 514.32 405.96C514.5 406.26 514.76 406.58 515.19 406.72C515.61 406.86 516.09 406.72 516.39 406.45C517 405.94 517.16 405.22 517.46 404.81C517.75 404.37 518.13 404.29 518.67 404.44C518.93 404.51 519.2 404.63 519.48 404.76L519.71 404.86C519.81 404.9 519.92 404.93 520.03 404.94C520.25 404.97 520.49 404.94 520.69 404.85C521.1 404.68 521.41 404.28 521.47 403.83C521.5 403.61 521.47 403.37 521.39 403.17L521.21 402.73L519.77 399.28C519.39 398.35 518.86 397.27 518.62 397.4C518.39 397.52 518.62 398.55 519.06 399.63C519.21 400.01 519.37 400.39 519.53 400.76C519.81 401.4 520.09 402.01 520.36 402.63L520.56 403.11C520.63 403.27 520.71 403.45 520.72 403.54C520.77 403.75 520.66 404 520.47 404.13C520.25 404.26 520.08 404.27 519.75 404.1C519.41 403.95 519.04 403.78 518.61 403.7C518.19 403.61 517.63 403.65 517.23 403.98C516.83 404.3 516.65 404.73 516.47 405.11C516.31 405.46 516.1 405.81 515.82 406C515.54 406.18 515.23 406.13 514.97 405.8C514.7 405.48 514.62 405.03 514.48 404.48C514.34 403.96 514.19 403.43 514.01 402.9C513.9 402.57 513.76 402.21 513.59 401.93C513.44 401.65 513.2 401.45 513.08 401.49C512.97 401.56 513.29 402.23 513.4 402.77L513.43 402.76Z" fill="#3A395B"/>
<path d="M506.75 398.18C506.47 398.56 506.2 399.03 505.93 399.47C505.58 400.05 505.24 400.65 504.94 401.27C504.79 401.58 504.65 401.9 504.53 402.24C504.42 402.56 504.29 402.96 504.36 403.4C504.42 403.82 504.67 404.25 505.09 404.48C505.53 404.73 506.01 404.65 506.35 404.57C506.7 404.49 507.02 404.38 507.28 404.37C507.54 404.34 507.76 404.41 507.98 404.56C508.2 404.72 508.39 404.91 508.51 405.17C508.64 405.42 508.81 405.87 509.21 406.14C509.55 406.38 510.05 406.57 510.58 406.32C511.1 406.03 511.18 405.53 511.29 405.25L512.85 401.53C513.28 400.53 513.72 399.3 513.46 399.22C513.21 399.14 512.61 400.11 512.11 401.28C511.93 401.69 511.75 402.1 511.59 402.51C511.31 403.21 511.04 403.89 510.77 404.58C510.7 404.74 510.61 404.95 510.56 405.13C510.5 405.31 510.45 405.46 510.38 405.56C510.26 405.74 510.04 405.76 509.76 405.61C509.48 405.47 509.37 405.24 509.18 404.84C508.97 404.42 508.63 404.07 508.19 403.83C507.74 403.57 507.14 403.62 506.72 403.75C506.29 403.86 505.87 404.01 505.57 403.94C505.3 403.87 505.04 403.56 505.04 403.18C505.04 402.82 505.24 402.29 505.44 401.81C505.87 400.82 506.45 399.79 507.04 398.78C507.41 398.14 507.85 397.37 507.72 397.18C507.6 397.03 507.11 397.72 506.76 398.21L506.75 398.18Z" fill="#3A395B"/>
<g opacity="0.71" filter="url(#filter2_d_125_1645)">
<path d="M1131.4 158.71H795.3C787.955 158.71 782 164.665 782 172.01V277.27C782 284.615 787.955 290.57 795.3 290.57H1131.4C1138.75 290.57 1144.7 284.615 1144.7 277.27V172.01C1144.7 164.665 1138.75 158.71 1131.4 158.71Z" fill="white"/>
<path d="M1131.4 158.71H795.3C787.955 158.71 782 164.665 782 172.01V277.27C782 284.615 787.955 290.57 795.3 290.57H1131.4C1138.75 290.57 1144.7 284.615 1144.7 277.27V172.01C1144.7 164.665 1138.75 158.71 1131.4 158.71Z" stroke="#535AE8" stroke-width="0.5" stroke-miterlimit="10"/>
</g>
<path d="M1007.87 233V225.416H999.352V233H997.168V216.272H999.352V223.616H1007.87V216.272H1010.06V233H1007.87ZM1023.27 228.296C1023.27 226.448 1021.87 225.296 1019.74 225.296H1015.95V231.2H1019.81C1021.97 231.2 1023.27 230.12 1023.27 228.296ZM1022.83 220.784C1022.83 219.128 1021.71 218.072 1019.57 218.072H1015.95V223.496H1019.62C1021.66 223.496 1022.83 222.488 1022.83 220.784ZM1025.45 228.512C1025.45 231.032 1023.46 233 1020 233H1013.76V216.272H1019.76C1023.29 216.272 1025.07 218.192 1025.07 220.52C1025.07 222.632 1023.75 223.856 1022.14 224.384C1023.96 224.696 1025.45 226.448 1025.45 228.512ZM1044.46 224.624C1044.46 229.64 1040.79 233.168 1036.06 233.168C1031.36 233.168 1027.66 229.64 1027.66 224.624C1027.66 219.608 1031.36 216.08 1036.06 216.08C1040.79 216.08 1044.46 219.608 1044.46 224.624ZM1029.9 224.624C1029.9 228.704 1032.54 231.272 1036.06 231.272C1039.59 231.272 1042.23 228.704 1042.23 224.624C1042.23 220.52 1039.59 217.976 1036.06 217.976C1032.54 217.976 1029.9 220.52 1029.9 224.624Z" fill="#767E9F"/>
<path d="M925.5 178C951.18 178 972 198.82 972 224.5C972 250.18 951.18 271 925.5 271C899.82 271 879 250.18 879 224.5C879 198.82 899.82 178 925.5 178Z" fill="#F0F8FF"/>
<path d="M956.44 224.56C956.3 223.09 956.29 221.73 956.46 220.26C956.55 219.47 955.73 218.81 955.01 218.81C954.15 218.81 953.65 219.49 953.56 220.26C953.37 221.86 953.44 223.34 953.58 224.94C953.71 226.48 953.19 227.98 953.5 229.5C953.87 231.33 956.67 230.56 956.3 228.73C956.16 228.06 956.45 227.32 956.51 226.65C956.57 225.95 956.52 225.26 956.45 224.56H956.44Z" fill="#88C1D7"/>
<path d="M948.56 221.79C948.56 226.2 948.56 230.6 948.56 235.16C939.77 235.98 932.2 239.26 925.72 244.73C914.08 237.41 910.63 235.98 902.44 235.21C902.44 230.78 902.44 226.28 902.44 221.78" fill="#F7AEBC"/>
<path d="M902.29 226.75C902.27 228.49 902.24 230.39 902.21 232.22L902.19 234.05V235.02L902.18 235.4C902.15 235.49 902.26 235.46 902.31 235.47L902.5 235.49L903.06 235.55C904.27 235.68 905.47 235.86 906.66 236.06C909.04 236.5 911.34 237.22 913.54 238.22C915.75 239.2 917.86 240.4 919.95 241.64C920.99 242.26 922.03 242.89 923.07 243.53L924.62 244.5L925.51 245.05C925.77 245.38 926.02 244.94 926.22 244.83L926.57 244.54C930.31 241.47 934.58 239.06 939.16 237.51C941.45 236.73 943.81 236.18 946.2 235.82C946.8 235.72 947.4 235.65 948 235.59L948.64 235.52L948.86 235.5C948.86 235.5 948.95 235.5 948.96 235.47V233.94V230.28C948.96 226.36 948.89 221.67 948.63 221.78C948.37 221.87 948.21 225.93 948.19 230.5C948.19 231.94 948.19 233.37 948.19 234.8L947.39 234.9C947.06 234.94 946.73 234.98 946.4 235.04C945.74 235.14 945.08 235.25 944.42 235.38C943.1 235.63 941.79 235.97 940.48 236.34C937.87 237.13 935.28 238.15 932.78 239.52C931.52 240.18 930.3 240.95 929.08 241.77C928.48 242.19 927.87 242.61 927.29 243.07C926.99 243.29 926.69 243.52 926.41 243.76L925.72 244.32C924.5 243.57 923.26 242.8 922 242.02C920.66 241.22 919.29 240.4 917.85 239.62C915.14 238.11 911.76 236.42 907.8 235.61C906.82 235.41 905.81 235.23 904.78 235.11C904.27 235.04 903.75 234.98 903.23 234.93L902.84 234.89H902.81V234.39C902.81 232.29 902.82 230.16 902.83 228.02C902.83 225.34 902.81 222.13 902.61 221.8C902.43 221.54 902.37 224.6 902.31 226.74L902.29 226.75Z" fill="#3A395B"/>
<path d="M889.74 216.35C893.44 214.37 897.51 213.39 901.41 211.99C908.79 209.35 916.24 206.91 923.69 204.48C924.63 204.17 925.53 203.89 926.82 204.34C933.69 206.75 940.6 209.06 947.51 211.36C949.83 212.13 952.14 212.9 954.46 213.66C956.59 214.37 958.77 214.95 960.79 215.94C961.66 216.37 961.16 217.13 960.47 217.36C949.25 221.19 938.02 224.99 926.79 228.78C926.04 229.03 925.3 229.11 924.45 228.82C913.06 224.89 901.66 221.02 890.25 217.15C889.93 217.04 889.71 216.98 889.74 216.61" fill="#BBBDBF"/>
<path d="M898.63 220.16C901.8 221.27 905.37 222.51 908.76 223.7L922.31 228.41L924 229C924.54 229.21 925.24 229.39 925.89 229.31C926.56 229.25 927.13 229 927.69 228.82L929.39 228.25L936.19 225.97L949.79 221.39L956.59 219.09L959.99 217.94C960.28 217.83 960.52 217.79 960.89 217.6C961.2 217.41 961.54 217.15 961.63 216.62C961.66 216.36 961.55 216.07 961.39 215.91C961.24 215.74 961.05 215.64 960.9 215.57C960.62 215.44 960.35 215.31 960.07 215.19C957.82 214.24 955.5 213.65 953.25 212.86L946.44 210.59L932.84 205.98L929.44 204.83L927.74 204.25C927.19 204.08 926.6 203.81 925.93 203.75C925.27 203.68 924.6 203.8 924.01 203.98C923.42 204.16 922.87 204.36 922.3 204.55L918.9 205.7L905.28 210.29C903.46 210.91 901.56 211.56 899.72 212.19C897.89 212.81 896.11 213.38 894.58 213.95C891.51 215.06 889.56 216.26 889.72 216.32C889.86 216.4 891.68 215.49 894.66 214.53C896.17 214.06 897.93 213.51 899.83 212.91C901.75 212.27 903.82 211.58 905.95 210.88C908.93 209.88 911.91 208.87 914.87 207.87C917.33 207.03 919.79 206.19 922.27 205.34C923.52 204.97 924.75 204.32 925.92 204.48C926.5 204.55 927.11 204.82 927.75 205.02L929.63 205.66C934.66 207.36 939.77 209.09 945.02 210.87C947.65 211.75 950.31 212.64 953.02 213.54C954.37 214 955.75 214.43 957.13 214.87C957.82 215.09 958.5 215.33 959.17 215.59C959.5 215.72 959.84 215.86 960.17 216.01L960.66 216.24C960.79 216.3 960.89 216.39 960.92 216.45C960.99 216.54 960.87 216.8 960.61 216.95C960.4 217.08 959.97 217.19 959.64 217.31C958.94 217.55 958.23 217.79 957.52 218.03C956.1 218.51 954.66 219 953.21 219.49C950.31 220.48 947.35 221.48 944.33 222.51C941.44 223.48 938.28 224.55 934.92 225.68C933.24 226.25 931.51 226.83 929.73 227.43C928.84 227.73 927.95 228.03 927.04 228.34C926.15 228.69 925.3 228.79 924.43 228.44C917.04 225.91 909.12 223.19 901.19 220.48C898.7 219.64 895.97 218.72 893.76 217.98C892.66 217.62 891.69 217.31 890.96 217.1C890.62 217 890.33 216.92 890.07 216.85C889.93 216.81 889.92 216.72 889.89 216.65C889.87 216.59 889.84 216.63 889.83 216.73C889.81 216.84 889.9 217 890.18 217.09C890.7 217.3 891.48 217.59 892.4 217.93C894.27 218.6 896.66 219.46 898.63 220.17V220.16Z" fill="#3A395B"/>
<path d="M956.85 236.04C957.13 236.89 957.41 237.74 957.69 238.58C957.94 239.35 958.33 240.17 958.43 240.97C958.61 242.34 957.94 243.52 956.83 244.3C955.56 245.19 954.27 245.01 952.94 244.1C951.93 243.41 951.29 242.39 951.4 241.14C951.48 240.21 951.72 239.31 952 238.42C952.25 237.61 952.45 236.73 952.95 236.04" fill="#88C1D7"/>
<path d="M952.21 237.27C952.01 237.73 951.86 238.25 951.67 238.75C951.44 239.41 951.24 240.1 951.13 240.81C950.99 241.52 951.08 242.37 951.46 243.04C951.83 243.72 952.43 244.25 953.06 244.63C953.69 245.02 954.44 245.31 955.25 245.28C956.06 245.25 956.8 244.87 957.37 244.39C957.95 243.91 958.43 243.26 958.67 242.51C958.91 241.77 958.87 240.94 958.66 240.23C958.46 239.51 958.18 238.89 957.98 238.23C957.63 237.16 957.15 235.91 956.9 236.02C956.67 236.13 956.87 237.28 957.27 238.52C957.4 238.97 957.58 239.41 957.73 239.82C958.01 240.51 958.19 241.19 958.08 241.88C957.98 242.57 957.6 243.21 957.04 243.71C956.48 244.21 955.79 244.59 955.02 244.55C954.26 244.53 953.47 244.13 952.79 243.59C952.16 243.07 951.62 242.18 951.74 241.15C951.84 240.05 952.22 238.93 952.59 237.75C952.79 237.01 953.17 236.3 953.08 236.11C952.97 235.93 952.43 236.65 952.21 237.24V237.27Z" fill="#3A395B"/>
<path d="M956.3 229.16C956.37 228.93 956.4 228.67 956.45 228.42C956.93 225.76 956.83 223.02 956.59 220.33C956.54 219.79 956.39 219.15 956.13 219.2C955.88 219.25 955.78 219.81 955.83 220.44C955.84 220.66 955.86 220.88 955.89 221.09C956.1 222.52 956.09 224 956.08 225.78C956.04 226.63 955.94 227.79 955.81 228.95C955.77 229.31 955.74 229.75 955.94 229.82C956.11 229.88 956.22 229.46 956.31 229.18L956.3 229.16Z" fill="#3A395B"/>
<path d="M953.79 229.19C953.81 228.98 953.79 228.74 953.79 228.51C953.79 226.12 953.9 223.73 953.89 221.28C953.89 220.79 953.79 220.2 953.53 220.23C953.27 220.26 953.13 220.76 953.12 221.32C953.12 221.52 953.12 221.71 953.12 221.91C953.22 223.22 953.08 224.55 953.13 226.18C953.12 226.96 953.13 228.03 953.25 229.11C953.29 229.45 953.38 229.85 953.59 229.85C953.77 229.85 953.77 229.47 953.78 229.2L953.79 229.19Z" fill="#3A395B"/>
<path d="M956.33 230.08C956.9 230.73 957.69 231.2 957.89 232.15C958.2 233.59 957.27 235.49 956.07 235.78C953.78 236.33 952.42 235.65 951.92 233.71C951.49 232.02 952.59 230.33 954.52 229.84C954.93 229.74 955.38 229.82 955.81 229.82" fill="#E6E7E8"/>
<path d="M954.59 229.67C954.15 229.73 953.69 229.9 953.28 230.13C952.18 230.71 951.36 232.01 951.52 233.35C951.6 234.01 951.81 234.61 952.19 235.18C952.58 235.74 953.22 236.14 953.88 236.27C954.54 236.4 955.19 236.36 955.8 236.24C956.08 236.19 956.46 236.11 956.77 235.9C957.07 235.71 957.31 235.46 957.51 235.2C957.91 234.67 958.16 234.06 958.28 233.42C958.39 232.79 958.38 232.08 958.04 231.44C957.78 230.94 957.34 230.56 957.02 230.33C956.7 230.1 956.47 229.96 956.37 230.05C956.28 230.14 956.37 230.41 956.61 230.73C956.84 231.06 957.18 231.43 957.38 231.84C957.51 232.13 957.56 232.45 957.57 232.79C957.59 233.36 957.42 233.96 957.13 234.47C956.82 234.99 956.4 235.42 955.8 235.5C955.16 235.64 954.48 235.7 953.85 235.52C953.22 235.36 952.71 234.89 952.42 234.22C952.15 233.57 952.01 232.73 952.38 231.93C952.73 231.14 953.51 230.49 954.42 230.23C954.71 230.12 954.94 230.12 955.25 230.11C955.53 230.1 955.77 230.05 955.81 229.95C955.86 229.81 955.16 229.63 954.58 229.65L954.59 229.67Z" fill="#3A395B"/>
<g opacity="0.71" filter="url(#filter3_d_125_1645)">
<path d="M366.4 159H30.3C22.9546 159 17 164.955 17 172.3V277.56C17 284.905 22.9546 290.86 30.3 290.86H366.4C373.745 290.86 379.7 284.905 379.7 277.56V172.3C379.7 164.955 373.745 159 366.4 159Z" fill="white"/>
<path d="M366.4 159H30.3C22.9546 159 17 164.955 17 172.3V277.56C17 284.905 22.9546 290.86 30.3 290.86H366.4C373.745 290.86 379.7 284.905 379.7 277.56V172.3C379.7 164.955 373.745 159 366.4 159Z" stroke="#535AE8" stroke-width="0.5" stroke-miterlimit="10"/>
</g>
<path d="M231.818 233V216.392H234.17L240.314 230.12L246.458 216.392H248.786V233H246.602V220.616L241.082 233H239.546L234.002 220.592V233H231.818ZM261.994 228.296C261.994 226.448 260.602 225.296 258.466 225.296H254.674V231.2H258.538C260.698 231.2 261.994 230.12 261.994 228.296ZM261.562 220.784C261.562 219.128 260.434 218.072 258.298 218.072H254.674V223.496H258.346C260.386 223.496 261.562 222.488 261.562 220.784ZM264.178 228.512C264.178 231.032 262.186 233 258.73 233H252.49V216.272H258.49C262.018 216.272 263.794 218.192 263.794 220.52C263.794 222.632 262.474 223.856 260.866 224.384C262.69 224.696 264.178 226.448 264.178 228.512ZM283.193 224.624C283.193 229.64 279.521 233.168 274.793 233.168C270.089 233.168 266.393 229.64 266.393 224.624C266.393 219.608 270.089 216.08 274.793 216.08C279.521 216.08 283.193 219.608 283.193 224.624ZM268.625 224.624C268.625 228.704 271.265 231.272 274.793 231.272C278.321 231.272 280.961 228.704 280.961 224.624C280.961 220.52 278.321 217.976 274.793 217.976C271.265 217.976 268.625 220.52 268.625 224.624Z" fill="#767E9F"/>
<path d="M157.5 178C183.18 178 204 198.82 204 224.5C204 250.18 183.18 271 157.5 271C131.82 271 111 250.18 111 224.5C111 198.82 131.82 178 157.5 178Z" fill="#F0F8FF"/>
<path d="M148.94 210.47C145.35 210.49 141.76 210.5 138.16 210.51C136.04 210.51 133.92 210.52 131.81 210.51C131.33 210.51 130.92 210.57 130.61 210.98C128.86 213.32 127.02 215.59 125.41 218.01C124.74 219.01 124.29 220.18 124.31 221.57C124.41 228.78 124.36 236 124.35 243.21C124.35 244.62 124.52 244.78 125.92 244.78C132.27 244.77 138.63 244.82 144.98 244.74C146.43 244.72 147.87 244.91 149.31 244.76C151.53 244.53 153.74 244.98 155.94 244.76C158.22 244.54 160.49 244.99 162.75 244.76C164.23 244.61 165.7 244.8 167.17 244.79C174.57 244.76 181.97 244.77 189.37 244.79C190.53 244.79 190.67 244.65 190.67 243.49C190.65 236.18 190.62 228.88 190.7 221.57C190.72 220.19 190.29 219.01 189.61 218C187.98 215.59 186.15 213.31 184.4 210.97C184.09 210.56 183.68 210.5 183.2 210.5C177.8 210.51 172.39 210.5 166.99 210.5C166.68 210.5 166.38 210.47 166.07 210.46" fill="#BBBDBF"/>
<path d="M177.21 210.65C179.13 210.66 181.16 210.68 183.24 210.69C183.49 210.69 183.73 210.72 183.92 210.81C184.12 210.9 184.24 211.07 184.4 211.3L185.34 212.56C185.97 213.4 186.6 214.23 187.22 215.05C188.03 216.14 188.84 217.26 189.57 218.39C190.29 219.53 190.52 220.83 190.44 222.19L190.39 230.4L190.35 238.62L190.33 242.73V243.75C190.32 244.09 190.26 244.37 190.15 244.37C189.99 244.45 189.61 244.45 189.29 244.45H188.26L171.82 244.43H167.71C166.35 244.46 165.01 244.31 163.59 244.34C162.87 244.36 162.21 244.46 161.54 244.46C160.87 244.47 160.19 244.44 159.51 244.41C158.16 244.33 156.71 244.29 155.37 244.44C154.04 244.51 152.68 244.37 151.29 244.34C150.6 244.32 149.89 244.34 149.19 244.41C148.53 244.47 147.86 244.47 147.18 244.44C145.82 244.36 144.41 244.38 143.05 244.38H138.94L130.72 244.41H126.61H125.59C125.27 244.41 124.92 244.36 124.84 244.27C124.75 244.22 124.69 243.89 124.68 243.57V242.56L124.64 226.11V222C124.55 220.66 124.89 219.4 125.62 218.3C127.12 216.04 128.83 213.9 130.49 211.71C130.64 211.51 130.85 211.21 130.96 211.1C131.09 210.97 131.26 210.91 131.5 210.89C131.99 210.87 132.61 210.89 133.16 210.89C134.29 210.89 135.42 210.89 136.54 210.89C138.76 210.87 140.89 210.84 142.75 210.82C146.45 210.76 149.03 210.67 148.91 210.54C148.81 210.42 146.48 210.33 142.89 210.27C141.08 210.25 138.97 210.23 136.68 210.2C135.53 210.2 134.33 210.18 133.1 210.17C132.79 210.17 132.48 210.17 132.17 210.17C131.87 210.17 131.54 210.14 131.14 210.23C130.75 210.29 130.34 210.66 130.19 210.92L129.61 211.68C128.52 213.11 127.41 214.53 126.34 215.99C125.81 216.73 125.29 217.44 124.8 218.25C124.33 219.06 124.01 219.99 123.93 220.94C123.95 226.91 123.96 232.9 123.98 238.98C123.98 240.5 123.99 242.03 124 243.57C124 243.77 124.02 243.97 124.06 244.2C124.1 244.41 124.22 244.71 124.47 244.88C124.97 245.16 125.37 245.09 125.77 245.12C126.54 245.12 127.31 245.12 128.09 245.12C131.19 245.12 134.32 245.11 137.49 245.1C139.08 245.1 140.67 245.1 142.28 245.09C143.9 245.09 145.5 245.05 147.13 245.14C147.94 245.17 148.81 245.16 149.62 245.07C150.42 245.01 151.24 245.03 152.06 245.07C152.89 245.11 153.72 245.16 154.57 245.16C155.43 245.17 156.28 245.04 157.09 245.04C158.75 245.02 160.46 245.24 162.22 245.13C163.93 244.91 165.62 245.13 167.41 245.13C170.92 245.13 174.5 245.13 178.15 245.12C181.64 245.12 185.46 245.12 189.53 245.12C189.8 245.11 190.07 245.12 190.41 244.97C190.58 244.89 190.74 244.7 190.8 244.53C190.87 244.36 190.88 244.21 190.9 244.07C190.94 243.51 190.91 243.01 190.92 242.48C190.92 241.44 190.92 240.38 190.92 239.31C190.92 237.17 190.93 234.97 190.94 232.74C190.94 230.51 190.95 228.23 190.96 225.92C190.96 224.77 190.96 223.61 190.96 222.44C190.96 221.87 190.99 221.26 190.9 220.64C190.82 220.03 190.64 219.42 190.38 218.86C190.13 218.29 189.76 217.78 189.43 217.3L188.39 215.84C187.69 214.88 186.96 213.93 186.24 212.98L185.16 211.55L184.62 210.83C184.43 210.53 184.02 210.28 183.67 210.23C183.3 210.17 183.01 210.2 182.71 210.19H181.81H180.01C173.99 210.17 166.77 210.25 166.03 210.36C165.43 210.6 172.32 210.61 177.13 210.68L177.21 210.65Z" fill="#3A395B"/>
<path d="M157.65 199.63C158.42 199.22 159.35 199.35 160.18 199.6C161.01 199.85 161.82 200.22 162.69 200.25C163.39 200.28 164.23 199.99 164.67 199.45C164.75 199.36 164.9 199.41 164.9 199.53C164.86 200.81 164.88 201.91 164.82 203.23C164.82 203.24 164.82 203.26 164.82 203.27C164.57 204.01 163.71 204.2 162.91 204.2C162.23 204.2 161.55 204.05 160.91 203.8C159.95 203.43 158.65 203.04 157.65 203.57" fill="#F7AEBC"/>
<path d="M158.83 203.46C159.23 203.51 159.68 203.61 160.1 203.75C160.5 203.88 160.87 204.08 161.3 204.23C161.73 204.37 162.17 204.47 162.63 204.51C163.09 204.54 163.55 204.53 164.03 204.39C164.5 204.24 165.02 203.94 165.18 203.25C165.2 202.52 165.22 201.8 165.24 201.07L165.26 199.87C165.26 199.7 165.29 199.49 165.24 199.36C165.19 199.23 165.15 199.19 165.05 199.11C164.94 199.03 164.79 199.01 164.73 199.03C164.66 199.03 164.52 199.07 164.38 199.21C164.01 199.57 163.94 199.56 163.77 199.66C163.61 199.74 163.43 199.79 163.25 199.83C162.89 199.91 162.54 199.89 162.15 199.82C161.39 199.68 160.63 199.32 159.77 199.12C159.27 199 158.67 198.98 158.22 199.12C157.77 199.25 157.54 199.49 157.61 199.59C157.68 199.69 157.94 199.65 158.3 199.66C158.66 199.66 159.14 199.72 159.66 199.85C160.02 199.94 160.38 200.07 160.76 200.19C161.35 200.36 161.97 200.56 162.66 200.58C163.01 200.58 163.36 200.53 163.69 200.43C163.86 200.38 164.02 200.31 164.18 200.23C164.26 200.19 164.34 200.14 164.41 200.09L164.49 200.03C164.49 200.03 164.53 199.97 164.56 199.99C164.58 200.01 164.56 200.05 164.56 200.08C164.56 200.38 164.55 200.68 164.54 200.99C164.53 201.7 164.52 202.43 164.51 203.21C164.51 203.21 164.45 203.39 164.39 203.45C164.03 203.91 163.05 203.99 162.17 203.84C161.71 203.76 161.27 203.62 160.78 203.42C160.28 203.23 159.75 203.07 159.18 203.01C158.82 202.97 158.41 202.99 158.09 203.1C157.77 203.2 157.57 203.38 157.58 203.48C157.59 203.57 157.77 203.53 158.02 203.5C158.26 203.47 158.58 203.46 158.83 203.49V203.46Z" fill="#3A395B"/>
<path d="M168.65 244.5C168.62 244.1 168.56 243.7 168.56 243.3C168.56 235.2 168.56 227.09 168.56 218.99C168.56 218.52 168.5 218.16 168.11 217.78C164.92 214.64 161.78 211.47 158.61 208.31C157.62 207.33 157.51 207.3 156.5 208.23C155.26 209.38 154.1 210.61 152.9 211.81C151 213.71 149.11 215.64 147.18 217.51C146.62 218.05 146.44 218.62 146.44 219.37C146.46 227.35 146.45 235.33 146.46 243.32C146.46 243.72 146.52 244.12 146.55 244.52" fill="#E6E7E8"/>
<path d="M146.59 239.17C146.61 237.31 146.64 235.26 146.66 233.29C146.68 230.67 146.71 228.05 146.73 225.44L146.75 221.51V219.55C146.74 218.9 146.84 218.36 147.22 217.93L152.78 212.42L155.57 209.66C156.04 209.21 156.49 208.72 156.97 208.29C157.19 208.08 157.48 207.89 157.54 207.91C157.62 207.9 157.9 208.12 158.11 208.34L163.68 213.88L166.47 216.65L167.86 218.03C168.05 218.22 168.15 218.41 168.18 218.68C168.21 218.94 168.18 219.3 168.19 219.62V235.35C168.19 239.56 168.23 244.61 168.59 244.49C168.71 244.43 168.69 243.33 168.79 241.61C168.86 239.89 168.9 237.57 168.91 235.12C168.91 233.4 168.91 231.67 168.91 229.96C168.89 227.11 168.88 224.25 168.86 221.35C168.86 220.62 168.86 219.89 168.86 219.16C168.86 218.81 168.87 218.34 168.62 217.93C168.36 217.52 168.07 217.33 167.82 217.05C166.77 216.01 165.71 214.95 164.63 213.88C163.56 212.81 162.47 211.72 161.36 210.62C160.81 210.07 160.25 209.51 159.69 208.95L158.84 208.11C158.53 207.84 158.32 207.52 157.8 207.28C157.5 207.15 157.14 207.28 156.96 207.41C156.76 207.54 156.6 207.68 156.44 207.82C156.13 208.1 155.85 208.4 155.56 208.68C154.98 209.26 154.39 209.85 153.79 210.44C152.6 211.63 151.39 212.84 150.16 214.07C149.57 214.66 148.95 215.27 148.3 215.91C147.98 216.23 147.65 216.55 147.32 216.89C147.01 217.21 146.58 217.56 146.35 218.09C146.11 218.6 146.11 219.19 146.12 219.67C146.12 220.17 146.12 220.68 146.12 221.19C146.12 222.21 146.12 223.26 146.12 224.33C146.12 228.61 146.11 233.19 146.1 237.78C146.1 240.66 146.1 244.11 146.4 244.47C146.51 244.6 146.46 243.85 146.49 242.77C146.52 241.66 146.56 240.29 146.59 239.15V239.17Z" fill="#3A395B"/>
<path d="M173.81 219.49C174.19 219.53 174.62 219.54 175.03 219.56C179.4 219.8 183.76 219.69 188.14 219.71C188.59 219.71 189.1 219.66 189.48 219.53C189.86 219.4 190.08 219.22 190.03 219.11C189.91 218.91 189.08 219.02 188.09 218.98C187.74 218.98 187.37 218.98 187.02 218.98C184.65 219.07 182.23 219.01 179.32 219.05C177.93 219.03 176.01 219.01 174.1 218.99C173.49 218.99 172.8 218.96 172.71 219.15C172.64 219.31 173.33 219.41 173.81 219.47V219.49Z" fill="#3A395B"/>
<path d="M141.21 219.21C140.83 219.17 140.4 219.16 140 219.14C135.67 218.9 131.34 219.02 127 219C126.54 219 126.15 219.02 125.83 218.95C125.51 218.9 125.26 218.83 125.21 218.95C125.16 219.06 125.3 219.28 125.65 219.47C125.99 219.68 126.58 219.74 127.05 219.73C127.41 219.73 127.76 219.73 128.12 219.73C130.47 219.63 132.87 219.7 135.76 219.65C137.14 219.67 139.04 219.69 140.93 219.71C141.51 219.71 142.25 219.7 142.33 219.46C142.34 219.37 142.18 219.35 141.96 219.32C141.74 219.28 141.45 219.25 141.21 219.22V219.21Z" fill="#3A395B"/>
<path d="M164.23 244.5C164.05 243.34 164.16 242.17 164.14 241C164.12 239.34 164.14 237.68 164.14 236.03C164.14 235.05 163.93 234.85 162.95 234.83C162.03 234.82 161.1 234.88 160.19 234.82C158.87 234.73 157.57 235.06 156.22 234.87C154.93 234.69 153.59 234.85 152.27 234.83C151.11 234.81 150.88 235.05 150.88 236.22C150.9 238.95 150.88 241.68 150.88 244.42" fill="#88C1D7"/>
<path d="M151.01 242.37C151.05 241.67 151.06 240.88 151.08 240.13C151.1 239.12 151.13 238.12 151.15 237.13C151.17 236.64 151.15 236.1 151.2 235.68C151.23 235.46 151.3 235.32 151.4 235.27C151.51 235.2 151.73 235.17 151.96 235.17C152.94 235.2 153.98 235.13 154.94 235.15C155.44 235.15 155.88 235.2 156.4 235.27C156.93 235.32 157.45 235.31 157.96 235.27C158.47 235.24 158.96 235.19 159.44 235.18L160.91 235.2H162.42C162.9 235.2 163.51 235.2 163.62 235.33C163.76 235.44 163.75 236.05 163.75 236.52V238.02V241.02C163.75 241.81 163.72 242.7 163.8 243.39C163.87 244.08 164.04 244.55 164.15 244.51C164.27 244.47 164.29 244.04 164.34 243.4C164.38 242.76 164.47 241.88 164.47 240.93C164.47 240.27 164.47 239.62 164.47 238.96C164.45 237.85 164.43 236.76 164.4 235.65C164.38 235.5 164.36 235.33 164.29 235.15C164.22 234.97 164.05 234.78 163.87 234.69C163.5 234.52 163.2 234.54 162.9 234.53C162.34 234.53 161.77 234.53 161.2 234.53C160.61 234.53 160.02 234.52 159.42 234.51C158.81 234.53 158.2 234.59 157.6 234.62C156.98 234.66 156.44 234.62 155.76 234.53C155.1 234.48 154.43 234.49 153.77 234.53C153.45 234.53 153.12 234.54 152.78 234.55C152.44 234.55 152.09 234.53 151.67 234.57C151.47 234.6 151.23 234.63 150.99 234.8C150.75 234.98 150.64 235.26 150.6 235.48C150.52 235.94 150.55 236.33 150.54 236.74C150.54 238.37 150.52 240.12 150.51 241.87C150.51 242.97 150.53 244.29 150.72 244.42C150.89 244.53 150.94 243.27 151 242.39L151.01 242.37Z" fill="#3A395B"/>
<path d="M157.64 243.82C157.68 243.62 157.69 243.39 157.71 243.17C157.95 240.85 157.84 238.53 157.86 236.21C157.86 235.74 157.8 235.19 157.55 235.2C157.31 235.21 157.15 235.69 157.14 236.24C157.14 236.43 157.14 236.62 157.14 236.81C157.24 238.07 157.17 239.35 157.21 240.9C157.19 241.64 157.17 242.65 157.15 243.67C157.15 243.99 157.17 244.37 157.36 244.41C157.53 244.44 157.58 244.08 157.64 243.82Z" fill="#3A395B"/>
<path d="M157.63 206.91C157.67 206.71 157.67 206.48 157.69 206.26C157.96 203.93 158 201.56 157.92 199.18C157.91 198.7 157.81 198.13 157.56 198.16C157.32 198.19 157.19 198.68 157.2 199.23C157.2 199.42 157.2 199.61 157.22 199.8C157.34 201.07 157.26 202.37 157.25 203.94C157.22 204.7 157.11 205.7 157.14 206.77C157.14 207.1 157.17 207.5 157.37 207.52C157.54 207.53 157.59 207.16 157.64 206.9L157.63 206.91Z" fill="#3A395B"/>
<path d="M160.54 224.88C159.86 224.95 159.7 225.39 159.71 225.99C159.72 227.1 159.7 228.2 159.71 229.31C159.72 230.13 159.99 230.39 160.81 230.41C161.64 230.43 162.47 230.41 163.3 230.41C163.87 230.41 164.13 230.15 164.13 229.58C164.13 228.29 164.13 227 164.13 225.71C164.13 225.14 163.87 224.87 163.3 224.88C162.41 224.88 161.52 224.88 160.63 224.88" fill="#F7AEBC"/>
<path d="M161.82 225.02C162.22 225.06 162.69 225.07 163.12 225.09C163.42 225.09 163.66 225.13 163.76 225.26C163.87 225.38 163.87 225.6 163.85 225.9C163.83 226.49 163.82 227.07 163.8 227.64C163.8 228.23 163.78 228.81 163.77 229.38C163.76 230.02 163.74 230.03 163.11 230.03H161.37C160.78 230.03 160.18 230.04 160.14 229.77C160.02 229.42 160.08 228.72 160.06 228.17V226.43C160.06 225.94 160.02 225.49 160.16 225.33C160.27 225.14 160.57 225.05 160.53 224.92C160.52 224.83 160.23 224.65 159.77 224.94C159.55 225.1 159.42 225.4 159.37 225.68C159.32 225.98 159.33 226.22 159.32 226.5C159.32 226.88 159.32 227.26 159.32 227.64C159.35 228.28 159.35 228.88 159.39 229.58C159.41 229.76 159.45 229.96 159.56 230.17C159.67 230.38 159.89 230.55 160.1 230.61C160.51 230.75 160.86 230.71 161.19 230.72C161.86 230.72 162.55 230.72 163.27 230.72C163.47 230.72 163.71 230.7 163.95 230.56C164.2 230.42 164.34 230.14 164.38 229.91C164.42 229.66 164.4 229.47 164.4 229.29C164.4 229.1 164.4 228.91 164.4 228.72C164.4 227.98 164.42 227.1 164.43 226.16C164.43 225.92 164.46 225.71 164.4 225.37C164.37 225.05 164.04 224.66 163.69 224.6C163.34 224.52 163.1 224.56 162.85 224.55H162.09C161.45 224.54 160.69 224.56 160.61 224.75C160.55 224.92 161.28 224.97 161.79 225.03L161.82 225.02Z" fill="#3A395B"/>
<path d="M151.7 224.88C151.02 224.95 150.86 225.39 150.87 225.99C150.88 227.1 150.86 228.2 150.87 229.31C150.88 230.13 151.15 230.39 151.97 230.41C152.74 230.43 153.5 230.41 154.27 230.41C154.96 230.41 155.29 230.09 155.29 229.4C155.29 228.23 155.29 227.07 155.29 225.9C155.29 225.21 154.97 224.88 154.27 224.88C153.44 224.88 152.61 224.88 151.78 224.88" fill="#F7AEBC"/>
<path d="M152.97 225.02C153.37 225.06 153.83 225.07 154.26 225.09C154.84 225.09 155.06 225.39 155.01 225.94C154.99 226.53 154.98 227.1 154.96 227.67C154.96 228.25 154.94 228.83 154.93 229.4C154.91 229.92 154.76 230.05 154.21 230.04H152.48C151.88 230.04 151.33 230.04 151.3 229.76C151.23 229.58 151.23 229.32 151.23 229.02V228.16V226.43C151.23 225.94 151.2 225.5 151.33 225.34C151.44 225.15 151.74 225.06 151.7 224.93C151.69 224.84 151.4 224.66 150.95 224.94C150.73 225.1 150.6 225.39 150.55 225.67C150.5 225.96 150.51 226.21 150.5 226.48C150.5 226.86 150.5 227.24 150.5 227.62C150.52 228.28 150.54 228.91 150.56 229.54C150.58 229.72 150.61 229.91 150.71 230.12C150.8 230.33 151.01 230.51 151.22 230.59C151.63 230.75 151.98 230.71 152.31 230.72C152.98 230.72 153.68 230.72 154.39 230.72C154.6 230.72 154.82 230.67 155.05 230.54C155.27 230.41 155.44 230.18 155.51 229.95C155.64 229.47 155.56 229.12 155.58 228.73C155.58 228 155.6 227.13 155.61 226.19C155.61 225.97 155.64 225.7 155.55 225.38C155.48 225.07 155.2 224.74 154.87 224.64C154.55 224.52 154.24 224.55 154.01 224.54H153.26C152.63 224.53 151.87 224.55 151.79 224.74C151.73 224.91 152.45 224.96 152.96 225.02H152.97Z" fill="#3A395B"/>
<path d="M156.86 213.83C155.74 214.24 154.79 214.84 154.37 216.04C153.68 218.04 154.88 219.71 156.31 220.26C158.27 221.02 160.11 219.8 160.63 218.25C161.45 215.84 159.61 213.87 157.5 213.83C157.32 213.83 157.13 213.83 156.95 213.83" fill="#88C1D7"/>
<path d="M158.24 214.07C158.65 214.22 159.1 214.44 159.45 214.74C159.92 215.14 160.25 215.67 160.42 216.24C160.57 216.82 160.54 217.43 160.36 218C160.03 219.13 158.96 220 157.8 220.1C156.64 220.22 155.44 219.58 154.88 218.54C154.3 217.54 154.47 216.14 155.22 215.26C155.81 214.53 156.99 214.1 156.87 213.87C156.82 213.76 156.52 213.75 156.08 213.88C155.65 214.01 155.07 214.3 154.62 214.84C154.31 215.21 154.08 215.65 153.97 216.11C153.77 216.86 153.78 217.7 154.09 218.44C154.39 219.18 154.93 219.83 155.63 220.26C156.34 220.69 157.21 220.89 158.09 220.74C158.96 220.59 159.8 220.09 160.37 219.33C160.93 218.62 161.29 217.51 161.07 216.35C160.85 215.18 159.91 214.12 158.72 213.7C158.35 213.56 157.91 213.49 157.57 213.51C157.24 213.53 157.01 213.59 156.96 213.68C156.89 213.86 157.73 213.86 158.25 214.06L158.24 214.07Z" fill="#3A395B"/>
<path d="M175.8 223.81C173.76 223.88 173.15 224.32 173.17 224.92C173.2 226.03 173.14 227.13 173.19 228.24C173.23 229.06 174.03 229.32 176.49 229.34C178.79 229.36 181.09 229.34 183.39 229.34C185.46 229.34 186.45 229.02 186.43 228.33C186.41 227.16 186.41 226 186.43 224.83C186.44 224.14 185.46 223.81 183.39 223.81C180.91 223.81 178.28 223.81 175.8 223.81Z" fill="#D0D2D3"/>
<path d="M178.05 223.95C178.82 223.99 179.7 224 180.53 224.02C181.65 224.05 182.75 224.07 183.84 224.1C184.38 224.12 184.92 224.17 185.41 224.3C185.65 224.36 185.88 224.47 186 224.59C186.06 224.65 186.08 224.7 186.09 224.77C186.09 224.8 186.09 225.01 186.09 225.13C186.09 226.22 186.07 227.31 186.06 228.39C186.06 228.6 185.51 228.82 185.01 228.88C184.5 228.96 183.95 228.97 183.41 228.97H176.77C176.22 228.97 175.67 228.97 175.14 228.92C174.62 228.88 174.04 228.81 173.74 228.59C173.6 228.48 173.56 228.39 173.55 228.14V227.31L173.54 225.65C173.54 225.43 173.54 225.2 173.54 224.97C173.54 224.77 173.55 224.74 173.65 224.63C173.86 224.43 174.28 224.3 174.62 224.22C175.32 224.06 175.84 223.99 175.81 223.86C175.79 223.75 175.31 223.63 174.56 223.68C174.18 223.72 173.72 223.74 173.22 224.11C172.96 224.27 172.79 224.73 172.83 225.01C172.83 225.26 172.83 225.52 172.83 225.78C172.83 226.51 172.84 227.23 172.85 227.97C172.85 228.12 172.85 228.25 172.89 228.47C172.93 228.67 173.04 228.89 173.19 229.04C173.51 229.35 173.86 229.42 174.18 229.5C174.82 229.63 175.44 229.64 176.06 229.66C177.29 229.66 178.54 229.66 179.82 229.66C181.1 229.66 182.42 229.66 183.79 229.66C184.49 229.63 185.2 229.62 185.95 229.34C186.14 229.26 186.33 229.16 186.5 228.98C186.68 228.81 186.76 228.47 186.74 228.28C186.74 227.92 186.74 227.56 186.74 227.19C186.74 226.49 186.74 225.72 186.75 224.9C186.78 224.65 186.63 224.28 186.41 224.11C186.19 223.93 185.96 223.84 185.73 223.76C185.27 223.62 184.81 223.57 184.35 223.54C182.5 223.48 180.6 223.51 178.65 223.49C177.43 223.49 175.98 223.51 175.83 223.7C175.71 223.87 177.1 223.92 178.07 223.98L178.05 223.95Z" fill="#3A395B"/>
<path d="M177.79 228.61C177.83 228.5 177.82 228.38 177.84 228.27C177.99 227.08 177.96 225.89 177.97 224.66C177.97 224.41 177.9 224.12 177.65 224.14C177.41 224.15 177.26 224.41 177.25 224.68C177.25 224.78 177.25 224.88 177.25 224.97C177.35 225.62 177.25 226.29 177.3 227.1C177.28 227.49 177.27 228.03 177.3 228.57C177.3 228.74 177.36 228.94 177.55 228.94C177.72 228.94 177.75 228.74 177.79 228.6V228.61Z" fill="#3A395B"/>
<path d="M182.21 228.61C182.25 228.5 182.24 228.38 182.26 228.27C182.41 227.08 182.38 225.89 182.39 224.66C182.39 224.41 182.32 224.12 182.07 224.14C181.83 224.15 181.68 224.41 181.67 224.68C181.67 224.78 181.67 224.88 181.67 224.97C181.77 225.62 181.67 226.29 181.72 227.1C181.7 227.49 181.69 228.03 181.72 228.57C181.72 228.74 181.78 228.94 181.97 228.94C182.14 228.94 182.17 228.74 182.21 228.6V228.61Z" fill="#3A395B"/>
<path d="M131.4 223.81C129.36 223.88 128.75 224.32 128.77 224.92C128.8 226.03 128.74 227.13 128.79 228.24C128.83 229.06 129.63 229.32 132.09 229.34C134.39 229.36 136.69 229.34 138.99 229.34C141.06 229.34 142.05 229.02 142.03 228.33C142.01 227.16 142.01 226 142.03 224.83C142.04 224.14 141.06 223.81 138.99 223.81C136.51 223.81 133.88 223.81 131.4 223.81Z" fill="#D0D2D3"/>
<path d="M133.65 223.95C134.42 223.99 135.3 224 136.13 224.02C137.25 224.05 138.35 224.07 139.44 224.1C139.98 224.12 140.52 224.17 141.01 224.3C141.25 224.36 141.48 224.47 141.6 224.59C141.66 224.65 141.68 224.7 141.69 224.77C141.69 224.8 141.69 225.01 141.69 225.13C141.69 226.22 141.67 227.31 141.66 228.39C141.66 228.6 141.11 228.82 140.61 228.88C140.1 228.96 139.55 228.97 139.01 228.97H132.37C131.82 228.97 131.27 228.97 130.74 228.92C130.22 228.88 129.64 228.81 129.34 228.59C129.2 228.48 129.16 228.39 129.15 228.14V227.31L129.14 225.65C129.14 225.43 129.14 225.2 129.14 224.97C129.14 224.77 129.15 224.74 129.25 224.63C129.46 224.43 129.88 224.3 130.22 224.22C130.92 224.06 131.44 223.99 131.41 223.86C131.39 223.75 130.91 223.63 130.16 223.68C129.78 223.72 129.32 223.74 128.82 224.11C128.56 224.27 128.39 224.73 128.43 225.01C128.43 225.26 128.43 225.52 128.43 225.78C128.43 226.51 128.44 227.23 128.45 227.97C128.45 228.12 128.45 228.25 128.49 228.47C128.53 228.67 128.64 228.89 128.79 229.04C129.11 229.35 129.46 229.42 129.78 229.5C130.42 229.63 131.04 229.64 131.66 229.66C132.89 229.66 134.14 229.66 135.42 229.66C136.7 229.66 138.02 229.66 139.39 229.66C140.09 229.63 140.8 229.62 141.55 229.34C141.74 229.26 141.93 229.16 142.1 228.98C142.28 228.81 142.36 228.47 142.34 228.28C142.34 227.92 142.34 227.56 142.34 227.19C142.34 226.49 142.34 225.72 142.35 224.9C142.38 224.65 142.23 224.28 142.01 224.11C141.79 223.93 141.56 223.84 141.33 223.76C140.87 223.62 140.41 223.57 139.95 223.54C138.1 223.48 136.2 223.51 134.25 223.49C133.03 223.49 131.58 223.51 131.43 223.7C131.31 223.87 132.7 223.92 133.67 223.98L133.65 223.95Z" fill="#3A395B"/>
<path d="M133.39 228.61C133.43 228.5 133.42 228.38 133.44 228.27C133.59 227.08 133.56 225.89 133.57 224.66C133.57 224.41 133.5 224.12 133.25 224.14C133.01 224.15 132.86 224.41 132.85 224.68C132.85 224.78 132.85 224.88 132.85 224.97C132.95 225.62 132.85 226.29 132.9 227.1C132.88 227.49 132.87 228.03 132.9 228.57C132.9 228.74 132.96 228.94 133.15 228.94C133.32 228.94 133.35 228.74 133.39 228.6V228.61Z" fill="#3A395B"/>
<path d="M137.81 228.61C137.85 228.5 137.84 228.38 137.86 228.27C138.01 227.08 137.98 225.89 137.99 224.66C137.99 224.41 137.92 224.12 137.67 224.14C137.43 224.15 137.28 224.41 137.27 224.68C137.27 224.78 137.27 224.88 137.27 224.97C137.37 225.62 137.27 226.29 137.32 227.1C137.3 227.49 137.29 228.03 137.32 228.57C137.32 228.74 137.38 228.94 137.57 228.94C137.74 228.94 137.77 228.74 137.81 228.6V228.61Z" fill="#3A395B"/>
<path d="M175.8 233.58C173.76 233.65 173.15 234.09 173.17 234.69C173.2 235.8 173.14 236.9 173.19 238.01C173.23 238.83 174.03 239.09 176.49 239.11C178.79 239.13 181.09 239.11 183.39 239.11C185.46 239.11 186.45 238.79 186.43 238.1C186.41 236.93 186.41 235.77 186.43 234.6C186.44 233.91 185.46 233.58 183.39 233.58C180.91 233.58 178.28 233.58 175.8 233.58Z" fill="#D0D2D3"/>
<path d="M178.05 233.72C178.82 233.76 179.7 233.77 180.53 233.79C181.65 233.82 182.75 233.84 183.84 233.87C184.38 233.89 184.92 233.94 185.41 234.07C185.65 234.13 185.88 234.24 186 234.36C186.06 234.42 186.08 234.47 186.09 234.54C186.09 234.57 186.09 234.78 186.09 234.9C186.09 235.99 186.07 237.08 186.06 238.16C186.06 238.37 185.51 238.59 185.01 238.65C184.5 238.73 183.95 238.74 183.41 238.74H176.77C176.22 238.74 175.67 238.74 175.14 238.69C174.62 238.65 174.04 238.58 173.74 238.36C173.6 238.25 173.56 238.16 173.55 237.91V237.08L173.54 235.42C173.54 235.2 173.54 234.97 173.54 234.74C173.54 234.54 173.55 234.51 173.65 234.4C173.86 234.2 174.28 234.07 174.62 233.99C175.32 233.83 175.84 233.76 175.81 233.63C175.79 233.52 175.31 233.4 174.56 233.45C174.18 233.49 173.72 233.51 173.22 233.88C172.96 234.04 172.79 234.5 172.83 234.78C172.83 235.03 172.83 235.29 172.83 235.55C172.83 236.28 172.84 237 172.85 237.74C172.85 237.89 172.85 238.02 172.89 238.24C172.93 238.44 173.04 238.66 173.19 238.81C173.51 239.12 173.86 239.19 174.18 239.27C174.82 239.4 175.44 239.41 176.06 239.43C177.29 239.43 178.54 239.43 179.82 239.43C181.1 239.43 182.42 239.43 183.79 239.43C184.49 239.4 185.2 239.39 185.95 239.11C186.14 239.03 186.33 238.93 186.5 238.75C186.68 238.58 186.76 238.24 186.74 238.05C186.74 237.69 186.74 237.33 186.74 236.96C186.74 236.26 186.74 235.49 186.75 234.67C186.78 234.42 186.63 234.05 186.41 233.88C186.19 233.7 185.96 233.61 185.73 233.53C185.27 233.39 184.81 233.34 184.35 233.31C182.5 233.25 180.6 233.28 178.65 233.26C177.43 233.26 175.98 233.28 175.83 233.47C175.71 233.64 177.1 233.69 178.07 233.75L178.05 233.72Z" fill="#3A395B"/>
<path d="M177.79 238.39C177.83 238.28 177.82 238.16 177.84 238.05C177.99 236.86 177.96 235.67 177.97 234.44C177.97 234.19 177.9 233.9 177.65 233.92C177.41 233.93 177.26 234.19 177.25 234.46C177.25 234.56 177.25 234.66 177.25 234.75C177.35 235.4 177.25 236.07 177.3 236.88C177.28 237.27 177.27 237.81 177.3 238.35C177.3 238.52 177.36 238.72 177.55 238.72C177.72 238.72 177.75 238.52 177.79 238.38V238.39Z" fill="#3A395B"/>
<path d="M182.21 238.39C182.25 238.28 182.24 238.16 182.26 238.05C182.41 236.86 182.38 235.67 182.39 234.44C182.39 234.19 182.32 233.9 182.07 233.92C181.83 233.93 181.68 234.19 181.67 234.46C181.67 234.56 181.67 234.66 181.67 234.75C181.77 235.4 181.67 236.07 181.72 236.88C181.7 237.27 181.69 237.81 181.72 238.35C181.72 238.52 181.78 238.72 181.97 238.72C182.14 238.72 182.17 238.52 182.21 238.38V238.39Z" fill="#3A395B"/>
<path d="M131.4 233.58C129.36 233.65 128.75 234.09 128.77 234.69C128.8 235.8 128.74 236.9 128.79 238.01C128.83 238.83 129.63 239.09 132.09 239.11C134.39 239.13 136.69 239.11 138.99 239.11C141.06 239.11 142.05 238.79 142.03 238.1C142.01 236.93 142.01 235.77 142.03 234.6C142.04 233.91 141.06 233.58 138.99 233.58C136.51 233.58 133.88 233.58 131.4 233.58Z" fill="#D0D2D3"/>
<path d="M133.65 233.72C134.42 233.76 135.3 233.77 136.13 233.79C137.25 233.82 138.35 233.84 139.44 233.87C139.98 233.89 140.52 233.94 141.01 234.07C141.25 234.13 141.48 234.24 141.6 234.36C141.66 234.42 141.68 234.47 141.69 234.54C141.69 234.57 141.69 234.78 141.69 234.9C141.69 235.99 141.67 237.08 141.66 238.16C141.66 238.37 141.11 238.59 140.61 238.65C140.1 238.73 139.55 238.74 139.01 238.74H132.37C131.82 238.74 131.27 238.74 130.74 238.69C130.22 238.65 129.64 238.58 129.34 238.36C129.2 238.25 129.16 238.16 129.15 237.91V237.08L129.14 235.42C129.14 235.2 129.14 234.97 129.14 234.74C129.14 234.54 129.15 234.51 129.25 234.4C129.46 234.2 129.88 234.07 130.22 233.99C130.92 233.83 131.44 233.76 131.41 233.63C131.39 233.52 130.91 233.4 130.16 233.45C129.78 233.49 129.32 233.51 128.82 233.88C128.56 234.04 128.39 234.5 128.43 234.78C128.43 235.03 128.43 235.29 128.43 235.55C128.43 236.28 128.44 237 128.45 237.74C128.45 237.89 128.45 238.02 128.49 238.24C128.53 238.44 128.64 238.66 128.79 238.81C129.11 239.12 129.46 239.19 129.78 239.27C130.42 239.4 131.04 239.41 131.66 239.43C132.89 239.43 134.14 239.43 135.42 239.43C136.7 239.43 138.02 239.43 139.39 239.43C140.09 239.4 140.8 239.39 141.55 239.11C141.74 239.03 141.93 238.93 142.1 238.75C142.28 238.58 142.36 238.24 142.34 238.05C142.34 237.69 142.34 237.33 142.34 236.96C142.34 236.26 142.34 235.49 142.35 234.67C142.38 234.42 142.23 234.05 142.01 233.88C141.79 233.7 141.56 233.61 141.33 233.53C140.87 233.39 140.41 233.34 139.95 233.31C138.1 233.25 136.2 233.28 134.25 233.26C133.03 233.26 131.58 233.28 131.43 233.47C131.31 233.64 132.7 233.69 133.67 233.75L133.65 233.72Z" fill="#3A395B"/>
<path d="M133.39 238.39C133.43 238.28 133.42 238.16 133.44 238.05C133.59 236.86 133.56 235.67 133.57 234.44C133.57 234.19 133.5 233.9 133.25 233.92C133.01 233.93 132.86 234.19 132.85 234.46C132.85 234.56 132.85 234.66 132.85 234.75C132.95 235.4 132.85 236.07 132.9 236.88C132.88 237.27 132.87 237.81 132.9 238.35C132.9 238.52 132.96 238.72 133.15 238.72C133.32 238.72 133.35 238.52 133.39 238.38V238.39Z" fill="#3A395B"/>
<path d="M137.81 238.39C137.85 238.28 137.84 238.16 137.86 238.05C138.01 236.86 137.98 235.67 137.99 234.44C137.99 234.19 137.92 233.9 137.67 233.92C137.43 233.93 137.28 234.19 137.27 234.46C137.27 234.56 137.27 234.66 137.27 234.75C137.37 235.4 137.27 236.07 137.32 236.88C137.3 237.27 137.29 237.81 137.32 238.35C137.32 238.52 137.38 238.72 137.57 238.72C137.74 238.72 137.77 238.52 137.81 238.38V238.39Z" fill="#3A395B"/>
<path d="M380 225L757 225" stroke="#535AE8" stroke-width="2.5" stroke-miterlimit="10"/>
<path d="M746.8 233.11L755.29 224.63L746.8 216.16H754L762.48 224.63L754 233.11H746.8Z" fill="#535AE8"/>
<path d="M762.56 72.74H974.81C983.06 72.74 989.75 79.43 989.75 87.68V142.28" stroke="#535AE8" stroke-width="2.5" stroke-miterlimit="10"/>
<path d="M981.28 132.32L989.76 140.8L998.23 132.32V139.52L989.76 147.99L981.28 139.52V132.32Z" fill="#535AE8"/>
<path d="M399.7 72.74H187.45C179.2 72.74 172.51 79.43 172.51 87.68V142.28" stroke="#535AE8" stroke-width="2.5" stroke-miterlimit="10"/>
<path d="M164.03 132.32L172.5 140.8L180.98 132.32V139.52L172.5 147.99L164.03 139.52V132.32Z" fill="#535AE8"/>
<path d="M762.56 381.57H974.81C983.06 381.57 989.75 374.88 989.75 366.63V312.03" stroke="#535AE8" stroke-width="2.5" stroke-miterlimit="10"/>
<path d="M998.23 321.99L989.76 313.51L981.28 321.99V314.79L989.76 306.31L998.23 314.79V321.99Z" fill="#535AE8"/>
<path d="M399.7 381.57H187.45C179.2 381.57 172.51 374.88 172.51 366.63V312.03" stroke="#535AE8" stroke-width="2.5" stroke-miterlimit="10"/>
<path d="M180.98 321.99L172.5 313.51L164.03 321.99V314.79L172.5 306.31L180.98 314.79V321.99Z" fill="#535AE8"/>
<defs>
<filter id="filter0_d_125_1645" x="383.75" y="0.75" width="395.2" height="164.36" filterUnits="userSpaceOnUse" color-interpolation-filters="sRGB">
<feFlood flood-opacity="0" result="BackgroundImageFix"/>
<feColorMatrix in="SourceAlpha" type="matrix" values="0 0 0 0 0 0 0 0 0 0 0 0 0 0 0 0 0 0 127 0" result="hardAlpha"/>
<feOffset dy="10"/>
<feGaussianBlur stdDeviation="8"/>
<feComposite in2="hardAlpha" operator="out"/>
<feColorMatrix type="matrix" values="0 0 0 0 0.00680556 0 0 0 0 0.0275901 0 0 0 0 0.116667 0 0 0 0.1 0"/>
<feBlend mode="normal" in2="BackgroundImageFix" result="effect1_dropShadow_125_1645"/>
<feBlend mode="normal" in="SourceGraphic" in2="effect1_dropShadow_125_1645" result="shape"/>
</filter>
<filter id="filter1_d_125_1645" x="383.75" y="304.75" width="395.2" height="164.36" filterUnits="userSpaceOnUse" color-interpolation-filters="sRGB">
<feFlood flood-opacity="0" result="BackgroundImageFix"/>
<feColorMatrix in="SourceAlpha" type="matrix" values="0 0 0 0 0 0 0 0 0 0 0 0 0 0 0 0 0 0 127 0" result="hardAlpha"/>
<feOffset dy="10"/>
<feGaussianBlur stdDeviation="8"/>
<feComposite in2="hardAlpha" operator="out"/>
<feColorMatrix type="matrix" values="0 0 0 0 0.00680556 0 0 0 0 0.0275901 0 0 0 0 0.116667 0 0 0 0.1 0"/>
<feBlend mode="normal" in2="BackgroundImageFix" result="effect1_dropShadow_125_1645"/>
<feBlend mode="normal" in="SourceGraphic" in2="effect1_dropShadow_125_1645" result="shape"/>
</filter>
<filter id="filter2_d_125_1645" x="765.75" y="152.46" width="395.2" height="164.36" filterUnits="userSpaceOnUse" color-interpolation-filters="sRGB">
<feFlood flood-opacity="0" result="BackgroundImageFix"/>
<feColorMatrix in="SourceAlpha" type="matrix" values="0 0 0 0 0 0 0 0 0 0 0 0 0 0 0 0 0 0 127 0" result="hardAlpha"/>
<feOffset dy="10"/>
<feGaussianBlur stdDeviation="8"/>
<feComposite in2="hardAlpha" operator="out"/>
<feColorMatrix type="matrix" values="0 0 0 0 0.00680556 0 0 0 0 0.0275901 0 0 0 0 0.116667 0 0 0 0.1 0"/>
<feBlend mode="normal" in2="BackgroundImageFix" result="effect1_dropShadow_125_1645"/>
<feBlend mode="normal" in="SourceGraphic" in2="effect1_dropShadow_125_1645" result="shape"/>
</filter>
<filter id="filter3_d_125_1645" x="0.75" y="152.75" width="395.2" height="164.36" filterUnits="userSpaceOnUse" color-interpolation-filters="sRGB">
<feFlood flood-opacity="0" result="BackgroundImageFix"/>
<feColorMatrix in="SourceAlpha" type="matrix" values="0 0 0 0 0 0 0 0 0 0 0 0 0 0 0 0 0 0 127 0" result="hardAlpha"/>
<feOffset dy="10"/>
<feGaussianBlur stdDeviation="8"/>
<feComposite in2="hardAlpha" operator="out"/>
<feColorMatrix type="matrix" values="0 0 0 0 0.00680556 0 0 0 0 0.0275901 0 0 0 0 0.116667 0 0 0 0.1 0"/>
<feBlend mode="normal" in2="BackgroundImageFix" result="effect1_dropShadow_125_1645"/>
<feBlend mode="normal" in="SourceGraphic" in2="effect1_dropShadow_125_1645" result="shape"/>
</filter>
</defs>
</svg>
