<svg width="344" height="402" viewBox="0 0 344 402" fill="none" xmlns="http://www.w3.org/2000/svg">
<g filter="url(#filter0_d_105_2053)">
<rect x="196" y="52" width="131" height="106" rx="18.3429" fill="white"/>
</g>
<path d="M236.148 135L233.838 131.15H232.97V135H230.996V125.116H234.762C235.91 125.116 236.782 125.396 237.38 125.956C237.986 126.516 238.29 127.253 238.29 128.168C238.29 128.915 238.08 129.54 237.66 130.044C237.249 130.548 236.652 130.884 235.868 131.052L238.332 135H236.148ZM232.97 129.792H234.594C235.723 129.792 236.288 129.293 236.288 128.294C236.288 127.818 236.148 127.449 235.868 127.188C235.597 126.917 235.172 126.782 234.594 126.782H232.97V129.792ZM246.917 130.828C246.917 131.024 246.893 131.248 246.847 131.5H241.163C241.191 132.191 241.377 132.699 241.723 133.026C242.068 133.353 242.497 133.516 243.011 133.516C243.468 133.516 243.846 133.404 244.145 133.18C244.453 132.956 244.649 132.653 244.733 132.27H246.819C246.716 132.811 246.497 133.297 246.161 133.726C245.825 134.155 245.391 134.491 244.859 134.734C244.336 134.977 243.753 135.098 243.109 135.098C242.353 135.098 241.681 134.939 241.093 134.622C240.505 134.295 240.047 133.833 239.721 133.236C239.394 132.639 239.231 131.934 239.231 131.122C239.231 130.31 239.394 129.605 239.721 129.008C240.047 128.401 240.505 127.939 241.093 127.622C241.681 127.305 242.353 127.146 243.109 127.146C243.874 127.146 244.541 127.305 245.111 127.622C245.689 127.939 246.133 128.378 246.441 128.938C246.758 129.489 246.917 130.119 246.917 130.828ZM244.929 130.632C244.957 129.997 244.789 129.517 244.425 129.19C244.07 128.863 243.631 128.7 243.109 128.7C242.577 128.7 242.129 128.863 241.765 129.19C241.401 129.517 241.2 129.997 241.163 130.632H244.929ZM250.992 127.146C251.935 127.146 252.691 127.384 253.26 127.86C253.829 128.336 254.184 128.971 254.324 129.764H252.476C252.401 129.391 252.233 129.092 251.972 128.868C251.711 128.644 251.37 128.532 250.95 128.532C250.614 128.532 250.353 128.611 250.166 128.77C249.979 128.929 249.886 129.143 249.886 129.414C249.886 129.629 249.961 129.801 250.11 129.932C250.259 130.063 250.446 130.165 250.67 130.24C250.894 130.315 251.216 130.403 251.636 130.506C252.224 130.637 252.7 130.777 253.064 130.926C253.437 131.066 253.755 131.295 254.016 131.612C254.287 131.92 254.422 132.34 254.422 132.872C254.422 133.535 254.161 134.071 253.638 134.482C253.125 134.893 252.429 135.098 251.552 135.098C250.544 135.098 249.737 134.874 249.13 134.426C248.523 133.969 248.155 133.32 248.024 132.48H249.914C249.961 132.863 250.129 133.166 250.418 133.39C250.707 133.605 251.085 133.712 251.552 133.712C251.888 133.712 252.145 133.633 252.322 133.474C252.499 133.306 252.588 133.091 252.588 132.83C252.588 132.606 252.509 132.424 252.35 132.284C252.201 132.144 252.009 132.037 251.776 131.962C251.552 131.887 251.23 131.799 250.81 131.696C250.231 131.565 249.76 131.435 249.396 131.304C249.041 131.164 248.733 130.945 248.472 130.646C248.22 130.347 248.094 129.937 248.094 129.414C248.094 128.742 248.351 128.196 248.864 127.776C249.377 127.356 250.087 127.146 250.992 127.146ZM263.186 130.828C263.186 131.024 263.163 131.248 263.116 131.5H257.432C257.46 132.191 257.647 132.699 257.992 133.026C258.337 133.353 258.767 133.516 259.28 133.516C259.737 133.516 260.115 133.404 260.414 133.18C260.722 132.956 260.918 132.653 261.002 132.27H263.088C262.985 132.811 262.766 133.297 262.43 133.726C262.094 134.155 261.66 134.491 261.128 134.734C260.605 134.977 260.022 135.098 259.378 135.098C258.622 135.098 257.95 134.939 257.362 134.622C256.774 134.295 256.317 133.833 255.99 133.236C255.663 132.639 255.5 131.934 255.5 131.122C255.5 130.31 255.663 129.605 255.99 129.008C256.317 128.401 256.774 127.939 257.362 127.622C257.95 127.305 258.622 127.146 259.378 127.146C260.143 127.146 260.811 127.305 261.38 127.622C261.959 127.939 262.402 128.378 262.71 128.938C263.027 129.489 263.186 130.119 263.186 130.828ZM261.198 130.632C261.226 129.997 261.058 129.517 260.694 129.19C260.339 128.863 259.901 128.7 259.378 128.7C258.846 128.7 258.398 128.863 258.034 129.19C257.67 129.517 257.469 129.997 257.432 130.632H261.198ZM267.625 127.146C268.279 127.146 268.839 127.3 269.305 127.608C269.772 127.916 270.103 128.331 270.299 128.854V127.244H272.259V135H270.299V133.376C270.103 133.899 269.772 134.319 269.305 134.636C268.839 134.944 268.279 135.098 267.625 135.098C266.972 135.098 266.384 134.939 265.861 134.622C265.339 134.305 264.928 133.847 264.629 133.25C264.34 132.643 264.195 131.934 264.195 131.122C264.195 130.31 264.34 129.605 264.629 129.008C264.928 128.401 265.339 127.939 265.861 127.622C266.384 127.305 266.972 127.146 267.625 127.146ZM268.241 128.868C267.625 128.868 267.131 129.069 266.757 129.47C266.384 129.871 266.197 130.422 266.197 131.122C266.197 131.822 266.384 132.373 266.757 132.774C267.131 133.166 267.625 133.362 268.241 133.362C268.839 133.362 269.329 133.161 269.711 132.76C270.103 132.349 270.299 131.803 270.299 131.122C270.299 130.431 270.103 129.885 269.711 129.484C269.329 129.073 268.839 128.868 268.241 128.868ZM276.022 128.728C276.312 128.233 276.694 127.846 277.17 127.566C277.646 127.277 278.178 127.132 278.766 127.132V129.246H278.192C276.746 129.246 276.022 129.918 276.022 131.262V135H274.048V127.244H276.022V128.728ZM283.345 127.146C284.344 127.146 285.174 127.417 285.837 127.958C286.509 128.499 286.929 129.237 287.097 130.17H285.011C284.927 129.759 284.736 129.437 284.437 129.204C284.138 128.961 283.76 128.84 283.303 128.84C282.78 128.84 282.342 129.036 281.987 129.428C281.642 129.811 281.469 130.375 281.469 131.122C281.469 131.869 281.642 132.438 281.987 132.83C282.342 133.213 282.78 133.404 283.303 133.404C283.76 133.404 284.138 133.287 284.437 133.054C284.736 132.811 284.927 132.485 285.011 132.074H287.097C286.929 133.007 286.509 133.745 285.837 134.286C285.174 134.827 284.344 135.098 283.345 135.098C282.589 135.098 281.917 134.939 281.329 134.622C280.741 134.295 280.284 133.833 279.957 133.236C279.63 132.639 279.467 131.934 279.467 131.122C279.467 130.31 279.63 129.605 279.957 129.008C280.284 128.401 280.741 127.939 281.329 127.622C281.917 127.305 282.589 127.146 283.345 127.146ZM293.12 127.132C294.016 127.132 294.73 127.426 295.262 128.014C295.794 128.602 296.06 129.428 296.06 130.492V135H294.1V130.716C294.1 130.1 293.941 129.624 293.624 129.288C293.306 128.943 292.872 128.77 292.322 128.77C291.762 128.77 291.314 128.952 290.978 129.316C290.642 129.68 290.474 130.203 290.474 130.884V135H288.5V124.64H290.474V128.798C290.679 128.275 291.015 127.869 291.482 127.58C291.958 127.281 292.504 127.132 293.12 127.132Z" fill="#0A1854"/>
<g clip-path="url(#clip0_105_2053)">
<path d="M253.238 109.528C253.089 109.528 252.945 109.472 252.834 109.372C252.723 109.272 252.654 109.134 252.639 108.985C252.628 108.871 252.622 108.757 252.622 108.64C252.622 107.624 253.026 106.65 253.744 105.931C254.463 105.213 255.437 104.809 256.453 104.809C257.469 104.809 258.444 105.213 259.162 105.931C259.881 106.65 260.284 107.624 260.284 108.64C260.284 108.756 260.279 108.871 260.267 108.985C260.253 109.134 260.183 109.272 260.072 109.372C259.962 109.472 259.817 109.528 259.668 109.528H253.238Z" fill="#516FE9"/>
<path d="M256.453 103.275C257.426 103.275 258.215 102.486 258.215 101.513C258.215 100.54 257.426 99.751 256.453 99.751C255.48 99.751 254.691 100.54 254.691 101.513C254.691 102.486 255.48 103.275 256.453 103.275Z" fill="#516FE9"/>
<path d="M271.864 98.4946L277.535 95.2201L282.884 104.483C283.318 105.235 283.435 106.129 283.211 106.968C282.986 107.807 282.437 108.522 281.685 108.956C280.933 109.39 280.039 109.508 279.201 109.283C278.362 109.059 277.647 108.51 277.212 107.758L271.864 98.4946Z" fill="#FBBE40"/>
<path d="M275.793 105.312L277.212 107.769C277.423 108.151 277.707 108.487 278.048 108.758C278.39 109.028 278.782 109.228 279.201 109.345C279.621 109.462 280.06 109.494 280.492 109.439C280.924 109.385 281.341 109.244 281.719 109.026C282.096 108.808 282.426 108.517 282.689 108.17C282.953 107.823 283.144 107.427 283.253 107.005C283.361 106.583 283.384 106.144 283.32 105.713C283.257 105.282 283.108 104.868 282.882 104.495L281.464 102.038L275.793 105.312Z" fill="#FBBE40"/>
<path d="M277.536 95.2275L271.864 98.5035L273.393 101.151C275.464 100.396 277.367 99.2428 278.994 97.7552L277.536 95.2275Z" fill="#FBBE40"/>
<path d="M267.664 101.195C276.421 101.195 283.52 94.0966 283.52 85.3398C283.52 76.5831 276.421 69.4844 267.664 69.4844C258.907 69.4844 251.809 76.5831 251.809 85.3398C251.809 94.0966 258.907 101.195 267.664 101.195Z" fill="#FBBE40"/>
<path d="M267.664 97.187C274.209 97.187 279.516 91.8809 279.516 85.3354C279.516 78.79 274.209 73.4839 267.664 73.4839C261.119 73.4839 255.812 78.79 255.812 85.3354C255.812 91.8809 261.119 97.187 267.664 97.187Z" fill="white"/>
<path d="M244.447 109.527C244.246 109.527 244.052 109.452 243.903 109.318C243.754 109.183 243.661 108.997 243.641 108.797C243.626 108.645 243.618 108.49 243.618 108.334C243.618 106.969 244.16 105.66 245.126 104.695C246.091 103.729 247.4 103.187 248.765 103.187C250.13 103.187 251.439 103.729 252.405 104.695C253.37 105.66 253.912 106.969 253.912 108.334C253.912 108.49 253.904 108.645 253.889 108.797C253.87 108.997 253.776 109.182 253.627 109.317C253.479 109.452 253.285 109.527 253.084 109.527H244.447Z" fill="#F65535"/>
<path d="M248.766 101.514C250.093 101.514 251.169 100.438 251.169 99.1114C251.169 97.7846 250.093 96.709 248.766 96.709C247.439 96.709 246.364 97.7846 246.364 99.1114C246.364 100.438 247.439 101.514 248.766 101.514Z" fill="#F65535"/>
<path d="M255.812 73.8047C249.056 73.8047 243.579 78.3887 243.579 84.0435C243.591 85.9905 244.234 87.8813 245.411 89.4321C245.407 89.4616 245.407 89.491 245.401 89.5199C245.114 90.9659 245.121 92.4549 245.421 93.8982C245.47 94.1419 245.587 94.3669 245.758 94.5473C245.929 94.7278 246.147 94.8563 246.388 94.9183C246.629 94.9802 246.882 94.9731 247.119 94.8977C247.356 94.8222 247.567 94.6815 247.727 94.4918C248.288 93.8643 248.941 93.3254 249.663 92.8934C251.581 93.8168 253.684 94.2918 255.812 94.2823C262.569 94.2823 268.046 89.6983 268.046 84.0435C268.046 78.3887 262.569 73.8047 255.812 73.8047Z" fill="#516FE9"/>
<path d="M261.098 81.4864H250.527C250.4 81.4864 250.278 81.4357 250.188 81.3456C250.097 81.2555 250.047 81.1333 250.047 81.0059C250.047 80.8784 250.097 80.7562 250.188 80.6661C250.278 80.576 250.4 80.5254 250.527 80.5254H261.098C261.226 80.5254 261.348 80.576 261.438 80.6661C261.528 80.7562 261.579 80.8784 261.579 81.0059C261.579 81.1333 261.528 81.2555 261.438 81.3456C261.348 81.4357 261.226 81.4864 261.098 81.4864Z" fill="white"/>
<path d="M261.098 84.6914H250.527C250.4 84.6914 250.278 84.6408 250.188 84.5507C250.097 84.4606 250.047 84.3384 250.047 84.211C250.047 84.0835 250.097 83.9613 250.188 83.8712C250.278 83.7811 250.4 83.7305 250.527 83.7305H261.098C261.226 83.7305 261.348 83.7811 261.438 83.8712C261.528 83.9613 261.579 84.0835 261.579 84.211C261.579 84.3384 261.528 84.4606 261.438 84.5507C261.348 84.6408 261.226 84.6914 261.098 84.6914Z" fill="white"/>
<path d="M261.098 87.8911H250.527C250.4 87.8911 250.278 87.8405 250.188 87.7504C250.097 87.6603 250.047 87.5381 250.047 87.4107C250.047 87.2832 250.097 87.161 250.188 87.0709C250.278 86.9808 250.4 86.9302 250.527 86.9302H261.098C261.226 86.9302 261.348 86.9808 261.438 87.0709C261.528 87.161 261.579 87.2832 261.579 87.4107C261.579 87.5381 261.528 87.6603 261.438 87.7504C261.348 87.8405 261.226 87.8911 261.098 87.8911Z" fill="white"/>
</g>
<g filter="url(#filter1_d_105_2053)">
<rect x="196" y="172" width="131" height="127" rx="18.3429" fill="white"/>
</g>
<g clip-path="url(#clip1_105_2053)">
<path d="M277.637 220.742C277.637 225.301 273.942 228.996 269.383 228.996H245.827C244.266 228.996 243 227.73 243 226.169V201.427H277.637V220.742Z" fill="#516FE9"/>
<path d="M248.655 224.755V201.427H247.241V223.341H245.827C244.266 223.341 243 224.607 243 226.169C243.002 226.51 243.066 226.849 243.19 227.168C243.624 225.694 244.999 224.702 246.534 224.755H248.655Z" fill="#002A5A"/>
<path d="M277.637 202.845L251.482 229H273.051C275.584 229 277.637 226.947 277.637 224.415V202.845Z" fill="#7590FD"/>
<path d="M247.241 223.347H245.827C244.266 223.347 243 224.613 243 226.175V198.606C243 197.044 244.266 195.778 245.827 195.778H247.241V223.347Z" fill="#F65535"/>
<path d="M250.07 204.963H258.553V210.619H250.07V204.963Z" fill="white"/>
<path d="M250.07 217.685H258.553V223.34H250.07V217.685Z" fill="white"/>
<path d="M265.622 204.963H274.105V210.619H265.622V204.963Z" fill="white"/>
<path d="M265.622 217.685H274.105V223.34H265.622V217.685Z" fill="white"/>
<path d="M258.551 207.099H265.62V208.512H258.551V207.099Z" fill="white"/>
<path d="M269.155 210.624H270.569V217.693H269.155V210.624Z" fill="white"/>
<path d="M258.551 219.814H265.62V221.228H258.551V219.814Z" fill="white"/>
<path d="M282.247 201.431C283.215 201.431 284 200.647 284 199.679V198.942C284 197.974 283.215 197.19 282.247 197.19H282.081C281.383 197.19 280.785 196.713 280.518 196.068C280.251 195.422 280.337 194.661 280.832 194.168L280.949 194.051C281.634 193.368 281.635 192.259 280.951 191.575L280.425 191.049C279.741 190.365 278.631 190.366 277.948 191.051L277.832 191.168C277.338 191.663 276.578 191.749 275.932 191.481C275.287 191.214 274.81 190.617 274.81 189.919V189.752C274.81 188.784 274.025 188 273.058 188H272.321C271.353 188 270.569 188.784 270.569 189.752V189.919C270.569 190.617 270.092 191.214 269.447 191.481C268.801 191.749 268.04 191.663 267.547 191.168L267.43 191.051C266.747 190.366 265.638 190.365 264.954 191.049L264.428 191.575C263.744 192.259 263.745 193.368 264.43 194.051L264.547 194.168C265.042 194.661 265.128 195.422 264.86 196.068C264.593 196.713 263.996 197.19 263.297 197.19H263.131C262.163 197.19 261.379 197.974 261.379 198.942V199.679C261.379 200.647 262.163 201.431 263.131 201.431H263.297C263.996 201.431 264.593 201.908 264.86 202.553C265.128 203.199 265.042 203.959 264.547 204.453L264.431 204.568C263.745 205.252 263.746 206.362 264.431 207.045L265.182 207.793C265.74 208.351 266.646 208.351 267.204 207.793L267.546 207.451C268.04 206.957 268.8 206.872 269.446 207.139C270.091 207.407 270.569 208.004 270.569 208.703V208.868C270.569 209.836 271.353 210.621 272.321 210.621H273.058C274.025 210.621 274.81 209.836 274.81 208.868V208.703C274.81 208.004 275.287 207.407 275.933 207.139C276.578 206.872 277.338 206.957 277.833 207.451L277.949 207.567C278.632 208.251 279.74 208.251 280.424 207.569L280.949 207.045C281.634 206.362 281.633 205.252 280.948 204.569L280.832 204.453C280.337 203.959 280.251 203.199 280.518 202.553C280.785 201.908 281.383 201.431 282.081 201.431H282.247ZM270.569 199.31C270.569 198.139 271.518 197.19 272.689 197.19C273.86 197.19 274.81 198.139 274.81 199.31C274.81 200.481 273.86 201.431 272.689 201.431C271.518 201.431 270.569 200.481 270.569 199.31Z" fill="#FFB531"/>
<path d="M272.689 205.679C269.176 205.679 266.327 202.83 266.327 199.316C266.327 195.803 269.176 192.954 272.689 192.954C276.203 192.954 279.052 195.803 279.052 199.316C279.048 202.829 276.202 205.675 272.689 205.679ZM272.689 194.368C269.956 194.368 267.741 196.583 267.741 199.316C267.741 202.05 269.956 204.265 272.689 204.265C275.423 204.265 277.638 202.05 277.638 199.316C277.635 196.585 275.421 194.371 272.689 194.368Z" fill="#F7A116"/>
</g>
<path d="M222.933 245.116V255H220.959V245.116H222.933ZM234.589 247.132C235.532 247.132 236.274 247.426 236.815 248.014C237.366 248.593 237.641 249.419 237.641 250.492V255H235.681V250.716C235.681 250.119 235.527 249.661 235.219 249.344C234.921 249.017 234.505 248.854 233.973 248.854C233.423 248.854 232.984 249.027 232.657 249.372C232.331 249.717 232.167 250.221 232.167 250.884V255H230.207V250.716C230.207 250.119 230.053 249.661 229.745 249.344C229.447 249.017 229.031 248.854 228.499 248.854C227.949 248.854 227.51 249.027 227.183 249.372C226.857 249.717 226.693 250.221 226.693 250.884V255H224.719V247.244H226.693V248.714C226.899 248.21 227.221 247.823 227.659 247.552C228.107 247.272 228.625 247.132 229.213 247.132C229.839 247.132 230.38 247.281 230.837 247.58C231.304 247.879 231.654 248.308 231.887 248.868C232.13 248.336 232.489 247.916 232.965 247.608C233.451 247.291 233.992 247.132 234.589 247.132ZM244.009 247.146C244.663 247.146 245.251 247.305 245.773 247.622C246.296 247.939 246.702 248.401 246.991 249.008C247.29 249.605 247.439 250.31 247.439 251.122C247.439 251.934 247.29 252.643 246.991 253.25C246.702 253.847 246.296 254.305 245.773 254.622C245.251 254.939 244.663 255.098 244.009 255.098C243.356 255.098 242.796 254.944 242.329 254.636C241.872 254.319 241.545 253.899 241.349 253.376V258.696H239.375V247.244H241.349V248.854C241.545 248.331 241.872 247.916 242.329 247.608C242.796 247.3 243.356 247.146 244.009 247.146ZM243.393 248.868C242.796 248.868 242.301 249.073 241.909 249.484C241.527 249.885 241.335 250.431 241.335 251.122C241.335 251.803 241.527 252.349 241.909 252.76C242.301 253.161 242.796 253.362 243.393 253.362C244.009 253.362 244.504 253.166 244.877 252.774C245.251 252.373 245.437 251.822 245.437 251.122C245.437 250.422 245.251 249.871 244.877 249.47C244.504 249.069 244.009 248.868 243.393 248.868ZM250.81 244.64V255H248.836V244.64H250.81ZM259.89 250.828C259.89 251.024 259.867 251.248 259.82 251.5H254.136C254.164 252.191 254.351 252.699 254.696 253.026C255.042 253.353 255.471 253.516 255.984 253.516C256.442 253.516 256.82 253.404 257.118 253.18C257.426 252.956 257.622 252.653 257.706 252.27H259.792C259.69 252.811 259.47 253.297 259.134 253.726C258.798 254.155 258.364 254.491 257.832 254.734C257.31 254.977 256.726 255.098 256.082 255.098C255.326 255.098 254.654 254.939 254.066 254.622C253.478 254.295 253.021 253.833 252.694 253.236C252.368 252.639 252.204 251.934 252.204 251.122C252.204 250.31 252.368 249.605 252.694 249.008C253.021 248.401 253.478 247.939 254.066 247.622C254.654 247.305 255.326 247.146 256.082 247.146C256.848 247.146 257.515 247.305 258.084 247.622C258.663 247.939 259.106 248.378 259.414 248.938C259.732 249.489 259.89 250.119 259.89 250.828ZM257.902 250.632C257.93 249.997 257.762 249.517 257.398 249.19C257.044 248.863 256.605 248.7 256.082 248.7C255.55 248.7 255.102 248.863 254.738 249.19C254.374 249.517 254.174 249.997 254.136 250.632H257.902ZM271.162 247.132C272.104 247.132 272.846 247.426 273.388 248.014C273.938 248.593 274.214 249.419 274.214 250.492V255H272.254V250.716C272.254 250.119 272.1 249.661 271.792 249.344C271.493 249.017 271.078 248.854 270.546 248.854C269.995 248.854 269.556 249.027 269.23 249.372C268.903 249.717 268.74 250.221 268.74 250.884V255H266.78V250.716C266.78 250.119 266.626 249.661 266.318 249.344C266.019 249.017 265.604 248.854 265.072 248.854C264.521 248.854 264.082 249.027 263.756 249.372C263.429 249.717 263.266 250.221 263.266 250.884V255H261.292V247.244H263.266V248.714C263.471 248.21 263.793 247.823 264.232 247.552C264.68 247.272 265.198 247.132 265.786 247.132C266.411 247.132 266.952 247.281 267.41 247.58C267.876 247.879 268.226 248.308 268.46 248.868C268.702 248.336 269.062 247.916 269.538 247.608C270.023 247.291 270.564 247.132 271.162 247.132ZM283.242 250.828C283.242 251.024 283.218 251.248 283.172 251.5H277.488C277.516 252.191 277.702 252.699 278.048 253.026C278.393 253.353 278.822 253.516 279.336 253.516C279.793 253.516 280.171 253.404 280.47 253.18C280.778 252.956 280.974 252.653 281.058 252.27H283.144C283.041 252.811 282.822 253.297 282.486 253.726C282.15 254.155 281.716 254.491 281.184 254.734C280.661 254.977 280.078 255.098 279.434 255.098C278.678 255.098 278.006 254.939 277.418 254.622C276.83 254.295 276.372 253.833 276.046 253.236C275.719 252.639 275.556 251.934 275.556 251.122C275.556 250.31 275.719 249.605 276.046 249.008C276.372 248.401 276.83 247.939 277.418 247.622C278.006 247.305 278.678 247.146 279.434 247.146C280.199 247.146 280.866 247.305 281.436 247.622C282.014 247.939 282.458 248.378 282.766 248.938C283.083 249.489 283.242 250.119 283.242 250.828ZM281.254 250.632C281.282 249.997 281.114 249.517 280.75 249.19C280.395 248.863 279.956 248.7 279.434 248.7C278.902 248.7 278.454 248.863 278.09 249.19C277.726 249.517 277.525 249.997 277.488 250.632H281.254ZM289.263 247.132C290.159 247.132 290.873 247.426 291.405 248.014C291.937 248.602 292.203 249.428 292.203 250.492V255H290.243V250.716C290.243 250.1 290.084 249.624 289.767 249.288C289.45 248.943 289.016 248.77 288.465 248.77C287.905 248.77 287.457 248.952 287.121 249.316C286.785 249.68 286.617 250.203 286.617 250.884V255H284.643V247.244H286.617V248.798C286.822 248.275 287.158 247.869 287.625 247.58C288.101 247.281 288.647 247.132 289.263 247.132ZM298.084 253.306V255H297.048C296.18 255 295.513 254.79 295.046 254.37C294.589 253.95 294.36 253.25 294.36 252.27V248.91H293.282V247.244H294.36V245.326H296.334V247.244H298.07V248.91H296.334V252.298C296.334 252.671 296.409 252.933 296.558 253.082C296.707 253.231 296.959 253.306 297.314 253.306H298.084ZM304.53 249.19V250.828H298.58V249.19H304.53ZM248.415 268.146C249.069 268.146 249.629 268.3 250.095 268.608C250.562 268.916 250.893 269.331 251.089 269.854V268.244H253.049V276H251.089V274.376C250.893 274.899 250.562 275.319 250.095 275.636C249.629 275.944 249.069 276.098 248.415 276.098C247.762 276.098 247.174 275.939 246.651 275.622C246.129 275.305 245.718 274.847 245.419 274.25C245.13 273.643 244.985 272.934 244.985 272.122C244.985 271.31 245.13 270.605 245.419 270.008C245.718 269.401 246.129 268.939 246.651 268.622C247.174 268.305 247.762 268.146 248.415 268.146ZM249.031 269.868C248.415 269.868 247.921 270.069 247.547 270.47C247.174 270.871 246.987 271.422 246.987 272.122C246.987 272.822 247.174 273.373 247.547 273.774C247.921 274.166 248.415 274.362 249.031 274.362C249.629 274.362 250.119 274.161 250.501 273.76C250.893 273.349 251.089 272.803 251.089 272.122C251.089 271.431 250.893 270.885 250.501 270.484C250.119 270.073 249.629 269.868 249.031 269.868ZM258.982 274.306V276H257.946C257.078 276 256.411 275.79 255.944 275.37C255.487 274.95 255.258 274.25 255.258 273.27V269.91H254.18V268.244H255.258V266.326H257.232V268.244H258.968V269.91H257.232V273.298C257.232 273.671 257.307 273.933 257.456 274.082C257.606 274.231 257.858 274.306 258.212 274.306H258.982ZM260.179 266.018C260.179 265.701 260.291 265.444 260.515 265.248C260.739 265.043 261.033 264.94 261.397 264.94C261.761 264.94 262.055 265.043 262.279 265.248C262.503 265.444 262.615 265.701 262.615 266.018C262.615 266.326 262.503 266.583 262.279 266.788C262.055 266.984 261.761 267.082 261.397 267.082C261.033 267.082 260.739 266.984 260.515 266.788C260.291 266.583 260.179 266.326 260.179 266.018ZM262.377 268.244V276H260.403V268.244H262.377ZM267.747 268.146C268.503 268.146 269.179 268.305 269.777 268.622C270.383 268.939 270.859 269.401 271.205 270.008C271.55 270.605 271.723 271.31 271.723 272.122C271.723 272.934 271.55 273.639 271.205 274.236C270.859 274.833 270.383 275.295 269.777 275.622C269.179 275.939 268.503 276.098 267.747 276.098C266.991 276.098 266.309 275.939 265.703 275.622C265.105 275.295 264.634 274.833 264.289 274.236C263.943 273.639 263.771 272.934 263.771 272.122C263.771 271.31 263.943 270.605 264.289 270.008C264.634 269.401 265.105 268.939 265.703 268.622C266.309 268.305 266.991 268.146 267.747 268.146ZM267.747 269.854C267.196 269.854 266.729 270.05 266.347 270.442C265.964 270.825 265.773 271.385 265.773 272.122C265.773 272.859 265.964 273.424 266.347 273.816C266.729 274.199 267.196 274.39 267.747 274.39C268.297 274.39 268.764 274.199 269.147 273.816C269.529 273.424 269.721 272.859 269.721 272.122C269.721 271.385 269.529 270.825 269.147 270.442C268.764 270.05 268.297 269.854 267.747 269.854ZM277.738 268.132C278.634 268.132 279.348 268.426 279.88 269.014C280.412 269.602 280.678 270.428 280.678 271.492V276H278.718V271.716C278.718 271.1 278.559 270.624 278.242 270.288C277.924 269.943 277.49 269.77 276.94 269.77C276.38 269.77 275.932 269.952 275.596 270.316C275.26 270.68 275.092 271.203 275.092 271.884V276H273.118V268.244H275.092V269.798C275.297 269.275 275.633 268.869 276.1 268.58C276.576 268.281 277.122 268.132 277.738 268.132Z" fill="#0A1854"/>
<g filter="url(#filter2_d_105_2053)">
<rect x="17" y="27" width="131" height="106" rx="18.3429" fill="white"/>
</g>
<path d="M63.0302 100.116V110H61.0562V100.116H63.0302ZM69.4359 102.132C70.3319 102.132 71.0459 102.426 71.5779 103.014C72.1099 103.602 72.3759 104.428 72.3759 105.492V110H70.4159V105.716C70.4159 105.1 70.2573 104.624 69.9399 104.288C69.6226 103.943 69.1886 103.77 68.6379 103.77C68.0779 103.77 67.6299 103.952 67.2939 104.316C66.9579 104.68 66.7899 105.203 66.7899 105.884V110H64.8159V102.244H66.7899V103.798C66.9953 103.275 67.3313 102.869 67.7979 102.58C68.2739 102.281 68.8199 102.132 69.4359 102.132ZM78.2568 108.306V110H77.2208C76.3528 110 75.6855 109.79 75.2188 109.37C74.7615 108.95 74.5328 108.25 74.5328 107.27V103.91H73.4548V102.244H74.5328V100.326H76.5068V102.244H78.2428V103.91H76.5068V107.298C76.5068 107.671 76.5815 107.933 76.7308 108.082C76.8801 108.231 77.1321 108.306 77.4868 108.306H78.2568ZM82.7153 102.146C83.3686 102.146 83.9286 102.3 84.3953 102.608C84.8619 102.916 85.1933 103.331 85.3893 103.854V102.244H87.3493V110H85.3893V108.376C85.1933 108.899 84.8619 109.319 84.3953 109.636C83.9286 109.944 83.3686 110.098 82.7153 110.098C82.0619 110.098 81.4739 109.939 80.9513 109.622C80.4286 109.305 80.0179 108.847 79.7193 108.25C79.4299 107.643 79.2853 106.934 79.2853 106.122C79.2853 105.31 79.4299 104.605 79.7193 104.008C80.0179 103.401 80.4286 102.939 80.9513 102.622C81.4739 102.305 82.0619 102.146 82.7153 102.146ZM83.3313 103.868C82.7153 103.868 82.2206 104.069 81.8473 104.47C81.4739 104.871 81.2873 105.422 81.2873 106.122C81.2873 106.822 81.4739 107.373 81.8473 107.774C82.2206 108.166 82.7153 108.362 83.3313 108.362C83.9286 108.362 84.4186 108.161 84.8013 107.76C85.1933 107.349 85.3893 106.803 85.3893 106.122C85.3893 105.431 85.1933 104.885 84.8013 104.484C84.4186 104.073 83.9286 103.868 83.3313 103.868ZM93.6742 110L91.1122 106.612V110H89.1382V99.64H91.1122V105.464L93.6602 102.244H95.9982L92.7362 106.108L96.0822 110H93.6742ZM104.335 105.828C104.335 106.024 104.311 106.248 104.265 106.5H98.5805C98.6085 107.191 98.7952 107.699 99.1405 108.026C99.4859 108.353 99.9152 108.516 100.429 108.516C100.886 108.516 101.264 108.404 101.563 108.18C101.871 107.956 102.067 107.653 102.151 107.27H104.237C104.134 107.811 103.915 108.297 103.579 108.726C103.243 109.155 102.809 109.491 102.277 109.734C101.754 109.977 101.171 110.098 100.527 110.098C99.7705 110.098 99.0985 109.939 98.5105 109.622C97.9225 109.295 97.4652 108.833 97.1385 108.236C96.8119 107.639 96.6485 106.934 96.6485 106.122C96.6485 105.31 96.8119 104.605 97.1385 104.008C97.4652 103.401 97.9225 102.939 98.5105 102.622C99.0985 102.305 99.7705 102.146 100.527 102.146C101.292 102.146 101.959 102.305 102.529 102.622C103.107 102.939 103.551 103.378 103.859 103.938C104.176 104.489 104.335 105.119 104.335 105.828ZM102.347 105.632C102.375 104.997 102.207 104.517 101.843 104.19C101.488 103.863 101.049 103.7 100.527 103.7C99.9945 103.7 99.5465 103.863 99.1825 104.19C98.8185 104.517 98.6179 104.997 98.5805 105.632H102.347Z" fill="#0A1854"/>
<path d="M94.4305 86.3841H68.4055C68.1816 86.3841 68 86.2026 68 85.9786V51.6511C68 51.4272 68.1815 51.2456 68.4055 51.2456H69.6993L89.5526 52.0179C89.6601 52.0179 89.7632 52.0606 89.8393 52.1366L93.9448 56.2422C94.0208 56.3182 94.0636 56.4214 94.0636 56.5289L94.8359 84.6847V85.9786C94.836 86.2026 94.6545 86.3841 94.4305 86.3841Z" fill="#516FE9"/>
<path d="M97.9252 48.8028C97.9252 48.3594 97.5657 48 97.1224 48H71.6491C71.4252 48 71.2437 48.1816 71.2437 48.4055V82.733C71.2437 82.957 71.4252 83.1385 71.6491 83.1385H95.975H96.0522L97.5197 82.9841C97.7436 82.9841 97.9252 82.8025 97.9252 82.5786V53.9847V48.8028Z" fill="#FBBE40"/>
<path d="M74.8541 66.8707H81.1069C81.3947 66.8707 81.628 66.6374 81.628 66.3496V60.0968C81.628 59.809 81.3947 59.5757 81.1069 59.5757H74.8541C74.5663 59.5757 74.333 59.809 74.333 60.0968V66.3496C74.333 66.6373 74.5663 66.8707 74.8541 66.8707Z" fill="white"/>
<path d="M78.5016 65.0862C78.3001 65.0862 78.1045 65.0119 77.9532 64.8758L76.5527 63.6154C76.2161 63.3124 76.1888 62.794 76.4918 62.4575C76.7948 62.1207 77.3131 62.0935 77.6497 62.3965L78.3738 63.0482L81.5566 58.6718C81.823 58.3055 82.3359 58.2244 82.7021 58.4909C83.0683 58.7573 83.1493 59.2701 82.8829 59.6364L79.1648 64.7489C79.0282 64.9367 78.8183 65.0578 78.5873 65.0821C78.5587 65.0847 78.5301 65.0862 78.5016 65.0862Z" fill="#545AE8"/>
<path d="M74.8541 77.9918H81.1069C81.3947 77.9918 81.628 77.7585 81.628 77.4707V71.2179C81.628 70.93 81.3947 70.6968 81.1069 70.6968H74.8541C74.5663 70.6968 74.333 70.93 74.333 71.2179V77.4707C74.333 77.7585 74.5663 77.9918 74.8541 77.9918Z" fill="white"/>
<path d="M78.5016 76.2123C78.3001 76.2123 78.1045 76.138 77.9532 76.0019L76.5527 74.7415C76.2161 74.4385 76.1888 73.9201 76.4918 73.5835C76.7948 73.2469 77.313 73.2196 77.6497 73.5226L78.3738 74.1741L81.5566 69.7978C81.823 69.4315 82.3359 69.3504 82.7021 69.6169C83.0683 69.8833 83.1493 70.3961 82.8829 70.7623L79.1648 75.8747C79.0282 76.0626 78.8183 76.1837 78.5873 76.208C78.5587 76.2108 78.5301 76.2123 78.5016 76.2123Z" fill="#545AE8"/>
<rect x="85.2979" y="61.5449" width="9.59559" height="2.82223" fill="white"/>
<rect x="74.0088" y="51.9492" width="20.8845" height="3.95112" fill="#F65535"/>
<rect x="85.2979" y="72.8359" width="9.59559" height="2.82223" fill="white"/>
<g filter="url(#filter3_d_105_2053)">
<rect x="17" y="151" width="131" height="106" rx="18.3429" fill="white"/>
</g>
<path d="M73.1875 199.75V178.188H93.3125V199.75H94.75V176.75H71.75V199.75H73.1875Z" fill="#505050"/>
<path d="M76.0625 171H90.4375V182.5H76.0625V171Z" fill="#FBBE40"/>
<path d="M66 199.75H78.9375V208.375H66V199.75Z" fill="#516FE9"/>
<path d="M87.5625 199.75H100.5V208.375H87.5625V199.75Z" fill="#F65535"/>
<path d="M72.4688 196.875C68.8958 196.875 66 193.979 66 190.406C66 186.833 68.8958 183.938 72.4688 183.938C76.0417 183.938 78.9375 186.833 78.9375 190.406C78.9375 193.979 76.0417 196.875 72.4688 196.875Z" fill="#516FE9"/>
<path d="M76.0625 189.688L71.75 194L68.875 191.125L70.3125 189.688L71.75 191.125L74.625 188.25L76.0625 189.688Z" fill="#F0F0F0"/>
<path d="M94.0313 196.875C90.4583 196.875 87.5625 193.979 87.5625 190.406C87.5625 186.833 90.4583 183.938 94.0313 183.938C97.6042 183.938 100.5 186.833 100.5 190.406C100.5 193.979 97.6042 196.875 94.0313 196.875Z" fill="#F65535"/>
<path d="M90.4331 192.562L96.1824 186.813L97.6195 188.25L91.8702 194L90.4331 192.562Z" fill="#F0F0F0"/>
<path d="M90.4331 188.25L91.8702 186.813L97.6195 192.562L96.1824 193.999L90.4331 188.25Z" fill="#F0F0F0"/>
<path d="M47.3957 234L45.0857 230.15H44.2177V234H42.2437V224.116H46.0097C47.1577 224.116 48.0303 224.396 48.6277 224.956C49.2343 225.516 49.5377 226.253 49.5377 227.168C49.5377 227.915 49.3277 228.54 48.9077 229.044C48.497 229.548 47.8997 229.884 47.1157 230.052L49.5797 234H47.3957ZM44.2177 228.792H45.8417C46.971 228.792 47.5357 228.293 47.5357 227.294C47.5357 226.818 47.3957 226.449 47.1157 226.188C46.845 225.917 46.4203 225.782 45.8417 225.782H44.2177V228.792ZM58.1646 229.828C58.1646 230.024 58.1413 230.248 58.0946 230.5H52.4106C52.4386 231.191 52.6253 231.699 52.9706 232.026C53.3159 232.353 53.7453 232.516 54.2586 232.516C54.7159 232.516 55.0939 232.404 55.3926 232.18C55.7006 231.956 55.8966 231.653 55.9806 231.27H58.0666C57.9639 231.811 57.7446 232.297 57.4086 232.726C57.0726 233.155 56.6386 233.491 56.1066 233.734C55.5839 233.977 55.0006 234.098 54.3566 234.098C53.6006 234.098 52.9286 233.939 52.3406 233.622C51.7526 233.295 51.2953 232.833 50.9686 232.236C50.6419 231.639 50.4786 230.934 50.4786 230.122C50.4786 229.31 50.6419 228.605 50.9686 228.008C51.2953 227.401 51.7526 226.939 52.3406 226.622C52.9286 226.305 53.6006 226.146 54.3566 226.146C55.1219 226.146 55.7893 226.305 56.3586 226.622C56.9373 226.939 57.3806 227.378 57.6886 227.938C58.0059 228.489 58.1646 229.119 58.1646 229.828ZM56.1766 229.632C56.2046 228.997 56.0366 228.517 55.6726 228.19C55.3179 227.863 54.8793 227.7 54.3566 227.7C53.8246 227.7 53.3766 227.863 53.0126 228.19C52.6486 228.517 52.4479 228.997 52.4106 229.632H56.1766ZM63.4019 224.9C62.8233 224.863 62.4173 224.947 62.1839 225.152C61.9506 225.357 61.8339 225.717 61.8339 226.23V226.244H63.4019V227.91H61.8339V234H59.8599V227.91H58.8659V226.244H59.8599V226.062C59.8599 225.138 60.1213 224.429 60.6439 223.934C61.1759 223.43 61.9599 223.178 62.9959 223.178C63.1733 223.178 63.3086 223.183 63.4019 223.192V224.9ZM64.3595 224.018C64.3595 223.701 64.4715 223.444 64.6955 223.248C64.9195 223.043 65.2135 222.94 65.5775 222.94C65.9415 222.94 66.2355 223.043 66.4595 223.248C66.6835 223.444 66.7955 223.701 66.7955 224.018C66.7955 224.326 66.6835 224.583 66.4595 224.788C66.2355 224.984 65.9415 225.082 65.5775 225.082C65.2135 225.082 64.9195 224.984 64.6955 224.788C64.4715 224.583 64.3595 224.326 64.3595 224.018ZM66.5575 226.244V234H64.5835V226.244H66.5575ZM72.9633 226.132C73.8593 226.132 74.5733 226.426 75.1053 227.014C75.6373 227.602 75.9033 228.428 75.9033 229.492V234H73.9433V229.716C73.9433 229.1 73.7846 228.624 73.4673 228.288C73.1499 227.943 72.7159 227.77 72.1653 227.77C71.6053 227.77 71.1573 227.952 70.8213 228.316C70.4853 228.68 70.3173 229.203 70.3173 229.884V234H68.3433V226.244H70.3173V227.798C70.5226 227.275 70.8586 226.869 71.3253 226.58C71.8013 226.281 72.3473 226.132 72.9633 226.132ZM84.9341 229.828C84.9341 230.024 84.9108 230.248 84.8641 230.5H79.1801C79.2081 231.191 79.3948 231.699 79.7401 232.026C80.0855 232.353 80.5148 232.516 81.0281 232.516C81.4855 232.516 81.8635 232.404 82.1621 232.18C82.4701 231.956 82.6661 231.653 82.7501 231.27H84.8361C84.7335 231.811 84.5141 232.297 84.1781 232.726C83.8421 233.155 83.4081 233.491 82.8761 233.734C82.3535 233.977 81.7701 234.098 81.1261 234.098C80.3701 234.098 79.6981 233.939 79.1101 233.622C78.5221 233.295 78.0648 232.833 77.7381 232.236C77.4115 231.639 77.2481 230.934 77.2481 230.122C77.2481 229.31 77.4115 228.605 77.7381 228.008C78.0648 227.401 78.5221 226.939 79.1101 226.622C79.6981 226.305 80.3701 226.146 81.1261 226.146C81.8915 226.146 82.5588 226.305 83.1281 226.622C83.7068 226.939 84.1501 227.378 84.4581 227.938C84.7755 228.489 84.9341 229.119 84.9341 229.828ZM82.9461 229.632C82.9741 228.997 82.8061 228.517 82.4421 228.19C82.0875 227.863 81.6488 227.7 81.1261 227.7C80.5941 227.7 80.1461 227.863 79.7821 228.19C79.4181 228.517 79.2175 228.997 79.1801 229.632H82.9461ZM96.2055 226.132C97.1481 226.132 97.8901 226.426 98.4315 227.014C98.9821 227.593 99.2575 228.419 99.2575 229.492V234H97.2975V229.716C97.2975 229.119 97.1435 228.661 96.8355 228.344C96.5368 228.017 96.1215 227.854 95.5895 227.854C95.0388 227.854 94.6001 228.027 94.2735 228.372C93.9468 228.717 93.7835 229.221 93.7835 229.884V234H91.8235V229.716C91.8235 229.119 91.6695 228.661 91.3615 228.344C91.0628 228.017 90.6475 227.854 90.1155 227.854C89.5648 227.854 89.1261 228.027 88.7995 228.372C88.4728 228.717 88.3095 229.221 88.3095 229.884V234H86.3355V226.244H88.3095V227.714C88.5148 227.21 88.8368 226.823 89.2755 226.552C89.7235 226.272 90.2415 226.132 90.8295 226.132C91.4548 226.132 91.9961 226.281 92.4535 226.58C92.9201 226.879 93.2701 227.308 93.5035 227.868C93.7461 227.336 94.1055 226.916 94.5815 226.608C95.0668 226.291 95.6081 226.132 96.2055 226.132ZM108.286 229.828C108.286 230.024 108.262 230.248 108.216 230.5H102.532C102.56 231.191 102.746 231.699 103.092 232.026C103.437 232.353 103.866 232.516 104.38 232.516C104.837 232.516 105.215 232.404 105.514 232.18C105.822 231.956 106.018 231.653 106.102 231.27H108.188C108.085 231.811 107.866 232.297 107.53 232.726C107.194 233.155 106.76 233.491 106.228 233.734C105.705 233.977 105.122 234.098 104.478 234.098C103.722 234.098 103.05 233.939 102.462 233.622C101.874 233.295 101.416 232.833 101.09 232.236C100.763 231.639 100.6 230.934 100.6 230.122C100.6 229.31 100.763 228.605 101.09 228.008C101.416 227.401 101.874 226.939 102.462 226.622C103.05 226.305 103.722 226.146 104.478 226.146C105.243 226.146 105.91 226.305 106.48 226.622C107.058 226.939 107.502 227.378 107.81 227.938C108.127 228.489 108.286 229.119 108.286 229.828ZM106.298 229.632C106.326 228.997 106.158 228.517 105.794 228.19C105.439 227.863 105 227.7 104.478 227.7C103.946 227.7 103.498 227.863 103.134 228.19C102.77 228.517 102.569 228.997 102.532 229.632H106.298ZM114.307 226.132C115.203 226.132 115.917 226.426 116.449 227.014C116.981 227.602 117.247 228.428 117.247 229.492V234H115.287V229.716C115.287 229.1 115.128 228.624 114.811 228.288C114.494 227.943 114.06 227.77 113.509 227.77C112.949 227.77 112.501 227.952 112.165 228.316C111.829 228.68 111.661 229.203 111.661 229.884V234H109.687V226.244H111.661V227.798C111.866 227.275 112.202 226.869 112.669 226.58C113.145 226.281 113.691 226.132 114.307 226.132ZM123.128 232.306V234H122.092C121.224 234 120.557 233.79 120.09 233.37C119.633 232.95 119.404 232.25 119.404 231.27V227.91H118.326V226.244H119.404V224.326H121.378V226.244H123.114V227.91H121.378V231.298C121.378 231.671 121.453 231.933 121.602 232.082C121.751 232.231 122.003 232.306 122.358 232.306H123.128Z" fill="#0A1854"/>
<g filter="url(#filter4_d_105_2053)">
<rect x="17" y="275" width="131" height="106" rx="18.3429" fill="white"/>
</g>
<path d="M60.5456 347.018C61.7776 347.018 62.7996 347.335 63.6116 347.97C64.4236 348.605 64.9603 349.468 65.2216 350.56H63.1496C62.9349 350.028 62.5989 349.608 62.1416 349.3C61.6936 348.992 61.1523 348.838 60.5176 348.838C59.9949 348.838 59.5236 348.969 59.1036 349.23C58.6836 349.491 58.3569 349.865 58.1236 350.35C57.8903 350.835 57.7736 351.405 57.7736 352.058C57.7736 352.702 57.8903 353.267 58.1236 353.752C58.3569 354.237 58.6836 354.611 59.1036 354.872C59.5236 355.133 59.9949 355.264 60.5176 355.264C61.1523 355.264 61.6936 355.11 62.1416 354.802C62.5989 354.494 62.9349 354.074 63.1496 353.542H65.2216C64.9603 354.634 64.4236 355.497 63.6116 356.132C62.7996 356.767 61.7776 357.084 60.5456 357.084C59.6029 357.084 58.7676 356.874 58.0396 356.454C57.3209 356.025 56.7609 355.427 56.3596 354.662C55.9676 353.897 55.7716 353.029 55.7716 352.058C55.7716 351.078 55.9676 350.205 56.3596 349.44C56.7609 348.675 57.3209 348.082 58.0396 347.662C58.7583 347.233 59.5936 347.018 60.5456 347.018ZM68.6766 346.64V357H66.7026V346.64H68.6766ZM74.0464 349.146C74.8024 349.146 75.4791 349.305 76.0764 349.622C76.6831 349.939 77.1591 350.401 77.5044 351.008C77.8497 351.605 78.0224 352.31 78.0224 353.122C78.0224 353.934 77.8497 354.639 77.5044 355.236C77.1591 355.833 76.6831 356.295 76.0764 356.622C75.4791 356.939 74.8024 357.098 74.0464 357.098C73.2904 357.098 72.6091 356.939 72.0024 356.622C71.4051 356.295 70.9337 355.833 70.5884 355.236C70.2431 354.639 70.0704 353.934 70.0704 353.122C70.0704 352.31 70.2431 351.605 70.5884 351.008C70.9337 350.401 71.4051 349.939 72.0024 349.622C72.6091 349.305 73.2904 349.146 74.0464 349.146ZM74.0464 350.854C73.4957 350.854 73.0291 351.05 72.6464 351.442C72.2637 351.825 72.0724 352.385 72.0724 353.122C72.0724 353.859 72.2637 354.424 72.6464 354.816C73.0291 355.199 73.4957 355.39 74.0464 355.39C74.5971 355.39 75.0637 355.199 75.4464 354.816C75.8291 354.424 76.0204 353.859 76.0204 353.122C76.0204 352.385 75.8291 351.825 75.4464 351.442C75.0637 351.05 74.5971 350.854 74.0464 350.854ZM82.0915 349.146C83.0342 349.146 83.7902 349.384 84.3595 349.86C84.9288 350.336 85.2835 350.971 85.4235 351.764H83.5755C83.5008 351.391 83.3328 351.092 83.0715 350.868C82.8102 350.644 82.4695 350.532 82.0495 350.532C81.7135 350.532 81.4522 350.611 81.2655 350.77C81.0788 350.929 80.9855 351.143 80.9855 351.414C80.9855 351.629 81.0602 351.801 81.2095 351.932C81.3588 352.063 81.5455 352.165 81.7695 352.24C81.9935 352.315 82.3155 352.403 82.7355 352.506C83.3235 352.637 83.7995 352.777 84.1635 352.926C84.5368 353.066 84.8542 353.295 85.1155 353.612C85.3862 353.92 85.5215 354.34 85.5215 354.872C85.5215 355.535 85.2602 356.071 84.7375 356.482C84.2242 356.893 83.5288 357.098 82.6515 357.098C81.6435 357.098 80.8362 356.874 80.2295 356.426C79.6228 355.969 79.2542 355.32 79.1235 354.48H81.0135C81.0602 354.863 81.2282 355.166 81.5175 355.39C81.8068 355.605 82.1848 355.712 82.6515 355.712C82.9875 355.712 83.2442 355.633 83.4215 355.474C83.5988 355.306 83.6875 355.091 83.6875 354.83C83.6875 354.606 83.6082 354.424 83.4495 354.284C83.3002 354.144 83.1088 354.037 82.8755 353.962C82.6515 353.887 82.3295 353.799 81.9095 353.696C81.3308 353.565 80.8595 353.435 80.4955 353.304C80.1408 353.164 79.8328 352.945 79.5715 352.646C79.3195 352.347 79.1935 351.937 79.1935 351.414C79.1935 350.742 79.4502 350.196 79.9635 349.776C80.4768 349.356 81.1862 349.146 82.0915 349.146ZM94.4117 349.244V357H92.4377V355.432C92.2324 355.955 91.8917 356.365 91.4157 356.664C90.949 356.953 90.4077 357.098 89.7917 357.098C88.8957 357.098 88.1817 356.804 87.6497 356.216C87.1177 355.628 86.8517 354.807 86.8517 353.752V349.244H88.8117V353.528C88.8117 354.144 88.9704 354.625 89.2877 354.97C89.605 355.306 90.0344 355.474 90.5757 355.474C91.145 355.474 91.5977 355.292 91.9337 354.928C92.2697 354.564 92.4377 354.041 92.4377 353.36V349.244H94.4117ZM98.1805 350.728C98.4699 350.233 98.8525 349.846 99.3285 349.566C99.8045 349.277 100.337 349.132 100.925 349.132V351.246H100.351C98.9039 351.246 98.1805 351.918 98.1805 353.262V357H96.2065V349.244H98.1805V350.728ZM109.311 352.828C109.311 353.024 109.288 353.248 109.241 353.5H103.557C103.585 354.191 103.772 354.699 104.117 355.026C104.462 355.353 104.892 355.516 105.405 355.516C105.862 355.516 106.24 355.404 106.539 355.18C106.847 354.956 107.043 354.653 107.127 354.27H109.213C109.11 354.811 108.891 355.297 108.555 355.726C108.219 356.155 107.785 356.491 107.253 356.734C106.73 356.977 106.147 357.098 105.503 357.098C104.747 357.098 104.075 356.939 103.487 356.622C102.899 356.295 102.442 355.833 102.115 355.236C101.788 354.639 101.625 353.934 101.625 353.122C101.625 352.31 101.788 351.605 102.115 351.008C102.442 350.401 102.899 349.939 103.487 349.622C104.075 349.305 104.747 349.146 105.503 349.146C106.268 349.146 106.936 349.305 107.505 349.622C108.084 349.939 108.527 350.378 108.835 350.938C109.152 351.489 109.311 352.119 109.311 352.828ZM107.323 352.632C107.351 351.997 107.183 351.517 106.819 351.19C106.464 350.863 106.026 350.7 105.503 350.7C104.971 350.7 104.523 350.863 104.159 351.19C103.795 351.517 103.594 351.997 103.557 352.632H107.323Z" fill="#0A1854"/>
<g clip-path="url(#clip2_105_2053)">
<path d="M86.1035 292C86.1035 292.416 86.1035 305.102 86.1035 304.8L82.1328 312.328L84.9023 315.03L87.3047 312.687L89.707 315.03L92.4765 312.328L88.5058 304.8V301.375H100.359L97.1568 296.687L100.359 292H86.1035Z" fill="#16D594"/>
<path d="M86.1035 292C86.1035 292.416 86.1035 305.102 86.1035 304.8H88.5059V301.375H100.359L97.1569 296.687L100.359 292H86.1035Z" fill="#F65535"/>
<path d="M78.1094 314.794L75.3281 309.819L62 331.997H68.9821L78.1094 314.794Z" fill="#516FE9"/>
<path d="M89.707 318.342L87.3047 315.998L84.9023 318.342L80.9707 314.506L71.6895 331.998H103L93.6387 314.506L89.707 318.342Z" fill="#516FE9" fill-opacity="0.8"/>
</g>
<path d="M172 332L172 332.5L172.5 332.5L172.5 332L172 332ZM172.5 4C172.5 3.72385 172.276 3.5 172 3.5C171.724 3.5 171.5 3.72385 171.5 4L172.5 4ZM153 332L158 334.887L158 329.113L153 332ZM171.5 7.03705C171.5 7.31317 171.724 7.53705 172 7.53705C172.276 7.53705 172.5 7.31317 172.5 7.03705L171.5 7.03705ZM172.5 13.1111C172.5 12.835 172.276 12.6111 172 12.6111C171.724 12.6111 171.5 12.835 171.5 13.1111L172.5 13.1111ZM171.5 19.1852C171.5 19.4613 171.724 19.6852 172 19.6852C172.276 19.6852 172.5 19.4613 172.5 19.1852L171.5 19.1852ZM172.5 25.2592C172.5 24.9831 172.276 24.7592 172 24.7592C171.724 24.7592 171.5 24.9831 171.5 25.2592L172.5 25.2592ZM171.5 31.3333C171.5 31.6095 171.724 31.8333 172 31.8333C172.276 31.8333 172.5 31.6095 172.5 31.3333L171.5 31.3333ZM172.5 37.4074C172.5 37.1313 172.276 36.9074 172 36.9074C171.724 36.9074 171.5 37.1313 171.5 37.4074L172.5 37.4074ZM171.5 43.4815C171.5 43.7576 171.724 43.9815 172 43.9815C172.276 43.9815 172.5 43.7576 172.5 43.4815L171.5 43.4815ZM172.5 49.5556C172.5 49.2794 172.276 49.0556 172 49.0556C171.724 49.0556 171.5 49.2794 171.5 49.5556L172.5 49.5556ZM171.5 55.6296C171.5 55.9058 171.724 56.1296 172 56.1296C172.276 56.1296 172.5 55.9058 172.5 55.6296L171.5 55.6296ZM172.5 61.7037C172.5 61.4276 172.276 61.2037 172 61.2037C171.724 61.2037 171.5 61.4276 171.5 61.7037L172.5 61.7037ZM171.5 67.7778C171.5 68.0539 171.724 68.2778 172 68.2778C172.276 68.2778 172.5 68.0539 172.5 67.7778L171.5 67.7778ZM172.5 73.8519C172.5 73.5757 172.276 73.3519 172 73.3519C171.724 73.3519 171.5 73.5757 171.5 73.8519L172.5 73.8519ZM171.5 79.9259C171.5 80.2021 171.724 80.4259 172 80.4259C172.276 80.4259 172.5 80.2021 172.5 79.9259L171.5 79.9259ZM172.5 86C172.5 85.7239 172.276 85.5 172 85.5C171.724 85.5 171.5 85.7239 171.5 86L172.5 86ZM171.5 92.0741C171.5 92.3502 171.724 92.5741 172 92.5741C172.276 92.5741 172.5 92.3502 172.5 92.0741L171.5 92.0741ZM172.5 98.1481C172.5 97.872 172.276 97.6481 172 97.6481C171.724 97.6481 171.5 97.872 171.5 98.1481L172.5 98.1481ZM171.5 104.222C171.5 104.498 171.724 104.722 172 104.722C172.276 104.722 172.5 104.498 172.5 104.222L171.5 104.222ZM172.5 110.296C172.5 110.02 172.276 109.796 172 109.796C171.724 109.796 171.5 110.02 171.5 110.296L172.5 110.296ZM171.5 116.37C171.5 116.647 171.724 116.87 172 116.87C172.276 116.87 172.5 116.647 172.5 116.37L171.5 116.37ZM172.5 122.444C172.5 122.168 172.276 121.944 172 121.944C171.724 121.944 171.5 122.168 171.5 122.444L172.5 122.444ZM171.5 128.519C171.5 128.795 171.724 129.019 172 129.019C172.276 129.019 172.5 128.795 172.5 128.519L171.5 128.519ZM172.5 134.593C172.5 134.316 172.276 134.093 172 134.093C171.724 134.093 171.5 134.316 171.5 134.593L172.5 134.593ZM171.5 140.667C171.5 140.943 171.724 141.167 172 141.167C172.276 141.167 172.5 140.943 172.5 140.667L171.5 140.667ZM172.5 146.741C172.5 146.465 172.276 146.241 172 146.241C171.724 146.241 171.5 146.465 171.5 146.741L172.5 146.741ZM171.5 152.815C171.5 153.091 171.724 153.315 172 153.315C172.276 153.315 172.5 153.091 172.5 152.815L171.5 152.815ZM172.5 158.889C172.5 158.613 172.276 158.389 172 158.389C171.724 158.389 171.5 158.613 171.5 158.889L172.5 158.889ZM171.5 164.963C171.5 165.239 171.724 165.463 172 165.463C172.276 165.463 172.5 165.239 172.5 164.963L171.5 164.963ZM172.5 171.037C172.5 170.761 172.276 170.537 172 170.537C171.724 170.537 171.5 170.761 171.5 171.037L172.5 171.037ZM171.5 177.111C171.5 177.387 171.724 177.611 172 177.611C172.276 177.611 172.5 177.387 172.5 177.111L171.5 177.111ZM172.5 183.185C172.5 182.909 172.276 182.685 172 182.685C171.724 182.685 171.5 182.909 171.5 183.185L172.5 183.185ZM171.5 189.259C171.5 189.535 171.724 189.759 172 189.759C172.276 189.759 172.5 189.535 172.5 189.259L171.5 189.259ZM172.5 195.333C172.5 195.057 172.276 194.833 172 194.833C171.724 194.833 171.5 195.057 171.5 195.333L172.5 195.333ZM171.5 201.408C171.5 201.684 171.724 201.908 172 201.908C172.276 201.908 172.5 201.684 172.5 201.408L171.5 201.408ZM172.5 207.482C172.5 207.205 172.276 206.982 172 206.982C171.724 206.982 171.5 207.205 171.5 207.482L172.5 207.482ZM171.5 213.556C171.5 213.832 171.724 214.056 172 214.056C172.276 214.056 172.5 213.832 172.5 213.556L171.5 213.556ZM172.5 219.63C172.5 219.354 172.276 219.13 172 219.13C171.724 219.13 171.5 219.354 171.5 219.63L172.5 219.63ZM171.5 225.704C171.5 225.98 171.724 226.204 172 226.204C172.276 226.204 172.5 225.98 172.5 225.704L171.5 225.704ZM172.5 231.778C172.5 231.502 172.276 231.278 172 231.278C171.724 231.278 171.5 231.502 171.5 231.778L172.5 231.778ZM171.5 237.852C171.5 238.128 171.724 238.352 172 238.352C172.276 238.352 172.5 238.128 172.5 237.852L171.5 237.852ZM172.5 243.926C172.5 243.65 172.276 243.426 172 243.426C171.724 243.426 171.5 243.65 171.5 243.926L172.5 243.926ZM171.5 250C171.5 250.276 171.724 250.5 172 250.5C172.276 250.5 172.5 250.276 172.5 250L171.5 250ZM172.5 256.074C172.5 255.798 172.276 255.574 172 255.574C171.724 255.574 171.5 255.798 171.5 256.074L172.5 256.074ZM171.5 262.148C171.5 262.424 171.724 262.648 172 262.648C172.276 262.648 172.5 262.424 172.5 262.148L171.5 262.148ZM172.5 268.222C172.5 267.946 172.276 267.722 172 267.722C171.724 267.722 171.5 267.946 171.5 268.222L172.5 268.222ZM171.5 274.296C171.5 274.573 171.724 274.796 172 274.796C172.276 274.796 172.5 274.573 172.5 274.296L171.5 274.296ZM172.5 280.37C172.5 280.094 172.276 279.87 172 279.87C171.724 279.87 171.5 280.094 171.5 280.37L172.5 280.37ZM171.5 286.445C171.5 286.721 171.724 286.945 172 286.945C172.276 286.945 172.5 286.721 172.5 286.445L171.5 286.445ZM172.5 292.519C172.5 292.242 172.276 292.019 172 292.019C171.724 292.019 171.5 292.242 171.5 292.519L172.5 292.519ZM171.5 298.593C171.5 298.869 171.724 299.093 172 299.093C172.276 299.093 172.5 298.869 172.5 298.593L171.5 298.593ZM172.5 304.667C172.5 304.391 172.276 304.167 172 304.167C171.724 304.167 171.5 304.391 171.5 304.667L172.5 304.667ZM171.5 310.741C171.5 311.017 171.724 311.241 172 311.241C172.276 311.241 172.5 311.017 172.5 310.741L171.5 310.741ZM172.5 316.815C172.5 316.539 172.276 316.315 172 316.315C171.724 316.315 171.5 316.539 171.5 316.815L172.5 316.815ZM171.5 322.889C171.5 323.165 171.724 323.389 172 323.389C172.276 323.389 172.5 323.165 172.5 322.889L171.5 322.889ZM172.5 328.963C172.5 328.687 172.276 328.463 172 328.463C171.724 328.463 171.5 328.687 171.5 328.963L172.5 328.963ZM169.625 331.5C169.349 331.5 169.125 331.724 169.125 332C169.125 332.276 169.349 332.5 169.625 332.5L169.625 331.5ZM164.875 332.5C165.151 332.5 165.375 332.276 165.375 332C165.375 331.724 165.151 331.5 164.875 331.5L164.875 332.5ZM160.125 331.5C159.849 331.5 159.625 331.724 159.625 332C159.625 332.276 159.849 332.5 160.125 332.5L160.125 331.5ZM155.375 332.5C155.651 332.5 155.875 332.276 155.875 332C155.875 331.724 155.651 331.5 155.375 331.5L155.375 332.5ZM171.5 4L171.5 7.03705L172.5 7.03705L172.5 4L171.5 4ZM171.5 13.1111L171.5 19.1852L172.5 19.1852L172.5 13.1111L171.5 13.1111ZM171.5 25.2592L171.5 31.3333L172.5 31.3333L172.5 25.2592L171.5 25.2592ZM171.5 37.4074L171.5 43.4815L172.5 43.4815L172.5 37.4074L171.5 37.4074ZM171.5 49.5556L171.5 55.6296L172.5 55.6296L172.5 49.5556L171.5 49.5556ZM171.5 61.7037L171.5 67.7778L172.5 67.7778L172.5 61.7037L171.5 61.7037ZM171.5 73.8519L171.5 79.9259L172.5 79.9259L172.5 73.8519L171.5 73.8519ZM171.5 86L171.5 92.0741L172.5 92.0741L172.5 86L171.5 86ZM171.5 98.1481L171.5 104.222L172.5 104.222L172.5 98.1481L171.5 98.1481ZM171.5 110.296L171.5 116.37L172.5 116.37L172.5 110.296L171.5 110.296ZM171.5 122.444L171.5 128.519L172.5 128.519L172.5 122.444L171.5 122.444ZM171.5 134.593L171.5 140.667L172.5 140.667L172.5 134.593L171.5 134.593ZM171.5 146.741L171.5 152.815L172.5 152.815L172.5 146.741L171.5 146.741ZM171.5 158.889L171.5 164.963L172.5 164.963L172.5 158.889L171.5 158.889ZM171.5 171.037L171.5 177.111L172.5 177.111L172.5 171.037L171.5 171.037ZM171.5 183.185L171.5 189.259L172.5 189.259L172.5 183.185L171.5 183.185ZM171.5 195.333L171.5 201.408L172.5 201.408L172.5 195.333L171.5 195.333ZM171.5 207.482L171.5 213.556L172.5 213.556L172.5 207.482L171.5 207.482ZM171.5 219.63L171.5 225.704L172.5 225.704L172.5 219.63L171.5 219.63ZM171.5 231.778L171.5 237.852L172.5 237.852L172.5 231.778L171.5 231.778ZM171.5 243.926L171.5 250L172.5 250L172.5 243.926L171.5 243.926ZM171.5 256.074L171.5 262.148L172.5 262.148L172.5 256.074L171.5 256.074ZM171.5 268.222L171.5 274.296L172.5 274.296L172.5 268.222L171.5 268.222ZM171.5 280.37L171.5 286.445L172.5 286.445L172.5 280.37L171.5 280.37ZM171.5 292.519L171.5 298.593L172.5 298.593L172.5 292.519L171.5 292.519ZM171.5 304.667L171.5 310.741L172.5 310.741L172.5 304.667L171.5 304.667ZM171.5 316.815L171.5 322.889L172.5 322.889L172.5 316.815L171.5 316.815ZM171.5 328.963L171.5 332L172.5 332L172.5 328.963L171.5 328.963ZM172 331.5L169.625 331.5L169.625 332.5L172 332.5L172 331.5ZM164.875 331.5L160.125 331.5L160.125 332.5L164.875 332.5L164.875 331.5ZM172 332L172 333L173 333L173 332L172 332ZM173 4C173 3.44772 172.552 3 172 3C171.448 3 171 3.44772 171 4L173 4ZM153 332L163 337.774L163 326.226L153 332ZM171 7.03705C171 7.58932 171.448 8.03705 172 8.03705C172.552 8.03705 173 7.58932 173 7.03705L171 7.03705ZM173 13.1111C173 12.5588 172.552 12.1111 172 12.1111C171.448 12.1111 171 12.5588 171 13.1111L173 13.1111ZM171 19.1852C171 19.7375 171.448 20.1852 172 20.1852C172.552 20.1852 173 19.7375 173 19.1852L171 19.1852ZM173 25.2592C173 24.707 172.552 24.2592 172 24.2592C171.448 24.2592 171 24.707 171 25.2592L173 25.2592ZM171 31.3333C171 31.8856 171.448 32.3333 172 32.3333C172.552 32.3333 173 31.8856 173 31.3333L171 31.3333ZM173 37.4074C173 36.8551 172.552 36.4074 172 36.4074C171.448 36.4074 171 36.8551 171 37.4074L173 37.4074ZM171 43.4815C171 44.0338 171.448 44.4815 172 44.4815C172.552 44.4815 173 44.0338 173 43.4815L171 43.4815ZM173 49.5556C173 49.0033 172.552 48.5556 172 48.5556C171.448 48.5556 171 49.0033 171 49.5556L173 49.5556ZM171 55.6296C171 56.1819 171.448 56.6296 172 56.6296C172.552 56.6296 173 56.1819 173 55.6296L171 55.6296ZM173 61.7037C173 61.1514 172.552 60.7037 172 60.7037C171.448 60.7037 171 61.1514 171 61.7037L173 61.7037ZM171 67.7778C171 68.3301 171.448 68.7778 172 68.7778C172.552 68.7778 173 68.3301 173 67.7778L171 67.7778ZM173 73.8519C173 73.2996 172.552 72.8519 172 72.8519C171.448 72.8519 171 73.2996 171 73.8519L173 73.8519ZM171 79.9259C171 80.4782 171.448 80.9259 172 80.9259C172.552 80.9259 173 80.4782 173 79.9259L171 79.9259ZM173 86C173 85.4477 172.552 85 172 85C171.448 85 171 85.4477 171 86L173 86ZM171 92.0741C171 92.6264 171.448 93.0741 172 93.0741C172.552 93.0741 173 92.6264 173 92.0741L171 92.0741ZM173 98.1481C173 97.5959 172.552 97.1481 172 97.1481C171.448 97.1481 171 97.5959 171 98.1481L173 98.1481ZM171 104.222C171 104.775 171.448 105.222 172 105.222C172.552 105.222 173 104.775 173 104.222L171 104.222ZM173 110.296C173 109.744 172.552 109.296 172 109.296C171.448 109.296 171 109.744 171 110.296L173 110.296ZM171 116.37C171 116.923 171.448 117.37 172 117.37C172.552 117.37 173 116.923 173 116.37L171 116.37ZM173 122.444C173 121.892 172.552 121.444 172 121.444C171.448 121.444 171 121.892 171 122.444L173 122.444ZM171 128.519C171 129.071 171.448 129.519 172 129.519C172.552 129.519 173 129.071 173 128.519L171 128.519ZM173 134.593C173 134.04 172.552 133.593 172 133.593C171.448 133.593 171 134.04 171 134.593L173 134.593ZM171 140.667C171 141.219 171.448 141.667 172 141.667C172.552 141.667 173 141.219 173 140.667L171 140.667ZM173 146.741C173 146.188 172.552 145.741 172 145.741C171.448 145.741 171 146.188 171 146.741L173 146.741ZM171 152.815C171 153.367 171.448 153.815 172 153.815C172.552 153.815 173 153.367 173 152.815L171 152.815ZM173 158.889C173 158.337 172.552 157.889 172 157.889C171.448 157.889 171 158.337 171 158.889L173 158.889ZM171 164.963C171 165.515 171.448 165.963 172 165.963C172.552 165.963 173 165.515 173 164.963L171 164.963ZM173 171.037C173 170.485 172.552 170.037 172 170.037C171.448 170.037 171 170.485 171 171.037L173 171.037ZM171 177.111C171 177.663 171.448 178.111 172 178.111C172.552 178.111 173 177.663 173 177.111L171 177.111ZM173 183.185C173 182.633 172.552 182.185 172 182.185C171.448 182.185 171 182.633 171 183.185L173 183.185ZM171 189.259C171 189.812 171.448 190.259 172 190.259C172.552 190.259 173 189.812 173 189.259L171 189.259ZM173 195.333C173 194.781 172.552 194.333 172 194.333C171.448 194.333 171 194.781 171 195.333L173 195.333ZM171 201.408C171 201.96 171.448 202.408 172 202.408C172.552 202.408 173 201.96 173 201.408L171 201.408ZM173 207.482C173 206.929 172.552 206.482 172 206.482C171.448 206.482 171 206.929 171 207.482L173 207.482ZM171 213.556C171 214.108 171.448 214.556 172 214.556C172.552 214.556 173 214.108 173 213.556L171 213.556ZM173 219.63C173 219.077 172.552 218.63 172 218.63C171.448 218.63 171 219.077 171 219.63L173 219.63ZM171 225.704C171 226.256 171.448 226.704 172 226.704C172.552 226.704 173 226.256 173 225.704L171 225.704ZM173 231.778C173 231.226 172.552 230.778 172 230.778C171.448 230.778 171 231.226 171 231.778L173 231.778ZM171 237.852C171 238.404 171.448 238.852 172 238.852C172.552 238.852 173 238.404 173 237.852L171 237.852ZM173 243.926C173 243.374 172.552 242.926 172 242.926C171.448 242.926 171 243.374 171 243.926L173 243.926ZM171 250C171 250.552 171.448 251 172 251C172.552 251 173 250.552 173 250L171 250ZM173 256.074C173 255.522 172.552 255.074 172 255.074C171.448 255.074 171 255.522 171 256.074L173 256.074ZM171 262.148C171 262.701 171.448 263.148 172 263.148C172.552 263.148 173 262.701 173 262.148L171 262.148ZM173 268.222C173 267.67 172.552 267.222 172 267.222C171.448 267.222 171 267.67 171 268.222L173 268.222ZM171 274.296C171 274.849 171.448 275.296 172 275.296C172.552 275.296 173 274.849 173 274.296L171 274.296ZM173 280.37C173 279.818 172.552 279.37 172 279.37C171.448 279.37 171 279.818 171 280.37L173 280.37ZM171 286.445C171 286.997 171.448 287.445 172 287.445C172.552 287.445 173 286.997 173 286.445L171 286.445ZM173 292.519C173 291.966 172.552 291.519 172 291.519C171.448 291.519 171 291.966 171 292.519L173 292.519ZM171 298.593C171 299.145 171.448 299.593 172 299.593C172.552 299.593 173 299.145 173 298.593L171 298.593ZM173 304.667C173 304.114 172.552 303.667 172 303.667C171.448 303.667 171 304.114 171 304.667L173 304.667ZM171 310.741C171 311.293 171.448 311.741 172 311.741C172.552 311.741 173 311.293 173 310.741L171 310.741ZM173 316.815C173 316.263 172.552 315.815 172 315.815C171.448 315.815 171 316.263 171 316.815L173 316.815ZM171 322.889C171 323.441 171.448 323.889 172 323.889C172.552 323.889 173 323.441 173 322.889L171 322.889ZM173 328.963C173 328.411 172.552 327.963 172 327.963C171.448 327.963 171 328.411 171 328.963L173 328.963ZM169.625 331C169.073 331 168.625 331.448 168.625 332C168.625 332.552 169.073 333 169.625 333L169.625 331ZM164.875 333C165.427 333 165.875 332.552 165.875 332C165.875 331.448 165.427 331 164.875 331L164.875 333ZM160.125 331C159.573 331 159.125 331.448 159.125 332C159.125 332.552 159.573 333 160.125 333L160.125 331ZM155.375 333C155.927 333 156.375 332.552 156.375 332C156.375 331.448 155.927 331 155.375 331L155.375 333ZM171 4L171 7.03705L173 7.03705L173 4L171 4ZM171 13.1111L171 19.1852L173 19.1852L173 13.1111L171 13.1111ZM171 25.2592L171 31.3333L173 31.3333L173 25.2592L171 25.2592ZM171 37.4074L171 43.4815L173 43.4815L173 37.4074L171 37.4074ZM171 49.5556L171 55.6296L173 55.6296L173 49.5556L171 49.5556ZM171 61.7037L171 67.7778L173 67.7778L173 61.7037L171 61.7037ZM171 73.8519L171 79.9259L173 79.9259L173 73.8519L171 73.8519ZM171 86L171 92.0741L173 92.0741L173 86L171 86ZM171 98.1481L171 104.222L173 104.222L173 98.1481L171 98.1481ZM171 110.296L171 116.37L173 116.37L173 110.296L171 110.296ZM171 122.444L171 128.519L173 128.519L173 122.444L171 122.444ZM171 134.593L171 140.667L173 140.667L173 134.593L171 134.593ZM171 146.741L171 152.815L173 152.815L173 146.741L171 146.741ZM171 158.889L171 164.963L173 164.963L173 158.889L171 158.889ZM171 171.037L171 177.111L173 177.111L173 171.037L171 171.037ZM171 183.185L171 189.259L173 189.259L173 183.185L171 183.185ZM171 195.333L171 201.408L173 201.408L173 195.333L171 195.333ZM171 207.482L171 213.556L173 213.556L173 207.482L171 207.482ZM171 219.63L171 225.704L173 225.704L173 219.63L171 219.63ZM171 231.778L171 237.852L173 237.852L173 231.778L171 231.778ZM171 243.926L171 250L173 250L173 243.926L171 243.926ZM171 256.074L171 262.148L173 262.148L173 256.074L171 256.074ZM171 268.222L171 274.296L173 274.296L173 268.222L171 268.222ZM171 280.37L171 286.445L173 286.445L173 280.37L171 280.37ZM171 292.519L171 298.593L173 298.593L173 292.519L171 292.519ZM171 304.667L171 310.741L173 310.741L173 304.667L171 304.667ZM171 316.815L171 322.889L173 322.889L173 316.815L171 316.815ZM171 328.963L171 332L173 332L173 328.963L171 328.963ZM172 331L169.625 331L169.625 333L172 333L172 331ZM164.875 331L160.125 331L160.125 333L164.875 333L164.875 331Z" fill="url(#paint0_linear_105_2053)"/>
<g filter="url(#filter5_d_105_2053)">
<circle cx="172" cy="13" r="9" fill="#7DB5CD"/>
<circle cx="172" cy="13" r="6.595" stroke="white" stroke-width="4.81"/>
</g>
<path d="M172 80L148 80" stroke="url(#paint1_linear_105_2053)" stroke-linecap="round" stroke-dasharray="6 6"/>
<path d="M196 110L172 110" stroke="url(#paint2_linear_105_2053)" stroke-linecap="round" stroke-dasharray="6 6"/>
<path d="M172 204L148 204" stroke="url(#paint3_linear_105_2053)" stroke-linecap="round" stroke-dasharray="6 6"/>
<path d="M196 236L172 236" stroke="url(#paint4_linear_105_2053)" stroke-linecap="round" stroke-dasharray="6 6"/>
<defs>
<filter id="filter0_d_105_2053" x="179.491" y="39.16" width="164.017" height="139.017" filterUnits="userSpaceOnUse" color-interpolation-filters="sRGB">
<feFlood flood-opacity="0" result="BackgroundImageFix"/>
<feColorMatrix in="SourceAlpha" type="matrix" values="0 0 0 0 0 0 0 0 0 0 0 0 0 0 0 0 0 0 127 0" result="hardAlpha"/>
<feOffset dy="3.66858"/>
<feGaussianBlur stdDeviation="8.25431"/>
<feComposite in2="hardAlpha" operator="out"/>
<feColorMatrix type="matrix" values="0 0 0 0 0 0 0 0 0 0 0 0 0 0 0 0 0 0 0.1 0"/>
<feBlend mode="normal" in2="BackgroundImageFix" result="effect1_dropShadow_105_2053"/>
<feBlend mode="normal" in="SourceGraphic" in2="effect1_dropShadow_105_2053" result="shape"/>
</filter>
<filter id="filter1_d_105_2053" x="179.491" y="159.16" width="164.017" height="160.017" filterUnits="userSpaceOnUse" color-interpolation-filters="sRGB">
<feFlood flood-opacity="0" result="BackgroundImageFix"/>
<feColorMatrix in="SourceAlpha" type="matrix" values="0 0 0 0 0 0 0 0 0 0 0 0 0 0 0 0 0 0 127 0" result="hardAlpha"/>
<feOffset dy="3.66858"/>
<feGaussianBlur stdDeviation="8.25431"/>
<feComposite in2="hardAlpha" operator="out"/>
<feColorMatrix type="matrix" values="0 0 0 0 0 0 0 0 0 0 0 0 0 0 0 0 0 0 0.1 0"/>
<feBlend mode="normal" in2="BackgroundImageFix" result="effect1_dropShadow_105_2053"/>
<feBlend mode="normal" in="SourceGraphic" in2="effect1_dropShadow_105_2053" result="shape"/>
</filter>
<filter id="filter2_d_105_2053" x="0.491381" y="14.16" width="164.017" height="139.017" filterUnits="userSpaceOnUse" color-interpolation-filters="sRGB">
<feFlood flood-opacity="0" result="BackgroundImageFix"/>
<feColorMatrix in="SourceAlpha" type="matrix" values="0 0 0 0 0 0 0 0 0 0 0 0 0 0 0 0 0 0 127 0" result="hardAlpha"/>
<feOffset dy="3.66858"/>
<feGaussianBlur stdDeviation="8.25431"/>
<feComposite in2="hardAlpha" operator="out"/>
<feColorMatrix type="matrix" values="0 0 0 0 0 0 0 0 0 0 0 0 0 0 0 0 0 0 0.1 0"/>
<feBlend mode="normal" in2="BackgroundImageFix" result="effect1_dropShadow_105_2053"/>
<feBlend mode="normal" in="SourceGraphic" in2="effect1_dropShadow_105_2053" result="shape"/>
</filter>
<filter id="filter3_d_105_2053" x="0.491381" y="138.16" width="164.017" height="139.017" filterUnits="userSpaceOnUse" color-interpolation-filters="sRGB">
<feFlood flood-opacity="0" result="BackgroundImageFix"/>
<feColorMatrix in="SourceAlpha" type="matrix" values="0 0 0 0 0 0 0 0 0 0 0 0 0 0 0 0 0 0 127 0" result="hardAlpha"/>
<feOffset dy="3.66858"/>
<feGaussianBlur stdDeviation="8.25431"/>
<feComposite in2="hardAlpha" operator="out"/>
<feColorMatrix type="matrix" values="0 0 0 0 0 0 0 0 0 0 0 0 0 0 0 0 0 0 0.1 0"/>
<feBlend mode="normal" in2="BackgroundImageFix" result="effect1_dropShadow_105_2053"/>
<feBlend mode="normal" in="SourceGraphic" in2="effect1_dropShadow_105_2053" result="shape"/>
</filter>
<filter id="filter4_d_105_2053" x="0.491381" y="262.16" width="164.017" height="139.017" filterUnits="userSpaceOnUse" color-interpolation-filters="sRGB">
<feFlood flood-opacity="0" result="BackgroundImageFix"/>
<feColorMatrix in="SourceAlpha" type="matrix" values="0 0 0 0 0 0 0 0 0 0 0 0 0 0 0 0 0 0 127 0" result="hardAlpha"/>
<feOffset dy="3.66858"/>
<feGaussianBlur stdDeviation="8.25431"/>
<feComposite in2="hardAlpha" operator="out"/>
<feColorMatrix type="matrix" values="0 0 0 0 0 0 0 0 0 0 0 0 0 0 0 0 0 0 0.1 0"/>
<feBlend mode="normal" in2="BackgroundImageFix" result="effect1_dropShadow_105_2053"/>
<feBlend mode="normal" in="SourceGraphic" in2="effect1_dropShadow_105_2053" result="shape"/>
</filter>
<filter id="filter5_d_105_2053" x="157.375" y="0.625" width="29.25" height="29.25" filterUnits="userSpaceOnUse" color-interpolation-filters="sRGB">
<feFlood flood-opacity="0" result="BackgroundImageFix"/>
<feColorMatrix in="SourceAlpha" type="matrix" values="0 0 0 0 0 0 0 0 0 0 0 0 0 0 0 0 0 0 127 0" result="hardAlpha"/>
<feOffset dy="2.25"/>
<feGaussianBlur stdDeviation="2.8125"/>
<feComposite in2="hardAlpha" operator="out"/>
<feColorMatrix type="matrix" values="0 0 0 0 0 0 0 0 0 0 0 0 0 0 0 0 0 0 0.25 0"/>
<feBlend mode="normal" in2="BackgroundImageFix" result="effect1_dropShadow_105_2053"/>
<feBlend mode="normal" in="SourceGraphic" in2="effect1_dropShadow_105_2053" result="shape"/>
</filter>
<linearGradient id="paint0_linear_105_2053" x1="171" y1="-2.43758" x2="172" y2="-2.43758" gradientUnits="userSpaceOnUse">
<stop stop-color="#7EA5D7"/>
<stop offset="1" stop-color="#7EA5D7" stop-opacity="0.81"/>
</linearGradient>
<linearGradient id="paint1_linear_105_2053" x1="149.263" y1="81.0196" x2="148" y2="81.0196" gradientUnits="userSpaceOnUse">
<stop stop-color="#7EA5D7"/>
<stop offset="1" stop-color="#7EA5D7" stop-opacity="0.81"/>
</linearGradient>
<linearGradient id="paint2_linear_105_2053" x1="173.263" y1="111.02" x2="172" y2="111.02" gradientUnits="userSpaceOnUse">
<stop stop-color="#7EA5D7"/>
<stop offset="1" stop-color="#7EA5D7" stop-opacity="0.81"/>
</linearGradient>
<linearGradient id="paint3_linear_105_2053" x1="149.263" y1="205.02" x2="148" y2="205.02" gradientUnits="userSpaceOnUse">
<stop stop-color="#7EA5D7"/>
<stop offset="1" stop-color="#7EA5D7" stop-opacity="0.81"/>
</linearGradient>
<linearGradient id="paint4_linear_105_2053" x1="173.263" y1="237.02" x2="172" y2="237.02" gradientUnits="userSpaceOnUse">
<stop stop-color="#7EA5D7"/>
<stop offset="1" stop-color="#7EA5D7" stop-opacity="0.81"/>
</linearGradient>
<clipPath id="clip0_105_2053">
<rect width="41" height="41" fill="white" transform="translate(243 69)"/>
</clipPath>
<clipPath id="clip1_105_2053">
<rect width="41" height="41" fill="white" transform="translate(243 188)"/>
</clipPath>
<clipPath id="clip2_105_2053">
<rect width="41" height="40" fill="white" transform="translate(62 292)"/>
</clipPath>
</defs>
</svg>
