<svg width="44" height="55" viewBox="0 0 44 55" fill="none" xmlns="http://www.w3.org/2000/svg">
<path d="M38.1811 55.0031H1.16776C0.849292 55.0031 0.591064 54.7449 0.591064 54.4264V5.60502C0.591064 5.28655 0.849186 5.02832 1.16776 5.02832H3.00787L31.2436 6.1267C31.3965 6.1267 31.5432 6.18747 31.6513 6.29558L37.4904 12.1346C37.5985 12.2427 37.6593 12.3894 37.6593 12.5423L38.7576 52.5862V54.4263C38.7578 54.7449 38.4997 55.0031 38.1811 55.0031Z" fill="#139F7F"/>
<path d="M43.1516 1.21488C43.1516 0.771521 42.7922 0.412109 42.3489 0.412109H5.78128C5.46282 0.412109 5.20459 0.670337 5.20459 0.988804V49.8102C5.20459 50.1287 5.46282 50.3869 5.78128 50.3869H40.3781H40.4879L42.5749 50.1673C42.8934 50.1673 43.1516 49.909 43.1516 49.5906V8.92372V1.21488Z" fill="#FBBE40"/>
<path d="M10.3392 27.2501H19.2321C19.6415 27.2501 19.9733 26.9183 19.9733 26.509V17.6161C19.9733 17.2068 19.6415 16.875 19.2321 16.875H10.3392C9.9299 16.875 9.59814 17.2068 9.59814 17.6161V26.509C9.59814 26.9182 9.9299 27.2501 10.3392 27.2501Z" fill="white"/>
<path d="M15.527 24.7126C15.2404 24.7126 14.9622 24.6069 14.747 24.4133L12.7552 22.6207C12.2764 22.1898 12.2377 21.4525 12.6686 20.9739C13.0995 20.4949 13.8367 20.4563 14.3155 20.8872L15.3451 21.814L19.8719 15.5898C20.2507 15.0689 20.9802 14.9536 21.501 15.3326C22.0218 15.7114 22.137 16.4408 21.7582 16.9617L16.4702 24.2327C16.276 24.4999 15.9774 24.6721 15.6488 24.7067C15.6082 24.7105 15.5675 24.7126 15.527 24.7126Z" fill="#545AE8"/>
<path d="M10.3392 43.0675H19.2321C19.6415 43.0675 19.9733 42.7357 19.9733 42.3264V33.4335C19.9733 33.0241 19.6415 32.6924 19.2321 32.6924H10.3392C9.9299 32.6924 9.59814 33.0241 9.59814 33.4335V42.3264C9.59814 42.7357 9.9299 43.0675 10.3392 43.0675Z" fill="white"/>
<path d="M15.5265 40.536C15.2399 40.536 14.9617 40.4303 14.7465 40.2367L12.7547 38.4441C12.276 38.0132 12.2372 37.2759 12.6681 36.7973C13.099 36.3185 13.836 36.2797 14.315 36.7106L15.3447 37.6372L19.8714 31.413C20.2503 30.8921 20.9797 30.7768 21.5005 31.1558C22.0214 31.5347 22.1365 32.264 21.7577 32.7849L16.4697 40.0558C16.2755 40.323 15.9769 40.4952 15.6483 40.5298C15.6077 40.5338 15.567 40.536 15.5265 40.536Z" fill="#545AE8"/>
<rect x="25.1921" y="19.6768" width="13.6471" height="4.01384" fill="white"/>
<rect x="9.13696" y="6.0293" width="29.7024" height="5.61938" fill="#F65535"/>
<rect x="25.1921" y="35.7354" width="13.6471" height="4.01384" fill="white"/>
</svg>
