<svg width="66" height="66" viewBox="0 0 66 66" fill="none" xmlns="http://www.w3.org/2000/svg">
<path d="M18.5625 45.375V14.4375H47.4375V45.375H49.5V12.375H16.5V45.375H18.5625Z" fill="#505050"/>
<path d="M22.6875 4.125H43.3125V20.625H22.6875V4.125Z" fill="#FBBE40"/>
<path d="M8.25 45.375H26.8125V57.75H8.25V45.375Z" fill="#516FE9"/>
<path d="M39.1875 45.375H57.75V57.75H39.1875V45.375Z" fill="#F65535"/>
<path d="M17.5312 41.25C12.4049 41.25 8.25 37.0951 8.25 31.9688C8.25 26.8424 12.4049 22.6875 17.5312 22.6875C22.6576 22.6875 26.8125 26.8424 26.8125 31.9688C26.8125 37.0951 22.6576 41.25 17.5312 41.25Z" fill="#516FE9"/>
<path d="M22.6875 30.9375L16.5 37.125L12.375 33L14.4375 30.9375L16.5 33L20.625 28.875L22.6875 30.9375Z" fill="#F0F0F0"/>
<path d="M48.4688 41.25C43.3424 41.25 39.1875 37.0951 39.1875 31.9688C39.1875 26.8424 43.3424 22.6875 48.4688 22.6875C53.5951 22.6875 57.75 26.8424 57.75 31.9688C57.75 37.0951 53.5951 41.25 48.4688 41.25Z" fill="#F65535"/>
<path d="M43.3062 35.0625L51.5551 26.8135L53.617 28.8754L45.368 37.1244L43.3062 35.0625Z" fill="#F0F0F0"/>
<path d="M43.3062 28.875L45.368 26.8131L53.617 35.0621L51.5551 37.124L43.3062 28.875Z" fill="#F0F0F0"/>
</svg>
