<svg width="57" height="57" viewBox="0 0 57 57" fill="none" xmlns="http://www.w3.org/2000/svg">
<g clip-path="url(#clip0_105_7161)">
<path d="M47.559 48.2575C47.559 52.8163 43.8634 56.5118 39.3047 56.5118H3.91555C1.77316 56.5118 0.0361328 54.7748 0.0361328 52.6324V18.6875H47.559V48.2575Z" fill="#516FE9"/>
<path d="M7.79497 50.6927V18.6875H5.85526V48.753H3.91555C1.77316 48.753 0.0361328 50.49 0.0361328 52.6324C0.0389742 53.1013 0.12753 53.5658 0.298013 54.0029C0.892333 51.9818 2.77995 50.6198 4.88541 50.6927H7.79497Z" fill="black" fill-opacity="0.23"/>
<path d="M47.5585 20.6328L11.6738 56.5174H42.9727C45.5054 56.5174 47.5585 54.4643 47.5585 51.9317V20.6328Z" fill="#748EF8"/>
<path d="M5.85526 48.7619H3.91555C1.77316 48.7619 0.0361328 50.4989 0.0361328 52.6413V14.8169C0.0361328 12.6745 1.77316 10.9375 3.91555 10.9375H5.85526V48.7619Z" fill="#F65535"/>
<path d="M9.73682 23.5391H21.3755V31.2982H9.73682V23.5391Z" fill="white"/>
<path d="M9.73682 40.9922H21.3755V48.7513H9.73682V40.9922Z" fill="white"/>
<path d="M31.073 23.5391H42.7117V31.2982H31.073V23.5391Z" fill="white"/>
<path d="M31.0732 40.9922H42.7119V48.7513H31.0732V40.9922Z" fill="white"/>
<path d="M21.3721 26.4688H31.071V28.4085H21.3721V26.4688Z" fill="white"/>
<path d="M35.9209 31.3047H37.8607V41.0036H35.9209V31.3047Z" fill="white"/>
<path d="M21.3721 43.9141H31.071V45.8538H21.3721V43.9141Z" fill="white"/>
<path d="M54.4535 18.6929C55.4666 18.6929 56.2878 17.8716 56.2878 16.8586V14.708C56.2878 13.695 55.4666 12.8737 54.4535 12.8737H53.4445C52.611 12.8737 51.8959 12.3056 51.5906 11.5301C51.5391 11.3991 51.4852 11.2689 51.429 11.1398C51.0962 10.3746 51.2011 9.46607 51.792 8.87695L52.5038 8.16743C53.2221 7.45143 53.223 6.28845 52.5058 5.57131L50.9821 4.04759C50.265 3.33046 49.102 3.33137 48.386 4.04963L47.6765 4.76139C47.0874 5.35236 46.1789 5.45721 45.4137 5.12443C45.2845 5.06826 45.1544 5.01437 45.0233 4.96278C44.2478 4.6575 43.6797 3.94243 43.6797 3.10897V2.09992C43.6797 1.08686 42.8584 0.265625 41.8454 0.265625H39.6948C38.6818 0.265625 37.8606 1.08686 37.8606 2.09992V3.10897C37.8606 3.94243 37.2925 4.6575 36.5169 4.96278C36.3859 5.01437 36.2557 5.06826 36.1266 5.12443C35.3614 5.45721 34.4529 5.35236 33.8638 4.76139L33.1542 4.04963C32.4382 3.33137 31.2753 3.33046 30.5581 4.04759L29.0344 5.57131C28.3173 6.28845 28.3182 7.45143 29.0364 8.16743L29.7482 8.87695C30.3392 9.46607 30.444 10.3746 30.1112 11.1398C30.0551 11.2689 30.0012 11.3991 29.9496 11.5301C29.6443 12.3056 28.9292 12.8737 28.0958 12.8737H27.0867C26.0737 12.8737 25.2524 13.695 25.2524 14.708V16.8586C25.2524 17.8716 26.0737 18.6929 27.0867 18.6929H28.0958C28.9292 18.6929 29.6443 19.261 29.9496 20.0365C30.0012 20.1676 30.0551 20.2977 30.1112 20.4268C30.444 21.1921 30.3392 22.1005 29.7482 22.6897L29.0387 23.3969C28.3196 24.1138 28.3197 25.2785 29.0389 25.9953L30.4701 27.4216L30.5602 27.5116C31.2765 28.2279 32.4379 28.2279 33.1543 27.5116L33.8638 26.802C34.4531 26.2127 35.3603 26.1088 36.1245 26.4413C36.2543 26.4978 36.3852 26.552 36.5169 26.6038C37.2925 26.9091 37.8606 27.6242 37.8606 28.4576V29.4667C37.8606 30.4797 38.6818 31.301 39.6948 31.301H41.8454C42.8584 31.301 43.6797 30.4797 43.6797 29.4667V28.4576C43.6797 27.6242 44.2478 26.9091 45.0233 26.6038C45.1551 26.552 45.2859 26.4978 45.4158 26.4413C46.1799 26.1088 47.0871 26.2127 47.6764 26.802L48.3875 27.5131C49.1032 28.2288 50.2635 28.2295 50.9801 27.5146L52.5028 25.9953C53.2214 25.2784 53.2211 24.1143 52.5023 23.3977L51.792 22.6897C51.2011 22.1005 51.0962 21.1921 51.429 20.4268C51.4852 20.2977 51.5391 20.1676 51.5906 20.0365C51.8959 19.261 52.611 18.6929 53.4445 18.6929H54.4535ZM37.8606 15.7833C37.8606 14.1765 39.1633 12.8737 40.7701 12.8737C42.3769 12.8737 43.6797 14.1765 43.6797 15.7833C43.6797 17.3901 42.3769 18.6929 40.7701 18.6929C39.1633 18.6929 37.8606 17.3901 37.8606 15.7833Z" fill="#FFB531"/>
<path d="M40.77 24.5205C35.949 24.5205 32.041 20.6126 32.041 15.7915C32.041 10.9705 35.949 7.0625 40.77 7.0625C45.5911 7.0625 49.4991 10.9705 49.4991 15.7915C49.4938 20.6102 45.5887 24.5153 40.77 24.5205ZM40.77 9.00228C37.0202 9.00228 33.9808 12.0417 33.9808 15.7915C33.9808 19.5413 37.0202 22.5808 40.77 22.5808C44.5198 22.5808 47.5593 19.5413 47.5593 15.7915C47.555 12.0436 44.5179 9.00654 40.77 9.00228Z" fill="#F7A116"/>
</g>
<defs>
<clipPath id="clip0_105_7161">
<rect width="56.2516" height="56.2516" fill="white" transform="translate(0.0366211 0.265625)"/>
</clipPath>
</defs>
</svg>
