<svg width="48" height="48" viewBox="0 0 48 48" fill="none" xmlns="http://www.w3.org/2000/svg">
<g clip-path="url(#clip0_105_7202)">
<path d="M28.2189 0C28.2189 0.4995 28.2189 15.7225 28.2189 15.3606L23.5703 24.3941L26.8127 27.6365L29.6252 24.824L32.4377 27.6365L35.68 24.3941L31.0314 15.3606V11.25H44.9085L41.1594 5.625L44.9085 0H28.2189Z" fill="#16D594"/>
<path d="M28.2188 0C28.2188 0.4995 28.2188 15.7225 28.2188 15.3606H31.0312V11.25H44.9083L41.1593 5.625L44.9083 0H28.2188Z" fill="#F65535"/>
<path d="M18.8598 27.3528L15.6037 21.3828L0 47.9962H8.17416L18.8598 27.3528Z" fill="#516FE9"/>
<path d="M32.4375 31.6107L29.625 28.7982L26.8125 31.6107L22.2096 27.0078L11.3438 47.9972H48L37.0404 27.0078L32.4375 31.6107Z" fill="#516FE9" fill-opacity="0.7"/>
</g>
<defs>
<clipPath id="clip0_105_7202">
<rect width="48" height="48" fill="white"/>
</clipPath>
</defs>
</svg>
