<svg width="57" height="58" viewBox="0 0 57 58" fill="none" xmlns="http://www.w3.org/2000/svg">
<g clip-path="url(#clip0_105_7141)">
<path d="M14.2605 57.1459C14.0532 57.1461 13.8533 57.069 13.6996 56.9298C13.546 56.7906 13.4496 56.5992 13.4293 56.3929C13.4139 56.2357 13.4061 56.0763 13.4058 55.9149C13.4058 54.5057 13.9656 53.1542 14.962 52.1578C15.9584 51.1614 17.3099 50.6016 18.7191 50.6016C20.1283 50.6016 21.4798 51.1614 22.4762 52.1578C23.4726 53.1542 24.0324 54.5057 24.0324 55.9149C24.0324 56.076 24.0246 56.2354 24.0089 56.3929C23.9886 56.5992 23.8922 56.7906 23.7386 56.9298C23.5849 57.069 23.385 57.1461 23.1777 57.1459H14.2605Z" fill="#516FE9"/>
<path d="M18.7188 48.4728C20.0683 48.4728 21.1622 47.3788 21.1622 46.0294C21.1622 44.6799 20.0683 43.5859 18.7188 43.5859C17.3693 43.5859 16.2754 44.6799 16.2754 46.0294C16.2754 47.3788 17.3693 48.4728 18.7188 48.4728Z" fill="#516FE9"/>
<path d="M40.0918 41.8438L47.9576 37.3023L55.3751 50.1495C55.9773 51.1926 56.1405 52.4321 55.8288 53.5954C55.5171 54.7588 54.7561 55.7506 53.7131 56.3528C52.67 56.955 51.4305 57.1183 50.2672 56.8065C49.1038 56.4948 48.112 55.7338 47.5098 54.6908L40.0918 41.8438Z" fill="#FBBE40"/>
<path d="M45.542 51.299L47.5101 54.7074C47.8014 55.2368 48.1954 55.7027 48.6691 56.0778C49.1428 56.453 49.6866 56.7298 50.2686 56.8922C50.8506 57.0545 51.4592 57.099 52.0587 57.0232C52.6581 56.9473 53.2364 56.7526 53.7597 56.4504C54.2829 56.1482 54.7406 55.7447 55.1059 55.2634C55.4712 54.782 55.7368 54.2327 55.8871 53.6474C56.0374 53.0621 56.0694 52.4528 55.9812 51.855C55.893 51.2572 55.6864 50.6831 55.3734 50.1662L53.4058 46.7578L45.542 51.299Z" fill="#FBBE40"/>
<path d="M47.9588 37.3125L40.0928 41.8559L42.2128 45.5273C45.0857 44.4813 47.7252 42.8813 49.9815 40.8181L47.9588 37.3125Z" fill="#FBBE40"/>
<path d="M34.2673 45.5894C46.4121 45.5894 56.2574 35.7441 56.2574 23.5994C56.2574 11.4546 46.4121 1.60938 34.2673 1.60938C22.1226 1.60938 12.2773 11.4546 12.2773 23.5994C12.2773 35.7441 22.1226 45.5894 34.2673 45.5894Z" fill="#FBBE40"/>
<path d="M34.2675 40.0302C43.3454 40.0302 50.7045 32.6711 50.7045 23.5932C50.7045 14.5153 43.3454 7.15625 34.2675 7.15625C25.1896 7.15625 17.8306 14.5153 17.8306 23.5932C17.8306 32.6711 25.1896 40.0302 34.2675 40.0302Z" fill="white"/>
<path d="M2.06771 57.1439C1.78896 57.1444 1.52001 57.041 1.31329 56.854C1.10657 56.667 0.97689 56.4097 0.949511 56.1323C0.928631 55.9213 0.917969 55.7067 0.917969 55.4899C0.917969 53.5967 1.67004 51.781 3.00874 50.4423C4.34745 49.1036 6.16311 48.3516 8.05632 48.3516C9.94953 48.3516 11.7652 49.1036 13.1039 50.4423C14.4426 51.781 15.1947 53.5967 15.1947 55.4899C15.1947 55.7067 15.184 55.9213 15.1631 56.1323C15.1358 56.4095 15.0063 56.6666 14.7998 56.8536C14.5934 57.0405 14.3248 57.144 14.0463 57.1439H2.06771Z" fill="#F65535"/>
<path d="M8.05753 46.0311C9.89771 46.0311 11.3895 44.5393 11.3895 42.6991C11.3895 40.8589 9.89771 39.3672 8.05753 39.3672C6.21735 39.3672 4.72559 40.8589 4.72559 42.6991C4.72559 44.5393 6.21735 46.0311 8.05753 46.0311Z" fill="#F65535"/>
<path d="M17.8303 7.60156C8.45987 7.60156 0.86377 13.9591 0.86377 21.8018C0.879998 24.5022 1.77146 27.1245 3.40439 29.2753C3.39951 29.3161 3.39951 29.357 3.39062 29.397C2.9923 31.4024 3.00167 33.4676 3.41816 35.4693C3.48614 35.8074 3.64802 36.1194 3.88522 36.3696C4.12242 36.6198 4.42535 36.7981 4.75926 36.8841C5.09317 36.97 5.44454 36.9601 5.77308 36.8555C6.10161 36.7508 6.394 36.5557 6.61671 36.2925C7.39484 35.4223 8.30025 34.6749 9.30215 34.0757C11.9619 35.3564 14.8783 36.0151 17.8303 36.002C27.2007 36.002 34.7968 29.6444 34.7968 21.8018C34.7968 13.9591 27.2007 7.60156 17.8303 7.60156Z" fill="#516FE9"/>
<path d="M25.1609 18.2547H10.5004C10.3236 18.2547 10.1541 18.1844 10.0292 18.0595C9.90419 17.9345 9.83398 17.765 9.83398 17.5883C9.83398 17.4115 9.90419 17.242 10.0292 17.1171C10.1541 16.9921 10.3236 16.9219 10.5004 16.9219H25.1609C25.3377 16.9219 25.5072 16.9921 25.6321 17.1171C25.7571 17.242 25.8273 17.4115 25.8273 17.5883C25.8273 17.765 25.7571 17.9345 25.6321 18.0595C25.5072 18.1844 25.3377 18.2547 25.1609 18.2547Z" fill="white"/>
<path d="M25.1609 22.7H10.5004C10.3236 22.7 10.1541 22.6298 10.0292 22.5048C9.90419 22.3798 9.83398 22.2103 9.83398 22.0336C9.83398 21.8568 9.90419 21.6873 10.0292 21.5624C10.1541 21.4374 10.3236 21.3672 10.5004 21.3672H25.1609C25.3377 21.3672 25.5072 21.4374 25.6321 21.5624C25.7571 21.6873 25.8273 21.8568 25.8273 22.0336C25.8273 22.2103 25.7571 22.3798 25.6321 22.5048C25.5072 22.6298 25.3377 22.7 25.1609 22.7Z" fill="white"/>
<path d="M25.1609 27.1375H10.5004C10.3236 27.1375 10.1541 27.0673 10.0292 26.9423C9.90419 26.8173 9.83398 26.6478 9.83398 26.4711C9.83398 26.2943 9.90419 26.1248 10.0292 25.9999C10.1541 25.8749 10.3236 25.8047 10.5004 25.8047H25.1609C25.3377 25.8047 25.5072 25.8749 25.6321 25.9999C25.7571 26.1248 25.8273 26.2943 25.8273 26.4711C25.8273 26.6478 25.7571 26.8173 25.6321 26.9423C25.5072 27.0673 25.3377 27.1375 25.1609 27.1375Z" fill="white"/>
</g>
<defs>
<clipPath id="clip0_105_7141">
<rect width="56.863" height="56.863" fill="white" transform="translate(0.0605469 0.9375)"/>
</clipPath>
</defs>
</svg>
