<svg width="54" height="189" viewBox="0 0 54 189" fill="none" xmlns="http://www.w3.org/2000/svg">
<g opacity="0.5">
<rect x="3.63971" width="2.42945" height="9.71781" fill="white"/>
<rect x="9.71783" y="3.64258" width="2.42945" height="9.71781" transform="rotate(90 9.71783 3.64258)" fill="white"/>
<rect x="25.5031" width="2.42945" height="9.71781" fill="white"/>
<rect x="31.5812" y="3.64258" width="2.42945" height="9.71781" transform="rotate(90 31.5812 3.64258)" fill="white"/>
<rect x="47.3664" width="2.42945" height="9.71781" fill="white"/>
<rect x="53.4445" y="3.64258" width="2.42945" height="9.71781" transform="rotate(90 53.4445 3.64258)" fill="white"/>
<rect x="3.63971" y="25.5059" width="2.42945" height="9.71781" fill="white"/>
<rect x="9.71783" y="29.1484" width="2.42945" height="9.71781" transform="rotate(90 9.71783 29.1484)" fill="white"/>
<rect x="25.503" y="25.5059" width="2.42945" height="9.71781" fill="white"/>
<rect x="31.5811" y="29.1484" width="2.42945" height="9.71781" transform="rotate(90 31.5811 29.1484)" fill="white"/>
<rect x="47.3663" y="25.5059" width="2.42945" height="9.71781" fill="white"/>
<rect x="53.4444" y="29.1484" width="2.42945" height="9.71781" transform="rotate(90 53.4444 29.1484)" fill="white"/>
<rect x="3.63971" y="51.0195" width="2.42945" height="9.71781" fill="white"/>
<rect x="9.71783" y="54.6621" width="2.42945" height="9.71781" transform="rotate(90 9.71783 54.6621)" fill="white"/>
<rect x="25.503" y="51.0195" width="2.42945" height="9.71781" fill="white"/>
<rect x="31.5811" y="54.6621" width="2.42945" height="9.71781" transform="rotate(90 31.5811 54.6621)" fill="white"/>
<rect x="47.3663" y="51.0195" width="2.42945" height="9.71781" fill="white"/>
<rect x="53.4444" y="54.6621" width="2.42945" height="9.71781" transform="rotate(90 53.4444 54.6621)" fill="white"/>
<rect x="3.63971" y="76.5254" width="2.42945" height="9.71781" fill="white"/>
<rect x="9.71783" y="80.168" width="2.42945" height="9.71781" transform="rotate(90 9.71783 80.168)" fill="white"/>
<rect x="25.503" y="76.5254" width="2.42945" height="9.71781" fill="white"/>
<rect x="31.5811" y="80.168" width="2.42945" height="9.71781" transform="rotate(90 31.5811 80.168)" fill="white"/>
<rect x="47.3663" y="76.5254" width="2.42945" height="9.71781" fill="white"/>
<rect x="53.4444" y="80.168" width="2.42945" height="9.71781" transform="rotate(90 53.4444 80.168)" fill="white"/>
<rect x="3.63971" y="102.037" width="2.42945" height="9.71781" fill="white"/>
<rect x="9.71783" y="105.68" width="2.42945" height="9.71781" transform="rotate(90 9.71783 105.68)" fill="white"/>
<rect x="25.503" y="102.037" width="2.42945" height="9.71781" fill="white"/>
<rect x="31.5811" y="105.68" width="2.42945" height="9.71781" transform="rotate(90 31.5811 105.68)" fill="white"/>
<rect x="47.3663" y="102.037" width="2.42945" height="9.71781" fill="white"/>
<rect x="53.4444" y="105.68" width="2.42945" height="9.71781" transform="rotate(90 53.4444 105.68)" fill="white"/>
<rect x="3.63971" y="127.543" width="2.42945" height="9.71781" fill="white"/>
<rect x="9.71783" y="131.186" width="2.42945" height="9.71781" transform="rotate(90 9.71783 131.186)" fill="white"/>
<rect x="25.503" y="127.543" width="2.42945" height="9.71781" fill="white"/>
<rect x="31.5811" y="131.186" width="2.42945" height="9.71781" transform="rotate(90 31.5811 131.186)" fill="white"/>
<rect x="47.3663" y="127.543" width="2.42945" height="9.71781" fill="white"/>
<rect x="53.4444" y="131.186" width="2.42945" height="9.71781" transform="rotate(90 53.4444 131.186)" fill="white"/>
<rect x="3.63971" y="153.057" width="2.42945" height="9.71781" fill="white"/>
<rect x="9.71783" y="156.699" width="2.42945" height="9.71781" transform="rotate(90 9.71783 156.699)" fill="white"/>
<rect x="25.503" y="153.057" width="2.42945" height="9.71781" fill="white"/>
<rect x="31.5811" y="156.699" width="2.42945" height="9.71781" transform="rotate(90 31.5811 156.699)" fill="white"/>
<rect x="47.3663" y="153.057" width="2.42945" height="9.71781" fill="white"/>
<rect x="53.4444" y="156.699" width="2.42945" height="9.71781" transform="rotate(90 53.4444 156.699)" fill="white"/>
<rect x="3.63971" y="178.562" width="2.42945" height="9.71781" fill="white"/>
<rect x="9.71783" y="182.205" width="2.42945" height="9.71781" transform="rotate(90 9.71783 182.205)" fill="white"/>
<rect x="25.503" y="178.562" width="2.42945" height="9.71781" fill="white"/>
<rect x="31.5811" y="182.205" width="2.42945" height="9.71781" transform="rotate(90 31.5811 182.205)" fill="white"/>
<rect x="47.3663" y="178.562" width="2.42945" height="9.71781" fill="white"/>
<rect x="53.4444" y="182.205" width="2.42945" height="9.71781" transform="rotate(90 53.4444 182.205)" fill="white"/>
</g>
</svg>
