<svg width="102" height="117" viewBox="0 0 102 117" fill="none" xmlns="http://www.w3.org/2000/svg">
<g opacity="0.1">
<rect x="6.94644" y="0.8125" width="4.63667" height="18.5467" fill="white"/>
<rect x="18.5467" y="7.76074" width="4.63667" height="18.5467" transform="rotate(90 18.5467 7.76074)" fill="white"/>
<rect x="48.6732" y="0.8125" width="4.63667" height="18.5467" fill="white"/>
<rect x="60.2734" y="7.76074" width="4.63667" height="18.5467" transform="rotate(90 60.2734 7.76074)" fill="white"/>
<rect x="90.3997" y="0.8125" width="4.63667" height="18.5467" fill="white"/>
<rect x="102" y="7.76074" width="4.63667" height="18.5467" transform="rotate(90 102 7.76074)" fill="white"/>
<rect x="6.94644" y="49.5117" width="4.63667" height="18.5467" fill="white"/>
<rect x="18.5467" y="56.46" width="4.63667" height="18.5467" transform="rotate(90 18.5467 56.46)" fill="white"/>
<rect x="48.6732" y="49.5117" width="4.63667" height="18.5467" fill="white"/>
<rect x="60.2734" y="56.46" width="4.63667" height="18.5467" transform="rotate(90 60.2734 56.46)" fill="white"/>
<rect x="90.3997" y="49.5117" width="4.63667" height="18.5467" fill="white"/>
<rect x="102" y="56.46" width="4.63667" height="18.5467" transform="rotate(90 102 56.46)" fill="white"/>
<rect x="6.94644" y="98.1826" width="4.63667" height="18.5467" fill="white"/>
<rect x="18.5467" y="105.131" width="4.63667" height="18.5467" transform="rotate(90 18.5467 105.131)" fill="white"/>
<rect x="48.6732" y="98.1826" width="4.63667" height="18.5467" fill="white"/>
<rect x="60.2734" y="105.131" width="4.63667" height="18.5467" transform="rotate(90 60.2734 105.131)" fill="white"/>
<rect x="90.3997" y="98.1826" width="4.63667" height="18.5467" fill="white"/>
<rect x="102" y="105.131" width="4.63667" height="18.5467" transform="rotate(90 102 105.131)" fill="white"/>
</g>
</svg>
