<svg width="182" height="110" viewBox="0 0 182 110" fill="none" xmlns="http://www.w3.org/2000/svg">
<path fill-rule="evenodd" clip-rule="evenodd" d="M108.568 108.542H112.299C111.394 109.047 109.755 108.879 108.568 108.879V108.542ZM107.551 108.205C107.89 107.868 108.625 108.654 107.946 108.373C107.946 108.373 107.099 108.654 107.551 108.205ZM98.3372 105.79C98.3938 105.734 98.4503 105.846 98.4503 105.903L98.5068 105.959C98.4503 105.959 97.885 106.239 98.3372 105.79ZM97.3198 105.453C97.3763 105.397 97.4328 105.509 97.4328 105.566L97.4894 105.622C97.4328 105.622 96.8676 105.903 97.3198 105.453ZM96.3024 105.116C96.6415 104.78 97.3763 105.566 96.698 105.285C96.698 105.341 95.8502 105.622 96.3024 105.116ZM106.872 104.78C106.929 104.723 106.985 104.836 106.985 104.892L107.042 104.948C107.042 104.948 106.42 105.285 106.872 104.78ZM105.177 104.723L104.159 104.836C104.329 104.667 104.046 104.106 105.177 104.723ZM102.803 104.106C103.142 103.769 103.877 104.555 103.198 104.274C103.198 104.33 102.35 104.611 102.803 104.106ZM122.586 103.769C122.925 103.432 123.66 104.218 122.982 103.937C122.982 103.993 122.134 104.274 122.586 103.769ZM101.107 103.769C101.446 103.432 102.181 104.218 101.503 103.937C101.446 103.993 100.598 104.274 101.107 103.769ZM123.999 103.488C124.056 103.432 124.112 103.544 124.112 103.6L124.169 103.657C124.112 103.6 123.491 103.937 123.999 103.488ZM125.356 103.151C125.412 103.095 125.469 103.207 125.469 103.263L125.525 103.32C125.469 103.263 124.904 103.6 125.356 103.151ZM98.6764 103.151C99.0155 102.814 99.7503 103.6 99.072 103.32C99.072 103.32 98.2242 103.6 98.6764 103.151ZM123.265 103.151C123.886 102.758 123.434 102.477 124.621 103.039L123.265 103.151ZM125.017 102.421C125.073 102.365 125.13 102.477 125.13 102.534L125.186 102.59C125.13 102.59 124.508 102.927 125.017 102.421ZM96.9806 102.421C97.0372 102.365 97.0937 102.477 97.0937 102.534L97.1502 102.59C97.0937 102.59 96.5284 102.927 96.9806 102.421ZM121.569 102.421C122.191 102.028 121.738 101.747 122.925 102.309L121.569 102.421ZM123.321 101.747C123.378 101.691 123.434 101.804 123.434 101.86L123.491 101.916C123.434 101.916 122.812 102.253 123.321 101.747ZM106.194 101.86L105.177 102.14C105.685 101.747 104.555 101.804 106.194 101.86ZM103.82 101.467C103.877 101.41 103.933 101.523 103.933 101.579L103.99 101.635C103.933 101.579 103.368 101.916 103.82 101.467ZM102.803 101.074C102.859 101.017 102.916 101.13 102.916 101.186L102.972 101.242C102.916 101.242 102.35 101.579 102.803 101.074ZM101.446 100.737C101.503 100.681 101.559 100.793 101.559 100.849L101.616 100.905C101.559 100.905 100.994 101.242 101.446 100.737ZM127.73 99.389C127.786 99.3329 127.843 99.4452 127.843 99.5013L127.9 99.5575C127.843 99.5013 127.278 99.8382 127.73 99.389ZM128.408 99.0521C128.465 98.996 128.521 99.1083 128.521 99.1644L128.578 99.2206C128.578 99.2206 127.956 99.5013 128.408 99.0521ZM129.087 98.7152C129.143 98.6591 129.2 98.7714 129.2 98.8275L129.256 98.8837C129.256 98.8837 128.634 99.1644 129.087 98.7152ZM131.178 98.0414L131.291 97.7045L131.574 97.873L131.178 98.0414ZM132.195 97.3676L132.082 97.7045L131.8 97.536L132.195 97.3676ZM133.891 96.3569C134.4 95.6269 135.078 95.2338 135.926 95.0092C135.248 96.02 135.078 96.0761 133.891 96.3569ZM95.2849 104.836C91.2152 104.499 82.0017 97.4237 79.9103 94.3354C80.9277 94.6162 85.5627 98.996 87.1454 100.063C88.502 100.961 89.7455 101.691 91.1021 102.59C92.4022 103.376 94.2109 103.937 95.2849 104.836ZM135.926 95.0092C136.548 93.9985 136.265 94.2793 137.283 93.9985C136.661 95.0092 136.943 94.7285 135.926 95.0092ZM137.283 93.9985L138.639 92.6509C138.47 93.7178 138.3 93.7178 137.283 93.9985ZM120.551 92.9878L120.495 93.3247L120.212 93.1563L120.551 92.9878ZM78.8928 93.3247L78.5537 93.2124L78.7232 92.9317L78.8928 93.3247ZM138.696 92.6509L138.809 92.314L139.091 92.4824L138.696 92.6509ZM145.196 85.1828C145.253 85.1267 145.309 85.239 145.309 85.2951L145.366 85.3513C145.309 85.2951 144.687 85.632 145.196 85.1828ZM146.213 84.1721L146.157 84.509L145.874 84.3405L146.213 84.1721ZM71.7142 81.8137C71.7707 81.7576 71.8273 81.8699 71.8273 81.926L71.8838 81.9822C71.8273 81.926 71.262 82.2629 71.7142 81.8137ZM149.266 77.3778C149.322 77.3217 149.379 77.434 149.379 77.4901L149.435 77.5463C149.379 77.4901 148.814 77.827 149.266 77.3778ZM149.605 76.704C149.605 75.9179 150.001 76.6479 149.831 76.704C149.831 76.704 149.605 77.5463 149.605 76.704ZM149.944 75.3002C150.001 75.2441 150.057 75.3564 150.057 75.4125L150.114 75.4687C150.057 75.4687 149.492 75.8056 149.944 75.3002ZM150.622 73.2788C150.622 72.4927 151.018 73.2226 150.848 73.2788C150.848 73.2788 150.622 74.1772 150.622 73.2788ZM150.961 71.5942C151.018 71.5381 151.075 71.6504 151.075 71.7066L151.131 71.7627C151.075 71.7066 150.509 72.0435 150.961 71.5942ZM151.244 69.9097C151.64 70.3589 151.583 69.4044 151.527 70.9204L151.244 69.9097ZM151.753 69.5167C151.696 68.7867 152.092 61.7117 152.262 61.4309C152.488 63.5646 152.714 67.8883 151.753 69.5167ZM123.66 91.9771L122.643 92.314C122.417 93.3247 121.625 92.314 121.625 92.314C119.873 92.314 119.138 92.8194 117.499 92.9878C116.086 93.1563 114.108 93.2124 112.807 93.437C110.547 93.7739 105.516 93.8301 103.82 92.7071C100.598 92.4263 95.398 89.0572 93.6457 89.0011C93.9283 90.7979 95.5675 92.4825 96.6415 93.9424C91.2152 94.5039 86.5801 88.3273 82.7365 85.5759L83.3017 87.1481C81.719 86.9235 81.8321 85.6882 80.6451 84.8459L80.0798 85.1828L78.7232 83.779C79.1189 87.3165 86.5801 93.9424 89.4629 96.0761C93.3631 98.996 101.842 102.477 106.59 102.477C107.381 101.467 107.494 102.477 108.681 102.758C108.794 102.814 109.359 102.87 109.586 102.87C114.164 103.713 118.234 102.421 121.625 102.421C119.76 103.713 116.651 103.6 114.164 103.881C116.764 105.06 120.664 103.151 123.378 103.095C119.195 106.015 106.251 104.723 99.9199 102.646C98.5068 102.197 94.2675 100.231 93.3066 100.119L94.6631 101.41C89.1237 100.063 81.606 92.6509 78.3841 88.3834C76.4623 85.8566 74.2578 82.2629 72.9578 79.1746C71.7142 76.0302 69.7359 70.9204 69.7359 67.4952L68.7184 67.3829C69.1706 69.2921 69.2271 71.5381 70.0185 74.5703C70.5272 76.6479 71.2055 79.3431 72.1099 81.1961C70.9229 80.9153 70.0185 77.9393 69.5098 76.7601C69.1141 75.8617 68.9445 75.0756 68.6054 74.2895C68.1532 73.1103 67.9836 72.4927 67.0227 72.0996C66.0053 73.9526 66.8531 76.5355 67.4184 78.2201C71.8838 91.3033 82.1712 103.207 95.2849 107.587C100.994 109.496 103.311 109.833 109.416 109.833C117.895 109.833 128.578 107.531 135.587 103.263C145.648 97.143 152.318 84.4529 154.24 72.8857C155.031 68.0006 155.031 62.7785 154.24 57.8372C151.414 40.8234 139.657 28.5264 123.434 23.2482C119.703 22.069 113.373 20.6652 109.529 20.8898C108.625 19.6545 107.89 17.7453 106.646 16.117C104.159 12.8041 97.8285 6.57128 94.0414 6.23438C94.6631 7.13279 97.1502 8.31196 98.2242 9.21038C100.881 11.5126 107.833 18.2507 108.342 20.7775C105.911 20.946 102.124 20.4968 100.259 21.4513C102.972 21.7321 105.572 20.946 108.681 21.2829C109.755 22.2374 109.303 22.2374 110.038 22.8551L109.755 21.2829C110.829 21.4513 111.79 21.4513 112.807 21.6198C113.881 21.7882 114.673 22.1813 115.916 22.2936C115.747 23.4166 115.295 22.9674 119.082 24.4273C117.216 24.7081 113.034 23.6974 110.886 23.5851C109.868 23.5289 104.103 23.6974 103.82 25.5504C105.798 26.9541 115.916 25.9996 119.76 27.9087C118.177 28.0771 116.934 27.7402 115.351 27.6841C113.768 27.6279 112.807 27.291 110.886 27.3472C109.359 27.4033 103.877 27.9648 103.085 28.9756C106.194 29.3125 107.664 28.8071 112.977 29.3686C116.312 29.7617 118.177 29.4248 121.512 31.1093C123.038 31.8954 123.491 31.5585 124.621 32.12C125.469 32.5131 129.369 34.8153 129.878 35.3768C135.869 41.385 138.922 43.5187 142.2 51.9975C142.709 53.3451 143.444 53.9628 143.726 54.9174L144.122 62.1047C143.726 64.4631 144.066 67.1022 143.5 69.6851C142.765 72.998 140.844 78.3324 138.47 80.9715C138.526 81.9822 138.413 80.6907 138.865 82.0384C136.943 82.8245 134.174 86.1374 132.195 87.6535C130.669 88.7765 130.387 89.5626 128.634 90.2364C127.108 90.7418 124.96 91.8648 123.66 91.9771Z" fill="#545AE8"/>
<path fill-rule="evenodd" clip-rule="evenodd" d="M72.7313 66.3678C73.0704 66.0309 73.8053 66.817 73.127 66.5363C73.127 66.5924 72.2791 66.8732 72.7313 66.3678ZM70.6399 66.0309L71.6573 66.0871C70.5268 66.7047 71.0356 66.3117 70.6399 66.0309ZM70.6399 66.0309L69.6225 65.9748C70.8095 65.4132 70.2442 65.8063 70.6399 66.0309ZM68.9442 65.3571C69.0007 65.3009 69.0572 65.4132 69.0572 65.4694L69.1137 65.5256C69.1137 65.5256 68.492 65.8063 68.9442 65.3571ZM61.0873 61.3142L61.4264 61.3704L61.2568 61.6511L61.0873 61.3142ZM61.0873 61.3142L60.7481 61.2019L60.9177 60.9212L61.0873 61.3142ZM59.7307 60.3035L60.0698 60.3596L59.9003 60.6404L59.7307 60.3035ZM59.3915 59.9666L59.0524 59.8543L59.222 59.5735L59.3915 59.9666ZM52.5521 51.8247L52.8912 51.8808L52.7216 52.1616L52.5521 51.8247ZM52.5521 51.8247L52.2129 51.7124L52.3825 51.4316L52.5521 51.8247ZM51.8738 50.7578L52.2129 50.814L51.9868 51.0947L51.8738 50.7578ZM51.1955 49.4102C51.252 49.354 51.3085 49.4663 51.3085 49.5225L51.3651 49.5786C51.3085 49.5786 50.7433 49.8594 51.1955 49.4102ZM50.8563 48.7364C50.9129 48.6802 50.9694 48.7925 50.9694 48.8487L51.0259 48.9048C50.9694 48.8487 50.4041 49.1856 50.8563 48.7364ZM50.5172 48.0626C50.5172 47.2764 50.9129 48.0064 50.7433 48.0626C50.7433 48.0626 50.5172 48.961 50.5172 48.0626ZM50.178 47.0518C50.2346 46.9957 50.2911 47.108 50.2911 47.1641L50.3476 47.2203C50.2911 47.1641 49.7259 47.501 50.178 47.0518ZM108.285 46.378L108.172 46.7149L107.89 46.5465L108.285 46.378ZM49.8389 46.0411C49.8954 45.985 49.952 46.0973 49.952 46.1534L50.0085 46.2096C49.952 46.1534 49.3867 46.4903 49.8389 46.0411ZM55.6609 39.5837L55.6044 40.5945C54.9826 39.4714 55.3783 39.9768 55.6609 39.5837ZM47.0127 33.4633L47.0692 38.8538C46.504 37.7869 46.504 34.5301 47.0127 33.4633ZM54.9826 38.2361C55.0392 38.18 55.0957 38.2923 55.0957 38.3484L55.1522 38.4046C55.0957 38.3484 54.4739 38.6853 54.9826 38.2361ZM44.356 28.3535C44.356 27.5674 44.7517 28.2974 44.5821 28.3535C44.5821 28.3535 44.356 29.2519 44.356 28.3535ZM44.6952 27.0059C44.7517 26.9497 44.8082 27.062 44.8082 27.1182L44.8648 27.1743C44.8082 27.1182 44.243 27.4551 44.6952 27.0059ZM58.0349 25.6583L57.9219 25.9952L57.6958 25.7706L58.0349 25.6583ZM52.2129 17.8533L52.0999 18.1902L51.8738 17.9656L52.2129 17.8533ZM52.2129 17.8533L52.2695 17.5164L52.5521 17.6848L52.2129 17.8533ZM49.4998 17.5164C49.5563 17.4602 49.6128 17.5725 49.6128 17.6287L49.6693 17.6848C49.6128 17.6287 49.0476 17.9656 49.4998 17.5164ZM50.5172 16.5056L50.4041 16.8425L50.1215 16.6741L50.5172 16.5056ZM51.8738 14.8211C52.1564 13.8104 51.9303 14.0911 52.8912 13.4735C52.6086 14.428 52.8347 14.1473 51.8738 14.8211ZM53.5695 12.7435L53.513 13.3612L52.8912 13.4173L53.5695 12.7435ZM54.2478 12.0697L54.1913 12.6874L53.5695 12.7435L54.2478 12.0697ZM54.2478 12.0697C54.9261 11.059 55.8305 9.99211 56.961 9.71135C56.3392 10.6659 55.3783 11.7889 54.2478 12.0697ZM56.961 9.71135C57.6393 8.70063 58.5437 7.97067 59.6742 7.68991C59.1654 8.47603 57.8654 9.4306 56.961 9.71135ZM59.7307 7.63376L59.7872 7.29685L60.0698 7.46531L59.7307 7.63376ZM68.605 67.4347L69.6225 67.547C71.2617 69.0069 81.0969 69.3438 83.3014 68.3331H83.6405C88.7277 68.9508 100.089 62.0442 103.989 56.8221C108.907 50.2524 113.033 42.6159 113.033 33.8563C112.638 34.5301 112.129 38.2923 111.846 39.4714C111.281 41.8298 111.168 42.5597 110.037 44.8058L109.133 44.8619L108.229 46.4342C108.398 44.8058 109.303 42.9528 109.698 41.0998C110.094 39.0222 110.659 37.2815 109.642 35.2601C107.776 36.6077 107.607 43.5143 105.911 45.4235C105.968 42.3913 108.455 37.5623 107.042 34.5863C106.25 35.7093 106.081 38.18 105.685 39.7522C105.289 41.4367 104.781 43.1213 104.215 44.7496C102.237 50.4209 96.7542 55.4184 91.3278 58.0575C86.3537 60.472 83.0753 60.0789 81.323 61.3704C77.8185 60.4158 76.9141 60.865 76.2358 60.8089C75.5575 60.7527 75.7836 60.5281 74.8227 60.4158C72.9574 60.472 74.0314 60.4158 73.4661 59.9666C72.7313 59.9666 73.3531 60.0789 73.0704 59.6297C72.1095 60.0227 69.9616 59.1243 68.9442 58.5628L67.8137 57.9451C65.7788 56.766 63.97 55.8676 62.5004 54.1269C61.709 53.2285 61.8221 53.3408 60.8046 53.4531C60.2959 50.7578 55.3783 46.0411 55.6609 41.6613C55.7174 40.426 56.5088 40.7629 55.6044 39.5837C55.6044 35.4847 55.7174 30.1504 57.3001 26.669L58.3176 25.6583H57.9784L58.3176 24.9845L58.6567 24.3106L59.335 23.2999C59.7307 21.8961 61.1438 20.0432 62.3873 19.2009L62.1612 18.4709C59.9003 18.6394 59.6742 19.5378 57.9784 19.8186C58.6002 16.1687 63.5743 13.1927 66.4006 10.9467L65.1005 10.5536L67.8137 8.98139L67.1354 8.81293L67.8137 8.64448L68.492 7.74606C63.4613 8.30758 57.1306 13.9788 53.8521 18.2463C48.0866 26.0513 47.9736 36.327 47.5214 37.2254L47.4649 33.1264C46.3344 32.2841 48.7649 25.7706 49.3302 24.4229C50.1215 22.4577 53.0608 18.134 53.2869 17.1794L52.6086 17.0671C56.6784 12.8558 58.7698 9.87981 65.3266 6.7915C68.1528 5.50002 70.979 4.7139 73.9748 4.15239C79.7969 3.08552 80.2491 3.92779 84.9971 3.53473C82.8492 2.35556 77.3098 2.46786 74.7097 2.86092C73.9183 2.97322 71.6573 3.25398 71.0356 3.19782C72.7313 2.24326 77.9315 2.0748 78.949 0.895629C77.0272 -1.29426 68.5485 1.17638 66.1179 2.13095C56.0001 6.22998 49.3302 11.8451 45.1474 22.0646C41.3602 31.3857 42.6038 48.0626 48.7084 54.6884C51.8738 58.1136 53.2304 59.7981 57.2436 62.4934C60.1829 64.3464 65.3266 67.2101 68.605 67.4347Z" fill="#FF6868"/>
<path fill-rule="evenodd" clip-rule="evenodd" d="M67.8164 57.8921L68.9469 58.5098C69.0034 56.3199 70.7557 51.154 71.6035 48.9641C73.4688 44.1913 77.6517 37.79 81.3258 34.1402C82.5128 32.961 87.0912 28.8059 87.713 27.9636C83.6998 28.3005 77.3125 36.4986 74.995 40.0922C73.4123 42.5629 71.7166 45.932 70.9818 48.6272C70.5296 50.3679 68.8338 57.2745 67.8164 57.8921ZM73.4123 59.9136C73.9776 60.3628 72.9036 60.4189 74.7689 60.3628C75.2776 57.836 75.7298 55.253 76.5212 52.8385C77.1429 50.8732 78.7821 48.0657 79.2343 46.325C76.6907 48.1218 74.4298 56.2076 74.4298 59.2398C74.0906 60.4189 74.7689 59.5767 73.4123 59.9136ZM76.8038 83.3847C76.0125 80.0157 74.2602 78.7803 72.734 70.8069C72.621 70.1331 72.7906 70.4138 72.5079 69.6839C72.0557 68.2801 72.3949 69.347 71.9992 68.7854C71.3209 69.9085 72.9601 75.5236 73.3558 76.5905C73.9776 78.1065 75.5603 82.4863 76.8038 83.3847ZM97.2656 13.982C94.722 10.4445 86.6956 7.01924 82.3432 7.35615L84.4346 7.91766C92.4045 9.77065 96.0786 13.8135 97.2656 13.982ZM69.9643 6.28928L78.443 5.33471C79.0082 5.39086 79.2343 6.06467 80.8736 4.8855C77.6517 4.8855 72.3384 4.6609 69.9643 6.28928Z" fill="#FF6868"/>
<path fill-rule="evenodd" clip-rule="evenodd" d="M92.5088 5.61185C91.3218 3.92731 87.4216 2.74814 85.3867 2.97274C85.6128 3.1412 91.8305 5.38724 92.5088 5.61185Z" fill="#FF6868"/>
<path fill-rule="evenodd" clip-rule="evenodd" d="M96.9748 89.1618L91.8876 85.175C92.2832 87.3649 94.7703 88.6003 96.9748 89.1618ZM73.0649 59.6263C73.4041 59.1209 73.7432 56.4818 74.0259 55.4711C74.365 54.1235 74.9868 52.832 75.0998 51.4844C73.7432 53.0005 73.0649 57.3241 73.0649 59.6263Z" fill="#FF6868"/>
<path fill-rule="evenodd" clip-rule="evenodd" d="M62.4476 19.1445L61.4302 21.1659L65.2173 17.7969C63.4085 17.9653 63.7477 18.3584 62.4476 19.1445Z" fill="#FF6868"/>
<path fill-rule="evenodd" clip-rule="evenodd" d="M85.6775 76.9271C85.7906 78.1063 86.0167 78.8363 86.695 79.6785C87.2602 78.724 86.6384 77.601 85.6775 76.9271ZM83.6426 68.2799H83.3035C82.8513 69.5152 82.6817 70.0767 83.9818 70.4136L83.6426 68.2799ZM83.7557 56.8251C84.3775 55.9828 84.6036 54.8036 84.6601 53.849C83.9253 54.6913 83.5861 55.5336 83.7557 56.8251ZM70.3594 14.4871C70.5855 14.9363 69.8507 15.4417 71.4899 14.9363C71.8856 14.824 72.5073 14.3748 72.7334 14.2064L70.3594 14.4871ZM121.571 92.2002H122.588L123.605 91.8633V91.5264C122.305 91.5826 122.475 91.4141 121.571 92.2002ZM103.822 92.5372L105.518 92.481L103.144 91.8633L103.822 92.5372ZM89.8038 16.4524C89.069 15.7786 89.0125 15.6101 88.1081 16.0032L89.8038 16.4524ZM103.144 91.8633L101.109 91.1895C102.013 92.0318 101.787 91.8633 103.144 91.8633ZM77.4815 13.7572L79.5164 13.6449L77.4815 13.4203V13.7572ZM99.3564 22.9098C97.9433 22.9098 98.6781 22.7975 97.9999 23.2467C99.413 23.2467 98.6781 23.359 99.3564 22.9098ZM88.1081 7.29978C87.4298 6.85057 88.1646 6.96288 86.7515 6.96288C87.4298 7.41208 86.695 7.29978 88.1081 7.29978ZM75.1075 51.4345L75.7857 50.0869L75.164 50.48L75.1075 51.4345ZM86.695 6.96288C86.3558 6.73827 86.808 6.28906 85.6775 6.90672L86.695 6.96288ZM67.9288 6.96288C68.268 7.29978 69.0028 6.51367 68.3245 6.79442C68.3245 6.79442 67.4767 6.51367 67.9288 6.96288ZM69.9637 6.28906L69.0028 6.34521C70.1333 6.90672 69.5681 6.51367 69.9637 6.28906ZM58.3762 25.6612L58.7154 24.9874H58.3762V25.6612ZM58.7154 24.9312L59.0545 24.2574H58.7154V24.9312ZM59.3937 23.9205L59.7328 23.2467H59.3937V23.9205ZM67.9288 8.64741V8.98432L68.6071 8.81586L67.9288 8.64741ZM111.735 32.0624L112.018 30.7148C111.905 30.7709 111.848 30.7709 111.848 30.9394L111.735 32.0624ZM77.4815 84.7321L77.5945 85.0129L77.8771 84.8445L77.4815 84.7321ZM60.7502 21.8991L60.4111 22.0114L60.5807 22.236L60.7502 21.8991ZM79.2337 46.3809L79.5164 46.2686L79.3468 46.044L79.2337 46.3809ZM85.6775 76.9271L85.621 76.5902L85.3384 76.7587L85.6775 76.9271ZM97.3216 23.5836L97.0389 23.6959L97.2085 23.9205L97.3216 23.5836ZM76.1249 49.0762L76.4075 49.0201L76.2379 48.7393L76.1249 49.0762ZM99.0173 90.1788L99.1303 90.4596L99.3564 90.2911L99.0173 90.1788ZM90.4821 16.7893L90.5951 17.0701L90.8212 16.9016L90.4821 16.7893ZM60.072 22.9098L60.3546 22.8536L60.185 22.5729L60.072 22.9098ZM123.605 91.5264L123.945 91.4703L123.775 91.1895L123.605 91.5264ZM77.4815 84.7321L77.425 84.3952L77.1423 84.5637L77.4815 84.7321ZM95.6258 11.3988L95.7389 11.6796L95.965 11.5111L95.6258 11.3988Z" fill="#FF6868"/>
<path fill-rule="evenodd" clip-rule="evenodd" d="M65.2166 17.792L65.5557 17.6797L65.3296 17.4551L65.2166 17.792ZM53.2334 17.1182L53.516 17.0059L53.3464 16.7812L53.2334 17.1182Z" fill="#FF6868"/>
<path fill-rule="evenodd" clip-rule="evenodd" d="M76.4625 48.3965C76.519 48.4527 76.5756 48.2281 76.5756 48.2842L76.6321 48.2281C76.6321 48.2842 76.0103 47.9473 76.4625 48.3965ZM84.6586 53.5063C84.7151 53.5624 84.7716 53.3378 84.7716 53.394L84.8281 53.3378C84.8281 53.3378 84.2064 53.0009 84.6586 53.5063ZM47.4089 31.7196C47.4655 31.7758 47.522 31.6073 47.522 31.6635L47.5785 31.6073C47.5785 31.6073 46.9567 31.2704 47.4089 31.7196Z" fill="#FF6868"/>
</svg>
