<svg width="182" height="87" viewBox="0 0 182 87" fill="none" xmlns="http://www.w3.org/2000/svg">
<path d="M89.7209 30.6489L81.9512 39.405L78.8769 42.8289C79.1564 41.8747 77.2 38.3947 74.4052 34.9708C73.3431 33.6799 72.2811 32.3889 71.1073 31.1541C67.3063 27.1689 63.1699 23.3521 58.3628 19.8721C55.9592 18.1321 53.4439 16.4483 50.649 14.9889C49.2516 14.2592 47.7983 13.5857 46.2891 12.9121C45.5065 12.6315 44.724 12.3508 43.9414 12.0702C43.103 11.8457 42.3204 11.565 41.4819 11.3966C38.2958 10.6108 34.3272 10.1057 30.1349 10.4425C26.0544 10.7231 21.6945 11.7334 17.614 13.305C18.7878 12.3508 19.9617 11.4528 21.2473 10.6108C23.9304 8.75858 26.8929 7.35535 29.9672 6.17664C32.9297 4.99793 36.1718 4.26826 39.4138 3.93148C45.8978 3.2018 52.6054 4.5489 58.6982 7.13084C62.555 8.75858 66.4119 10.9476 69.8775 13.3612C73.399 15.7747 76.5293 18.525 79.2682 21.0508C82.0071 23.5766 84.3548 25.9341 86.1435 27.6179C87.9322 29.3018 89.1619 30.3683 89.7209 30.6489Z" fill="#545AE8" stroke="#545AE8"/>
<path d="M108.946 29.1823H107.157C105.592 29.1823 104.922 29.1261 101.791 29.3507L101.903 27.4984V27.0494V26.2074C101.903 25.59 101.847 24.9165 101.791 24.299C101.735 23.6816 101.679 23.0081 101.568 22.3907L101.456 21.5487L101.4 21.3803L101.344 21.212V21.0997L101.288 21.1558L101.065 21.4365C100.226 22.3907 99.3877 23.3449 98.5493 24.2429C95.0837 28.172 91.6181 31.9887 88.2084 35.8616C81.389 43.5513 74.6254 51.0726 67.9737 58.5378C64.6199 62.2984 61.2661 66.0591 57.2415 69.2023C56.2354 69.9881 55.1734 70.7178 54.1113 71.3913C53.0493 72.0649 51.8754 72.6261 50.7016 73.1874C48.3539 74.1978 45.8945 74.9836 43.3791 75.3765C33.3177 77.0042 22.6414 73.9171 15.3748 66.7326C13.5302 64.8242 11.9092 62.6913 10.5677 60.3339C9.33797 57.9765 8.27593 55.5068 7.66106 52.9249C6.37544 47.761 6.26364 42.2603 7.49337 37.0965C8.33182 33.392 9.84104 29.8558 11.8533 26.8249C13.9215 23.7939 16.4928 21.2681 19.2876 19.3036C22.0824 17.3391 25.045 15.992 27.9516 15.0378C28.6783 14.8132 29.4049 14.5887 30.1316 14.4203C30.8582 14.252 31.5849 14.1397 32.2557 13.9713C33.6531 13.8029 34.9946 13.5223 36.3361 13.5223C37.9012 13.41 39.4104 13.4661 40.8079 13.6345C39.4104 13.2978 38.013 13.0171 36.5597 12.8487C31.7526 12.2313 26.8337 12.7926 22.0265 13.9152C20.2378 14.3642 18.3374 14.9816 16.7163 15.5429C15.9338 15.7674 15.0394 16.1042 14.2569 16.441C11.8533 18.9107 9.78514 21.661 8.10824 24.5797C6.54313 27.33 5.2016 30.2487 4.25136 33.2797C3.35701 36.3107 2.68625 39.3416 2.40676 42.4849C1.8478 48.659 2.51856 54.8894 4.75443 60.3339C6.9344 65.7784 10.8472 70.3248 15.0953 73.9171C15.5984 74.3661 16.2133 74.8152 16.7722 75.2081C17.3312 75.601 17.8902 76.05 18.4491 76.3868C19.623 77.1165 20.7409 77.9023 22.0265 78.4636C24.4301 79.8107 26.9455 80.7087 29.4049 81.5507C34.4356 83.0661 39.5222 83.6274 44.3294 83.2907C52.1549 82.7294 59.4215 79.53 65.8496 75.4326C72.3337 71.3352 78.1469 66.3958 83.4012 61.1758C88.6555 55.8997 93.4627 50.2868 97.8785 44.5616C100.114 41.6991 102.294 38.8365 104.418 35.9178C105.48 34.4584 106.543 33.0552 107.549 31.5958L109.058 29.519C109.17 29.4068 109.281 29.2384 109.337 29.1823C109.226 29.1823 109.058 29.1823 108.946 29.1823Z" fill="#FBBE40" stroke="#FBBE40"/>
<path d="M110.001 57.5359L109.945 57.8165L109.554 60.0056L109.163 62.1946L109.051 62.7559C109.051 62.812 109.051 62.812 109.051 62.812L107.039 63.3172L104.915 63.8785L102.791 64.4398L101.505 64.7765L101.281 64.552L100.555 63.7101C100.052 63.1488 99.5487 62.5875 99.1015 62.0262C98.0954 60.9036 97.0892 59.8372 95.9713 58.7707C94.518 57.3114 92.5057 55.852 91.6672 55.9643C93.3441 54.0559 95.021 52.1475 96.5862 50.183C97.9277 48.5552 99.2692 46.8714 100.555 45.1875C100.723 45.8049 101.449 46.8152 101.896 47.6011C102.455 48.443 103.182 49.341 103.853 50.2391C105.586 52.5965 107.43 54.954 109.498 57.143L109.89 57.5359C110.001 57.5359 109.945 57.4798 110.001 57.5359Z" fill="#FBBE40" stroke="#FBBE40"/>
<path d="M161.483 9.93247C159.247 9.20279 156.955 8.69763 154.664 8.47312C150.192 7.96795 145.72 8.30473 141.304 9.31505C137 10.3254 132.808 11.897 128.839 13.8054C124.871 15.7138 121.07 17.9028 117.381 20.2602C116.486 20.8776 115.536 21.4389 114.642 22.0563L112.406 23.5718L111.959 23.5157C111.679 23.5157 111.455 23.4596 111.176 23.4034C110.673 23.3473 110.17 23.2351 109.611 23.1228C109.052 23.0105 108.549 22.9544 107.99 22.8421L107.263 22.786L106.592 19.0254L106.145 16.668L106.089 16.4996L106.704 15.826C108.828 13.5809 111.232 11.5041 113.859 9.76408C119.057 6.28408 124.982 3.87053 131.187 2.97247C133.423 2.6357 135.715 2.52344 138.062 2.52344C140.354 2.57957 142.702 2.86021 144.938 3.25312C149.409 4.09505 153.602 5.66666 157.011 7.40666C158.744 8.2486 160.197 9.14666 161.483 9.93247Z" fill="#545AE8" stroke="#545AE8" stroke-linejoin="round"/>
<path d="M178.99 52.5919C177.983 58.8784 175.692 65.1087 171.611 70.2726C170.773 71.3952 169.822 72.4055 168.816 73.4158C167.587 73.8087 166.022 74.3139 164.177 74.7629C159.593 75.9977 153.445 76.8958 148.414 76.7274C146.402 76.6713 144.334 76.5029 142.321 76.11C141.483 75.9416 140.588 75.7732 139.75 75.5487C141.818 75.7171 144.278 75.661 146.849 75.2119C149.252 74.8752 151.656 74.2016 153.948 73.4158C157.749 71.9565 161.326 69.9358 164.456 67.1855C167.531 64.4352 170.214 61.0113 171.891 56.9139C172.729 54.8932 173.288 52.7603 173.679 50.5713C173.959 48.3823 174.182 46.081 174.015 43.7797C173.847 41.4784 173.512 39.121 172.785 36.8758C172.114 34.5745 171.22 32.2732 169.934 30.1403C167.698 25.9306 163.73 21.6648 158.643 18.3532C153.612 15.0416 147.352 12.6842 140.812 12.179C140.588 12.179 140.309 12.179 140.085 12.1229C144.893 10.7758 149.867 10.3268 154.842 10.9442C160.6 11.6177 166.245 13.919 170.437 18.0165C174.686 22.1139 177.201 27.8952 178.486 33.901C179.716 39.9068 179.94 46.3055 178.99 52.5919Z" fill="#FBBE40" stroke="#FBBE40" stroke-linejoin="round"/>
<path d="M167.132 75.0419C163.834 77.9606 159.865 80.2619 155.673 81.9458C148.518 84.6961 139.743 85.7625 130.464 83.6296C125.824 82.5632 121.073 80.7109 116.434 78.0729C114.086 76.7819 111.738 75.3225 109.502 73.5825C108.384 72.7406 107.211 71.8425 106.093 70.9445L105.701 70.6077L105.59 70.4954L105.478 70.3832L105.422 70.3271H105.478C105.534 70.3271 105.59 70.3271 105.645 70.3271H105.757H105.925C106.875 70.1587 107.77 69.9341 108.72 69.6535C109.67 69.3729 110.564 69.0361 111.515 68.6993C111.962 68.5309 112.465 68.3064 112.912 68.138L113.974 67.689L114.309 67.5206L114.421 67.4645V67.3522L114.477 67.1838L114.645 66.5103L114.813 65.5561L114.924 64.7703C114.98 64.2651 115.092 63.7599 115.148 63.2548C115.204 62.8619 115.26 62.469 115.316 62.0761L115.371 61.9077V61.8516L115.427 61.9077L115.539 62.02L115.93 62.4129C116.098 62.6374 116.322 62.8619 116.489 63.0303C116.881 63.4232 117.272 63.8722 117.663 64.2651C120.849 67.4645 124.539 70.3832 128.675 72.7967C132.811 75.1541 137.395 77.0625 142.258 77.9045C148.798 79.0271 156.008 78.1851 161.542 76.7258C163.666 76.2767 165.567 75.6032 167.132 75.0419Z" fill="#545AE8" stroke="#545AE8" stroke-linejoin="round"/>
</svg>
