<svg width="163" height="164" viewBox="0 0 163 164" fill="none" xmlns="http://www.w3.org/2000/svg">
<circle cx="3.07547" cy="3.69559" r="3.07547" fill="#7EA6DE"/>
<circle cx="20.503" cy="3.69559" r="3.07547" fill="#7EA6DE"/>
<circle cx="37.9309" cy="3.69559" r="3.07547" fill="#7EA6DE"/>
<circle cx="55.3589" cy="3.69559" r="3.07547" fill="#7EA6DE"/>
<circle cx="72.7864" cy="3.69559" r="3.07547" fill="#7EA6DE"/>
<circle cx="90.2141" cy="3.69559" r="3.07547" fill="#7EA6DE"/>
<circle cx="107.642" cy="3.69559" r="3.07547" fill="#7EA6DE"/>
<circle cx="125.069" cy="3.69559" r="3.07547" fill="#7EA6DE"/>
<circle cx="142.497" cy="3.69559" r="3.07547" fill="#7EA6DE"/>
<circle cx="159.925" cy="3.69559" r="3.07547" fill="#7EA6DE"/>
<circle cx="3.07547" cy="21.1233" r="3.07547" fill="#7EA6DE"/>
<circle cx="20.503" cy="21.1233" r="3.07547" fill="#7EA6DE"/>
<circle cx="37.9309" cy="21.1233" r="3.07547" fill="#7EA6DE"/>
<circle cx="55.3589" cy="21.1233" r="3.07547" fill="#7EA6DE"/>
<circle cx="72.7864" cy="21.1233" r="3.07547" fill="#7EA6DE"/>
<circle cx="90.2141" cy="21.1233" r="3.07547" fill="#7EA6DE"/>
<circle cx="107.642" cy="21.1233" r="3.07547" fill="#7EA6DE"/>
<circle cx="125.069" cy="21.1233" r="3.07547" fill="#7EA6DE"/>
<circle cx="142.497" cy="21.1233" r="3.07547" fill="#7EA6DE"/>
<circle cx="159.925" cy="21.1233" r="3.07547" fill="#7EA6DE"/>
<circle cx="3.07547" cy="38.5511" r="3.07547" fill="#7EA6DE"/>
<circle cx="20.503" cy="38.5511" r="3.07547" fill="#7EA6DE"/>
<circle cx="37.9309" cy="38.5511" r="3.07547" fill="#7EA6DE"/>
<circle cx="55.3589" cy="38.5511" r="3.07547" fill="#7EA6DE"/>
<circle cx="72.7864" cy="38.5511" r="3.07547" fill="#7EA6DE"/>
<circle cx="90.2141" cy="38.5511" r="3.07547" fill="#7EA6DE"/>
<circle cx="107.642" cy="38.5511" r="3.07547" fill="#7EA6DE"/>
<circle cx="125.069" cy="38.5511" r="3.07547" fill="#7EA6DE"/>
<circle cx="142.497" cy="38.5511" r="3.07547" fill="#7EA6DE"/>
<circle cx="159.925" cy="38.5511" r="3.07547" fill="#7EA6DE"/>
<circle cx="3.07547" cy="55.9788" r="3.07547" fill="#7EA6DE"/>
<circle cx="20.5032" cy="55.9788" r="3.07547" fill="#7EA6DE"/>
<circle cx="37.9309" cy="55.9788" r="3.07547" fill="#7EA6DE"/>
<circle cx="55.3587" cy="55.9788" r="3.07547" fill="#7EA6DE"/>
<circle cx="72.7864" cy="55.9788" r="3.07547" fill="#7EA6DE"/>
<circle cx="90.2141" cy="55.9788" r="3.07547" fill="#7EA6DE"/>
<circle cx="107.642" cy="55.9788" r="3.07547" fill="#7EA6DE"/>
<circle cx="125.069" cy="55.9788" r="3.07547" fill="#7EA6DE"/>
<circle cx="142.497" cy="55.9788" r="3.07547" fill="#7EA6DE"/>
<circle cx="159.925" cy="55.9788" r="3.07547" fill="#7EA6DE"/>
<circle cx="3.07547" cy="73.4065" r="3.07547" fill="#7EA6DE"/>
<circle cx="20.503" cy="73.4065" r="3.07547" fill="#7EA6DE"/>
<circle cx="37.9309" cy="73.4065" r="3.07547" fill="#7EA6DE"/>
<circle cx="55.3589" cy="73.4065" r="3.07547" fill="#7EA6DE"/>
<circle cx="72.7864" cy="73.4065" r="3.07547" fill="#7EA6DE"/>
<circle cx="90.2141" cy="73.4065" r="3.07547" fill="#7EA6DE"/>
<circle cx="107.642" cy="73.4065" r="3.07547" fill="#7EA6DE"/>
<circle cx="125.069" cy="73.4065" r="3.07547" fill="#7EA6DE"/>
<circle cx="142.497" cy="73.4065" r="3.07547" fill="#7EA6DE"/>
<circle cx="159.925" cy="73.4065" r="3.07547" fill="#7EA6DE"/>
<circle cx="3.07547" cy="90.8343" r="3.07547" fill="#7EA6DE"/>
<circle cx="20.503" cy="90.8343" r="3.07547" fill="#7EA6DE"/>
<circle cx="37.9309" cy="90.8333" r="3.07547" fill="#7EA6DE"/>
<circle cx="55.3589" cy="90.8343" r="3.07547" fill="#7EA6DE"/>
<circle cx="72.7864" cy="90.8343" r="3.07547" fill="#7EA6DE"/>
<circle cx="90.2141" cy="90.8333" r="3.07547" fill="#7EA6DE"/>
<circle cx="107.642" cy="90.8333" r="3.07547" fill="#7EA6DE"/>
<circle cx="125.069" cy="90.8333" r="3.07547" fill="#7EA6DE"/>
<circle cx="142.497" cy="90.8343" r="3.07547" fill="#7EA6DE"/>
<circle cx="159.925" cy="90.8333" r="3.07547" fill="#7EA6DE"/>
<circle cx="3.07547" cy="108.261" r="3.07547" fill="#7EA6DE"/>
<circle cx="20.503" cy="108.261" r="3.07547" fill="#7EA6DE"/>
<circle cx="37.9309" cy="108.261" r="3.07547" fill="#7EA6DE"/>
<circle cx="55.3589" cy="108.261" r="3.07547" fill="#7EA6DE"/>
<circle cx="72.7864" cy="108.261" r="3.07547" fill="#7EA6DE"/>
<circle cx="90.2141" cy="108.261" r="3.07547" fill="#7EA6DE"/>
<circle cx="107.642" cy="108.261" r="3.07547" fill="#7EA6DE"/>
<circle cx="125.069" cy="108.261" r="3.07547" fill="#7EA6DE"/>
<circle cx="142.497" cy="108.261" r="3.07547" fill="#7EA6DE"/>
<circle cx="159.925" cy="108.261" r="3.07547" fill="#7EA6DE"/>
<circle cx="3.07547" cy="125.69" r="3.07547" fill="#7EA6DE"/>
<circle cx="20.503" cy="125.69" r="3.07547" fill="#7EA6DE"/>
<circle cx="37.9309" cy="125.689" r="3.07547" fill="#7EA6DE"/>
<circle cx="55.3589" cy="125.69" r="3.07547" fill="#7EA6DE"/>
<circle cx="72.7864" cy="125.69" r="3.07547" fill="#7EA6DE"/>
<circle cx="90.2141" cy="125.689" r="3.07547" fill="#7EA6DE"/>
<circle cx="107.642" cy="125.689" r="3.07547" fill="#7EA6DE"/>
<circle cx="125.069" cy="125.689" r="3.07547" fill="#7EA6DE"/>
<circle cx="142.497" cy="125.69" r="3.07547" fill="#7EA6DE"/>
<circle cx="159.925" cy="125.689" r="3.07547" fill="#7EA6DE"/>
<circle cx="3.07547" cy="143.116" r="3.07547" fill="#7EA6DE"/>
<circle cx="20.503" cy="143.116" r="3.07547" fill="#7EA6DE"/>
<circle cx="37.9309" cy="143.116" r="3.07547" fill="#7EA6DE"/>
<circle cx="55.3589" cy="143.116" r="3.07547" fill="#7EA6DE"/>
<circle cx="72.7864" cy="143.116" r="3.07547" fill="#7EA6DE"/>
<circle cx="90.2141" cy="143.116" r="3.07547" fill="#7EA6DE"/>
<circle cx="107.642" cy="143.116" r="3.07547" fill="#7EA6DE"/>
<circle cx="125.069" cy="143.116" r="3.07547" fill="#7EA6DE"/>
<circle cx="142.497" cy="143.116" r="3.07547" fill="#7EA6DE"/>
<circle cx="159.925" cy="143.116" r="3.07547" fill="#7EA6DE"/>
<circle cx="3.07547" cy="160.544" r="3.07547" fill="#7EA6DE"/>
<circle cx="20.5032" cy="160.544" r="3.07547" fill="#7EA6DE"/>
<circle cx="37.9309" cy="160.544" r="3.07547" fill="#7EA6DE"/>
<circle cx="55.3587" cy="160.544" r="3.07547" fill="#7EA6DE"/>
<circle cx="72.7864" cy="160.544" r="3.07547" fill="#7EA6DE"/>
<circle cx="90.2141" cy="160.544" r="3.07547" fill="#7EA6DE"/>
<circle cx="107.642" cy="160.544" r="3.07547" fill="#7EA6DE"/>
<circle cx="125.069" cy="160.544" r="3.07547" fill="#7EA6DE"/>
<circle cx="142.497" cy="160.544" r="3.07547" fill="#7EA6DE"/>
<circle cx="159.925" cy="160.544" r="3.07547" fill="#7EA6DE"/>
</svg>
