<svg width="182" height="110" viewBox="0 0 182 110" fill="none" xmlns="http://www.w3.org/2000/svg">
<path d="M31.7285 103.278C33.1336 101.14 34.4866 99.0552 35.9437 96.8656C34.2785 94.7803 32.6652 92.695 31 90.6618C31.5204 90.1405 31.9887 90.349 32.4571 90.2969C34.7468 90.2447 37.0365 90.2969 39.3262 90.2447C54.6777 89.9841 69.9771 89.8798 85.3286 90.0362C99.7434 90.1926 113.846 80.913 118.738 66.8372C123.265 53.9082 120.767 42.1263 111.921 31.6997C106.717 25.6002 99.8995 22.1073 92.1457 20.3348C91.9896 20.2827 91.7815 20.2827 91.5733 20.2305C91.4692 20.2305 91.4172 20.2827 91.2611 20.3348C90.8448 21.3774 91.3131 22.5244 90.8968 23.7755C87.5143 20.0741 84.2358 16.5291 80.9053 12.8277C84.1317 9.28266 87.202 5.89403 90.4805 2.29688C90.5846 3.96512 90.4805 5.42484 90.9488 6.88455C91.9376 7.30161 92.9784 7.14522 94.0191 7.19735C101.773 7.87507 108.59 10.9509 114.627 15.7471C121.652 21.3774 127.272 28.1547 130.863 36.4959C134.922 45.9841 135.286 55.785 132.944 65.7424C131.331 72.6239 128.625 79.0362 124.306 84.7187C118.634 92.1736 111.192 97.022 102.501 100.306C95.9966 102.757 89.2315 103.486 82.3624 103.486C68.8843 103.486 55.3542 103.539 41.8761 103.539C39.1181 103.539 36.36 103.539 33.6019 103.539C33.0295 103.539 32.5091 103.643 31.7285 103.278Z" fill="#F65535"/>
<path d="M45.8283 83.9319C36.149 69.3348 33.0787 53.7471 39.6877 37.1168C46.6609 19.7045 60.6073 10.9462 78.3526 7.29688C77.1557 9.69498 75.2302 11.5196 73.7211 13.8135C75.5945 16.003 77.8842 17.6713 79.8097 19.8609C79.3934 20.33 78.8209 20.3301 78.3526 20.4343C74.1374 21.5291 70.1304 23.041 66.3836 25.2305C59.9828 29.0362 55.3514 34.3537 52.6974 41.2874C49.7832 48.8466 48.8465 56.5623 51.0842 64.4864C52.6974 70.1689 55.8718 74.9651 59.8788 79.1879C61.4399 80.804 63.1052 82.3158 65.0306 83.9841C58.5257 83.932 52.2811 83.9319 45.8283 83.9319Z" fill="#FBBE40"/>
<path d="M139.237 90.0408C139.862 88.6854 139.706 87.2778 139.498 85.4531C143.349 89.1545 147.095 92.7517 150.79 96.2446C146.991 99.9982 143.192 103.7 139.498 107.297C139.654 106.358 139.81 105.003 139.133 103.595C129.975 103.595 120.764 103.595 111.553 103.595C112.698 102.031 114.207 100.989 115.56 99.8418C118.89 97.0787 122.273 94.4721 125.603 91.709C126.748 90.7185 128.049 90.7185 129.402 90.6143C132.368 90.4579 135.282 90.6664 138.249 90.3015C138.561 90.3015 138.873 90.3536 139.237 90.0408Z" fill="#545AE8"/>
</svg>
