<svg width="16" height="16" viewBox="0 0 16 16" fill="none" xmlns="http://www.w3.org/2000/svg">
<path d="M5.53174 7.49772C5.76864 7.49772 5.99584 7.40361 6.16335 7.2361C6.33087 7.06858 6.42498 6.84139 6.42498 6.60448C6.42498 6.36758 6.33087 6.14038 6.16335 5.97287C5.99584 5.80535 5.76864 5.71125 5.53174 5.71125C5.29484 5.71125 5.06764 5.80535 4.90012 5.97287C4.73261 6.14038 4.6385 6.36758 4.6385 6.60448C4.6385 6.84139 4.73261 7.06858 4.90012 7.2361C5.06764 7.40361 5.29484 7.49772 5.53174 7.49772ZM11.0698 6.60448C11.0698 6.84139 10.9757 7.06858 10.8082 7.2361C10.6407 7.40361 10.4135 7.49772 10.1766 7.49772C9.93968 7.49772 9.71248 7.40361 9.54496 7.2361C9.37745 7.06858 9.28334 6.84139 9.28334 6.60448C9.28334 6.36758 9.37745 6.14038 9.54496 5.97287C9.71248 5.80535 9.93968 5.71125 10.1766 5.71125C10.4135 5.71125 10.6407 5.80535 10.8082 5.97287C10.9757 6.14038 11.0698 6.36758 11.0698 6.60448ZM5.87188 12.0286C6.48375 12.3465 7.16467 12.5084 7.85416 12.4999C8.5436 12.5084 9.22448 12.3465 9.83632 12.0286C10.4482 11.7108 10.972 11.2467 11.3614 10.6777C11.4233 10.5767 11.4426 10.4553 11.415 10.3402C11.3874 10.225 11.3153 10.1256 11.2143 10.0636C11.1134 10.0017 10.992 9.98241 10.8769 10.01C10.7617 10.0376 10.6623 10.1097 10.6003 10.2107C10.2912 10.6497 9.87931 11.0064 9.40064 11.2498C8.92198 11.4931 8.39105 11.6156 7.85416 11.6066C7.31725 11.6154 6.78634 11.4928 6.30765 11.2495C5.82895 11.0062 5.41699 10.6496 5.10763 10.2107C5.0457 10.1097 4.94622 10.0376 4.83107 10.01C4.71592 9.98241 4.59454 10.0017 4.49362 10.0636C4.3927 10.1256 4.32051 10.225 4.29294 10.3402C4.26536 10.4553 4.28466 10.5767 4.34659 10.6777C4.73602 11.2467 5.25996 11.7107 5.87188 12.0286ZM7.85416 1.06641C3.90747 1.06641 0.708252 4.26563 0.708252 8.21231C0.708252 12.159 3.90747 15.3582 7.85416 15.3582C11.8008 15.3582 15.0001 12.159 15.0001 8.21231C15.0001 4.26563 11.8008 1.06641 7.85416 1.06641ZM1.60149 8.21231C1.60149 4.75905 4.4009 1.95964 7.85416 1.95964C11.3074 1.95964 14.1068 4.75905 14.1068 8.21231C14.1068 11.6656 11.3074 14.465 7.85416 14.465C4.4009 14.465 1.60149 11.6656 1.60149 8.21231Z" fill="#686C8D" stroke="#686C8D" stroke-width="0.446622"/>
</svg>
