<svg width="18" height="19" viewBox="0 0 18 19" fill="none" xmlns="http://www.w3.org/2000/svg">
<path fill-rule="evenodd" clip-rule="evenodd" d="M8.57889 18.0548C3.84374 18.0548 0.00537109 14.2164 0.00537109 9.48126C0.00537109 4.74611 3.84374 0.907745 8.57889 0.907745C13.314 0.907745 17.1524 4.74611 17.1524 9.48126C17.1524 14.2164 13.314 18.0548 8.57889 18.0548ZM12.0083 10.3386C12.0083 11.2482 11.647 12.1204 11.0038 12.7636C10.3607 13.4067 9.48842 13.768 8.57889 13.768C7.66935 13.768 6.79707 13.4067 6.15393 12.7636C5.51079 12.1204 5.14948 11.2482 5.14948 10.3386H12.0083ZM8.57889 16.3401C10.398 16.3401 12.1425 15.6175 13.4288 14.3312C14.7151 13.0449 15.4377 11.3003 15.4377 9.48126C15.4377 7.66219 14.7151 5.91763 13.4288 4.63135C12.1425 3.34507 10.398 2.62245 8.57889 2.62245C6.75982 2.62245 5.01525 3.34507 3.72897 4.63135C2.4427 5.91763 1.72007 7.66219 1.72007 9.48126C1.72007 11.3003 2.4427 13.0449 3.72897 14.3312C5.01525 15.6175 6.75982 16.3401 8.57889 16.3401ZM6.43551 8.62391C6.77659 8.62391 7.10369 8.48842 7.34487 8.24724C7.58605 8.00607 7.72154 7.67896 7.72154 7.33788C7.72154 6.99681 7.58605 6.6697 7.34487 6.42852C7.10369 6.18735 6.77659 6.05186 6.43551 6.05186C6.09443 6.05186 5.76733 6.18735 5.52615 6.42852C5.28497 6.6697 5.14948 6.99681 5.14948 7.33788C5.14948 7.67896 5.28497 8.00607 5.52615 8.24724C5.76733 8.48842 6.09443 8.62391 6.43551 8.62391ZM10.7223 8.62391C11.0633 8.62391 11.3905 8.48842 11.6316 8.24724C11.8728 8.00607 12.0083 7.67896 12.0083 7.33788C12.0083 6.99681 11.8728 6.6697 11.6316 6.42852C11.3905 6.18735 11.0633 6.05186 10.7223 6.05186C10.3812 6.05186 10.0541 6.18735 9.81291 6.42852C9.57173 6.6697 9.43624 6.99681 9.43624 7.33788C9.43624 7.67896 9.57173 8.00607 9.81291 8.24724C10.0541 8.48842 10.3812 8.62391 10.7223 8.62391Z" fill="#696E7E"/>
</svg>
