<svg width="16" height="15" viewBox="0 0 16 15" fill="none" xmlns="http://www.w3.org/2000/svg">
<path d="M0.712646 1.8052C0.712646 0.808729 1.52126 0 2.5176 0H13.3473C14.3436 0 15.1523 0.808729 15.1523 1.8052V9.54176C15.1523 10.0205 14.9621 10.4797 14.6236 10.8182C14.2851 11.1568 13.826 11.347 13.3473 11.347H9.02574L6.37194 14.0011C6.16159 14.2107 5.89391 14.3533 5.60264 14.411C5.31137 14.4686 5.00955 14.4388 4.73523 14.3252C4.4609 14.2115 4.22635 14.0192 4.06114 13.7725C3.89592 13.5257 3.80744 13.2356 3.80685 12.9386V11.347H2.5176C2.03889 11.347 1.5798 11.1568 1.2413 10.8182C0.90281 10.4797 0.712646 10.0205 0.712646 9.54176V1.8052ZM2.5176 1.54731C2.44921 1.54731 2.38363 1.57448 2.33527 1.62285C2.28691 1.67121 2.25975 1.7368 2.25975 1.8052V9.54176C2.25975 9.68411 2.37526 9.79965 2.5176 9.79965H4.5804C4.78556 9.79965 4.98231 9.88116 5.12738 10.0262C5.27245 10.1713 5.35395 10.3681 5.35395 10.5733V12.8324L8.15936 10.0266C8.23109 9.95468 8.31629 9.89762 8.41009 9.85868C8.50389 9.81974 8.60444 9.79968 8.706 9.79965H13.3473C13.4157 9.79965 13.4813 9.77248 13.5296 9.72411C13.578 9.67575 13.6052 9.61016 13.6052 9.54176V1.8052C13.6052 1.7368 13.578 1.67121 13.5296 1.62285C13.4813 1.57448 13.4157 1.54731 13.3473 1.54731H2.5176Z" fill="#696E7E"/>
</svg>
