<svg width="14" height="14" viewBox="0 0 14 14" fill="none" xmlns="http://www.w3.org/2000/svg">
<path d="M0.810868 6.91963C0.810868 6.00563 0.805868 5.09156 0.810868 4.17756C0.813704 3.38 1.06825 2.60374 1.53816 1.9593C2.00807 1.31486 2.66931 0.835127 3.42781 0.588575C3.79632 0.469083 4.18061 0.404802 4.56795 0.397657C6.40095 0.377657 8.23495 0.380577 10.0679 0.390577C10.9862 0.389194 11.8738 0.72104 12.566 1.32442C13.2582 1.92779 13.7079 2.76173 13.8319 3.67158C13.8743 4.07844 13.8887 4.48772 13.8748 4.89656C13.8788 6.45856 13.8788 8.0209 13.8748 9.58357C13.8895 10.507 13.5675 11.4043 12.9688 12.1075C12.3701 12.8107 11.5359 13.2718 10.6219 13.4046C10.2367 13.4505 9.84845 13.4668 9.46077 13.4536C7.86677 13.4582 6.27279 13.4582 4.67879 13.4536C3.75239 13.4699 2.85231 13.1463 2.14827 12.544C1.44423 11.9417 0.985212 11.1024 0.857987 10.1846C0.80553 9.63999 0.789089 9.09242 0.808915 8.54561C0.801915 8.00361 0.808915 7.46163 0.808915 6.91963H0.810868ZM7.33797 3.65767C6.69281 3.65866 6.06233 3.8509 5.52644 4.21016C4.99056 4.56941 4.5732 5.07943 4.32723 5.67586C4.08125 6.27229 4.01777 6.92829 4.14461 7.56087C4.27144 8.19344 4.58297 8.77419 5.03987 9.22969C5.49677 9.68519 6.07855 9.99505 6.7115 10.1199C7.34446 10.2448 8.00011 10.1792 8.59578 9.93135C9.19145 9.68354 9.70033 9.26472 10.0579 8.72774C10.4155 8.19075 10.6058 7.55979 10.6048 6.91463C10.6044 6.48618 10.5197 6.06197 10.3553 5.66633C10.1909 5.2707 9.94998 4.91145 9.64656 4.60896C9.34314 4.30647 8.98313 4.06675 8.58699 3.90352C8.19086 3.74029 7.76641 3.65675 7.33797 3.65767ZM11.1539 2.5666C11.0469 2.56623 10.9422 2.59749 10.8529 2.65645C10.7636 2.7154 10.6936 2.79948 10.6519 2.89802C10.6102 2.99657 10.5986 3.10513 10.6185 3.21028C10.6383 3.31543 10.6887 3.41241 10.7635 3.48897C10.8383 3.56552 10.934 3.61836 11.0387 3.6407C11.1433 3.66304 11.2521 3.65393 11.3516 3.61458C11.4511 3.57522 11.5369 3.50726 11.598 3.41939C11.659 3.33151 11.6927 3.22754 11.6949 3.12056C11.6958 3.04864 11.6825 2.97726 11.6558 2.91047C11.6291 2.84369 11.5896 2.78286 11.5394 2.7314C11.4891 2.67994 11.429 2.63895 11.3629 2.61067C11.2967 2.58239 11.2258 2.56739 11.1539 2.5666Z" fill="white"/>
<path d="M7.34198 9.09312C6.91185 9.09292 6.49152 8.96529 6.13397 8.72618C5.77643 8.48707 5.49766 8.14731 5.33319 7.74986C5.16873 7.35241 5.12587 6.91511 5.2099 6.49327C5.29394 6.07142 5.50114 5.68394 5.80536 5.37986C6.10958 5.07579 6.49725 4.86874 6.91913 4.78489C7.34101 4.70105 7.77811 4.74415 8.17548 4.90879C8.57285 5.07344 8.9126 5.35229 9.15155 5.70994C9.3905 6.0676 9.51801 6.48806 9.51801 6.91819C9.5192 7.20424 9.46362 7.48769 9.35468 7.75218C9.24573 8.01667 9.08555 8.25687 8.88324 8.45909C8.68093 8.66131 8.4405 8.82146 8.17597 8.93028C7.91143 9.0391 7.62802 9.09444 7.34198 9.09312Z" fill="white"/>
</svg>
