<svg width="16" height="15" viewBox="0 0 16 15" fill="none" xmlns="http://www.w3.org/2000/svg">
<path d="M5.85547 5.35399H8.87842V6.6101C9.26157 6.02942 9.81474 5.58115 10.4622 5.32653C11.1096 5.0719 11.8198 5.02327 12.4958 5.18737C13.1719 5.35146 13.7808 5.72031 14.2395 6.2434C14.6982 6.76648 14.9843 7.41838 15.0586 8.1101C15.2586 10.2281 15.1025 12.381 15.1025 14.552H12.1426V13.7991C12.1426 12.4551 12.1476 11.1101 12.1426 9.7661C12.1405 9.47763 12.1133 9.18978 12.0615 8.90599C12.053 8.70468 12.0022 8.50748 11.9124 8.32714C11.8225 8.14679 11.6956 7.9874 11.54 7.85936C11.3845 7.73133 11.2035 7.63756 11.0093 7.58409C10.815 7.53063 10.6118 7.51867 10.4126 7.54906C9.99455 7.58998 9.60675 7.78574 9.32568 8.09789C9.04462 8.41004 8.89056 8.81604 8.89355 9.23607C8.88655 10.8181 8.89355 12.401 8.89355 13.984V14.5581H5.86157L5.85547 5.35399Z" fill="white"/>
<path d="M4.04272 14.5587H1.05078V5.35864H4.04272V14.5587Z" fill="white"/>
<path d="M2.54004 4.04603C2.32365 4.06192 2.10619 4.03325 1.90137 3.96168C1.69654 3.8901 1.50851 3.77722 1.34912 3.63001C1.18973 3.48281 1.06246 3.30434 0.974854 3.10584C0.887246 2.90735 0.841179 2.69305 0.839844 2.47608C0.840612 2.2551 0.886974 2.03657 0.97583 1.83424C1.06469 1.6319 1.19425 1.45003 1.35645 1.29993C1.51864 1.14984 1.70985 1.03473 1.91846 0.961799C2.12706 0.888866 2.34847 0.85977 2.56885 0.876105C2.78991 0.857301 3.01261 0.884777 3.22241 0.956916C3.43221 1.02905 3.6246 1.14428 3.78735 1.29505C3.9501 1.44583 4.07955 1.62884 4.16748 1.83253C4.25541 2.03621 4.29998 2.25606 4.2981 2.47791C4.29621 2.69976 4.24788 2.91869 4.15649 3.12086C4.06511 3.32302 3.93263 3.50388 3.76733 3.65186C3.60204 3.79985 3.40753 3.91179 3.19653 3.98035C2.98554 4.04891 2.7627 4.07262 2.54199 4.05006L2.54004 4.04603Z" fill="white"/>
</svg>
