<svg width="40" height="40" viewBox="0 0 40 40" fill="none" xmlns="http://www.w3.org/2000/svg">
<g clip-path="url(#clip0_112_703)">
<path d="M20 40C31.0457 40 40 31.0457 40 20C40 8.9543 31.0457 0 20 0C8.9543 0 0 8.9543 0 20C0 31.0457 8.9543 40 20 40Z" fill="#2DAAE1"/>
<path d="M32.8271 12.0441C31.8837 12.4627 30.8705 12.7457 29.8052 12.8729C30.8924 12.2218 31.7254 11.1901 32.1186 9.96217C31.0858 10.5756 29.9555 11.0075 28.7768 11.239C27.8175 10.2165 26.4496 9.57812 24.9363 9.57812C22.0315 9.57812 19.6757 11.933 19.6757 14.8394C19.6757 15.2513 19.7221 15.653 19.8113 16.0388C15.4385 15.819 11.5618 13.7244 8.96685 10.5417C8.51374 11.319 8.25439 12.2227 8.25439 13.187C8.25439 15.0121 9.18335 16.6225 10.5949 17.5658C9.75929 17.5399 8.94202 17.3143 8.2114 16.908V16.9745C8.2114 19.5239 10.0247 21.6496 12.4318 22.1331C11.9896 22.2543 11.5256 22.3175 11.0455 22.3175C10.7061 22.3175 10.3768 22.2854 10.0551 22.2249C10.7246 24.3145 12.6677 25.8355 14.9694 25.8785C13.1687 27.29 10.8998 28.1315 8.43544 28.1315C8.01099 28.1315 7.5915 28.1061 7.17969 28.0565C9.50845 29.5497 12.2735 30.4215 15.2448 30.4215C24.922 30.4215 30.2145 22.4043 30.2145 15.4518C30.2145 15.2236 30.2094 14.997 30.1984 14.7713C31.2296 14.0254 32.1197 13.102 32.8271 12.0441Z" fill="white"/>
</g>
<defs>
<clipPath id="clip0_112_703">
<rect width="40" height="40" fill="white"/>
</clipPath>
</defs>
</svg>
