<svg width="17" height="14" viewBox="0 0 17 14" fill="none" xmlns="http://www.w3.org/2000/svg">
<path d="M0.695312 11.7046C2.34275 11.8541 3.98628 11.3802 5.30127 10.3766C4.64537 10.3406 4.01518 10.1101 3.49072 9.71453C2.96626 9.319 2.57144 8.7764 2.35645 8.15569H3.61938L3.64746 8.07561C2.96669 7.89362 2.3634 7.49535 1.92871 6.94072C1.49402 6.38609 1.25134 5.70519 1.2373 5.00066L2.52832 5.35772L2.58936 5.29961C1.95421 4.82364 1.51193 4.1348 1.34351 3.35918C1.17508 2.58356 1.29182 1.77323 1.67236 1.07671C2.4704 2.04778 3.45974 2.84411 4.57886 3.41631C5.69797 3.98851 6.92278 4.32427 8.17725 4.40264C8.1754 3.92649 8.20893 3.45088 8.27734 2.97966C8.38887 2.45793 8.63176 1.97325 8.98291 1.57158C9.33406 1.16991 9.78178 0.864489 10.2839 0.684253C10.7861 0.504017 11.3261 0.45499 11.8525 0.541675C12.379 0.628361 12.8744 0.847884 13.2922 1.17961C13.4243 1.30601 13.5915 1.3899 13.7717 1.42022C13.952 1.45053 14.1371 1.42591 14.3032 1.34966C14.7382 1.17766 15.1733 1.00869 15.6353 0.827686C15.432 1.43795 15.0521 1.97392 14.5435 2.3676L14.5754 2.45671L16.0303 2.08171L16.0842 2.1447C15.6722 2.5617 15.2743 2.9946 14.8413 3.3886C14.7463 3.46861 14.67 3.56868 14.6182 3.68157C14.5663 3.79446 14.5401 3.91745 14.5413 4.04168C14.3743 7.87168 12.6894 10.7807 9.14136 12.3537C7.82842 12.9525 6.38826 13.2188 4.948 13.129C3.50774 13.0391 2.11166 12.596 0.883301 11.8387C0.847301 11.8207 0.816312 11.7956 0.695312 11.7046Z" fill="white"/>
</svg>
