<svg width="9" height="17" viewBox="0 0 9 17" fill="none" xmlns="http://www.w3.org/2000/svg">
<path d="M5.88843 8.10301V16.203H2.25244V8.13902H0.476562V5.38597H2.18848C2.20348 5.12797 2.22239 4.92694 2.22339 4.72594C2.22339 4.20194 2.22339 3.67794 2.22339 3.15294C2.1869 2.77577 2.22789 2.39515 2.34351 2.03429C2.45912 1.67342 2.64688 1.33993 2.89575 1.05419C3.14462 0.768436 3.4492 0.536487 3.79077 0.372422C4.13234 0.208358 4.50396 0.115604 4.88257 0.0999614C6.12357 -0.0240386 7.38237 0.0759136 8.68237 0.0759136V2.81493C8.15437 2.81493 7.62136 2.81493 7.08936 2.81493C6.15736 2.82393 5.90847 3.07499 5.90747 3.99999C5.90747 4.43299 5.90747 4.86595 5.90747 5.36595H8.74048C8.61748 6.31395 8.50447 7.18897 8.38647 8.10497L5.88843 8.10301Z" fill="white"/>
</svg>
