<svg width="100" height="100" viewBox="0 0 100 100" fill="none" xmlns="http://www.w3.org/2000/svg">
<rect width="100" height="100" rx="50" fill="#B4DBFF" fill-opacity="0.2"/>
<path d="M41.3562 33.6887C37.7225 33.7047 34.0909 33.7226 30.4572 33.7346C28.3145 33.7405 26.1718 33.7465 24.0291 33.7266C23.5427 33.7226 23.1282 33.7844 22.8172 34.199C21.0512 36.561 19.1876 38.8591 17.5531 41.3088C16.8774 42.3234 16.419 43.5033 16.4369 44.9126C16.5366 52.2078 16.4907 59.5049 16.4768 66.8021C16.4748 68.2233 16.6442 68.3947 18.0654 68.3927C24.4935 68.3788 30.9217 68.4306 37.3478 68.3529C38.8108 68.3349 40.2739 68.5223 41.7249 68.3728C43.9653 68.1416 46.2017 68.592 48.4321 68.3748C50.7343 68.1515 53.0345 68.604 55.3247 68.3668C56.8256 68.2113 58.3066 68.4067 59.7975 68.4007C67.28 68.3708 74.7646 68.3808 82.2472 68.3947C83.4152 68.3967 83.5607 68.2512 83.5587 67.0832C83.5428 59.6923 83.5029 52.3034 83.5926 44.9146C83.6105 43.5153 83.178 42.3273 82.4863 41.3068C80.836 38.8651 78.9843 36.5629 77.2163 34.201C76.9053 33.7844 76.4907 33.7266 76.0044 33.7286C70.539 33.7405 65.0755 33.7366 59.6101 33.7346C59.2992 33.7346 58.9882 33.7047 58.6793 33.6907" fill="#BCBEC0"/>
<path d="M69.951 33.8702C71.8804 33.8842 73.9474 33.8981 76.0502 33.9141C76.3033 33.9161 76.5445 33.94 76.7399 34.0357C76.8375 34.0835 76.9212 34.1493 76.997 34.231C77.0648 34.3067 77.1485 34.4263 77.2262 34.53L78.181 35.8016C78.8168 36.6468 79.4526 37.4899 80.0785 38.3211C80.8977 39.4293 81.7189 40.5555 82.4564 41.6956C82.8033 42.2677 83.0644 42.8876 83.2039 43.5353C83.2757 43.8602 83.3175 44.1891 83.3335 44.522C83.3474 44.8489 83.3354 45.1977 83.3374 45.5445L83.2916 53.8523L83.2517 62.162L83.2338 66.3179C83.2318 66.6607 83.2338 67.0215 83.2258 67.3464C83.2218 67.5098 83.2079 67.6693 83.178 67.7889C83.164 67.8507 83.1421 67.8905 83.1262 67.9204C83.1042 67.9424 83.0943 67.9603 83.0544 67.9782C82.9826 68.0181 82.8312 68.042 82.6777 68.05C82.5202 68.06 82.3548 68.06 82.1834 68.06L81.1449 68.058C75.6037 68.05 70.0606 68.044 64.5194 68.0361L60.3616 68.0341C60.0127 68.0321 59.6699 68.036 59.3311 68.0281C58.9902 68.0201 58.6474 68.0061 58.3006 67.9902C57.6089 67.9603 56.9073 67.9224 56.1957 67.9424C56.0183 67.9483 55.8389 67.9543 55.6615 67.9683C55.4841 67.9802 55.2988 68.0002 55.1353 68.0121C54.8005 68.044 54.4636 68.056 54.1248 68.064C53.4471 68.0779 52.7614 68.046 52.0717 68.0121C51.3821 67.9782 50.6825 67.9424 49.9789 67.9404C49.6261 67.9364 49.2713 67.9483 48.9165 67.9663C48.7391 67.9763 48.5597 67.9942 48.3843 68.0062C48.2169 68.0181 48.0494 68.0361 47.882 68.042C46.5346 68.1138 45.1612 67.9763 43.756 67.9404C43.0564 67.9244 42.3388 67.9344 41.6332 68.0081C40.9695 68.0739 40.2918 68.0659 39.6061 68.042C38.9185 68.0181 38.2228 67.9782 37.5132 67.9802L35.4303 67.9842L31.2725 67.9942L22.9567 68.0141L18.7989 68.0241C18.456 68.0241 18.0993 68.0281 17.7704 68.0221C17.6049 68.0181 17.4435 68.0081 17.304 67.9862C17.1644 67.9623 17.0568 67.9224 17.0129 67.8806C16.9173 67.8268 16.8595 67.4939 16.8535 67.173C16.8435 66.8481 16.8475 66.4933 16.8455 66.1485L16.8096 49.509L16.8017 45.3492V44.8349C16.8017 44.6715 16.8076 44.508 16.8216 44.3466C16.8495 44.0217 16.9053 43.7008 16.989 43.3879C17.1565 42.758 17.4375 42.16 17.7963 41.6059C19.3111 39.3177 21.0452 37.1531 22.7215 34.9386L22.9747 34.6037L23.1022 34.4343C23.1381 34.3885 23.166 34.3546 23.2019 34.3207C23.3354 34.1911 23.5049 34.1273 23.748 34.1074C23.9793 34.0895 24.2862 34.1014 24.5673 34.0974C24.8523 34.0974 25.1393 34.0974 25.4243 34.0974C26.5685 34.0954 27.7146 34.0935 28.8407 34.0915C31.0911 34.0895 33.2497 34.0516 35.1234 34.0237C38.8706 33.9599 41.4738 33.8682 41.3542 33.7426C41.2505 33.6211 38.8945 33.5294 35.2629 33.4716C33.4471 33.4516 31.3143 33.4297 28.9842 33.4038C27.8202 33.3938 26.6063 33.3859 25.3606 33.3759C25.0496 33.3739 24.7347 33.3719 24.4198 33.3699C24.2603 33.3699 24.0989 33.3679 23.9374 33.3679C23.764 33.3699 23.5786 33.3799 23.3833 33.4257C23.188 33.4696 22.9807 33.5593 22.8112 33.6948C22.7255 33.7606 22.6498 33.8363 22.582 33.9161C22.5103 34.0038 22.4744 34.0536 22.4226 34.1214C22.2292 34.3785 22.0339 34.6356 21.8365 34.8927C20.7323 36.3358 19.6061 37.7729 18.5318 39.2559C18.2647 39.6266 17.9976 39.9994 17.7385 40.3761C17.4794 40.7548 17.2182 41.1216 16.9731 41.5401C16.4927 42.3633 16.1738 43.3002 16.0961 44.2609C16.0781 44.4602 16.0721 44.6595 16.0721 44.8589L16.0741 45.4269L16.0801 46.5571C16.0841 47.3105 16.0881 48.064 16.0921 48.8194C16.1 50.3283 16.106 51.8411 16.114 53.358C16.126 56.3896 16.1359 59.4393 16.1479 62.5108C16.1539 64.0516 16.1598 65.5963 16.1658 67.1491C16.1698 67.3504 16.1838 67.5577 16.2296 67.7849C16.2416 67.8427 16.2535 67.8985 16.2774 67.9603C16.2974 68.0201 16.3193 68.0799 16.3572 68.1437C16.417 68.2673 16.5286 68.3829 16.6462 68.4686C16.8934 68.628 17.1325 68.6579 17.3438 68.6858C17.5551 68.7058 17.7604 68.7118 17.9577 68.7118C18.7371 68.7098 19.5204 68.7078 20.3038 68.7058C23.4371 68.6978 26.6043 68.6918 29.8134 68.6838C31.418 68.6799 33.0345 68.6779 34.6609 68.6739C35.4742 68.6719 36.2914 68.6699 37.1106 68.6679C37.9219 68.6539 38.7311 68.6958 39.5643 68.7277C39.9809 68.7417 40.3994 68.7516 40.824 68.7417C41.0353 68.7377 41.2485 68.7257 41.4618 68.7118L42.0837 68.6579C42.893 68.5981 43.7181 68.6181 44.5533 68.6579C45.3885 68.6958 46.2356 68.7516 47.0967 68.7496C47.5272 68.7456 47.9597 68.7337 48.3962 68.6938C48.8168 68.6579 49.2274 68.63 49.648 68.628C51.3283 68.6041 53.0544 68.8294 54.8344 68.7197C55.0536 68.7058 55.2868 68.6838 55.4941 68.6659C55.7054 68.646 55.9167 68.636 56.1299 68.628C56.5565 68.6121 56.989 68.6221 57.4235 68.636C58.2906 68.6679 59.1875 68.7237 60.0825 68.7118C63.6324 68.7078 67.2501 68.7018 70.9496 68.6978C74.4835 68.7018 78.3464 68.7038 82.4564 68.7078C82.592 68.7038 82.7275 68.6998 82.873 68.6819C83.0165 68.6659 83.178 68.636 83.3494 68.5503C83.5268 68.4686 83.6843 68.2812 83.7461 68.1098C83.8158 67.9364 83.8298 67.7889 83.8477 67.6414C83.8716 67.3544 83.8656 67.0893 83.8676 66.8282C83.8676 66.5651 83.8696 66.3019 83.8696 66.0388C83.8716 64.9824 83.8756 63.9121 83.8796 62.8278C83.8856 60.6611 83.8916 58.4407 83.8975 56.1824C83.9035 53.922 83.9095 51.6219 83.9155 49.2878C83.9195 48.1218 83.9214 46.9478 83.9254 45.7678C83.9254 45.4728 83.9274 45.1758 83.9274 44.8788C83.9314 44.5678 83.9095 44.2549 83.8676 43.944C83.7839 43.3241 83.6045 42.7122 83.3434 42.1421C83.2139 41.8571 83.0624 41.58 82.8949 41.3169C82.7235 41.0478 82.5561 40.8146 82.3847 40.5615C82.0438 40.0651 81.691 39.5768 81.3362 39.0885C80.6267 38.1138 79.8932 37.1531 79.1616 36.1923C78.7969 35.7119 78.4301 35.2316 78.0654 34.7492L77.5232 34.0217C77.4255 33.8862 77.2761 33.7247 77.1046 33.6211C76.9332 33.5114 76.7379 33.4476 76.5585 33.4158C76.3771 33.3819 76.2057 33.3759 76.0442 33.3759H75.5878H74.6789H72.8591C69.8114 33.3739 66.4668 33.3799 63.7859 33.4098C62.4465 33.4257 61.2725 33.4457 60.3875 33.4756C59.4985 33.5194 58.9145 33.5035 58.7211 33.5493C58.5736 33.5852 58.8926 33.635 59.5364 33.6968C60.1822 33.7347 61.1489 33.7526 62.285 33.7765C64.5613 33.8164 67.5192 33.8443 69.951 33.8702Z" fill="#3A395B"/>
<path d="M50.1682 22.73C50.9416 22.3174 51.8903 22.4489 52.7295 22.7041C53.5686 22.9592 54.3918 23.326 55.2689 23.3598C55.9725 23.3858 56.8276 23.0987 57.274 22.5506C57.3518 22.4549 57.5052 22.5087 57.5013 22.6323C57.4614 23.9219 57.4793 25.0361 57.4235 26.3796C57.4235 26.3935 57.4195 26.4075 57.4156 26.4214C57.1604 27.1729 56.2934 27.3602 55.4801 27.3602C54.7885 27.3602 54.1068 27.2088 53.461 26.9576C52.4863 26.5789 51.1768 26.1882 50.1662 26.7264" fill="#F7AEBC"/>
<path d="M51.364 26.6048C51.7706 26.6526 52.2271 26.7523 52.6477 26.9018C52.847 26.9715 53.0443 27.0532 53.2416 27.137C53.433 27.2207 53.6542 27.3124 53.8655 27.3841C54.296 27.5316 54.7485 27.6313 55.2109 27.6672C55.6734 27.6971 56.1418 27.6891 56.6261 27.5476C56.8673 27.4738 57.1125 27.3582 57.3257 27.1728C57.4334 27.0812 57.5271 26.9695 57.6048 26.8499C57.6387 26.7881 57.6805 26.7264 57.7064 26.6606L57.7523 26.549C57.7662 26.5011 57.7742 26.4453 57.7842 26.3935L57.8081 25.8254L57.824 25.2773L57.844 24.183L57.8639 22.9751L57.8659 22.706L57.8679 22.5705C57.8679 22.5266 57.846 22.5147 57.836 22.4868L57.7623 22.3353C57.7403 22.2775 57.7104 22.2556 57.6566 22.2157C57.6048 22.1798 57.535 22.1499 57.4752 22.14C57.4095 22.128 57.3816 22.128 57.3357 22.134C57.2899 22.1419 57.258 22.134 57.1842 22.1778C57.1184 22.2117 57.0587 22.2277 56.9829 22.3173L56.8633 22.4409C56.8254 22.4788 56.7916 22.4987 56.7557 22.5306C56.7238 22.5565 56.6779 22.5924 56.656 22.6084L56.6002 22.6442C56.5265 22.6921 56.4447 22.7319 56.363 22.7718C56.1996 22.8475 56.0222 22.9034 55.8428 22.9412C55.6634 22.9791 55.48 22.997 55.3006 22.995C55.1153 22.9891 54.9239 22.9671 54.7326 22.9313C53.9632 22.7877 53.1998 22.425 52.3228 22.2217C51.8165 22.1021 51.2085 22.0762 50.7581 22.2137C50.3036 22.3453 50.0664 22.5924 50.1422 22.6901C50.2139 22.7957 50.477 22.7539 50.8418 22.7598C51.2085 22.7598 51.6909 22.8216 52.2131 22.9532C52.5759 23.0449 52.9446 23.1744 53.3273 23.294C53.9213 23.4694 54.5512 23.6668 55.2448 23.6867C55.6016 23.6947 55.9524 23.6408 56.2913 23.5332C56.4607 23.4794 56.6261 23.4116 56.7876 23.3259C56.8673 23.2841 56.947 23.2362 57.0248 23.1864C57.0746 23.1525 57.0925 23.1386 57.1005 23.1306C57.1125 23.1206 57.1224 23.1107 57.1324 23.0987C57.1404 23.0867 57.1563 23.0768 57.1703 23.0867C57.1882 23.1107 57.1743 23.1445 57.1782 23.1744C57.1743 23.4774 57.1683 23.7864 57.1643 24.1013C57.1603 24.4621 57.1563 24.8308 57.1523 25.2075C57.1444 25.5763 57.1364 25.953 57.1284 26.3377C57.1284 26.3457 57.1284 26.3496 57.1224 26.3636C57.1125 26.3875 57.1045 26.4154 57.0905 26.4413C57.0646 26.4912 57.0367 26.541 57.0028 26.5848C56.8274 26.8121 56.4826 26.9556 56.078 27.0134C55.6714 27.0712 55.2109 27.0592 54.7525 26.9815C54.5213 26.9416 54.2901 26.8858 54.0569 26.8141C53.8217 26.7423 53.6044 26.6526 53.3433 26.5529C52.837 26.3636 52.2988 26.1962 51.7208 26.1344C51.36 26.0905 50.9395 26.1124 50.6185 26.2221C50.2956 26.3257 50.0963 26.5011 50.1043 26.6028C50.1083 26.6466 50.1601 26.6626 50.2378 26.6586C50.3156 26.6526 50.4232 26.6367 50.5468 26.6187C50.794 26.5789 51.1069 26.5689 51.364 26.6048Z" fill="#3A395B"/>
<path d="M61.2902 68.1079C61.2583 67.7033 61.2005 67.3007 61.2005 66.896C61.1945 58.6979 61.1945 50.5018 61.2005 42.3036C61.2005 41.8292 61.1367 41.4605 60.746 41.0778C57.521 37.9066 54.3378 34.6935 51.1347 31.5004C50.1381 30.5077 50.0185 30.4739 49.0059 31.4167C47.7522 32.5807 46.5742 33.8285 45.3623 35.0383C43.4369 36.9638 41.5333 38.9092 39.574 40.8007C39.0079 41.3469 38.8285 41.9209 38.8305 42.6764C38.8485 50.7489 38.8405 58.8235 38.8465 66.896C38.8465 67.3007 38.9043 67.7033 38.9362 68.1079" fill="#E6E7E8"/>
<path d="M38.9841 62.7222C39.028 60.8765 39.034 58.7697 39.0559 56.7804C39.0798 54.1334 39.1017 51.4864 39.1257 48.8374L39.1496 44.8649L39.1596 42.8777C39.1615 42.7083 39.1596 42.5548 39.1715 42.4053C39.1835 42.2558 39.2054 42.1123 39.2413 41.9748C39.313 41.6997 39.4426 41.4545 39.6319 41.2353L45.2568 35.6602C46.2036 34.7294 47.1245 33.7707 48.0613 32.8438C48.5297 32.3834 49.0061 31.9189 49.4864 31.4864C49.606 31.3808 49.7236 31.2831 49.8353 31.2054C49.9469 31.1296 50.0326 31.1017 50.0645 31.1077C50.0984 31.1077 50.196 31.1516 50.3057 31.2353C50.4153 31.323 50.5309 31.4266 50.6445 31.5382L56.2774 37.1452L59.0978 39.9516L60.505 41.3529C60.7003 41.5482 60.796 41.7396 60.8259 42.0086C60.8418 42.1442 60.8398 42.2917 60.8398 42.4631V42.9594C60.8398 48.2634 60.8418 53.5654 60.8418 58.8673C60.8398 60.9981 60.8558 63.3361 60.9036 65.128C60.9156 65.5765 60.9295 65.9891 60.9455 66.3579C60.9554 66.5412 60.9634 66.7146 60.9714 66.8741C60.9814 67.0395 60.9993 67.193 61.0192 67.3266C61.1089 67.8588 61.1887 68.1378 61.2485 68.1079C61.3102 68.08 61.3342 67.777 61.3421 67.2747C61.3461 67.1492 61.3501 67.0136 61.3641 66.8661C61.374 66.7146 61.386 66.5512 61.3979 66.3758C61.4199 66.025 61.4398 65.6303 61.4577 65.1958C61.5295 63.4597 61.5733 61.1137 61.5793 58.6281C61.5873 56.8881 61.5873 55.142 61.5793 53.4099C61.5634 50.5297 61.5474 47.6395 61.5335 44.6995C61.5315 43.964 61.5295 43.2265 61.5275 42.485C61.5255 42.3056 61.5315 42.1023 61.5036 41.8871C61.4777 41.6738 61.4079 41.4426 61.2883 41.2432C61.2305 41.1436 61.1627 41.0519 61.089 40.9702C61.0531 40.9283 61.0152 40.8904 60.9774 40.8506L60.8777 40.7529L60.4791 40.3583C59.4167 39.3018 58.3443 38.2335 57.256 37.1512C56.1697 36.0688 55.0675 34.9706 53.9493 33.8564C53.3892 33.2983 52.8251 32.7362 52.257 32.1701C51.972 31.8871 51.687 31.602 51.3999 31.317C51.2544 31.1735 51.1109 31.028 50.9515 30.8845C50.788 30.7429 50.6286 30.5855 50.3475 30.4778C50.212 30.422 50.0246 30.4101 49.8751 30.448C49.8373 30.4579 49.7994 30.4679 49.7635 30.4778L49.6678 30.5197C49.6001 30.5476 49.5542 30.5815 49.4984 30.6134C49.2951 30.7469 49.1376 30.8904 48.9762 31.032C48.6652 31.315 48.3662 31.602 48.0653 31.893C47.4653 32.4771 46.8753 33.077 46.2813 33.683C45.0994 34.8968 43.8656 36.1087 42.6198 37.3624C42.0198 37.9564 41.392 38.5783 40.7402 39.2241C40.4133 39.547 40.0824 39.8759 39.7436 40.2108C39.6599 40.2945 39.5741 40.3782 39.4884 40.4619L39.3589 40.5895C39.313 40.6373 39.2652 40.6812 39.2193 40.733C39.038 40.9303 38.8785 41.1615 38.7609 41.4187C38.6453 41.6758 38.5795 41.9528 38.5496 42.2259C38.5357 42.3614 38.5277 42.497 38.5277 42.6325C38.5277 42.7581 38.5277 42.8857 38.5257 43.0132C38.5237 43.5195 38.5237 44.0298 38.5217 44.548C38.5197 45.5845 38.5177 46.6449 38.5157 47.7272C38.5098 52.0505 38.5018 56.6907 38.4938 61.329C38.4918 62.786 38.4978 64.3866 38.5277 65.6662C38.5377 65.9871 38.5476 66.2861 38.5556 66.5592C38.5616 66.6967 38.5676 66.8283 38.5735 66.9518C38.5815 67.0814 38.5955 67.201 38.6094 67.3086C38.6732 67.7412 38.743 68.0122 38.7968 68.0979C38.8446 68.1637 38.8685 68.0082 38.8685 67.6993C38.8666 67.5438 38.8665 67.3505 38.8646 67.1292C38.8665 66.908 38.8845 66.6568 38.8925 66.3838C38.9283 65.2995 38.9562 63.8863 38.9841 62.7222Z" fill="#3A395B"/>
<path d="M66.5106 42.8178C66.8953 42.8637 67.3338 42.8697 67.7484 42.8936C72.1633 43.1368 76.5783 43.0291 81.0093 43.051C81.4637 43.051 81.982 42.9972 82.3627 42.8657C82.7454 42.7381 82.9726 42.5567 82.9168 42.4451C82.863 42.3315 82.6138 42.3235 82.267 42.3215C81.9002 42.3195 81.4398 42.3175 80.9535 42.3155C80.5987 42.3076 80.2279 42.3076 79.8691 42.3155C77.4693 42.4112 75.0256 42.3454 72.0756 42.3873C70.6684 42.3694 68.733 42.3474 66.7996 42.3235C66.6481 42.3215 66.4886 42.3215 66.3332 42.3275C66.1817 42.3255 66.0342 42.3255 65.9026 42.3355C65.6395 42.3514 65.4402 42.3973 65.3984 42.4929C65.3306 42.6504 66.0242 42.7561 66.5106 42.8178Z" fill="#3A395B"/>
<path d="M33.5387 42.5348C33.1579 42.491 32.7214 42.483 32.3108 42.4611C27.9337 42.2219 23.5486 42.3355 19.1655 42.3176C18.9483 42.3136 18.7031 42.3255 18.5217 42.3216C18.3284 42.3176 18.143 42.2937 17.9796 42.2657C17.6527 42.2119 17.4055 42.1442 17.3497 42.2638C17.2979 42.3694 17.4454 42.5926 17.7962 42.786C17.9716 42.8817 18.1968 42.9634 18.4519 43.0052C18.721 43.0451 18.9582 43.0451 19.2173 43.0531C19.5761 43.061 19.9389 43.061 20.2957 43.0531C22.6756 42.9554 25.0974 43.0192 28.0214 42.9733C29.4167 42.9893 31.3341 43.0112 33.2536 43.0311C33.5546 43.0331 33.8855 43.0292 34.1506 42.9993C34.2163 42.9913 34.2781 42.9833 34.3359 42.9713L34.3798 42.9634C34.4017 42.9594 34.4217 42.9554 34.4396 42.9514C34.4755 42.9414 34.5054 42.9295 34.5313 42.9175C34.6289 42.8677 34.6628 42.8219 34.6728 42.772C34.6788 42.7282 34.6449 42.6983 34.5771 42.6823C34.5054 42.6664 34.4117 42.6624 34.3001 42.6345C34.0708 42.5906 33.7798 42.5627 33.5387 42.5348Z" fill="#3A395B"/>
<path d="M56.8196 68.1078C56.6342 66.9318 56.7458 65.7478 56.7319 64.5679C56.712 62.8916 56.7339 61.2152 56.7239 59.537C56.7179 58.5443 56.5086 58.339 55.516 58.3291C54.5852 58.3191 53.6484 58.3809 52.7215 58.3151C51.3821 58.2194 50.0705 58.5623 48.7092 58.3689C47.3996 58.1836 46.0442 58.343 44.7088 58.3251C43.5328 58.3071 43.2996 58.5503 43.3055 59.7263C43.3215 62.4889 43.3115 65.2535 43.3115 68.0161" fill="#88C1D7"/>
<path d="M43.453 65.9571C43.4969 65.2515 43.5048 64.4482 43.5267 63.6888L43.6005 60.6551L43.6145 59.8957C43.6184 59.6406 43.6184 59.4014 43.6523 59.1821C43.6703 59.0765 43.6942 58.9768 43.7281 58.9071C43.7639 58.8393 43.7978 58.7995 43.8536 58.7656C43.9613 58.6958 44.1925 58.6659 44.4217 58.6619C44.6489 58.6559 44.914 58.6699 45.1712 58.6679C45.4283 58.6679 45.6834 58.6639 45.9366 58.6579C46.4428 58.646 46.9451 58.632 47.4375 58.642C47.6846 58.648 47.9298 58.6579 48.171 58.6779C48.4181 58.6978 48.6374 58.7317 48.9184 58.7656C49.4546 58.8194 49.9828 58.8034 50.4951 58.7696C51.0073 58.7357 51.5076 58.6878 51.994 58.6759C52.2391 58.6699 52.4763 58.6759 52.7175 58.6898C52.9786 58.7078 53.2397 58.7157 53.4968 58.7177C54.0131 58.7237 54.5214 58.7058 55.0237 58.7018C55.2728 58.6998 55.5299 58.6958 55.7552 58.7098C55.9824 58.7197 56.1897 58.7715 56.2296 58.8274C56.2854 58.8652 56.3392 59.0665 56.3492 59.2958C56.3631 59.519 56.3571 59.7841 56.3591 60.0352L56.3631 61.5541L56.3651 64.5918C56.3711 65.3851 56.3392 66.288 56.4149 66.9876C56.4827 67.6892 56.6521 68.1616 56.7717 68.1178C56.8933 68.0779 56.9152 67.6454 56.9671 66.9956C57.0109 66.3438 57.1026 65.4628 57.1006 64.4921C57.1086 63.8284 57.1066 63.1606 57.0966 62.5009C57.0866 61.9507 57.0747 61.4006 57.0647 60.8485C57.0607 60.5714 57.0567 60.2944 57.0528 60.0153C57.0468 59.7363 57.0567 59.4652 57.0269 59.1503C57.0109 58.9948 56.985 58.8274 56.9112 58.646C56.8415 58.4646 56.6721 58.2712 56.4827 58.1816C56.2973 58.0899 56.1259 58.064 55.9665 58.044C55.805 58.0241 55.6555 58.0221 55.506 58.0201C54.924 58.0161 54.346 58.038 53.7659 58.04C53.4769 58.04 53.1879 58.036 52.8989 58.0201C52.7594 58.0121 52.5999 58.0022 52.4444 57.9962C52.289 57.9922 52.1335 57.9922 51.978 57.9962C51.3561 58.0121 50.7442 58.0799 50.1343 58.1098C49.8293 58.1257 49.5244 58.1297 49.2234 58.1138C49.0719 58.1058 48.9224 58.0919 48.7709 58.0719C48.6095 58.052 48.44 58.0321 48.2746 58.0181C47.6069 57.9643 46.9332 57.9822 46.2575 58.0081C45.9366 58.0141 45.6017 58.0221 45.2529 58.0281C45.0795 58.0301 44.9041 58.0281 44.7267 58.0261C44.5373 58.0241 44.346 58.0201 44.1347 58.044C43.9274 58.0719 43.6862 58.1038 43.447 58.2772C43.3294 58.3629 43.2357 58.4825 43.172 58.6061C43.1401 58.6679 43.1201 58.7277 43.0962 58.7895C43.0803 58.8473 43.0623 58.9091 43.0504 58.9669C43.0025 59.1981 42.9966 59.4114 42.9926 59.6246C42.9906 59.828 42.9886 60.0353 42.9886 60.2425C42.9806 61.8929 42.9706 63.6649 42.9607 65.4349C42.9567 66.5471 42.9786 67.8786 43.174 68.0161C43.3394 68.1158 43.3952 66.8461 43.453 65.9571Z" fill="#3A395B"/>
<path d="M50.1602 67.4181C50.204 67.2148 50.212 66.9816 50.2359 66.7604C50.4771 64.4163 50.3655 62.0683 50.3854 59.7223C50.3894 59.2499 50.3236 58.6878 50.0685 58.6998C49.8233 58.7097 49.6639 59.1981 49.6499 59.7482C49.6419 59.9415 49.6419 60.1349 49.6499 60.3262C49.7476 61.5999 49.6818 62.8975 49.7256 64.4642C49.7077 65.2116 49.6818 66.2381 49.6639 67.2647C49.6579 67.5876 49.6798 67.9722 49.8751 68.0121C50.0446 68.044 50.1044 67.6753 50.1602 67.4181Z" fill="#3A395B"/>
<path d="M50.1203 30.099C50.1582 29.8937 50.1622 29.6605 50.1881 29.4393C50.495 27.0813 50.511 24.6795 50.4432 22.2776C50.4313 21.7933 50.3276 21.2212 50.0745 21.2511C49.8293 21.279 49.7017 21.7793 49.7097 22.3315C49.7077 22.5248 49.7137 22.7201 49.7257 22.9135C49.8512 24.1971 49.7615 25.5087 49.7536 27.0972C49.7316 27.476 49.7057 27.9264 49.6778 28.4108C49.6519 28.8951 49.614 29.4194 49.618 29.9575C49.618 30.2944 49.6758 30.703 49.8752 30.7229C50.0466 30.7329 50.0705 30.3582 50.1203 30.099Z" fill="#3A395B"/>
<path d="M53.0922 48.2673C52.4045 48.3351 52.2451 48.7856 52.251 49.3855C52.261 50.5037 52.2391 51.6219 52.259 52.7381C52.273 53.5693 52.5401 53.8324 53.3712 53.8523C54.2084 53.8723 55.0475 53.8504 55.8867 53.8583C56.4627 53.8643 56.7298 53.5932 56.7278 53.0172C56.7199 51.7136 56.7199 50.4081 56.7278 49.1045C56.7318 48.5284 56.4627 48.2594 55.8867 48.2633C54.9858 48.2713 54.0848 48.2653 53.1859 48.2653" fill="#F7AEBC"/>
<path d="M54.3798 48.4068C54.7884 48.4506 55.2568 48.4586 55.6973 48.4805L55.9126 48.4925C55.9764 48.4965 56.0382 48.5045 56.092 48.5184C56.2056 48.5423 56.2893 48.5922 56.3412 48.65C56.391 48.7098 56.4229 48.7955 56.4348 48.9071C56.4428 48.9609 56.4428 49.0207 56.4408 49.0825L56.4328 49.2978C56.4129 49.8858 56.397 50.4718 56.385 51.0598L56.3591 52.8238L56.3571 53.039C56.3551 53.0968 56.3511 53.1527 56.3431 53.2005C56.3272 53.3002 56.2933 53.36 56.2594 53.3938C56.2236 53.4257 56.1677 53.4576 56.0681 53.4716C56.0222 53.4795 55.9664 53.4835 55.9086 53.4835H55.6953L53.9373 53.4796C53.6483 53.4756 53.3314 53.4915 53.1022 53.4596C52.9846 53.4437 52.8829 53.4158 52.8231 53.3779C52.7653 53.34 52.7314 53.3061 52.6955 53.2244C52.6617 53.1447 52.6417 53.0271 52.6318 52.9015C52.6258 52.8397 52.6238 52.7739 52.6218 52.7042L52.6198 52.4849L52.6158 51.6039L52.6138 49.8439C52.6178 49.6127 52.6039 49.3456 52.6098 49.1602C52.6178 48.9609 52.6557 48.8194 52.7135 48.7297C52.7693 48.634 52.8749 48.5603 52.9606 48.4985C53.0464 48.4367 53.1062 48.3809 53.0922 48.3171C53.0822 48.2593 53.0125 48.2035 52.8809 48.1836C52.7534 48.1636 52.5441 48.1736 52.3288 48.335C52.1075 48.4945 51.974 48.7975 51.9282 49.0785C51.8823 49.3775 51.8863 49.6266 51.8803 49.9057C51.8723 50.2924 51.8743 50.6791 51.8823 51.0638C51.8923 51.3827 51.9042 51.7036 51.9142 52.0245C51.9182 52.1859 51.9222 52.3474 51.9262 52.5089L51.9302 52.752C51.9341 52.8397 51.9381 52.9294 51.9501 53.0231C51.974 53.2065 52.0079 53.4078 52.1235 53.6151C52.2391 53.8244 52.4623 53.9938 52.6676 54.0576C52.8749 54.1293 53.0663 54.1493 53.2497 54.1592C53.435 54.1692 53.5925 54.1612 53.7659 54.1632C54.4476 54.1652 55.1472 54.1652 55.8727 54.1672C56.08 54.1672 56.3212 54.1473 56.5624 54.0097C56.682 53.94 56.7896 53.8343 56.8614 53.7147C56.9351 53.5952 56.975 53.4696 56.9989 53.35C57.0228 53.2304 57.0248 53.1168 57.0268 53.0072C57.0268 52.9115 57.0248 52.8178 57.0248 52.7201C57.0228 52.5288 57.0208 52.3354 57.0169 52.1381C57.0248 51.3907 57.0368 50.5037 57.0468 49.5449C57.0487 49.4253 57.0487 49.3037 57.0507 49.1822C57.0527 49.1263 57.0507 49.0526 57.0487 48.9789C57.0448 48.9031 57.0368 48.8254 57.0208 48.7456C56.989 48.5862 56.9192 48.4068 56.7837 48.2573C56.6501 48.1038 56.4647 48.0141 56.2993 47.9703C56.1339 47.9244 55.9664 47.9185 55.8329 47.9185C55.7053 47.9165 55.5778 47.9165 55.4502 47.9145C55.1951 47.9125 54.9379 47.9105 54.6808 47.9085C54.035 47.9045 53.2636 47.9264 53.1839 48.1218C53.1261 48.2932 53.8656 48.351 54.3798 48.4068Z" fill="#3A395B"/>
<path d="M44.1506 48.2673C43.4629 48.3351 43.3035 48.7856 43.3095 49.3855C43.3194 50.5037 43.2975 51.6219 43.3174 52.7381C43.3314 53.5693 43.5985 53.8324 44.4296 53.8523C45.205 53.8723 45.9824 53.8503 46.7577 53.8583C47.4573 53.8663 47.7882 53.5314 47.7842 52.8318C47.7763 51.6518 47.7763 50.4718 47.7842 49.2918C47.7882 48.5922 47.4573 48.2594 46.7577 48.2653C45.9186 48.2733 45.0814 48.2673 44.2423 48.2673" fill="#F7AEBC"/>
<path d="M45.4283 48.4068C45.8349 48.4507 46.2974 48.4587 46.7359 48.4806C47.003 48.4906 47.2441 48.5583 47.3577 48.6998C47.4753 48.8394 47.5092 49.0686 47.4933 49.3357C47.4734 49.9177 47.4574 50.5017 47.4454 51.0857L47.4195 52.8358C47.4175 53.0809 47.3597 53.2823 47.2581 53.358C47.1604 53.4497 46.9591 53.4935 46.686 53.4836L44.94 53.4796C44.6509 53.4756 44.34 53.4935 44.1208 53.4537C44.0071 53.4357 43.9154 53.4038 43.8616 53.366C43.8078 53.3321 43.7779 53.2862 43.744 53.1985C43.6783 53.0211 43.6763 52.7501 43.6783 52.4491L43.6743 51.5761L43.6723 49.828C43.6763 49.5968 43.6603 49.3337 43.6683 49.1523C43.6783 48.957 43.7141 48.8154 43.7739 48.7277C43.8297 48.6321 43.9334 48.5583 44.0191 48.4965C44.1028 48.4347 44.1626 48.3789 44.1507 48.3151C44.1407 48.2573 44.0709 48.2015 43.9414 48.1816C43.8158 48.1617 43.6085 48.1716 43.3912 48.3291C43.17 48.4866 43.0344 48.7855 42.9866 49.0666C42.9607 49.2061 42.9527 49.3636 42.9467 49.4872C42.9408 49.6187 42.9368 49.7543 42.9368 49.8898C42.9288 50.2725 42.9308 50.6572 42.9388 51.0379C42.9487 51.3548 42.9607 51.6717 42.9707 51.9907C42.9746 52.1501 42.9786 52.3096 42.9826 52.471L42.9866 52.7122C42.9906 52.7959 42.9926 52.8856 43.0026 52.9773C43.0225 53.1587 43.0524 53.354 43.154 53.5593C43.2477 53.7686 43.463 53.954 43.6683 54.0337C44.0849 54.1932 44.4417 54.1553 44.7705 54.1613C45.4522 54.1613 46.1518 54.1613 46.8794 54.1633C47.0867 54.1553 47.3199 54.1114 47.5431 53.9859C47.6527 53.9201 47.7544 53.8304 47.8361 53.7267C47.9139 53.6211 47.9717 53.5035 48.0095 53.3879C48.0833 53.1607 48.0853 52.9195 48.0833 52.7321C48.0813 52.5428 48.0793 52.3494 48.0753 52.1561C48.0833 51.4146 48.0952 50.5336 48.1052 49.5848C48.1052 49.4613 48.1092 49.3576 48.1072 49.2141C48.1052 49.0726 48.0913 48.9251 48.0474 48.7696C48.0035 48.6161 47.9278 48.4527 47.8042 48.3151C47.6826 48.1776 47.5192 48.076 47.3617 48.0182C47.2023 47.9604 47.0448 47.9364 46.8933 47.9245C46.7359 47.9185 46.6222 47.9205 46.4927 47.9185C46.2395 47.9165 45.9844 47.9145 45.7293 47.9125C45.0895 47.9085 44.3241 47.9305 44.2443 48.1258C44.1845 48.2932 44.918 48.351 45.4283 48.4068Z" fill="#3A395B"/>
<path d="M49.367 37.0895C48.2328 37.5021 47.2721 38.112 46.8535 39.3259C46.1559 41.349 47.3698 43.0333 48.8148 43.5934C50.7981 44.3608 52.6558 43.125 53.186 41.5623C54.0112 39.1266 52.1535 37.1353 50.0188 37.0915C49.8334 37.0875 49.646 37.0915 49.4607 37.0915" fill="#88C1D7"/>
<path d="M50.7641 37.3305C51.1827 37.48 51.6371 37.7032 51.9899 38.0122C52.4643 38.4148 52.7992 38.955 52.9666 39.529C53.1201 40.111 53.0882 40.7289 52.9048 41.305C52.566 42.4431 51.4856 43.3261 50.3196 43.4317C50.0286 43.4577 49.7336 43.4497 49.4466 43.3819C49.1576 43.3261 48.8745 43.2205 48.6174 43.0829C48.0952 42.8079 47.6586 42.3674 47.3696 41.8551C47.2301 41.596 47.1284 41.3169 47.0686 41.0299C47.0188 40.7409 47.0029 40.4459 47.0368 40.1509C47.1125 39.5609 47.3258 38.9749 47.7125 38.5424C48.3084 37.8089 49.5024 37.3684 49.3848 37.1332C49.3329 37.0255 49.028 37.0136 48.5895 37.1471C48.155 37.2767 47.565 37.5756 47.1105 38.1138C46.953 38.3012 46.8175 38.5065 46.7039 38.7218C46.5983 38.941 46.5046 39.1662 46.4507 39.3955C46.3451 39.7742 46.3033 40.1748 46.3192 40.5755C46.3332 40.9741 46.4149 41.3767 46.5664 41.7495C46.8653 42.5009 47.4115 43.1547 48.1251 43.5912L48.4021 43.7427C48.4978 43.7845 48.5955 43.8284 48.6931 43.8722C48.8944 43.938 49.0918 44.0158 49.307 44.0516C49.7276 44.1393 50.1761 44.1633 50.6186 44.0815C51.5016 43.93 52.3487 43.4258 52.9227 42.6564C53.2018 42.2996 53.4529 41.8352 53.5725 41.3209C53.7061 40.8107 53.7499 40.2266 53.6283 39.6426C53.5107 39.0586 53.2257 38.4866 52.8091 38.0162C52.3926 37.5477 51.8544 37.171 51.2524 36.9597C50.8757 36.8222 50.4352 36.7524 50.0844 36.7664C49.7515 36.7863 49.5143 36.8461 49.4665 36.9418C49.3908 37.1272 50.2419 37.1272 50.7641 37.3305Z" fill="#3A395B"/>
<path d="M68.5258 47.1869C66.4668 47.2547 65.8489 47.7051 65.8649 48.3051C65.8948 49.4233 65.831 50.5415 65.8888 51.6577C65.9326 52.4889 66.7339 52.752 69.2254 52.7719C71.5515 52.7918 73.8796 52.7699 76.2057 52.7779C78.3026 52.7858 79.2972 52.451 79.2832 51.7514C79.2593 50.5714 79.2593 49.3914 79.2832 48.2114C79.2972 47.5118 78.3026 47.1789 76.2057 47.1849C73.6922 47.1929 71.0393 47.1869 68.5258 47.1869Z" fill="#D1D3D4"/>
<path d="M70.804 47.3283C71.5833 47.3722 72.4743 47.3802 73.3154 47.4021L76.664 47.4818C77.2102 47.5077 77.7603 47.5516 78.2566 47.6831C78.4998 47.7469 78.731 47.8506 78.8526 47.9722C78.9084 48.0339 78.9363 48.0858 78.9443 48.1496C78.9443 48.1675 78.9443 48.1854 78.9463 48.2014V48.303L78.9443 48.5143L78.9144 51.8171C78.9024 51.8709 78.8745 51.9167 78.8187 51.9706C78.7669 52.0264 78.6672 52.0762 78.5696 52.122C78.3603 52.2098 78.1071 52.2695 77.85 52.3074C77.3298 52.3852 76.7816 52.4031 76.2335 52.4031H69.5143C68.9543 52.4031 68.4041 52.3951 67.862 52.3553C67.5909 52.3353 67.3258 52.3034 67.0746 52.2536C66.8255 52.2058 66.5863 52.126 66.4428 52.0204C66.371 51.9666 66.3232 51.9148 66.2993 51.845C66.2893 51.829 66.2833 51.8111 66.2793 51.7892C66.2754 51.7673 66.2654 51.7513 66.2634 51.7274C66.2594 51.6796 66.2514 51.6377 66.2494 51.562C66.2375 51.2889 66.2315 51.0138 66.2295 50.7368C66.2255 50.1826 66.2395 49.6245 66.2415 49.0585C66.2415 48.8312 66.2395 48.598 66.2315 48.3628C66.2315 48.3369 66.2275 48.2951 66.2295 48.2831C66.2295 48.2672 66.2315 48.2512 66.2295 48.2373C66.2355 48.2094 66.2355 48.1814 66.2475 48.1575C66.2634 48.1077 66.2913 48.0599 66.3451 48.012C66.4448 47.9124 66.6142 47.8247 66.7896 47.7589C66.965 47.6911 67.1504 47.6433 67.3238 47.5994C68.0274 47.438 68.5576 47.3682 68.5277 47.2347C68.5018 47.1211 68.0254 47.0054 67.262 47.0513C67.0707 47.0652 66.8614 47.0912 66.6341 47.147C66.4089 47.2048 66.1578 47.2825 65.9106 47.4818C65.787 47.5755 65.6694 47.721 65.5957 47.8904C65.5578 47.9761 65.5359 48.0678 65.5219 48.1595L65.5139 48.2951L65.512 48.3927C65.51 48.6419 65.508 48.897 65.506 49.1561C65.494 49.8857 65.4741 50.6291 65.51 51.3746C65.5199 51.5321 65.5199 51.6696 65.5578 51.8868C65.5977 52.0921 65.7113 52.3074 65.8648 52.4609C66.0182 52.6204 66.1976 52.71 66.3651 52.7798C66.5345 52.8476 66.6999 52.8934 66.8634 52.9253C67.1902 52.9931 67.5092 53.025 67.8241 53.0449C68.141 53.0668 68.4539 53.0748 68.7689 53.0828C70.0126 53.0828 71.2764 53.0808 72.5739 53.0808C73.8735 53.0808 75.207 53.0808 76.5903 53.0808C76.9431 53.0728 77.2999 53.0549 77.6626 53.013C78.0254 52.9692 78.3961 52.9074 78.7788 52.7579C78.9682 52.6782 79.1675 52.5785 79.3389 52.3891C79.4227 52.2935 79.4984 52.1759 79.5363 52.0443C79.5562 51.9785 79.5741 51.9128 79.5741 51.847L79.5801 51.7473V51.6776C79.5781 51.3128 79.5761 50.9441 79.5741 50.5713C79.5781 49.8597 79.5841 49.0824 79.5881 48.2552C79.5901 48.2153 79.5841 48.1177 79.5781 48.0479C79.5642 47.9722 79.5442 47.8924 79.5143 47.8207C79.4785 47.7489 79.4446 47.6752 79.3948 47.6194C79.3708 47.5895 79.3469 47.5596 79.323 47.5317L79.2433 47.4599C79.024 47.2745 78.7868 47.1828 78.5556 47.1071C78.0912 46.9656 77.6268 46.9157 77.1584 46.8839C76.69 46.852 76.2136 46.854 75.7452 46.85C75.2748 46.848 74.7964 46.844 74.314 46.842C73.3513 46.838 72.3706 46.834 71.39 46.828C70.1582 46.8241 68.6872 46.846 68.5337 47.0393C68.4141 47.2147 69.8213 47.2725 70.804 47.3283Z" fill="#3A395B"/>
<path d="M70.5349 52.0424C70.5708 51.9328 70.5668 51.8132 70.5808 51.6996C70.7362 50.4937 70.7003 49.2918 70.7123 48.05C70.7163 47.8008 70.6386 47.5038 70.3854 47.5198C70.1402 47.5357 69.9888 47.7889 69.9768 48.0699C69.9688 48.1696 69.9688 48.2692 69.9768 48.3669C70.0725 49.0247 69.9828 49.6984 70.0306 50.5236C70.0147 50.9162 70.0007 51.4604 70.0346 52.0105C70.0446 52.1839 70.0924 52.3872 70.2877 52.3832C70.4572 52.3773 70.493 52.1799 70.5349 52.0424Z" fill="#3A395B"/>
<path d="M75.0057 52.0424C75.0416 51.9328 75.0376 51.8132 75.0516 51.6996C75.207 50.4937 75.1712 49.2918 75.1831 48.05C75.1871 47.8008 75.1094 47.5038 74.8562 47.5198C74.6111 47.5357 74.4596 47.7889 74.4476 48.0699C74.4397 48.1696 74.4397 48.2692 74.4476 48.3669C74.5433 49.0247 74.4536 49.6984 74.5014 50.5236C74.4855 50.9162 74.4715 51.4604 74.5054 52.0105C74.5154 52.1839 74.5632 52.3872 74.7586 52.3832C74.928 52.3773 74.9639 52.1799 75.0057 52.0424Z" fill="#3A395B"/>
<path d="M23.6185 47.1869C21.5595 47.2547 20.9416 47.7051 20.9576 48.3051C20.9875 49.4233 20.9237 50.5415 20.9815 51.6577C21.0253 52.4889 21.8266 52.752 24.3181 52.7719C26.6442 52.7918 28.9723 52.7699 31.2984 52.7779C33.3953 52.7858 34.3899 52.451 34.3759 51.7514C34.352 50.5714 34.352 49.3914 34.3759 48.2114C34.3899 47.5118 33.3953 47.1789 31.2984 47.1849C28.783 47.1929 26.13 47.1869 23.6185 47.1869Z" fill="#D1D3D4"/>
<path d="M25.8947 47.3283C26.6741 47.3722 27.5651 47.3802 28.4062 47.4021L31.7548 47.4818C32.301 47.5077 32.8511 47.5516 33.3474 47.6831C33.5906 47.7469 33.8218 47.8506 33.9434 47.9722C33.9992 48.0339 34.0271 48.0858 34.0351 48.1496C34.0351 48.1675 34.0351 48.1854 34.0371 48.2014V48.303L34.0351 48.5143L34.0052 51.8171C33.9932 51.8709 33.9653 51.9167 33.9095 51.9706C33.8577 52.0264 33.758 52.0762 33.6603 52.122C33.4511 52.2098 33.1979 52.2695 32.9408 52.3074C32.4206 52.3852 31.8724 52.4031 31.3243 52.4031H24.6051C24.045 52.4031 23.4949 52.3951 22.9527 52.3553C22.6817 52.3353 22.4166 52.3034 22.1654 52.2536C21.9163 52.2058 21.6771 52.126 21.5336 52.0204C21.4618 51.9666 21.414 51.9148 21.3901 51.845C21.3801 51.829 21.3741 51.8111 21.3701 51.7892C21.3661 51.7673 21.3562 51.7513 21.3542 51.7274C21.3502 51.6796 21.3422 51.6377 21.3402 51.562C21.3283 51.2889 21.3223 51.0138 21.3203 50.7368C21.3163 50.1826 21.3303 49.6245 21.3323 49.0585C21.3323 48.8312 21.3303 48.598 21.3223 48.3628C21.3223 48.3369 21.3183 48.2951 21.3203 48.2831C21.3203 48.2672 21.3223 48.2512 21.3203 48.2373C21.3263 48.2094 21.3263 48.1814 21.3382 48.1575C21.3542 48.1077 21.3821 48.0599 21.4359 48.012C21.5356 47.9124 21.705 47.8247 21.8804 47.7589C22.0558 47.6911 22.2412 47.6433 22.4146 47.5994C23.1182 47.438 23.6484 47.3682 23.6185 47.2347C23.5926 47.1211 23.1162 47.0054 22.3528 47.0513C22.1614 47.0652 21.9521 47.0912 21.7249 47.147C21.4997 47.2048 21.2485 47.2825 21.0014 47.4818C20.8778 47.5755 20.7602 47.721 20.6865 47.8904C20.6486 47.9761 20.6267 48.0678 20.6127 48.1595L20.6047 48.2951V48.3927C20.6027 48.6419 20.6007 48.897 20.5988 49.1561C20.5868 49.8857 20.5669 50.6291 20.6027 51.3746C20.6127 51.5321 20.6127 51.6696 20.6506 51.8868C20.6904 52.0921 20.8041 52.3074 20.9575 52.4609C21.111 52.6204 21.2904 52.71 21.4578 52.7798C21.6273 52.8476 21.7927 52.8934 21.9561 52.9253C22.283 52.9931 22.6019 53.025 22.9169 53.0449C23.2338 53.0668 23.5467 53.0748 23.8617 53.0828C25.1054 53.0828 26.3691 53.0808 27.6667 53.0808C28.9663 53.0808 30.2998 53.0808 31.6831 53.0808C32.0359 53.0728 32.3926 53.0549 32.7554 53.013C33.1182 52.9692 33.4889 52.9074 33.8716 52.7579C34.061 52.6782 34.2603 52.5785 34.4317 52.3891C34.5154 52.2935 34.5912 52.1759 34.629 52.0443C34.649 51.9785 34.6669 51.9128 34.6669 51.847L34.6729 51.7473V51.6776C34.6709 51.3128 34.6689 50.9441 34.6669 50.5713C34.6709 49.8597 34.6769 49.0824 34.6809 48.2552C34.6829 48.2153 34.6769 48.1177 34.6709 48.0479C34.657 47.9722 34.637 47.8924 34.6071 47.8207C34.5712 47.7489 34.5374 47.6752 34.4875 47.6194C34.4636 47.5895 34.4397 47.5596 34.4158 47.5317L34.336 47.4599C34.1168 47.2745 33.8796 47.1828 33.6484 47.1071C33.184 46.9656 32.7195 46.9157 32.2511 46.8839C31.7827 46.852 31.3063 46.854 30.8379 46.85C30.3675 46.848 29.8892 46.844 29.4068 46.842C28.4441 46.838 27.4634 46.834 26.4827 46.828C25.2509 46.8241 23.7799 46.846 23.6265 47.0393C23.5049 47.2147 24.9121 47.2725 25.8947 47.3283Z" fill="#3A395B"/>
<path d="M25.6256 52.0424C25.6615 51.9328 25.6575 51.8132 25.6714 51.6996C25.8269 50.4937 25.791 49.2918 25.803 48.05C25.807 47.8008 25.7293 47.5038 25.4761 47.5198C25.2309 47.5357 25.0795 47.7889 25.0675 48.0699C25.0595 48.1696 25.0595 48.2692 25.0675 48.3669C25.1632 49.0247 25.0735 49.6984 25.1213 50.5236C25.1054 50.9162 25.0914 51.4604 25.1253 52.0105C25.1353 52.1839 25.1831 52.3872 25.3784 52.3832C25.5479 52.3773 25.5837 52.1799 25.6256 52.0424Z" fill="#3A395B"/>
<path d="M30.0984 52.0424C30.1343 51.9328 30.1303 51.8132 30.1443 51.6996C30.2998 50.4937 30.2639 49.2918 30.2758 48.05C30.2798 47.8008 30.2021 47.5038 29.949 47.5198C29.7038 47.5357 29.5523 47.7889 29.5403 48.0699C29.5324 48.1696 29.5324 48.2692 29.5403 48.3669C29.636 49.0247 29.5463 49.6984 29.5942 50.5236C29.5782 50.9162 29.5643 51.4604 29.5981 52.0105C29.6081 52.1839 29.6559 52.3872 29.8513 52.3832C30.0187 52.3773 30.0566 52.1799 30.0984 52.0424Z" fill="#3A395B"/>
<path d="M68.5278 57.0692C66.4688 57.137 65.8509 57.5874 65.8669 58.1874C65.8968 59.3056 65.833 60.4238 65.8908 61.54C65.9346 62.3712 66.7359 62.6343 69.2274 62.6542C71.5535 62.6742 73.8816 62.6522 76.2077 62.6602C78.3046 62.6682 79.2992 62.3333 79.2853 61.6337C79.2613 60.4537 79.2613 59.2737 79.2853 58.0937C79.2992 57.3941 78.3046 57.0612 76.2077 57.0672C73.6923 57.0752 71.0393 57.0692 68.5278 57.0692Z" fill="#D1D3D4"/>
<path d="M70.804 57.2109C71.5834 57.2548 72.4743 57.2627 73.3155 57.2847L76.6641 57.3644C77.2102 57.3903 77.7604 57.4342 78.2567 57.5657C78.4999 57.6295 78.7311 57.7331 78.8527 57.8547C78.9085 57.9165 78.9364 57.9683 78.9443 58.0321C78.9443 58.0501 78.9443 58.068 78.9463 58.0839V58.1856L78.9443 58.3969L78.9144 61.6997C78.9025 61.7535 78.8746 61.7993 78.8188 61.8531C78.7669 61.9089 78.6673 61.9588 78.5696 62.0046C78.3603 62.0923 78.1072 62.1521 77.8501 62.19C77.3298 62.2677 76.7817 62.2857 76.2336 62.2857H69.5144C68.9543 62.2857 68.4042 62.2777 67.862 62.2378C67.5909 62.2179 67.3258 62.186 67.0747 62.1362C66.8255 62.0883 66.5864 62.0086 66.4429 61.903C66.3711 61.8491 66.3233 61.7973 66.2993 61.7276C66.2894 61.7116 66.2834 61.6937 66.2794 61.6717C66.2754 61.6498 66.2655 61.6339 66.2635 61.61C66.2595 61.5621 66.2515 61.5203 66.2495 61.4445C66.2375 61.1714 66.2316 60.8964 66.2296 60.6193C66.2256 60.0652 66.2395 59.5071 66.2415 58.941C66.2415 58.7138 66.2395 58.4806 66.2316 58.2454C66.2316 58.2195 66.2276 58.1776 66.2296 58.1657C66.2296 58.1497 66.2316 58.1338 66.2296 58.1198C66.2356 58.0919 66.2356 58.064 66.2475 58.0401C66.2635 57.9903 66.2914 57.9424 66.3452 57.8946C66.4448 57.7949 66.6143 57.7072 66.7897 57.6415C66.9651 57.5737 67.1504 57.5258 67.3239 57.482C68.0275 57.3205 68.5577 57.2508 68.5278 57.1172C68.5018 57.0036 68.0255 56.888 67.2621 56.9339C67.0707 56.9478 66.8614 56.9737 66.6342 57.0295C66.409 57.0873 66.1578 57.1651 65.9107 57.3644C65.7871 57.4581 65.6695 57.6036 65.5957 57.773C65.5579 57.8587 65.5359 57.9504 65.522 58.0421L65.514 58.1776L65.512 58.2753C65.51 58.5244 65.508 58.7796 65.506 59.0387C65.4941 59.7682 65.4741 60.5117 65.51 61.2572C65.52 61.4146 65.52 61.5522 65.5579 61.7694C65.5977 61.9747 65.7113 62.19 65.8648 62.3435C66.0183 62.5029 66.1977 62.5926 66.3651 62.6624C66.5345 62.7302 66.702 62.776 66.8634 62.8079C67.1903 62.8757 67.5092 62.9075 67.8242 62.9275C68.1411 62.9494 68.454 62.9574 68.7689 62.9653C70.0127 62.9653 71.2764 62.9634 72.574 62.9634C73.8736 62.9634 75.2071 62.9634 76.5904 62.9634C76.9432 62.9554 77.2999 62.9374 77.6627 62.8956C78.0255 62.8517 78.3962 62.7899 78.7789 62.6405C78.9683 62.5607 79.1676 62.4611 79.339 62.2717C79.4227 62.176 79.4985 62.0584 79.5363 61.9269C79.5563 61.8611 79.5742 61.7953 79.5742 61.7295L79.5802 61.6299V61.5601C79.5782 61.1954 79.5762 60.8266 79.5742 60.4539C79.5782 59.7423 79.5842 58.965 79.5882 58.1378C79.5901 58.0979 79.5842 58.0002 79.5782 57.9305C79.5642 57.8547 79.5443 57.775 79.5144 57.7032C79.4785 57.6315 79.4446 57.5577 79.3948 57.5019C79.3709 57.472 79.347 57.4421 79.3231 57.4142L79.2433 57.3425C79.0241 57.1571 78.7869 57.0654 78.5557 56.9897C78.0912 56.8481 77.6268 56.7983 77.1584 56.7664C76.69 56.7345 76.2136 56.7365 75.7452 56.7325C75.2748 56.7305 74.7964 56.7266 74.3141 56.7246C73.3514 56.7206 72.3707 56.7166 71.39 56.7106C70.1582 56.7066 68.6872 56.7286 68.5337 56.9219C68.4141 57.0953 69.8214 57.1531 70.804 57.2109Z" fill="#3A395B"/>
<path d="M70.535 61.9249C70.5709 61.8152 70.5669 61.6956 70.5809 61.582C70.7363 60.3761 70.7005 59.1742 70.7124 57.9324C70.7164 57.6833 70.6387 57.3863 70.3855 57.4022C70.1404 57.4182 69.9889 57.6713 69.9769 57.9524C69.969 58.052 69.969 58.1517 69.9769 58.2493C70.0726 58.9071 69.9829 59.5808 70.0307 60.406C70.0148 60.7987 70.0008 61.3428 70.0347 61.893C70.0447 62.0664 70.0925 62.2697 70.2879 62.2657C70.4573 62.2577 70.4932 62.0624 70.535 61.9249Z" fill="#3A395B"/>
<path d="M75.0077 61.9249C75.0436 61.8152 75.0396 61.6956 75.0535 61.582C75.209 60.3761 75.1731 59.1742 75.1851 57.9324C75.1891 57.6833 75.1113 57.3863 74.8582 57.4022C74.613 57.4182 74.4615 57.6713 74.4496 57.9524C74.4416 58.052 74.4416 58.1517 74.4496 58.2493C74.5453 58.9071 74.4556 59.5808 74.5034 60.406C74.4875 60.7987 74.4735 61.3428 74.5074 61.893C74.5174 62.0664 74.5652 62.2697 74.7605 62.2657C74.928 62.2577 74.9658 62.0624 75.0077 61.9249Z" fill="#3A395B"/>
<path d="M23.6185 57.0692C21.5595 57.137 20.9416 57.5874 20.9576 58.1874C20.9875 59.3056 20.9237 60.4238 20.9815 61.54C21.0253 62.3712 21.8266 62.6343 24.3181 62.6542C26.6442 62.6742 28.9723 62.6522 31.2984 62.6602C33.3953 62.6682 34.3899 62.3333 34.3759 61.6337C34.352 60.4537 34.352 59.2737 34.3759 58.0937C34.3899 57.3941 33.3953 57.0612 31.2984 57.0672C28.783 57.0752 26.13 57.0692 23.6185 57.0692Z" fill="#D1D3D4"/>
<path d="M25.8947 57.2109C26.6741 57.2548 27.5651 57.2627 28.4062 57.2847L31.7548 57.3644C32.301 57.3903 32.8511 57.4342 33.3474 57.5657C33.5906 57.6295 33.8218 57.7331 33.9434 57.8547C33.9992 57.9165 34.0271 57.9683 34.0351 58.0321C34.0351 58.0501 34.0351 58.068 34.0371 58.0839V58.1856L34.0351 58.3969L34.0052 61.6997C33.9932 61.7535 33.9653 61.7993 33.9095 61.8531C33.8577 61.9089 33.758 61.9588 33.6603 62.0046C33.4511 62.0923 33.1979 62.1521 32.9408 62.19C32.4206 62.2677 31.8724 62.2857 31.3243 62.2857H24.6051C24.045 62.2857 23.4949 62.2777 22.9527 62.2378C22.6817 62.2179 22.4166 62.186 22.1654 62.1362C21.9163 62.0883 21.6771 62.0086 21.5336 61.903C21.4618 61.8491 21.414 61.7973 21.3901 61.7276C21.3801 61.7116 21.3741 61.6937 21.3701 61.6717C21.3661 61.6498 21.3562 61.6339 21.3542 61.61C21.3502 61.5621 21.3422 61.5203 21.3402 61.4445C21.3283 61.1714 21.3223 60.8964 21.3203 60.6193C21.3163 60.0652 21.3303 59.5071 21.3323 58.941C21.3323 58.7138 21.3303 58.4806 21.3223 58.2454C21.3223 58.2195 21.3183 58.1776 21.3203 58.1657C21.3203 58.1497 21.3223 58.1338 21.3203 58.1198C21.3263 58.0919 21.3263 58.064 21.3382 58.0401C21.3542 57.9903 21.3821 57.9424 21.4359 57.8946C21.5356 57.7949 21.705 57.7072 21.8804 57.6415C22.0558 57.5737 22.2412 57.5258 22.4146 57.482C23.1182 57.3205 23.6484 57.2508 23.6185 57.1172C23.5926 57.0036 23.1162 56.888 22.3528 56.9339C22.1614 56.9478 21.9521 56.9737 21.7249 57.0295C21.4997 57.0873 21.2485 57.1651 21.0014 57.3644C20.8778 57.4581 20.7602 57.6036 20.6865 57.773C20.6486 57.8587 20.6267 57.9504 20.6127 58.0421L20.6047 58.1776V58.2753C20.6027 58.5244 20.6007 58.7796 20.5988 59.0387C20.5868 59.7682 20.5669 60.5117 20.6027 61.2572C20.6127 61.4146 20.6127 61.5522 20.6506 61.7694C20.6904 61.9747 20.8041 62.19 20.9575 62.3435C21.111 62.5029 21.2904 62.5926 21.4578 62.6624C21.6273 62.7302 21.7927 62.776 21.9561 62.8079C22.283 62.8757 22.6019 62.9075 22.9169 62.9275C23.2338 62.9494 23.5467 62.9574 23.8617 62.9653C25.1054 62.9653 26.3691 62.9634 27.6667 62.9634C28.9663 62.9634 30.2998 62.9634 31.6831 62.9634C32.0359 62.9554 32.3926 62.9374 32.7554 62.8956C33.1182 62.8517 33.4889 62.7899 33.8716 62.6405C34.061 62.5607 34.2603 62.4611 34.4317 62.2717C34.5154 62.176 34.5912 62.0584 34.629 61.9269C34.649 61.8611 34.6669 61.7953 34.6669 61.7295L34.6729 61.6299V61.5601C34.6709 61.1954 34.6689 60.8266 34.6669 60.4539C34.6709 59.7423 34.6769 58.965 34.6809 58.1378C34.6829 58.0979 34.6769 58.0002 34.6709 57.9305C34.657 57.8547 34.637 57.775 34.6071 57.7032C34.5712 57.6315 34.5374 57.5577 34.4875 57.5019C34.4636 57.472 34.4397 57.4421 34.4158 57.4142L34.336 57.3425C34.1168 57.1571 33.8796 57.0654 33.6484 56.9897C33.184 56.8481 32.7195 56.7983 32.2511 56.7664C31.7827 56.7345 31.3063 56.7365 30.8379 56.7325C30.3675 56.7305 29.8892 56.7266 29.4068 56.7246C28.4441 56.7206 27.4634 56.7166 26.4827 56.7106C25.2509 56.7066 23.7799 56.7286 23.6265 56.9219C23.5049 57.0953 24.9121 57.1531 25.8947 57.2109Z" fill="#3A395B"/>
<path d="M25.6256 61.9249C25.6615 61.8152 25.6575 61.6956 25.6714 61.582C25.8269 60.3761 25.791 59.1742 25.803 57.9324C25.807 57.6833 25.7293 57.3863 25.4761 57.4022C25.2309 57.4182 25.0795 57.6713 25.0675 57.9524C25.0595 58.052 25.0595 58.1517 25.0675 58.2493C25.1632 58.9071 25.0735 59.5808 25.1213 60.406C25.1054 60.7987 25.0914 61.3428 25.1253 61.893C25.1353 62.0664 25.1831 62.2697 25.3784 62.2657C25.5479 62.2577 25.5837 62.0624 25.6256 61.9249Z" fill="#3A395B"/>
<path d="M30.0984 61.9249C30.1343 61.8152 30.1303 61.6956 30.1443 61.582C30.2998 60.3761 30.2639 59.1742 30.2758 57.9324C30.2798 57.6833 30.2021 57.3863 29.949 57.4022C29.7038 57.4182 29.5523 57.6713 29.5403 57.9524C29.5324 58.052 29.5324 58.1517 29.5403 58.2493C29.636 58.9071 29.5463 59.5808 29.5942 60.406C29.5782 60.7987 29.5643 61.3428 29.5981 61.893C29.6081 62.0664 29.6559 62.2697 29.8513 62.2657C30.0187 62.2577 30.0566 62.0624 30.0984 61.9249Z" fill="#3A395B"/>
</svg>
