<svg width="101" height="100" viewBox="0 0 101 100" fill="none" xmlns="http://www.w3.org/2000/svg">
<rect x="0.5" width="100" height="100" rx="50" fill="#B4DBFF" fill-opacity="0.2"/>
<path d="M79.7783 48.7734C79.8859 46.557 80.026 44.3426 80.1985 42.1281C80.3791 39.8285 80.7201 37.5126 80.6937 35.2007C80.6856 34.4436 80.4055 33.7028 79.9468 33.1C80.233 32.6067 80.3913 32.0425 80.3649 31.4437C80.2817 29.5926 78.8487 27.9709 76.9144 27.9932C63.222 28.1495 49.5295 28.1251 35.837 27.9161C31.944 27.8572 28.0531 27.7821 24.1601 27.6928C22.3536 27.6522 20.6284 29.3085 20.7096 31.1433C20.7339 31.7056 20.8801 32.2312 21.1175 32.696C21.0445 32.9761 21.0059 33.2684 21.0201 33.5688C21.0282 33.7454 21.0526 33.92 21.083 34.0905C21.0729 34.2265 21.0709 34.3645 21.081 34.5066C21.1703 35.7203 21.1906 36.9361 21.1196 38.1519C21.0891 38.6837 21.0465 39.2175 20.9775 39.7452C20.9755 39.7249 20.8943 40.2304 20.8841 40.2892C20.8293 40.6079 20.7705 40.9265 20.7177 41.2452C20.4863 42.6132 20.2366 44.0178 20.3219 45.4102C20.3645 46.1165 20.4822 46.8188 20.5756 47.5191C20.5898 47.6226 20.6 47.6875 20.6061 47.7281C20.6061 47.7504 20.6081 47.7768 20.6101 47.8174C20.6264 48.1442 20.6669 48.473 20.6852 48.7998C20.945 53.8558 20.7096 58.9768 20.7035 64.0389C20.7014 65.8433 22.2927 67.5726 24.154 67.4894C24.7994 67.461 25.4063 67.2682 25.93 66.9536C25.9503 66.9495 25.9686 66.9475 25.9889 66.9414C25.999 66.9394 26.1167 66.9089 26.2081 66.8846C26.2933 66.8724 26.3907 66.8602 26.405 66.8582C26.8028 66.844 27.1986 66.8419 27.5944 66.8501C28.4611 66.8643 29.3257 66.8866 30.1924 66.9049C32.0131 66.9434 33.8337 66.982 35.6544 67.0185C39.1617 67.0916 42.6691 67.1647 46.1744 67.2377L67.4194 67.6822C69.443 67.7249 71.4667 67.7817 73.4883 67.8101C75.6763 67.8406 77.6857 67.4346 79.3419 65.9164C80.6085 64.7574 80.6694 62.5085 79.5348 61.2359C79.5003 57.0831 79.5774 52.9242 79.7783 48.7734Z" fill="#E6E7E8"/>
<path d="M71.6554 73.4994C71.219 72.5495 70.9592 71.6422 70.675 70.6436C69.8936 67.8994 66.51 68.7133 65.0547 70.534C64.8538 70.4731 64.6224 70.4995 64.4215 70.5969C64.3484 70.0712 64.0987 69.5963 63.6299 69.233C63.0392 68.7763 62.2415 68.6606 61.5494 68.9285C61.3444 68.7742 61.113 68.6585 60.8573 68.5997C59.7145 68.3399 58.5738 68.9427 58.2349 70.0875C58.174 70.2904 58.1111 70.4934 58.0542 70.6984C57.6848 71.0414 57.2809 71.352 56.8953 71.6747C56.0834 72.3547 56.1301 73.6983 56.7288 74.4737C57.3154 75.2308 58.3425 75.5068 59.2213 75.1455C59.5238 75.6387 60.0413 76.0264 60.5894 76.1644C60.567 76.5866 60.8248 77.0271 61.3688 77.0271C62.0122 77.0271 62.2578 76.4121 62.1096 75.9391C62.7469 75.5799 63.1326 74.906 63.2158 74.088C63.1732 74.5001 63.3051 73.7186 63.3315 73.6313C63.3579 73.542 63.3924 73.4527 63.4228 73.3655C63.431 73.3553 63.4634 73.2924 63.5162 73.1787C63.7232 72.8601 63.9526 72.5394 64.1312 72.1943C64.5818 73.747 65.4363 75.2612 66.0736 76.7185C66.3152 77.2727 67.2184 77.226 67.4762 76.7185C67.667 76.341 67.8293 75.8864 68.077 75.5433C68.5174 74.9344 69.0898 75.0785 69.7352 75.2044C70.3726 75.3282 71.1195 75.6083 71.6209 75.0319C72.0146 74.5853 71.8827 73.9947 71.6554 73.4994Z" fill="#88C1D7"/>
<path d="M72.8245 63.1499C72.6987 62.9104 72.4977 62.7358 72.3962 62.5308C72.4855 61.9909 72.5282 61.451 72.518 60.9233C72.514 60.765 72.5038 60.6066 72.4896 60.4503C72.6987 60.2393 72.7981 59.9226 72.7393 59.6446C72.7697 59.6222 72.7941 59.6019 72.8144 59.5857C73.0336 59.3908 73.0863 59.0681 73.0234 58.7961C72.857 58.0918 72.1344 58.0735 71.5681 57.8401C71.2515 57.3672 70.8597 56.9511 70.397 56.6142C70.3584 56.533 70.3259 56.4559 70.3138 56.3889C70.2447 56.0317 70.4924 55.6927 70.3726 55.3071C70.0742 54.349 69.0614 54.5479 68.282 54.5033C67.1271 54.4363 66.3761 54.0994 65.5114 53.5595C65.3491 53.1292 64.8701 52.9607 64.4824 53.0561C64.1312 53.0784 63.8187 53.3707 63.7273 53.7259C63.6502 53.7198 63.571 53.7178 63.4878 53.734C62.6374 53.8883 61.7869 54.0405 60.9385 54.1988C60.4514 54.2902 59.9744 54.3734 59.5989 54.7225C59.13 55.1569 59.0367 55.7231 58.8702 56.3077C58.6612 57.0465 58.3405 57.4951 57.6747 57.8686C56.6802 58.4267 56.0428 59.0925 56.7431 60.2149C57.1247 60.8279 57.3682 61.4023 57.1592 62.1452C56.9907 62.7378 56.5015 63.1823 56.5036 63.8319C56.5097 65.0152 57.624 65.2506 58.3669 65.825C58.5252 66.1254 58.7241 66.4116 58.9676 66.6755C59.3086 67.7959 58.8946 68.8574 60.4453 68.9305C61.0765 68.9589 61.7666 68.8168 62.3837 69.0015C63.0941 69.2167 63.4899 69.9555 64.2023 70.1849C65.1847 70.5015 65.82 69.7018 66.3172 68.9467C66.3355 68.9467 66.3497 68.9488 66.368 68.9488C67.1474 68.896 67.9288 68.8432 68.7082 68.7904C69.2603 68.7539 69.8571 68.7681 70.2102 68.2769C70.5167 67.8487 70.4782 67.3128 70.5512 66.8176C70.5533 66.8094 70.5533 66.8034 70.5553 66.7952C70.7278 66.5963 70.8902 66.3832 71.0384 66.1478C71.217 65.8677 71.3814 65.5734 71.5316 65.2669C71.6128 65.1918 71.698 65.1126 71.7873 65.0274C71.7894 65.0253 71.7914 65.0233 71.7934 65.0213C71.8787 65.0071 71.9619 64.9929 72.0349 64.9766C72.4368 64.8833 72.8083 64.7493 72.9828 64.3352C73.1432 63.9455 73.0112 63.503 72.8245 63.1499Z" fill="#F7AEBC"/>
<path d="M68.9011 61.3435C68.8848 60.834 68.7772 60.359 68.5986 59.9287C68.3063 58.9443 67.6589 58.0695 66.7638 57.5499C65.5987 56.872 64.1332 56.9897 62.9986 57.6534C62.7673 57.7265 62.542 57.8178 62.3227 57.9274C61.0542 58.5627 60.1956 59.9125 60.1915 61.3414C60.1875 62.7196 60.9507 63.6573 61.8336 64.6052C62.0873 64.8772 62.3958 65.0842 62.7348 65.2344C63.0656 65.5003 63.4553 65.7073 63.9019 65.8311C65.3633 66.233 66.7597 65.5815 67.8172 64.6133C68.7427 63.7669 68.9396 62.5329 68.9011 61.3435Z" fill="#88C1D7"/>
<path d="M44.782 67.0612C40.9519 67.0206 36.584 67.0165 32.4555 66.9983C29.7093 66.9881 26.9651 66.9759 24.2189 66.9658C23.8637 66.9658 23.5593 66.9658 23.2487 66.8988C22.9402 66.8379 22.6459 66.7202 22.38 66.5578C21.8503 66.2331 21.4423 65.7195 21.2616 65.1228C21.1703 64.8244 21.1338 64.5159 21.1338 64.1952L21.1378 63.1661L21.148 61.106C21.1683 55.6116 21.1886 50.1171 21.2089 44.6206L21.2312 36.3759L21.2393 32.2536L21.2414 31.2225C21.2393 30.8693 21.2454 30.5608 21.2819 30.2421C21.3652 29.619 21.6006 29.0426 22.0512 28.6935C22.4957 28.3342 23.133 28.2124 23.7704 28.2003L25.8244 28.1982L29.9488 28.2003L38.1956 28.2043C49.1926 28.2023 60.1916 28.2003 71.1926 28.1982L75.317 28.1962H76.3481C76.6911 28.1962 77.0423 28.1921 77.3528 28.2084C77.6674 28.2368 77.9759 28.2916 78.2581 28.3931C78.5402 28.4946 78.7878 28.6508 78.9867 28.8518C79.3907 29.2557 79.5672 29.8626 79.6058 30.4938C79.618 30.8003 79.6119 31.1636 79.6139 31.5026V32.5337L79.6119 36.6581C79.6078 42.1586 79.6038 47.6571 79.5977 53.1576C79.5997 55.368 79.6038 57.6839 79.6058 59.9146C79.6119 61.0289 79.618 62.1229 79.6241 63.1682C79.6261 63.43 79.6281 63.6878 79.6302 63.9435C79.6302 64.1932 79.6403 64.4652 79.6302 64.6844C79.62 65.1431 79.5084 65.5673 79.3095 65.9144C79.1024 66.2554 78.8041 66.5131 78.457 66.6654C78.1119 66.8217 77.7385 66.8927 77.3812 66.9171C76.6221 66.9414 75.9584 66.9637 75.4144 66.982C74.3204 67.0267 73.7054 67.0794 73.7643 67.1444C73.815 67.2073 74.426 67.2641 75.4733 67.3129C75.999 67.3352 76.6282 67.3656 77.363 67.3778C77.7405 67.3758 78.1525 67.3291 78.5707 67.1769C78.9827 67.0246 79.4069 66.7547 79.6992 66.3406C80.0036 65.9347 80.162 65.4232 80.2188 64.9056C80.2371 64.7757 80.235 64.6438 80.2452 64.5119C80.2472 64.388 80.2492 64.2622 80.2513 64.1364C80.2553 63.8847 80.2594 63.6269 80.2634 63.3671C80.2756 62.3238 80.2898 61.2176 80.304 60.0607C80.3264 57.7488 80.3406 55.2442 80.3467 52.6644C80.3487 49.0535 80.3507 45.4305 80.3527 41.842C80.3446 38.8563 80.3365 35.8624 80.3284 32.8544L80.3264 31.7259V31.1616C80.3264 30.9728 80.3284 30.7902 80.3203 30.5831C80.3061 30.1813 80.2492 29.7712 80.1092 29.3734C79.9712 28.9756 79.7418 28.59 79.4191 28.2936C79.1004 27.9932 78.7046 27.7902 78.3048 27.6725C77.9029 27.5548 77.4929 27.502 77.091 27.5C76.3298 27.5 75.5667 27.5 74.8035 27.5C68.7062 27.5041 62.5116 27.5081 56.1443 27.5122C49.7771 27.5122 43.2414 27.5142 36.4602 27.5142C33.0705 27.5162 29.62 27.5183 26.0985 27.5183C25.658 27.5183 25.2176 27.5183 24.7751 27.5203C24.3285 27.5244 23.9023 27.5102 23.4213 27.5406C22.9524 27.5771 22.4653 27.6806 22.0208 27.9181C21.5763 28.1515 21.1865 28.5331 20.9653 28.9878C20.7359 29.4384 20.6324 29.9255 20.5939 30.4005C20.5594 30.8856 20.5776 31.3301 20.5715 31.7847C20.5715 32.692 20.5736 33.6033 20.5736 34.5208C20.5594 41.5253 20.5431 49.839 20.5249 58.8063C20.5228 59.9267 20.5208 61.0593 20.5188 62.198C20.5167 62.7683 20.5167 63.3407 20.5147 63.9151C20.5167 64.0633 20.5107 64.1932 20.5188 64.3576L20.5289 64.5951L20.5614 64.8326C20.6121 65.1472 20.7014 65.4597 20.8456 65.75C20.9836 66.0423 21.1683 66.3142 21.3936 66.5477C21.6168 66.7831 21.8726 66.9901 22.1588 67.1444C22.4429 67.3027 22.7474 67.4245 23.064 67.4894C23.2203 67.5321 23.3827 67.5443 23.543 67.5646C23.7034 67.5706 23.8719 67.5808 24.0119 67.5787C25.1831 67.5787 26.3603 67.5787 27.5416 67.5787C32.2708 67.5787 37.0833 67.5788 41.8957 67.5767C47.9402 67.5747 55.1721 67.5463 55.9251 67.3474C56.5097 67.1647 49.6066 67.1139 44.782 67.0612Z" fill="#3A395B"/>
<path d="M30.3224 41.7141C31.3332 41.7587 32.4881 41.7668 33.578 41.7912C45.1799 42.0368 56.8061 41.9231 68.4262 41.9434C70.7604 41.9475 73.5512 41.8805 73.4883 41.6207C73.4335 41.371 71.0181 41.2087 68.2943 41.1944C67.3403 41.1863 66.3843 41.1863 65.4364 41.1944C59.126 41.2939 52.7061 41.2269 44.9525 41.2716C41.2524 41.2533 36.1679 41.2269 31.0835 41.2087C29.4861 41.2026 27.5761 41.2249 27.3772 41.4238C27.225 41.5963 29.0477 41.6572 30.3224 41.7141Z" fill="#3A395B"/>
<path d="M30.44 46.4352C31.4447 46.4798 32.5915 46.488 33.6774 46.5123C45.2103 46.7579 56.7695 46.6442 68.3226 46.6645C70.6426 46.6686 73.4172 46.6016 73.3563 46.3418C73.3036 46.0922 70.9024 45.9298 68.1927 45.9156C67.2449 45.9075 66.2929 45.9075 65.3511 45.9156C59.0773 46.015 52.6938 45.9481 44.987 45.9927C41.3071 45.9744 36.2552 45.9481 31.1991 45.9298C29.6119 45.9237 27.7121 45.946 27.5152 46.1449C27.361 46.3175 29.1735 46.3763 30.44 46.4352Z" fill="#3A395B"/>
<path d="M38.5528 36.3212C39.1495 36.3658 39.8315 36.3739 40.4749 36.3963C47.3272 36.6419 54.1958 36.5282 61.0583 36.5485C62.4364 36.5526 64.0846 36.4856 64.048 36.2258C64.0156 35.9761 62.5887 35.8138 60.9811 35.7995C60.4169 35.7914 59.8526 35.7914 59.2924 35.7995C55.5659 35.899 51.7723 35.832 47.1933 35.8767C45.0073 35.8584 42.0053 35.832 39.0014 35.8137C38.0575 35.8077 36.931 35.83 36.8133 36.0289C36.724 36.2034 37.8018 36.2623 38.5528 36.3212Z" fill="#3A395B"/>
<path d="M60.7742 68.6241C60.6057 68.6545 60.4677 68.6809 60.3135 68.687C60.1633 68.6951 60.0171 68.6768 59.8893 68.6261C59.6315 68.5307 59.4752 68.275 59.4163 67.9644C59.4001 67.8893 59.3899 67.8081 59.3818 67.729L59.3656 67.4712C59.3575 67.2865 59.327 67.1018 59.2905 66.9191C59.2052 66.5538 59.053 66.1925 58.8196 65.8941C58.5151 65.4882 58.0909 65.204 57.6545 64.9949C57.4252 64.8914 57.2303 64.8163 57.0517 64.7128C56.8751 64.6113 56.7229 64.4855 56.6519 64.3454C56.5788 64.2094 56.5646 64.0552 56.6113 63.8725C56.6559 63.6919 56.7493 63.5031 56.8589 63.3204C56.9096 63.2271 56.9746 63.1398 57.0334 63.0464C57.1004 62.9429 57.1694 62.8394 57.2283 62.7277C57.348 62.5065 57.4475 62.2629 57.4982 62.0031C57.551 61.7433 57.553 61.4713 57.5124 61.2136C57.4719 60.9558 57.3907 60.7122 57.2953 60.4849C57.1025 60.0282 56.8366 59.6365 56.6965 59.2651C56.664 59.1778 56.6437 59.0946 56.6458 59.0438C56.6519 58.9951 56.6539 58.9667 56.6924 58.918C56.7655 58.8165 56.9482 58.6886 57.1309 58.581C57.3196 58.4674 57.5104 58.3699 57.7215 58.2542C57.9326 58.1386 58.1417 58.0087 58.3426 57.8585C58.7465 57.5621 59.1098 57.1298 59.2864 56.6244C59.3757 56.3747 59.4265 56.1149 59.4488 55.8612C59.463 55.5811 59.461 55.4147 59.5056 55.2361C59.5909 54.8849 59.8223 54.6373 60.1389 54.5683C60.2972 54.5338 60.4758 54.5419 60.6565 54.5845L60.7904 54.6251L60.963 54.6799C61.0827 54.7185 61.2065 54.751 61.3344 54.7753C61.5881 54.8261 61.8621 54.8464 62.1361 54.8119C62.4102 54.7774 62.6821 54.686 62.9176 54.5561C63.1551 54.4262 63.3621 54.2659 63.5468 54.0974C63.6402 54.0142 63.7274 53.9228 63.8107 53.8376C63.8878 53.7584 63.9649 53.6752 64.042 53.6001C64.1963 53.4438 64.3546 53.3018 64.5048 53.2023C64.5414 53.1759 64.5779 53.1536 64.6124 53.1394C64.6286 53.1313 64.6469 53.1211 64.6611 53.115C64.6753 53.111 64.6895 53.1069 64.7037 53.1028C64.7342 53.0886 64.7545 53.0968 64.7809 53.0886C64.8052 53.0927 64.8275 53.0907 64.856 53.0988C64.9656 53.1252 65.13 53.2327 65.2822 53.3667C65.4385 53.5007 65.5948 53.661 65.749 53.8214C66.0819 54.1745 66.5061 54.5175 67.0176 54.6941C67.5271 54.8788 68.0791 54.8809 68.5703 54.7916L68.9134 54.7246C69.0209 54.7043 69.1285 54.684 69.232 54.6718C69.4391 54.6414 69.6501 54.6292 69.774 54.6637C69.8409 54.6759 69.8673 54.7023 69.8998 54.7246C69.9242 54.7591 69.9627 54.7997 69.9871 54.8809C70.0439 55.0311 70.0744 55.2422 70.0967 55.4553L70.1271 55.7983C70.1393 55.9201 70.1535 56.0439 70.1779 56.1677C70.2205 56.4153 70.2875 56.6711 70.3991 56.9167C70.5087 57.1643 70.6691 57.3997 70.8619 57.5926C71.0567 57.7874 71.278 57.9437 71.5073 58.0635C71.7286 58.1832 71.9884 58.2786 72.1711 58.3537C72.3639 58.4349 72.5506 58.5283 72.6846 58.6318C72.8206 58.7414 72.8713 58.8287 72.8855 58.9423C72.8957 59.0661 72.849 59.2468 72.7698 59.4315C72.6927 59.6182 72.5851 59.807 72.4735 59.9998C72.3456 60.217 72.236 60.4524 72.1568 60.7021C71.9945 61.1994 71.9803 61.7596 72.1122 62.265C72.1731 62.5146 72.2786 62.7663 72.3801 62.9774C72.4775 63.1844 72.579 63.3894 72.6643 63.5883C72.7495 63.7832 72.8287 63.9923 72.8327 64.1161C72.8327 64.1303 72.8348 64.1445 72.8348 64.1587C72.8327 64.1688 72.8287 64.177 72.8287 64.1871C72.8327 64.2094 72.8104 64.2196 72.8104 64.2419C72.78 64.2805 72.7373 64.3353 72.6643 64.3921C72.5242 64.5058 72.3294 64.6174 72.1365 64.727L71.5276 65.0619C71.1034 65.3075 70.665 65.6566 70.4093 66.1539C70.2814 66.3975 70.2022 66.6613 70.1616 66.9211C70.1231 67.1972 70.121 67.3941 70.0865 67.6072C70.0541 67.8142 70.0114 68.0152 69.9404 68.1654C69.8653 68.3176 69.7882 68.3906 69.6603 68.4434C69.4451 68.5266 69.0859 68.5084 68.7347 68.4556C68.3856 68.417 68.0325 68.2973 67.5839 68.275C67.3667 68.2648 67.0968 68.2892 66.8532 68.4373C66.7923 68.4739 66.7375 68.5145 66.6888 68.5632L66.6523 68.5956L66.632 68.616L66.5893 68.6586C66.5325 68.7154 66.4716 68.7682 66.4107 68.823C66.1631 69.0361 65.8952 69.2249 65.6455 69.4136C65.3979 69.5963 65.1543 69.7911 64.9717 69.9637C64.8499 70.0794 64.6895 70.122 64.5576 70.1139C64.2836 70.0976 64.1476 69.9373 64.1009 69.9982C64.0826 70.0225 64.0867 70.0855 64.1415 70.1748C64.1983 70.2621 64.314 70.3777 64.5109 70.4407C64.7017 70.5036 64.9838 70.5016 65.2416 70.3331C65.4527 70.191 65.6658 70.057 65.9256 69.9028C66.1814 69.7485 66.4676 69.5801 66.7639 69.3629C66.839 69.3081 66.9121 69.2513 66.9872 69.1883C67.0257 69.1579 67.0602 69.1234 67.0988 69.0909L67.1272 69.0665L67.1414 69.0564L67.1698 69.0341C67.2104 69.0097 67.2551 68.9935 67.3119 68.9813C67.3708 68.9732 67.4378 68.9691 67.5129 68.9732C67.8193 68.9894 68.2131 69.1234 68.6536 69.1883C68.8687 69.2208 69.094 69.2512 69.3416 69.2452C69.5832 69.2391 69.8694 69.2066 70.1434 69.0381C70.3362 68.9265 70.4844 68.7458 70.5757 68.5713C70.6772 68.3947 70.7239 68.2222 70.7685 68.0537C70.8071 67.8873 70.8335 67.7249 70.8538 67.5646L70.8984 67.114C70.9532 66.5944 71.2049 66.1864 71.6393 65.8779C71.8179 65.7439 72.0107 65.6404 72.238 65.5145C72.4593 65.3907 72.6805 65.271 72.9099 65.1167C72.9667 65.0802 73.0235 65.0396 73.0844 64.9909L73.1717 64.9219L73.261 64.8346C73.3199 64.7839 73.3767 64.7006 73.4295 64.6235C73.4741 64.5362 73.5269 64.4408 73.5391 64.3393C73.5858 64.1303 73.5452 63.9598 73.5127 63.8055L73.4457 63.5965L73.3706 63.4057C73.2651 63.1621 73.1534 62.9307 73.0438 62.7054C72.9322 62.4801 72.851 62.2873 72.7962 62.0661C72.6846 61.6378 72.7191 61.1912 72.8794 60.7691C72.9606 60.5519 73.0682 60.3733 73.2062 60.1277C73.3321 59.8902 73.4579 59.6446 73.535 59.3442C73.5756 59.196 73.5939 59.0255 73.5756 58.8469C73.5574 58.6643 73.4741 58.4836 73.3706 58.3375C73.1473 58.0594 72.8774 57.9173 72.6257 57.7935C72.4978 57.7306 72.37 57.6839 72.2421 57.6311C72.1284 57.5865 72.0188 57.5418 71.9133 57.4891C71.7022 57.3855 71.5114 57.2577 71.3551 57.1034C71.0405 56.7989 70.8944 56.3524 70.8335 55.8592C70.803 55.6217 70.7949 55.3396 70.7462 55.0514C70.7198 54.9052 70.6914 54.7571 70.6244 54.5967C70.598 54.5196 70.5452 54.4343 70.4965 54.3572C70.4356 54.278 70.3687 54.2009 70.2814 54.1421C70.1109 54.0223 69.914 53.9695 69.7496 53.9573C69.6644 53.9472 69.5872 53.9513 69.506 53.9492C69.4309 53.9553 69.3538 53.9574 69.2807 53.9655C69.1346 53.9817 68.9925 54.004 68.8525 54.0284L68.4526 54.1055C67.9574 54.1989 67.4641 54.1664 67.0338 53.9472C66.8187 53.8396 66.6157 53.6915 66.429 53.5169C66.3823 53.4722 66.3377 53.4256 66.291 53.3809L66.1408 53.2267C66.0393 53.1231 65.9358 53.0196 65.8221 52.9181C65.7105 52.8166 65.5927 52.7172 65.4507 52.6238C65.3187 52.5305 65.1401 52.4452 64.9392 52.4087C64.7301 52.366 64.5109 52.4229 64.3424 52.498L64.2186 52.5589L64.1111 52.6279C64.036 52.6746 63.9771 52.7253 63.9142 52.776C63.6706 52.977 63.4656 53.1982 63.2647 53.4073C63.0759 53.6062 62.8729 53.7828 62.6578 53.9167C62.4386 54.0446 62.2092 54.1319 61.9596 54.1441C61.7119 54.1623 61.4501 54.1238 61.1862 54.0446L60.9772 53.9797C60.894 53.9553 60.8128 53.9289 60.7235 53.9167C60.553 53.8782 60.3683 53.8762 60.1856 53.8883C60.0009 53.9107 59.8162 53.9594 59.6437 54.0467C59.4732 54.138 59.3189 54.2598 59.1951 54.4079C58.9617 54.6921 58.8379 55.0493 58.8094 55.3984C58.8054 55.4817 58.8013 55.5649 58.7973 55.6481C58.7932 55.7171 58.7952 55.7902 58.7851 55.8592C58.7709 55.9992 58.7485 56.1373 58.71 56.2692C58.572 56.8111 58.1599 57.2374 57.6099 57.5682C57.342 57.7326 57.0213 57.8828 56.7046 58.0838C56.5463 58.1852 56.3819 58.2908 56.2216 58.4735C56.1424 58.5628 56.0673 58.6845 56.0267 58.8266C56.0105 58.8956 56.0003 58.9707 55.9963 59.0398C56.0003 59.1047 56.0003 59.1778 56.0145 59.2346C56.0632 59.4761 56.1525 59.6527 56.2358 59.8253C56.321 59.9978 56.4103 60.1581 56.4996 60.3205C56.6681 60.629 56.8102 60.9436 56.8751 61.2582C56.936 61.5728 56.9157 61.8834 56.7939 62.1878C56.7351 62.3401 56.6579 62.4903 56.5625 62.6364L56.4042 62.88C56.3474 62.9652 56.2987 63.0586 56.2459 63.1499C56.1485 63.3387 56.0571 63.5437 56.0044 63.7812C55.9516 64.0146 55.9557 64.3089 56.0774 64.5646C56.1972 64.8204 56.3941 65.001 56.5849 65.133C56.7797 65.2629 56.9786 65.3562 57.1755 65.4374C57.5226 65.5754 57.8392 65.7439 58.099 65.9712C58.3588 66.1965 58.5537 66.4766 58.6653 66.8014C58.7242 66.9617 58.7628 67.1343 58.7871 67.3129C58.8013 67.4001 58.8054 67.4915 58.8135 67.5828C58.8236 67.6802 58.8236 67.802 58.846 67.9157C58.8805 68.143 58.9414 68.3866 59.0835 68.618C59.2215 68.8494 59.465 69.0584 59.733 69.1376C60.0699 69.2472 60.3946 69.2167 60.6829 69.1579L60.8737 69.1173C60.9325 69.1051 60.9914 69.0889 61.0502 69.0828C61.168 69.0625 61.2857 69.0462 61.4014 69.0381C61.6328 69.0219 61.8581 69.026 62.0712 69.0584C62.2823 69.0929 62.4792 69.1498 62.6598 69.2228C63.017 69.3771 63.3012 69.5922 63.5103 69.7688C63.7193 69.9474 63.8594 70.0814 63.9385 70.0976C64.0014 70.1098 63.969 70.0063 63.8614 69.8196C63.7477 69.6389 63.5509 69.3811 63.2525 69.1396C62.9582 68.8981 62.5441 68.6931 62.0976 68.6099C61.649 68.5246 61.1801 68.551 60.7742 68.6241Z" fill="#3A395B"/>
<path d="M28.8549 51.1543C29.3643 51.199 29.9428 51.2071 30.4928 51.2314C36.3283 51.477 42.1759 51.3634 48.0194 51.3837C49.1926 51.3877 50.5972 51.3207 50.5647 51.0609C50.5383 50.8113 49.3225 50.6489 47.9525 50.6347C47.4734 50.6266 46.9924 50.6266 46.5154 50.6347C43.3409 50.7341 40.1117 50.6672 36.2146 50.7118C34.3534 50.6936 31.798 50.6672 29.2405 50.6489C28.4367 50.6428 27.4767 50.6651 27.3772 50.864C27.296 51.0366 28.2135 51.0975 28.8549 51.1543Z" fill="#3A395B"/>
<path d="M69.0229 61.9584C68.9214 62.4598 68.7834 63.022 68.5175 63.4889C68.1826 64.1181 67.665 64.6214 67.0703 65.005C66.776 65.1958 66.4635 65.342 66.1326 65.4496C65.8018 65.551 65.4588 65.6099 65.1137 65.6282C64.4236 65.6606 63.7254 65.5226 63.1063 65.2182C62.4832 64.9239 61.9291 64.4651 61.5231 63.9252C60.7173 62.8251 60.559 61.2683 61.0847 60.0059C61.2187 59.6912 61.3973 59.4132 61.6145 59.127C61.8337 58.855 62.0671 58.5932 62.3391 58.3841C62.4669 58.2684 62.6151 58.1832 62.7572 58.0878C62.9074 58.0107 63.0535 57.9193 63.2139 57.8625C63.3681 57.7894 63.5346 57.7488 63.697 57.696C63.8654 57.6636 64.0319 57.6189 64.2044 57.6047C64.7544 57.5316 65.3816 57.5641 65.8708 57.6027C66.3599 57.6412 66.7151 57.6615 66.7354 57.5296C66.7537 57.4099 66.4736 57.217 65.9865 57.0526C65.5034 56.8923 64.7971 56.7685 64.0379 56.87C63.5082 56.9349 62.9784 57.1034 62.5136 57.3733C62.132 57.6027 61.7748 57.8767 61.4764 58.2014C61.174 58.5262 60.9102 58.8611 60.6808 59.2549C60.2343 60.0444 60.0313 60.9639 60.0942 61.8915C60.1551 62.815 60.4758 63.771 61.1212 64.5362C61.7606 65.2994 62.6496 65.888 63.6949 66.1397C64.1882 66.2696 64.7524 66.3305 65.3471 66.2675C65.9378 66.2046 66.567 66.0382 67.1394 65.6992C67.7056 65.3684 68.2374 64.9299 68.6515 64.3596C68.8585 64.0775 69.0371 63.7669 69.167 63.4381C69.303 63.1113 69.4025 62.7683 69.4634 62.4253C69.5466 61.993 69.5669 61.5119 69.5344 61.1344C69.4999 60.7568 69.4187 60.4828 69.3172 60.4382C69.1407 60.3773 69.167 61.3252 69.0229 61.9584Z" fill="#3A395B"/>
<path d="M39.3749 56.7786C39.6854 56.8375 40.0305 56.9288 40.3491 57.0526C40.6556 57.1724 40.9357 57.3754 41.1569 57.621C41.4553 57.9437 41.6684 58.3476 41.8044 58.7657C41.9445 59.1859 41.9912 59.6344 41.9526 60.0647C41.9485 60.1723 41.9201 60.2779 41.9059 60.3834C41.8775 60.4788 41.8572 60.5742 41.8105 60.6676C41.7354 60.8563 41.6177 61.037 41.4858 61.2054C41.2199 61.5444 40.8809 61.8407 40.5074 62.066C40.138 62.2974 39.724 62.4598 39.3261 62.5024C38.9385 62.5349 38.5061 62.4415 38.1286 62.267C37.3675 61.9037 36.7504 61.2014 36.515 60.3935C36.45 60.1926 36.4216 59.9856 36.4033 59.7765L36.3729 59.0621C36.3567 58.8124 36.3343 58.5485 36.2552 58.2725C36.1781 57.9985 36.0238 57.692 35.7559 57.4809C35.4879 57.2698 35.1713 57.1866 34.8932 57.1622C34.6111 57.1359 34.3127 57.146 34.0103 57.2637C33.7099 57.3774 33.4501 57.6149 33.2938 57.8747C33.1335 58.1345 33.0523 58.4044 32.9995 58.6663C32.9467 58.9281 32.9244 59.1838 32.9122 59.4355C32.9082 59.5066 32.9082 59.539 32.9021 59.5877C32.898 59.6324 32.8899 59.675 32.8798 59.7156C32.8595 59.7948 32.829 59.8638 32.7925 59.9145C32.7194 60.014 32.6139 60.0688 32.4413 60.0911C32.348 60.1013 32.2627 60.1013 32.1998 60.0871C32.1369 60.0729 32.0983 60.0526 32.0618 60.0201C32.0253 59.9856 31.9867 59.9287 31.9542 59.8496C31.938 59.811 31.9217 59.7684 31.9096 59.7217L31.8832 59.6304C31.873 59.5918 31.8568 59.5532 31.8426 59.5167C31.7228 59.2102 31.4813 58.9667 31.2398 58.8124C31.1789 58.7718 31.1159 58.7373 31.055 58.7048L31.0084 58.6805L30.9333 58.6439L30.7729 58.5749L30.7323 58.5567C30.7181 58.5567 30.7039 58.5627 30.6897 58.5668L30.6045 58.5891L30.434 58.6358C30.3264 58.6784 30.2574 58.715 30.1843 58.7637C29.8981 58.9646 29.7479 59.2204 29.62 59.4294C29.5186 59.5979 29.4293 59.7562 29.3339 59.8699C29.2385 59.9856 29.1552 60.0465 29.0497 60.0769C29.0213 60.083 28.999 60.0972 28.9644 60.0952C28.9421 60.0952 28.9523 60.0972 28.9502 60.0992C28.9523 60.1013 28.9502 60.1013 28.9482 60.1013C28.9442 60.0992 28.9421 60.1033 28.934 60.0972C28.9198 60.085 28.8873 60.0688 28.869 60.0485C28.7797 59.9714 28.7026 59.8577 28.6275 59.7278C28.4854 59.468 28.3291 59.1777 28.1444 59.0316C27.9618 58.8814 27.8197 58.8713 27.7994 58.9301C27.771 58.991 27.8339 59.0905 27.8948 59.2488C27.9618 59.4051 28.0105 59.6263 28.1079 59.9429C28.1607 60.0992 28.2338 60.288 28.3839 60.4727C28.4205 60.5194 28.4631 60.564 28.5118 60.6046C28.5544 60.6493 28.6417 60.7 28.7107 60.7467C28.729 60.7569 28.7473 60.7751 28.7676 60.7792L28.8345 60.7812H28.9787H29.0801L29.1837 60.763C29.4638 60.7224 29.7378 60.5336 29.9042 60.3306C30.0788 60.1277 30.1904 59.9186 30.302 59.744C30.3792 59.6243 30.4563 59.5126 30.5294 59.4477C30.5476 59.4254 30.5659 59.4173 30.5842 59.403C30.6024 59.3888 30.6187 59.3746 30.6369 59.3685C30.6816 59.3462 30.6613 59.3543 30.6653 59.3523C30.6593 59.3503 30.6674 59.3543 30.6653 59.3523L30.708 59.3746C30.7648 59.4051 30.8176 59.4355 30.8663 59.47C30.9637 59.537 31.0388 59.6121 31.0936 59.6933C31.1159 59.7278 31.1362 59.7623 31.1525 59.8009C31.1707 59.8394 31.1789 59.8699 31.2053 59.9592C31.254 60.1074 31.3189 60.2657 31.4366 60.4179C31.5503 60.5701 31.7309 60.7041 31.9197 60.7609C32.1085 60.8238 32.2851 60.8238 32.4434 60.8117C32.5997 60.7975 32.7783 60.765 32.9427 60.6818C33.1091 60.6026 33.2634 60.4707 33.3689 60.3164C33.4745 60.1622 33.5333 59.9937 33.5678 59.8313C33.6023 59.6689 33.6044 59.5005 33.6105 59.3888C33.6348 58.8956 33.7262 58.3801 33.9961 58.0939C34.126 57.9518 34.3046 57.8808 34.5198 57.8564C34.7349 57.8381 34.9866 57.8666 35.1652 57.9457C35.2606 57.9822 35.3276 58.0431 35.3946 58.1081C35.4514 58.1832 35.5103 58.2623 35.5448 58.3699C35.626 58.5749 35.6544 58.8368 35.6706 59.1087C35.6787 59.2447 35.6828 59.3848 35.6889 59.5289C35.693 59.673 35.699 59.8191 35.7193 59.9815C35.7295 60.1419 35.7701 60.2961 35.8005 60.4544C35.8492 60.6067 35.8858 60.765 35.9548 60.9111C36.1963 61.5099 36.6043 62.0457 37.13 62.4537C37.3918 62.6607 37.6861 62.8312 38.0068 62.955C38.3255 63.0789 38.6685 63.1661 39.0257 63.1743C39.3749 63.1946 39.7361 63.1276 40.0751 63.0058C40.4161 62.884 40.7449 62.7094 41.0575 62.4923C41.368 62.2731 41.6623 62.0112 41.9221 61.6966C42.1779 61.38 42.4052 61.0086 42.5128 60.5559C42.6955 59.7014 42.5412 58.788 42.117 57.9924C41.9018 57.5966 41.6116 57.2272 41.2381 56.9329C41.1427 56.8618 41.0433 56.7949 40.9418 56.7319C40.8322 56.6792 40.7307 56.6122 40.615 56.5736C40.3775 56.4782 40.1827 56.4315 39.9614 56.3767C39.6895 56.3138 39.3931 56.2671 39.0948 56.2631C38.7964 56.259 38.5 56.3037 38.2504 56.3869C37.7409 56.5513 37.4629 56.8558 37.4669 56.9654C37.4791 57.0709 37.7308 56.9248 38.1043 56.8253C38.4818 56.7056 38.9791 56.6974 39.3749 56.7786Z" fill="#3A395B"/>
<path d="M45.1392 33.0837C45.4051 33.1284 45.7096 33.1365 45.9958 33.1609C49.0485 33.4065 52.1093 33.2928 55.166 33.3131C55.781 33.3172 56.5158 33.2502 56.4975 32.9904C56.4833 32.7407 55.848 32.5783 55.1315 32.5641C54.8798 32.556 54.6281 32.556 54.3785 32.5641C52.7182 32.6636 51.0274 32.5966 48.9876 32.6413C48.0133 32.623 46.6757 32.5966 45.3381 32.5783C44.918 32.5722 44.4146 32.5946 44.3639 32.7935C44.3233 32.966 44.8023 33.0249 45.1392 33.0837Z" fill="#3A395B"/>
<path d="M64.7402 73.6659C64.8396 74.0657 64.9736 74.5143 65.0771 74.9446C65.1461 75.2308 65.211 75.519 65.2719 75.8072L65.3186 76.0264C65.3369 76.1076 65.3592 76.1868 65.3836 76.2659C65.4343 76.4243 65.4993 76.5785 65.5845 76.7267C65.753 77.0169 66.0067 77.3194 66.4106 77.4493C66.6095 77.5101 66.8247 77.5162 67.0256 77.4675C67.2286 77.4168 67.4052 77.3133 67.5493 77.1955C67.8395 76.956 68.0202 76.6658 68.1724 76.3755C68.3125 76.0975 68.4281 75.8397 68.5702 75.6347C68.7123 75.4297 68.8645 75.2998 69.0553 75.247C69.2441 75.1922 69.4795 75.2105 69.7272 75.2795C69.9768 75.3465 70.2305 75.4601 70.5045 75.5819C70.5796 75.6124 70.6446 75.6428 70.7258 75.6753C70.8252 75.7098 70.9267 75.7402 71.0343 75.7524C71.2474 75.7788 71.4707 75.7463 71.6655 75.6611C72.0613 75.4946 72.3516 75.1212 72.4125 74.6929C72.4429 74.4798 72.4186 74.2565 72.3394 74.0637C72.2785 73.9074 72.2237 73.7836 72.1648 73.6415L70.7948 70.3453C70.4335 69.4603 69.9301 68.4312 69.7028 68.555C69.4795 68.6707 69.7089 69.647 70.125 70.6822C70.2671 71.0455 70.4173 71.4088 70.5736 71.764C70.8435 72.3506 71.1053 72.9453 71.3672 73.5502C71.4321 73.7024 71.4971 73.8546 71.562 74.0069L71.6594 74.2362L71.6838 74.2931L71.696 74.3336C71.7041 74.36 71.7163 74.3844 71.7183 74.4108C71.765 74.6158 71.6655 74.8451 71.4768 74.969C71.3834 75.0298 71.2758 75.0623 71.1683 75.0603C71.1135 75.0603 71.0587 75.0501 71.0038 75.0298C70.9896 75.0238 70.9775 75.0237 70.9592 75.0156L70.9024 74.9913L70.7867 74.9405C70.4639 74.7985 70.1128 74.6361 69.7028 74.5569C69.4978 74.5183 69.2725 74.5021 69.0411 74.5387C68.8097 74.5752 68.5763 74.6787 68.3876 74.8269C68.008 75.1354 67.8334 75.5474 67.667 75.9026C67.5838 76.0772 67.5046 76.2314 67.4011 76.3816C67.2996 76.5298 67.1778 76.6658 67.0439 76.751C66.778 76.9215 66.4776 76.8708 66.2361 76.5623C66.1163 76.4121 66.0189 76.2213 65.9519 76.0163C65.9357 75.9655 65.9194 75.9128 65.9072 75.86L65.8626 75.6773C65.8301 75.5535 65.7997 75.4277 65.7672 75.3018C65.6353 74.8005 65.4891 74.2951 65.3206 73.7917C65.2131 73.4751 65.0791 73.13 64.9188 72.8621C64.8376 72.7281 64.7523 72.6145 64.6651 72.5374C64.5818 72.4602 64.4824 72.4196 64.4377 72.4399C64.3951 72.4562 64.3992 72.515 64.4215 72.5881C64.4458 72.6693 64.4783 72.7667 64.5128 72.8804C64.5859 73.1138 64.6772 73.4122 64.7402 73.6659Z" fill="#3A395B"/>
<path d="M58.375 69.2979C58.1091 69.6653 57.8493 70.1098 57.5956 70.5259C57.2607 71.082 56.94 71.6483 56.6518 72.241C56.5077 72.5373 56.3758 72.8418 56.2621 73.1625L56.1809 73.4081L56.116 73.6679C56.0713 73.8546 56.0652 74.0677 56.0957 74.2687C56.1586 74.6726 56.3961 75.0826 56.7959 75.2977C56.9948 75.4094 57.2282 75.4581 57.4332 75.4581C57.6403 75.4561 57.825 75.4216 57.9955 75.385C58.3344 75.3079 58.6308 75.2084 58.8865 75.1902C59.1362 75.1658 59.3432 75.2287 59.5563 75.3708C59.6598 75.4419 59.7593 75.5312 59.8506 75.6327C59.873 75.657 59.8973 75.6854 59.9156 75.7078C59.9318 75.728 59.9501 75.7524 59.9663 75.7768C59.9988 75.8275 60.0313 75.8843 60.0658 75.9493C60.1328 76.0792 60.1998 76.2355 60.3012 76.4039C60.3987 76.5704 60.557 76.753 60.7295 76.8708C60.902 76.9926 61.0928 77.0839 61.3141 77.1306C61.5312 77.1752 61.7971 77.1691 62.0346 77.0453C62.2741 76.9276 62.4345 76.7084 62.5217 76.5257C62.6131 76.341 62.6618 76.1685 62.7105 76.0264L62.747 75.927L62.7876 75.8275L62.881 75.6042L63.0677 75.1577L63.4432 74.2646L64.2003 72.4805C64.6083 71.5265 65.0305 70.3554 64.7808 70.2803C64.5413 70.2052 63.973 71.1307 63.4879 72.241C63.3154 72.6287 63.1489 73.0204 62.9926 73.4121C62.743 74.0677 62.4812 74.7213 62.2092 75.385L62.1057 75.6387C62.0651 75.7382 62.0366 75.8295 62.0103 75.9148C61.9575 76.0832 61.9027 76.2314 61.8357 76.3227C61.7687 76.41 61.7038 76.4506 61.6023 76.4628C61.5008 76.4729 61.3668 76.4425 61.2451 76.3755C61.1842 76.343 61.1253 76.3024 61.0725 76.2578C61.0198 76.2131 60.9812 76.1685 60.9386 76.1056C60.8553 75.9858 60.7843 75.8214 60.6889 75.6367C60.6422 75.5433 60.5874 75.4459 60.5164 75.3485C60.4413 75.245 60.3723 75.1719 60.2951 75.0887C60.1389 74.9304 59.9562 74.7842 59.741 74.6767C59.5279 74.567 59.2762 74.498 59.0245 74.498C58.7749 74.496 58.5476 74.5427 58.3385 74.5955C57.9244 74.703 57.5327 74.8411 57.2445 74.7761C57.1146 74.7416 56.9887 74.6543 56.8933 74.5244C56.7979 74.3966 56.7431 74.2281 56.735 74.0454C56.733 73.95 56.7371 73.8709 56.7675 73.7612C56.7919 73.6537 56.8182 73.5461 56.8568 73.4324C56.9258 73.2071 57.0212 72.9737 57.1207 72.7403C57.5307 71.8005 58.0787 70.8161 58.643 69.8459C58.9982 69.237 59.4142 68.4982 59.2884 68.3196C59.1768 68.1694 58.7099 68.8351 58.375 69.2979Z" fill="#3A395B"/>
</svg>
