<svg width="100" height="100" viewBox="0 0 100 100" fill="none" xmlns="http://www.w3.org/2000/svg">
<rect width="100" height="100" rx="50" fill="#B4DBFF" fill-opacity="0.2"/>
<path d="M77.7544 50.0587C77.6252 48.7349 77.6159 47.501 77.7713 46.1772C77.8537 45.4676 77.1085 44.874 76.4606 44.8665C75.6836 44.859 75.2323 45.4769 75.1499 46.1772C74.9814 47.6227 75.0432 48.9596 75.1668 50.4032C75.2847 51.7963 74.8129 53.1444 75.0919 54.5187C75.427 56.1702 77.9548 55.4718 77.6196 53.8222C77.4979 53.2212 77.7507 52.5509 77.805 51.9479C77.8612 51.3151 77.8144 50.6897 77.7544 50.0587Z" fill="#88C1D7"/>
<path d="M70.645 47.5572C70.645 51.5341 70.645 55.5093 70.645 59.6192C62.7098 60.3588 55.8811 63.3172 50.0336 68.2566C39.5257 61.647 36.4156 60.3606 29.0253 59.6697C29.0253 55.6722 29.0253 51.6147 29.0253 47.5553" fill="#F7AEBC"/>
<path d="M28.8942 52.0303C28.853 53.562 28.8455 55.3108 28.8231 56.9622L28.8025 58.61L28.7931 59.4862L28.7912 59.8308V59.8738C28.7894 59.8832 28.7931 59.8869 28.8025 59.8851L28.8231 59.8869L28.9073 59.8963L29.0777 59.915L29.5833 59.9712C30.673 60.0854 31.7534 60.2464 32.8281 60.4356C33.8992 60.6396 34.9571 60.8943 35.9944 61.2145C36.2528 61.2969 36.5093 61.3886 36.7658 61.4747L37.1515 61.6077L37.5316 61.7556L38.2899 62.0552L39.037 62.3828C41.0274 63.2685 42.9335 64.3545 44.8227 65.4648L46.2345 66.3111L47.637 67.1743L49.0356 68.0469L49.8351 68.5468L50.0093 68.6554L50.0523 68.6835C50.0673 68.691 50.0786 68.6666 50.0935 68.6591L50.1741 68.5936L50.4755 68.3483L50.7919 68.0899C52.4846 66.7156 54.2784 65.4629 56.1845 64.405C58.0868 63.3434 60.0847 62.4521 62.1481 61.75C64.2114 61.0478 66.3441 60.5516 68.5011 60.2277C68.7707 60.1884 69.0404 60.1435 69.31 60.1098L70.1226 60.018L70.6956 59.9543L70.8978 59.9319L70.9483 59.9263C70.9614 59.9206 70.9914 59.9319 70.9839 59.9075V59.8064V59.4001V58.5276L70.9858 55.2265C70.9895 51.6896 70.9277 47.4617 70.6881 47.5572C70.4578 47.6396 70.308 51.2982 70.2949 55.425C70.293 56.1478 70.2911 56.8705 70.2893 57.5932C70.2911 58.1662 70.2911 58.7392 70.293 59.3084V59.3102L70.2462 59.3159L70.0215 59.3421L69.5721 59.3964L69.1227 59.4507L68.6752 59.5218L67.7784 59.6622C67.4807 59.7109 67.1829 59.7765 66.8852 59.8308C65.6925 60.0536 64.5092 60.3588 63.3277 60.6977C60.9741 61.4111 58.6373 62.3342 56.3829 63.5662C55.2464 64.1654 54.1435 64.8582 53.0482 65.5959C52.7786 65.785 52.5052 65.976 52.2337 66.167C51.9603 66.358 51.7001 66.5677 51.4304 66.768C51.1627 66.9702 50.8931 67.1724 50.6328 67.3915C50.425 67.56 50.2171 67.7304 50.0093 67.9008C49.4906 67.5788 48.9682 67.253 48.4402 66.9234C47.8504 66.562 47.255 66.1988 46.6521 65.8299C45.4406 65.1053 44.203 64.3695 42.9073 63.6654C41.679 62.9783 40.3103 62.2668 38.7955 61.6208C37.2826 60.9748 35.6161 60.4093 33.8374 60.0442C32.9498 59.8626 32.0399 59.7053 31.1149 59.5892C30.8846 59.5593 30.6524 59.5293 30.4202 59.4994C30.1881 59.475 29.954 59.4507 29.72 59.4245L29.3679 59.387C29.3586 59.3851 29.3417 59.387 29.338 59.3795C29.338 59.2278 29.3399 59.0781 29.3399 58.9264C29.3436 57.0334 29.3492 55.1086 29.353 53.1819C29.3586 50.7627 29.338 47.8699 29.1545 47.5684C29.0009 47.3362 28.9467 50.0999 28.8942 52.0303Z" fill="#3A395B"/>
<path d="M17.5699 42.6478C20.9046 40.8653 24.5783 39.9721 28.104 38.7082C34.7623 36.3228 41.4861 34.1209 48.2117 31.9283C49.0562 31.653 49.8744 31.3947 51.0353 31.8028C57.2367 33.9786 63.468 36.0663 69.7031 38.1372C71.7927 38.8318 73.8823 39.5227 75.9719 40.2155C77.8911 40.8521 79.8628 41.3764 81.6846 42.2696C82.4673 42.6534 82.0198 43.3387 81.3925 43.554C71.2703 47.0142 61.1388 50.4426 51.0016 53.856C50.3294 54.0825 49.6591 54.1574 48.8933 53.8915C38.6175 50.3471 28.3268 46.8494 18.0324 43.3593C17.7403 43.2601 17.5474 43.2095 17.5699 42.8762" fill="#BCBEC0"/>
<path d="M25.5931 46.0836C28.4261 47.0947 31.6709 48.2088 34.7342 49.2779C38.8085 50.6934 42.8829 52.109 46.9591 53.5245L48.4888 54.0544L48.8783 54.1873C49.0169 54.2341 49.161 54.2697 49.3052 54.2959C49.5954 54.3502 49.8969 54.3633 50.1908 54.3334C50.4848 54.3053 50.7694 54.2379 51.0409 54.1518L51.8123 53.8952L53.3477 53.3803L59.4873 51.3207C63.5785 49.9426 67.6716 48.5645 71.7628 47.1846L77.9005 45.1099L80.9694 44.0708L81.3532 43.9416C81.4206 43.9172 81.473 43.9041 81.5536 43.8723C81.6341 43.8442 81.7108 43.8049 81.7857 43.7656C81.9337 43.6813 82.0722 43.5764 82.1939 43.436C82.3119 43.2975 82.4224 43.1196 82.4486 42.8837C82.4804 42.6477 82.3755 42.3912 82.2332 42.2433C82.164 42.1609 82.0872 42.1104 82.0123 42.0523L81.8981 41.9868L81.8419 41.9549L81.7951 41.9325C81.5461 41.8126 81.297 41.6966 81.0443 41.5898C80.0332 41.1554 78.9959 40.8109 77.9642 40.4832C76.9306 40.1593 75.9139 39.8279 74.8859 39.4853C72.8375 38.8018 70.7816 38.1334 68.737 37.4387L56.4653 33.2801L53.3964 32.2409L51.8629 31.7204L51.0915 31.4601C50.8162 31.3665 50.526 31.2991 50.2283 31.2692C49.6329 31.2036 49.0281 31.3141 48.4982 31.4807C47.9683 31.6455 47.4665 31.8159 46.9497 31.9825L43.8696 32.9899C39.7635 34.3362 35.661 35.7011 31.5773 37.1185C30.7591 37.4069 29.9184 37.7027 29.0777 37.9986C28.2351 38.3 27.4019 38.6052 26.5761 38.8823C24.9228 39.4403 23.3144 39.9534 21.9401 40.4664C20.5639 40.9757 19.4217 41.4831 18.654 41.8894C18.4649 41.9943 18.2945 42.086 18.1485 42.1665C18.0043 42.2508 17.8845 42.3276 17.7908 42.3893C17.6036 42.5129 17.5193 42.5878 17.553 42.6028C17.6186 42.6402 18.0605 42.4511 18.8225 42.1459C19.5846 41.8407 20.6687 41.4288 22.0094 40.9907C23.3462 40.5469 24.9397 40.0825 26.6735 39.5283C27.5423 39.2531 28.441 38.9366 29.3548 38.6165C30.2723 38.2982 31.2159 37.9705 32.1709 37.6391C34.8521 36.7178 37.5465 35.8079 40.2184 34.9129C42.441 34.1639 44.671 33.4243 46.916 32.6828C47.4759 32.4993 48.0376 32.314 48.5974 32.1305C49.1461 31.9526 49.6816 31.8496 50.2189 31.9189C50.4886 31.9507 50.7451 32.0219 51.0185 32.1174L51.8648 32.4038C52.4302 32.5948 52.9957 32.7858 53.563 32.9768C58.1017 34.5122 62.7116 36.0737 67.4506 37.6784C69.8174 38.4891 72.2253 39.2755 74.6687 40.0882C75.281 40.2904 75.8952 40.4926 76.5131 40.6948C77.1309 40.8914 77.7507 41.0899 78.3742 41.2884C78.9921 41.4906 79.6081 41.704 80.2148 41.9418C80.5163 42.0635 80.8196 42.1871 81.1154 42.3219C81.2652 42.3875 81.4113 42.4605 81.5573 42.5298C81.6734 42.5878 81.7633 42.6646 81.7932 42.7245C81.8176 42.7788 81.8176 42.835 81.7689 42.9286C81.7165 43.0166 81.6228 43.1083 81.5124 43.1758C81.4581 43.2113 81.3982 43.2413 81.3382 43.2638C81.312 43.275 81.2727 43.2881 81.2315 43.3031L81.1117 43.3443L80.6342 43.5053C79.9976 43.7206 79.3591 43.9378 78.7169 44.1569C77.4324 44.5932 76.1367 45.0332 74.8279 45.4788C72.2103 46.3701 69.5402 47.2782 66.8122 48.2069C64.2058 49.0869 61.3541 50.0475 58.3208 51.0717C56.8042 51.5828 55.2426 52.1108 53.6417 52.6501C52.8422 52.9197 52.0314 53.1931 51.2132 53.4683L50.9061 53.5713C50.8087 53.6031 50.7114 53.6331 50.614 53.6574C50.4193 53.708 50.2246 53.7417 50.028 53.7529C49.8313 53.766 49.6366 53.7548 49.4438 53.7211C49.3464 53.7061 49.2509 53.6818 49.1554 53.6556C49.0618 53.6294 48.9663 53.5957 48.8577 53.5582C42.192 51.2739 35.0413 48.8229 27.8868 46.3719C25.6399 45.6024 23.1721 44.7635 21.1874 44.1157C20.195 43.7918 19.3243 43.5147 18.6615 43.3181C18.3394 43.2263 18.0698 43.1495 17.862 43.0896C17.7403 43.0578 17.7216 42.9717 17.701 42.908C17.6841 42.8574 17.6598 42.8874 17.6485 42.981C17.6448 43.0241 17.6523 43.0915 17.7047 43.1514C17.7534 43.2113 17.8507 43.2563 17.9687 43.3031C18.4349 43.4922 19.1408 43.7581 19.9741 44.0633C21.6367 44.6774 23.8087 45.447 25.5931 46.0836Z" fill="#3A395B"/>
<path d="M78.1271 60.4169C78.3817 61.1808 78.6326 61.9466 78.8854 62.7124C79.1138 63.4052 79.4584 64.143 79.552 64.8676C79.7111 66.1071 79.1101 67.1706 78.1121 67.8765C76.9699 68.6835 75.8016 68.515 74.6032 67.6911C73.6932 67.0658 73.1109 66.1464 73.2139 65.0174C73.2907 64.1804 73.506 63.3622 73.7588 62.5645C73.9891 61.838 74.1632 61.0423 74.6201 60.4169" fill="#88C1D7"/>
<path d="M73.9404 61.5216C73.8486 61.7257 73.77 61.9504 73.6932 62.175C73.6146 62.4016 73.5341 62.63 73.4573 62.8547C73.2495 63.4539 73.0716 64.0737 72.9724 64.7159C72.9199 65.0267 72.8881 65.3918 72.9424 65.7364C72.9911 66.0827 73.1016 66.4254 73.2719 66.7306C73.4405 67.0377 73.6577 67.3129 73.9029 67.5526C74.1501 67.7922 74.4291 67.9926 74.7118 68.1649C75.2773 68.5131 75.9588 68.7809 76.6872 68.7472C77.0467 68.7322 77.4043 68.6423 77.7264 68.4981C78.0503 68.3521 78.3405 68.1574 78.6008 67.9402C79.1232 67.5039 79.5595 66.9235 79.7711 66.2475C79.9882 65.5772 79.9527 64.8282 79.7617 64.1916C79.5801 63.5456 79.3235 62.9802 79.1457 62.3904C78.833 61.428 78.393 60.2989 78.1758 60.4C77.9642 60.4955 78.1496 61.5366 78.5072 62.66C78.6251 63.0626 78.7843 63.4614 78.9247 63.834C79.0464 64.1448 79.155 64.4538 79.2149 64.7627C79.273 65.0698 79.2861 65.3825 79.2393 65.6914C79.1457 66.3112 78.8049 66.8954 78.305 67.3466C77.8013 67.8016 77.174 68.1424 76.4831 68.1068C75.7997 68.0862 75.0826 67.7248 74.4665 67.2418C74.1857 66.9984 73.9161 66.6913 73.7363 66.3131C73.5528 65.9386 73.4685 65.4967 73.5172 65.0379C73.5678 64.5474 73.6708 64.0418 73.8093 63.5325C73.8786 63.2779 73.9554 63.0214 74.0378 62.763C74.1201 62.5008 74.2025 62.2368 74.283 61.9747C74.3842 61.6489 74.5002 61.31 74.5976 61.046C74.695 60.782 74.7755 60.5872 74.7249 60.4974C74.6819 60.4243 74.5283 60.5329 74.3673 60.7445C74.2063 60.9542 74.0527 61.2651 73.9404 61.5216Z" fill="#3A395B"/>
<path d="M77.6234 54.2079C77.6852 54.0019 77.7151 53.7623 77.7563 53.5357C78.1907 51.1315 78.1008 48.6637 77.8836 46.2352C77.8424 45.7446 77.7039 45.1698 77.4717 45.2148C77.2433 45.256 77.159 45.769 77.2002 46.3288C77.2133 46.5254 77.2264 46.722 77.2526 46.9168C77.4436 48.2106 77.4286 49.5419 77.4193 51.1447C77.3818 51.9105 77.2938 52.959 77.1759 54.0038C77.1403 54.3315 77.1141 54.7266 77.2938 54.7883C77.4474 54.8389 77.5429 54.4663 77.6234 54.2079Z" fill="#3A395B"/>
<path d="M75.3671 54.2397C75.3858 54.0469 75.3634 53.8334 75.3652 53.6293C75.3727 51.4723 75.4664 49.3134 75.4589 47.1003C75.4607 46.6565 75.3709 46.1266 75.1349 46.151C74.9028 46.1734 74.7773 46.6265 74.7698 47.1321C74.7642 47.31 74.7623 47.4878 74.7717 47.6639C74.8616 48.8416 74.7361 50.0474 74.7829 51.5154C74.7698 52.2157 74.7773 53.1856 74.8878 54.1555C74.9196 54.4607 75.0076 54.8202 75.1911 54.8239C75.3503 54.8277 75.3503 54.4794 75.3671 54.2397Z" fill="#3A395B"/>
<path d="M77.6609 55.0392C78.1739 55.629 78.8855 56.0503 79.0727 56.9079C79.3554 58.2054 78.5166 59.9243 77.4269 60.1827C75.3579 60.6751 74.1371 60.0628 73.6858 58.3122C73.2945 56.788 74.2943 55.2639 76.0282 54.8183C76.3933 54.7246 76.8033 54.8051 77.1928 54.8051" fill="#E6E7E8"/>
<path d="M76.0824 54.6704C75.6855 54.7209 75.2698 54.8745 74.8972 55.0842C74.3992 55.3557 73.9704 55.7695 73.6727 56.2769C73.5322 56.5353 73.4199 56.8105 73.3562 57.1026C73.3001 57.3947 73.2701 57.6962 73.3057 57.9939C73.3169 58.1418 73.3506 58.2916 73.3806 58.4339C73.4218 58.5725 73.4498 58.711 73.506 58.8477C73.5959 59.1229 73.7419 59.3907 73.9123 59.6416C74.0902 59.8906 74.3205 60.1097 74.5826 60.2801C74.8448 60.4542 75.1425 60.5553 75.4365 60.6246C76.03 60.7463 76.6179 60.7051 77.1684 60.5965L77.3744 60.5535C77.4437 60.5385 77.5073 60.5272 77.5935 60.4973C77.7564 60.4505 77.9043 60.3756 78.0428 60.2932C78.3181 60.1228 78.5353 59.9 78.715 59.6622C79.0764 59.1829 79.303 58.6324 79.4097 58.0538C79.4584 57.7636 79.4827 57.4659 79.4528 57.1625C79.4228 56.8648 79.3498 56.5446 79.1962 56.2675C78.9584 55.8125 78.5615 55.4755 78.2769 55.2621C77.9867 55.0505 77.7788 54.925 77.6927 55.0093C77.6103 55.0898 77.6964 55.3332 77.908 55.6272C78.1159 55.9211 78.4267 56.2563 78.6046 56.6252C78.6645 56.7581 78.7075 56.891 78.7319 57.0352C78.76 57.1813 78.7731 57.3329 78.775 57.4865C78.7937 57.9995 78.6383 58.5388 78.378 59.0069C78.2413 59.239 78.0747 59.4525 77.8762 59.6191C77.7788 59.7034 77.6702 59.7727 77.5598 59.8251C77.5055 59.8588 77.4455 59.8663 77.3894 59.8888C77.3351 59.9094 77.2489 59.9206 77.1815 59.9374C76.6048 60.0591 75.9888 60.1153 75.4252 59.9599C75.1444 59.8831 74.8841 59.7465 74.6669 59.548C74.4478 59.3495 74.2718 59.0892 74.1351 58.7915C74.1071 58.7185 74.079 58.6417 74.0509 58.565C74.0247 58.4863 74.0041 58.4039 73.9797 58.3216C73.9367 58.1549 73.9048 57.9883 73.8973 57.8123C73.8786 57.4603 73.9348 57.082 74.0977 56.73C74.2568 56.3761 74.5078 56.0485 74.8242 55.7826C75.1425 55.5167 75.5282 55.3201 75.9364 55.1965C75.9982 55.1797 76.0712 55.1553 76.1292 55.1403C76.1817 55.1272 76.2416 55.1179 76.3015 55.1104C76.4232 55.0973 76.558 55.0935 76.6835 55.0879C76.9363 55.0786 77.1535 55.0355 77.189 54.9419C77.2171 54.8632 77.0617 54.8108 76.8483 54.7546C76.6329 54.6985 76.3427 54.6479 76.0824 54.6704Z" fill="#3A395B"/>
</svg>
