<svg width="100" height="100" viewBox="0 0 100 100" fill="none" xmlns="http://www.w3.org/2000/svg">
<rect width="100" height="100" rx="50" fill="#B4DBFF" fill-opacity="0.2"/>
<path d="M59.7676 28.657C59.6569 28.657 59.5532 28.6688 59.4566 28.6877C59.3082 28.6523 59.1527 28.6382 58.9807 28.657C58.8417 28.3366 58.5613 28.0751 58.1043 27.9738C56.9545 27.7194 55.8237 27.4107 54.7163 27.0102C54.2899 26.8571 53.7574 26.6851 53.232 26.4754C52.5794 26.0466 51.9951 25.5189 51.4156 24.9888C51.2436 24.8333 51.0292 24.7319 50.803 24.6825C50.5132 24.3267 50.0491 24.1312 49.4671 24.3314C48.8546 24.5411 48.2821 24.8497 47.7237 25.1914C47.4009 24.9723 46.9933 24.878 46.607 25.0005C46.0321 25.1843 45.5444 25.4859 45.0826 25.8228C44.9907 25.8864 44.8988 25.9547 44.8117 26.023C44.2227 26.4683 43.6549 26.9442 42.9716 27.2717C42.6229 27.439 42.4133 27.7783 42.3379 28.1505C41.4473 28.5157 40.5379 28.8361 39.612 29.1235C39.5978 29.1212 39.586 29.1165 39.5719 29.1141C37.8591 28.6947 37.1264 31.3382 38.8439 31.7576C40.6698 32.2052 42.4745 32.7165 44.2651 33.2795C45.5232 34.0688 46.7766 34.8675 48.0512 35.6285C49.387 36.4248 50.0986 36.3824 51.4273 35.539C53.9883 33.9133 56.4056 32.0356 59.4142 31.3547C59.525 31.3806 59.6404 31.3994 59.7676 31.3994C61.5323 31.3994 61.5346 28.657 59.7676 28.657Z" fill="white"/>
<path d="M50.0091 37.6003C49.8348 36.6037 49.7947 36.5189 49.0785 36.8723C49.0479 36.8582 49.0196 36.8393 48.9866 36.8252C48.8453 36.771 48.7062 36.7121 48.5672 36.6556C48.4589 36.4765 48.3034 36.3116 48.0748 36.182C45.6576 34.799 43.2026 33.4844 40.71 32.2381C40.3024 32.0354 39.9089 32.0449 39.5744 32.1815C39.5202 32.1485 39.4636 32.1179 39.4094 32.0849C39.3812 32.0684 39.3552 32.0614 39.3293 32.0472C39.1456 30.4216 36.5516 30.4522 36.6034 32.1744C36.7401 36.7828 36.8791 41.3912 37.0157 45.9995C37.0393 46.8029 37.6259 47.2388 38.2479 47.3095C41.4403 48.7466 45.5421 49.8657 47.8746 52.5751C48.6073 53.4256 49.5874 52.839 49.9172 51.9555C50.7253 49.7927 50.1128 47.1375 50.2235 44.8663C50.346 42.4843 50.4238 39.9611 50.0091 37.6003Z" fill="#F7AEBC"/>
<path d="M60.9456 30.8245C59.3458 31.2015 57.9087 31.9295 56.5351 32.8201C55.1121 33.7436 53.6467 35.0889 51.9974 35.5743C51.5498 35.7062 51.2742 35.9913 51.1399 36.3282C50.4731 36.3494 49.8346 36.7852 49.8653 37.6475C49.9477 40.0436 50.0302 42.4397 50.1103 44.8357C50.1456 45.8441 50.1786 46.8548 50.2139 47.8632C50.2328 48.431 50.254 49.0011 50.2728 49.5689C50.2846 49.9318 50.0208 50.9331 50.4283 50.4501C49.7145 51.2959 50.0467 52.3373 51.0338 52.7425C51.0527 52.7496 51.0739 52.759 51.0927 52.7661C51.7925 53.0535 52.5087 52.4715 52.7561 51.8637C53.0741 51.8731 53.4063 51.7671 53.7032 51.4867C54.7469 50.5019 55.8519 49.6184 57.0723 48.8598C57.3126 48.7114 57.5859 48.5323 57.878 48.3462C58.6438 48.0375 59.4189 47.7572 60.2152 47.5192C60.9786 47.2907 61.6783 47.1941 62.0953 46.4543C62.371 45.969 62.3309 45.2787 61.9398 44.8569C61.9822 44.7156 61.9964 44.5554 61.9752 44.381C61.895 43.6931 61.8691 43.064 61.8927 42.3737C61.9021 42.1145 61.8456 41.8954 61.749 41.7117C61.7584 40.7433 61.7937 39.7727 61.8597 38.8067C61.9916 36.8371 62.2508 34.8863 62.6113 32.9449C62.6395 32.7965 62.6372 32.6599 62.6254 32.5279C62.7974 31.6491 62.0977 30.5559 60.9456 30.8245Z" fill="#88C1D7"/>
<path d="M37.7178 46.803C37.7602 46.419 37.7602 45.9808 37.7767 45.5661C37.9557 41.1556 37.7178 36.7452 37.6377 32.3347C37.6212 31.4489 37.5175 30.391 37.2183 30.4217C36.9285 30.4499 36.7612 31.3711 36.7706 32.4054C36.7683 32.7683 36.7777 33.1311 36.7966 33.4915C36.9685 35.8829 36.9497 38.3237 37.0722 41.264C37.0863 42.6682 37.1005 44.6001 37.1264 46.5297C37.1358 47.1352 37.1782 47.8609 37.4091 47.9292C37.6094 47.9834 37.6612 47.2883 37.7178 46.803Z" fill="#3A395B"/>
<path d="M50.3224 52.3183C50.3648 51.9343 50.3648 51.4961 50.3813 51.0814C50.5603 46.671 50.3224 42.2605 50.2423 37.8501C50.2258 36.9642 50.1221 35.9064 49.8229 35.937C49.5331 35.9653 49.3658 36.8865 49.3753 37.9207C49.3729 38.2836 49.3823 38.6464 49.4012 39.0069C49.5732 41.3982 49.5543 43.8391 49.6768 46.7794C49.691 48.1835 49.7051 50.1155 49.731 52.045C49.7404 52.6505 49.7828 53.3762 50.0137 53.4445C50.214 53.4963 50.2658 52.8037 50.3224 52.3183Z" fill="#3A395B"/>
<path d="M62.5737 46.5414C62.6161 46.1574 62.6161 45.7192 62.6326 45.3045C62.8117 40.8941 62.5737 36.4836 62.4936 32.0732C62.4771 31.1873 62.3735 30.1294 62.0742 30.1601C61.7844 30.1883 61.6172 31.1096 61.6266 32.1438C61.6242 32.5067 61.6337 32.8695 61.6525 33.23C61.8245 35.6213 61.8057 38.0621 61.9282 41.0024C61.9423 42.4066 61.9564 44.3385 61.9824 46.2681C61.9918 46.8736 62.0342 47.5993 62.2651 47.6676C62.4677 47.7194 62.5195 47.0268 62.5737 46.5414Z" fill="#3A395B"/>
<path d="M48.5153 23.9614C48.2302 24.0604 47.9334 24.2182 47.6412 24.3502C44.5407 25.7614 41.6381 27.5402 38.6601 29.1824C38.0617 29.5122 37.3879 29.981 37.5504 30.2331C37.7059 30.4781 38.4151 30.2991 39.1172 29.9221C39.3646 29.7949 39.6096 29.6583 39.8475 29.5122C41.4025 28.5085 43.0776 27.658 45.0308 26.5036C45.9849 25.9923 47.2972 25.2926 48.6048 24.5811C49.0148 24.3572 49.4907 24.0627 49.4294 23.8318C49.3729 23.6363 48.8734 23.8366 48.5153 23.9614Z" fill="#3A395B"/>
<path d="M60.7689 30.4805C60.4838 30.5795 60.187 30.7373 59.8948 30.8693C56.7943 32.2805 53.8917 34.0593 50.9137 35.7014C50.3153 36.0313 49.6415 36.5001 49.804 36.7522C49.9595 36.9972 50.6687 36.8182 51.3708 36.4412C51.6182 36.314 51.8632 36.1774 52.1011 36.0313C53.6561 35.0276 55.3312 34.1771 57.2844 33.0227C58.2385 32.5114 59.5508 31.8117 60.8584 31.1002C61.2684 30.8763 61.7443 30.5818 61.683 30.3509C61.6265 30.1554 61.127 30.358 60.7689 30.4805Z" fill="#3A395B"/>
<path d="M60.7689 47.1116C60.4838 47.2105 60.187 47.3684 59.8948 47.5003C56.7943 48.9116 53.8917 50.6904 50.9137 52.3325C50.3153 52.6623 49.6415 53.1312 49.804 53.3833C49.9595 53.6283 50.6687 53.4492 51.3708 53.0723C51.6182 52.9451 51.8632 52.8084 52.1011 52.6623C53.6561 51.6587 55.3312 50.8082 57.2844 49.6537C58.2385 49.1425 59.5508 48.4427 60.8584 47.7312C61.2684 47.5074 61.7443 47.2129 61.683 46.982C61.6265 46.7864 61.127 46.9867 60.7689 47.1116Z" fill="#3A395B"/>
<path d="M49.116 36.215C48.8662 36.0312 48.5599 35.871 48.2772 35.699C45.2733 33.8896 42.0762 32.4524 38.9498 30.8763C38.3231 30.5582 37.5338 30.2566 37.416 30.5346C37.3006 30.8009 37.8684 31.2956 38.5987 31.6726C38.8508 31.8092 39.11 31.9365 39.3715 32.0543C41.1267 32.7964 42.8254 33.7247 44.9411 34.7165C45.9306 35.2302 47.2877 35.9393 48.6518 36.6367C49.0806 36.8558 49.606 37.089 49.7639 36.91C49.8911 36.7521 49.4293 36.4459 49.116 36.215Z" fill="#3A395B"/>
<path d="M49.116 52.6694C48.8662 52.4856 48.5599 52.3254 48.2772 52.1534C45.2733 50.344 42.0762 48.9068 38.9498 47.3307C38.3231 47.0126 37.5338 46.711 37.416 46.989C37.3006 47.2553 37.8684 47.75 38.5987 48.127C38.8508 48.2636 39.11 48.3909 39.3715 48.5087C41.1267 49.2508 42.8254 50.1791 44.9411 51.171C45.9306 51.6846 47.2877 52.3937 48.6518 53.0911C49.0806 53.3102 49.606 53.5435 49.7639 53.3644C49.8911 53.2066 49.4293 52.9003 49.116 52.6694Z" fill="#3A395B"/>
<path d="M61.3697 29.6065C61.12 29.4227 60.8137 29.2625 60.531 29.0905C57.527 27.2811 54.3299 25.844 51.2035 24.2678C50.5768 23.9497 49.7875 23.6482 49.6697 23.9262C49.5543 24.1924 50.1221 24.6872 50.8525 25.0641C51.1046 25.2008 51.3637 25.328 51.6252 25.4458C53.3805 26.1879 55.0791 27.1162 57.1948 28.1081C58.1844 28.6217 59.5414 29.3308 60.9056 30.0282C61.3343 30.2473 61.8597 30.4806 62.0176 30.3015C62.1448 30.1437 61.683 29.8374 61.3697 29.6065Z" fill="#3A395B"/>
<path d="M47.6908 51.4136C47.5801 51.4136 47.4764 51.4254 47.3798 51.4442C47.2314 51.4089 47.0759 51.3947 46.9039 51.4136C46.7649 51.0932 46.4846 50.8316 46.0275 50.7303C44.8778 50.4759 43.7469 50.1672 42.6396 49.7667C42.2131 49.6136 41.6807 49.4416 41.1553 49.2319C40.5026 48.8031 39.9184 48.2754 39.3388 47.7453C39.1668 47.5898 38.9524 47.4885 38.7262 47.439C38.4364 47.0832 37.9723 46.8877 37.3904 47.0879C36.7778 47.2976 36.2053 47.6063 35.6469 47.9479C35.3241 47.7288 34.9165 47.6345 34.5302 47.757C33.9553 47.9408 33.4676 48.2424 33.0058 48.5793C32.9139 48.6429 32.8221 48.7112 32.7349 48.7796C32.1459 49.2248 31.5781 49.7008 30.8948 50.0282C30.5462 50.1955 30.3365 50.5348 30.2611 50.907C29.3705 51.2722 28.4611 51.5926 27.5352 51.8801C27.521 51.8777 27.5093 51.873 27.4951 51.8706C25.7823 51.4513 25.0496 54.0947 26.7671 54.5141C28.593 54.9617 30.3977 55.473 32.1883 56.0361C33.4464 56.8253 34.6998 57.624 35.9744 58.385C37.3103 59.1813 38.0218 59.1389 39.3506 58.2955C41.9115 56.6698 44.3288 54.7921 47.3374 54.1112C47.4482 54.1371 47.5636 54.156 47.6908 54.156C49.4555 54.156 49.4578 51.4136 47.6908 51.4136Z" fill="white"/>
<path d="M37.9298 60.3571C37.7554 59.3605 37.7154 59.2756 36.9992 59.629C36.9685 59.6149 36.9403 59.5961 36.9073 59.5819C36.7659 59.5277 36.6269 59.4688 36.4879 59.4123C36.3795 59.2332 36.224 59.0683 35.9955 58.9387C33.5782 57.5558 31.1233 56.2411 28.6306 54.9948C28.223 54.7922 27.8296 54.8016 27.495 54.9382C27.4408 54.9052 27.3843 54.8746 27.3301 54.8416C27.3018 54.8251 27.2759 54.8181 27.25 54.8039C27.0662 53.1783 24.4722 53.2089 24.5241 54.9312C24.6607 59.5395 24.7997 64.1479 24.9364 68.7562C24.9599 69.5596 25.5466 69.9955 26.1686 70.0662C29.361 71.5033 33.4628 72.6224 35.7952 75.3319C36.5279 76.1824 37.5081 75.5957 37.8379 74.7122C38.646 72.5494 38.0334 69.8942 38.1442 67.623C38.2667 65.2411 38.3444 62.7178 37.9298 60.3571Z" fill="#F7AEBC"/>
<path d="M48.8687 53.5812C47.269 53.9582 45.8318 54.6862 44.4583 55.5768C43.0352 56.5003 41.5698 57.8456 39.9206 58.3309C39.473 58.4629 39.1973 58.748 39.063 59.0849C38.3963 59.1061 37.7578 59.5419 37.7884 60.4042C37.8709 62.8003 37.9533 65.1964 38.0334 67.5924C38.0688 68.6008 38.1018 69.6115 38.1371 70.6199C38.1559 71.1877 38.1771 71.7578 38.196 72.3256C38.2078 72.6885 37.9439 73.6898 38.3515 73.2068C37.6376 74.0526 37.9698 75.0939 38.957 75.4992C38.9758 75.5062 38.997 75.5157 39.0159 75.5227C39.7156 75.8102 40.4319 75.2282 40.6792 74.6204C40.9973 74.6298 41.3295 74.5238 41.6263 74.2434C42.6701 73.2586 43.775 72.3751 44.9954 71.6165C45.2358 71.4681 45.5091 71.289 45.8012 71.1029C46.5669 70.7942 47.342 70.5139 48.1384 70.2759C48.9017 70.0474 49.6014 69.9508 50.0185 69.211C50.2941 68.7257 50.2541 68.0353 49.863 67.6136C49.9054 67.4723 49.9195 67.312 49.8983 67.1377C49.8182 66.4497 49.7923 65.8207 49.8158 65.1304C49.8253 64.8712 49.7687 64.6521 49.6721 64.4683C49.6816 63.5 49.7169 62.5294 49.7829 61.5634C49.9148 59.5938 50.174 57.643 50.5344 55.7016C50.5627 55.5532 50.5603 55.4166 50.5486 55.2846C50.7206 54.4058 50.0185 53.3103 48.8687 53.5812Z" fill="#88C1D7"/>
<path d="M25.6385 69.5596C25.6809 69.1756 25.6809 68.7374 25.6974 68.3227C25.8764 63.9123 25.6385 59.5018 25.5584 55.0913C25.5419 54.2055 25.4382 53.1476 25.139 53.1783C24.8492 53.2065 24.6819 54.1277 24.6914 55.162C24.689 55.5248 24.6984 55.8877 24.7173 56.2482C24.8893 58.6395 24.8704 61.0803 24.9929 64.0206C25.0071 65.4248 25.0212 67.3567 25.0471 69.2863C25.0565 69.8918 25.0989 70.6174 25.3298 70.6858C25.5325 70.7376 25.5843 70.0449 25.6385 69.5596Z" fill="#3A395B"/>
<path d="M38.2432 75.0727C38.2856 74.6886 38.2856 74.2504 38.3021 73.8357C38.4812 69.4253 38.2432 65.0149 38.1631 60.6044C38.1466 59.7185 38.0429 58.6607 37.7437 58.6913C37.4539 58.7196 37.2867 59.6408 37.2961 60.6751C37.2937 61.0379 37.3032 61.4007 37.322 61.7612C37.494 64.1525 37.4751 66.5934 37.5977 69.5337C37.6118 70.9379 37.6259 72.8698 37.6518 74.7994C37.6613 75.4049 37.7037 76.1305 37.9346 76.1988C38.1348 76.253 38.1867 75.558 38.2432 75.0727Z" fill="#3A395B"/>
<path d="M50.4968 69.2959C50.5392 68.9118 50.5392 68.4736 50.5557 68.059C50.7348 63.6485 50.4968 59.2381 50.4167 54.8276C50.4002 53.9417 50.2965 52.8839 49.9973 52.9145C49.7075 52.9428 49.5403 53.864 49.5497 54.8983C49.5473 55.2611 49.5568 55.6239 49.5756 55.9844C49.7476 58.3758 49.7288 60.8166 49.8513 63.7569C49.8654 65.1611 49.8795 67.093 49.9055 69.0226C49.9149 69.6281 49.9573 70.3537 50.1882 70.422C50.3884 70.4762 50.4403 69.7812 50.4968 69.2959Z" fill="#3A395B"/>
<path d="M36.4385 46.7159C36.1534 46.8148 35.8565 46.9727 35.5644 47.1046C32.4639 48.5159 29.5613 50.2946 26.5833 51.9368C25.9848 52.2666 25.311 52.7355 25.4736 52.9876C25.6291 53.2326 26.3382 53.0535 27.0403 52.6766C27.2877 52.5493 27.5327 52.4127 27.7707 52.2666C29.3257 51.263 31.0008 50.4124 32.9539 49.258C33.9081 48.7467 35.2204 48.047 36.528 47.3355C36.9379 47.1117 37.4138 46.8172 37.3526 46.5863C37.2937 46.3931 36.7966 46.5934 36.4385 46.7159Z" fill="#3A395B"/>
<path d="M48.6922 53.2372C48.4071 53.3362 48.1102 53.4941 47.8181 53.626C44.7176 55.0372 41.815 56.816 38.837 58.4582C38.2386 58.788 37.5647 59.2568 37.7273 59.5089C37.8828 59.754 38.592 59.5749 39.2941 59.1979C39.5414 59.0707 39.7865 58.9341 40.0244 58.788C41.5794 57.7843 43.2545 56.9338 45.2076 55.7794C46.1618 55.2681 47.4741 54.5684 48.7817 53.8569C49.1917 53.6331 49.6676 53.3386 49.6063 53.1077C49.5474 52.9121 49.0479 53.1124 48.6922 53.2372Z" fill="#3A395B"/>
<path d="M48.6922 69.8659C48.4071 69.9648 48.1102 70.1227 47.8181 70.2546C44.7176 71.6659 41.815 73.4447 38.837 75.0868C38.2386 75.4166 37.5647 75.8855 37.7273 76.1376C37.8828 76.3826 38.592 76.2036 39.2941 75.8266C39.5414 75.6994 39.7865 75.5627 40.0244 75.4166C41.5794 74.413 43.2545 73.5625 45.2076 72.408C46.1618 71.8968 47.4741 71.197 48.7817 70.4855C49.1917 70.2617 49.6676 69.9672 49.6063 69.7363C49.5474 69.5431 49.0479 69.7434 48.6922 69.8659Z" fill="#3A395B"/>
<path d="M37.037 58.9718C36.7873 58.788 36.481 58.6278 36.1982 58.4559C33.1943 56.6464 29.9972 55.2093 26.8708 53.6331C26.2441 53.315 25.4548 53.0135 25.337 53.2915C25.2216 53.5577 25.7894 54.0525 26.5198 54.4294C26.7718 54.5661 27.031 54.6933 27.2925 54.8111C29.0478 55.5532 30.7464 56.4815 32.8621 57.4734C33.8517 57.987 35.2087 58.6962 36.5729 59.3935C37.0016 59.6126 37.527 59.8459 37.6849 59.6668C37.8121 59.509 37.3527 59.2027 37.037 58.9718Z" fill="#3A395B"/>
<path d="M37.037 75.4261C36.7873 75.2424 36.481 75.0822 36.1982 74.9102C33.1943 73.1008 29.9972 71.6636 26.8708 70.0874C26.2441 69.7694 25.4548 69.4678 25.337 69.7458C25.2216 70.012 25.7894 70.5068 26.5198 70.8838C26.7718 71.0204 27.031 71.1476 27.2925 71.2654C29.0478 72.0076 30.7464 72.9358 32.8621 73.9277C33.8517 74.4413 35.2087 75.1505 36.5729 75.8479C37.0016 76.067 37.527 76.3002 37.6849 76.1212C37.8121 75.9633 37.3527 75.657 37.037 75.4261Z" fill="#3A395B"/>
<path d="M49.2904 52.3632C49.0407 52.1794 48.7344 52.0192 48.4517 51.8472C45.4477 50.0378 42.2506 48.6006 39.1242 47.0244C38.4975 46.7064 37.7083 46.4048 37.5905 46.6828C37.475 46.9491 38.0428 47.4438 38.7732 47.8208C39.0253 47.9574 39.2844 48.0847 39.5459 48.2025C41.3012 48.9446 42.9999 49.8729 45.1155 50.8647C46.1051 51.3784 47.4621 52.0875 48.8263 52.7849C49.2551 53.004 49.7804 53.2372 49.9383 53.0582C50.0655 52.9003 49.6037 52.5941 49.2904 52.3632Z" fill="#3A395B"/>
<path d="M72.5465 51.4136C72.4358 51.4136 72.3322 51.4254 72.2356 51.4442C72.0871 51.4089 71.9316 51.3947 71.7596 51.4136C71.6206 51.0932 71.3403 50.8316 70.8832 50.7303C69.7335 50.4759 68.6026 50.1672 67.4953 49.7667C67.0688 49.6136 66.5364 49.4416 66.011 49.2319C65.3584 48.8031 64.7741 48.2754 64.1945 47.7453C64.0225 47.5898 63.8081 47.4885 63.5819 47.439C63.2921 47.0832 62.828 46.8877 62.2461 47.0879C61.6335 47.2976 61.061 47.6063 60.5026 47.9479C60.1799 47.7288 59.7723 47.6345 59.3859 47.757C58.811 47.9408 58.3233 48.2424 57.8615 48.5793C57.7697 48.6429 57.6778 48.7112 57.5906 48.7796C57.0016 49.2248 56.4338 49.7008 55.7506 50.0282C55.4019 50.1955 55.1922 50.5348 55.1168 50.907C54.2262 51.2722 53.3168 51.5926 52.3909 51.8801C52.3767 51.8777 52.365 51.873 52.3508 51.8706C50.638 51.4513 49.9053 54.0947 51.6228 54.5141C53.4487 54.9617 55.2534 55.473 57.044 56.0361C58.3021 56.8253 59.5555 57.624 60.8301 58.385C62.166 59.1813 62.8775 59.1389 64.2063 58.2955C66.7673 56.6698 69.1845 54.7921 72.1931 54.1112C72.3039 54.1371 72.4193 54.156 72.5465 54.156C74.3112 54.156 74.3136 51.4136 72.5465 51.4136Z" fill="white"/>
<path d="M62.7881 60.3571C62.6137 59.3605 62.5737 59.2756 61.8574 59.629C61.8268 59.6149 61.7985 59.5961 61.7655 59.5819C61.6242 59.5277 61.4852 59.4688 61.3462 59.4123C61.2378 59.2332 61.0823 59.0683 60.8538 58.9387C58.4365 57.5558 55.9815 56.2411 53.4889 54.9948C53.0813 54.7922 52.6878 54.8016 52.3533 54.9382C52.2991 54.9052 52.2426 54.8746 52.1884 54.8416C52.1601 54.8251 52.1342 54.8181 52.1083 54.8039C51.9245 53.1783 49.3305 53.2089 49.3824 54.9312C49.519 59.5395 49.658 64.1479 49.7947 68.7562C49.8182 69.5596 50.4049 69.9955 51.0269 70.0662C54.2192 71.5033 58.3211 72.6224 60.6535 75.3319C61.3862 76.1824 62.3663 75.5957 62.6962 74.7122C63.5043 72.5494 62.8917 69.8942 63.0024 67.623C63.1226 65.2411 63.2027 62.7178 62.7881 60.3571Z" fill="#F7AEBC"/>
<path d="M73.7245 53.5812C72.1248 53.9582 70.6876 54.6862 69.314 55.5768C67.891 56.5003 66.4256 57.8456 64.7764 58.3309C64.3287 58.4629 64.0531 58.748 63.9188 59.0849C63.252 59.1061 62.6136 59.5419 62.6442 60.4042C62.7266 62.8003 62.8091 65.1964 62.8892 67.5924C62.9245 68.6008 62.9575 69.6115 62.9929 70.6199C63.0117 71.1877 63.0329 71.7578 63.0518 72.3256C63.0636 72.6885 62.7997 73.6898 63.2073 73.2068C62.4934 74.0526 62.8256 75.0939 63.8128 75.4992C63.8316 75.5062 63.8528 75.5157 63.8717 75.5227C64.5714 75.8102 65.2876 75.2282 65.535 74.6204C65.8531 74.6298 66.1853 74.5238 66.4821 74.2434C67.5258 73.2586 68.6308 72.3751 69.8512 71.6165C70.0915 71.4681 70.3648 71.289 70.657 71.1029C71.4227 70.7942 72.1978 70.5139 72.9941 70.2759C73.7575 70.0474 74.4572 69.9508 74.8742 69.211C75.1499 68.7257 75.1098 68.0353 74.7187 67.6136C74.7611 67.4723 74.7753 67.312 74.7541 67.1377C74.674 66.4497 74.6481 65.8207 74.6716 65.1304C74.681 64.8712 74.6245 64.6521 74.5279 64.4683C74.5373 63.5 74.5727 62.5294 74.6386 61.5634C74.7706 59.5938 75.0297 57.643 75.3902 55.7016C75.4185 55.5532 75.4161 55.4166 75.4043 55.2846C75.5763 54.4058 74.8766 53.3103 73.7245 53.5812Z" fill="#88C1D7"/>
<path d="M50.4967 69.5596C50.5391 69.1756 50.5391 68.7374 50.5556 68.3227C50.7347 63.9123 50.4967 59.5018 50.4166 55.0913C50.4001 54.2055 50.2964 53.1476 49.9972 53.1783C49.7074 53.2065 49.5401 54.1277 49.5496 55.162C49.5472 55.5248 49.5566 55.8877 49.5755 56.2482C49.7475 58.6395 49.7286 61.0803 49.8511 64.0206C49.8653 65.4248 49.8794 67.3567 49.9053 69.2863C49.9148 69.8918 49.9572 70.6174 50.1881 70.6858C50.3883 70.7376 50.4401 70.0449 50.4967 69.5596Z" fill="#3A395B"/>
<path d="M63.0989 75.0727C63.1413 74.6886 63.1413 74.2504 63.1578 73.8357C63.3369 69.4253 63.0989 65.0149 63.0188 60.6044C63.0023 59.7185 62.8987 58.6607 62.5994 58.6913C62.3097 58.7196 62.1424 59.6408 62.1518 60.6751C62.1495 61.0379 62.1589 61.4007 62.1777 61.7612C62.3497 64.1525 62.3309 66.5934 62.4534 69.5337C62.4675 70.9379 62.4816 72.8698 62.5076 74.7994C62.517 75.4049 62.5594 76.1305 62.7903 76.1988C62.9929 76.253 63.0447 75.558 63.0989 75.0727Z" fill="#3A395B"/>
<path d="M75.3526 69.2959C75.3951 68.9118 75.3951 68.4736 75.4116 68.059C75.5906 63.6485 75.3526 59.2381 75.2725 54.8276C75.256 53.9417 75.1524 52.8839 74.8532 52.9145C74.5634 52.9428 74.3961 53.864 74.4055 54.8983C74.4032 55.2611 74.4126 55.6239 74.4314 55.9844C74.6034 58.3758 74.5846 60.8166 74.7071 63.7569C74.7212 65.1611 74.7354 67.093 74.7613 69.0226C74.7707 69.6281 74.8131 70.3537 75.044 70.422C75.2443 70.4762 75.2985 69.7812 75.3526 69.2959Z" fill="#3A395B"/>
<path d="M61.2942 46.7159C61.0092 46.8148 60.7123 46.9727 60.4202 47.1046C57.3196 48.5159 54.417 50.2946 51.439 51.9368C50.8406 52.2666 50.1668 52.7355 50.3294 52.9876C50.4849 53.2326 51.194 53.0535 51.8961 52.6766C52.1435 52.5493 52.3885 52.4127 52.6265 52.2666C54.1814 51.263 55.8566 50.4124 57.8097 49.258C58.7639 48.7467 60.0762 48.047 61.3838 47.3355C61.7937 47.1117 62.2696 46.8172 62.2084 46.5863C62.1518 46.3931 61.6523 46.5934 61.2942 46.7159Z" fill="#3A395B"/>
<path d="M73.5478 53.2372C73.2628 53.3362 72.9659 53.4941 72.6737 53.626C69.5732 55.0372 66.6706 56.816 63.6926 58.4582C63.0942 58.788 62.4204 59.2568 62.583 59.5089C62.7385 59.754 63.4476 59.5749 64.1497 59.1979C64.3971 59.0707 64.6421 58.9341 64.8801 58.788C66.435 57.7843 68.1102 56.9338 70.0633 55.7794C71.0175 55.2681 72.3298 54.5684 73.6374 53.8569C74.0473 53.6331 74.5232 53.3386 74.462 53.1077C74.4054 52.9121 73.9059 53.1124 73.5478 53.2372Z" fill="#3A395B"/>
<path d="M73.5478 69.8659C73.2628 69.9648 72.9659 70.1227 72.6737 70.2546C69.5732 71.6659 66.6706 73.4447 63.6926 75.0868C63.0942 75.4166 62.4204 75.8855 62.583 76.1376C62.7385 76.3826 63.4476 76.2036 64.1497 75.8266C64.3971 75.6994 64.6421 75.5627 64.8801 75.4166C66.435 74.413 68.1102 73.5625 70.0633 72.408C71.0175 71.8968 72.3298 71.197 73.6374 70.4855C74.0473 70.2617 74.5232 69.9672 74.462 69.7363C74.4054 69.5431 73.9059 69.7434 73.5478 69.8659Z" fill="#3A395B"/>
<path d="M61.8952 58.9718C61.6455 58.788 61.3392 58.6278 61.0565 58.4559C58.0525 56.6464 54.8554 55.2093 51.729 53.6331C51.1023 53.315 50.3131 53.0135 50.1953 53.2915C50.0798 53.5577 50.6476 54.0525 51.378 54.4294C51.6301 54.5661 51.8892 54.6933 52.1507 54.8111C53.906 55.5532 55.6046 56.4815 57.7203 57.4734C58.7099 57.987 60.0669 58.6962 61.4311 59.3935C61.8599 59.6126 62.3852 59.8459 62.5431 59.6668C62.6703 59.509 62.2085 59.2027 61.8952 58.9718Z" fill="#3A395B"/>
<path d="M61.8952 75.4261C61.6455 75.2424 61.3392 75.0822 61.0565 74.9102C58.0525 73.1008 54.8554 71.6636 51.729 70.0874C51.1023 69.7694 50.3131 69.4678 50.1953 69.7458C50.0798 70.012 50.6476 70.5068 51.378 70.8838C51.6301 71.0204 51.8892 71.1476 52.1507 71.2654C53.906 72.0076 55.6046 72.9358 57.7203 73.9277C58.7099 74.4413 60.0669 75.1505 61.4311 75.8479C61.8599 76.067 62.3852 76.3002 62.5431 76.1212C62.6703 75.9633 62.2085 75.657 61.8952 75.4261Z" fill="#3A395B"/>
<path d="M74.1462 52.3632C73.8964 52.1794 73.5902 52.0192 73.3074 51.8472C70.3035 50.0378 67.1064 48.6006 63.98 47.0244C63.3533 46.7064 62.564 46.4048 62.4462 46.6828C62.3308 46.9491 62.8986 47.4438 63.6289 47.8208C63.881 47.9574 64.1402 48.0847 64.4017 48.2025C66.1569 48.9446 67.8556 49.8729 69.9713 50.8647C70.9608 51.3784 72.3179 52.0875 73.682 52.7849C74.1108 53.004 74.6362 53.2372 74.7941 53.0582C74.9237 52.9003 74.4619 52.5941 74.1462 52.3632Z" fill="#3A395B"/>
</svg>
