<svg width="157" height="204" viewBox="0 0 157 204" fill="none" xmlns="http://www.w3.org/2000/svg">
<path d="M101.753 46.3928C103.032 46.4788 104.308 46.188 105.424 45.5562C106.539 44.9245 107.445 43.9796 108.029 42.8385C108.613 41.6974 108.85 40.4101 108.71 39.1359C108.57 37.8617 108.059 36.6564 107.241 35.6693C110.819 34.021 112.711 29.7877 112.449 25.8636C112.186 21.9394 110.117 18.3712 107.532 15.3555C105.406 12.8923 102.737 10.6727 99.5429 10.0639C98.9384 10.0037 98.349 9.83892 97.8009 9.57692C97.3697 9.27355 96.9955 8.89623 96.6958 8.46242C94.3638 5.48418 91.4885 2.74945 87.8922 1.55066C84.2958 0.351872 79.894 1.03555 77.4871 3.96696C76.2839 2.92247 74.792 2.2679 73.2087 2.08989C71.6254 1.91187 70.0253 2.2188 68.6203 2.97005C67.2152 3.72131 66.0714 4.88148 65.3402 6.29704C64.6089 7.7126 64.3247 9.31684 64.5252 10.8975C61.9914 11.2715 59.6154 12.356 57.6727 14.0252C55.73 15.6944 54.3001 17.8799 53.5488 20.3286C52.2095 25.2548 54.4853 31.0427 59.0276 33.3747C59.5521 33.6463 60.1796 34.0022 60.1608 34.5829C60.1092 34.9334 59.9524 35.2599 59.7113 35.5194C58.2503 37.608 58.9808 40.633 60.6479 42.5249C62.3149 44.4167 64.8061 45.4188 67.2037 46.3741C66.6704 46.9089 66.315 47.5951 66.1859 48.3393C66.0569 49.0834 66.1605 49.8493 66.4826 50.5324C67.1774 51.8999 68.2586 53.0332 69.5919 53.7916C74.7992 57.1538 81.2427 56.1049 87.0774 56.2266C92.4626 56.339 97.8103 52.9019 101.379 49.0058C102.072 48.2659 102.624 46.9173 101.753 46.3928Z" fill="white"/>
<path d="M80.6269 56.7597C81.5635 56.7597 82.5 56.7597 83.3616 56.7597C84.5792 56.7597 85.8529 56.7035 87.0517 56.7597C91.9405 56.844 97.3537 54.0999 101.718 49.389C102.025 49.081 102.267 48.7138 102.428 48.3098C102.589 47.9057 102.666 47.4731 102.655 47.0383C102.66 47.0041 102.66 46.9694 102.655 46.9353C103.916 46.8747 105.136 46.4736 106.188 45.7747C107.239 45.0758 108.081 44.1051 108.625 42.9658C109.169 41.8265 109.393 40.5612 109.276 39.3044C109.158 38.0475 108.702 36.8461 107.956 35.8277C111.187 34.0483 113.2 30.0305 112.919 25.8347C112.685 22.2477 110.99 18.6233 107.89 15.0456C105.193 11.9363 102.495 10.1568 99.6296 9.60425L99.3111 9.54806C98.8606 9.53035 98.4217 9.39918 98.0354 9.1667C97.649 8.93422 97.3276 8.60795 97.1009 8.21815C94.1601 4.47194 91.21 2.16802 88.0444 1.10972C84.139 -0.192093 79.8589 0.716362 77.4333 3.31061C76.1567 2.32501 74.6218 1.73046 73.0144 1.59891C71.4069 1.46735 69.7958 1.80443 68.3759 2.56936C66.9561 3.33428 65.7883 4.49427 65.0139 5.90899C64.2395 7.32371 63.8917 8.93253 64.0124 10.5408C61.482 10.9981 59.1256 12.1412 57.2 13.8455C55.2744 15.5497 53.8535 17.7499 53.0922 20.206C51.6687 25.4414 54.188 31.4447 58.8146 33.7954C59.2829 34.0296 59.7043 34.2918 59.6949 34.5728C59.6485 34.7671 59.5552 34.9471 59.4233 35.0972L59.339 35.219C57.672 37.5791 58.6179 40.8851 60.3505 42.7957C62.0643 44.4778 64.131 45.7575 66.4007 46.5419C65.9906 47.1556 65.7429 47.8632 65.6807 48.5986C65.6184 49.334 65.7437 50.0732 66.0448 50.747C66.7615 52.1909 67.8932 53.3877 69.2946 54.1842C72.7692 56.4319 76.7028 56.7597 80.6269 56.7597ZM86.0121 55.7482C85.1224 55.7482 84.2233 55.7482 83.3429 55.7482C78.6601 55.8419 73.8369 55.9449 69.8378 53.36C68.5776 52.658 67.5566 51.5945 66.9064 50.3069C66.6158 49.7102 66.5183 49.0379 66.6274 48.3833C66.7365 47.7288 67.0468 47.1244 67.5152 46.6543C67.5765 46.6022 67.6233 46.5352 67.6512 46.4597C67.6791 46.3843 67.6871 46.3029 67.6744 46.2235C67.6613 46.1428 67.6277 46.0669 67.5768 46.003C67.526 45.939 67.4596 45.8892 67.384 45.8582C65.1925 44.9779 62.7013 43.9851 61.0436 42.112C59.5545 40.473 58.7209 37.6634 60.107 35.6966L60.1913 35.5936C60.4466 35.2992 60.6038 34.9326 60.6409 34.5447C60.6409 33.6081 59.7511 33.1586 59.2548 32.9057C55.0028 30.7142 52.6989 25.226 54.0101 20.3933C54.751 18.0447 56.1384 15.9522 58.0134 14.3554C59.8884 12.7587 62.1752 11.7223 64.6118 11.365C64.733 11.3464 64.8421 11.2811 64.9156 11.1831C64.9891 11.085 65.0213 10.962 65.0052 10.8405C64.8212 9.35685 65.0898 7.85222 65.7759 6.5239C66.4619 5.19558 67.5334 4.10558 68.8497 3.39679C70.166 2.688 71.6658 2.39352 73.1524 2.55195C74.639 2.71039 76.043 3.31434 77.1804 4.28463C77.2274 4.32603 77.2824 4.35735 77.342 4.37668C77.4016 4.39601 77.4645 4.40293 77.5269 4.39702C77.5887 4.3924 77.649 4.37503 77.7038 4.34602C77.7586 4.31701 77.8068 4.27698 77.8453 4.22844C79.9526 1.66228 84.0266 0.725727 87.7353 1.97134C90.7229 2.96409 93.5326 5.17436 96.3235 8.72389C96.6542 9.20433 97.07 9.62015 97.5504 9.95078C98.0449 10.214 98.5855 10.3794 99.1426 10.4378L99.4423 10.494C102.093 11.0091 104.621 12.6855 107.178 15.6263C110.138 19.0447 111.749 22.4912 111.973 25.8628C112.245 29.9087 110.222 33.7486 107.038 35.2283C106.973 35.2585 106.916 35.3027 106.87 35.3578C106.825 35.4129 106.793 35.4775 106.775 35.5468C106.76 35.6173 106.762 35.6903 106.78 35.7602C106.798 35.83 106.831 35.8948 106.878 35.9495C107.651 36.8621 108.136 37.9829 108.273 39.1706C108.409 40.3583 108.192 41.56 107.647 42.6243C107.102 43.6886 106.255 44.568 105.212 45.1517C104.168 45.7355 102.976 45.9976 101.784 45.9051C101.677 45.8942 101.57 45.921 101.481 45.9809C101.392 46.0408 101.327 46.1299 101.297 46.2328C101.265 46.3334 101.268 46.4417 101.305 46.5403C101.343 46.6388 101.412 46.7219 101.503 46.776C101.561 46.8081 101.61 46.854 101.646 46.9095C101.681 46.965 101.703 47.0286 101.709 47.0945C101.693 47.6922 101.444 48.2601 101.016 48.6772C96.8761 53.1914 91.6501 55.8325 87.0704 55.7389L86.0121 55.7482Z" fill="#08111F"/>
<path d="M34.8656 183.55C32.7209 183.55 16.7339 185.283 9.25087 189.001C1.76781 192.719 0.147568 193.009 1.66478 198.029C3.182 203.049 16.3593 204.286 26.3898 202.394C32.8502 201.066 39.0817 198.8 44.8867 195.669L34.8656 183.55Z" fill="white"/>
<path d="M16.9304 203.733C20.1308 203.721 23.3229 203.407 26.4645 202.797C32.969 201.458 39.2441 199.18 45.0925 196.035C45.1469 196.002 45.194 195.958 45.231 195.907C45.268 195.855 45.2942 195.797 45.3079 195.735C45.3188 195.674 45.316 195.611 45.2999 195.551C45.2837 195.491 45.2544 195.436 45.2143 195.388L35.1932 183.269C35.1563 183.22 35.1083 183.179 35.053 183.152C34.9977 183.124 34.9366 183.11 34.8747 183.11H34.7811C32.1681 183.11 16.5558 184.89 9.06334 188.608L7.37754 189.441C1.37424 192.382 -0.245995 193.188 1.25249 198.151C2.19841 201.298 8.36092 203.733 16.9304 203.733ZM44.2215 195.538C38.582 198.516 32.5504 200.682 26.3053 201.972C16.2373 203.846 3.46275 202.516 2.06729 197.908C0.78421 193.637 1.71139 193.178 7.75216 190.219L9.43796 189.385C16.5839 185.836 31.8684 184.028 34.6687 183.972L44.2215 195.538Z" fill="#08111F"/>
<path d="M32.7215 183.504C31.3074 183.85 30.0766 184.718 29.2758 185.934C28.4751 187.15 28.1636 188.624 28.404 190.059C29.1064 195.388 40.3731 195.613 41.0193 195.679C41.6656 195.744 32.7215 183.504 32.7215 183.504Z" fill="white"/>
<path d="M41.0184 195.979C41.102 195.976 41.1837 195.953 41.2557 195.91C41.3278 195.868 41.3879 195.807 41.4305 195.735C41.5709 195.454 41.7957 195.024 33.067 183.214C33.017 183.145 32.9472 183.093 32.8669 183.064C32.7867 183.036 32.6997 183.032 32.6175 183.054C32.5707 183.054 27.2323 184.394 27.9347 190.041C28.6465 195.464 38.9111 195.941 40.9622 195.979H41.0184ZM32.5894 183.963C35.3335 187.709 39.4169 193.328 40.4377 195.108C37.8716 194.986 29.4332 194.265 28.8619 189.929C28.6419 188.66 28.8964 187.354 29.5769 186.261C30.2574 185.168 31.3163 184.363 32.5519 184L32.5894 183.963Z" fill="#08111F"/>
<path d="M116.225 195.707C116.552 195.876 119.615 199.856 132.97 201.448C146.325 203.04 151.28 205.915 154.258 198.901C157.236 191.886 155.195 187.353 148.639 185.349C142.083 183.345 123.923 181.687 120.364 185.04C116.805 188.393 116.225 195.707 116.225 195.707Z" fill="white"/>
<path d="M147.664 203.827C150.97 203.827 153.096 202.722 154.65 199.07C156.205 195.417 156.439 192.28 155.306 189.854C154.257 187.606 152.047 185.949 148.75 184.946C142.588 183.073 123.866 181.144 120.063 184.731C116.42 188.159 115.84 195.37 115.811 195.67C115.807 195.749 115.824 195.828 115.86 195.899C115.896 195.97 115.951 196.03 116.018 196.073L116.149 196.185C119.998 199.688 127.387 201.214 132.932 201.87C135.807 202.216 138.279 202.619 140.424 202.975C142.813 203.437 145.233 203.722 147.664 203.827ZM130.375 183.542C136.79 183.542 144.564 184.562 148.478 185.761C151.55 186.698 153.592 188.196 154.529 190.219C155.559 192.411 155.334 195.277 153.864 198.732C151.663 203.93 148.413 203.415 140.583 202.132C138.392 201.776 135.901 201.374 133.016 201.027C127.603 200.381 120.382 198.901 116.701 195.548C116.832 194.321 117.638 188.262 120.663 185.377C122.011 184.047 125.861 183.542 130.375 183.542Z" fill="#08111F"/>
<path d="M111.961 192.841C111.961 192.841 118.02 197.898 122.057 197.299C126.093 196.7 131.675 194.489 129.427 190.134C127.18 185.779 112.71 183.157 112.71 183.157L111.961 192.841Z" fill="white"/>
<path d="M121.364 197.777C121.617 197.777 121.871 197.758 122.122 197.72C125.147 197.271 128.8 195.978 129.97 193.684C130.259 193.096 130.396 192.445 130.369 191.79C130.341 191.136 130.149 190.499 129.811 189.938C127.489 185.424 113.384 182.848 112.785 182.736C112.726 182.725 112.665 182.728 112.607 182.742C112.549 182.757 112.495 182.783 112.448 182.82C112.4 182.857 112.361 182.904 112.332 182.957C112.303 183.01 112.285 183.069 112.279 183.129L111.53 192.804C111.525 192.872 111.535 192.94 111.561 193.004C111.587 193.067 111.628 193.124 111.68 193.169C111.923 193.365 117.252 197.777 121.364 197.777ZM113.094 183.672C115.576 184.159 127.142 186.622 129.015 190.331C129.291 190.771 129.452 191.275 129.481 191.794C129.511 192.313 129.408 192.831 129.184 193.3C128.154 195.295 124.782 196.456 121.963 196.878C118.526 197.393 113.365 193.44 112.373 192.654L113.094 183.672Z" fill="#08111F"/>
<path d="M39.1741 150.359C39.1741 150.359 45.5614 175.271 68.8722 180.029C92.183 184.786 104.246 183.531 112.506 167.797C120.767 152.063 115.316 142.435 115.316 142.435L41.7496 140.974L39.1741 150.359Z" fill="#08111F"/>
<path d="M88.0987 182.942C99.3374 182.942 107.139 179.027 112.927 168.013C121.206 152.232 115.933 142.604 115.736 142.201C115.696 142.131 115.637 142.072 115.566 142.031C115.496 141.99 115.415 141.968 115.334 141.967L41.7674 140.506C41.6614 140.501 41.5567 140.533 41.4713 140.596C41.3859 140.659 41.3251 140.75 41.2992 140.853L38.7517 150.218C38.733 150.298 38.733 150.382 38.7517 150.462C38.8173 150.715 45.4762 175.749 68.8151 180.478C76.1858 182.005 82.5637 182.942 88.0987 182.942ZM115.006 142.895C115.736 144.44 119.426 153.599 112.093 167.582C103.711 183.503 91.4891 184.178 69.0118 179.57C47.0683 175.093 40.2221 152.194 39.707 150.359L42.1327 141.452L115.006 142.895Z" fill="#08111F"/>
<path d="M108.179 61.0399L108.179 61.0399C107.883 61.0066 107.52 60.9628 107.096 60.9117C103.557 60.4849 95.7669 59.5452 87.4343 59.9466C78.0678 60.3979 68.2014 62.5382 62.8649 68.8181C60.1751 71.9834 56.9375 78.1188 53.5839 85.6044C50.2385 93.0716 46.8019 101.826 43.7054 110.183C40.6094 118.539 37.8555 126.493 35.8756 132.359C34.8857 135.291 34.0893 137.701 33.5405 139.378C33.2661 140.217 33.0536 140.872 32.9097 141.317C32.8995 141.348 32.8897 141.379 32.8802 141.408L120.444 150.045C120.449 150.029 120.454 150.012 120.459 149.995C120.547 149.705 120.675 149.276 120.838 148.721C121.164 147.61 121.628 145.996 122.179 143.982C123.283 139.954 124.738 134.329 126.144 127.943C128.958 115.157 131.561 99.3718 130.775 87.239C129.986 75.0672 127.334 68.9207 123.478 65.6147C119.627 62.3126 114.476 61.74 108.292 61.0525L108.179 61.0399Z" stroke="black"/>
<path d="M77.2998 60.6084L79.1729 73.6452C79.1729 73.6452 83.275 80.3791 91.4885 76.97C99.7021 73.5609 99.8613 67.2767 99.8613 67.2767L95.9653 43.1885C95.9653 43.1885 87.3021 35.4151 83.659 20.5614C83.659 20.5614 76.4007 33.2236 65.8644 36.0707C65.8644 36.0707 66.5669 46.5882 68.4493 53.1066C70.3225 59.4096 77.1687 60.5335 77.2998 60.6084Z" fill="white"/>
<path d="M87.0902 78.3942C88.6831 78.375 90.2562 78.0374 91.7168 77.4014C100.146 73.9175 100.371 67.5583 100.38 67.2867L96.4557 43.1142C96.4367 43.0071 96.3842 42.9087 96.3059 42.8333C96.2216 42.7583 87.7083 34.985 84.1307 20.4496C84.105 20.3604 84.0543 20.2803 83.9846 20.2189C83.9149 20.1575 83.8291 20.1174 83.7373 20.1031C83.6458 20.0902 83.5525 20.1046 83.4692 20.1446C83.3858 20.1846 83.3162 20.2484 83.2691 20.3279C83.1941 20.459 75.9733 32.859 65.7743 35.6124C65.6688 35.6405 65.5764 35.7045 65.5132 35.7935C65.4499 35.8824 65.4197 35.9906 65.4277 36.0994C65.4277 36.2025 66.1582 46.7481 68.0313 53.2384C69.5766 58.5861 74.5872 60.4217 76.8724 60.9837L78.7455 73.7114C78.7542 73.7735 78.7732 73.8336 78.8017 73.8894C79.7246 75.2461 80.9583 76.3627 82.4 77.1462C83.8417 77.9298 85.4497 78.3577 87.0902 78.3942ZM95.5192 43.4139L99.3965 67.3522C99.3965 67.5021 99.1155 73.29 91.3047 76.5398C84.0089 79.5649 80.066 74.1797 79.6165 73.4773L77.7434 60.5435C77.7347 60.4725 77.7088 60.4047 77.668 60.3459C77.6272 60.2872 77.5727 60.2393 77.5093 60.2063C77.423 60.1563 77.3274 60.1244 77.2283 60.1127C75.2147 59.635 70.3634 57.9773 68.9211 52.9761C67.2727 47.2725 66.5235 38.3565 66.383 36.4179C75.1866 33.833 81.5739 24.7578 83.4845 21.7515C87.0434 34.9381 94.5077 42.3837 95.5192 43.4139Z" fill="#08111F"/>
<path d="M90.9182 43.5544C91.0233 42.336 91.5231 41.1851 92.3417 40.2765C93.1376 39.4602 94.0693 38.7884 95.0952 38.291C95.6272 37.962 96.2252 37.7542 96.8465 37.6823C97.2862 37.6866 97.7212 37.7723 98.1296 37.9351C99.1268 38.2532 99.9773 38.9176 100.527 39.8082C100.889 40.5638 101.06 41.3969 101.024 42.2339C101.061 43.1398 100.979 44.0466 100.78 44.9312C100.56 45.8144 100.166 46.6449 99.6208 47.3738C99.0757 48.1027 98.3905 48.7155 97.6054 49.176C96.8203 49.6366 95.9511 49.9358 95.0488 50.056C94.1466 50.1763 93.2294 50.1151 92.3511 49.8762" fill="white"/>
<path d="M94.13 50.5411C95.7598 50.5426 97.3433 49.9998 98.6294 48.9987C99.9155 47.9977 100.83 46.5958 101.229 45.0155C101.446 44.0956 101.534 43.15 101.491 42.2058C101.524 41.2936 101.335 40.3871 100.939 39.5647C100.342 38.5856 99.4154 37.8517 98.3257 37.495C97.8597 37.3138 97.3647 37.2186 96.8647 37.214C96.1709 37.2871 95.5021 37.5142 94.9073 37.8789C93.8366 38.4016 92.8639 39.105 92.0321 39.9581C91.1438 40.9448 90.6013 42.1942 90.4868 43.517C90.4789 43.6407 90.5195 43.7627 90.5999 43.857C90.6803 43.9514 90.7942 44.0108 90.9176 44.0227C91.0408 44.0283 91.1615 43.9869 91.2553 43.9069C91.3492 43.827 91.4092 43.7144 91.4233 43.5919C91.5153 42.4776 91.9654 41.4229 92.7064 40.5856C93.4677 39.8125 94.3583 39.1785 95.3381 38.7125C95.8053 38.413 96.3331 38.2211 96.8835 38.1505C97.2629 38.1537 97.6381 38.23 97.9886 38.3753C98.8732 38.6484 99.6349 39.2214 100.143 39.9955C100.461 40.6873 100.608 41.4452 100.573 42.2058C100.618 43.0711 100.54 43.9383 100.339 44.7813C100.133 45.6012 99.7663 46.3719 99.2598 47.0486C98.7532 47.7254 98.1172 48.2947 97.3886 48.7235C96.6601 49.1522 95.8536 49.4319 95.016 49.5461C94.1785 49.6604 93.3265 49.6071 92.5097 49.3892C92.3905 49.3576 92.2637 49.3743 92.1567 49.4357C92.0498 49.497 91.9713 49.5981 91.9384 49.717C91.923 49.7766 91.9194 49.8387 91.928 49.8998C91.9366 49.9608 91.9571 50.0195 91.9884 50.0726C92.0198 50.1257 92.0612 50.1721 92.1105 50.2091C92.1598 50.2461 92.2159 50.273 92.2756 50.2883C92.8796 50.4551 93.5033 50.5402 94.13 50.5411Z" fill="#08111F"/>
<path d="M79.1462 39.8363C79.1462 39.8363 75.4655 47.0946 76.6737 48.1342C77.8818 49.1737 80.7852 48.0311 80.7852 48.0311" fill="white"/>
<path d="M78.1809 49.0419C79.1431 49.0123 80.0932 48.8191 80.9906 48.4706C81.0478 48.4479 81.1 48.4142 81.1441 48.3713C81.1883 48.3284 81.2236 48.2772 81.2479 48.2206C81.2723 48.1641 81.2853 48.1033 81.2861 48.0418C81.2869 47.9802 81.2756 47.9191 81.2528 47.8619C81.205 47.7479 81.1148 47.6569 81.0013 47.608C80.8878 47.5591 80.7597 47.5561 80.644 47.5997C79.9604 47.8619 77.8344 48.4706 77.0196 47.7776C76.5232 47.3655 77.7595 43.6755 79.5951 40.0417C79.6239 39.9872 79.6414 39.9274 79.6466 39.866C79.6518 39.8046 79.6446 39.7427 79.6253 39.6842C79.6061 39.6256 79.5753 39.5715 79.5347 39.5251C79.4941 39.4787 79.4446 39.441 79.3891 39.4142C79.2781 39.3611 79.1509 39.3529 79.034 39.3913C78.9171 39.4297 78.8195 39.5117 78.7616 39.6202C77.6096 41.9054 75.0622 47.3374 76.4015 48.4894C76.9145 48.8706 77.5422 49.0655 78.1809 49.0419Z" fill="#08111F"/>
<path d="M83.7188 38.1957C83.6482 37.3296 84.0925 36.5866 84.7111 36.5362C85.3297 36.4858 85.8885 37.147 85.9591 38.0131C86.0297 38.8792 85.5854 39.6222 84.9668 39.6726C84.3481 39.723 83.7894 39.0618 83.7188 38.1957Z" fill="#08111F"/>
<path d="M72.1162 39.7985C72.0517 38.9319 72.5011 38.192 73.1201 38.1459C73.7391 38.0998 74.2932 38.7649 74.3577 39.6315C74.4223 40.4981 73.9728 41.2379 73.3538 41.284C72.7349 41.3302 72.1808 40.665 72.1162 39.7985Z" fill="#08111F"/>
<path d="M80.1014 54.8496C81.5334 54.8748 82.9504 54.5535 84.2316 53.9131C86.4699 52.7424 87.9029 50.504 88.4929 47.2636C88.5036 47.2027 88.5022 47.1402 88.4887 47.0799C88.4751 47.0195 88.4498 46.9624 88.4141 46.9119C88.3784 46.8614 88.3331 46.8185 88.2807 46.7856C88.2283 46.7527 88.1699 46.7306 88.1089 46.7204C87.9875 46.7009 87.8634 46.729 87.7622 46.7988C87.661 46.8686 87.5907 46.9747 87.5657 47.095C87.0412 50.0358 85.7675 52.0494 83.8195 53.0796C79.886 55.14 74.3509 52.6487 74.2947 52.6207C74.1817 52.57 74.0532 52.5662 73.9373 52.61C73.8215 52.6539 73.7277 52.7419 73.6766 52.8548C73.6502 52.9106 73.6354 52.9711 73.6329 53.0327C73.6304 53.0944 73.6404 53.1559 73.6623 53.2136C73.6841 53.2713 73.7174 53.324 73.7601 53.3686C73.8028 53.4131 73.854 53.4486 73.9107 53.4729C75.8667 54.3251 77.9686 54.7925 80.1014 54.8496Z" fill="#08111F"/>
<path d="M77.2996 60.6091C77.2996 60.6091 85.7286 61.3022 90.0742 57.8744C90.0742 57.8744 86.3748 69.5813 78.6014 69.5438L77.2996 60.6091Z" fill="#08111F"/>
<path d="M78.6581 70.0117C86.6563 70.0117 90.3838 58.5014 90.543 58.0144C90.5706 57.9184 90.5673 57.8161 90.5337 57.7221C90.5001 57.628 90.4378 57.5468 90.3557 57.4899C90.2767 57.4284 90.1795 57.395 90.0794 57.395C89.9793 57.395 89.8821 57.4284 89.8031 57.4899C85.6167 60.7585 77.4406 60.131 77.3563 60.1217C77.2866 60.1168 77.2166 60.1275 77.1516 60.1532C77.0866 60.1788 77.0281 60.2187 76.9805 60.2699C76.9329 60.3211 76.8974 60.3823 76.8765 60.449C76.8557 60.5157 76.85 60.5863 76.86 60.6555L78.1618 69.5996C78.1818 69.7161 78.2429 69.8217 78.3339 69.8973C78.4249 69.9728 78.5399 70.0134 78.6581 70.0117ZM89.1475 59.054C87.9581 61.9854 84.5865 68.7754 79.0234 69.0657L77.8714 61.1144C79.6696 61.1893 85.214 61.2455 89.1288 59.054H89.1475Z" fill="#08111F"/>
<path d="M141.315 140.573L141.315 140.573C141.809 140.208 142.253 139.599 142.628 138.726C143.002 137.855 143.294 136.753 143.503 135.442C143.921 132.821 143.995 129.429 143.763 125.531C143.3 117.739 141.622 108.007 139.107 98.5504C136.592 89.0911 133.249 79.941 129.47 73.3022C127.58 69.981 125.597 67.3154 123.575 65.5518C121.565 63.798 119.567 62.9769 117.608 63.2093C117.589 63.2145 117.559 63.2222 117.521 63.2325C117.442 63.2537 117.326 63.2855 117.176 63.3278C116.876 63.4124 116.444 63.5385 115.917 63.7041C114.862 64.0356 113.43 64.5241 111.919 65.1525C110.405 65.7816 108.825 66.5462 107.467 67.4273C106.101 68.3135 105.003 69.2904 104.405 70.3279C104.301 70.5086 104.227 70.8007 104.22 71.2391C104.214 71.6716 104.274 72.2058 104.4 72.8372C104.651 74.1001 105.154 75.6895 105.839 77.5156C107.207 81.1653 109.274 85.6847 111.413 90.2903C111.681 90.866 111.949 91.443 112.218 92.0197C114.093 96.048 115.962 100.062 117.392 103.515C118.21 105.488 118.89 107.289 119.347 108.812C119.799 110.318 120.053 111.613 119.97 112.548C119.876 113.604 119.155 114.425 118.15 115.059C117.143 115.694 115.769 116.196 114.186 116.597C111.015 117.401 106.866 117.834 102.767 118.057C98.6603 118.281 94.5755 118.296 91.5193 118.255C89.9907 118.235 88.7182 118.2 87.8274 118.171C87.4117 118.157 87.0791 118.145 86.8424 118.135L82.5445 136.661C82.5669 136.668 82.59 136.675 82.6141 136.683C82.945 136.789 83.433 136.943 84.0598 137.135C85.3133 137.519 87.1215 138.056 89.3378 138.667C93.7711 139.888 99.8328 141.403 106.351 142.578C112.872 143.753 119.832 144.585 126.068 144.449C132.323 144.312 137.762 143.202 141.315 140.573Z" stroke="black"/>
<path d="M57.1188 118.16C57.2221 118.163 57.3227 118.127 57.4007 118.059C57.4788 117.992 57.5286 117.897 57.5403 117.794C59.7693 102.135 64.6581 75.9118 66.2409 74.3758C66.3179 74.2953 66.3607 74.188 66.3603 74.0765C66.36 73.9651 66.3164 73.8581 66.2388 73.7781C66.1612 73.6981 66.0556 73.6513 65.9443 73.6475C65.8329 73.6437 65.7244 73.6832 65.6415 73.7577C63.6092 75.7338 58.3832 105.816 56.6974 117.673C56.6814 117.786 56.7108 117.9 56.7793 117.992C56.8478 118.083 56.9497 118.143 57.0627 118.16H57.1188Z" fill="#08111F"/>
<path d="M73.6671 155.21L103.524 146.847L48.6892 136.535L19.0098 148.973L73.6671 155.21Z" fill="white"/>
<path d="M73.6679 155.707C73.708 155.716 73.7496 155.716 73.7896 155.707L103.647 147.278C103.771 147.278 103.89 147.228 103.978 147.141C104.066 147.053 104.115 146.934 104.115 146.809C104.115 146.685 104.066 146.566 103.978 146.478C103.89 146.391 103.771 146.341 103.647 146.341L48.8118 136.039C48.7266 136.011 48.6347 136.011 48.5495 136.039L18.8702 148.477C18.7752 148.517 18.6962 148.587 18.6454 148.677C18.5946 148.767 18.5748 148.871 18.5892 148.973C18.6032 149.076 18.6513 149.172 18.726 149.245C18.8006 149.318 18.8975 149.364 19.0013 149.376L73.6117 155.707H73.6679ZM101.465 146.969L73.6304 154.77L20.8463 148.748L48.7462 137.06L101.465 146.969Z" fill="#08111F"/>
<path d="M91.2839 124.314C84.728 125.035 78.6498 125.503 72.5528 128.06C69.0688 129.523 65.7786 131.411 62.7565 133.679C61.2166 134.772 59.7779 136.001 58.4577 137.351C57.4088 138.493 57.7459 139.608 59.5067 139.055C61.5541 138.414 63.4928 137.467 65.2571 136.246C61.0386 139.687 57.2998 143.678 54.1402 148.112C53.7843 148.617 53.4378 149.339 53.8593 149.788C54.2807 150.238 55.2173 149.788 55.7324 149.32L64.9949 140.535C62.5428 142.65 60.4574 145.157 58.823 147.952C58.5888 148.355 58.3641 148.889 58.6076 149.254C59.0197 149.938 60.0686 149.423 60.6305 148.852C63.405 146.05 65.9278 143.01 68.1698 139.767L63.1686 147.259C63.2159 147.398 63.2902 147.525 63.3871 147.634C63.484 147.744 63.6016 147.833 63.7331 147.896C63.8646 147.96 64.0074 147.997 64.1532 148.005C64.2991 148.013 64.4451 147.992 64.5828 147.943C65.1336 147.716 65.6103 147.34 65.9595 146.857L72.019 139.898L68.4414 144.824C67.8794 145.592 67.3175 146.697 67.9637 147.419C68.61 148.14 70.071 147.419 70.8952 146.688C74.2102 143.663 77.8507 141.015 81.7498 138.793C83.164 137.959 84.3722 136.826 85.9362 136.349C88.1839 135.656 90.9936 135.749 93.335 135.487" fill="white"/>
<path d="M54.308 150.424C54.9338 150.354 55.516 150.069 55.9564 149.619L58.9533 146.809C58.7567 147.118 58.56 147.437 58.382 147.746C58.1924 147.99 58.0723 148.281 58.0344 148.587C57.9965 148.894 58.0422 149.205 58.1666 149.488C58.2505 149.632 58.3671 149.755 58.507 149.846C58.6469 149.937 58.8061 149.994 58.9721 150.012C59.3263 150.008 59.6757 149.93 59.9981 149.783C60.3206 149.636 60.609 149.424 60.8452 149.16C61.4633 148.542 62.0627 147.914 62.6527 147.287C62.6485 147.321 62.6485 147.356 62.6527 147.39C62.6882 147.563 62.76 147.727 62.8633 147.871C62.9666 148.015 63.0991 148.135 63.2521 148.224C63.4543 148.344 63.6791 148.423 63.9127 148.453C64.1462 148.484 64.3836 148.466 64.6101 148.401C65.2402 148.154 65.7862 147.732 66.1835 147.184L67.2887 145.92C67.1508 146.225 67.1022 146.563 67.1486 146.894C67.195 147.226 67.3345 147.537 67.5509 147.793C67.6858 147.944 67.85 148.066 68.0336 148.151C68.2172 148.236 68.4162 148.283 68.6186 148.289C69.5966 148.182 70.5022 147.723 71.166 146.997C74.4485 143.988 78.0617 141.361 81.9363 139.167C82.414 138.886 82.8729 138.568 83.3224 138.23C84.1406 137.592 85.054 137.087 86.0291 136.732C87.6621 136.319 89.3368 136.093 91.0209 136.058C91.8263 136.011 92.613 135.964 93.3529 135.889C93.4658 135.875 93.5685 135.817 93.6386 135.727C93.7088 135.638 93.7408 135.524 93.7275 135.411C93.7217 135.356 93.705 135.302 93.6782 135.253C93.6514 135.204 93.6152 135.161 93.5717 135.126C93.5281 135.091 93.4781 135.066 93.4244 135.05C93.3708 135.035 93.3147 135.03 93.2593 135.037C92.5288 135.112 91.7608 135.159 90.9741 135.205C89.2202 135.239 87.4761 135.475 85.7762 135.908C84.7205 136.294 83.7291 136.837 82.8354 137.519C82.4046 137.828 81.9644 138.127 81.5055 138.399C77.5778 140.631 73.9118 143.295 70.5759 146.341C70.0693 146.856 69.4145 147.2 68.7028 147.324C68.6158 147.321 68.5302 147.301 68.4514 147.264C68.3725 147.227 68.302 147.174 68.2439 147.109C67.7382 146.556 68.4312 145.479 68.7497 145.039L72.3273 140.122C72.3608 140.079 72.3854 140.03 72.3997 139.978C72.4141 139.925 72.4179 139.87 72.4109 139.816C72.4039 139.762 72.3863 139.71 72.3591 139.663C72.3319 139.616 72.2956 139.575 72.2524 139.542C72.1736 139.464 72.0677 139.421 71.9574 139.421C71.8471 139.421 71.7411 139.464 71.6624 139.542L65.5935 146.5C65.2974 146.915 64.8921 147.239 64.4228 147.437C64.312 147.468 64.196 147.476 64.0818 147.462C63.9676 147.448 63.8574 147.41 63.7578 147.353C63.6981 147.321 63.6467 147.276 63.608 147.221L68.4874 139.888C68.5508 139.795 68.5745 139.681 68.5534 139.57C68.5324 139.459 68.4682 139.362 68.3751 139.298C68.2819 139.235 68.1674 139.211 68.0568 139.232C67.9461 139.253 67.8484 139.317 67.785 139.411C65.5531 142.631 63.0463 145.652 60.2926 148.439C59.9876 148.774 59.5718 148.987 59.1219 149.038C59.0849 149.037 59.0488 149.026 59.0175 149.007C58.9862 148.987 58.9608 148.959 58.944 148.926C58.8409 148.767 58.944 148.467 59.1594 148.055C60.2868 146.125 61.6351 144.334 63.1772 142.717L65.2657 140.731C65.3333 140.651 65.3692 140.549 65.3667 140.444C65.3642 140.339 65.3235 140.238 65.2522 140.161C65.1809 140.084 65.084 140.036 64.9795 140.025C64.8751 140.015 64.7704 140.042 64.685 140.104C63.9452 140.74 63.2427 141.405 62.5684 142.108L55.4132 148.898C55.1351 149.214 54.753 149.42 54.3361 149.479C54.2982 149.48 54.2605 149.472 54.2262 149.456C54.192 149.44 54.1622 149.415 54.1395 149.385C53.924 149.16 54.1394 148.654 54.4485 148.242C57.5849 143.841 61.2952 139.879 65.4811 136.46C65.5578 136.388 65.6049 136.289 65.6137 136.184C65.6224 136.078 65.5921 135.973 65.5284 135.889C65.4648 135.804 65.3723 135.746 65.2686 135.726C65.1649 135.705 65.0572 135.723 64.966 135.777C63.244 136.975 61.3491 137.904 59.3467 138.53C58.6911 138.736 58.3446 138.652 58.279 138.53C58.2135 138.408 58.279 137.996 58.7379 137.509C60.0375 136.176 61.4578 134.966 62.9805 133.894C65.9729 131.649 69.232 129.784 72.6832 128.34C78.1808 126.046 83.6783 125.456 89.5411 124.828L91.3674 124.622C91.4229 124.617 91.4767 124.6 91.5256 124.573C91.5746 124.546 91.6177 124.51 91.6526 124.467C91.6874 124.423 91.7133 124.373 91.7286 124.319C91.744 124.266 91.7486 124.21 91.7421 124.154C91.7362 124.099 91.7195 124.045 91.6927 123.996C91.6659 123.947 91.6297 123.904 91.5862 123.869C91.5426 123.834 91.4926 123.808 91.4389 123.793C91.3853 123.778 91.3292 123.773 91.2738 123.779L89.4007 123.976C83.5098 124.613 77.956 125.212 72.346 127.554C68.8296 129.01 65.5075 130.898 62.456 133.173C60.8905 134.287 59.4297 135.541 58.0917 136.919C57.4174 137.65 57.2113 138.446 57.5485 138.98C57.7452 139.279 58.2696 139.729 59.5902 139.317C60.3523 139.084 61.0997 138.806 61.8285 138.483C58.8341 141.285 56.1266 144.379 53.7461 147.718C53.0999 148.654 53.0156 149.413 53.4932 149.937C53.5955 150.05 53.7196 150.141 53.8582 150.203C53.9967 150.266 54.1466 150.3 54.2987 150.303L54.308 150.424Z" fill="#08111F"/>
<path d="M19.0088 148.972L5.34447 112.4L61.1537 113.505L73.666 155.21L19.0088 148.972Z" fill="white"/>
<path d="M73.6675 155.707C73.7357 155.708 73.8032 155.693 73.8649 155.664C73.9265 155.635 73.9807 155.592 74.0234 155.538C74.0725 155.479 74.1066 155.409 74.1229 155.334C74.1392 155.26 74.1372 155.182 74.117 155.108L61.6047 113.403C61.5743 113.309 61.5159 113.226 61.4373 113.166C61.3586 113.105 61.2635 113.071 61.1645 113.066L5.35531 111.961C5.27879 111.959 5.20312 111.977 5.13466 112.011C5.06621 112.045 5.00697 112.095 4.96196 112.157C4.92117 112.22 4.89497 112.292 4.88525 112.366C4.87553 112.441 4.88254 112.517 4.90577 112.588L18.5701 149.114C18.6007 149.197 18.6536 149.269 18.7231 149.324C18.7925 149.378 18.8757 149.413 18.9634 149.423L73.6113 155.707H73.6675ZM60.7992 113.993L72.9744 154.696L19.31 148.57L5.99217 112.907L60.7992 113.993Z" fill="#08111F"/>
<path d="M21.9887 149.31C21.9887 149.31 6.84462 161.607 12.1642 172.883C17.4839 184.159 114.249 197.046 114.249 197.046L118.604 182.305C118.604 182.305 42.6959 143.531 21.9887 149.31Z" fill="#08111F"/>
<path d="M114.245 197.514C114.346 197.513 114.444 197.479 114.525 197.419C114.606 197.358 114.665 197.273 114.695 197.177L119.05 182.436C119.083 182.332 119.078 182.22 119.035 182.12C118.992 182.02 118.914 181.939 118.816 181.892C118.628 181.789 99.5882 172.096 78.2535 163.217C49.5481 151.276 30.5829 146.444 21.8917 148.86C21.8263 148.878 21.7656 148.91 21.7138 148.954C19.0711 151.199 16.7235 153.77 14.7271 156.605C10.55 162.618 9.53856 168.312 11.805 173.089C17.2183 184.458 110.227 196.98 114.18 197.505L114.245 197.514ZM118.048 182.529L113.908 196.503C107.146 195.566 17.6772 183.222 12.6479 172.667C7.70293 162.253 21.0769 150.668 22.2382 149.722C41.9246 144.468 112.372 179.72 117.991 182.548L118.048 182.529Z" fill="#08111F"/>
<path d="M123.615 143.663C123.615 143.663 48.475 174.044 29.8469 182.061L40.6735 198.788C40.6735 198.788 110.053 197.43 129.946 180.001C149.838 162.572 148.518 133.557 123.615 143.663Z" fill="#08111F"/>
<path d="M40.6711 199.276C40.8397 199.276 58.2689 198.91 77.8991 196.419C104.31 193.057 121.917 187.662 130.243 180.367C140.657 171.245 147.953 155.229 142.222 145.929C140.348 142.839 135.347 138.39 123.416 143.223C122.666 143.532 48.0605 173.708 29.6385 181.622C29.5757 181.647 29.5195 181.686 29.4741 181.737C29.4287 181.787 29.3953 181.847 29.3763 181.912C29.3575 181.978 29.3527 182.047 29.3624 182.115C29.3721 182.182 29.396 182.247 29.4324 182.305L40.259 199.06C40.303 199.129 40.3641 199.185 40.4364 199.223C40.5087 199.26 40.5896 199.279 40.6711 199.276ZM132.837 142.033C136.687 142.033 139.637 143.513 141.435 146.416C145.855 153.6 142.175 168.678 129.634 179.664C110.707 196.25 45.5974 198.217 40.924 198.33L30.5282 182.268C49.765 174.026 123.032 144.394 123.781 144.094C126.641 142.838 129.715 142.138 132.837 142.033Z" fill="#08111F"/>
<path d="M18.7198 134.372C18.6391 134.804 18.4525 135.21 18.1766 135.552L16.7156 137.734C16.769 137.509 16.8712 137.298 17.015 137.116C17.1588 136.934 17.3408 136.787 17.548 136.683C17.7553 136.579 17.9827 136.523 18.2143 136.516C18.4459 136.51 18.676 136.555 18.8884 136.648C19.3033 136.872 19.6481 137.207 19.8844 137.615C20.1208 138.024 20.2396 138.489 20.2277 138.961C20.1858 139.903 19.9632 140.828 19.5721 141.686C18.5325 144.384 16.1818 148.327 12.7821 146.285C10.4782 144.899 9.84132 140.01 9.51353 137.575C8.86731 132.78 10.3377 126.617 16.5002 127.554C16.3225 129.915 15.4417 132.169 13.9715 134.025C14.9736 133.051 19.0289 131.544 18.7198 134.372Z" fill="white"/>
<path d="M14.6624 147.278C15.0389 147.28 15.4129 147.217 15.7675 147.09C17.9872 146.332 19.3732 143.475 20.0007 141.836C20.4094 140.927 20.6414 139.948 20.6844 138.952C20.6997 138.398 20.5573 137.851 20.2737 137.375C19.9902 136.899 19.5772 136.514 19.0829 136.264C18.8535 136.159 18.6045 136.105 18.3524 136.105L18.5585 135.796C18.8782 135.393 19.0909 134.916 19.1766 134.409C19.2511 134.037 19.1995 133.651 19.0299 133.312C18.8602 132.973 18.5823 132.7 18.24 132.536C17.2797 132.24 16.2428 132.317 15.3367 132.752C16.2365 131.179 16.774 129.426 16.9101 127.619C16.9163 127.511 16.8824 127.405 16.8151 127.32C16.7477 127.236 16.6515 127.179 16.5449 127.16C15.6076 126.955 14.6345 126.981 13.7094 127.236C12.7844 127.49 11.935 127.966 11.2346 128.622C9.0337 130.794 8.66845 134.709 9.07116 137.659C9.43642 140.357 10.092 145.198 12.5458 146.678C13.1806 147.074 13.9144 147.282 14.6624 147.278ZM18.2962 136.976C18.4471 136.974 18.5969 137.002 18.7364 137.06C19.0772 137.251 19.3589 137.532 19.5506 137.872C19.7422 138.212 19.8364 138.599 19.8228 138.989C19.7859 139.877 19.5759 140.748 19.2047 141.555C18.7364 142.754 17.444 145.629 15.4585 146.304C15.0488 146.435 14.6145 146.47 14.1891 146.406C13.7637 146.343 13.3584 146.183 13.0047 145.938C10.8974 144.674 10.2606 139.916 9.95153 137.631C9.56754 134.821 9.8766 131.169 11.8246 129.202C12.3775 128.682 13.0425 128.296 13.7684 128.073C14.4943 127.851 15.2616 127.798 16.011 127.919C15.77 130.051 14.9361 132.072 13.6041 133.754C13.5356 133.838 13.5023 133.945 13.511 134.054C13.5197 134.162 13.5698 134.262 13.6509 134.334C13.7308 134.41 13.8363 134.451 13.9459 134.451C14.0555 134.451 14.1611 134.41 14.2409 134.334C14.8684 133.716 16.9382 132.836 17.8654 133.286C18.0714 133.379 18.3337 133.595 18.2681 134.325C18.1863 134.686 18.0265 135.025 17.7998 135.318L17.0131 136.479C16.8069 136.613 16.6328 136.791 16.5033 136.999C16.3738 137.208 16.292 137.443 16.2639 137.687C16.2539 137.783 16.2761 137.879 16.3271 137.96C16.378 138.042 16.4546 138.104 16.5449 138.137C16.6345 138.169 16.7323 138.17 16.8225 138.139C16.9126 138.109 16.9897 138.048 17.0412 137.968L17.6219 137.107C17.8314 137.005 18.0639 136.96 18.2962 136.976Z" fill="#08111F"/>
<path d="M39.8213 178.595C39.8803 178.604 39.9403 178.604 39.9992 178.595C41.6382 177.959 80.374 162.964 89.1027 157.617C89.2113 157.549 89.2888 157.441 89.3186 157.317C89.3484 157.192 89.3281 157.061 89.2619 156.952C89.2293 156.897 89.186 156.849 89.1347 156.812C89.0833 156.774 89.025 156.747 88.963 156.732C88.901 156.717 88.8367 156.715 88.7739 156.725C88.711 156.736 88.6509 156.759 88.597 156.793C79.9432 162.093 40.0554 177.537 39.6527 177.687C39.5324 177.733 39.4352 177.825 39.3826 177.943C39.3299 178.06 39.326 178.194 39.3717 178.315C39.4105 178.401 39.4739 178.473 39.5539 178.523C39.634 178.573 39.727 178.598 39.8213 178.595Z" fill="white"/>
<path d="M84.9985 117.439C76.4588 117.439 69.5359 110.885 69.5359 102.8C69.5359 94.7159 76.4588 88.1621 84.9985 88.1621C93.5381 88.1621 100.461 94.7159 100.461 102.8C100.461 110.885 93.5381 117.439 84.9985 117.439Z" fill="#0A1854"/>
<path d="M84.9985 117.899C93.7834 117.899 100.92 111.127 100.92 102.801C100.92 94.4755 93.774 87.6948 84.9985 87.6948C76.223 87.6948 69.0771 94.4755 69.0771 102.801C69.0771 111.127 76.2136 117.899 84.9985 117.899ZM84.9985 88.6314C93.2683 88.6314 99.9834 94.9906 99.9834 102.801C99.9834 110.612 93.2589 116.962 84.9985 116.962C76.7381 116.962 70.0137 110.612 70.0137 102.801C70.0137 94.9906 76.7288 88.6314 84.9985 88.6314Z" fill="#08111F"/>
<path d="M93.1571 107.558L96.9033 105.367V102.473L93.1571 100.281C91.9084 99.5631 90.6596 98.8326 89.4109 98.0896V101.592C90.0758 102.004 90.7408 102.407 91.4058 102.791C92.0707 103.175 92.7263 103.568 93.4006 103.99L91.4058 105.095L89.4109 106.21V109.75L93.1571 107.558Z" fill="white"/>
<path d="M88.3506 110.677L83.9394 93.894L81.6355 94.9336L86.0654 111.689L88.3506 110.677Z" fill="white"/>
<path d="M76.785 100.281L73.0388 102.473V105.367L76.785 107.558L80.5312 109.75V106.21L78.5364 105.095L76.5415 103.99C77.2065 103.568 77.8714 103.166 78.5364 102.791C79.2013 102.416 79.8569 102.004 80.5312 101.592V98.0896L76.785 100.281Z" fill="white"/>
<path d="M117.056 143.531C117.18 143.538 117.302 143.496 117.395 143.413C117.488 143.331 117.545 143.215 117.552 143.091C117.56 142.966 117.518 142.844 117.435 142.751C117.352 142.658 117.236 142.602 117.112 142.594L94.6348 139.869L91.0666 121.878L119.866 119.443C119.934 119.438 120.001 119.418 120.061 119.384C120.121 119.35 120.173 119.303 120.212 119.246C120.254 119.191 120.283 119.126 120.296 119.058C120.309 118.99 120.306 118.919 120.287 118.853L108.449 74.7784C108.417 74.6542 108.336 74.5479 108.226 74.4829C108.115 74.4179 107.983 74.3995 107.859 74.4318C107.735 74.4641 107.628 74.5444 107.563 74.6551C107.499 74.7657 107.48 74.8977 107.512 75.0219L119.21 118.562L90.4859 120.941C90.42 120.948 90.3563 120.968 90.2984 121.001C90.2405 121.033 90.1896 121.076 90.1487 121.128C90.1095 121.182 90.0818 121.242 90.0673 121.307C90.0528 121.371 90.0518 121.438 90.0644 121.503L93.8107 140.337C93.831 140.433 93.8806 140.521 93.9527 140.588C94.0248 140.655 94.1158 140.698 94.2134 140.712L117.056 143.475V143.531Z" fill="#08111F"/>
</svg>
