<svg width="150" height="87" viewBox="0 0 150 87" fill="none" xmlns="http://www.w3.org/2000/svg">
<g opacity="0.2">
<path d="M138.102 12.5228C138.461 12.369 138.769 12.0869 139.128 11.8561C142.693 9.39453 145.437 6.13803 148.489 3.1636C149.105 2.57384 149.669 1.70202 149.079 1.1379C148.515 0.599429 147.515 0.85585 146.771 1.52253C146.514 1.75331 146.258 2.00972 146.027 2.26613C144.617 4.11234 142.796 5.6252 140.898 7.75346C139.897 8.67656 138.512 9.933 137.179 11.2151C136.743 11.6254 136.307 12.1638 136.691 12.651C137.05 13.0613 137.64 12.7279 138.102 12.5228Z" fill="white"/>
<path d="M122.559 28.0618C122.918 27.9079 123.226 27.6258 123.585 27.3951C127.15 24.9335 129.894 21.677 132.946 18.7025C133.562 18.1128 134.126 17.241 133.536 16.6768C132.972 16.1384 131.972 16.3948 131.228 17.0615C130.972 17.2922 130.715 17.5487 130.484 17.8051C129.074 19.6513 127.253 21.1641 125.355 23.2924C124.354 24.2155 122.969 25.4719 121.636 26.754C121.2 27.1643 120.764 27.7028 121.148 28.19C121.507 28.6002 122.097 28.2669 122.559 28.0618Z" fill="white"/>
<path d="M137.461 17.6511C137.615 18.0101 137.897 18.3178 138.128 18.6767C140.59 22.2409 143.847 24.9846 146.822 28.036C147.412 28.6514 148.284 29.2155 148.849 28.6257C149.387 28.0616 149.131 27.0616 148.464 26.318C148.233 26.0615 147.977 25.8051 147.72 25.5744C145.873 24.1641 144.36 22.3435 142.231 20.446C141.308 19.446 140.051 18.0613 138.769 16.728C138.359 16.2921 137.82 15.8562 137.333 16.2408C136.922 16.5741 137.256 17.1895 137.461 17.6511Z" fill="white"/>
<path d="M121.92 2.11225C122.074 2.47123 122.356 2.77893 122.587 3.13791C125.049 6.70211 128.306 9.44577 131.281 12.4971C131.871 13.1125 132.743 13.6766 133.308 13.0869C133.846 12.5228 133.59 11.5227 132.923 10.7791C132.692 10.5227 132.436 10.2663 132.179 10.0355C130.332 8.62524 128.819 6.80468 126.69 4.9072C125.767 3.90717 124.51 2.52252 123.228 1.18915C122.818 0.75324 122.279 0.317335 121.792 0.70196C121.381 1.0353 121.715 1.6507 121.92 2.11225Z" fill="white"/>
</g>
<path opacity="0.3" d="M41.0678 57.2271C40.0987 54.5213 38.1605 51.7252 35.8589 49.6206C29.7718 43.788 19.8991 42.2848 12.1766 46.103C8.30016 47.937 5.02952 51.0036 2.87933 54.7016C0.729144 58.3996 -0.27031 62.7591 0.0628179 67.0283C0.607936 75.6569 6.90711 83.5039 15.2353 85.9993C23.5029 88.6751 33.1636 85.849 38.6148 79.1445C40.8256 76.4988 42.4004 72.9511 42.8244 70.0949C43.2484 67.2388 42.8243 65.2845 42.4004 65.3747C41.8855 65.4649 41.5827 67.1485 40.7953 69.5537C40.0079 71.9289 38.5542 74.9955 36.2223 77.6412C34.587 79.4752 32.6185 81.0386 30.4683 82.151C26.8948 84.1052 22.5944 84.7967 18.4454 84.1052C14.2965 83.4137 10.299 81.3091 7.42198 78.002C4.51469 74.7249 2.63707 70.3354 2.60678 65.6754C2.51593 61.0153 4.2118 56.1447 7.66422 52.4167C10.9046 48.869 16.5073 45.9828 22.7459 46.4037C28.9541 46.6141 35.3139 50.4324 38.4634 56.2049C39.4628 58.0088 40.1896 60.1434 40.6439 61.9172C41.0982 63.6911 41.2496 65.0741 41.6736 65.3447C41.9764 65.5551 42.2186 64.4126 42.1884 62.7591C42.1581 61.0754 41.6432 58.9408 41.0678 57.2271Z" fill="#F05537"/>
</svg>
