<svg width="139" height="79" viewBox="0 0 139 79" fill="none" xmlns="http://www.w3.org/2000/svg">
<g opacity="0.2">
<path d="M126.096 37.7321C125.794 31.3704 122.179 27.2018 116.521 24.2052C118.095 22.4473 120.053 21.3424 121.878 20.07C124.355 18.3457 126.464 16.3702 126.983 13.2229C127.167 12.1347 127.2 11.013 126.246 10.2764C125.51 10.4773 125.527 10.9795 125.527 11.3143C125.527 14.7631 123.652 17.0064 120.974 18.8312C118.999 20.1872 117.007 21.56 115.517 23.5522C114.496 23.4351 113.475 22.8491 112.404 23.3514C112.119 24.3223 112.99 24.4898 113.508 24.6739C119.601 26.8838 123.635 30.9351 125.108 37.3471C125.158 37.5814 125.359 37.7824 125.51 38C125.711 37.9163 125.895 37.8326 126.096 37.7321Z" fill="white"/>
<path d="M126.681 32.7767C129.543 30.1316 132.941 28.1896 135.335 24.8916C136.222 24.8916 137.394 25.6449 138.934 24.4897C136.272 23.6527 134.013 22.8491 132.155 21.0578C130.497 19.4674 129.727 16.7553 126.782 16.6213C128.673 19.6515 130.849 22.3971 133.979 24.406C131.401 27.1516 127.953 29.0601 126.681 32.7767Z" fill="white"/>
</g>
<g opacity="0.2">
<path fill-rule="evenodd" clip-rule="evenodd" d="M58.1914 35.008V70.8575C58.1914 71.483 57.0408 71.483 57.0408 70.8575V35.008C57.0408 34.3496 58.1914 34.3496 58.1914 35.008ZM16.9223 35.8639V70.1991C16.9223 70.8246 15.7716 70.8246 15.7716 70.1991V35.8639C15.7716 35.2384 16.9223 35.2384 16.9223 35.8639Z" fill="white"/>
<path fill-rule="evenodd" clip-rule="evenodd" d="M57.8845 71.0879C46.2248 80.6017 27.8147 80.5359 16.2701 70.9233C15.7332 70.4954 16.5386 69.7711 17.0756 70.232C28.1599 79.4825 45.8412 79.5483 57.0407 70.3966C57.616 69.9357 58.4214 70.627 57.8845 71.0879ZM57.2708 35.3371C57.5776 33.2961 54.2408 32.6377 52.5916 32.1768C50.7505 31.683 48.8712 31.288 46.9918 30.9588C42.8112 30.2016 38.5539 29.8395 34.2583 29.8066C27.9298 29.7737 19.9137 30.3662 16.3852 35.5676C16.0016 36.1272 15.0044 35.6334 15.388 35.0738C19.4152 29.1811 28.6202 28.6873 35.7157 28.8519C40.7017 28.9836 45.6494 29.5762 50.4821 30.6625C53.0518 31.2222 58.92 32.111 58.4598 35.3371C58.3063 35.9626 57.1557 35.9626 57.2708 35.3371Z" fill="white"/>
<path fill-rule="evenodd" clip-rule="evenodd" d="M49.7922 33.1972C51.3648 33.1643 53.2825 33.3289 54.1263 34.6457C54.855 35.7321 54.318 36.7855 53.2441 37.5097C51.6716 38.5632 49.4471 38.9253 47.5294 39.0899C44.7679 39.3532 41.968 39.3861 39.2065 39.3861C33.9136 39.4191 28.544 39.1228 23.4045 38.0694C22.1389 37.806 20.2211 37.411 20.1444 35.9954C20.0677 34.3165 22.5608 33.9873 23.7497 33.296C24.3634 32.9339 24.9387 33.7898 24.3251 34.1519C23.9032 34.3824 23.3279 34.514 22.9443 34.7445C22.0622 34.9749 21.9087 35.6662 22.5224 36.8184C22.9059 36.9172 23.2895 37.0159 23.7114 37.0818C25.0921 37.3451 26.5113 37.5756 27.9304 37.7402C31.1905 38.1352 34.4889 38.3327 37.7874 38.3327C40.8174 38.3656 43.8857 38.3327 46.9157 38.1023C48.4882 37.9706 50.1758 37.7402 51.6332 37.1476C52.5921 36.7197 53.4359 36.16 53.2058 35.1066C52.9757 34.0532 50.7511 34.1519 49.869 34.1519C49.0252 34.1848 49.0252 33.1972 49.7922 33.1972ZM44.8829 1.33098C47.0307 2.18689 51.0963 5.2155 48.68 7.42112C47.6444 8.37579 42.4666 9.5609 44.8446 11.6348C45.8418 12.4908 47.491 12.4908 48.4498 13.4784C49.1019 14.1697 49.2936 15.1243 48.4115 15.7169C47.8362 16.1119 46.9157 16.2107 46.2636 16.507C45.8034 16.7045 45.1514 17.0008 44.8829 17.3958C44.0775 18.548 44.5761 18.5151 45.4199 18.7784C46.2637 19.0418 47.3759 19.3051 47.5677 20.2269C47.6444 20.6219 47.491 21.017 47.2609 21.3462C47.1075 21.5437 46.9157 21.6754 46.7239 21.807C46.6088 21.9058 44.6528 23.2226 45.4199 23.1897C46.1486 23.1567 46.1486 24.1443 45.4199 24.1773C44.461 24.2102 43.809 23.4859 44.0008 22.6629C44.1158 22.2021 44.4994 21.9058 44.9213 21.6095C45.4199 21.2803 46.8006 20.9511 45.9568 19.9965C45.8034 19.8319 45.1897 19.7331 44.9596 19.6673C41.8529 18.6467 43.6556 16.507 45.9568 15.5194C46.954 15.0914 48.6416 14.5976 46.954 13.643C46.302 13.2808 45.5349 13.0833 44.8829 12.787C43.8857 12.3262 43.0419 11.6019 43.1953 10.5485C43.3487 9.29755 44.6911 8.24412 45.8801 7.65157C46.302 7.45405 46.8773 7.35528 47.2609 7.09193C48.6416 6.23601 48.1814 5.21551 47.5294 4.3596C46.7623 3.33908 45.5733 2.68068 44.3459 2.18688C43.6172 1.89061 44.1925 1.06762 44.8829 1.33098ZM35.8313 10.9435C37.2121 11.2069 38.3243 11.997 38.5545 13.2479C38.8229 14.6635 37.8641 15.3548 36.8285 16.2765C34.6807 18.153 37.1737 18.1859 37.9408 19.6014C38.0942 19.8977 38.1709 20.194 38.0942 20.5232C38.0175 20.984 37.7874 20.9182 37.634 21.3462C37.3271 22.1033 37.2888 22.7617 37.8641 23.4859C38.286 24.0126 37.2888 24.5064 36.8669 23.9797C36.0231 22.8934 35.9464 22.3337 36.3683 21.1816C36.7135 20.194 36.7902 19.8977 35.8313 19.2064C35.4861 18.9759 35.1409 18.7455 34.8725 18.4163C34.4122 17.8238 34.4506 17.1324 34.9108 16.5399C35.256 16.079 35.7546 15.8156 36.2149 15.4865C37.0203 14.8939 37.1737 14.7293 37.1737 13.7088C37.1737 12.7212 36.7135 12.1616 35.5245 11.9311C34.7957 11.7665 35.1026 10.8119 35.8313 10.9435ZM26.4729 1.36389C26.3195 1.16637 26.2044 0.935947 26.051 0.738429C25.7442 0.310473 26.3195 -0.150415 26.8564 0.047103C28.2755 0.705497 29.2344 1.92353 29.2728 3.33907C29.2728 4.06331 29.0426 4.68878 28.6207 5.31425C27.8153 6.43352 27.355 6.3677 28.1988 8.14536C28.3522 8.47456 28.6591 8.67208 28.8125 9.0342C29.4261 10.7789 26.8948 11.7665 27.1633 13.4784C27.4318 15.1573 28.9659 16.3095 28.3522 18.0871C28.1605 18.7126 27.0482 18.4492 27.24 17.8237C27.7769 16.1778 26.0126 14.828 25.9359 13.215C25.8592 11.7665 27.8153 10.746 27.6235 9.49506C27.4317 8.21119 25.8208 7.75033 26.5496 6.23602C26.9331 5.44595 27.7769 4.85338 28.0454 3.99747C28.3906 2.7136 27.5468 1.46266 26.2811 0.903027L27.0865 0.211701C27.24 0.40922 27.355 0.639666 27.5084 0.837184C27.8153 1.42974 26.8181 1.92353 26.4729 1.36389ZM15.8104 44.3899C11.6298 41.5259 5.26299 44.3241 6.03007 48.9987C6.3369 50.8422 7.83273 52.5869 9.40526 53.8379C10.3258 54.5621 11.438 55.1876 12.627 55.5497C13.0489 55.6814 15.8104 56.0435 15.8104 55.8131C15.772 55.1876 16.9227 55.1876 16.961 55.8131C17.0377 57.9529 11.8983 56.4386 10.8627 55.9448C8.06288 54.6609 5.33969 51.9944 4.87944 49.2291C3.88223 43.5011 11.6682 40.3079 16.6159 43.7315C17.1912 44.0937 16.3474 44.785 15.8104 44.3899Z" fill="white"/>
<path fill-rule="evenodd" clip-rule="evenodd" d="M15.8484 40.1761C12.5883 38.9252 8.79125 39.0898 5.68456 40.6041C2.04091 42.3817 0.775213 45.4433 1.31217 48.8669C2.30938 55.3192 8.86793 59.8621 16.347 59.7304C17.0757 59.7304 17.0757 60.718 16.347 60.718C7.71731 60.8826 0.314953 55.1217 0.00811958 47.616C-0.145296 44.0277 1.81077 41.1308 5.56948 39.4848C8.98301 38.0034 12.9335 37.9705 16.4237 39.2873C17.1141 39.5506 16.5005 40.4066 15.8484 40.1761Z" fill="white"/>
<path fill-rule="evenodd" clip-rule="evenodd" d="M53.8195 35.0736C53.0908 36.3245 52.0168 37.2463 50.4827 37.773C49.8306 38.0034 49.217 37.2134 49.9073 36.9171C50.8662 36.4891 51.5949 35.9624 52.2853 35.2711C52.7072 34.8431 53.5127 35.4028 53.2058 35.8637C50.9429 39.0569 46.5322 39.1556 42.62 38.991C41.8913 38.9581 41.8913 37.9705 42.62 38.0035C46.0719 38.1351 50.1758 38.201 52.2086 35.3369L53.1291 35.9295C52.4004 36.7196 51.5566 37.2792 50.521 37.7401C50.3293 37.4438 50.1375 37.1804 49.9457 36.8842C51.2881 36.3904 52.2086 35.6661 52.8606 34.514C53.1291 34.0202 54.1263 34.514 53.8195 35.0736ZM58.3836 70.7915C59.4959 71.6803 58.1152 73.1617 57.3097 73.853C55.5071 75.4002 52.899 76.4207 50.5594 77.2766C45.6117 79.0872 40.0887 79.6798 34.9492 78.0338C34.2588 77.8034 34.5657 76.8487 35.2561 77.0791C39.2449 78.363 43.5022 78.2642 47.5678 77.1779C49.4471 76.6841 51.2881 75.9599 53.0141 75.1698C53.551 74.9064 58.6138 72.3716 57.5398 71.5157C57.0412 71.0548 57.8467 70.3635 58.3836 70.7915Z" fill="white"/>
</g>
</svg>
