<svg width="190" height="184" viewBox="0 0 190 184" fill="none" xmlns="http://www.w3.org/2000/svg">
<path d="M15.2147 52.4784C15.534 52.3416 15.8078 52.0907 16.1272 51.8855C19.2981 49.696 21.739 46.7996 24.4537 44.1541C25.0012 43.6295 25.503 42.8541 24.9783 42.3523C24.4764 41.8734 23.5868 42.1015 22.9252 42.6944C22.6971 42.8997 22.469 43.1278 22.2637 43.3558C21.009 44.9979 19.3894 46.3435 17.7013 48.2364C16.8116 49.0575 15.5797 50.175 14.3935 51.3153C14.0056 51.6802 13.6178 52.1591 13.96 52.5925C14.2794 52.9574 14.804 52.6609 15.2147 52.4784Z" fill="#7DB5CD"/>
<path d="M1.38653 66.2987C1.70591 66.1619 1.97971 65.911 2.29908 65.7058C5.46998 63.5163 7.91088 60.6199 10.6255 57.9744C11.173 57.4498 11.6748 56.6744 11.1502 56.1727C10.6483 55.6937 9.75864 55.9218 9.09708 56.5147C8.86896 56.72 8.64082 56.9481 8.43551 57.1761C7.18083 58.8182 5.56116 60.1638 3.87306 62.0567C2.98338 62.8778 1.75156 63.9953 0.565327 65.1356C0.177519 65.5005 -0.210295 65.9794 0.131889 66.4128C0.45126 66.7777 0.975914 66.4812 1.38653 66.2987Z" fill="#7DB5CD"/>
<path d="M14.639 57.0386C14.7759 57.3578 15.0268 57.6315 15.2321 57.9508C17.4221 61.1209 20.3193 63.5612 22.9655 66.2752C23.4902 66.8225 24.2658 67.3243 24.7676 66.7997C25.2467 66.298 25.0186 65.4085 24.4255 64.7472C24.2202 64.5191 23.992 64.291 23.7639 64.0858C22.1214 62.8314 20.7755 61.2121 18.8821 59.5245C18.0609 58.635 16.9431 57.4035 15.8024 56.2175C15.4375 55.8298 14.9584 55.4421 14.525 55.7842C14.16 56.0807 14.4565 56.628 14.639 57.0386Z" fill="#7DB5CD"/>
<path d="M0.818688 43.2182C0.955561 43.5375 1.20652 43.8112 1.41183 44.1305C3.6018 47.3006 6.49899 49.7409 9.14521 52.4549C9.66989 53.0022 10.4455 53.504 10.9473 52.9794C11.4264 52.4777 11.1983 51.5882 10.6052 50.9268C10.3998 50.6988 10.1717 50.4707 9.94358 50.2655C8.3011 49.0111 6.95521 47.3918 5.0618 45.7042C4.24056 44.8147 3.12275 43.5831 1.98213 42.3972C1.61714 42.0095 1.13809 41.6218 0.704655 41.9639C0.339659 42.2604 0.63619 42.8077 0.818688 43.2182Z" fill="#7DB5CD"/>
<path d="M115.181 184C74.2132 184 41.0023 181.289 41.0023 177.945C41.0023 174.6 74.2132 171.889 115.181 171.889C156.149 171.889 189.359 174.6 189.359 177.945C189.359 181.289 156.149 184 115.181 184Z" fill="#FBBE40"/>
<path d="M136.755 40.8012C137.892 40.8776 139.027 40.6189 140.02 40.0571C141.012 39.4952 141.817 38.6548 142.337 37.6399C142.856 36.6249 143.067 35.4799 142.942 34.3466C142.818 33.2133 142.364 32.1413 141.636 31.2633C144.818 29.7973 146.501 26.0321 146.268 22.5418C146.034 19.0516 144.194 15.8778 141.894 13.1956C140.004 11.0048 137.629 9.0306 134.789 8.48915C134.251 8.43558 133.727 8.28901 133.24 8.05599C132.856 7.78616 132.523 7.45056 132.257 7.06472C130.182 4.41578 127.625 1.98343 124.426 0.917188C121.228 -0.14905 117.313 0.459037 115.172 3.06632C114.102 2.13731 112.775 1.55512 111.366 1.39679C109.958 1.23846 108.535 1.51145 107.285 2.17964C106.036 2.84783 105.018 3.87972 104.368 5.13876C103.718 6.39781 103.465 7.82466 103.643 9.23052C101.389 9.56324 99.2762 10.5278 97.5483 12.0124C95.8204 13.4971 94.5487 15.4409 93.8804 17.6188C92.6892 22.0004 94.7134 27.1483 98.7534 29.2225C99.2199 29.4641 99.778 29.7806 99.7613 30.2971C99.7154 30.6088 99.576 30.8992 99.3615 31.1301C98.062 32.9876 98.7118 35.6782 100.195 37.3609C101.677 39.0435 103.893 39.9349 106.026 40.7845C105.551 41.2602 105.235 41.8705 105.12 42.5324C105.005 43.1943 105.098 43.8754 105.384 44.483C106.002 45.6993 106.964 46.7073 108.15 47.3819C112.781 50.3723 118.512 49.4394 123.702 49.5477C128.491 49.6476 133.248 46.5905 136.422 43.1252C137.038 42.4672 137.53 41.2676 136.755 40.8012Z" fill="white"/>
<path d="M117.966 50.0208C118.799 50.0208 119.632 50.0208 120.398 50.0208C121.481 50.0208 122.614 49.9709 123.68 50.0208C128.029 50.0958 132.843 47.6551 136.725 43.4651C136.998 43.1912 137.213 42.8646 137.356 42.5052C137.499 42.1458 137.568 41.7611 137.558 41.3743C137.563 41.344 137.563 41.3131 137.558 41.2827C138.68 41.2288 139.766 40.8721 140.701 40.2504C141.635 39.6288 142.385 38.7654 142.868 37.7521C143.352 36.7388 143.552 35.6134 143.447 34.4955C143.342 33.3777 142.936 32.3091 142.273 31.4033C145.147 29.8206 146.938 26.2471 146.688 22.5152C146.48 19.3248 144.972 16.1011 142.215 12.9191C139.816 10.1535 137.416 8.57083 134.868 8.07936L134.584 8.02938C134.184 8.01363 133.793 7.89696 133.45 7.69018C133.106 7.48341 132.82 7.19322 132.618 6.84652C130.003 3.51452 127.379 1.46535 124.563 0.52406C121.09 -0.633809 117.283 0.174199 115.125 2.48161C113.99 1.60498 112.625 1.07617 111.195 0.959161C109.765 0.842153 108.332 1.14196 107.07 1.82231C105.807 2.50266 104.768 3.53439 104.079 4.79268C103.391 6.05098 103.081 7.48191 103.189 8.91236C100.938 9.31909 98.842 10.3358 97.1294 11.8516C95.4167 13.3675 94.1529 15.3243 93.4758 17.5089C92.2096 22.1654 94.4504 27.5049 98.5654 29.5957C98.9819 29.804 99.3568 30.0372 99.3484 30.2871C99.3071 30.46 99.2242 30.6201 99.1069 30.7536L99.0319 30.8619C97.5492 32.961 98.3905 35.9015 99.9315 37.6008C101.456 39.097 103.294 40.2352 105.313 40.9328C104.948 41.4786 104.728 42.108 104.672 42.7621C104.617 43.4162 104.728 44.0737 104.996 44.673C105.634 45.9572 106.64 47.0217 107.887 47.7301C110.977 49.7293 114.476 50.0208 117.966 50.0208ZM122.756 49.1212C121.964 49.1212 121.165 49.1212 120.382 49.1212C116.217 49.2045 111.927 49.2961 108.37 46.9971C107.249 46.3726 106.341 45.4268 105.763 44.2815C105.504 43.7508 105.417 43.1529 105.514 42.5707C105.611 41.9884 105.887 41.4509 106.304 41.0328C106.359 40.9865 106.4 40.9269 106.425 40.8598C106.45 40.7926 106.457 40.7203 106.446 40.6496C106.434 40.5779 106.404 40.5104 106.359 40.4535C106.314 40.3966 106.255 40.3523 106.187 40.3247C104.238 39.5417 102.022 38.6587 100.548 36.9927C99.2235 35.535 98.4821 33.036 99.715 31.2867L99.7899 31.1951C100.017 30.9332 100.157 30.6071 100.19 30.2621C100.19 29.4291 99.3984 29.0293 98.9569 28.8044C95.1751 26.8551 93.1259 21.9738 94.2921 17.6755C94.9511 15.5865 96.1851 13.7254 97.8528 12.3052C99.5205 10.885 101.554 9.96323 103.722 9.6454C103.829 9.6289 103.926 9.57081 103.992 9.48359C104.057 9.39637 104.086 9.28699 104.072 9.17892C103.908 7.85931 104.147 6.52105 104.757 5.3396C105.367 4.15815 106.32 3.18867 107.491 2.55825C108.662 1.92783 109.996 1.66591 111.318 1.80683C112.64 1.94774 113.889 2.48492 114.901 3.34792C114.942 3.38474 114.991 3.41261 115.044 3.4298C115.097 3.44699 115.153 3.45314 115.209 3.44788C115.264 3.44377 115.317 3.42833 115.366 3.40253C115.415 3.37673 115.458 3.34112 115.492 3.29794C117.366 1.01553 120.99 0.182529 124.288 1.29042C126.946 2.1734 129.445 4.13927 131.927 7.29634C132.221 7.72365 132.591 8.09349 133.018 8.38757C133.458 8.62168 133.939 8.76875 134.434 8.82073L134.701 8.87071C137.058 9.32886 139.307 10.8199 141.581 13.4355C144.214 16.476 145.647 19.5414 145.846 22.5402C146.088 26.1388 144.289 29.5541 141.457 30.8702C141.399 30.897 141.348 30.9363 141.308 30.9853C141.267 31.0343 141.239 31.0918 141.223 31.1534C141.21 31.2162 141.211 31.2811 141.227 31.3432C141.243 31.4054 141.273 31.463 141.315 31.5116C142.002 32.3234 142.433 33.3202 142.555 34.3766C142.677 35.433 142.483 36.5017 141.999 37.4484C141.514 38.395 140.76 39.1771 139.832 39.6964C138.904 40.2156 137.844 40.4487 136.783 40.3664C136.689 40.3567 136.593 40.3806 136.514 40.4338C136.435 40.4871 136.377 40.5664 136.35 40.6579C136.322 40.7473 136.325 40.8437 136.358 40.9314C136.391 41.019 136.453 41.0929 136.534 41.1411C136.585 41.1696 136.629 41.2104 136.661 41.2598C136.693 41.3092 136.712 41.3657 136.717 41.4243C136.703 41.9559 136.481 42.4611 136.1 42.8321C132.418 46.8471 127.77 49.1962 123.697 49.1129L122.756 49.1212Z" fill="#0A1854"/>
<path d="M77.2588 162.793C75.3512 162.793 61.1319 164.334 54.4763 167.641C47.8206 170.948 46.3795 171.206 47.729 175.671C49.0784 180.136 60.7987 181.236 69.7201 179.553C75.4662 178.372 81.0087 176.357 86.1719 173.572L77.2588 162.793Z" fill="white"/>
<path d="M61.309 180.743C64.1555 180.732 66.9947 180.453 69.789 179.91C75.5743 178.72 81.1555 176.694 86.3573 173.896C86.4056 173.867 86.4475 173.828 86.4805 173.782C86.5134 173.736 86.5367 173.684 86.5489 173.629C86.5586 173.575 86.5561 173.519 86.5417 173.466C86.5273 173.413 86.5013 173.363 86.4656 173.321L77.5525 162.542C77.5198 162.498 77.4771 162.462 77.4278 162.437C77.3786 162.413 77.3243 162.4 77.2693 162.4H77.186C74.8619 162.4 60.9758 163.983 54.3118 167.29L52.8124 168.031C47.4729 170.647 46.0318 171.363 47.3646 175.778C48.206 178.577 53.6871 180.743 61.309 180.743ZM85.5826 173.454C80.5667 176.102 75.202 178.029 69.6474 179.177C60.6926 180.843 49.3305 179.66 48.0893 175.562C46.9481 171.763 47.7728 171.355 53.1456 168.723L54.645 167.981C61.0008 164.824 74.5954 163.217 77.086 163.167L85.5826 173.454Z" fill="#0A1854"/>
<path d="M75.3555 162.75C74.0978 163.058 73.0031 163.83 72.2909 164.912C71.5787 165.993 71.3017 167.304 71.5154 168.581C72.1402 173.321 82.1611 173.521 82.7359 173.579C83.3107 173.637 75.3555 162.75 75.3555 162.75Z" fill="white"/>
<path d="M82.7392 173.846C82.8136 173.844 82.8862 173.823 82.9503 173.785C83.0144 173.747 83.0678 173.693 83.1057 173.629C83.2306 173.379 83.4306 172.996 75.667 162.492C75.6225 162.431 75.5604 162.385 75.4891 162.359C75.4177 162.334 75.3403 162.331 75.2672 162.351C75.2255 162.351 70.4774 163.542 71.1022 168.565C71.7353 173.388 80.8649 173.813 82.6892 173.846H82.7392ZM75.2422 163.159C77.6829 166.491 81.3148 171.489 82.2227 173.071C79.9403 172.963 72.435 172.322 71.9269 168.465C71.7312 167.336 71.9575 166.175 72.5627 165.203C73.168 164.23 74.1099 163.515 75.2089 163.192L75.2422 163.159Z" fill="#0A1854"/>
<path d="M149.622 173.605C149.913 173.755 152.637 177.295 164.516 178.711C176.394 180.127 180.801 182.684 183.45 176.445C186.099 170.206 184.283 166.174 178.452 164.392C172.621 162.609 156.469 161.135 153.304 164.117C150.138 167.099 149.622 173.605 149.622 173.605Z" fill="white"/>
<path d="M177.589 180.827C180.529 180.827 182.42 179.844 183.803 176.596C185.186 173.347 185.394 170.556 184.386 168.399C183.453 166.4 181.487 164.925 178.555 164.034C173.074 162.368 156.422 160.652 153.04 163.842C149.8 166.891 149.284 173.305 149.259 173.572C149.255 173.642 149.27 173.713 149.302 173.776C149.334 173.839 149.382 173.892 149.442 173.93L149.558 174.03C152.982 177.145 159.554 178.503 164.486 179.086C167.043 179.394 169.242 179.753 171.15 180.069C173.274 180.48 175.427 180.734 177.589 180.827ZM162.212 162.784C167.918 162.784 174.832 163.692 178.314 164.759C181.046 165.592 182.862 166.924 183.695 168.724C184.611 170.673 184.411 173.222 183.103 176.296C181.146 180.919 178.255 180.461 171.291 179.32C169.342 179.003 167.126 178.645 164.561 178.337C159.746 177.762 153.324 176.446 150.05 173.464C150.167 172.372 150.883 166.983 153.574 164.417C154.773 163.234 158.197 162.784 162.212 162.784Z" fill="#0A1854"/>
<path d="M145.834 171.055C145.834 171.055 151.223 175.553 154.813 175.02C158.404 174.487 163.368 172.521 161.369 168.647C159.37 164.774 146.5 162.441 146.5 162.441L145.834 171.055Z" fill="white"/>
<path d="M154.198 175.446C154.424 175.446 154.65 175.43 154.873 175.396C157.564 174.996 160.812 173.847 161.854 171.806C162.111 171.283 162.233 170.704 162.208 170.122C162.183 169.54 162.013 168.973 161.712 168.474C159.646 164.459 147.101 162.168 146.568 162.068C146.516 162.059 146.462 162.061 146.41 162.074C146.359 162.087 146.31 162.11 146.268 162.143C146.226 162.176 146.191 162.218 146.165 162.265C146.14 162.312 146.124 162.364 146.118 162.418L145.452 171.023C145.447 171.084 145.457 171.145 145.48 171.201C145.503 171.257 145.539 171.308 145.585 171.348C145.802 171.523 150.542 175.446 154.198 175.446ZM146.843 162.901C149.051 163.334 159.338 165.525 161.004 168.824C161.25 169.215 161.392 169.663 161.419 170.125C161.445 170.586 161.354 171.047 161.154 171.464C160.238 173.239 157.239 174.271 154.732 174.646C151.674 175.104 147.085 171.589 146.202 170.889L146.843 162.901Z" fill="#0A1854"/>
<path d="M81.0987 133.27C81.0987 133.27 86.7797 155.428 107.513 159.66C128.246 163.892 138.975 162.775 146.322 148.781C153.67 134.787 148.821 126.223 148.821 126.223L83.3894 124.924L81.0987 133.27Z" fill="#0A1854"/>
<path d="M124.614 162.252C134.61 162.252 141.549 158.77 146.697 148.974C154.061 134.937 149.371 126.374 149.196 126.016C149.16 125.953 149.108 125.901 149.045 125.864C148.982 125.828 148.911 125.808 148.838 125.808L83.4059 124.508C83.3115 124.504 83.2184 124.532 83.1425 124.588C83.0665 124.644 83.0124 124.725 82.9894 124.817L80.7236 133.147C80.7069 133.218 80.7069 133.292 80.7236 133.363C80.7819 133.588 86.7046 155.854 107.463 160.061C114.019 161.418 119.691 162.252 124.614 162.252ZM148.546 126.632C149.196 128.007 152.478 136.154 145.956 148.59C138.5 162.751 127.63 163.351 107.638 159.253C88.1207 155.271 82.0314 134.904 81.5733 133.271L83.7308 125.35L148.546 126.632Z" fill="#0A1854"/>
<path d="M142.466 53.883L142.466 53.8829C142.202 53.8534 141.879 53.8144 141.502 53.7689C138.354 53.3892 131.43 52.5541 124.024 52.9109C115.694 53.3122 106.941 55.2157 102.21 60.782C99.8238 63.5905 96.9469 69.0407 93.9639 75.6991C90.9892 82.3391 87.933 90.1238 85.1791 97.5567C82.4257 104.988 79.9765 112.062 78.2156 117.279C77.3352 119.887 76.6269 122.031 76.1388 123.522C75.8948 124.267 75.7058 124.85 75.5779 125.246C75.5761 125.251 75.5744 125.257 75.5727 125.262L153.341 132.933C153.341 132.932 153.342 132.932 153.342 132.932C153.419 132.674 153.534 132.292 153.678 131.798C153.968 130.811 154.38 129.375 154.871 127.585C155.853 124.003 157.146 119.001 158.396 113.322C160.899 101.95 163.213 87.9169 162.514 77.1339C161.813 66.3119 159.456 60.8645 156.044 57.939C152.631 55.0132 148.065 54.5055 142.555 53.8929L142.466 53.883Z" stroke="#0A1854"/>
<path d="M115.003 53.4432L116.669 65.0386C116.669 65.0386 120.318 71.0279 127.623 67.9957C134.929 64.9636 135.07 59.3742 135.07 59.3742L131.605 37.9495C131.605 37.9495 123.9 31.0356 120.659 17.8242C120.659 17.8242 114.204 29.0864 104.832 31.6187C104.832 31.6187 105.457 40.9733 107.132 46.7709C108.798 52.377 114.887 53.3766 115.003 53.4432Z" fill="white"/>
<path d="M123.711 69.264C125.128 69.2469 126.527 68.9467 127.826 68.381C135.323 65.2823 135.523 59.6262 135.531 59.3846L132.041 37.8849C132.024 37.7897 131.977 37.7022 131.908 37.635C131.833 37.5684 124.261 30.6545 121.079 17.7264C121.056 17.647 121.011 17.5758 120.949 17.5212C120.887 17.4666 120.81 17.4308 120.729 17.4182C120.647 17.4067 120.564 17.4195 120.49 17.4551C120.416 17.4907 120.354 17.5474 120.312 17.6181C120.246 17.7347 113.823 28.7636 104.752 31.2126C104.658 31.2376 104.576 31.2945 104.52 31.3736C104.463 31.4527 104.437 31.549 104.444 31.6458C104.444 31.7374 105.093 41.117 106.759 46.8897C108.134 51.6461 112.59 53.2788 114.623 53.7786L116.289 65.099C116.297 65.1542 116.314 65.2077 116.339 65.2573C117.16 66.464 118.257 67.4571 119.539 68.154C120.822 68.851 122.252 69.2315 123.711 69.264ZM131.208 38.1515L134.657 59.443C134.657 59.5762 134.407 64.7242 127.459 67.6147C120.97 70.3053 117.464 65.5155 117.064 64.8908L115.398 53.3871C115.39 53.3239 115.367 53.2636 115.331 53.2114C115.294 53.1591 115.246 53.1165 115.189 53.0872C115.113 53.0426 115.028 53.0143 114.94 53.0039C113.149 52.579 108.834 51.1046 107.551 46.6564C106.085 41.5835 105.418 33.6533 105.293 31.929C113.124 29.6299 118.805 21.5582 120.504 18.8842C123.669 30.6129 130.308 37.2352 131.208 38.1515Z" fill="#0A1854"/>
<path d="M127.114 38.2756C127.207 37.1919 127.652 36.1683 128.38 35.3601C129.088 34.6341 129.916 34.0366 130.829 33.5942C131.302 33.3016 131.834 33.1167 132.387 33.0527C132.778 33.0566 133.164 33.1328 133.528 33.2776C134.415 33.5605 135.171 34.1515 135.66 34.9436C135.982 35.6157 136.134 36.3566 136.102 37.1011C136.135 37.9068 136.062 38.7134 135.885 39.5001C135.689 40.2857 135.339 41.0244 134.854 41.6727C134.369 42.321 133.76 42.866 133.061 43.2757C132.363 43.6853 131.59 43.9514 130.788 44.0584C129.985 44.1653 129.169 44.1109 128.388 43.8984" fill="white"/>
<path d="M129.974 44.4903C131.424 44.4916 132.832 44.0088 133.976 43.1184C135.12 42.2281 135.934 40.9811 136.289 39.5756C136.482 38.7574 136.56 37.9164 136.522 37.0766C136.551 36.2653 136.382 35.459 136.03 34.7275C135.5 33.8567 134.675 33.2039 133.706 32.8866C133.292 32.7255 132.851 32.6409 132.407 32.6367C131.79 32.7017 131.195 32.9038 130.666 33.2281C129.713 33.693 128.848 34.3186 128.108 35.0774C127.318 35.9551 126.836 37.0663 126.734 38.2428C126.727 38.3528 126.763 38.4613 126.835 38.5452C126.906 38.6292 127.007 38.682 127.117 38.6926C127.227 38.6976 127.334 38.6608 127.418 38.5896C127.501 38.5185 127.554 38.4184 127.567 38.3094C127.649 37.3183 128.049 36.3803 128.708 35.6355C129.385 34.9479 130.178 34.3841 131.049 33.9695C131.464 33.7032 131.934 33.5325 132.423 33.4697C132.761 33.4725 133.095 33.5404 133.406 33.6696C134.193 33.9126 134.871 34.4222 135.322 35.1107C135.605 35.726 135.737 36.4001 135.705 37.0766C135.745 37.8462 135.675 38.6176 135.497 39.3673C135.314 40.0965 134.988 40.782 134.537 41.384C134.086 41.9859 133.521 42.4922 132.873 42.8736C132.225 43.2549 131.507 43.5037 130.762 43.6053C130.018 43.707 129.26 43.6595 128.533 43.4657C128.427 43.4376 128.314 43.4525 128.219 43.507C128.124 43.5616 128.054 43.6515 128.025 43.7573C128.011 43.8103 128.008 43.8656 128.016 43.9198C128.023 43.9741 128.042 44.0264 128.07 44.0736C128.097 44.1208 128.134 44.162 128.178 44.1949C128.222 44.2278 128.272 44.2518 128.325 44.2654C128.862 44.4138 129.417 44.4894 129.974 44.4903Z" fill="#0A1854"/>
<path d="M116.652 34.9688C116.652 34.9688 113.378 41.4245 114.453 42.3491C115.527 43.2737 118.109 42.2575 118.109 42.2575" fill="white"/>
<path d="M115.785 43.1556C116.641 43.1292 117.486 42.9574 118.284 42.6475C118.335 42.6273 118.381 42.5972 118.421 42.5591C118.46 42.5209 118.491 42.4754 118.513 42.4251C118.535 42.3748 118.546 42.3207 118.547 42.266C118.548 42.2112 118.538 42.1569 118.517 42.106C118.475 42.0046 118.395 41.9237 118.294 41.8802C118.193 41.8367 118.079 41.834 117.976 41.8728C117.368 42.106 115.477 42.6475 114.752 42.031C114.311 41.6645 115.41 38.3825 117.043 35.1505C117.068 35.102 117.084 35.0488 117.089 34.9942C117.093 34.9396 117.087 34.8846 117.07 34.8325C117.053 34.7804 117.025 34.7323 116.989 34.691C116.953 34.6498 116.909 34.6162 116.86 34.5924C116.761 34.5451 116.648 34.5378 116.544 34.572C116.44 34.6061 116.353 34.6791 116.301 34.7756C115.277 36.8081 113.011 41.6395 114.202 42.6641C114.659 43.0032 115.217 43.1766 115.785 43.1556Z" fill="#0A1854"/>
<path d="M120.714 33.5098C120.651 32.7395 121.046 32.0786 121.597 32.0338C122.147 31.9889 122.644 32.577 122.707 33.3474C122.769 34.1177 122.374 34.7785 121.824 34.8234C121.274 34.8682 120.777 34.2801 120.714 33.5098Z" fill="#0A1854"/>
<path d="M110.395 34.9346C110.337 34.1638 110.737 33.5058 111.287 33.4647C111.838 33.4237 112.331 34.0153 112.388 34.7861C112.446 35.5568 112.046 36.2149 111.495 36.2559C110.945 36.2969 110.452 35.7053 110.395 34.9346Z" fill="#0A1854"/>
<path d="M117.499 48.3217C118.772 48.3441 120.033 48.0583 121.172 47.4887C123.163 46.4475 124.438 44.4566 124.962 41.5744C124.972 41.5202 124.971 41.4647 124.959 41.411C124.947 41.3574 124.924 41.3066 124.892 41.2617C124.861 41.2168 124.82 41.1786 124.774 41.1493C124.727 41.1201 124.675 41.1003 124.621 41.0913C124.513 41.074 124.403 41.099 124.313 41.161C124.223 41.2231 124.16 41.3175 124.138 41.4245C123.671 44.0401 122.538 45.831 120.806 46.7473C117.307 48.5799 112.384 46.3642 112.334 46.3392C112.234 46.2941 112.119 46.2907 112.016 46.3297C111.913 46.3688 111.83 46.4471 111.784 46.5474C111.761 46.597 111.748 46.6509 111.745 46.7057C111.743 46.7605 111.752 46.8153 111.772 46.8666C111.791 46.9179 111.821 46.9648 111.859 47.0044C111.897 47.044 111.942 47.0756 111.993 47.0972C113.732 47.8551 115.602 48.2709 117.499 48.3217Z" fill="#0A1854"/>
<path d="M115.005 53.4441C115.005 53.4441 122.502 54.0605 126.367 51.0117C126.367 51.0117 123.077 61.4242 116.163 61.3909L115.005 53.4441Z" fill="#0A1854"/>
<path d="M116.21 61.8076C123.323 61.8076 126.639 51.57 126.78 51.1368C126.805 51.0514 126.802 50.9605 126.772 50.8768C126.742 50.7931 126.687 50.7209 126.614 50.6704C126.544 50.6156 126.457 50.5859 126.368 50.5859C126.279 50.5859 126.193 50.6156 126.122 50.6704C122.399 53.5775 115.127 53.0194 115.052 53.0111C114.99 53.0067 114.928 53.0163 114.87 53.0391C114.812 53.0619 114.76 53.0974 114.718 53.143C114.675 53.1885 114.644 53.2429 114.625 53.3023C114.606 53.3616 114.601 53.4244 114.61 53.4859L115.768 61.441C115.786 61.5447 115.84 61.6386 115.921 61.7058C116.002 61.773 116.104 61.8091 116.21 61.8076ZM125.539 52.0615C124.481 54.6688 121.483 60.708 116.535 60.9662L115.51 53.8941C117.109 53.9607 122.041 54.0107 125.523 52.0615H125.539Z" fill="#0A1854"/>
<path d="M171.909 124.522L171.909 124.522C172.338 124.205 172.728 123.673 173.059 122.901C173.389 122.133 173.648 121.157 173.834 119.994C174.204 117.668 174.27 114.655 174.065 111.19C173.653 104.265 172.161 95.6121 169.925 87.2042C167.689 78.7932 164.717 70.6599 161.359 64.7608C159.68 61.8095 157.919 59.4446 156.128 57.8817C154.347 56.3287 152.587 55.6084 150.867 55.8109L150.794 55.8306C150.724 55.8493 150.62 55.8776 150.488 55.9152C150.221 55.9902 149.838 56.1023 149.369 56.2494C148.432 56.5439 147.16 56.9778 145.818 57.5359C144.473 58.0948 143.071 58.7734 141.867 59.5546C140.655 60.3409 139.687 61.2039 139.162 62.1156C139.076 62.2648 139.01 62.514 139.005 62.8993C138.999 63.2787 139.052 63.7497 139.163 64.3091C139.386 65.428 139.832 66.8384 140.441 68.4616C141.657 71.7054 143.494 75.7232 145.397 79.8199C145.635 80.3319 145.874 80.8451 146.113 81.3581C147.78 84.9407 149.443 88.5125 150.716 91.5841C151.444 93.3401 152.049 94.944 152.456 96.3013C152.858 97.6411 153.087 98.8022 153.013 99.645C152.927 100.609 152.268 101.352 151.369 101.92C150.465 102.49 149.237 102.937 147.827 103.295C145.001 104.011 141.307 104.396 137.659 104.595C134.005 104.794 130.371 104.808 127.652 104.771C126.292 104.753 125.16 104.722 124.367 104.696C124.023 104.685 123.743 104.674 123.536 104.666L119.735 121.049C119.74 121.051 119.744 121.052 119.749 121.054C120.043 121.148 120.477 121.284 121.034 121.455C122.149 121.797 123.756 122.274 125.727 122.817C129.669 123.903 135.059 125.25 140.854 126.295C146.652 127.34 152.839 128.079 158.38 127.958C163.94 127.836 168.763 126.85 171.909 124.522Z" stroke="#0A1854"/>
<path d="M97.0538 104.632C97.1456 104.634 97.2351 104.603 97.3045 104.542C97.3739 104.482 97.4182 104.398 97.4286 104.307C99.4111 90.3791 103.759 67.0552 105.167 65.689C105.236 65.6174 105.274 65.522 105.273 65.4229C105.273 65.3237 105.234 65.2286 105.165 65.1574C105.096 65.0863 105.002 65.0446 104.903 65.0412C104.804 65.0378 104.708 65.073 104.634 65.1393C102.826 66.8969 98.1783 93.6528 96.6789 104.199C96.6646 104.299 96.6908 104.401 96.7517 104.482C96.8127 104.564 96.9033 104.617 97.0038 104.632H97.0538Z" fill="#0A1854"/>
<path d="M111.772 137.587L138.328 130.148L89.556 120.977L63.1583 132.039L111.772 137.587Z" fill="white"/>
<path d="M111.779 138.027C111.814 138.035 111.851 138.035 111.887 138.027L138.443 130.53C138.553 130.53 138.659 130.486 138.737 130.408C138.816 130.33 138.859 130.224 138.859 130.114C138.859 130.003 138.816 129.897 138.737 129.819C138.659 129.741 138.553 129.697 138.443 129.697L89.6708 120.534C89.595 120.509 89.5133 120.509 89.4376 120.534L63.0398 131.596C62.9554 131.632 62.8851 131.695 62.8399 131.775C62.7947 131.855 62.7771 131.947 62.7899 132.038C62.8024 132.13 62.8452 132.215 62.9116 132.28C62.978 132.345 63.0642 132.386 63.1564 132.396L111.729 138.027H111.779ZM136.502 130.255L111.745 137.194L64.7975 131.838L89.6125 121.442L136.502 130.255Z" fill="#0A1854"/>
<path d="M127.441 110.105C121.61 110.747 116.204 111.163 110.781 113.437C107.683 114.739 104.756 116.418 102.068 118.435C100.699 119.407 99.419 120.5 98.2447 121.701C97.3118 122.717 97.6117 123.708 99.1777 123.217C100.999 122.646 102.723 121.804 104.292 120.718C100.54 123.779 97.2148 127.329 94.4046 131.272C94.0881 131.722 93.7799 132.363 94.1547 132.763C94.5296 133.163 95.3626 132.763 95.8207 132.347L104.059 124.533C101.878 126.415 100.023 128.644 98.5696 131.13C98.3614 131.489 98.1614 131.963 98.378 132.288C98.7445 132.896 99.6775 132.438 100.177 131.93C102.645 129.438 104.889 126.735 106.883 123.85L102.435 130.514C102.477 130.637 102.543 130.75 102.629 130.847C102.715 130.945 102.82 131.024 102.937 131.08C103.054 131.137 103.181 131.17 103.311 131.177C103.44 131.184 103.57 131.165 103.693 131.122C104.182 130.92 104.606 130.585 104.917 130.156L110.307 123.967L107.125 128.348C106.625 129.031 106.125 130.014 106.7 130.656C107.274 131.297 108.574 130.656 109.307 130.006C112.256 127.315 115.493 124.96 118.961 122.984C120.219 122.242 121.294 121.234 122.685 120.81C124.684 120.193 127.183 120.276 129.266 120.043" fill="white"/>
<path d="M94.5537 133.328C95.1103 133.265 95.6281 133.012 96.0197 132.612L98.6853 130.113C98.5104 130.388 98.3355 130.671 98.1772 130.946C98.0086 131.163 97.9017 131.421 97.868 131.694C97.8343 131.967 97.8749 132.244 97.9856 132.495C98.0603 132.624 98.1639 132.733 98.2884 132.814C98.4128 132.895 98.5544 132.945 98.702 132.962C99.0171 132.958 99.3278 132.888 99.6146 132.758C99.9014 132.627 100.158 132.439 100.368 132.204C100.918 131.654 101.451 131.096 101.976 130.538C101.972 130.568 101.972 130.599 101.976 130.629C102.007 130.784 102.071 130.929 102.163 131.057C102.255 131.185 102.373 131.292 102.509 131.371C102.689 131.478 102.889 131.548 103.096 131.575C103.304 131.602 103.515 131.587 103.717 131.529C104.277 131.309 104.763 130.933 105.116 130.446L106.099 129.322C105.976 129.593 105.933 129.893 105.974 130.188C106.016 130.483 106.14 130.76 106.332 130.988C106.452 131.122 106.598 131.23 106.762 131.306C106.925 131.382 107.102 131.424 107.282 131.429C108.152 131.334 108.957 130.925 109.548 130.28C112.467 127.603 115.681 125.267 119.127 123.316C119.552 123.066 119.96 122.783 120.36 122.483C121.088 121.915 121.9 121.465 122.767 121.15C124.22 120.782 125.709 120.581 127.207 120.55C127.924 120.508 128.623 120.467 129.281 120.4C129.382 120.388 129.473 120.336 129.536 120.256C129.598 120.177 129.626 120.076 129.615 119.975C129.609 119.926 129.594 119.878 129.571 119.835C129.547 119.791 129.515 119.753 129.476 119.722C129.437 119.691 129.393 119.668 129.345 119.654C129.297 119.64 129.247 119.636 129.198 119.642C128.548 119.709 127.865 119.75 127.166 119.792C125.606 119.822 124.054 120.032 122.542 120.417C121.603 120.76 120.722 121.243 119.927 121.85C119.544 122.124 119.152 122.391 118.744 122.633C115.251 124.618 111.99 126.987 109.023 129.696C108.572 130.155 107.99 130.46 107.357 130.571C107.279 130.568 107.203 130.55 107.133 130.517C107.063 130.484 107 130.437 106.949 130.38C106.499 129.888 107.115 128.93 107.399 128.539L110.581 124.165C110.61 124.127 110.632 124.083 110.645 124.037C110.658 123.99 110.661 123.941 110.655 123.893C110.649 123.845 110.633 123.799 110.609 123.757C110.585 123.715 110.552 123.678 110.514 123.649C110.444 123.58 110.35 123.542 110.252 123.542C110.153 123.542 110.059 123.58 109.989 123.649L104.591 129.838C104.328 130.207 103.968 130.495 103.55 130.671C103.451 130.699 103.348 130.706 103.247 130.693C103.145 130.681 103.047 130.647 102.959 130.596C102.906 130.568 102.86 130.528 102.825 130.479L107.165 123.957C107.222 123.874 107.243 123.772 107.224 123.674C107.205 123.576 107.148 123.489 107.065 123.432C106.982 123.376 106.881 123.355 106.782 123.374C106.684 123.392 106.597 123.449 106.541 123.532C104.555 126.396 102.326 129.083 99.8765 131.562C99.6053 131.86 99.2354 132.049 98.8353 132.095C98.8024 132.095 98.7703 132.085 98.7424 132.067C98.7146 132.05 98.692 132.025 98.677 131.996C98.5854 131.854 98.677 131.587 98.8686 131.221C99.8713 129.505 101.071 127.911 102.442 126.473L104.3 124.707C104.36 124.635 104.392 124.544 104.39 124.451C104.387 124.358 104.351 124.268 104.288 124.2C104.224 124.131 104.138 124.088 104.045 124.079C103.952 124.069 103.859 124.094 103.783 124.149C103.125 124.715 102.5 125.307 101.901 125.931L95.5366 131.971C95.2893 132.252 94.9494 132.435 94.5787 132.487C94.5449 132.488 94.5114 132.481 94.4809 132.467C94.4504 132.452 94.424 132.431 94.4037 132.404C94.2121 132.204 94.4037 131.754 94.6786 131.387C97.4682 127.473 100.768 123.949 104.491 120.908C104.56 120.844 104.601 120.756 104.609 120.662C104.617 120.568 104.59 120.475 104.533 120.4C104.477 120.325 104.395 120.273 104.302 120.255C104.21 120.236 104.114 120.253 104.033 120.3C102.502 121.366 100.816 122.192 99.0352 122.749C98.4521 122.933 98.1439 122.858 98.0856 122.749C98.0273 122.641 98.0856 122.274 98.4937 121.841C99.6497 120.655 100.913 119.579 102.267 118.626C104.929 116.629 107.827 114.97 110.897 113.686C115.787 111.645 120.677 111.121 125.891 110.562L127.515 110.379C127.565 110.374 127.613 110.359 127.656 110.335C127.7 110.312 127.738 110.279 127.769 110.241C127.8 110.202 127.823 110.157 127.837 110.11C127.85 110.062 127.854 110.012 127.849 109.963C127.843 109.913 127.829 109.866 127.805 109.822C127.781 109.778 127.749 109.74 127.71 109.709C127.671 109.678 127.627 109.655 127.579 109.641C127.531 109.628 127.481 109.624 127.432 109.63L125.766 109.804C120.527 110.371 115.587 110.904 110.597 112.986C107.47 114.282 104.515 115.961 101.801 117.984C100.408 118.975 99.109 120.09 97.919 121.316C97.3192 121.966 97.136 122.674 97.4358 123.149C97.6108 123.416 98.0773 123.815 99.2518 123.449C99.9296 123.242 100.594 122.994 101.243 122.708C98.5793 125.2 96.1711 127.951 94.0539 130.921C93.4791 131.754 93.4041 132.429 93.829 132.895C93.9199 132.995 94.0303 133.076 94.1535 133.132C94.2767 133.188 94.4101 133.218 94.5453 133.22L94.5537 133.328Z" fill="#0A1854"/>
<path d="M63.1596 132.036L51.0062 99.5078L100.645 100.491L111.773 137.584L63.1596 132.036Z" fill="white"/>
<path d="M111.773 138.027C111.833 138.027 111.893 138.014 111.948 137.988C112.003 137.962 112.051 137.924 112.089 137.877C112.133 137.824 112.163 137.762 112.178 137.695C112.192 137.629 112.191 137.559 112.173 137.493L101.044 100.4C101.017 100.316 100.965 100.243 100.895 100.189C100.825 100.135 100.74 100.104 100.652 100.1L51.0138 99.1172C50.9458 99.1162 50.8785 99.1316 50.8176 99.162C50.7567 99.1925 50.704 99.2371 50.664 99.2922C50.6277 99.3483 50.6044 99.4118 50.5957 99.4781C50.5871 99.5444 50.5933 99.6118 50.614 99.6754L62.7674 132.162C62.7946 132.236 62.8417 132.301 62.9035 132.349C62.9653 132.398 63.0393 132.428 63.1173 132.437L111.723 138.027H111.773ZM100.327 100.925L111.156 137.127L63.4255 131.679L51.5803 99.9586L100.327 100.925Z" fill="#0A1854"/>
<path d="M65.81 132.339C65.81 132.339 52.3404 143.276 57.0719 153.305C61.8033 163.335 147.869 174.797 147.869 174.797L151.742 161.685C151.742 161.685 84.2276 127.199 65.81 132.339Z" fill="#0A1854"/>
<path d="M147.864 175.213C147.954 175.211 148.041 175.181 148.112 175.128C148.184 175.074 148.237 174.998 148.264 174.913L152.137 161.801C152.167 161.709 152.162 161.609 152.124 161.521C152.085 161.432 152.016 161.36 151.929 161.318C151.762 161.226 134.827 152.605 115.852 144.708C90.3202 134.087 73.452 129.789 65.7218 131.938C65.6636 131.954 65.6096 131.983 65.5635 132.022C63.213 134.019 61.125 136.305 59.3493 138.827C55.6342 144.175 54.7345 149.24 56.7504 153.488C61.5651 163.601 144.29 174.738 147.805 175.204L147.864 175.213ZM151.246 161.885L147.564 174.313C141.55 173.48 61.9733 162.501 57.5001 153.113C53.1018 143.85 64.9971 133.546 66.03 132.705C83.5396 128.031 146.198 159.386 151.196 161.901L151.246 161.885Z" fill="#0A1854"/>
<path d="M156.197 127.314C156.197 127.314 89.3654 154.337 72.7971 161.467L82.4266 176.345C82.4266 176.345 144.135 175.137 161.828 159.635C179.521 144.132 178.346 118.326 156.197 127.314Z" fill="#0A1854"/>
<path d="M82.4267 176.779C82.5767 176.779 98.0788 176.454 115.538 174.238C139.029 171.248 154.689 166.45 162.095 159.961C171.358 151.847 177.847 137.603 172.749 129.331C171.083 126.582 166.635 122.626 156.022 126.924C155.356 127.199 88.9991 154.038 72.614 161.077C72.5582 161.1 72.5082 161.135 72.4678 161.179C72.4274 161.224 72.3977 161.277 72.3808 161.335C72.364 161.394 72.3598 161.455 72.3685 161.515C72.3771 161.576 72.3983 161.633 72.4307 161.685L82.0602 176.587C82.0993 176.648 82.1537 176.698 82.218 176.732C82.2823 176.765 82.3542 176.782 82.4267 176.779ZM164.402 125.866C167.826 125.866 170.45 127.182 172.049 129.764C175.981 136.154 172.707 149.565 161.553 159.336C144.718 174.088 86.8083 175.838 82.6516 175.938L73.4054 161.652C90.5152 154.321 155.681 127.965 156.347 127.699C158.891 126.581 161.625 125.959 164.402 125.866Z" fill="#0A1854"/>
<path d="M62.9003 119.051C62.8285 119.436 62.6625 119.796 62.4172 120.101L61.1177 122.042C61.1652 121.841 61.2561 121.654 61.384 121.492C61.5119 121.33 61.6738 121.199 61.8581 121.107C62.0424 121.015 62.2447 120.964 62.4507 120.959C62.6567 120.953 62.8614 120.993 63.0503 121.075C63.4193 121.275 63.7259 121.573 63.9362 121.936C64.1464 122.299 64.2521 122.714 64.2415 123.133C64.2042 123.971 64.0062 124.794 63.6584 125.557C62.7337 127.956 60.6429 131.463 57.6191 129.647C55.5699 128.414 55.0035 124.066 54.712 121.9C54.1372 117.635 55.445 112.154 60.9261 112.987C60.768 115.087 59.9847 117.092 58.677 118.743C59.5683 117.877 63.1752 116.536 62.9003 119.051Z" fill="white"/>
<path d="M59.2913 130.53C59.6261 130.532 59.9588 130.476 60.2742 130.364C62.2484 129.689 63.4812 127.148 64.0393 125.69C64.4028 124.881 64.6092 124.011 64.6474 123.125C64.6611 122.632 64.5344 122.146 64.2822 121.723C64.03 121.299 63.6626 120.957 63.223 120.734C63.019 120.641 62.7975 120.593 62.5733 120.592L62.7565 120.318C63.0409 119.96 63.2301 119.535 63.3063 119.085C63.3726 118.754 63.3267 118.41 63.1758 118.109C63.025 117.807 62.7777 117.564 62.4733 117.419C61.6191 117.155 60.6969 117.223 59.891 117.61C60.6913 116.212 61.1694 114.652 61.2905 113.045C61.2959 112.949 61.2658 112.855 61.2059 112.779C61.146 112.704 61.0604 112.654 60.9656 112.637C60.1319 112.455 59.2665 112.478 58.4437 112.704C57.6209 112.931 56.8655 113.354 56.2425 113.937C54.2849 115.869 53.9601 119.351 54.3183 121.975C54.6431 124.374 55.2262 128.681 57.4087 129.997C57.9733 130.349 58.626 130.534 59.2913 130.53ZM62.5233 121.367C62.6575 121.365 62.7907 121.391 62.9148 121.442C63.218 121.612 63.4685 121.862 63.639 122.164C63.8094 122.467 63.8932 122.811 63.8811 123.158C63.8482 123.947 63.6615 124.723 63.3313 125.44C62.9148 126.507 61.7653 129.064 59.9993 129.664C59.6349 129.78 59.2487 129.812 58.8703 129.755C58.4919 129.699 58.1315 129.557 57.8168 129.339C55.9426 128.214 55.3762 123.983 55.1013 121.95C54.7597 119.451 55.0346 116.203 56.7673 114.453C57.259 113.99 57.8505 113.647 58.4961 113.449C59.1417 113.251 59.8242 113.204 60.4908 113.312C60.2764 115.208 59.5347 117.006 58.35 118.502C58.2891 118.577 58.2594 118.672 58.2672 118.768C58.275 118.864 58.3195 118.954 58.3916 119.018C58.4627 119.085 58.5565 119.122 58.654 119.122C58.7515 119.122 58.8454 119.085 58.9164 119.018C59.4745 118.468 61.3154 117.685 62.1401 118.085C62.3234 118.168 62.5566 118.36 62.4983 119.01C62.4255 119.331 62.2834 119.632 62.0818 119.893L61.3821 120.926C61.1987 121.045 61.0438 121.203 60.9286 121.388C60.8134 121.574 60.7407 121.783 60.7157 122C60.7068 122.085 60.7266 122.171 60.7719 122.243C60.8171 122.316 60.8853 122.371 60.9656 122.4C61.0453 122.429 61.1323 122.429 61.2125 122.402C61.2926 122.375 61.3612 122.321 61.4071 122.25L61.9235 121.484C62.1099 121.393 62.3166 121.353 62.5233 121.367Z" fill="#0A1854"/>
<path d="M81.6668 158.385C81.7192 158.393 81.7726 158.393 81.825 158.385C83.2828 157.819 117.736 144.483 125.499 139.726C125.596 139.666 125.665 139.57 125.691 139.46C125.718 139.349 125.7 139.232 125.641 139.135C125.612 139.086 125.573 139.044 125.528 139.01C125.482 138.977 125.43 138.953 125.375 138.939C125.32 138.926 125.263 138.924 125.207 138.933C125.151 138.943 125.097 138.963 125.049 138.993C117.352 143.708 81.875 157.444 81.5168 157.577C81.4098 157.618 81.3234 157.7 81.2766 157.805C81.2297 157.909 81.2263 158.028 81.2669 158.136C81.3014 158.212 81.3578 158.277 81.429 158.321C81.5001 158.366 81.5829 158.388 81.6668 158.385Z" fill="white"/>
<path d="M121.857 103.991C114.261 103.991 108.104 98.1616 108.104 90.9709C108.104 83.7803 114.261 77.9512 121.857 77.9512C129.452 77.9512 135.609 83.7803 135.609 90.9709C135.609 98.1616 129.452 103.991 121.857 103.991Z" fill="#0A1854"/>
<path d="M121.855 104.399C129.668 104.399 136.016 98.3768 136.016 90.9714C136.016 83.5661 129.66 77.5352 121.855 77.5352C114.049 77.5352 107.694 83.5661 107.694 90.9714C107.694 98.3768 114.041 104.399 121.855 104.399ZM121.855 78.3682C129.21 78.3682 135.183 84.0242 135.183 90.9714C135.183 97.9186 129.202 103.566 121.855 103.566C114.508 103.566 108.527 97.9186 108.527 90.9714C108.527 84.0242 114.499 78.3682 121.855 78.3682Z" fill="#0A1854"/>
<path d="M129.113 95.2029L132.445 93.2537V90.6797L129.113 88.7305C128.003 88.0918 126.892 87.4421 125.781 86.7812V89.8967C126.373 90.2632 126.964 90.6214 127.556 90.9629C128.147 91.3044 128.73 91.6543 129.33 92.0291L127.556 93.0121L125.781 94.0033V97.1521L129.113 95.2029Z" fill="white"/>
<path d="M124.836 97.9762L120.913 83.0488L118.863 83.9735L122.803 98.8758L124.836 97.9762Z" fill="white"/>
<path d="M114.543 88.7305L111.211 90.6797V93.2537L114.543 95.2029L117.875 97.1521V94.0033L116.101 93.0121L114.326 92.0291C114.918 91.6543 115.509 91.2961 116.101 90.9629C116.692 90.6297 117.275 90.2632 117.875 89.8967V86.7812L114.543 88.7305Z" fill="white"/>
<path d="M150.369 127.197C150.48 127.204 150.588 127.166 150.671 127.093C150.754 127.019 150.804 126.916 150.811 126.806C150.817 126.695 150.78 126.587 150.706 126.504C150.633 126.421 150.53 126.371 150.419 126.364L130.427 123.94L127.253 107.938L152.868 105.772C152.929 105.768 152.989 105.75 153.042 105.72C153.096 105.69 153.141 105.648 153.176 105.597C153.214 105.548 153.239 105.491 153.251 105.43C153.262 105.37 153.26 105.307 153.243 105.248L142.714 66.0467C142.685 65.9362 142.614 65.8417 142.515 65.7839C142.417 65.7261 142.3 65.7097 142.189 65.7385C142.079 65.7672 141.984 65.8386 141.926 65.937C141.868 66.0354 141.852 66.1528 141.881 66.2632L152.285 104.989L126.737 107.105C126.678 107.112 126.622 107.13 126.57 107.158C126.519 107.187 126.473 107.225 126.437 107.272C126.402 107.319 126.378 107.373 126.365 107.431C126.352 107.488 126.351 107.547 126.362 107.605L129.694 124.357C129.712 124.442 129.756 124.52 129.82 124.58C129.885 124.64 129.966 124.678 130.052 124.69L150.369 127.147V127.197Z" fill="#0A1854"/>
</svg>
