<svg width="43" height="42" viewBox="0 0 43 42" fill="none" xmlns="http://www.w3.org/2000/svg">
<path d="M22.8351 39.6913C22.807 39.1286 22.8069 38.4815 22.7788 37.8906C22.7506 34.7112 24.1297 32.1227 26.3249 29.928C28.5201 27.7615 31.3062 25.9045 33.9517 23.738C35.0493 22.8658 36.0344 21.4309 35.3308 20.8681C34.6272 20.3336 33.3888 20.8963 32.2068 21.7966C31.7847 22.1061 31.3625 22.4438 30.9685 22.7814C29.6739 23.9913 28.2105 25.0886 26.6907 26.3266C25.1992 27.5927 23.5387 29.0277 22.3848 31.1942C21.0902 33.1074 20.3022 36.5401 21.0058 39.635C21.231 40.5917 21.625 41.689 22.3286 41.5764C22.8914 41.492 22.807 40.4229 22.8351 39.6913Z" fill="#E59A9E"/>
<path d="M2.23733 20.333C2.77206 20.6707 3.47565 20.7269 4.0948 20.9239C5.81155 21.3178 7.72525 21.3459 9.49828 20.6988C11.2713 20.0798 12.8192 19.0106 14.0857 17.7726C16.5904 15.2685 18.3072 12.3423 20.3898 9.95074C21.206 8.96597 22.1347 7.81239 21.5155 7.16525C20.9527 6.54625 19.4611 7.10898 18.3635 8.34697C17.9695 8.76902 17.6318 9.19106 17.294 9.64124C15.2959 12.68 13.2414 15.8312 9.89233 18.054C8.23187 19.0106 5.61453 19.4608 3.02534 18.7855C2.20919 18.5323 1.22414 18.3354 0.88642 18.9543C0.63313 19.4608 1.56189 19.9391 2.23733 20.333Z" fill="#E59A9E"/>
<path d="M40.2613 19.8274C39.6422 19.4898 38.9385 19.2365 38.2631 18.9552C34.7733 17.3233 31.565 15.3537 29.004 12.6526C26.4429 9.9797 24.5573 6.65962 23.516 3.00191C23.0657 1.56696 22.5029 -0.205629 21.6023 0.0194614C20.7861 0.216415 20.5047 1.989 21.0675 3.84599C21.2083 4.49313 21.4616 5.14026 21.7149 5.75926C23.6005 9.75461 25.9363 13.9469 30.5518 17.07C32.6344 18.6738 35.8709 20.3339 39.3325 21.3468C40.402 21.6563 41.7529 21.8532 42.0062 21.2342C42.2032 20.6996 41.0493 20.2213 40.2613 19.8274Z" fill="#E59A9E"/>
<path d="M19.7716 30.8292C19.659 30.5197 19.462 30.2383 19.265 29.957C17.4357 26.9183 14.7339 24.7799 12.3417 22.3039C11.8633 21.7974 11.1034 21.3754 10.4843 22.0225C9.89325 22.6415 9.97774 23.5419 10.5406 24.1609C10.7095 24.386 10.9064 24.5829 11.1316 24.7518C12.7076 25.8209 13.8615 27.3403 15.6064 28.8597C16.3381 29.6756 17.3232 30.8011 18.3645 31.8984C18.674 32.236 19.1524 32.6018 19.659 32.1516C20.1375 31.7577 19.8842 31.2231 19.7716 30.8292Z" fill="#E59A9E"/>
</svg>
