<svg width="207" height="142" viewBox="0 0 207 142" fill="none" xmlns="http://www.w3.org/2000/svg">
<g opacity="0.2">
<path d="M16.3772 126.818C16.7106 126.675 16.9964 126.413 17.3299 126.199C20.6402 123.913 23.1884 120.889 26.0224 118.127C26.594 117.58 27.1179 116.77 26.5701 116.247C26.0462 115.747 25.1174 115.985 24.4268 116.604C24.1886 116.818 23.9505 117.056 23.7362 117.294C22.4263 119.008 20.7355 120.413 18.9731 122.389C18.0443 123.246 16.7583 124.413 15.5199 125.604C15.115 125.985 14.7101 126.485 15.0674 126.937C15.4008 127.318 15.9485 127.008 16.3772 126.818Z" fill="#39395B"/>
<path d="M1.9475 141.246C2.28092 141.103 2.56676 140.841 2.90017 140.627C6.2105 138.341 8.75873 135.317 11.5927 132.555C12.1643 132.008 12.6882 131.198 12.1405 130.674C11.6165 130.174 10.6877 130.412 9.99709 131.031C9.75894 131.246 9.52076 131.484 9.30643 131.722C7.99658 133.436 6.3057 134.841 4.54336 136.817C3.61456 137.674 2.32858 138.841 1.09019 140.031C0.685325 140.412 0.280459 140.912 0.637688 141.365C0.971103 141.746 1.51883 141.436 1.9475 141.246Z" fill="#39395B"/>
<path d="M15.7845 131.578C15.9273 131.911 16.1893 132.197 16.4037 132.53C18.6899 135.84 21.7145 138.387 24.4771 141.221C25.0249 141.792 25.8345 142.316 26.3585 141.768C26.8586 141.245 26.6204 140.316 26.0012 139.626C25.7869 139.387 25.5487 139.149 25.3106 138.935C23.5959 137.626 22.1908 135.935 20.2141 134.173C19.3568 133.245 18.1898 131.959 16.9991 130.721C16.618 130.316 16.1179 129.911 15.6654 130.269C15.2844 130.578 15.5939 131.149 15.7845 131.578Z" fill="#39395B"/>
<path d="M1.35476 117.15C1.49766 117.484 1.75965 117.769 1.97399 118.103C4.26026 121.412 7.28484 123.96 10.0474 126.793C10.5952 127.364 11.4048 127.888 11.9288 127.341C12.4289 126.817 12.1908 125.888 11.5716 125.198C11.3572 124.96 11.119 124.722 10.8809 124.507C9.16619 123.198 7.76112 121.507 5.78445 119.746C4.9271 118.817 3.76013 117.531 2.56937 116.293C2.18832 115.888 1.68821 115.484 1.23572 115.841C0.854672 116.15 1.16424 116.722 1.35476 117.15Z" fill="#39395B"/>
</g>
<path d="M50.886 52.7387C51.3292 43.3821 56.6468 37.251 64.9678 32.8436C62.6537 30.2582 59.7733 28.6331 57.0899 26.7617C53.4464 24.2256 50.3444 21.3201 49.5813 16.691C49.3105 15.0906 49.2612 13.4408 50.6645 12.3574C51.7477 12.6529 51.7231 13.3916 51.7231 13.8841C51.7231 18.9563 54.4803 22.2558 58.4193 24.9396C61.3243 26.9341 64.2539 28.9532 66.4449 31.8833C67.9466 31.7109 69.4484 30.8491 71.0239 31.5878C71.4424 33.0159 70.1623 33.2621 69.3991 33.533C60.438 36.7832 54.505 42.7419 52.3385 52.1724C52.2647 52.5171 51.9693 52.8126 51.7477 53.1327C51.4523 53.0096 51.1815 52.8865 50.886 52.7387Z" fill="#7EA5D7"/>
<path d="M50.0207 45.4504C45.8109 41.56 40.8134 38.7038 37.293 33.8531C35.9882 33.8531 34.2649 34.9611 32 33.2621C35.9143 32.031 39.2378 30.8491 41.9705 28.2145C44.4077 25.8753 45.5401 21.8864 49.873 21.6895C47.0911 26.1462 43.8907 30.1843 39.2871 33.139C43.0783 37.1771 48.1497 39.9841 50.0207 45.4504Z" fill="#7EA5D7"/>
<path fill-rule="evenodd" clip-rule="evenodd" d="M136.234 42.0977V85.2079C136.234 85.9601 137.618 85.9601 137.618 85.2079V42.0977C137.618 41.306 136.234 41.306 136.234 42.0977ZM185.862 43.127V84.4162C185.862 85.1683 187.246 85.1683 187.246 84.4162V43.127C187.246 42.3748 185.862 42.3748 185.862 43.127Z" fill="#E59A9E"/>
<path fill-rule="evenodd" clip-rule="evenodd" d="M136.598 85.4862C150.619 96.9269 172.757 96.8477 186.64 85.2883C187.286 84.7737 186.317 83.9028 185.672 84.457C172.342 95.5809 151.08 95.6601 137.612 84.6549C136.92 84.1007 135.952 84.932 136.598 85.4862ZM137.336 42.4948C136.967 40.0404 140.979 39.2486 142.962 38.6944C145.176 38.1006 147.436 37.6256 149.696 37.2297C154.724 36.3192 159.843 35.8837 165.009 35.8441C172.619 35.8046 182.259 36.5171 186.502 42.7719C186.963 43.4448 188.162 42.851 187.701 42.1781C182.858 35.092 171.789 34.4982 163.256 34.6961C157.26 34.8545 151.311 35.567 145.499 36.8734C142.409 37.5464 135.352 38.6152 135.906 42.4948C136.09 43.2469 137.474 43.2469 137.336 42.4948Z" fill="#E59A9E"/>
<path fill-rule="evenodd" clip-rule="evenodd" d="M146.333 39.9207C144.442 39.8812 142.136 40.0791 141.121 41.6626C140.245 42.9689 140.891 44.2357 142.182 45.1067C144.073 46.3734 146.748 46.8089 149.054 47.0068C152.375 47.3235 155.742 47.3631 159.063 47.3631C165.428 47.4027 171.885 47.0464 178.065 45.7796C179.587 45.4629 181.893 44.9879 181.985 43.2856C182.078 41.2667 179.08 40.8708 177.65 40.0395C176.912 39.604 176.22 40.6333 176.958 41.0688C177.465 41.3459 178.157 41.5042 178.618 41.7813C179.679 42.0584 179.864 42.8898 179.126 44.2753C178.665 44.3941 178.203 44.5128 177.696 44.592C176.036 44.9087 174.329 45.1858 172.623 45.3837C168.702 45.8588 164.736 46.0963 160.769 46.0963C157.126 46.1359 153.436 46.0963 149.792 45.8192C147.901 45.6609 145.872 45.3837 144.119 44.6712C142.966 44.1565 141.951 43.4836 142.228 42.2168C142.505 40.95 145.18 41.0688 146.241 41.0688C147.255 41.1084 147.255 39.9207 146.333 39.9207ZM152.237 1.60054C149.654 2.62981 144.765 6.27181 147.671 8.92414C148.916 10.0722 155.142 11.4973 152.283 13.9913C151.084 15.0205 149.1 15.0205 147.947 16.2082C147.163 17.0395 146.933 18.1875 147.993 18.9001C148.685 19.3751 149.792 19.4939 150.576 19.8501C151.13 20.0877 151.914 20.4439 152.237 20.919C153.205 22.3045 152.606 22.265 151.591 22.5816C150.576 22.8983 149.239 23.215 149.008 24.3235C148.916 24.7985 149.1 25.2736 149.377 25.6694C149.562 25.9069 149.792 26.0653 150.023 26.2237C150.161 26.3424 152.513 27.9259 151.591 27.8863C150.715 27.8467 150.715 29.0343 151.591 29.0739C152.744 29.1135 153.528 28.2426 153.297 27.2529C153.159 26.6987 152.698 26.3424 152.191 25.9861C151.591 25.5902 149.931 25.1944 150.945 24.0464C151.13 23.8484 151.868 23.7297 152.144 23.6505C155.88 22.4233 153.713 19.8501 150.945 18.6625C149.746 18.1479 147.717 17.5541 149.746 16.4061C150.53 15.9706 151.453 15.7331 152.237 15.3768C153.436 14.8226 154.451 13.9517 154.266 12.6849C154.082 11.1806 152.467 9.91382 151.037 9.20125C150.53 8.96373 149.838 8.84496 149.377 8.52827C147.717 7.49901 148.27 6.27181 149.054 5.24255C149.977 4.01536 151.406 3.2236 152.882 2.6298C153.759 2.27351 153.067 1.28385 152.237 1.60054ZM163.121 13.16C161.461 13.4766 160.124 14.4267 159.847 15.931C159.524 17.6333 160.677 18.4646 161.922 19.573C164.505 21.8295 161.507 21.8691 160.585 23.5713C160.4 23.9276 160.308 24.2839 160.4 24.6798C160.492 25.234 160.769 25.1548 160.954 25.6694C161.323 26.5799 161.369 27.3717 160.677 28.2426C160.17 28.876 161.369 29.4698 161.876 28.8364C162.891 27.53 162.983 26.857 162.476 25.4715C162.061 24.2839 161.968 23.9276 163.121 23.0963C163.537 22.8192 163.952 22.5421 164.275 22.1462C164.828 21.4336 164.782 20.6023 164.228 19.8897C163.813 19.3355 163.214 19.0188 162.66 18.6229C161.692 17.9104 161.507 17.7124 161.507 16.4852C161.507 15.2976 162.061 14.6247 163.49 14.3476C164.367 14.1496 163.998 13.0016 163.121 13.16ZM174.375 1.64012C174.56 1.4026 174.698 1.12551 174.883 0.887984C175.252 0.373353 174.56 -0.180879 173.914 0.0566428C172.208 0.848383 171.054 2.3131 171.008 4.01534C171.008 4.88626 171.285 5.63841 171.792 6.39056C172.761 7.73652 173.314 7.65736 172.3 9.79506C172.115 10.1909 171.746 10.4285 171.562 10.8639C170.824 12.962 173.868 14.1496 173.545 16.2082C173.222 18.2271 171.377 19.6126 172.115 21.7503C172.346 22.5025 173.683 22.1858 173.453 21.4336C172.807 19.4543 174.929 17.8312 175.021 15.8914C175.113 14.1496 172.761 12.9224 172.992 11.4181C173.222 9.87422 175.159 9.32002 174.283 7.49901C173.822 6.54893 172.807 5.83634 172.484 4.80708C172.069 3.26319 173.084 1.7589 174.606 1.08592L173.637 0.254578C173.453 0.4921 173.314 0.769218 173.13 1.00674C172.761 1.71931 173.96 2.3131 174.375 1.64012ZM187.197 53.3803C192.225 49.9362 199.881 53.3011 198.958 58.9225C198.589 61.1394 196.791 63.2375 194.9 64.7418C193.793 65.6127 192.455 66.3649 191.025 66.8003C190.518 66.9587 187.197 67.3941 187.197 67.117C187.243 66.3649 185.86 66.3649 185.814 67.117C185.721 69.6902 191.902 67.8692 193.147 67.2754C196.514 65.7315 199.789 62.5249 200.342 59.1996C201.541 52.3115 192.178 48.4715 186.229 52.5886C185.537 53.024 186.552 53.8554 187.197 53.3803Z" fill="#E59A9E"/>
<path fill-rule="evenodd" clip-rule="evenodd" d="M187.147 48.3137C191.068 46.8094 195.634 47.0073 199.37 48.8283C203.751 50.966 205.273 54.6476 204.628 58.7646C203.429 66.5237 195.542 71.9867 186.548 71.8284C185.672 71.8284 185.672 73.016 186.548 73.016C196.925 73.2139 205.827 66.2862 206.196 57.2603C206.38 52.9453 204.028 49.4617 199.508 47.4824C195.403 45.7009 190.653 45.6613 186.456 47.2448C185.625 47.5615 186.363 48.5908 187.147 48.3137Z" fill="#E59A9E"/>
<path fill-rule="evenodd" clip-rule="evenodd" d="M141.489 42.1768C142.365 43.6811 143.657 44.7895 145.502 45.4229C146.286 45.7 147.024 44.7499 146.193 44.3936C145.04 43.879 144.164 43.2456 143.334 42.4143C142.827 41.8996 141.858 42.5726 142.227 43.1269C144.948 46.9668 150.252 47.0856 154.957 46.8876C155.833 46.848 155.833 45.6604 154.957 45.7C150.806 45.8584 145.871 45.9375 143.426 42.4935L142.319 43.206C143.196 44.1561 144.21 44.8291 145.455 45.3833C145.686 45.027 145.917 44.7103 146.147 44.354C144.533 43.7602 143.426 42.8893 142.642 41.5038C142.319 40.91 141.12 41.5038 141.489 42.1768ZM136 85.1286C134.663 86.1975 136.323 87.9789 137.292 88.8102C139.46 90.6708 142.596 91.898 145.409 92.9273C151.359 95.1045 158.001 95.8171 164.181 93.8378C165.011 93.5607 164.642 92.4126 163.812 92.6897C159.015 94.2336 153.896 94.1149 149.007 92.8085C146.747 92.2147 144.533 91.3438 142.458 90.3937C141.812 90.077 135.724 87.0288 137.015 85.9995C137.615 85.4453 136.646 84.614 136 85.1286Z" fill="#E59A9E"/>
</svg>
