<svg width="189" height="188" viewBox="0 0 189 188" fill="none" xmlns="http://www.w3.org/2000/svg">
<path fill-rule="evenodd" clip-rule="evenodd" d="M3.777 7.27665C5.73407 7.27665 7.32059 5.69013 7.32059 3.73305C7.32059 1.77598 5.73407 0.189453 3.777 0.189453C1.81992 0.189453 0.233398 1.77598 0.233398 3.73305C0.233398 5.69013 1.81992 7.27665 3.777 7.27665ZM23.8573 7.27665C25.8144 7.27665 27.4009 5.69013 27.4009 3.73305C27.4009 1.77598 25.8144 0.189453 23.8573 0.189453C21.9002 0.189453 20.3137 1.77598 20.3137 3.73305C20.3137 5.69013 21.9002 7.27665 23.8573 7.27665ZM47.4808 3.73305C47.4808 5.69013 45.8942 7.27665 43.9372 7.27665C41.9801 7.27665 40.3936 5.69013 40.3936 3.73305C40.3936 1.77598 41.9801 0.189453 43.9372 0.189453C45.8942 0.189453 47.4808 1.77598 47.4808 3.73305ZM64.018 7.27665C65.975 7.27665 67.5616 5.69013 67.5616 3.73305C67.5616 1.77598 65.975 0.189453 64.018 0.189453C62.0609 0.189453 60.4744 1.77598 60.4744 3.73305C60.4744 5.69013 62.0609 7.27665 64.018 7.27665ZM87.6419 3.73305C87.6419 5.69013 86.0554 7.27665 84.0983 7.27665C82.1412 7.27665 80.5547 5.69013 80.5547 3.73305C80.5547 1.77598 82.1412 0.189453 84.0983 0.189453C86.0554 0.189453 87.6419 1.77598 87.6419 3.73305ZM104.178 7.27665C106.135 7.27665 107.722 5.69013 107.722 3.73305C107.722 1.77598 106.135 0.189453 104.178 0.189453C102.221 0.189453 100.635 1.77598 100.635 3.73305C100.635 5.69013 102.221 7.27665 104.178 7.27665ZM127.803 3.73305C127.803 5.69013 126.216 7.27665 124.259 7.27665C122.302 7.27665 120.716 5.69013 120.716 3.73305C120.716 1.77598 122.302 0.189453 124.259 0.189453C126.216 0.189453 127.803 1.77598 127.803 3.73305ZM144.339 7.27665C146.297 7.27665 147.883 5.69013 147.883 3.73305C147.883 1.77598 146.297 0.189453 144.339 0.189453C142.382 0.189453 140.796 1.77598 140.796 3.73305C140.796 5.69013 142.382 7.27665 144.339 7.27665ZM167.963 3.73305C167.963 5.69013 166.377 7.27665 164.42 7.27665C162.462 7.27665 160.876 5.69013 160.876 3.73305C160.876 1.77598 162.462 0.189453 164.42 0.189453C166.377 0.189453 167.963 1.77598 167.963 3.73305ZM184.501 7.27665C186.458 7.27665 188.044 5.69013 188.044 3.73305C188.044 1.77598 186.458 0.189453 184.501 0.189453C182.544 0.189453 180.957 1.77598 180.957 3.73305C180.957 5.69013 182.544 7.27665 184.501 7.27665ZM7.32035 23.8131C7.32035 25.7702 5.73383 27.3567 3.77675 27.3567C1.81968 27.3567 0.233154 25.7702 0.233154 23.8131C0.233154 21.8561 1.81968 20.2695 3.77675 20.2695C5.73383 20.2695 7.32035 21.8561 7.32035 23.8131ZM23.8573 27.3567C25.8144 27.3567 27.4009 25.7702 27.4009 23.8131C27.4009 21.8561 25.8144 20.2695 23.8573 20.2695C21.9002 20.2695 20.3137 21.8561 20.3137 23.8131C20.3137 25.7702 21.9002 27.3567 23.8573 27.3567ZM47.4808 23.8131C47.4808 25.7702 45.8942 27.3567 43.9372 27.3567C41.9801 27.3567 40.3936 25.7702 40.3936 23.8131C40.3936 21.8561 41.9801 20.2695 43.9372 20.2695C45.8942 20.2695 47.4808 21.8561 47.4808 23.8131ZM64.018 27.3567C65.975 27.3567 67.5616 25.7702 67.5616 23.8131C67.5616 21.8561 65.975 20.2695 64.018 20.2695C62.0609 20.2695 60.4744 21.8561 60.4744 23.8131C60.4744 25.7702 62.0609 27.3567 64.018 27.3567ZM87.6419 23.8131C87.6419 25.7702 86.0554 27.3567 84.0983 27.3567C82.1412 27.3567 80.5547 25.7702 80.5547 23.8131C80.5547 21.8561 82.1412 20.2695 84.0983 20.2695C86.0554 20.2695 87.6419 21.8561 87.6419 23.8131ZM104.178 27.3567C106.135 27.3567 107.722 25.7702 107.722 23.8131C107.722 21.8561 106.135 20.2695 104.178 20.2695C102.221 20.2695 100.635 21.8561 100.635 23.8131C100.635 25.7702 102.221 27.3567 104.178 27.3567ZM127.803 23.8131C127.803 25.7702 126.216 27.3567 124.259 27.3567C122.302 27.3567 120.716 25.7702 120.716 23.8131C120.716 21.8561 122.302 20.2695 124.259 20.2695C126.216 20.2695 127.803 21.8561 127.803 23.8131ZM144.339 27.3567C146.297 27.3567 147.883 25.7702 147.883 23.8131C147.883 21.8561 146.297 20.2695 144.339 20.2695C142.382 20.2695 140.796 21.8561 140.796 23.8131C140.796 25.7702 142.382 27.3567 144.339 27.3567ZM167.963 23.8131C167.963 25.7702 166.377 27.3567 164.42 27.3567C162.462 27.3567 160.876 25.7702 160.876 23.8131C160.876 21.8561 162.462 20.2695 164.42 20.2695C166.377 20.2695 167.963 21.8561 167.963 23.8131ZM184.501 27.3567C186.458 27.3567 188.044 25.7702 188.044 23.8131C188.044 21.8561 186.458 20.2695 184.501 20.2695C182.544 20.2695 180.957 21.8561 180.957 23.8131C180.957 25.7702 182.544 27.3567 184.501 27.3567ZM7.32035 43.8942C7.32035 45.8513 5.73383 47.4378 3.77675 47.4378C1.81968 47.4378 0.233154 45.8513 0.233154 43.8942C0.233154 41.9371 1.81968 40.3506 3.77675 40.3506C5.73383 40.3506 7.32035 41.9371 7.32035 43.8942ZM23.8573 47.4378C25.8144 47.4378 27.4009 45.8513 27.4009 43.8942C27.4009 41.9371 25.8144 40.3506 23.8573 40.3506C21.9002 40.3506 20.3137 41.9371 20.3137 43.8942C20.3137 45.8513 21.9002 47.4378 23.8573 47.4378ZM47.4808 43.8932C47.4808 45.8503 45.8942 47.4368 43.9372 47.4368C41.9801 47.4368 40.3936 45.8503 40.3936 43.8932C40.3936 41.9361 41.9801 40.3496 43.9372 40.3496C45.8942 40.3496 47.4808 41.9361 47.4808 43.8932ZM64.018 47.4378C65.975 47.4378 67.5616 45.8513 67.5616 43.8942C67.5616 41.9371 65.975 40.3506 64.018 40.3506C62.0609 40.3506 60.4744 41.9371 60.4744 43.8942C60.4744 45.8513 62.0609 47.4378 64.018 47.4378ZM87.6419 43.8942C87.6419 45.8513 86.0554 47.4378 84.0983 47.4378C82.1412 47.4378 80.5547 45.8513 80.5547 43.8942C80.5547 41.9371 82.1412 40.3506 84.0983 40.3506C86.0554 40.3506 87.6419 41.9371 87.6419 43.8942ZM104.178 47.4368C106.135 47.4368 107.722 45.8503 107.722 43.8932C107.722 41.9361 106.135 40.3496 104.178 40.3496C102.221 40.3496 100.635 41.9361 100.635 43.8932C100.635 45.8503 102.221 47.4368 104.178 47.4368ZM127.803 43.8942C127.803 45.8513 126.216 47.4378 124.259 47.4378C122.302 47.4378 120.716 45.8513 120.716 43.8942C120.716 41.9371 122.302 40.3506 124.259 40.3506C126.216 40.3506 127.803 41.9371 127.803 43.8942ZM144.339 47.4378C146.297 47.4378 147.883 45.8513 147.883 43.8942C147.883 41.9371 146.297 40.3506 144.339 40.3506C142.382 40.3506 140.796 41.9371 140.796 43.8942C140.796 45.8513 142.382 47.4378 144.339 47.4378ZM167.963 43.8932C167.963 45.8503 166.377 47.4368 164.42 47.4368C162.462 47.4368 160.876 45.8503 160.876 43.8932C160.876 41.9361 162.462 40.3496 164.42 40.3496C166.377 40.3496 167.963 41.9361 167.963 43.8932ZM184.501 47.4368C186.458 47.4368 188.044 45.8503 188.044 43.8932C188.044 41.9361 186.458 40.3496 184.501 40.3496C182.544 40.3496 180.957 41.9361 180.957 43.8932C180.957 45.8503 182.544 47.4368 184.501 47.4368ZM7.32035 63.9743C7.32035 65.9313 5.73383 67.5179 3.77675 67.5179C1.81968 67.5179 0.233154 65.9313 0.233154 63.9743C0.233154 62.0172 1.81968 60.4307 3.77675 60.4307C5.73383 60.4307 7.32035 62.0172 7.32035 63.9743ZM23.8573 67.5179C25.8144 67.5179 27.4009 65.9313 27.4009 63.9743C27.4009 62.0172 25.8144 60.4307 23.8573 60.4307C21.9002 60.4307 20.3137 62.0172 20.3137 63.9743C20.3137 65.9313 21.9002 67.5179 23.8573 67.5179ZM47.4808 63.9743C47.4808 65.9313 45.8942 67.5179 43.9372 67.5179C41.9801 67.5179 40.3936 65.9313 40.3936 63.9743C40.3936 62.0172 41.9801 60.4307 43.9372 60.4307C45.8942 60.4307 47.4808 62.0172 47.4808 63.9743ZM64.018 67.5179C65.975 67.5179 67.5616 65.9313 67.5616 63.9743C67.5616 62.0172 65.975 60.4307 64.018 60.4307C62.0609 60.4307 60.4744 62.0172 60.4744 63.9743C60.4744 65.9313 62.0609 67.5179 64.018 67.5179ZM87.6419 63.9743C87.6419 65.9313 86.0554 67.5179 84.0983 67.5179C82.1412 67.5179 80.5547 65.9313 80.5547 63.9743C80.5547 62.0172 82.1412 60.4307 84.0983 60.4307C86.0554 60.4307 87.6419 62.0172 87.6419 63.9743ZM104.178 67.5179C106.135 67.5179 107.722 65.9313 107.722 63.9743C107.722 62.0172 106.135 60.4307 104.178 60.4307C102.221 60.4307 100.635 62.0172 100.635 63.9743C100.635 65.9313 102.221 67.5179 104.178 67.5179ZM127.803 63.9743C127.803 65.9313 126.216 67.5179 124.259 67.5179C122.302 67.5179 120.716 65.9313 120.716 63.9743C120.716 62.0172 122.302 60.4307 124.259 60.4307C126.216 60.4307 127.803 62.0172 127.803 63.9743ZM144.339 67.5179C146.297 67.5179 147.883 65.9313 147.883 63.9743C147.883 62.0172 146.297 60.4307 144.339 60.4307C142.382 60.4307 140.796 62.0172 140.796 63.9743C140.796 65.9313 142.382 67.5179 144.339 67.5179ZM167.963 63.9743C167.963 65.9313 166.377 67.5179 164.42 67.5179C162.462 67.5179 160.876 65.9313 160.876 63.9743C160.876 62.0172 162.462 60.4307 164.42 60.4307C166.377 60.4307 167.963 62.0172 167.963 63.9743ZM184.501 67.5179C186.458 67.5179 188.044 65.9313 188.044 63.9743C188.044 62.0172 186.458 60.4307 184.501 60.4307C182.544 60.4307 180.957 62.0172 180.957 63.9743C180.957 65.9313 182.544 67.5179 184.501 67.5179ZM7.32035 84.0543C7.32035 86.0114 5.73383 87.5979 3.77675 87.5979C1.81968 87.5979 0.233154 86.0114 0.233154 84.0543C0.233154 82.0973 1.81968 80.5107 3.77675 80.5107C5.73383 80.5107 7.32035 82.0973 7.32035 84.0543ZM23.8573 87.5979C25.8144 87.5979 27.4009 86.0114 27.4009 84.0543C27.4009 82.0973 25.8144 80.5107 23.8573 80.5107C21.9002 80.5107 20.3137 82.0973 20.3137 84.0543C20.3137 86.0114 21.9002 87.5979 23.8573 87.5979ZM47.4808 84.0543C47.4808 86.0114 45.8942 87.5979 43.9372 87.5979C41.9801 87.5979 40.3936 86.0114 40.3936 84.0543C40.3936 82.0973 41.9801 80.5107 43.9372 80.5107C45.8942 80.5107 47.4808 82.0973 47.4808 84.0543ZM64.018 87.5979C65.975 87.5979 67.5616 86.0114 67.5616 84.0543C67.5616 82.0973 65.975 80.5107 64.018 80.5107C62.0609 80.5107 60.4744 82.0973 60.4744 84.0543C60.4744 86.0114 62.0609 87.5979 64.018 87.5979ZM87.6419 84.0543C87.6419 86.0114 86.0554 87.5979 84.0983 87.5979C82.1412 87.5979 80.5547 86.0114 80.5547 84.0543C80.5547 82.0973 82.1412 80.5107 84.0983 80.5107C86.0554 80.5107 87.6419 82.0973 87.6419 84.0543ZM104.178 87.5979C106.135 87.5979 107.722 86.0114 107.722 84.0543C107.722 82.0973 106.135 80.5107 104.178 80.5107C102.221 80.5107 100.635 82.0973 100.635 84.0543C100.635 86.0114 102.221 87.5979 104.178 87.5979ZM127.803 84.0543C127.803 86.0114 126.216 87.5979 124.259 87.5979C122.302 87.5979 120.716 86.0114 120.716 84.0543C120.716 82.0973 122.302 80.5107 124.259 80.5107C126.216 80.5107 127.803 82.0973 127.803 84.0543ZM144.339 87.5979C146.297 87.5979 147.883 86.0114 147.883 84.0543C147.883 82.0973 146.297 80.5107 144.339 80.5107C142.382 80.5107 140.796 82.0973 140.796 84.0543C140.796 86.0114 142.382 87.5979 144.339 87.5979ZM167.963 84.0543C167.963 86.0114 166.377 87.5979 164.42 87.5979C162.462 87.5979 160.876 86.0114 160.876 84.0543C160.876 82.0973 162.462 80.5107 164.42 80.5107C166.377 80.5107 167.963 82.0973 167.963 84.0543ZM184.501 87.5979C186.458 87.5979 188.044 86.0114 188.044 84.0543C188.044 82.0973 186.458 80.5107 184.501 80.5107C182.544 80.5107 180.957 82.0973 180.957 84.0543C180.957 86.0114 182.544 87.5979 184.501 87.5979ZM7.32035 104.135C7.32035 106.092 5.73383 107.679 3.77675 107.679C1.81968 107.679 0.233154 106.092 0.233154 104.135C0.233154 102.178 1.81968 100.592 3.77675 100.592C5.73383 100.592 7.32035 102.178 7.32035 104.135ZM23.8573 107.679C25.8144 107.679 27.4009 106.092 27.4009 104.135C27.4009 102.178 25.8144 100.592 23.8573 100.592C21.9002 100.592 20.3137 102.178 20.3137 104.135C20.3137 106.092 21.9002 107.679 23.8573 107.679ZM47.4808 104.135C47.4808 106.092 45.8942 107.679 43.9372 107.679C41.9801 107.679 40.3936 106.092 40.3936 104.135C40.3936 102.178 41.9801 100.592 43.9372 100.592C45.8942 100.592 47.4808 102.178 47.4808 104.135ZM64.018 107.679C65.975 107.679 67.5616 106.092 67.5616 104.135C67.5616 102.178 65.975 100.592 64.018 100.592C62.0609 100.592 60.4744 102.178 60.4744 104.135C60.4744 106.092 62.0609 107.679 64.018 107.679ZM87.6419 104.135C87.6419 106.092 86.0554 107.679 84.0983 107.679C82.1412 107.679 80.5547 106.092 80.5547 104.135C80.5547 102.178 82.1412 100.592 84.0983 100.592C86.0554 100.592 87.6419 102.178 87.6419 104.135ZM104.178 107.679C106.135 107.679 107.722 106.092 107.722 104.135C107.722 102.178 106.135 100.592 104.178 100.592C102.221 100.592 100.635 102.178 100.635 104.135C100.635 106.092 102.221 107.679 104.178 107.679ZM127.803 104.135C127.803 106.092 126.216 107.679 124.259 107.679C122.302 107.679 120.716 106.092 120.716 104.135C120.716 102.178 122.302 100.592 124.259 100.592C126.216 100.592 127.803 102.178 127.803 104.135ZM144.339 107.679C146.297 107.679 147.883 106.092 147.883 104.135C147.883 102.178 146.297 100.592 144.339 100.592C142.382 100.592 140.796 102.178 140.796 104.135C140.796 106.092 142.382 107.679 144.339 107.679ZM167.963 104.135C167.963 106.092 166.377 107.679 164.42 107.679C162.462 107.679 160.876 106.092 160.876 104.135C160.876 102.178 162.462 100.592 164.42 100.592C166.377 100.592 167.963 102.178 167.963 104.135ZM184.501 107.679C186.458 107.679 188.044 106.092 188.044 104.135C188.044 102.178 186.458 100.592 184.501 100.592C182.544 100.592 180.957 102.178 180.957 104.135C180.957 106.092 182.544 107.679 184.501 107.679ZM7.32035 124.215C7.32035 126.173 5.73383 127.759 3.77675 127.759C1.81968 127.759 0.233154 126.173 0.233154 124.215C0.233154 122.258 1.81968 120.672 3.77675 120.672C5.73383 120.672 7.32035 122.258 7.32035 124.215ZM23.8573 127.759C25.8144 127.759 27.4009 126.173 27.4009 124.215C27.4009 122.258 25.8144 120.672 23.8573 120.672C21.9002 120.672 20.3137 122.258 20.3137 124.215C20.3137 126.173 21.9002 127.759 23.8573 127.759ZM47.4808 124.215C47.4808 126.173 45.8942 127.759 43.9372 127.759C41.9801 127.759 40.3936 126.173 40.3936 124.215C40.3936 122.258 41.9801 120.672 43.9372 120.672C45.8942 120.672 47.4808 122.258 47.4808 124.215ZM64.018 127.759C65.975 127.759 67.5616 126.173 67.5616 124.215C67.5616 122.258 65.975 120.672 64.018 120.672C62.0609 120.672 60.4744 122.258 60.4744 124.215C60.4744 126.173 62.0609 127.759 64.018 127.759ZM87.6419 124.215C87.6419 126.173 86.0554 127.759 84.0983 127.759C82.1412 127.759 80.5547 126.173 80.5547 124.215C80.5547 122.258 82.1412 120.672 84.0983 120.672C86.0554 120.672 87.6419 122.258 87.6419 124.215ZM104.178 127.759C106.135 127.759 107.722 126.173 107.722 124.215C107.722 122.258 106.135 120.672 104.178 120.672C102.221 120.672 100.635 122.258 100.635 124.215C100.635 126.173 102.221 127.759 104.178 127.759ZM127.803 124.215C127.803 126.173 126.216 127.759 124.259 127.759C122.302 127.759 120.716 126.173 120.716 124.215C120.716 122.258 122.302 120.672 124.259 120.672C126.216 120.672 127.803 122.258 127.803 124.215ZM144.339 127.759C146.297 127.759 147.883 126.173 147.883 124.215C147.883 122.258 146.297 120.672 144.339 120.672C142.382 120.672 140.796 122.258 140.796 124.215C140.796 126.173 142.382 127.759 144.339 127.759ZM167.963 124.215C167.963 126.173 166.377 127.759 164.42 127.759C162.462 127.759 160.876 126.173 160.876 124.215C160.876 122.258 162.462 120.672 164.42 120.672C166.377 120.672 167.963 122.258 167.963 124.215ZM184.501 127.759C186.458 127.759 188.044 126.173 188.044 124.215C188.044 122.258 186.458 120.672 184.501 120.672C182.544 120.672 180.957 122.258 180.957 124.215C180.957 126.173 182.544 127.759 184.501 127.759ZM7.32035 144.296C7.32035 146.253 5.73383 147.839 3.77675 147.839C1.81968 147.839 0.233154 146.253 0.233154 144.296C0.233154 142.338 1.81968 140.752 3.77675 140.752C5.73383 140.752 7.32035 142.338 7.32035 144.296ZM23.8573 147.839C25.8144 147.839 27.4009 146.253 27.4009 144.296C27.4009 142.338 25.8144 140.752 23.8573 140.752C21.9002 140.752 20.3137 142.338 20.3137 144.296C20.3137 146.253 21.9002 147.839 23.8573 147.839ZM47.4808 144.296C47.4808 146.253 45.8942 147.839 43.9372 147.839C41.9801 147.839 40.3936 146.253 40.3936 144.296C40.3936 142.338 41.9801 140.752 43.9372 140.752C45.8942 140.752 47.4808 142.338 47.4808 144.296ZM64.018 147.839C65.975 147.839 67.5616 146.253 67.5616 144.296C67.5616 142.338 65.975 140.752 64.018 140.752C62.0609 140.752 60.4744 142.338 60.4744 144.296C60.4744 146.253 62.0609 147.839 64.018 147.839ZM87.6419 144.296C87.6419 146.253 86.0554 147.839 84.0983 147.839C82.1412 147.839 80.5547 146.253 80.5547 144.296C80.5547 142.338 82.1412 140.752 84.0983 140.752C86.0554 140.752 87.6419 142.338 87.6419 144.296ZM104.178 147.839C106.135 147.839 107.722 146.253 107.722 144.296C107.722 142.338 106.135 140.752 104.178 140.752C102.221 140.752 100.635 142.338 100.635 144.296C100.635 146.253 102.221 147.839 104.178 147.839ZM127.803 144.296C127.803 146.253 126.216 147.839 124.259 147.839C122.302 147.839 120.716 146.253 120.716 144.296C120.716 142.338 122.302 140.752 124.259 140.752C126.216 140.752 127.803 142.338 127.803 144.296ZM144.339 147.839C146.297 147.839 147.883 146.253 147.883 144.296C147.883 142.338 146.297 140.752 144.339 140.752C142.382 140.752 140.796 142.338 140.796 144.296C140.796 146.253 142.382 147.839 144.339 147.839ZM167.963 144.296C167.963 146.253 166.377 147.839 164.42 147.839C162.462 147.839 160.876 146.253 160.876 144.296C160.876 142.338 162.462 140.752 164.42 140.752C166.377 140.752 167.963 142.338 167.963 144.296ZM184.501 147.839C186.458 147.839 188.044 146.253 188.044 144.296C188.044 142.338 186.458 140.752 184.501 140.752C182.544 140.752 180.957 142.338 180.957 144.296C180.957 146.253 182.544 147.839 184.501 147.839ZM7.32035 164.377C7.32035 166.334 5.73383 167.92 3.77675 167.92C1.81968 167.92 0.233154 166.334 0.233154 164.377C0.233154 162.42 1.81968 160.833 3.77675 160.833C5.73383 160.833 7.32035 162.42 7.32035 164.377ZM23.8573 167.92C25.8144 167.92 27.4009 166.334 27.4009 164.377C27.4009 162.42 25.8144 160.833 23.8573 160.833C21.9002 160.833 20.3137 162.42 20.3137 164.377C20.3137 166.334 21.9002 167.92 23.8573 167.92ZM47.4808 164.376C47.4808 166.333 45.8942 167.919 43.9372 167.919C41.9801 167.919 40.3936 166.333 40.3936 164.376C40.3936 162.419 41.9801 160.832 43.9372 160.832C45.8942 160.832 47.4808 162.419 47.4808 164.376ZM64.018 167.92C65.975 167.92 67.5616 166.334 67.5616 164.377C67.5616 162.42 65.975 160.833 64.018 160.833C62.0609 160.833 60.4744 162.42 60.4744 164.377C60.4744 166.334 62.0609 167.92 64.018 167.92ZM87.6419 164.377C87.6419 166.334 86.0554 167.92 84.0983 167.92C82.1412 167.92 80.5547 166.334 80.5547 164.377C80.5547 162.42 82.1412 160.833 84.0983 160.833C86.0554 160.833 87.6419 162.42 87.6419 164.377ZM104.178 167.919C106.135 167.919 107.722 166.333 107.722 164.376C107.722 162.419 106.135 160.832 104.178 160.832C102.221 160.832 100.635 162.419 100.635 164.376C100.635 166.333 102.221 167.919 104.178 167.919ZM127.803 164.377C127.803 166.334 126.216 167.92 124.259 167.92C122.302 167.92 120.716 166.334 120.716 164.377C120.716 162.42 122.302 160.833 124.259 160.833C126.216 160.833 127.803 162.42 127.803 164.377ZM144.339 167.92C146.297 167.92 147.883 166.334 147.883 164.377C147.883 162.42 146.297 160.833 144.339 160.833C142.382 160.833 140.796 162.42 140.796 164.377C140.796 166.334 142.382 167.92 144.339 167.92ZM167.963 164.376C167.963 166.333 166.377 167.919 164.42 167.919C162.462 167.919 160.876 166.333 160.876 164.376C160.876 162.419 162.462 160.832 164.42 160.832C166.377 160.832 167.963 162.419 167.963 164.376ZM184.501 167.919C186.458 167.919 188.044 166.333 188.044 164.376C188.044 162.419 186.458 160.832 184.501 160.832C182.544 160.832 180.957 162.419 180.957 164.376C180.957 166.333 182.544 167.919 184.501 167.919ZM7.32035 184.457C7.32035 186.414 5.73383 188 3.77675 188C1.81968 188 0.233154 186.414 0.233154 184.457C0.233154 182.5 1.81968 180.913 3.77675 180.913C5.73383 180.913 7.32035 182.5 7.32035 184.457ZM23.8573 188C25.8144 188 27.4009 186.414 27.4009 184.457C27.4009 182.5 25.8144 180.913 23.8573 180.913C21.9002 180.913 20.3137 182.5 20.3137 184.457C20.3137 186.414 21.9002 188 23.8573 188ZM47.4808 184.457C47.4808 186.414 45.8942 188 43.9372 188C41.9801 188 40.3936 186.414 40.3936 184.457C40.3936 182.5 41.9801 180.913 43.9372 180.913C45.8942 180.913 47.4808 182.5 47.4808 184.457ZM64.018 188C65.975 188 67.5616 186.414 67.5616 184.457C67.5616 182.5 65.975 180.913 64.018 180.913C62.0609 180.913 60.4744 182.5 60.4744 184.457C60.4744 186.414 62.0609 188 64.018 188ZM87.6419 184.457C87.6419 186.414 86.0554 188 84.0983 188C82.1412 188 80.5547 186.414 80.5547 184.457C80.5547 182.5 82.1412 180.913 84.0983 180.913C86.0554 180.913 87.6419 182.5 87.6419 184.457ZM104.178 188C106.135 188 107.722 186.414 107.722 184.457C107.722 182.5 106.135 180.913 104.178 180.913C102.221 180.913 100.635 182.5 100.635 184.457C100.635 186.414 102.221 188 104.178 188ZM127.803 184.457C127.803 186.414 126.216 188 124.259 188C122.302 188 120.716 186.414 120.716 184.457C120.716 182.5 122.302 180.913 124.259 180.913C126.216 180.913 127.803 182.5 127.803 184.457ZM144.339 188C146.297 188 147.883 186.414 147.883 184.457C147.883 182.5 146.297 180.913 144.339 180.913C142.382 180.913 140.796 182.5 140.796 184.457C140.796 186.414 142.382 188 144.339 188ZM167.963 184.457C167.963 186.414 166.377 188 164.42 188C162.462 188 160.876 186.414 160.876 184.457C160.876 182.5 162.462 180.913 164.42 180.913C166.377 180.913 167.963 182.5 167.963 184.457ZM184.501 188C186.458 188 188.044 186.414 188.044 184.457C188.044 182.5 186.458 180.913 184.501 180.913C182.544 180.913 180.957 182.5 180.957 184.457C180.957 186.414 182.544 188 184.501 188Z" fill="#7EA6DE"/>
</svg>
